<svg width="40" height="40" viewBox="0 0 40 40" fill="current" xmlns="http://www.w3.org/2000/svg">
<g clip-path="url(#clip0_7018_120863)">
<path d="M12.5 1.98438C11.1719 0.75 9.39062 0 7.4375 0C3.32812 0 0 3.32812 0 7.4375C0 8.90625 0.429688 10.2734 1.16406 11.4297L12.5 1.98438ZM20 40C23.9297 40 27.5625 38.7031 30.4844 36.5156L33.2344 39.2656C34.2109 40.2422 35.7969 40.2422 36.7734 39.2656C37.75 38.2891 37.75 36.7031 36.7734 35.7266L34.0234 32.9766C36.2109 30.0547 37.5078 26.4297 37.5078 22.4922C37.5 12.8359 29.6641 5 20 5C10.3359 5 2.5 12.8359 2.5 22.5C2.5 26.4297 3.79688 30.0625 5.98438 32.9844L3.23438 35.7344C2.25781 36.7109 2.25781 38.2969 3.23438 39.2734C4.21094 40.25 5.79688 40.25 6.77344 39.2734L9.52344 36.5234C12.4453 38.7109 16.0703 40.0078 20 40.0078V40ZM38.8359 11.4375C39.5703 10.2812 40 8.90625 40 7.4375C40 3.32812 36.6719 0 32.5625 0C30.6094 0 28.8281 0.75 27.5 1.98438L38.8359 11.4375ZM21.875 14.375V21.7266L25.0781 24.9297C25.8125 25.6641 25.8125 26.8516 25.0781 27.5781C24.3438 28.3047 23.1562 28.3125 22.4297 27.5781L18.6797 23.8281C18.3281 23.4766 18.1328 23 18.1328 22.5V14.375C18.1328 13.3359 18.9688 12.5 20.0078 12.5C21.0469 12.5 21.8828 13.3359 21.8828 14.375H21.875Z" fill="current"/>
</g>
<defs>
<clipPath id="clip0_7018_120863">
<rect width="40" height="40" fill="current"/>
</clipPath>
</defs>
</svg>
