<svg width="40" height="41" viewBox="0 0 40 41" fill="none" xmlns="http://www.w3.org/2000/svg">
<path d="M12.5 2.00293L1.16406 11.4561C0.429688 10.2998 0 8.9248 0 7.45605C0 3.34668 3.32812 0.0185547 7.4375 0.0185547C9.39062 0.0185547 11.1719 0.768555 12.5 2.00293ZM27.5 2.00293C28.8281 0.768555 30.6094 0.0185547 32.5625 0.0185547C36.6719 0.0185547 40 3.34668 40 7.45605C40 8.9248 39.5703 10.292 38.8359 11.4482L27.5 2.00293ZM17.5 30.0186C17.5 29.3555 17.7634 28.7196 18.2322 28.2508C18.7011 27.7819 19.337 27.5186 20 27.5186C20.663 27.5186 21.2989 27.7819 21.7678 28.2508C22.2366 28.7196 22.5 29.3555 22.5 30.0186C22.5 30.6816 22.2366 31.3175 21.7678 31.7863C21.2989 32.2552 20.663 32.5186 20 32.5186C19.337 32.5186 18.7011 32.2552 18.2322 31.7863C17.7634 31.3175 17.5 30.6816 17.5 30.0186ZM21.875 14.3936V23.1436C21.875 24.1826 21.0391 25.0186 20 25.0186C18.9609 25.0186 18.125 24.1826 18.125 23.1436V14.3936C18.125 13.3545 18.9609 12.5186 20 12.5186C21.0391 12.5186 21.875 13.3545 21.875 14.3936Z" fill="#E84A4A"/>
<path d="M30.4844 36.5342C27.5625 38.7217 23.9297 40.0186 20 40.0186C16.0703 40.0186 12.4375 38.7217 9.52344 36.5342L6.76562 39.2842C5.78906 40.2607 4.20312 40.2607 3.22656 39.2842C2.25 38.3076 2.25 36.7217 3.22656 35.7451L5.97656 32.9951C3.79688 30.0811 2.5 26.4482 2.5 22.5186C2.5 12.8545 10.3359 5.01855 20 5.01855C29.6641 5.01855 37.5 12.8545 37.5 22.5186C37.5 26.4482 36.2031 30.0811 34.0156 33.0029L36.7656 35.7529C37.7422 36.7295 37.7422 38.3154 36.7656 39.292C35.7891 40.2686 34.2031 40.2686 33.2266 39.292L30.4766 36.542L30.4844 36.5342ZM22.5 30.0186C22.5 29.3555 22.2366 28.7196 21.7678 28.2508C21.2989 27.7819 20.663 27.5186 20 27.5186C19.337 27.5186 18.7011 27.7819 18.2322 28.2508C17.7634 28.7196 17.5 29.3555 17.5 30.0186C17.5 30.6816 17.7634 31.3175 18.2322 31.7863C18.7011 32.2552 19.337 32.5186 20 32.5186C20.663 32.5186 21.2989 32.2552 21.7678 31.7863C22.2366 31.3175 22.5 30.6816 22.5 30.0186ZM21.875 14.3936C21.875 13.3545 21.0391 12.5186 20 12.5186C18.9609 12.5186 18.125 13.3545 18.125 14.3936V23.1436C18.125 24.1826 18.9609 25.0186 20 25.0186C21.0391 25.0186 21.875 24.1826 21.875 23.1436V14.3936Z" fill="#2D253F"/>
</svg>
