<svg width="40" height="41" viewBox="0 0 40 41" fill="none" xmlns="http://www.w3.org/2000/svg">
<path d="M1.16406 11.4443C0.429688 10.2881 0 8.91309 0 7.44434C0 3.33496 3.32812 0.00683594 7.4375 0.00683594C9.39062 0.00683594 11.1719 0.756836 12.5 1.99121L1.16406 11.4443ZM33.75 22.5068C33.75 18.8601 32.3013 15.3627 29.7227 12.7841C27.1441 10.2055 23.6467 8.75684 20 8.75684C16.3533 8.75684 12.8559 10.2055 10.2773 12.7841C7.69866 15.3627 6.25 18.8601 6.25 22.5068C6.25 26.1536 7.69866 29.6509 10.2773 32.2296C12.8559 34.8082 16.3533 36.2568 20 36.2568C23.6467 36.2568 27.1441 34.8082 29.7227 32.2296C32.3013 29.6509 33.75 26.1536 33.75 22.5068ZM30.9766 36.1396C27.9766 38.5537 24.1562 40.0068 20 40.0068C15.8438 40.0068 12.0234 38.5537 9.02344 36.1396L5.70312 39.46C4.96875 40.1943 3.78125 40.1943 3.05469 39.46C2.32812 38.7256 2.32031 37.5381 3.05469 36.8115L6.375 33.4912C3.95312 30.4834 2.5 26.6631 2.5 22.5068C2.5 12.8428 10.3359 5.00684 20 5.00684C29.6641 5.00684 37.5 12.8428 37.5 22.5068C37.5 26.6631 36.0469 30.4834 33.6328 33.4834L36.9531 36.8037C37.6875 37.5381 37.6875 38.7256 36.9531 39.4521C36.2188 40.1787 35.0312 40.1865 34.3047 39.4521L30.9844 36.1318L30.9766 36.1396ZM27.5 1.99121C28.8281 0.756836 30.6094 0.00683594 32.5625 0.00683594C36.6719 0.00683594 40 3.33496 40 7.44434C40 8.91309 39.5703 10.2803 38.8359 11.4365L27.5 1.99121ZM20 27.5068C20.663 27.5068 21.2989 27.7702 21.7678 28.2391C22.2366 28.7079 22.5 29.3438 22.5 30.0068C22.5 30.6699 22.2366 31.3058 21.7678 31.7746C21.2989 32.2434 20.663 32.5068 20 32.5068C19.337 32.5068 18.7011 32.2434 18.2322 31.7746C17.7634 31.3058 17.5 30.6699 17.5 30.0068C17.5 29.3438 17.7634 28.7079 18.2322 28.2391C18.7011 27.7702 19.337 27.5068 20 27.5068ZM21.875 14.3818V23.1318C21.875 24.1709 21.0391 25.0068 20 25.0068C18.9609 25.0068 18.125 24.1709 18.125 23.1318V14.3818C18.125 13.3428 18.9609 12.5068 20 12.5068C21.0391 12.5068 21.875 13.3428 21.875 14.3818Z" fill="#B3B3C3"/>
</svg>
