<svg width="40" height="40" viewBox="0 0 40 40" fill="none" xmlns="http://www.w3.org/2000/svg">
<g clip-path="url(#clip0_7018_120853)">
<path d="M12.5 1.98438C11.1719 0.75 9.39062 0 7.4375 0C3.32812 0 0 3.32812 0 7.4375C0 8.90625 0.429688 10.2734 1.16406 11.4297L12.5 1.98438ZM20 8.75C23.6467 8.75 27.1441 10.1987 29.7227 12.7773C32.3013 15.3559 33.75 18.8533 33.75 22.5C33.75 26.1467 32.3013 29.6441 29.7227 32.2227C27.1441 34.8013 23.6467 36.25 20 36.25C16.3533 36.25 12.8559 34.8013 10.2773 32.2227C7.69866 29.6441 6.25 26.1467 6.25 22.5C6.25 18.8533 7.69866 15.3559 10.2773 12.7773C12.8559 10.1987 16.3533 8.75 20 8.75ZM20 40C24.1562 40 27.9766 38.5469 30.9766 36.1328L34.2969 39.4531C35.0312 40.1875 36.2188 40.1875 36.9453 39.4531C37.6719 38.7188 37.6797 37.5312 36.9453 36.8047L33.625 33.4844C36.0469 30.4844 37.4922 26.6641 37.4922 22.5078C37.5 12.8359 29.6641 5 20 5C10.3359 5 2.5 12.8359 2.5 22.5C2.5 26.6562 3.95312 30.4766 6.36719 33.4766L3.04688 36.7969C2.3125 37.5312 2.3125 38.7188 3.04688 39.4453C3.78125 40.1719 4.96875 40.1797 5.69531 39.4453L9.01562 36.125C12.0156 38.5469 15.8359 39.9922 19.9922 39.9922L20 40ZM38.8359 11.4375C39.5703 10.2812 40 8.90625 40 7.4375C40 3.32812 36.6719 0 32.5625 0C30.6094 0 28.8281 0.75 27.5 1.98438L38.8359 11.4375ZM21.875 14.375C21.875 13.3359 21.0391 12.5 20 12.5C18.9609 12.5 18.125 13.3359 18.125 14.375V22.5C18.125 23 18.3203 23.4766 18.6719 23.8281L22.4219 27.5781C23.1562 28.3125 24.3438 28.3125 25.0703 27.5781C25.7969 26.8438 25.8047 25.6562 25.0703 24.9297L21.8672 21.7266V14.375H21.875Z" fill="#B3B3C3"/>
</g>
<defs>
<clipPath id="clip0_7018_120853">
<rect width="40" height="40" fill="white"/>
</clipPath>
</defs>
</svg>
