<svg width="40" height="41" viewBox="0 0 40 41" fill="none" xmlns="http://www.w3.org/2000/svg">
<path d="M12.5 1.99609L1.16406 11.4492C0.429688 10.293 0 8.91797 0 7.44922C0 3.33984 3.32812 0.0117188 7.4375 0.0117188C9.39062 0.0117188 11.1719 0.761719 12.5 1.99609ZM27.5 1.99609C28.8281 0.761719 30.6094 0.0117188 32.5625 0.0117188C36.6719 0.0117188 40 3.33984 40 7.44922C40 8.91797 39.5703 10.2852 38.8359 11.4414L27.5 1.99609ZM17.5 30.0117C17.5 29.3487 17.7634 28.7128 18.2322 28.244C18.7011 27.7751 19.337 27.5117 20 27.5117C20.663 27.5117 21.2989 27.7751 21.7678 28.244C22.2366 28.7128 22.5 29.3487 22.5 30.0117C22.5 30.6748 22.2366 31.3106 21.7678 31.7795C21.2989 32.2483 20.663 32.5117 20 32.5117C19.337 32.5117 18.7011 32.2483 18.2322 31.7795C17.7634 31.3106 17.5 30.6748 17.5 30.0117ZM21.875 14.3867V23.1367C21.875 24.1758 21.0391 25.0117 20 25.0117C18.9609 25.0117 18.125 24.1758 18.125 23.1367V14.3867C18.125 13.3477 18.9609 12.5117 20 12.5117C21.0391 12.5117 21.875 13.3477 21.875 14.3867Z" fill="#E84A4A"/>
<path d="M30.4844 36.5273C27.5625 38.7148 23.9297 40.0117 20 40.0117C16.0703 40.0117 12.4375 38.7148 9.52344 36.5273L6.76562 39.2773C5.78906 40.2539 4.20312 40.2539 3.22656 39.2773C2.25 38.3008 2.25 36.7148 3.22656 35.7383L5.97656 32.9883C3.79688 30.0742 2.5 26.4414 2.5 22.5117C2.5 12.8477 10.3359 5.01172 20 5.01172C29.6641 5.01172 37.5 12.8477 37.5 22.5117C37.5 26.4414 36.2031 30.0742 34.0156 32.9961L36.7656 35.7461C37.7422 36.7227 37.7422 38.3086 36.7656 39.2852C35.7891 40.2617 34.2031 40.2617 33.2266 39.2852L30.4766 36.5352L30.4844 36.5273ZM22.5 30.0117C22.5 29.3487 22.2366 28.7128 21.7678 28.244C21.2989 27.7751 20.663 27.5117 20 27.5117C19.337 27.5117 18.7011 27.7751 18.2322 28.244C17.7634 28.7128 17.5 29.3487 17.5 30.0117C17.5 30.6748 17.7634 31.3106 18.2322 31.7795C18.7011 32.2483 19.337 32.5117 20 32.5117C20.663 32.5117 21.2989 32.2483 21.7678 31.7795C22.2366 31.3106 22.5 30.6748 22.5 30.0117ZM21.875 14.3867C21.875 13.3477 21.0391 12.5117 20 12.5117C18.9609 12.5117 18.125 13.3477 18.125 14.3867V23.1367C18.125 24.1758 18.9609 25.0117 20 25.0117C21.0391 25.0117 21.875 24.1758 21.875 23.1367V14.3867Z" fill="white"/>
</svg>
