<svg width="40" height="41" viewBox="0 0 40 41" fill="none" xmlns="http://www.w3.org/2000/svg">
<path d="M1.16406 11.4375C0.429688 10.2812 0 8.90625 0 7.4375C0 3.32812 3.32812 0 7.4375 0C9.39062 0 11.1719 0.75 12.5 1.98438L1.16406 11.4375ZM30.4844 36.5156C27.5625 38.7031 23.9297 40 20 40C16.0703 40 12.4375 38.7031 9.52344 36.5156L6.76562 39.2656C5.78906 40.2422 4.20312 40.2422 3.22656 39.2656C2.25 38.2891 2.25 36.7031 3.22656 35.7266L5.97656 32.9766C3.79688 30.0625 2.5 26.4297 2.5 22.5C2.5 12.8359 10.3359 5 20 5C29.6641 5 37.5 12.8359 37.5 22.5C37.5 26.4297 36.2031 30.0625 34.0156 32.9844L36.7656 35.7344C37.7422 36.7109 37.7422 38.2969 36.7656 39.2734C35.7891 40.25 34.2031 40.25 33.2266 39.2734L30.4766 36.5234L30.4844 36.5156ZM27.5 1.98438C28.8281 0.75 30.6094 0 32.5625 0C36.6719 0 40 3.32812 40 7.4375C40 8.90625 39.5703 10.2734 38.8359 11.4297L27.5 1.98438ZM22.5 30C22.5 29.337 22.2366 28.7011 21.7678 28.2322C21.2989 27.7634 20.663 27.5 20 27.5C19.337 27.5 18.7011 27.7634 18.2322 28.2322C17.7634 28.7011 17.5 29.337 17.5 30C17.5 30.663 17.7634 31.2989 18.2322 31.7678C18.7011 32.2366 19.337 32.5 20 32.5C20.663 32.5 21.2989 32.2366 21.7678 31.7678C22.2366 31.2989 22.5 30.663 22.5 30ZM21.875 14.375C21.875 13.3359 21.0391 12.5 20 12.5C18.9609 12.5 18.125 13.3359 18.125 14.375V23.125C18.125 24.1641 18.9609 25 20 25C21.0391 25 21.875 24.1641 21.875 23.125V14.375Z" fill="#2D253F"/>
</svg>
