<svg width="80" height="70" viewBox="0 0 80 70" fill="none" xmlns="http://www.w3.org/2000/svg">
<path d="M39.9971 0C42.216 0 44.263 1.16604 45.3881 3.07836L79.1405 60.2923C80.2812 62.2201 80.2812 64.5989 79.1718 66.5267C78.0623 68.4546 75.9841 69.6517 73.7495 69.6517H6.24468C4.01014 69.6517 1.93187 68.4546 0.822417 66.5267C-0.287038 64.5989 -0.271412 62.2046 0.853669 60.2923L34.6061 3.07836C35.7312 1.16604 37.7782 0 39.9971 0ZM39.9971 19.9005C37.9188 19.9005 36.2468 21.5641 36.2468 23.6318V41.0448C36.2468 43.1126 37.9188 44.7761 39.9971 44.7761C42.0754 44.7761 43.7474 43.1126 43.7474 41.0448V23.6318C43.7474 21.5641 42.0754 19.9005 39.9971 19.9005ZM44.9975 54.7264C44.9975 53.4069 44.4706 52.1414 43.5329 51.2084C42.5951 50.2754 41.3233 49.7512 39.9971 49.7512C38.6709 49.7512 37.3991 50.2754 36.4613 51.2084C35.5236 52.1414 34.9967 53.4069 34.9967 54.7264C34.9967 56.0459 35.5236 57.3113 36.4613 58.2443C37.3991 59.1773 38.6709 59.7015 39.9971 59.7015C41.3233 59.7015 42.5951 59.1773 43.5329 58.2443C44.4706 57.3113 44.9975 56.0459 44.9975 54.7264Z" fill="#BD493D"/>
</svg>
