<svg width="41" height="41" viewBox="0 0 41 41" fill="current" xmlns="http://www.w3.org/2000/svg">
<g clip-path="url(#clip0_1176_21039)">
<path d="M31.7793 29.2715L39.2793 21.7715C40.2559 20.7949 40.2559 19.209 39.2793 18.2324L31.7793 10.7324C30.8027 9.75586 29.2168 9.75586 28.2402 10.7324C27.2637 11.709 27.2637 13.2949 28.2402 14.2715L31.4746 17.5059H8.54492L11.7793 14.2715C12.7559 13.2949 12.7559 11.709 11.7793 10.7324C10.8027 9.75586 9.2168 9.75586 8.24023 10.7324L0.740234 18.2324C-0.236328 19.209 -0.236328 20.7949 0.740234 21.7715L8.24023 29.2715C9.2168 30.248 10.8027 30.248 11.7793 29.2715C12.7559 28.2949 12.7559 26.709 11.7793 25.7324L8.55273 22.5059H31.4824L28.248 25.7402C27.2715 26.7168 27.2715 28.3027 28.248 29.2793C29.2246 30.2559 30.8105 30.2559 31.7871 29.2793L31.7793 29.2715Z" fill="current"/>
</g>
<defs>
<clipPath id="clip0_1176_21039">
<rect width="40.0039" height="40.0117" fill="current" transform="translate(0.0078125)"/>
</clipPath>
</defs>
</svg>
