<svg width="41" height="40" viewBox="0 0 41 40" fill="none" xmlns="http://www.w3.org/2000/svg">
<g clip-path="url(#clip0_2897_46239)">
<path d="M2.75561 21.8747C1.72454 21.8044 0.93561 20.9139 0.998099 19.8828L1.03716 19.2579C1.43552 13.0012 6.62212 8.12706 12.8867 8.12706H29.5947L25.2908 3.83093C24.5565 3.09668 24.5565 1.90939 25.2908 1.18295C26.025 0.456517 27.2123 0.448706 27.9387 1.18295L35.4374 8.68165C35.9764 9.22062 36.1326 10.0252 35.8436 10.7282C35.5546 11.4312 34.8672 11.8842 34.1095 11.8842H12.8867C8.59834 11.8842 5.04427 15.2196 4.77869 19.5001L4.73964 20.125C4.67715 21.156 3.78668 21.945 2.7478 21.8825L2.75561 21.8747ZM39.2336 18.1331C40.2647 18.1956 41.0536 19.0861 40.9912 20.125L40.9521 20.7499C40.5537 26.9988 35.3671 31.8729 29.1026 31.8729H12.3946L16.6907 36.1691C17.4249 36.9033 17.4249 38.0906 16.6907 38.817C15.9564 39.5435 14.7691 39.5513 14.0427 38.817L6.54401 31.3262C6.00504 30.7872 5.84882 29.9826 6.13783 29.2796C6.42684 28.5766 7.11423 28.1236 7.87191 28.1236H29.1026C33.3909 28.1236 36.945 24.7882 37.2106 20.5077L37.2496 19.8828C37.3121 18.8518 38.2026 18.0628 39.2336 18.1253V18.1331ZM23.4942 16.8755V23.1245C23.4942 24.1633 22.6584 24.9991 21.6195 24.9991C20.5806 24.9991 19.7448 24.1633 19.7448 23.1245V19.3751C18.9637 19.3751 18.2295 18.8752 17.9639 18.0941C17.6358 17.1099 18.167 16.0476 19.1512 15.7195L21.0259 15.0946C21.5961 14.9071 22.2288 15.0009 22.7131 15.3524C23.1974 15.7039 23.4942 16.2741 23.4942 16.8755Z" fill="#B3B3C3"/>
</g>
<defs>
<clipPath id="clip0_2897_46239">
<rect width="40" height="40" fill="white" transform="translate(0.994629)"/>
</clipPath>
</defs>
</svg>
