<svg width="41" height="40" viewBox="0 0 41 40" fill="none" xmlns="http://www.w3.org/2000/svg">
<g clip-path="url(#clip0_2930_46086)">
<path d="M0.627027 0.587378C1.4102 -0.195793 2.6766 -0.195793 3.45144 0.587378L13.366 10.502V3.3368C13.366 2.2287 14.2575 1.33722 15.3656 1.33722C16.4737 1.33722 17.3652 2.2287 17.3652 3.3368V15.3343C17.3652 16.4424 16.4737 17.3339 15.3656 17.3339H3.37645C2.26835 17.3339 1.37687 16.4424 1.37687 15.3343C1.37687 14.2262 2.26835 13.3347 3.37645 13.3347H10.55L0.627027 3.42012C-0.147811 2.63695 -0.147811 1.37055 0.627027 0.587378ZM39.4523 0.587378C40.2354 1.37055 40.2354 2.63695 39.4523 3.41179L29.5377 13.3264H36.7028C37.8109 13.3264 38.7024 14.2179 38.7024 15.326C38.7024 16.4341 37.8109 17.3256 36.7028 17.3256H24.7053C23.5972 17.3256 22.7058 16.4341 22.7058 15.326V3.3368C22.7058 2.2287 23.5972 1.33722 24.7053 1.33722C25.8134 1.33722 26.7049 2.2287 26.7049 3.3368V10.5103L36.6195 0.587378C37.4027 -0.195793 38.6691 -0.195793 39.4439 0.587378H39.4523ZM3.37645 26.6653C2.26835 26.6653 1.37687 25.7738 1.37687 24.6657C1.37687 23.5576 2.26835 22.6661 3.37645 22.6661H15.374C16.4821 22.6661 17.3735 23.5576 17.3735 24.6657V36.6632C17.3735 37.7713 16.4821 38.6628 15.374 38.6628C14.2659 38.6628 13.3744 37.7713 13.3744 36.6632V29.4897L3.45977 39.4126C2.6766 40.1958 1.4102 40.1958 0.635359 39.4126C-0.13948 38.6295 -0.147811 37.363 0.635359 36.5882L10.55 26.6736H3.37645V26.6653ZM22.7058 24.6657C22.7058 23.5576 23.5972 22.6661 24.7053 22.6661H36.7028C37.8109 22.6661 38.7024 23.5576 38.7024 24.6657C38.7024 25.7738 37.8109 26.6653 36.7028 26.6653H29.5293L39.4523 36.5799C40.2354 37.363 40.2354 38.6295 39.4523 39.4043C38.6691 40.1791 37.4027 40.1875 36.6279 39.4043L26.7133 29.4897V36.6632C26.7133 37.7713 25.8218 38.6628 24.7137 38.6628C23.6056 38.6628 22.7141 37.7713 22.7141 36.6632V24.6657H22.7058Z" fill="#B3B3C3"/>
</g>
<defs>
<clipPath id="clip0_2930_46086">
<rect width="40" height="40" fill="white" transform="translate(0.0429688)"/>
</clipPath>
</defs>
</svg>
