<svg width="40" height="40" viewBox="0 0 40 40" fill="none" xmlns="http://www.w3.org/2000/svg">
<path d="M0 20C0 21.3828 1.11719 22.5 2.5 22.5H31.4609C32.2969 21.6641 33.125 20.8359 33.9609 20C33.125 19.1641 32.2969 18.3359 31.4609 17.5H2.5C1.11719 17.5 0 18.6172 0 20Z" fill="#2E2640"/>
<path d="M39.2656 18.2344C40.2422 19.2109 40.2422 20.7969 39.2656 21.7734L29.2656 31.7734C28.2891 32.75 26.7031 32.75 25.7266 31.7734C24.75 30.7969 24.75 29.2109 25.7266 28.2344L33.9609 20L25.7344 11.7656C24.7578 10.7891 24.7578 9.20312 25.7344 8.22656C26.7109 7.25 28.2969 7.25 29.2734 8.22656L39.2734 18.2266L39.2656 18.2344Z" fill="#FF4545"/>
</svg>
