<svg width="41" height="40" viewBox="0 0 41 40" fill="none" xmlns="http://www.w3.org/2000/svg">
<g clip-path="url(#clip0_2930_46080)">
<path d="M39.4668 21.3281C40.2012 20.5937 40.2012 19.4063 39.4668 18.6797L31.9668 11.1797C31.2324 10.4453 30.0449 10.4453 29.3184 11.1797C28.5918 11.9141 28.584 13.1016 29.3184 13.8281L33.6152 18.125H6.41211L10.709 13.8281C11.4434 13.0937 11.4434 11.9062 10.709 11.1797C9.97461 10.4531 8.78711 10.4453 8.06055 11.1797L0.560547 18.6719C-0.173828 19.4062 -0.173828 20.5937 0.560547 21.3203L8.06055 28.8203C8.79492 29.5547 9.98242 29.5547 10.709 28.8203C11.4355 28.0859 11.4434 26.8984 10.709 26.1719L6.41211 21.875H33.6074L29.3105 26.1719C28.5762 26.9062 28.5762 28.0937 29.3105 28.8203C30.0449 29.5469 31.2324 29.5547 31.959 28.8203L39.459 21.3203L39.4668 21.3281Z" fill="#B3B3C3"/>
</g>
<defs>
<clipPath id="clip0_2930_46080">
<rect width="40" height="40" fill="white" transform="translate(0.00976562)"/>
</clipPath>
</defs>
</svg>
