<svg width="41" height="41" viewBox="0 0 41 41" fill="current" xmlns="http://www.w3.org/2000/svg">
<g clip-path="url(#clip0_632_15510)">
<path d="M0.130102 17.4332C-0.307398 18.7457 0.403539 20.1598 1.70823 20.5973C3.01291 21.0348 4.43479 20.3239 4.87229 19.0192C6.02854 15.5582 9.26291 13.2223 12.9114 13.2223H26.466L23.2317 16.4567C22.2551 17.4332 22.2551 19.0192 23.2317 19.9957C24.2082 20.9723 25.7942 20.9723 26.7707 19.9957L34.2707 12.4957C35.2473 11.5192 35.2473 9.93323 34.2707 8.95667L26.7707 1.45667C25.7942 0.480103 24.2082 0.480103 23.2317 1.45667C22.2551 2.43323 22.2551 4.01917 23.2317 4.99573L26.466 8.22229H12.9114C7.11448 8.22229 1.96604 11.9332 0.130102 17.4332ZM39.8723 24.0114C40.3098 22.6989 39.5989 21.2848 38.2942 20.8473C36.9895 20.4098 35.5676 21.1207 35.1301 22.4254C33.9817 25.8864 30.7473 28.2223 27.0989 28.2223H13.5442L16.7785 24.9879C17.7551 24.0114 17.7551 22.4254 16.7785 21.4489C15.802 20.4723 14.216 20.4723 13.2395 21.4489L5.73948 28.9489C4.76291 29.9254 4.76291 31.5114 5.73948 32.4879L13.2395 39.9879C14.216 40.9645 15.802 40.9645 16.7785 39.9879C17.7551 39.0114 17.7551 37.4254 16.7785 36.4489L13.5442 33.2223H27.0989C32.8957 33.2223 38.0442 29.5114 39.8801 24.0114H39.8723Z" fill="current"/>
</g>
<defs>
<clipPath id="clip0_632_15510">
<rect width="40.0004" height="39.9961" fill="current" transform="translate(0.000976562 0.724243)"/>
</clipPath>
</defs>
</svg>
