<svg width="41" height="40" viewBox="0 0 41 40" fill="none" xmlns="http://www.w3.org/2000/svg">
<path d="M21.6191 25C22.6582 25 23.4941 24.1641 23.4941 23.125V16.875C23.4941 15.8352 22.6504 14.9993 21.6184 14.9993C21.4195 14.9993 21.2191 15.0314 21.0255 15.095L19.1505 15.72C18.3613 15.9844 17.7988 16.711 17.7988 17.4297C17.7988 18.5391 18.7129 19.375 19.7441 19.375V23.125C19.7441 24.1641 20.5879 25 21.6191 25Z" fill="#E84A4A"/>
<path d="M13.9009 12.5H33.4946C34.8751 12.5 35.9938 11.382 35.9938 10C35.9938 9.36031 35.7505 8.72031 35.2622 8.23281L27.8325 0.732813C27.2759 0.244141 26.6353 0 25.9946 0C24.6626 0 23.5649 1.07266 23.5649 2.5C23.5649 3.13969 23.8091 3.77969 24.2974 4.26719L27.4634 7.5H13.9009C3.73682 7.5 0.994629 16.8125 0.994629 17.5C0.994605 18.8828 2.11885 20 3.49541 20C4.54307 20 5.51807 19.3384 5.86729 18.2906C7.02041 14.8281 10.2524 12.5 13.9009 12.5ZM38.4243 20C37.3767 20 36.4017 20.6616 36.0524 21.7094C34.9712 25.1719 31.7368 27.5 28.0884 27.5H8.49463C7.11416 27.5 5.99541 28.618 5.99541 30C5.99541 30.6397 6.23877 31.2797 6.72705 31.7672L14.1567 39.2672C14.7134 39.7578 15.354 40 15.9243 40C17.2563 40 18.354 38.9273 18.354 37.5C18.354 36.8603 18.1099 36.2203 17.6216 35.7328L14.5259 32.5H28.0884C38.2524 32.5 40.9946 23.1875 40.9946 22.5C40.9946 21.1172 39.8696 20 38.4243 20Z" fill="#2D253F"/>
</svg>
