<svg width="40" height="40" viewBox="0 0 40 40" fill="none" xmlns="http://www.w3.org/2000/svg">
<g clip-path="url(#clip0_3396_58490)">
<path d="M40.0002 2.66667V14.6667C40.0002 16.1408 38.806 17.3333 37.3335 17.3333H26.6668C25.1943 17.3333 24.0002 16.1408 24.0002 14.6667C24.0002 13.1925 25.1943 12 26.6668 12H30.3652C28.0252 8.70833 24.2085 6.66667 20.0002 6.66667C14.4502 6.66667 9.57517 10.2083 7.87517 15.4833C7.42517 16.8833 5.9235 17.6583 4.516 17.2C3.11517 16.7495 2.34517 15.2442 2.7985 13.8433C5.216 6.36167 12.1252 1.33333 20.0002 1.33333C25.9468 1.33333 31.3418 4.21 34.6668 8.84083V2.66667C34.6668 1.1925 35.861 0 37.3335 0C38.806 0 40.0002 1.1925 40.0002 2.66667Z" fill="white"/>
<path d="M37.2 26.1501C34.7833 33.6417 27.8667 38.6667 19.925 38.6667C14.05 38.6667 8.65833 35.7917 5.33333 31.1584V37.3334C5.33333 38.8076 4.13917 40.0001 2.66667 40.0001C1.19417 40.0001 0 38.8076 0 37.3334V25.3334C0 23.8592 1.19417 22.6667 2.66667 22.6667H13.3333C14.8058 22.6667 16 23.8592 16 25.3334C16 26.8076 14.8058 28.0001 13.3333 28.0001H9.63333C11.975 31.2917 15.7917 33.3334 20 33.3334C25.5483 33.3334 30.425 29.7892 32.125 24.5167C32.5768 23.1184 34.0733 22.3476 35.4833 22.8009C36.8833 23.1751 37.6583 24.7501 37.2 26.1501Z" fill="#E84A4A"/>
</g>
<defs>
<clipPath id="clip0_3396_58490">
<rect width="40" height="40" fill="white"/>
</clipPath>
</defs>
</svg>
