<svg width="41" height="41" viewBox="0 0 41 41" fill="current" xmlns="http://www.w3.org/2000/svg">
<g clip-path="url(#clip0_668_15541)">
<path d="M2.7081 19.8809C1.3956 19.4434 0.692473 18.0215 1.12216 16.7168C2.9581 11.2168 8.10654 7.50586 13.9034 7.50586H27.4581L24.2315 4.27148C23.255 3.29492 23.255 1.70898 24.2315 0.732422C25.2081 -0.244141 26.794 -0.244141 27.7706 0.732422L35.2706 8.23242C35.9893 8.95117 36.2003 10.0215 35.8097 10.959C35.419 11.8965 34.5128 12.5059 33.4972 12.5059H13.9034C10.255 12.5059 7.0206 14.8418 5.87216 18.2949C5.43466 19.6074 4.0206 20.3105 2.7081 19.873V19.8809ZM39.2862 20.1387C40.5987 20.5762 41.3018 21.9902 40.8643 23.3027C39.0362 28.7949 33.8878 32.5059 28.0909 32.5059H14.5362L17.7706 35.7402C18.7472 36.7168 18.7472 38.3027 17.7706 39.2793C16.794 40.2559 15.2081 40.2559 14.2315 39.2793L6.73154 31.7793C6.01279 31.0605 5.80185 29.9902 6.19247 29.0527C6.5831 28.1152 7.48935 27.5059 8.50497 27.5059H28.0909C31.7393 27.5059 34.9737 25.1699 36.1222 21.7168C36.5597 20.4043 37.9737 19.7012 39.2862 20.1387ZM23.4972 16.8809V23.1309C23.4972 24.1699 22.6612 25.0059 21.6222 25.0059C20.5831 25.0059 19.7472 24.1699 19.7472 23.1309V19.3809C18.9659 19.3809 18.2315 18.8809 17.9659 18.0996C17.6378 17.1152 18.169 16.0527 19.1534 15.7246L21.0284 15.0996C21.5987 14.9121 22.2315 15.0059 22.7159 15.3574C23.2003 15.709 23.4972 16.2793 23.4972 16.8809Z" fill="current"/>
</g>
<defs>
<clipPath id="clip0_668_15541">
<rect width="39.9981" height="40.0117" fill="current" transform="translate(0.996094)"/>
</clipPath>
</defs>
</svg>
