<svg width="48" height="46" viewBox="0 0 48 46" fill="none" xmlns="http://www.w3.org/2000/svg">
<path d="M48 17.6115C48 18.9415 46.93 20.0115 45.6 20.0115H34.4H31.2C29.87 20.0115 28.8 18.9415 28.8 17.6115C28.8 16.2815 29.87 15.2115 31.2 15.2115H34.4H39.81L34.6 10.0015C31.78 7.19152 27.97 5.61152 24 5.61152C16.73 5.61152 10.48 10.0215 7.8 16.3215C7.28 17.5415 5.87 18.1115 4.65 17.5915C3.43 17.0715 2.86 15.6615 3.38 14.4415C6.79 6.43152 14.74 0.811523 24 0.811523C29.25 0.811523 34.28 2.89152 37.99 6.60152L43.2 11.8215V6.41152V6.37152V3.21152C43.2 1.88152 44.27 0.811523 45.6 0.811523C46.93 0.811523 48 1.88152 48 3.21152V17.6115ZM2.4 26.4115H13.6C14.93 26.4115 16 27.4815 16 28.8115C16 30.1415 14.93 31.2115 13.6 31.2115H8.19L13.4 36.4215C16.22 39.2315 20.03 40.8115 24 40.8115C31.26 40.8115 37.5 36.4215 40.19 30.1315C40.71 28.9115 42.12 28.3515 43.34 28.8715C44.56 29.3915 45.12 30.8015 44.6 32.0215C41.18 40.0115 33.25 45.6115 24 45.6115C18.75 45.6115 13.72 43.5315 10.01 39.8215L4.8 34.6015V40.0115C4.8 41.3415 3.73 42.4115 2.4 42.4115C1.07 42.4115 0 41.3415 0 40.0115V28.8115C0 27.4815 1.07 26.4115 2.4 26.4115Z" fill="#B3B3C3"/>
</svg>
