<svg width="41" height="41" viewBox="0 0 41 41" fill="none" xmlns="http://www.w3.org/2000/svg">
<g clip-path="url(#clip0_1176_21105)">
<path d="M15.0372 2.5C13.6544 2.5 12.5372 3.61797 12.5372 5V8.96484L4.30518 0.732422C3.32861 -0.244141 1.74658 -0.244141 0.77002 0.732422C-0.206543 1.70898 -0.206543 3.29102 0.77002 4.26758L9.00596 12.5H5.03721C3.65518 12.5 2.53721 13.6172 2.53721 15C2.53721 16.3828 3.65518 17.5 5.03721 17.5H15.0372C15.3625 17.5 15.6866 17.4338 15.9919 17.3074C16.6075 17.0547 17.0919 16.5703 17.3419 15.9531C17.4747 15.6484 17.5372 15.3281 17.5372 15V5C17.5372 3.61797 16.42 2.5 15.0372 2.5ZM31.0763 27.5H35.0372C36.4192 27.5 37.5372 26.382 37.5372 25C37.5372 23.618 36.4192 22.5 35.0372 22.5H25.0372C24.7119 22.5 24.3878 22.5662 24.0825 22.6923C23.47 22.9455 22.9825 23.4329 22.7294 24.0454C22.5997 24.3516 22.5372 24.6719 22.5372 25V35C22.5372 36.382 23.6552 37.5 25.0372 37.5C26.4192 37.5 27.5372 36.382 27.5372 35V31.0352L35.7716 39.2695C36.7481 40.2461 38.3302 40.2461 39.3067 39.2695C40.2825 38.2938 40.2841 36.7117 39.3067 35.7344L31.0763 27.5Z" fill="#E84A4A"/>
<path d="M15.9902 22.6953C15.6855 22.5625 15.3652 22.5 15.0371 22.5H5.03711C3.65508 22.5 2.53711 23.618 2.53711 25C2.53711 26.382 3.65508 27.5 5.03711 27.5H9.00195L0.767578 35.7344C-0.208984 36.7109 -0.208984 38.293 0.767578 39.2695C1.74414 40.2461 3.32617 40.2461 4.30273 39.2695L12.5371 31.0391V35C12.5371 36.382 13.6551 37.5 15.0371 37.5C16.4191 37.5 17.5371 36.382 17.5371 35V25C17.5371 24.6747 17.4709 24.3506 17.3445 24.0453C17.0918 23.4297 16.6074 22.9453 15.9902 22.6953ZM39.3027 0.732422C38.327 -0.243359 36.7449 -0.244922 35.7676 0.732422L27.5371 8.96875V5C27.5371 3.61797 26.4191 2.5 25.0371 2.5C23.6551 2.5 22.5371 3.61797 22.5371 5V15C22.5371 15.3253 22.6033 15.6494 22.7295 15.9547C22.9828 16.5672 23.4701 17.0547 24.0827 17.3078C24.3887 17.4375 24.709 17.5 25.0371 17.5H35.0371C36.4191 17.5 37.5371 16.382 37.5371 15C37.5371 13.618 36.4191 12.5 35.0371 12.5H31.0723L39.3066 4.26562C40.2793 3.29141 40.2793 1.70938 39.3027 0.732422Z" fill="white"/>
</g>
<defs>
<clipPath id="clip0_1176_21105">
<rect width="40.004" height="40.002" fill="white" transform="translate(0.0351562)"/>
</clipPath>
</defs>
</svg>
