<svg width="40" height="40" viewBox="0 0 40 40" fill="current" xmlns="http://www.w3.org/2000/svg">
<path d="M7.42655 15.5501C8.06835 13.733 9.11023 12.0243 10.5772 10.5657C15.7866 5.35629 24.23 5.35629 29.4395 10.5657L30.8648 11.9993H26.6722C25.1969 11.9993 24.005 13.1913 24.005 14.6666C24.005 16.1419 25.1969 17.3338 26.6722 17.3338H37.2994H37.3328C38.8081 17.3338 40 16.1419 40 14.6666V3.99768C40 2.52237 38.8081 1.33045 37.3328 1.33045C35.8575 1.33045 34.6656 2.52237 34.6656 3.99768V8.26523L33.2069 6.79826C25.9137 -0.494928 14.0946 -0.494928 6.80142 6.79826C4.76766 8.83202 3.30069 11.2242 2.4005 13.783C1.90873 15.175 2.64222 16.692 4.02584 17.1838C5.40946 17.6755 6.93478 16.942 7.42655 15.5584V15.5501ZM1.91707 22.7766C1.50031 22.9016 1.10023 23.1267 0.775162 23.4601C0.441759 23.7935 0.216712 24.1936 0.100021 24.627C0.0750156 24.727 0.0500104 24.8354 0.0333403 24.9437C0.00833507 25.0854 0 25.2271 0 25.3688V36.0043C0 37.4797 1.19191 38.6716 2.66722 38.6716C4.14253 38.6716 5.33444 37.4797 5.33444 36.0043V31.7451L6.80142 33.2038C14.0946 40.4886 25.9137 40.4886 33.1986 33.2038C35.2323 31.17 36.7076 28.7778 37.6078 26.2273C38.0996 24.8354 37.3661 23.3184 35.9825 22.8266C34.5989 22.3348 33.0736 23.0683 32.5818 24.4519C31.94 26.269 30.8981 27.9777 29.4311 29.4363C24.2217 34.6457 15.7783 34.6457 10.5689 29.4363L10.5605 29.428L9.13524 28.0027H13.3361C14.8114 28.0027 16.0033 26.8108 16.0033 25.3355C16.0033 23.8601 14.8114 22.6682 13.3361 22.6682H2.70056C2.5672 22.6682 2.43384 22.6766 2.30048 22.6932C2.16712 22.7099 2.04209 22.7349 1.91707 22.7766Z" fill="current"/>
</svg>
