<svg width="41" height="40" viewBox="0 0 41 40" fill="none" xmlns="http://www.w3.org/2000/svg">
<g clip-path="url(#clip0_1176_21046)">
<path d="M11.776 25.7344C12.7525 26.7109 12.7525 28.293 11.776 29.2695C11.2916 29.7578 10.651 30 10.0104 30C9.36973 30 8.73066 29.7559 8.24316 29.2676L0.743164 21.7676C-0.233398 20.791 -0.233398 19.209 0.743164 18.2324L8.24316 10.7324C9.21973 9.75586 10.8018 9.75586 11.7783 10.7324C12.7549 11.709 12.7549 13.291 11.7783 14.2676L8.54941 17.5H20.0104V22.5H8.54941L11.776 25.7344Z" fill="#E84A4A"/>
<path d="M28.2446 14.2656C27.2681 13.2891 27.2681 11.707 28.2446 10.7305C28.729 10.2422 29.3696 10 30.0103 10C30.6509 10 31.2899 10.2441 31.7774 10.7324L39.2774 18.2324C40.254 19.209 40.254 20.791 39.2774 21.7676L31.7774 29.2676C30.8009 30.2441 29.2188 30.2441 28.2423 29.2676C27.2657 28.291 27.2657 26.709 28.2423 25.7324L31.479 22.5H20.0103V17.5H31.479L28.2446 14.2656Z" fill="#2D253F"/>
</g>
<defs>
<clipPath id="clip0_1176_21046">
<rect width="39.9991" height="40" fill="white" transform="translate(0.0107422)"/>
</clipPath>
</defs>
</svg>
