<svg width="41" height="41" viewBox="0 0 41 41" fill="none" xmlns="http://www.w3.org/2000/svg">
<g clip-path="url(#clip0_1176_21111)">
<path d="M15.0411 2.5C13.6583 2.5 12.5411 3.61797 12.5411 5V8.96484L4.30908 0.732422C3.33252 -0.244141 1.75049 -0.244141 0.773926 0.732422C-0.202637 1.70898 -0.202637 3.29102 0.773926 4.26758L9.00986 12.5H5.04111C3.65908 12.5 2.54111 13.6172 2.54111 15C2.54111 16.3828 3.65908 17.5 5.04111 17.5H15.0411C15.3664 17.5 15.6905 17.4338 15.9958 17.3074C16.6114 17.0547 17.0958 16.5703 17.3458 15.9531C17.4786 15.6484 17.5411 15.3281 17.5411 15V5C17.5411 3.61797 16.4239 2.5 15.0411 2.5ZM31.0802 27.5H35.0411C36.4231 27.5 37.5411 26.382 37.5411 25C37.5411 23.618 36.4231 22.5 35.0411 22.5H25.0411C24.7158 22.5 24.3917 22.5662 24.0864 22.6923C23.4739 22.9455 22.9864 23.4329 22.7333 24.0454C22.6036 24.3516 22.5411 24.6719 22.5411 25V35C22.5411 36.382 23.6591 37.5 25.0411 37.5C26.4231 37.5 27.5411 36.382 27.5411 35V31.0352L35.7755 39.2695C36.752 40.2461 38.3341 40.2461 39.3106 39.2695C40.2864 38.2938 40.288 36.7117 39.3106 35.7344L31.0802 27.5Z" fill="#E84A4A"/>
<path d="M15.9941 22.6953C15.6895 22.5625 15.3691 22.5 15.041 22.5H5.04102C3.65898 22.5 2.54102 23.618 2.54102 25C2.54102 26.382 3.65898 27.5 5.04102 27.5H9.00586L0.771484 35.7344C-0.205078 36.7109 -0.205078 38.293 0.771484 39.2695C1.74805 40.2461 3.33008 40.2461 4.30664 39.2695L12.541 31.0391V35C12.541 36.382 13.659 37.5 15.041 37.5C16.423 37.5 17.541 36.382 17.541 35V25C17.541 24.6747 17.4748 24.3506 17.3484 24.0453C17.0957 23.4297 16.6113 22.9453 15.9941 22.6953ZM39.3066 0.732422C38.3309 -0.243359 36.7488 -0.244922 35.7715 0.732422L27.541 8.96875V5C27.541 3.61797 26.423 2.5 25.041 2.5C23.659 2.5 22.541 3.61797 22.541 5V15C22.541 15.3253 22.6072 15.6494 22.7334 15.9547C22.9867 16.5672 23.474 17.0547 24.0866 17.3078C24.3926 17.4375 24.7129 17.5 25.041 17.5H35.041C36.423 17.5 37.541 16.382 37.541 15C37.541 13.618 36.423 12.5 35.041 12.5H31.0762L39.3105 4.26562C40.2832 3.29141 40.2832 1.70938 39.3066 0.732422Z" fill="#2D253F"/>
</g>
<defs>
<clipPath id="clip0_1176_21111">
<rect width="40.004" height="40.002" fill="white" transform="translate(0.0390625)"/>
</clipPath>
</defs>
</svg>
