<svg width="41" height="40" viewBox="0 0 41 40" fill="none" xmlns="http://www.w3.org/2000/svg">
<g clip-path="url(#clip0_1176_21041)">
<path d="M11.777 25.7344C12.7535 26.7109 12.7535 28.293 11.777 29.2695C11.2926 29.7578 10.652 30 10.0113 30C9.3707 30 8.73164 29.7559 8.24414 29.2676L0.744141 21.7676C-0.232422 20.791 -0.232422 19.209 0.744141 18.2324L8.24414 10.7324C9.2207 9.75586 10.8027 9.75586 11.7793 10.7324C12.7559 11.709 12.7559 13.291 11.7793 14.2676L8.55039 17.5H20.0113V22.5H8.55039L11.777 25.7344Z" fill="#E84A4A"/>
<path d="M28.2456 14.2656C27.269 13.2891 27.269 11.707 28.2456 10.7305C28.73 10.2422 29.3706 10 30.0112 10C30.6519 10 31.2909 10.2441 31.7784 10.7324L39.2784 18.2324C40.255 19.209 40.255 20.791 39.2784 21.7676L31.7784 29.2676C30.8019 30.2441 29.2198 30.2441 28.2433 29.2676C27.2667 28.291 27.2667 26.709 28.2433 25.7324L31.48 22.5H20.0112V17.5H31.48L28.2456 14.2656Z" fill="white"/>
</g>
<defs>
<clipPath id="clip0_1176_21041">
<rect width="39.9991" height="40" fill="white" transform="translate(0.0117188)"/>
</clipPath>
</defs>
</svg>
