<svg width="41" height="41" viewBox="0 0 41 41" fill="current" xmlns="http://www.w3.org/2000/svg">
<g clip-path="url(#clip0_1176_21103)">
<path d="M0.763672 0.732422C1.74023 -0.244141 3.31836 -0.244141 4.29492 0.732422L12.5293 8.95898V4.99805C12.5293 3.61523 13.6465 2.49805 15.0293 2.49805C16.4121 2.49805 17.5293 3.61523 17.5293 4.99805V14.998C17.5293 16.3809 16.4121 17.498 15.0293 17.498H5.0293C3.64648 17.498 2.5293 16.3809 2.5293 14.998C2.5293 13.6152 3.64648 12.498 5.0293 12.498H8.99023L0.763672 4.26367C-0.212891 3.28711 -0.212891 1.70898 0.763672 0.732422ZM35.7637 0.732422C36.7402 -0.244141 38.3262 -0.244141 39.3027 0.732422C40.2793 1.70898 40.2793 3.29492 39.3027 4.27148L31.0684 12.498H35.0293C36.4121 12.498 37.5293 13.6152 37.5293 14.998C37.5293 16.3809 36.4121 17.498 35.0293 17.498H25.0293C23.6465 17.498 22.5293 16.3809 22.5293 14.998V4.99805C22.5293 3.61523 23.6465 2.49805 25.0293 2.49805C26.4121 2.49805 27.5293 3.61523 27.5293 4.99805V8.95898L35.7637 0.732422ZM2.5293 24.998C2.5293 23.6152 3.64648 22.498 5.0293 22.498H15.0293C16.4121 22.498 17.5293 23.6152 17.5293 24.998V34.998C17.5293 36.3809 16.4121 37.498 15.0293 37.498C13.6465 37.498 12.5293 36.3809 12.5293 34.998V31.0371L4.29492 39.2637C3.31836 40.2402 1.73242 40.2402 0.755859 39.2637C-0.220703 38.2871 -0.220703 36.7012 0.755859 35.7246L8.99023 27.498H5.0293C3.64648 27.498 2.5293 26.3809 2.5293 24.998ZM22.5293 24.998C22.5293 23.6152 23.6465 22.498 25.0293 22.498H35.0293C36.4121 22.498 37.5293 23.6152 37.5293 24.998C37.5293 26.3809 36.4121 27.498 35.0293 27.498H31.0684L39.2949 35.7324C40.2715 36.709 40.2715 38.2949 39.2949 39.2715C38.3184 40.248 36.7324 40.248 35.7559 39.2715L27.5293 31.0371V34.998C27.5293 36.3809 26.4121 37.498 25.0293 37.498C23.6465 37.498 22.5293 36.3809 22.5293 34.998V24.998Z" fill="current"/>
</g>
<defs>
<clipPath id="clip0_1176_21103">
<rect width="40.0117" height="40.0039" fill="current" transform="translate(0.0234375)"/>
</clipPath>
</defs>
</svg>
