<svg width="40" height="40" viewBox="0 0 40 40" fill="none" xmlns="http://www.w3.org/2000/svg">
<path d="M40 15.3333C40 16.4416 39.1083 17.3333 38 17.3333H28.6667H26C24.8917 17.3333 24 16.4416 24 15.3333C24 14.2249 24.8917 13.3333 26 13.3333H28.6667H33.175L28.8333 8.99158C26.4833 6.64992 23.3083 5.33325 20 5.33325C13.9417 5.33325 8.73333 9.00825 6.5 14.2583C6.06667 15.2749 4.89167 15.7499 3.875 15.3166C2.85833 14.8833 2.38333 13.7083 2.81667 12.6916C5.65833 6.01659 12.2833 1.33325 20 1.33325C24.375 1.33325 28.5667 3.06659 31.6583 6.15825L36 10.5083V5.99992V5.96658V3.33325C36 2.22492 36.8917 1.33325 38 1.33325C39.1083 1.33325 40 2.22492 40 3.33325V15.3333ZM2 22.6666H11.3333C12.4417 22.6666 13.3333 23.5583 13.3333 24.6666C13.3333 25.7749 12.4417 26.6666 11.3333 26.6666H6.825L11.1667 31.0083C13.5167 33.3499 16.6917 34.6666 20 34.6666C26.05 34.6666 31.25 31.0083 33.4917 25.7666C33.925 24.7499 35.1 24.2833 36.1167 24.7166C37.1333 25.1499 37.6 26.3249 37.1667 27.3416C34.3167 33.9999 27.7083 38.6666 20 38.6666C15.625 38.6666 11.4333 36.9333 8.34167 33.8416L4 29.4916V33.9999C4 35.1082 3.10833 35.9999 2 35.9999C0.891667 35.9999 0 35.1082 0 33.9999V24.6666C0 23.5583 0.891667 22.6666 2 22.6666Z" fill="#B3B3C3"/>
</svg>
