<svg width="41" height="41" viewBox="0 0 41 41" fill="none" xmlns="http://www.w3.org/2000/svg">
<g clip-path="url(#clip0_2897_46229)">
<path d="M0.00496742 20.611C-0.0575326 21.6422 0.723717 22.5328 1.76278 22.6031C2.80184 22.6735 3.68466 21.8844 3.75497 20.8453L3.79403 20.2203C4.05966 15.9391 7.60653 12.6031 11.8956 12.6031H28.6065L24.3097 16.9C23.5753 17.6344 23.5753 18.8219 24.3097 19.5485C25.044 20.275 26.2315 20.2828 26.9581 19.5485L34.4581 12.0485C35.1925 11.3141 35.1925 10.1266 34.4581 9.40002L26.9581 1.90002C26.2237 1.16565 25.0362 1.16565 24.3097 1.90002C23.5831 2.6344 23.5753 3.8219 24.3097 4.54846L28.6065 8.84534H11.8956C5.62997 8.85315 0.442467 13.7281 0.0440299 19.986L0.00496742 20.611ZM39.9972 20.8453C40.0597 19.8141 39.2784 18.9235 38.2393 18.8531C37.2003 18.7828 36.3175 19.5719 36.255 20.611L36.2159 21.236C35.9503 25.5172 32.3956 28.8531 28.1065 28.8531H11.4034L15.7003 24.5563C16.4347 23.8219 16.4347 22.6344 15.7003 21.9078C14.9659 21.1813 13.7784 21.1735 13.0518 21.9078L5.55184 29.4C4.81747 30.1344 4.81747 31.3219 5.55184 32.0485L13.0518 39.5485C13.7862 40.2828 14.9737 40.2828 15.7003 39.5485C16.4268 38.8141 16.4347 37.6266 15.7003 36.9L11.4034 32.6031H28.1143C34.3878 32.6031 39.5753 27.7281 39.9659 21.4703L40.005 20.8453H39.9972Z" fill="#B3B3C3"/>
</g>
<defs>
<clipPath id="clip0_2897_46229">
<rect width="40.0035" height="40" fill="white" transform="translate(0.00146484 0.724243)"/>
</clipPath>
</defs>
</svg>
