<svg width="41" height="41" viewBox="0 0 41 41" fill="none" xmlns="http://www.w3.org/2000/svg">
<path d="M12.909 13.2241H26.4718L23.2389 16.457C22.2623 17.4336 22.2623 19.0156 23.2389 19.9922C24.2147 20.968 25.7968 20.9696 26.7741 19.9922L34.2039 12.4921C35.1805 11.5155 35.1805 9.93341 34.2039 8.95683L26.7741 1.45668C25.7975 0.480098 24.2155 0.480098 23.2389 1.45668C22.2623 2.43326 22.2623 4.01532 23.2389 4.9919L26.4718 8.224H12.909C7.10185 8.224 1.96738 11.9272 0.131562 17.4351C-0.3054 18.7476 0.402583 20.1617 1.71347 20.5914C1.97519 20.6852 2.2416 20.7242 2.50333 20.7242C3.551 20.7242 4.52602 20.0626 4.87525 19.0148C6.0284 15.5523 9.26049 13.2241 12.909 13.2241Z" fill="#2D253F"/>
<path d="M38.2922 20.8571C38.0344 20.7633 37.761 20.7243 37.4329 20.7243C36.3852 20.7243 35.4102 21.3859 35.0609 22.4337C33.9797 25.8962 30.7452 28.2244 27.0967 28.2244H13.534L16.7668 24.9915C17.7434 24.015 17.7434 22.4329 16.7668 21.4563C15.791 20.4805 14.209 20.479 13.2316 21.4563L5.80177 28.9565C4.82519 29.933 4.82519 31.5151 5.80177 32.4917L13.2316 39.9918C14.2082 40.9684 15.7902 40.9684 16.7668 39.9918C17.7434 39.0152 17.7434 37.4332 16.7668 36.4566L13.534 33.2245H27.0967C32.9039 33.2245 38.0344 29.5229 39.8704 24.0134C40.3079 22.7009 39.6048 21.2868 38.2922 20.8571Z" fill="#E84A4A"/>
</svg>
