<svg width="40" height="41" viewBox="0 0 40 41" fill="none" xmlns="http://www.w3.org/2000/svg">
<g clip-path="url(#clip0_2897_46223)">
<path d="M19.9999 0.724243C21.1874 0.724243 22.1428 1.6796 22.1428 2.8671V16.876L33.8749 9.6171C34.8839 8.9921 36.2053 9.3046 36.8214 10.3135C37.4374 11.3225 37.1339 12.6439 36.1249 13.26L24.0714 20.7242L36.1249 28.1885C37.1339 28.8135 37.4464 30.135 36.8214 31.135C36.1964 32.135 34.8749 32.4475 33.8749 31.8314L22.1428 24.5725V38.5814C22.1428 39.7689 21.1874 40.7242 19.9999 40.7242C18.8124 40.7242 17.8571 39.7689 17.8571 38.5814V24.5725L6.12493 31.8314C5.116 32.4564 3.79457 32.1439 3.1785 31.135C2.56243 30.126 2.866 28.8046 3.87493 28.1885L15.9285 20.7242L3.87493 13.26C2.866 12.635 2.5535 11.3135 3.1785 10.3135C3.8035 9.31353 5.12493 8.9921 6.12493 9.6171L17.8571 16.876V2.8671C17.8571 1.6796 18.8124 0.724243 19.9999 0.724243Z" fill="#B3B3C3"/>
</g>
<defs>
<clipPath id="clip0_2897_46223">
<rect width="40" height="40" fill="white" transform="translate(0 0.724243)"/>
</clipPath>
</defs>
</svg>
