<svg width="40" height="41" viewBox="0 0 40 41" fill="none" xmlns="http://www.w3.org/2000/svg">
<path d="M37.266 30.7242C36.7359 31.6412 35.7758 32.1528 34.7883 32.1528C34.3042 32.1528 33.8133 32.03 33.3624 31.7706L22.8821 25.6707V37.8671C22.8821 39.4448 21.6026 40.7242 20.1053 40.7242C18.608 40.7242 17.1678 39.4475 17.1678 37.8671V25.6707L6.60528 31.768C6.15618 32.0278 5.6651 32.1528 5.18118 32.1528C4.19368 32.1528 3.23385 31.6409 2.7035 30.7242C1.91528 29.3573 2.38261 27.61 3.74993 26.8207L14.2303 20.7242L3.74993 14.626C2.38296 13.8403 1.9151 12.0903 2.62314 10.7242C3.29546 9.69746 4.42314 9.1796 5.52939 9.31353C5.89814 9.35817 6.26421 9.48317 6.60707 9.6796L17.1678 15.7778V3.58139C17.1678 2.00371 18.4472 0.724243 20.0249 0.724243C21.6026 0.724243 22.8821 2.00371 22.8821 3.58139V15.7778L33.4446 9.68049C33.7872 9.4829 34.1534 9.36451 34.5222 9.3188C35.6231 9.1796 36.7571 9.69746 37.266 10.7242C38.0542 12.0912 37.5869 13.8385 36.2196 14.6278L25.7392 20.7242L36.3017 26.8207C37.6678 27.6082 38.1321 29.3582 37.266 30.7242Z" fill="#2D253F"/>
</svg>
