<svg width="40" height="40" viewBox="0 0 40 40" fill="none" xmlns="http://www.w3.org/2000/svg">
<path d="M34.7474 39.6825C33.581 40.2345 32.1958 40.0574 31.196 39.2242L11.1997 22.5606L10.002 21.5608V18.4364L11.1997 17.4365L31.196 0.772923C32.1854 -0.0498435 33.5706 -0.237309 34.7474 0.314673C35.9243 0.866656 36.6637 2.04352 36.6637 3.33495V36.6622C36.6637 37.9536 35.9139 39.1305 34.7474 39.6825Z" fill="white"/>
<path d="M6.66915 39.995C4.82574 39.995 3.33643 38.5057 3.33643 36.6623V3.33504C3.33643 1.49163 4.82574 0.00231934 6.66915 0.00231934C8.51256 0.00231934 10.0019 1.49163 10.0019 3.33504V36.6623C10.0019 38.5057 8.51256 39.995 6.66915 39.995Z" fill="#E84A4A"/>
</svg>
