<svg width="40" height="40" viewBox="0 0 40 40" fill="current" xmlns="http://www.w3.org/2000/svg">
<path d="M31.1959 39.2271C32.1853 40.0498 33.5705 40.2373 34.7474 39.6853C35.9242 39.1333 36.6637 37.9565 36.6637 36.665V3.3378C36.6637 2.04637 35.9138 0.869502 34.7474 0.317519C33.5809 -0.234463 32.1957 -0.057412 31.1959 0.775769L11.1996 17.4394L10.0019 18.4392V3.3378C10.0019 1.49439 8.51256 0.0050764 6.66915 0.0050764C4.82574 0.0050764 3.33643 1.49439 3.33643 3.3378V36.665C3.33643 38.5085 4.82574 39.9978 6.66915 39.9978C8.51256 39.9978 10.0019 38.5085 10.0019 36.665V21.5636L11.1996 22.5635L31.1959 39.2271Z" fill="current"/>
</svg>
