<svg width="40" height="40" viewBox="0 0 40 40" fill="none" xmlns="http://www.w3.org/2000/svg">
<path d="M10.8281 2.5C10.8281 1.11458 9.71354 0 8.32812 0C6.94271 0 5.82812 1.11458 5.82812 2.5V16.9479V23.0521V37.5C5.82812 38.8854 6.94271 40 8.32812 40C9.71354 40 10.8281 38.8854 10.8281 37.5V26.5521L29.2344 39.4375C29.7656 39.8021 30.3906 40 31.0365 40C32.7656 40 34.1719 38.5938 34.1719 36.8646V3.13542C34.1615 1.40625 32.7552 0 31.026 0C30.3802 0 29.7552 0.197917 29.224 0.5625L10.8281 13.4479V2.5ZM10.8281 20.4479V19.5521L29.1615 6.71875V33.2812L10.8281 20.4479Z" fill="#B3B3C3"/>
</svg>
