<svg width="40" height="40" viewBox="0 0 40 40" fill="none" xmlns="http://www.w3.org/2000/svg">
<g clip-path="url(#clip0_2930_46742)">
<path d="M30.0859 32.7422L7.25781 9.91406C5.0625 12.6797 3.75 16.1875 3.75 20C3.75 28.9766 11.0234 36.25 20 36.25C23.8125 36.25 27.3203 34.9375 30.0859 32.7422ZM32.7344 30.0938C34.9375 27.3203 36.25 23.8125 36.25 20C36.25 11.0234 28.9766 3.75 20 3.75C16.1875 3.75 12.6797 5.0625 9.91406 7.25781L32.7422 30.0859L32.7344 30.0938ZM0 20C0 14.6957 2.10714 9.60859 5.85786 5.85786C9.60859 2.10714 14.6957 0 20 0C25.3043 0 30.3914 2.10714 34.1421 5.85786C37.8929 9.60859 40 14.6957 40 20C40 25.3043 37.8929 30.3914 34.1421 34.1421C30.3914 37.8929 25.3043 40 20 40C14.6957 40 9.60859 37.8929 5.85786 34.1421C2.10714 30.3914 0 25.3043 0 20Z" fill="#B3B3C3"/>
</g>
<defs>
<clipPath id="clip0_2930_46742">
<rect width="40" height="40" fill="white"/>
</clipPath>
</defs>
</svg>
