<svg width="40" height="40" viewBox="0 0 40 40" fill="none" xmlns="http://www.w3.org/2000/svg">
<g clip-path="url(#clip0_1377_16969)">
<path d="M0 20C0 8.95313 8.95313 0 20 0C31.0469 0 40 8.95313 40 20C40 31.0469 31.0469 40 20 40C8.95313 40 0 31.0469 0 20ZM20 35C28.2812 35 35 28.2812 35 20C35 11.6484 28.2812 5 20 5C11.6484 5 5 11.6484 5 20C5 28.2812 11.6484 35 20 35Z" fill="white"/>
<path d="M11.3125 7.77344L32.2266 28.6875C31.2578 30.0547 30.0547 31.2578 28.6875 32.2266L7.77344 11.3125C8.67969 9.94531 9.94531 8.74219 11.3125 7.77344Z" fill="#E84A4A"/>
</g>
<defs>
<clipPath id="clip0_1377_16969">
<rect width="40" height="40" fill="white"/>
</clipPath>
</defs>
</svg>
