<svg width="40" height="40" viewBox="0 0 40 40" fill="current" xmlns="http://www.w3.org/2000/svg">
<path d="M3.88889 5.5555C3.58333 5.5555 3.33333 5.8055 3.33333 6.11106V11.6666C3.33333 12.5902 2.59028 13.3333 1.66667 13.3333C0.743056 13.3333 0 12.5902 0 11.6666V6.11106C0 3.96522 1.74306 2.22217 3.88889 2.22217H9.44444C10.3681 2.22217 11.1111 2.96522 11.1111 3.88883C11.1111 4.81245 10.3681 5.5555 9.44444 5.5555H3.88889ZM10.5556 11.1111H11.6667C12.5903 11.1111 13.3333 11.8541 13.3333 12.7777V27.2222C13.3333 28.1458 12.5903 28.8888 11.6667 28.8888H10.5556C9.63194 28.8888 8.88889 28.1458 8.88889 27.2222V12.7777C8.88889 11.8541 9.63194 11.1111 10.5556 11.1111ZM21.6667 11.1111H22.7778C23.7014 11.1111 24.4444 11.8541 24.4444 12.7777V27.2222C24.4444 28.1458 23.7014 28.8888 22.7778 28.8888H21.6667C20.7431 28.8888 20 28.1458 20 27.2222V12.7777C20 11.8541 20.7431 11.1111 21.6667 11.1111ZM26.6667 12.7777C26.6667 11.8541 27.4097 11.1111 28.3333 11.1111H29.4444C30.3681 11.1111 31.1111 11.8541 31.1111 12.7777V27.2222C31.1111 28.1458 30.3681 28.8888 29.4444 28.8888H28.3333C27.4097 28.8888 26.6667 28.1458 26.6667 27.2222V12.7777ZM16.6667 11.1111C17.2778 11.1111 17.7778 11.6111 17.7778 12.2222V27.7777C17.7778 28.3888 17.2778 28.8888 16.6667 28.8888C16.0556 28.8888 15.5556 28.3888 15.5556 27.7777V12.2222C15.5556 11.6111 16.0556 11.1111 16.6667 11.1111ZM36.6667 6.11106C36.6667 5.8055 36.4167 5.5555 36.1111 5.5555H30.5556C29.6319 5.5555 28.8889 4.81245 28.8889 3.88883C28.8889 2.96522 29.6319 2.22217 30.5556 2.22217H36.1111C38.2569 2.22217 40 3.96522 40 6.11106V11.6666C40 12.5902 39.2569 13.3333 38.3333 13.3333C37.4097 13.3333 36.6667 12.5902 36.6667 11.6666V6.11106ZM3.88889 34.4444H9.44444C10.3681 34.4444 11.1111 35.1874 11.1111 36.1111C11.1111 37.0347 10.3681 37.7777 9.44444 37.7777H3.88889C1.74306 37.7777 0 36.0347 0 33.8888V28.3333C0 27.4097 0.743056 26.6666 1.66667 26.6666C2.59028 26.6666 3.33333 27.4097 3.33333 28.3333V33.8888C3.33333 34.1944 3.58333 34.4444 3.88889 34.4444ZM36.6667 33.8888V28.3333C36.6667 27.4097 37.4097 26.6666 38.3333 26.6666C39.2569 26.6666 40 27.4097 40 28.3333V33.8888C40 36.0347 38.2569 37.7777 36.1111 37.7777H30.5556C29.6319 37.7777 28.8889 37.0347 28.8889 36.1111C28.8889 35.1874 29.6319 34.4444 30.5556 34.4444H36.1111C36.4167 34.4444 36.6667 34.1944 36.6667 33.8888Z" fill="current"/>
</svg>
