<svg width="40" height="40" viewBox="0 0 40 40" fill="none" xmlns="http://www.w3.org/2000/svg">
<path d="M11.6664 11.1111C12.5901 11.1111 13.3331 11.8541 13.3331 12.7778V27.2222C13.3331 28.1458 12.5901 28.8889 11.6664 28.8889H10.5553C9.63173 28.8889 8.88867 28.1458 8.88867 27.2222V12.7778C8.88867 11.8541 9.63173 11.1111 10.5553 11.1111H11.6664ZM22.7776 11.1111C23.7012 11.1111 24.4442 11.8541 24.4442 12.7778V27.2222C24.4442 28.1458 23.7012 28.8889 22.7776 28.8889H21.6664C20.7428 28.8889 19.9998 28.1458 19.9998 27.2222V12.7778C19.9998 11.8541 20.7428 11.1111 21.6664 11.1111H22.7776ZM26.6664 12.7778C26.6664 11.8541 27.4095 11.1111 28.3331 11.1111H29.4442C30.3678 11.1111 31.1109 11.8541 31.1109 12.7778V27.2222C31.1109 28.1458 30.3678 28.8889 29.4442 28.8889H28.3331C27.4095 28.8889 26.6664 28.1458 26.6664 27.2222V12.7778ZM17.7776 12.2222V27.7778C17.7776 28.3889 17.2776 28.8889 16.6664 28.8889C16.0553 28.8889 15.5553 28.3889 15.5553 27.7778V12.2222C15.5553 11.6111 16.0553 11.1111 16.6664 11.1111C17.2776 11.1111 17.7776 11.6111 17.7776 12.2222Z" fill="white"/>
<path d="M3.33333 11.6666C3.33333 12.5902 2.58681 13.3333 1.66667 13.3333C0.746528 13.3333 0 12.5902 0 11.6666V6.11106C0 3.96314 1.74097 2.22217 3.88889 2.22217H9.44444C10.3681 2.22217 11.1111 2.9687 11.1111 3.88883C11.1111 4.80897 10.3681 5.5555 9.44444 5.5555H3.88889C3.58194 5.5555 3.33333 5.80411 3.33333 6.11106V11.6666ZM36.6667 6.11106C36.6667 5.80411 36.4167 5.5555 36.1111 5.5555H30.5556C29.6319 5.5555 28.8889 4.80897 28.8889 3.88883C28.8889 2.9687 29.6319 2.22217 30.5556 2.22217H36.1111C38.2569 2.22217 40 3.96314 40 6.11106V11.6666C40 12.5902 39.2569 13.3333 38.3333 13.3333C37.4097 13.3333 36.6667 12.5902 36.6667 11.6666V6.11106ZM9.44444 34.4444C10.3681 34.4444 11.1111 35.1874 11.1111 36.1111C11.1111 37.0347 10.3681 37.7777 9.44444 37.7777H3.88889C1.74097 37.7777 0 36.0347 0 33.8888V28.3333C0 27.4097 0.746528 26.6666 1.66667 26.6666C2.58681 26.6666 3.33333 27.4097 3.33333 28.3333V33.8888C3.33333 34.1944 3.58194 34.4444 3.88889 34.4444H9.44444ZM36.6667 28.3333C36.6667 27.4097 37.4097 26.6666 38.3333 26.6666C39.2569 26.6666 40 27.4097 40 28.3333V33.8888C40 36.0347 38.2569 37.7777 36.1111 37.7777H30.5556C29.6319 37.7777 28.8889 37.0347 28.8889 36.1111C28.8889 35.1874 29.6319 34.4444 30.5556 34.4444H36.1111C36.4167 34.4444 36.6667 34.1944 36.6667 33.8888V28.3333Z" fill="#E84A4A"/>
</svg>
