<svg width="40" height="40" viewBox="0 0 40 40" fill="none" xmlns="http://www.w3.org/2000/svg">
<path d="M3.88889 5.5555C3.58333 5.5555 3.33333 5.8055 3.33333 6.11106V11.6666C3.33333 12.5902 2.59028 13.3333 1.66667 13.3333C0.743056 13.3333 0 12.5902 0 11.6666V6.11106C0 3.96522 1.74306 2.22217 3.88889 2.22217H9.44444C10.3681 2.22217 11.1111 2.96522 11.1111 3.88883C11.1111 4.81245 10.3681 5.5555 9.44444 5.5555H3.88889ZM8.33333 11.1111C9.25694 11.1111 10 11.8541 10 12.7777V27.2222C10 28.1458 9.25694 28.8888 8.33333 28.8888C7.40972 28.8888 6.66667 28.1458 6.66667 27.2222V12.7777C6.66667 11.8541 7.40972 11.1111 8.33333 11.1111ZM12.2222 12.2222C12.2222 11.6111 12.7222 11.1111 13.3333 11.1111C13.9444 11.1111 14.4444 11.6111 14.4444 12.2222V27.7777C14.4444 28.3888 13.9444 28.8888 13.3333 28.8888C12.7222 28.8888 12.2222 28.3888 12.2222 27.7777V12.2222ZM31.1111 12.2222C31.1111 11.6111 31.6111 11.1111 32.2222 11.1111C32.8333 11.1111 33.3333 11.6111 33.3333 12.2222V27.7777C33.3333 28.3888 32.8333 28.8888 32.2222 28.8888C31.6111 28.8888 31.1111 28.3888 31.1111 27.7777V12.2222ZM16.6667 12.7777C16.6667 11.8541 17.4097 11.1111 18.3333 11.1111C19.2569 11.1111 20 11.8541 20 12.7777V27.2222C20 28.1458 19.2569 28.8888 18.3333 28.8888C17.4097 28.8888 16.6667 28.1458 16.6667 27.2222V12.7777ZM27.2222 11.1111C28.1458 11.1111 28.8889 11.8541 28.8889 12.7777V27.2222C28.8889 28.1458 28.1458 28.8888 27.2222 28.8888C26.2986 28.8888 25.5556 28.1458 25.5556 27.2222V12.7777C25.5556 11.8541 26.2986 11.1111 27.2222 11.1111ZM36.6667 6.11106C36.6667 5.8055 36.4167 5.5555 36.1111 5.5555H30.5556C29.6319 5.5555 28.8889 4.81245 28.8889 3.88883C28.8889 2.96522 29.6319 2.22217 30.5556 2.22217H36.1111C38.2569 2.22217 40 3.96522 40 6.11106V11.6666C40 12.5902 39.2569 13.3333 38.3333 13.3333C37.4097 13.3333 36.6667 12.5902 36.6667 11.6666V6.11106ZM3.88889 34.4444H9.44444C10.3681 34.4444 11.1111 35.1874 11.1111 36.1111C11.1111 37.0347 10.3681 37.7777 9.44444 37.7777H3.88889C1.74306 37.7777 0 36.0347 0 33.8888V28.3333C0 27.4097 0.743056 26.6666 1.66667 26.6666C2.59028 26.6666 3.33333 27.4097 3.33333 28.3333V33.8888C3.33333 34.1944 3.58333 34.4444 3.88889 34.4444ZM36.6667 33.8888V28.3333C36.6667 27.4097 37.4097 26.6666 38.3333 26.6666C39.2569 26.6666 40 27.4097 40 28.3333V33.8888C40 36.0347 38.2569 37.7777 36.1111 37.7777H30.5556C29.6319 37.7777 28.8889 37.0347 28.8889 36.1111C28.8889 35.1874 29.6319 34.4444 30.5556 34.4444H36.1111C36.4167 34.4444 36.6667 34.1944 36.6667 33.8888Z" fill="#B3B3C3"/>
</svg>
