<svg width="40" height="41" viewBox="0 0 40 41" fill="none" xmlns="http://www.w3.org/2000/svg">
<path d="M24.9862 35.7242C24.9862 36.9821 24.4642 38.3258 23.5291 39.2633C22.5941 40.2008 21.2539 40.7242 19.9994 40.7242C18.6748 40.7242 17.4048 40.2008 16.4698 39.2633C15.5347 38.3258 15.0127 36.9821 15.0127 35.7242H24.9862Z" fill="#E84A4A"/>
<path d="M22.4924 3.22424V4.72424C28.1804 5.88284 32.4659 10.9274 32.4659 16.9742V18.443C32.4659 22.1227 33.8139 25.6617 36.2449 28.4117L36.8215 29.0602C37.476 29.8024 37.6397 30.8492 37.2345 31.7477C36.8293 32.6461 35.9411 33.2242 34.9593 33.2242H5.03877C4.057 33.2242 3.16648 32.6461 2.76426 31.7477C2.36205 30.8492 2.52293 29.8024 3.17528 29.0602L3.75312 28.4117C6.18728 25.6617 7.53215 22.1227 7.53215 18.443V16.9742C7.53215 10.9274 11.7475 5.88284 17.5057 4.72424V3.22424C17.5057 1.84377 18.6199 0.724243 19.999 0.724243C21.3782 0.724243 22.4924 1.84377 22.4924 3.22424Z" fill="white"/>
</svg>
