<svg width="40" height="41" viewBox="0 0 40 41" fill="current" xmlns="http://www.w3.org/2000/svg">
<path d="M19.9985 0.724243C18.6157 0.724243 17.4985 1.84143 17.4985 3.22424V4.72424C11.7954 5.88049 7.4985 10.9274 7.4985 16.9742V18.443C7.4985 22.1149 6.14694 25.6617 3.70944 28.4117L3.13132 29.0602C2.47507 29.7946 2.31882 30.8492 2.71725 31.7477C3.11569 32.6461 4.01413 33.2242 4.9985 33.2242H34.9985C35.9829 33.2242 36.8735 32.6461 37.2798 31.7477C37.686 30.8492 37.5219 29.7946 36.8657 29.0602L36.2876 28.4117C33.8501 25.6617 32.4985 22.1227 32.4985 18.443V16.9742C32.4985 10.9274 28.2016 5.88049 22.4985 4.72424V3.22424C22.4985 1.84143 21.3813 0.724243 19.9985 0.724243ZM23.5376 39.2633C24.4751 38.3258 24.9985 37.0524 24.9985 35.7242H19.9985H14.9985C14.9985 37.0524 15.5219 38.3258 16.4594 39.2633C17.3969 40.2008 18.6704 40.7242 19.9985 40.7242C21.3266 40.7242 22.6001 40.2008 23.5376 39.2633Z" fill="current"/>
</svg>
