<svg width="40" height="41" viewBox="0 0 40 41" fill="none" xmlns="http://www.w3.org/2000/svg">
<g clip-path="url(#clip0_2887_46045)">
<path d="M20.0002 0.724243C18.6174 0.724243 17.5002 1.84143 17.5002 3.22424V4.62268C11.8361 5.52112 7.50021 10.4274 7.50021 16.3492V18.9586C7.50021 22.5055 6.28927 25.9508 4.07833 28.7164L2.91427 30.1774C2.46114 30.7399 2.37521 31.5133 2.68771 32.1617C3.00021 32.8102 3.65646 33.2242 4.37521 33.2242H35.6252C36.344 33.2242 37.0002 32.8102 37.3127 32.1617C37.6252 31.5133 37.5393 30.7399 37.0861 30.1774L35.9221 28.7242C33.7111 25.9508 32.5002 22.5055 32.5002 18.9586V16.3492C32.5002 10.4274 28.1643 5.52112 22.5002 4.62268V3.22424C22.5002 1.84143 21.383 0.724243 20.0002 0.724243ZM20.0002 8.22424H20.6252C25.1096 8.22424 28.7502 11.8649 28.7502 16.3492V18.9586C28.7502 22.7008 29.8361 26.3492 31.8518 29.4742H8.14864C10.1643 26.3492 11.2502 22.7008 11.2502 18.9586V16.3492C11.2502 11.8649 14.8908 8.22424 19.3752 8.22424H20.0002ZM25.0002 35.7242H20.0002H15.0002C15.0002 37.0524 15.5236 38.3258 16.4611 39.2633C17.3986 40.2008 18.6721 40.7242 20.0002 40.7242C21.3283 40.7242 22.6018 40.2008 23.5393 39.2633C24.4768 38.3258 25.0002 37.0524 25.0002 35.7242Z" fill="#B3B3C3"/>
</g>
<defs>
<clipPath id="clip0_2887_46045">
<rect width="40" height="40" fill="white" transform="translate(0 0.724243)"/>
</clipPath>
</defs>
</svg>
