<svg width="40" height="41" viewBox="0 0 40 41" fill="none" xmlns="http://www.w3.org/2000/svg">
<g clip-path="url(#clip0_2872_46516)">
<path d="M9.375 0.724243C5.57813 0.724243 2.5 3.80237 2.5 7.59924V33.8492H2.53125C2.50781 34.0524 2.5 34.2633 2.5 34.4742C2.5 37.9274 5.29687 40.7242 8.75 40.7242H35.625C36.6641 40.7242 37.5 39.8883 37.5 38.8492C37.5 37.8102 36.6641 36.9742 35.625 36.9742H35V31.5524C36.4766 30.8492 37.5 29.3414 37.5 27.5992V5.09924C37.5 2.68518 35.5391 0.724243 33.125 0.724243H9.375ZM31.25 31.9742V36.9742H8.75C7.36719 36.9742 6.25 35.8571 6.25 34.4742C6.25 33.0914 7.36719 31.9742 8.75 31.9742H31.25ZM8.75 28.2242C7.85938 28.2242 7.01563 28.4117 6.25 28.7477V7.59924C6.25 5.87268 7.64844 4.47424 9.375 4.47424H33.125C33.4688 4.47424 33.75 4.75549 33.75 5.09924V27.5992C33.75 27.943 33.4688 28.2242 33.125 28.2242H30V26.9742C30 23.5211 27.2031 20.7242 23.75 20.7242H18.75C15.2969 20.7242 12.5 23.5211 12.5 26.9742V28.2242H8.75ZM21.25 18.2242C22.5761 18.2242 23.8479 17.6975 24.7855 16.7598C25.7232 15.8221 26.25 14.5503 26.25 13.2242C26.25 11.8982 25.7232 10.6264 24.7855 9.68871C23.8479 8.75103 22.5761 8.22424 21.25 8.22424C19.9239 8.22424 18.6521 8.75103 17.7145 9.68871C16.7768 10.6264 16.25 11.8982 16.25 13.2242C16.25 14.5503 16.7768 15.8221 17.7145 16.7598C18.6521 17.6975 19.9239 18.2242 21.25 18.2242Z" fill="#B3B3C3"/>
</g>
<defs>
<clipPath id="clip0_2872_46516">
<rect width="40" height="40" fill="white" transform="translate(0 0.724243)"/>
</clipPath>
</defs>
</svg>
