<svg width="40" height="40" viewBox="0 0 40 40" fill="none" xmlns="http://www.w3.org/2000/svg">
<path d="M10 30H33.75C35.8211 30 37.5 28.3211 37.5 26.25V3.75C37.5 1.67891 35.8203 0 33.75 0H10C5.85781 0 2.5 3.35781 2.5 7.5V32.5C2.5 36.6422 5.85781 40 10 40H35C36.3805 40 37.5 38.8805 37.5 37.5703C37.5 36.1172 36.3828 35 35 35H10.1094C8.80391 35 7.6375 34.0453 7.51406 32.7453C7.36953 31.2578 8.53828 30 10 30ZM13.6797 10H28.6797C29.4375 10 30 10.5625 30 11.25C30 11.9375 29.4375 12.5 28.75 12.5H13.6797C13.0625 12.5 12.5 11.9375 12.5 11.25C12.5 10.5625 13.0625 10 13.6797 10ZM13.6797 15H28.6797C29.4375 15 30 15.5625 30 16.25C30 16.9375 29.4375 17.5 28.75 17.5H13.6797C13.0625 17.5 12.5 16.9375 12.5 16.25C12.5 15.5625 13.0625 15 13.6797 15Z" fill="white"/>
<path d="M33.75 30.0001H10C8.61953 30.0001 7.5 31.1196 7.5 32.5001C7.5 33.8805 8.61953 35.0001 10 35.0001H35V29.7704C34.5391 29.9063 34.1875 30.0001 33.75 30.0001Z" fill="#E84A4A"/>
</svg>
