<svg width="30" height="40" viewBox="0 0 30 40" fill="none" xmlns="http://www.w3.org/2000/svg">
<g clip-path="url(#clip0_1155_20162)">
<path d="M0 38.1016V3.75C0 1.67891 1.67891 0 3.75 0H7.5V25.1641C7.5 26.1641 8.60938 26.7578 9.44531 26.2031L15 22.5L20.5547 26.2031C21.3906 26.7578 22.5 26.1641 22.5 25.1641V0H26.25C28.3203 0 30 1.67891 30 3.75V38.1016C30 39.1484 29.1484 40 28.1016 40C27.7109 40 27.3281 39.8828 27.0078 39.6562L15 31.25L2.99062 39.6562C2.67109 39.8828 2.29063 40 1.90078 40C0.850781 40 0 39.1484 0 38.1016Z" fill="#2D253F"/>
<path d="M15 22.5L9.44531 26.2031C8.60938 26.7578 7.5 26.1641 7.5 25.1641V0H22.5V25.1641C22.5 26.1641 21.3906 26.7578 20.5547 26.2031L15 22.5Z" fill="#E84A4A"/>
</g>
<defs>
<clipPath id="clip0_1155_20162">
<rect width="30" height="40" fill="white"/>
</clipPath>
</defs>
</svg>
