<svg width="40" height="41" viewBox="0 0 40 41" fill="current" xmlns="http://www.w3.org/2000/svg">
<path d="M0 3.22388C0 1.841 1.11724 0.723765 2.50011 0.723765H7.50033C8.88321 0.723765 10.0004 1.841 10.0004 3.22388V8.2241H0V3.22388ZM0 10.7242H10.0004V30.7251H0V10.7242ZM0 33.2252H10.0004V38.2254C10.0004 39.6083 8.88321 40.7255 7.50033 40.7255H2.50011C1.11724 40.7255 0 39.6083 0 38.2254V33.2252ZM12.5006 3.22388C12.5006 1.841 13.6178 0.723765 15.0007 0.723765H20.0009C21.3838 0.723765 22.501 1.841 22.501 3.22388V8.2241H12.5006V3.22388ZM12.5006 10.7242H22.501V30.7251H12.5006V10.7242ZM12.5006 33.2252H22.501V38.2254C22.501 39.6083 21.3838 40.7255 20.0009 40.7255H15.0007C13.6178 40.7255 12.5006 39.6083 12.5006 38.2254V33.2252ZM28.4075 31.6705L25.0011 18.8964V11.8805L32.8452 9.77885L38.0017 29.1078L28.4075 31.6705ZM32.2046 7.36468L25.0011 9.28664V1.58318L27.8841 0.809706C29.2044 0.450315 30.5717 1.23941 30.9232 2.57541L32.2046 7.36468ZM29.0482 34.0846L38.6423 31.5142L39.9158 36.2878C40.2674 37.616 39.4861 38.9833 38.1579 39.3427L33.3609 40.6318C32.0405 40.9912 30.6732 40.2021 30.3217 38.8661L29.0482 34.0846Z" fill="current"/>
</svg>
