<svg width="40" height="40" viewBox="0 0 40 40" fill="none" xmlns="http://www.w3.org/2000/svg">
<path d="M0 17.125V33.7266C0 34.8399 0.907812 35.7774 2.07031 35.836C5.88438 36.0313 14.0781 36.8203 18.75 39.9922V19.1563C14.1719 16.0547 6.24922 15.2188 2.33125 15C1.06172 14.9297 0 15.9063 0 17.125ZM37.6719 15C33.7586 15.2225 25.8516 16.0524 21.3359 19.1477C21.2578 19.1563 21.25 19.1641 21.25 19.1797V40C25.9406 36.8446 34.1172 36.0344 37.9297 35.8375C39.0938 35.7735 40 34.836 40 33.7266V17.125C40 15.9063 38.9375 14.9297 37.6719 15Z" fill="white"/>
<path d="M27.5 7.5C27.5 3.35938 24.1406 0 20 0C15.8594 0 12.5 3.35938 12.5 7.5C12.5 11.6406 15.8594 15 20 15C24.1406 15 27.5 11.6406 27.5 7.5Z" fill="#E84A4A"/>
</svg>
