<svg width="40" height="41" viewBox="0 0 40 41" fill="current" xmlns="http://www.w3.org/2000/svg">
<path d="M2.5 8.22424C2.5 4.08362 5.85938 0.724243 10 0.724243H32.5H35C36.3828 0.724243 37.5 1.84143 37.5 3.22424V28.2242C37.5 29.6071 36.3828 30.7242 35 30.7242V35.7242C36.3828 35.7242 37.5 36.8414 37.5 38.2242C37.5 39.6071 36.3828 40.7242 35 40.7242H32.5H10C5.85938 40.7242 2.5 37.3649 2.5 33.2242V8.22424ZM7.5 33.2242C7.5 34.6071 8.61719 35.7242 10 35.7242H30V30.7242H10C8.61719 30.7242 7.5 31.8414 7.5 33.2242ZM26.25 10.7242C26.25 7.96643 24.0078 5.72424 21.25 5.72424C18.4922 5.72424 16.25 7.96643 16.25 10.7242C16.25 13.4821 18.4922 15.7242 21.25 15.7242C24.0078 15.7242 26.25 13.4821 26.25 10.7242ZM12.5 24.4742C12.5 25.1617 13.0625 25.7242 13.75 25.7242H28.75C29.4375 25.7242 30 25.1617 30 24.4742C30 21.0211 27.2031 18.2242 23.75 18.2242H18.75C15.2969 18.2242 12.5 21.0211 12.5 24.4742Z" fill="current"/>
</svg>
