<svg width="40" height="40" viewBox="0 0 40 40" fill="current" xmlns="http://www.w3.org/2000/svg">
<path d="M10 0C5.85938 0 2.5 3.35938 2.5 7.5V32.5C2.5 36.6406 5.85938 40 10 40H32.5H35C36.3828 40 37.5 38.8828 37.5 37.5C37.5 36.1172 36.3828 35 35 35V30C36.3828 30 37.5 28.8828 37.5 27.5V2.5C37.5 1.11719 36.3828 0 35 0H32.5H10ZM10 30H30V35H10C8.61719 35 7.5 33.8828 7.5 32.5C7.5 31.1172 8.61719 30 10 30ZM12.5 11.25C12.5 10.5625 13.0625 10 13.75 10H28.75C29.4375 10 30 10.5625 30 11.25C30 11.9375 29.4375 12.5 28.75 12.5H13.75C13.0625 12.5 12.5 11.9375 12.5 11.25ZM13.75 15H28.75C29.4375 15 30 15.5625 30 16.25C30 16.9375 29.4375 17.5 28.75 17.5H13.75C13.0625 17.5 12.5 16.9375 12.5 16.25C12.5 15.5625 13.0625 15 13.75 15Z" fill="current"/>
</svg>
