<svg width="40" height="40" viewBox="0 0 40 40" fill="none" xmlns="http://www.w3.org/2000/svg">
<g clip-path="url(#clip0_2896_46140)">
<path d="M19.9922 11.25C20.9867 11.25 21.9406 10.8549 22.6438 10.1517C23.3471 9.44839 23.7422 8.49456 23.7422 7.5C23.7422 6.50544 23.3471 5.55161 22.6438 4.84835C21.9406 4.14509 20.9867 3.75 19.9922 3.75C18.9976 3.75 18.0438 4.14509 17.3405 4.84835C16.6373 5.55161 16.2422 6.50544 16.2422 7.5C16.2422 8.49456 16.6373 9.44839 17.3405 10.1517C18.0438 10.8549 18.9976 11.25 19.9922 11.25ZM19.9922 0C21.9813 0 23.889 0.790176 25.2955 2.1967C26.702 3.60322 27.4922 5.51088 27.4922 7.5C27.4922 9.48912 26.702 11.3968 25.2955 12.8033C23.889 14.2098 21.9813 15 19.9922 15C18.0031 15 16.0954 14.2098 14.6889 12.8033C13.2824 11.3968 12.4922 9.48912 12.4922 7.5C12.4922 5.51088 13.2824 3.60322 14.6889 2.1967C16.0954 0.790176 18.0031 0 19.9922 0ZM17.8047 21.7969L17.7891 21.7891C17.7344 21.75 17.6016 21.6719 17.3828 21.5625C16.9531 21.3438 16.1797 20.9922 14.9922 20.6094C12.8047 19.9062 9.19531 19.1016 3.74219 18.8359V32.6094C10.375 33 15.2344 34.3516 18.1172 35.3984V22.0312L17.8047 21.7969ZM21.8672 22.0312V35.3984C24.75 34.3516 29.6094 33 36.2422 32.6094V18.8359C30.7812 19.1016 27.1797 19.9062 24.9922 20.6094C23.8125 20.9922 23.0391 21.3438 22.6016 21.5625C22.3828 21.6719 22.25 21.75 22.1953 21.7891L22.1797 21.7969L21.8672 22.0312ZM2.49219 15.0391C15.5547 15.4219 19.9922 18.75 19.9922 18.75C19.9922 18.75 24.4297 15.4219 37.4922 15.0391C38.875 15 39.9922 16.125 39.9922 17.5V33.75C39.9922 35.1328 38.8672 36.2422 37.4922 36.3047C28.5156 36.6719 22.8906 38.9375 21.1797 39.7266C20.8047 39.8984 20.4063 40 20 40C19.5938 40 19.1875 39.8984 18.8203 39.7266C17.1094 38.9375 11.4844 36.6719 2.50781 36.3047C1.125 36.25 0.0078125 35.1328 0.0078125 33.75V17.5C0.0078125 16.1172 1.13281 14.9922 2.50781 15.0391H2.49219Z" fill="#B3B3C3"/>
</g>
<defs>
<clipPath id="clip0_2896_46140">
<rect width="40" height="40" fill="white"/>
</clipPath>
</defs>
</svg>
