<svg width="40" height="41" viewBox="0 0 40 41" fill="none" xmlns="http://www.w3.org/2000/svg">
<g clip-path="url(#clip0_2872_46280)">
<path d="M3.75 33.2265V36.9765H8.75V33.2265H3.75ZM10.625 40.2265C10.0703 40.5469 9.42969 40.7265 8.75 40.7265H3.75C1.67969 40.7265 0 39.0469 0 36.9765V33.2265V31.3515V29.4765V11.9765V10.1015V8.22655V4.47655C0 2.40623 1.67969 0.726545 3.75 0.726545H8.75C9.42969 0.726545 10.0703 0.906232 10.625 1.22654C11.1797 0.906232 11.8203 0.726545 12.5 0.726545H17.5C19.1094 0.726545 20.4766 1.73436 21.0156 3.15623C21.4531 2.67967 22.0234 2.32029 22.6875 2.14061L27.3359 0.851545C29.2656 0.320295 31.25 1.49998 31.7656 3.49217L33.1719 8.89842L33.6406 10.7109L38.4687 29.3281L38.9375 31.1406L39.8672 34.7344C40.3828 36.7265 39.2422 38.7734 37.3125 39.3047L32.6562 40.5937C30.7266 41.125 28.7422 39.9453 28.2266 37.9531L26.8203 32.5469L26.3516 30.7344L21.5313 12.125L21.25 11.0547V11.9765V29.4765V31.3515V33.2265V36.9765C21.25 39.0469 19.5703 40.7265 17.5 40.7265H12.5C11.8203 40.7265 11.1797 40.5469 10.625 40.2265ZM12.5 36.9765H17.5V33.2265H12.5V36.9765ZM8.75 4.47655H3.75V8.22655H8.75V4.47655ZM8.75 11.9765H3.75V29.4765H8.75V11.9765ZM12.5 8.22655H17.5V4.47655H12.5V8.22655ZM17.5 29.4765V11.9765H12.5V29.4765H17.5ZM34.3828 28.5156L30.0234 11.7187L25.6094 12.9375L29.9688 29.7344L34.3828 28.5156ZM30.9141 33.3672L31.8438 36.9375L36.25 35.7187C36.25 35.7109 36.25 35.7031 36.25 35.6953V35.6875L35.3359 32.1562L30.9219 33.375L30.9141 33.3672ZM24.6719 9.30467L29.0859 8.08592L28.1562 4.51561L23.75 5.73436C23.75 5.74217 23.75 5.74998 23.75 5.76561L24.6641 9.29686L24.6719 9.30467Z" fill="#B3B3C3"/>
</g>
<defs>
<clipPath id="clip0_2872_46280">
<rect width="39.9911" height="40.0023" fill="white" transform="translate(0 0.724243)"/>
</clipPath>
</defs>
</svg>
