<svg width="40" height="40" viewBox="0 0 40 40" fill="none" xmlns="http://www.w3.org/2000/svg">
<path d="M2.5 6.875C2.5 3.07813 5.57813 0 9.375 0H33.125C35.5391 0 37.5 1.96094 37.5 4.375V26.875C37.5 28.6172 36.4766 30.125 35 30.8281V36.25H35.625C36.6641 36.25 37.5 37.0859 37.5 38.125C37.5 39.1641 36.6641 40 35.625 40H8.75C5.29687 40 2.5 37.2031 2.5 33.75C2.5 33.5391 2.50781 33.3281 2.53125 33.125H2.5V6.875ZM8.75 31.25C7.36719 31.25 6.25 32.3672 6.25 33.75C6.25 35.1328 7.36719 36.25 8.75 36.25H31.25V31.25H8.75ZM6.25 28.0234C7.01563 27.6875 7.85938 27.5 8.75 27.5H33.125C33.4688 27.5 33.75 27.2188 33.75 26.875V4.375C33.75 4.03125 33.4688 3.75 33.125 3.75H9.375C7.64844 3.75 6.25 5.14844 6.25 6.875V28.0234ZM14.375 8.75H28.125C29.1641 8.75 30 9.58594 30 10.625C30 11.6641 29.1641 12.5 28.125 12.5H14.375C13.3359 12.5 12.5 11.6641 12.5 10.625C12.5 9.58594 13.3359 8.75 14.375 8.75ZM14.375 15H28.125C29.1641 15 30 15.8359 30 16.875C30 17.9141 29.1641 18.75 28.125 18.75H14.375C13.3359 18.75 12.5 17.9141 12.5 16.875C12.5 15.8359 13.3359 15 14.375 15Z" fill="#B3B3C3"/>
</svg>
