<svg width="40" height="41" viewBox="0 0 40 41" fill="none" xmlns="http://www.w3.org/2000/svg">
<path d="M10 30.7242H33.75C35.8211 30.7242 37.5 29.0453 37.5 26.9742V4.47424C37.5 2.40315 35.8203 0.724243 33.75 0.724243H10C5.85781 0.724243 2.5 4.08206 2.5 8.22424V33.2242C2.5 37.3664 5.85781 40.7242 10 40.7242H35C36.3805 40.7242 37.5 39.6047 37.5 38.2946C37.5 36.8414 36.3828 35.7242 35 35.7242H10.1336C8.88828 35.7242 7.73438 34.8735 7.53438 33.6438C7.27969 32.0758 8.48125 30.7242 10 30.7242ZM21.25 5.72424C24.0117 5.72424 26.25 7.96331 26.25 10.7242C26.25 13.4852 24.0117 15.7242 21.25 15.7242C18.4891 15.7242 16.25 13.4852 16.25 10.7242C16.25 7.96331 18.4922 5.72424 21.25 5.72424ZM18.75 18.2242H23.75C27.2031 18.2242 30 21.0211 30 24.4742C30 25.1646 29.4403 25.7242 28.75 25.7242H13.75C13.0625 25.7242 12.5 25.1617 12.5 24.4742C12.5 21.0211 15.2969 18.2242 18.75 18.2242Z" fill="white"/>
<path d="M33.75 30.7244H10C8.61953 30.7244 7.5 31.844 7.5 33.2244C7.5 34.6049 8.61953 35.7244 10 35.7244H35V30.4948C34.5391 30.6307 34.1875 30.7244 33.75 30.7244Z" fill="#E84A4A"/>
</svg>
