<svg width="40" height="41" viewBox="0 0 40 41" fill="none" xmlns="http://www.w3.org/2000/svg">
<path d="M0 10.7237L10.0006 10.7237V8.22355H0V10.7237ZM0 33.225H10.0006L10.0006 30.7952L0 30.7248V33.225ZM12.5007 33.225H22.431V30.7952L12.5007 30.7952V33.225ZM39.9164 36.2955L38.6288 31.4772L29.0423 34.0594L30.3267 38.8769C30.6804 40.2035 32.0456 40.9958 33.366 40.6403L38.1545 39.3496C39.4788 38.991 40.2679 37.6237 39.9164 36.2955ZM32.8535 9.80177L23.2592 12.38L28.3977 31.6546L37.9842 29.0732L32.8535 9.80177ZM30.9237 2.57166C30.57 1.24502 29.2048 0.45279 27.8844 0.808279L23.0896 2.09898C21.7692 2.45455 20.9809 3.82642 21.3348 5.15306L22.1536 8.22355H12.5007L12.5007 10.7237L22.431 10.7237L22.431 9.52367L22.5501 9.9708L32.1366 7.38862L30.9237 2.57166Z" fill="#E84A4A"/>
<path d="M0 30.7248L10.0006 30.7248V10.7236H0V30.7248ZM7.50043 0.723267H2.42983C1.1235 0.723267 0 1.84655 0 3.22319V8.15316L10.0006 8.1531L10.0006 3.22313C10.0006 1.84655 8.87551 0.723267 7.50043 0.723267ZM0 38.1549C0 39.5315 1.1235 40.5847 2.42983 40.5847H7.43012C8.80676 40.5847 9.85994 39.462 9.85994 38.1549L10.0006 33.2249H0V38.1549ZM32.2128 7.38906L22.6185 9.97358L23.261 12.3823L32.8474 9.80091L32.2128 7.38906ZM37.9866 29.0684L28.4001 31.6498L29.0424 34.0586L38.6289 31.4764L37.9866 29.0684ZM12.5007 30.7248L22.431 30.7248V10.7236H12.5007V30.7248ZM12.5007 38.1549C12.5007 39.5315 13.6242 40.5847 15.0009 40.5847H19.9308C21.3075 40.5847 22.4294 39.4628 22.3607 38.0861V33.0843H12.4304L12.5007 38.1549ZM21.3372 5.15377C21.0579 4.10606 21.5061 3.05209 22.3497 2.4708C22.0252 1.46606 21.1129 0.723829 20.0027 0.723829H15.0727C13.6953 0.723829 12.5726 1.84655 12.5726 3.15366L12.5007 8.22348L22.1575 8.22352L21.3372 5.15377Z" fill="white"/>
</svg>
