<svg width="40" height="40" viewBox="0 0 40 40" fill="none" xmlns="http://www.w3.org/2000/svg">
<path d="M37.8594 20C39.0391 20 40 20.9549 40 22.1272C40 27.6003 36.5312 32.2739 31.6641 34.0905L31.5234 35.1463C31.3672 36.3885 30.3047 37.3899 29.0469 37.3899H10.9531C9.69531 37.3899 8.63281 36.3885 8.47656 35.1463L8.33594 34.0905C3.46562 32.2739 0 27.6003 0 22.1272C0 20.9549 0.959375 20 2.14297 20H37.8594Z" fill="#2D253F"/>
<path d="M13.75 4.47332C13.75 3.44467 14.5859 2.61011 15.625 2.61011H16.875C17.9141 2.61011 18.75 3.44467 18.75 4.47332C18.75 5.50196 17.9141 6.33652 16.875 6.33652H15.625C14.5859 6.33652 13.75 5.50196 13.75 4.47332ZM16.875 8.19973C17.9141 8.19973 18.75 9.03041 18.75 10.0629C18.75 11.0955 17.9141 11.9261 16.875 11.9261H15.625C14.5859 11.9261 13.75 11.0955 13.75 10.0629C13.75 9.03041 14.5859 8.19973 15.625 8.19973H16.875ZM2.5 15.6526C2.5 14.62 3.33984 13.7894 4.375 13.7894H5.625C6.66016 13.7894 7.5 14.62 7.5 15.6526C7.5 16.6851 6.66016 17.5158 5.625 17.5158H4.375C3.33984 17.5158 2.5 16.6851 2.5 15.6526ZM17.5 15.6526C17.5 14.62 18.3359 13.7894 19.375 13.7894H20.625C21.6641 13.7894 22.5 14.62 22.5 15.6526C22.5 16.6851 21.6641 17.5158 20.625 17.5158H19.375C18.3359 17.5158 17.5 16.6851 17.5 15.6526ZM10 15.6526C10 14.62 10.8359 13.7894 11.875 13.7894H13.125C14.1641 13.7894 15 14.62 15 15.6526C15 16.6851 14.1641 17.5158 13.125 17.5158H11.875C10.8359 17.5158 10 16.6851 10 15.6526ZM9.375 8.19973C10.4141 8.19973 11.25 9.03041 11.25 10.0629C11.25 11.0955 10.4141 11.9261 9.375 11.9261H8.125C7.08984 11.9261 6.25 11.0955 6.25 10.0629C6.25 9.03041 7.08984 8.19973 8.125 8.19973H9.375ZM25 15.6526C25 14.62 25.8359 13.7894 26.875 13.7894H28.125C29.1641 13.7894 30 14.62 30 15.6526C30 16.6851 29.1641 17.5158 28.125 17.5158H26.875C25.8359 17.5158 25 16.6851 25 15.6526ZM24.375 8.19973C25.4141 8.19973 26.25 9.03041 26.25 10.0629C26.25 11.0955 25.4141 11.9261 24.375 11.9261H23.125C22.0859 11.9261 21.25 11.0955 21.25 10.0629C21.25 9.03041 22.0859 8.19973 23.125 8.19973H24.375ZM32.5 15.6526C32.5 14.62 33.3359 13.7894 34.375 13.7894H35.625C36.6641 13.7894 37.5 14.62 37.5 15.6526C37.5 16.6851 36.6641 17.5158 35.625 17.5158H34.375C33.3359 17.5158 32.5 16.6851 32.5 15.6526ZM31.875 8.19973C32.9141 8.19973 33.75 9.03041 33.75 10.0629C33.75 11.0955 32.9141 11.9261 31.875 11.9261H30.625C29.5859 11.9261 28.75 11.0955 28.75 10.0629C28.75 9.03041 29.5859 8.19973 30.625 8.19973H31.875ZM24.375 2.61011C25.4141 2.61011 26.25 3.44467 26.25 4.47332C26.25 5.50196 25.4141 6.33652 24.375 6.33652H23.125C22.0859 6.33652 21.25 5.50196 21.25 4.47332C21.25 3.44467 22.0859 2.61011 23.125 2.61011H24.375Z" fill="#E84A4A"/>
</svg>
