<svg width="56" height="49" viewBox="0 0 56 49" fill="none" xmlns="http://www.w3.org/2000/svg">
<path d="M52.868 24.6211C54.4858 24.6211 55.8037 25.939 55.8037 27.5568C55.8037 35.1104 51.0465 41.5604 44.3715 44.0675L44.1787 45.5247C43.9644 47.239 42.5072 48.6211 40.7822 48.6211H15.968C14.243 48.6211 12.7858 47.239 12.5715 45.5247L12.3787 44.0675C5.69939 41.5604 0.946533 35.1104 0.946533 27.5568C0.946533 25.939 2.26225 24.6211 3.88546 24.6211H52.868Z" fill="#2D253F"/>
<path d="M1.86389 21.1925C1.28039 20.1854 0.946533 19.0175 0.946533 17.764C0.946533 13.9818 4.01618 10.9068 7.80368 10.9068C7.86046 10.9068 7.91832 10.9068 7.9751 10.9068C8.76796 6.99502 12.2287 4.04967 16.3751 4.04967C17.8858 4.04967 19.3858 4.48895 20.7572 5.25502C22.1822 2.50145 25.0644 0.621094 28.3751 0.621094C31.6858 0.621094 34.568 2.50252 35.993 5.25502C37.268 4.48895 38.768 4.04967 40.3751 4.04967C44.5215 4.04967 47.8858 6.99502 48.7751 10.9068C48.8287 10.9068 48.893 10.9068 48.9465 10.9068C52.7287 10.9068 55.8037 13.9818 55.8037 17.764C55.8037 19.0175 55.4715 20.1854 54.8822 21.1925H1.86389Z" fill="#E84A4A"/>
</svg>
