<svg width="56" height="49" viewBox="0 0 56 49" fill="none" xmlns="http://www.w3.org/2000/svg">
<path d="M52.773 24.6211C54.4011 24.6211 55.7273 25.939 55.7273 27.5568C55.7273 35.1104 50.94 41.5604 44.2228 44.0675L44.0287 45.5247C43.8131 47.239 42.3467 48.6211 40.6108 48.6211H15.6394C13.9035 48.6211 12.4372 47.239 12.2215 45.5247L12.0274 44.0675C5.30589 41.5604 0.522949 35.1104 0.522949 27.5568C0.522949 25.939 1.84699 24.6211 3.48048 24.6211H52.773Z" fill="#2D253F"/>
<path d="M19.4994 3.19252C19.4994 1.77288 20.653 0.621094 22.0871 0.621094H23.8122C25.2462 0.621094 26.3999 1.77288 26.3999 3.19252C26.3999 4.61217 25.2462 5.76395 23.8122 5.76395H22.0871C20.653 5.76395 19.4994 4.61217 19.4994 3.19252ZM23.8122 8.33538C25.2462 8.33538 26.3999 9.48181 26.3999 10.9068C26.3999 12.3318 25.2462 13.4782 23.8122 13.4782H22.0871C20.653 13.4782 19.4994 12.3318 19.4994 10.9068C19.4994 9.48181 20.653 8.33538 22.0871 8.33538H23.8122ZM3.97314 18.6211C3.97314 17.1961 5.13222 16.0497 6.56085 16.0497H8.28598C9.71461 16.0497 10.8737 17.1961 10.8737 18.6211C10.8737 20.0461 9.71461 21.1925 8.28598 21.1925H6.56085C5.13222 21.1925 3.97314 20.0461 3.97314 18.6211ZM24.6748 18.6211C24.6748 17.1961 25.8285 16.0497 27.2625 16.0497H28.9876C30.4216 16.0497 31.5753 17.1961 31.5753 18.6211C31.5753 20.0461 30.4216 21.1925 28.9876 21.1925H27.2625C25.8285 21.1925 24.6748 20.0461 24.6748 18.6211ZM14.324 18.6211C14.324 17.1961 15.4776 16.0497 16.9117 16.0497H18.6368C20.0708 16.0497 21.2245 17.1961 21.2245 18.6211C21.2245 20.0461 20.0708 21.1925 18.6368 21.1925H16.9117C15.4776 21.1925 14.324 20.0461 14.324 18.6211ZM13.4614 8.33538C14.8954 8.33538 16.0491 9.48181 16.0491 10.9068C16.0491 12.3318 14.8954 13.4782 13.4614 13.4782H11.7363C10.3076 13.4782 9.14855 12.3318 9.14855 10.9068C9.14855 9.48181 10.3076 8.33538 11.7363 8.33538H13.4614ZM35.0256 18.6211C35.0256 17.1961 36.1793 16.0497 37.6133 16.0497H39.3384C40.7724 16.0497 41.9261 17.1961 41.9261 18.6211C41.9261 20.0461 40.7724 21.1925 39.3384 21.1925H37.6133C36.1793 21.1925 35.0256 20.0461 35.0256 18.6211ZM34.163 8.33538C35.597 8.33538 36.7507 9.48181 36.7507 10.9068C36.7507 12.3318 35.597 13.4782 34.163 13.4782H32.4379C31.0039 13.4782 29.8502 12.3318 29.8502 10.9068C29.8502 9.48181 31.0039 8.33538 32.4379 8.33538H34.163ZM45.3764 18.6211C45.3764 17.1961 46.5301 16.0497 47.9641 16.0497H49.6892C51.1233 16.0497 52.2769 17.1961 52.2769 18.6211C52.2769 20.0461 51.1233 21.1925 49.6892 21.1925H47.9641C46.5301 21.1925 45.3764 20.0461 45.3764 18.6211ZM44.5138 8.33538C45.9479 8.33538 47.1015 9.48181 47.1015 10.9068C47.1015 12.3318 45.9479 13.4782 44.5138 13.4782H42.7887C41.3547 13.4782 40.201 12.3318 40.201 10.9068C40.201 9.48181 41.3547 8.33538 42.7887 8.33538H44.5138ZM34.163 0.621094C35.597 0.621094 36.7507 1.77288 36.7507 3.19252C36.7507 4.61217 35.597 5.76395 34.163 5.76395H32.4379C31.0039 5.76395 29.8502 4.61217 29.8502 3.19252C29.8502 1.77288 31.0039 0.621094 32.4379 0.621094H34.163Z" fill="#E84A4A"/>
</svg>
