<svg width="40" height="40" viewBox="0 0 40 40" fill="none" xmlns="http://www.w3.org/2000/svg">
<g clip-path="url(#clip0_2916_46112)">
<path d="M0 15C0 15.9141 0.242188 16.7656 0.671875 17.5H39.3281C39.75 16.7656 40 15.9141 40 15C40 12.2422 37.7578 10 35 10C34.9609 10 34.9141 10 34.875 10C34.2969 7.14844 31.7734 5 28.75 5C27.5781 5 26.4844 5.32031 25.5547 5.875C24.5156 3.875 22.4141 2.5 20 2.5C17.5859 2.5 15.4844 3.875 14.4453 5.875C13.5156 5.32031 12.4219 5 11.25 5C8.22656 5 5.70312 7.14844 5.125 10C5.08594 10 5.03906 10 5 10C2.24219 10 0 12.2422 0 15ZM11.3047 32.8594C10.9922 31.8047 10.2266 30.9375 9.21094 30.4922C6.46094 29.2891 4.42969 26.7734 3.89062 23.75H36.1094C35.5703 26.7734 33.5391 29.2891 30.7891 30.4922C29.7813 30.9375 29.0156 31.7969 28.6953 32.8594C28.5391 33.375 28.0547 33.75 27.5 33.75H12.5C11.9375 33.75 11.4531 33.375 11.3047 32.8594ZM2.14062 20C0.960937 20 0 20.9609 0 22.1406C0 27.4062 3.17187 31.9375 7.70312 33.9219C8.32031 35.9922 10.2344 37.5 12.5 37.5H27.5C29.7656 37.5 31.6797 35.9922 32.2969 33.9297C36.8359 31.9453 40 27.4141 40 22.1484C40 20.9687 39.0391 20.0078 37.8594 20.0078H2.14062V20Z" fill="#B3B3C3"/>
</g>
<defs>
<clipPath id="clip0_2916_46112">
<rect width="40" height="40" fill="white"/>
</clipPath>
</defs>
</svg>
