<svg width="40" height="40" viewBox="0 0 40 40" fill="none" xmlns="http://www.w3.org/2000/svg">
<path d="M37.8594 20C39.0391 20 40 20.9609 40 22.1406C40 27.6484 36.5312 32.3516 31.6641 34.1797L31.5234 35.2422C31.3672 36.4922 30.3047 37.5 29.0469 37.5H10.9531C9.69531 37.5 8.63281 36.4922 8.47656 35.2422L8.33594 34.1797C3.46562 32.3516 0 27.6484 0 22.1406C0 20.9609 0.959375 20 2.14297 20H37.8594Z" fill="white"/>
<path d="M0.668906 17.5C0.243438 16.7656 0 15.9141 0 15C0 12.2422 2.23828 10 5 10C5.04141 10 5.08359 10 5.125 10C5.70312 7.14766 8.22656 5 11.25 5C12.3516 5 13.4453 5.32031 14.4453 5.87891C15.4844 3.87109 17.5859 2.5 20 2.5C22.4141 2.5 24.5156 3.87187 25.5547 5.87891C26.4844 5.32031 27.5781 5 28.75 5C31.7734 5 34.2266 7.14766 34.875 10C34.9141 10 34.9609 10 35 10C37.7578 10 40 12.2422 40 15C40 15.9141 39.7578 16.7656 39.3281 17.5H0.668906Z" fill="#E84A4A"/>
</svg>
