<svg width="40" height="40" viewBox="0 0 40 40" fill="none" xmlns="http://www.w3.org/2000/svg">
<path d="M13.75 4.375C13.75 5.41406 14.5859 6.25 15.625 6.25H16.875C17.9141 6.25 18.75 5.41406 18.75 4.375C18.75 3.33594 17.9141 2.5 16.875 2.5H15.625C14.5859 2.5 13.75 3.33594 13.75 4.375ZM15.625 8.125C14.5859 8.125 13.75 8.96094 13.75 10C13.75 11.0391 14.5859 11.875 15.625 11.875H16.875C17.9141 11.875 18.75 11.0391 18.75 10C18.75 8.96094 17.9141 8.125 16.875 8.125H15.625ZM4.375 13.75C3.33594 13.75 2.5 14.5859 2.5 15.625C2.5 16.6641 3.33594 17.5 4.375 17.5H5.625C6.66406 17.5 7.5 16.6641 7.5 15.625C7.5 14.5859 6.66406 13.75 5.625 13.75H4.375ZM11.3047 32.8594C10.9922 31.8047 10.2266 30.9375 9.21094 30.4922C6.46094 29.2891 4.42969 26.7734 3.89062 23.75H36.1094C35.5703 26.7734 33.5391 29.2891 30.7891 30.4922C29.7813 30.9375 29.0156 31.7969 28.6953 32.8594C28.5391 33.375 28.0547 33.75 27.5 33.75H12.5C11.9375 33.75 11.4531 33.375 11.3047 32.8594ZM2.14062 20C0.960937 20 0 20.9609 0 22.1406C0 27.4062 3.17187 31.9375 7.70312 33.9219C8.32031 35.9922 10.2344 37.5 12.5 37.5H27.5C29.7656 37.5 31.6797 35.9922 32.2969 33.9297C36.8359 31.9453 40 27.4141 40 22.1484C40 20.9687 39.0391 20.0078 37.8594 20.0078H2.14062V20ZM17.5 15.625C17.5 16.6641 18.3359 17.5 19.375 17.5H20.625C21.6641 17.5 22.5 16.6641 22.5 15.625C22.5 14.5859 21.6641 13.75 20.625 13.75H19.375C18.3359 13.75 17.5 14.5859 17.5 15.625ZM10 15.625C10 16.6641 10.8359 17.5 11.875 17.5H13.125C14.1641 17.5 15 16.6641 15 15.625C15 14.5859 14.1641 13.75 13.125 13.75H11.875C10.8359 13.75 10 14.5859 10 15.625ZM8.125 8.125C7.08594 8.125 6.25 8.96094 6.25 10C6.25 11.0391 7.08594 11.875 8.125 11.875H9.375C10.4141 11.875 11.25 11.0391 11.25 10C11.25 8.96094 10.4141 8.125 9.375 8.125H8.125ZM25 15.625C25 16.6641 25.8359 17.5 26.875 17.5H28.125C29.1641 17.5 30 16.6641 30 15.625C30 14.5859 29.1641 13.75 28.125 13.75H26.875C25.8359 13.75 25 14.5859 25 15.625ZM23.125 8.125C22.0859 8.125 21.25 8.96094 21.25 10C21.25 11.0391 22.0859 11.875 23.125 11.875H24.375C25.4141 11.875 26.25 11.0391 26.25 10C26.25 8.96094 25.4141 8.125 24.375 8.125H23.125ZM32.5 15.625C32.5 16.6641 33.3359 17.5 34.375 17.5H35.625C36.6641 17.5 37.5 16.6641 37.5 15.625C37.5 14.5859 36.6641 13.75 35.625 13.75H34.375C33.3359 13.75 32.5 14.5859 32.5 15.625ZM30.625 8.125C29.5859 8.125 28.75 8.96094 28.75 10C28.75 11.0391 29.5859 11.875 30.625 11.875H31.875C32.9141 11.875 33.75 11.0391 33.75 10C33.75 8.96094 32.9141 8.125 31.875 8.125H30.625ZM23.125 2.5C22.0859 2.5 21.25 3.33594 21.25 4.375C21.25 5.41406 22.0859 6.25 23.125 6.25H24.375C25.4141 6.25 26.25 5.41406 26.25 4.375C26.25 3.33594 25.4141 2.5 24.375 2.5H23.125Z" fill="#B3B3C3"/>
</svg>
