<svg width="40" height="40" viewBox="0 0 40 40" fill="current" xmlns="http://www.w3.org/2000/svg">
<path d="M13.75 4.375C13.75 3.33594 14.5859 2.5 15.625 2.5H16.875C17.9141 2.5 18.75 3.33594 18.75 4.375C18.75 5.41406 17.9141 6.25 16.875 6.25H15.625C14.5859 6.25 13.75 5.41406 13.75 4.375ZM15.625 8.125H16.875C17.9141 8.125 18.75 8.96094 18.75 10C18.75 11.0391 17.9141 11.875 16.875 11.875H15.625C14.5859 11.875 13.75 11.0391 13.75 10C13.75 8.96094 14.5859 8.125 15.625 8.125ZM4.375 13.75H5.625C6.66406 13.75 7.5 14.5859 7.5 15.625C7.5 16.6641 6.66406 17.5 5.625 17.5H4.375C3.33594 17.5 2.5 16.6641 2.5 15.625C2.5 14.5859 3.33594 13.75 4.375 13.75ZM0 22.1406C0 20.9609 0.960937 20 2.14062 20H37.8594C39.0391 20 40 20.9609 40 22.1406C40 27.6484 36.5312 32.3516 31.6641 34.1797L31.5234 35.3125C31.3672 36.5625 30.3047 37.5 29.0391 37.5H10.9531C9.69531 37.5 8.625 36.5625 8.46875 35.3125L8.32812 34.1875C3.46875 32.3516 0 27.6484 0 22.1406ZM17.5 15.625C17.5 14.5859 18.3359 13.75 19.375 13.75H20.625C21.6641 13.75 22.5 14.5859 22.5 15.625C22.5 16.6641 21.6641 17.5 20.625 17.5H19.375C18.3359 17.5 17.5 16.6641 17.5 15.625ZM10 15.625C10 14.5859 10.8359 13.75 11.875 13.75H13.125C14.1641 13.75 15 14.5859 15 15.625C15 16.6641 14.1641 17.5 13.125 17.5H11.875C10.8359 17.5 10 16.6641 10 15.625ZM8.125 8.125H9.375C10.4141 8.125 11.25 8.96094 11.25 10C11.25 11.0391 10.4141 11.875 9.375 11.875H8.125C7.08594 11.875 6.25 11.0391 6.25 10C6.25 8.96094 7.08594 8.125 8.125 8.125ZM25 15.625C25 14.5859 25.8359 13.75 26.875 13.75H28.125C29.1641 13.75 30 14.5859 30 15.625C30 16.6641 29.1641 17.5 28.125 17.5H26.875C25.8359 17.5 25 16.6641 25 15.625ZM23.125 8.125H24.375C25.4141 8.125 26.25 8.96094 26.25 10C26.25 11.0391 25.4141 11.875 24.375 11.875H23.125C22.0859 11.875 21.25 11.0391 21.25 10C21.25 8.96094 22.0859 8.125 23.125 8.125ZM32.5 15.625C32.5 14.5859 33.3359 13.75 34.375 13.75H35.625C36.6641 13.75 37.5 14.5859 37.5 15.625C37.5 16.6641 36.6641 17.5 35.625 17.5H34.375C33.3359 17.5 32.5 16.6641 32.5 15.625ZM30.625 8.125H31.875C32.9141 8.125 33.75 8.96094 33.75 10C33.75 11.0391 32.9141 11.875 31.875 11.875H30.625C29.5859 11.875 28.75 11.0391 28.75 10C28.75 8.96094 29.5859 8.125 30.625 8.125ZM23.125 2.5H24.375C25.4141 2.5 26.25 3.33594 26.25 4.375C26.25 5.41406 25.4141 6.25 24.375 6.25H23.125C22.0859 6.25 21.25 5.41406 21.25 4.375C21.25 3.33594 22.0859 2.5 23.125 2.5Z" fill="current"/>
</svg>
