<svg width="40" height="40" viewBox="0 0 40 40" fill="current" xmlns="http://www.w3.org/2000/svg">
<path d="M0 15.5C0 12.7422 2.24219 10.5 5 10.5C5.03906 10.5 5.08594 10.5 5.125 10.5C5.70312 7.64844 8.22656 5.5 11.25 5.5C12.4219 5.5 13.5156 5.82031 14.4453 6.375C15.4844 4.375 17.5859 3 20 3C22.4141 3 24.5156 4.375 25.5547 6.375C26.4844 5.82031 27.5781 5.5 28.75 5.5C31.7734 5.5 34.2969 7.64844 34.875 10.5C34.9141 10.5 34.9609 10.5 35 10.5C37.7578 10.5 40 12.7422 40 15.5C40 16.4141 39.7578 17.2656 39.3281 18H0.671875C0.242188 17.2656 0 16.4141 0 15.5ZM0 22.6406C0 21.4609 0.960937 20.5 2.14062 20.5H37.8594C39.0391 20.5 40 21.4609 40 22.6406C40 28.1484 36.5312 32.8516 31.6641 34.6797L31.5234 35.8125C31.3672 37.0625 30.3047 38 29.0391 38H10.9531C9.69531 38 8.625 37.0625 8.46875 35.8125L8.32812 34.6875C3.46875 32.8516 0 28.1484 0 22.6406Z" fill="current"/>
</svg>
