<svg xmlns="http://www.w3.org/2000/svg" width="40" height="40" viewBox="0 0 40 40" fill="none">
  <g clip-path="url(#clip0_20541_65834)">
    <path d="M14.375 0C16.7891 0 18.75 1.96094 18.75 4.375V35.625C18.75 38.0391 16.7891 40 14.375 40C12.1172 40 10.2578 38.2891 10.0234 36.0859C9.61719 36.1953 9.1875 36.25 8.75 36.25C5.99219 36.25 3.75 34.0078 3.75 31.25C3.75 30.6719 3.85156 30.1094 4.03125 29.5938C1.67187 28.7031 0 26.4219 0 23.75C0 21.2578 1.46094 19.1016 3.57812 18.1016C2.89844 17.25 2.5 16.1719 2.5 15C2.5 12.6016 4.1875 10.6016 6.4375 10.1094C6.3125 9.67969 6.25 9.21875 6.25 8.75C6.25 6.41406 7.85938 4.44531 10.0234 3.89844C10.2578 1.71094 12.1172 0 14.375 0ZM25.625 0C27.8828 0 29.7344 1.71094 29.9766 3.89844C32.1484 4.44531 33.75 6.40625 33.75 8.75C33.75 9.21875 33.6875 9.67969 33.5625 10.1094C35.8125 10.5937 37.5 12.6016 37.5 15C37.5 16.1719 37.1016 17.25 36.4219 18.1016C38.5391 19.1016 40 21.2578 40 23.75C40 26.4219 38.3281 28.7031 35.9688 29.5938C36.1484 30.1094 36.25 30.6719 36.25 31.25C36.25 34.0078 34.0078 36.25 31.25 36.25C30.8125 36.25 30.3828 36.1953 29.9766 36.0859C29.7422 38.2891 27.8828 40 25.625 40C23.2109 40 21.25 38.0391 21.25 35.625V4.375C21.25 1.96094 23.2109 0 25.625 0Z" fill="white"/>
    <path d="M18.75 35.625V4.375H21.25V35.625H18.75Z" fill="#FF4545"/>
  </g>
  <defs>
    <clipPath id="clip0_20541_65834">
      <rect width="40" height="40" fill="white"/>
    </clipPath>
  </defs>
</svg>