<svg xmlns="http://www.w3.org/2000/svg" width="40" height="40" viewBox="0 0 40 40" fill="none">
  <g clip-path="url(#clip0_20541_65829)">
    <path d="M11.9922 6.00781C11.8438 6.53906 11.4609 6.97656 10.9609 7.20312C9.66406 7.78906 8.75781 9.08594 8.75 10.6016C8.74219 11.3125 8.34375 11.9531 7.71094 12.2656C6.46875 12.8828 5.625 14.1562 5.625 15.625C5.625 16.1797 5.74219 16.6953 5.95312 17.1641C6.29688 17.9219 6.10156 18.8047 5.47656 19.3516C4.41406 20.2656 3.75 21.6172 3.75 23.125C3.75 24.7031 4.47656 26.1016 5.61719 27.0234C6.14062 27.4453 6.39844 28.1172 6.29688 28.7812C6.26562 28.9766 6.25 29.1719 6.25 29.375C6.25 31.4141 7.875 33.0703 9.89844 33.125C10.6172 33.1484 11.2578 33.5703 11.5547 34.2266C12.0938 35.4219 13.2969 36.25 14.6875 36.25C16.5859 36.25 18.125 34.7109 18.125 32.8125V6.875C18.125 5.14844 16.7266 3.75 15 3.75C13.5781 3.75 12.3672 4.70312 11.9922 6.00781ZM20 37.6562C18.6875 39.1016 16.7891 40 14.6875 40C12.1719 40 9.96094 38.7109 8.67969 36.7578C5.16406 36.1328 2.5 33.0625 2.5 29.375C2.5 29.3359 2.5 29.2891 2.5 29.25C0.953125 27.6719 0 25.5078 0 23.125C0 20.9531 0.789062 18.9688 2.09375 17.4453C1.95312 16.8594 1.875 16.25 1.875 15.625C1.875 13.0781 3.14844 10.8203 5.08594 9.46875C5.4375 7.21094 6.78906 5.28906 8.67188 4.17188C9.72656 1.71875 12.1641 0 15 0C16.9688 0 18.75 0.828125 20 2.15625C21.25 0.828125 23.0312 0 25 0C27.8359 0 30.2734 1.71875 31.3203 4.17188C33.2031 5.28906 34.5625 7.21094 34.9062 9.46875C36.8516 10.8203 38.125 13.0781 38.125 15.625C38.125 16.25 38.0469 16.8594 37.9062 17.4453C39.2109 18.9766 40 20.9609 40 23.125C40 25.5078 39.0469 27.6719 37.5 29.25C37.5 29.2891 37.5 29.3359 37.5 29.375C37.5 33.0703 34.8359 36.1328 31.3203 36.7578C30.0391 38.7109 27.8281 40 25.3125 40C23.2109 40 21.3125 39.0938 20 37.6562ZM21.875 32.8125C21.875 34.7109 23.4141 36.25 25.3125 36.25C26.7031 36.25 27.9062 35.4219 28.4453 34.2266C28.7422 33.5703 29.3828 33.1406 30.1016 33.125C32.125 33.0703 33.75 31.4141 33.75 29.375C33.75 29.1719 33.7344 28.9688 33.7031 28.7812C33.5938 28.1172 33.8594 27.4453 34.3828 27.0234C35.5234 26.1016 36.25 24.7031 36.25 23.125C36.25 21.6172 35.5859 20.2656 34.5234 19.3516C33.8984 18.8125 33.7031 17.9219 34.0469 17.1641C34.2578 16.6953 34.375 16.1797 34.375 15.625C34.375 14.1562 33.5312 12.8828 32.2891 12.2656C31.6562 11.9531 31.25 11.3047 31.25 10.6016C31.2422 9.09375 30.3359 7.78906 29.0391 7.20312C28.5391 6.97656 28.1562 6.53906 28.0078 6.00781C27.6328 4.70312 26.4219 3.75 25 3.75C23.2734 3.75 21.875 5.14844 21.875 6.875V32.8125Z" fill="#5E586B"/>
  </g>
  <defs>
    <clipPath id="clip0_20541_65829">
      <rect width="40" height="40" fill="white"/>
    </clipPath>
  </defs>
</svg>