<svg width="40" height="40" viewBox="0 0 40 40" fill="none" xmlns="http://www.w3.org/2000/svg">
<path d="M20 9C22.9174 9 25.7153 10.1589 27.7782 12.2218C29.8411 14.2847 31 17.0826 31 20C31 22.9174 29.8411 25.7153 27.7782 27.7782C25.7153 29.8411 22.9174 31 20 31C17.0826 31 14.2847 29.8411 12.2218 27.7782C10.1589 25.7153 9 22.9174 9 20C9 17.0826 10.1589 14.2847 12.2218 12.2218C14.2847 10.1589 17.0826 9 20 9ZM20 34C23.713 34 27.274 32.525 29.8995 29.8995C32.525 27.274 34 23.713 34 20C34 16.287 32.525 12.726 29.8995 10.1005C27.274 7.475 23.713 6 20 6C16.287 6 12.726 7.475 10.1005 10.1005C7.475 12.726 6 16.287 6 20C6 23.713 7.475 27.274 10.1005 29.8995C12.726 32.525 16.287 34 20 34ZM5.24375 8.7375C4.55 8.2875 3.61875 8.4875 3.16875 9.1875C1.1625 12.3063 0 16.0187 0 20C0 23.9813 1.1625 27.6937 3.16875 30.8125C3.61875 31.5063 4.54375 31.7125 5.24375 31.2625C5.94375 30.8125 6.14375 29.8875 5.69375 29.1875C3.9875 26.5375 3 23.3875 3 20C3 16.6125 3.9875 13.4625 5.69375 10.8125C6.14375 10.1187 5.94375 9.1875 5.24375 8.7375ZM34.7562 8.7375C34.0625 9.1875 33.8563 10.1125 34.3063 10.8125C36.0125 13.4625 37 16.6125 37 20C37 23.3875 36.0125 26.5375 34.3063 29.1875C33.8563 29.8813 34.0562 30.8125 34.7562 31.2625C35.4562 31.7125 36.3812 31.5125 36.8312 30.8125C38.8375 27.6937 40 23.9813 40 20C40 16.0187 38.8375 12.3063 36.8312 9.1875C36.3812 8.49375 35.4562 8.2875 34.7562 8.7375ZM20 12C19.1687 12 18.5 12.6687 18.5 13.5V20.5C18.5 21.3313 19.1687 22 20 22C20.8313 22 21.5 21.3313 21.5 20.5V13.5C21.5 12.6687 20.8313 12 20 12ZM22 26C22 25.4696 21.7893 24.9609 21.4142 24.5858C21.0391 24.2107 20.5304 24 20 24C19.4696 24 18.9609 24.2107 18.5858 24.5858C18.2107 24.9609 18 25.4696 18 26C18 26.5304 18.2107 27.0391 18.5858 27.4142C18.9609 27.7893 19.4696 28 20 28C20.5304 28 21.0391 27.7893 21.4142 27.4142C21.7893 27.0391 22 26.5304 22 26Z" fill="#B3B3C3"/>
</svg>
