<svg width="40" height="40" viewBox="0 0 40 40" fill="none" xmlns="http://www.w3.org/2000/svg">
<path d="M3 19.9437C3 23.3875 3.98938 26.5375 5.69438 29.1875C6.1425 29.8875 5.94125 30.8125 5.245 31.2625C4.54812 31.7125 3.62 31.5062 3.17188 30.7562C1.16438 27.6937 0 23.9812 0 19.9437C0 16.0187 1.16438 12.3062 3.17188 9.18811C3.62 8.49123 4.54812 8.29061 5.245 8.73873C5.94125 9.18686 6.1425 10.1156 5.69438 10.7562C3.98938 13.4625 3 16.6125 3 19.9437ZM40 19.9437C40 23.9812 38.8375 27.6937 36.8312 30.7562C36.3812 31.5062 35.45 31.7125 34.7562 31.2625C34.0562 30.8125 33.8563 29.8875 34.3063 29.1875C36.0125 26.5375 37 23.3875 37 19.9437C37 16.6125 36.0125 13.4625 34.3063 10.7562C33.8563 10.1156 34.0562 9.18686 34.7562 8.73873C35.45 8.29061 36.3812 8.49123 36.8312 9.18811C38.8375 12.3062 40 16.0187 40 19.9437ZM20 12C20.8312 12 21.5 12.6687 21.5 13.5V20.5C21.5 21.3312 20.8312 22 20 22C19.1688 22 18.5 21.3312 18.5 20.5V13.5C18.5 12.6687 19.1688 12 20 12ZM22 26C22 27.1062 21.1063 28 20 28C18.8937 28 18 27.1062 18 26C18 24.8937 18.8937 24 20 24C21.1063 24 22 24.8937 22 26Z" fill="#E84A4A"/>
<path d="M6 20C6 12.2688 12.2688 6 20 6C27.7313 6 34 12.2688 34 20C34 27.7313 27.7313 34 20 34C12.2688 34 6 27.7313 6 20ZM18.5 13.5V20.5C18.5 21.3313 19.1687 22 20 22C20.8313 22 21.5 21.3313 21.5 20.5V13.5C21.5 12.6687 20.8313 12 20 12C19.1687 12 18.5 12.6687 18.5 13.5ZM20 24C18.8938 24 18 24.8937 18 26C18 27.1063 18.8938 28 20 28C21.1062 28 22 27.1063 22 26C22 24.8937 21.1062 24 20 24Z" fill="white"/>
</svg>
