<svg width="40" height="40" viewBox="0 0 40 40" fill="current" xmlns="http://www.w3.org/2000/svg">
<path d="M34 20C34 27.7313 27.7313 34 20 34C12.2688 34 6 27.7313 6 20C6 12.2688 12.2688 6 20 6C27.7313 6 34 12.2688 34 20ZM21.5 13.5C21.5 12.6687 20.8312 12 20 12C19.1688 12 18.5 12.6687 18.5 13.5V20.5C18.5 21.3313 19.1688 22 20 22C20.8312 22 21.5 21.3313 21.5 20.5V13.5ZM20 28C21.1063 28 22 27.1063 22 26C22 24.8937 21.1063 24 20 24C18.8937 24 18 24.8937 18 26C18 27.1063 18.8937 28 20 28ZM5.69375 10.8125C3.9875 13.4625 3 16.6125 3 20C3 23.3875 3.9875 26.5375 5.69375 29.1875C6.14375 29.8813 5.94375 30.8125 5.24375 31.2625C4.54375 31.7125 3.61875 31.5125 3.16875 30.8125C1.1625 27.6938 0 23.9813 0 20C0 16.0188 1.1625 12.3063 3.16875 9.1875C3.61875 8.49375 4.54375 8.2875 5.24375 8.7375C5.94375 9.1875 6.14375 10.1125 5.69375 10.8125ZM36.8312 9.1875C38.8375 12.3063 40 16.0188 40 20C40 23.9813 38.8375 27.6938 36.8312 30.8125C36.3812 31.5063 35.4562 31.7125 34.7562 31.2625C34.0562 30.8125 33.8563 29.8875 34.3063 29.1875C36.0125 26.5375 37 23.3875 37 20C37 16.6125 36.0125 13.4625 34.3063 10.8125C33.8563 10.1188 34.0562 9.1875 34.7562 8.7375C35.4562 8.2875 36.3812 8.4875 36.8312 9.1875Z" fill="current"/>
</svg>
