<svg width="40" height="40" viewBox="0 0 40 40" fill="none" xmlns="http://www.w3.org/2000/svg">
<path d="M36.25 8.75H30V5C30 3.00078 28.25 1.25 26.25 1.25H13.75C11.75 1.25 10 3.00078 10 5V8.75H3.75C1.75078 8.75 0 10.5 0 12.5V23.75H40V12.5C40 10.5 38.25 8.75 36.25 8.75ZM26.25 8.75H13.75V5H26.25V8.75Z" fill="#E84A4A"/>
<path d="M25 27.5C25 28.1909 24.4409 28.75 23.75 28.75H16.25C15.5625 28.75 15 28.1875 15 27.5V23.75H0V35C0 37 1.75078 38.75 3.75 38.75H36.25C38.2492 38.75 40 36.9992 40 35V23.75H25V27.5Z" fill="#2D253F"/>
</svg>
