<svg width="40" height="40" viewBox="0 0 40 40" fill="none" xmlns="http://www.w3.org/2000/svg">
<path d="M35 8.75H30V6.25C30 3.48828 27.7617 1.25 25 1.25H15C12.2422 1.25 10 3.48828 10 6.25V8.75H5C2.23828 8.75 0 10.9922 0 13.75V33.75C0 36.5117 2.23828 38.75 5 38.75H35C37.7617 38.75 40 36.5117 40 33.75V13.75C40 10.9922 37.7578 8.75 35 8.75ZM15 5H25C25.6904 5 26.25 5.55961 26.25 6.25V8.75H13.75V6.25C13.75 5.55937 14.3125 5 15 5ZM5 12.5H35C35.6875 12.5 36.25 13.0625 36.25 13.75V21.25H3.75V13.75C3.75 13.0625 4.3125 12.5 5 12.5ZM35 35H5C4.3125 35 3.75 34.4375 3.75 33.75V25H15V26.25C15 27.6305 16.1195 28.75 17.5 28.75H22.5C23.8805 28.75 25 27.6305 25 26.25V25H36.25V33.75C36.25 34.4375 35.6875 35 35 35Z" fill="#B3B3C3"/>
</svg>
