<svg width="40" height="40" viewBox="0 0 40 40" fill="current" xmlns="http://www.w3.org/2000/svg">
<path d="M14.375 5H25.625C25.9688 5 26.25 5.28125 26.25 5.625V8.75H13.75V5.625C13.75 5.28125 14.0312 5 14.375 5ZM10 5.625V8.75H5C2.24219 8.75 0 10.9922 0 13.75V21.25H15H25H40V13.75C40 10.9922 37.7578 8.75 35 8.75H30V5.625C30 3.21094 28.0391 1.25 25.625 1.25H14.375C11.9609 1.25 10 3.21094 10 5.625ZM40 23.75H25V26.25C25 27.6328 23.8828 28.75 22.5 28.75H17.5C16.1172 28.75 15 27.6328 15 26.25V23.75H0V33.75C0 36.5078 2.24219 38.75 5 38.75H35C37.7578 38.75 40 36.5078 40 33.75V23.75Z" fill="current"/>
</svg>
