<svg width="40" height="40" viewBox="0 0 40 40" fill="current" xmlns="http://www.w3.org/2000/svg">
<g clip-path="url(#clip0_727_15351)">
<path d="M0 20C0 24.1406 3.35938 27.5 7.5 27.5H32.5C36.6406 27.5 40 24.1406 40 20C40 16.4453 37.5312 13.4687 34.2109 12.6953C34.7109 11.9141 35 10.9922 35 10C35 7.24219 32.7578 5 30 5C29.0078 5 28.0781 5.28906 27.3047 5.78906C26.5313 2.46875 23.5547 0 20 0C16.4453 0 13.4687 2.46875 12.6953 5.78906C11.9219 5.28906 10.9922 5 10 5C7.24219 5 5 7.24219 5 10C5 10.9922 5.28906 11.9219 5.78906 12.6953C2.46875 13.4687 0 16.4453 0 20ZM15.0156 38.3047C15.4062 39.3047 16.3516 40 17.4297 40H22.5781C23.6563 40 24.6016 39.3047 24.9922 38.3047C26.3672 34.7656 28.0859 31.8906 29.375 30H21.875L20.5625 32.6328C20.3359 33.0938 19.6719 33.0938 19.4453 32.6328L18.125 30H10.6328C11.9219 31.8906 13.6406 34.7578 15.0156 38.3047Z" fill="current"/>
</g>
<defs>
<clipPath id="clip0_727_15351">
<rect width="40" height="40" fill="current"/>
</clipPath>
</defs>
</svg>
