<svg width="40" height="40" viewBox="0 0 40 40" fill="none" xmlns="http://www.w3.org/2000/svg">
<g clip-path="url(#clip0_2916_46106)">
<path d="M20 0C17.0937 0 14.5703 1.65625 13.3281 4.07031C12.6719 3.85937 11.9766 3.75 11.25 3.75C7.45313 3.75 4.375 6.82813 4.375 10.625C4.375 11.4609 4.52344 12.2578 4.79688 13C1.99219 14.0859 0 16.8125 0 20C0 24.1406 3.35938 27.5 7.5 27.5H32.5C36.6406 27.5 40 24.1406 40 20C40 16.8125 38.0078 14.0859 35.2031 13C35.4766 12.2578 35.625 11.4609 35.625 10.625C35.625 6.82813 32.5469 3.75 28.75 3.75C28.0234 3.75 27.3281 3.85937 26.6719 4.07031C25.4297 1.65625 22.9063 0 20 0ZM16.2812 7.00781C16.5234 5.17187 18.0938 3.75 20 3.75C21.9062 3.75 23.4766 5.17187 23.7188 7.00781C23.8047 7.67969 24.2578 8.25781 24.8906 8.50781C25.5234 8.75781 26.2422 8.64844 26.7734 8.21094C27.3125 7.76562 28 7.5 28.7578 7.5C30.4844 7.5 31.8828 8.89844 31.8828 10.625C31.8828 11.5625 31.4687 12.4062 30.8125 12.9844C30.2031 13.5156 30 14.3828 30.3203 15.125C30.6406 15.8672 31.3906 16.3281 32.2031 16.2656C32.3047 16.2578 32.4063 16.25 32.5156 16.25C34.5859 16.25 36.2656 17.9297 36.2656 20C36.2656 22.0703 34.5859 23.75 32.5156 23.75H7.5C5.42969 23.75 3.75 22.0703 3.75 20C3.75 17.9297 5.42969 16.25 7.5 16.25C7.60156 16.25 7.71094 16.2578 7.8125 16.2656C8.61719 16.3281 9.375 15.875 9.69531 15.125C10.0156 14.375 9.8125 13.5156 9.20313 12.9844C8.53906 12.4062 8.125 11.5625 8.125 10.625C8.125 8.89844 9.52344 7.5 11.25 7.5C12.0078 7.5 12.6953 7.76562 13.2344 8.21094C13.7578 8.64062 14.4766 8.75781 15.1172 8.50781C15.7578 8.25781 16.1953 7.67969 16.2891 7.00781H16.2812ZM15.0156 38.3047C15.4062 39.3047 16.3516 40 17.4297 40H22.5781C23.6563 40 24.6016 39.3047 24.9922 38.3047C26.3672 34.7656 28.0859 31.8906 29.375 30H21.875L20.5625 32.6328C20.3359 33.0938 19.6719 33.0938 19.4453 32.6328L18.125 30H10.6328C11.9219 31.8906 13.6406 34.7578 15.0156 38.3047Z" fill="#B3B3C3"/>
</g>
<defs>
<clipPath id="clip0_2916_46106">
<rect width="40" height="40" fill="white"/>
</clipPath>
</defs>
</svg>
