<svg width="40" height="40" viewBox="0 0 40 40" fill="none" xmlns="http://www.w3.org/2000/svg">
<path d="M40 20C40 24.1422 36.6422 27.5 32.5 27.5H7.5C3.35781 27.5 0 24.1422 0 20C0 16.4422 2.48359 13.4789 5.80703 12.7086C5.30078 11.9297 5 11 5 10C5 7.23828 7.23828 5 10 5C11 5 11.9273 5.30078 12.7086 5.80703C13.4766 2.48359 16.4453 0 20 0C23.5547 0 26.5211 2.48359 27.2914 5.80703C28.0703 5.30078 29 5 30 5C32.7617 5 35 7.23828 35 10C35 11 34.6992 11.9273 34.193 12.7086C37.5156 13.4766 40 16.4453 40 20Z" fill="white"/>
<path d="M20 33.6875C19.3906 32.3047 18.7344 31.0781 18.0938 30H10.5234C15.6969 36.3609 14.2375 40 17.4484 40H22.5531C25.7688 40 24.3008 36.3656 29.4781 30H21.9078C21.2656 31.0781 20.6094 32.3047 20 33.6875Z" fill="#E84A4A"/>
</svg>
