<svg width="49" height="49" viewBox="0 0 49 49" fill="none" xmlns="http://www.w3.org/2000/svg">
<path d="M48.625 24.6211C48.625 29.5917 44.5956 33.6211 39.625 33.6211H9.625C4.65438 33.6211 0.625 29.5917 0.625 24.6211C0.625 20.3517 3.60531 16.7958 7.59344 15.8714C6.98594 14.9367 6.625 13.8211 6.625 12.6211C6.625 9.30703 9.31094 6.62109 12.625 6.62109C13.825 6.62109 14.9378 6.98203 15.8753 7.58953C16.7969 3.60141 20.3594 0.621094 24.625 0.621094C28.8906 0.621094 32.4503 3.60141 33.3747 7.58953C34.3094 6.98203 35.425 6.62109 36.625 6.62109C39.9391 6.62109 42.625 9.30703 42.625 12.6211C42.625 13.8211 42.2641 14.9339 41.6566 15.8714C45.6438 16.793 48.625 20.3555 48.625 24.6211Z" fill="#2D253F"/>
<path d="M24.6249 41.0461C23.8937 39.3867 23.1062 37.9148 22.3374 36.6211H13.2531C19.4612 44.2542 17.7099 48.6211 21.5631 48.6211H27.6887C31.5474 48.6211 29.7859 44.2598 35.9987 36.6211H26.9143C26.1437 37.9148 25.3562 39.3867 24.6249 41.0461Z" fill="#E84A4A"/>
</svg>
