<svg width="40" height="40" viewBox="0 0 40 40" fill="none" xmlns="http://www.w3.org/2000/svg">
<g clip-path="url(#clip0_18762_250906)">
<path d="M39.4531 3.20313C40.1875 2.46875 40.1875 1.28125 39.4531 0.554691C38.7188 -0.171871 37.5312 -0.179684 36.8047 0.554691L26.1719 11.1719L25.1641 10.1641C23.5859 8.58594 21.1484 8.24219 19.2031 9.32813L1.28125 19.2891C0.492187 19.7266 0 20.5625 0 21.4688C0 22.1328 0.265625 22.7656 0.726562 23.2344L16.7734 39.2734C17.2422 39.7422 17.875 40 18.5391 40C19.4453 40 20.2813 39.5078 20.7188 38.7188L30.6719 20.7969C31.7578 18.8438 31.4141 16.4141 29.8359 14.8359L28.8281 13.8281L39.4531 3.20313ZM25.2812 22.7813L18.25 35.4453L10.7031 27.8984L12.1094 23.6875C12.2734 23.1953 11.8047 22.7344 11.3203 22.8984L7.10156 24.2969L4.5625 21.7578L17.2266 14.7266L25.2812 22.7813Z" fill="#B3B3C3"/>
</g>
<defs>
<clipPath id="clip0_18762_250906">
<rect width="40" height="40" fill="white"/>
</clipPath>
</defs>
</svg>
