<svg width="40" height="40" viewBox="0 0 40 40" fill="none" xmlns="http://www.w3.org/2000/svg">
<g clip-path="url(#clip0_18762_250919)">
<path d="M39.2656 4.26562C40.2422 3.28906 40.2422 1.70312 39.2656 0.726562C38.2891 -0.25 36.7031 -0.25 35.7266 0.726562L25.7266 10.7266L29.2656 14.2656L39.2656 4.26562Z" fill="#FF4545"/>
<path d="M24.5 9.50008C23.3125 8.31258 21.4922 8.06258 20.0234 8.87508L17.4844 10.2813L29.7188 22.5079L31.125 19.9688C31.9375 18.5079 31.6797 16.6798 30.5 15.4923L24.5 9.49227V9.50008ZM14.6484 11.8595L1.28125 19.2891C0.492187 19.7266 0 20.5626 0 21.4688C0 22.1329 0.265625 22.7657 0.726562 23.2345L4.10156 26.6095C4.26562 26.7735 4.51562 26.836 4.74219 26.7579L8.8125 25.3985C9.30469 25.2345 9.76562 25.7032 9.60156 26.1876L8.24219 30.2579C8.16406 30.4845 8.22656 30.7266 8.39062 30.8985L16.7734 39.2735C17.2422 39.7423 17.875 40.0001 18.5391 40.0001C19.4453 40.0001 20.2813 39.5079 20.7188 38.7188L28.1484 25.3516L14.6484 11.8595Z" fill="#2E2640"/>
</g>
<defs>
<clipPath id="clip0_18762_250919">
<rect width="40" height="40" fill="white"/>
</clipPath>
</defs>
</svg>
