<svg width="40" height="40" viewBox="0 0 40 40" fill="current" xmlns="http://www.w3.org/2000/svg">
<g clip-path="url(#clip0_18762_250903)">
<path d="M39.2656 0.734375C38.2891 -0.242188 36.7031 -0.242188 35.7266 0.734375L25.7266 10.7344L24.4922 9.5C23.3047 8.3125 21.4844 8.0625 20.0156 8.875L17.4766 10.2813L29.7188 22.5078L31.125 19.9688C31.9375 18.5078 31.6797 16.6797 30.5 15.4922L29.2656 14.2578L39.2656 4.25781C40.2422 3.28125 40.2422 1.69531 39.2656 0.71875V0.734375ZM14.6484 11.8594L1.28125 19.2891C0.492187 19.7266 0 20.5625 0 21.4688C0 22.1328 0.265625 22.7656 0.726562 23.2344L4.10156 26.6094C4.26562 26.7734 4.51562 26.8359 4.74219 26.7578L8.8125 25.3984C9.30469 25.2344 9.76562 25.7031 9.60156 26.1875L8.24219 30.2578C8.16406 30.4844 8.22656 30.7266 8.39062 30.8984L16.7734 39.2734C17.2422 39.7422 17.875 40 18.5391 40C19.4453 40 20.2813 39.5078 20.7188 38.7188L28.1484 25.3516L14.6484 11.8594Z" fill="current"/>
</g>
<defs>
<clipPath id="clip0_18762_250903">
<rect width="40" height="40" fill="current"/>
</clipPath>
</defs>
</svg>
