<svg width="40" height="40" viewBox="0 0 40 40" fill="none" xmlns="http://www.w3.org/2000/svg">
<g clip-path="url(#clip0_23916_17803)">
<path d="M35 3.75C35.6875 3.75 36.25 4.3125 36.25 5V35C36.25 35.6875 35.6875 36.25 35 36.25H22.5C21.8125 36.25 21.25 35.6875 21.25 35V5C21.25 4.3125 21.8125 3.75 22.5 3.75H35ZM22.5 0C19.7422 0 17.5 2.24219 17.5 5V35C17.5 37.7578 19.7422 40 22.5 40H35C37.7578 40 40 37.7578 40 35V5C40 2.24219 37.7578 0 35 0H22.5ZM15 10H5.625C2.51562 10 0 12.5156 0 15.625V34.375C0 37.4844 2.51562 40 5.625 40H16.9062C15.9844 38.9688 15.3359 37.6797 15.1016 36.25H5.625C4.58594 36.25 3.75 35.4141 3.75 34.375V15.625C3.75 14.5859 4.58594 13.75 5.625 13.75H15V10ZM8.75 25C8.0625 25 7.5 25.5625 7.5 26.25V28.75C7.5 29.4375 8.0625 30 8.75 30H11.25C11.9375 30 12.5 29.4375 12.5 28.75V26.25C12.5 25.5625 11.9375 25 11.25 25H8.75ZM26.25 26.25C26.25 26.9375 26.8125 27.5 27.5 27.5H30C30.6875 27.5 31.25 26.9375 31.25 26.25V23.75C31.25 23.0625 30.6875 22.5 30 22.5H27.5C26.8125 22.5 26.25 23.0625 26.25 23.75V26.25ZM8.75 17.5C8.0625 17.5 7.5 18.0625 7.5 18.75V21.25C7.5 21.9375 8.0625 22.5 8.75 22.5H11.25C11.9375 22.5 12.5 21.9375 12.5 21.25V18.75C12.5 18.0625 11.9375 17.5 11.25 17.5H8.75ZM26.25 8.75V11.25C26.25 11.9375 26.8125 12.5 27.5 12.5H30C30.6875 12.5 31.25 11.9375 31.25 11.25V8.75C31.25 8.0625 30.6875 7.5 30 7.5H27.5C26.8125 7.5 26.25 8.0625 26.25 8.75ZM27.5 20H30C30.6875 20 31.25 19.4375 31.25 18.75V16.25C31.25 15.5625 30.6875 15 30 15H27.5C26.8125 15 26.25 15.5625 26.25 16.25V18.75C26.25 19.4375 26.8125 20 27.5 20Z" fill="#B3B3C3"/>
</g>
<defs>
<clipPath id="clip0_23916_17803">
<rect width="40" height="40" fill="white"/>
</clipPath>
</defs>
</svg>
