<svg width="40" height="40" viewBox="0 0 40 40" fill="none" xmlns="http://www.w3.org/2000/svg">
<path d="M20 0C17.2422 0 15 2.24219 15 5V10H5C2.24219 10 0 12.2422 0 15V35C0 37.7578 2.24219 40 5 40H20H35C37.7578 40 40 37.7578 40 35V15V5C40 2.24219 37.7578 0 35 0H20ZM5 23.75C5 23.0625 5.5625 22.5 6.25 22.5H8.75C9.4375 22.5 10 23.0625 10 23.75V26.25C10 26.9375 9.4375 27.5 8.75 27.5H6.25C5.5625 27.5 5 26.9375 5 26.25V23.75ZM21.25 25C20.5625 25 20 24.4375 20 23.75V21.25C20 20.5625 20.5625 20 21.25 20H23.75C24.4375 20 25 20.5625 25 21.25V23.75C25 24.4375 24.4375 25 23.75 25H21.25ZM30 23.75V21.25C30 20.5625 30.5625 20 31.25 20H33.75C34.4375 20 35 20.5625 35 21.25V23.75C35 24.4375 34.4375 25 33.75 25H31.25C30.5625 25 30 24.4375 30 23.75ZM6.25 15H8.75C9.4375 15 10 15.5625 10 16.25V18.75C10 19.4375 9.4375 20 8.75 20H6.25C5.5625 20 5 19.4375 5 18.75V16.25C5 15.5625 5.5625 15 6.25 15ZM20 6.25C20 5.5625 20.5625 5 21.25 5H23.75C24.4375 5 25 5.5625 25 6.25V8.75C25 9.4375 24.4375 10 23.75 10H21.25C20.5625 10 20 9.4375 20 8.75V6.25ZM31.25 5H33.75C34.4375 5 35 5.5625 35 6.25V8.75C35 9.4375 34.4375 10 33.75 10H31.25C30.5625 10 30 9.4375 30 8.75V6.25C30 5.5625 30.5625 5 31.25 5ZM20 16.25V13.75C20 13.0625 20.5625 12.5 21.25 12.5H23.75C24.4375 12.5 25 13.0625 25 13.75V16.25C25 16.9375 24.4375 17.5 23.75 17.5H21.25C20.5625 17.5 20 16.9375 20 16.25ZM31.25 17.5C30.5625 17.5 30 16.9375 30 16.25V13.75C30 13.0625 30.5625 12.5 31.25 12.5H33.75C34.4375 12.5 35 13.0625 35 13.75V16.25C35 16.9375 34.4375 17.5 33.75 17.5H31.25Z" fill="#2E2640"/>
</svg>
