<svg width="40" height="40" viewBox="0 0 40 40" fill="none" xmlns="http://www.w3.org/2000/svg">
<path d="M0 15C0 12.2422 2.23828 10 5 10H15V37.5C15 38.8828 13.8828 40 12.5 40H7.5C6.11953 40 5 38.8828 5 37.5V27.5C2.23828 27.5 0 25.2578 0 22.5V15ZM40 18.75C40 20.9297 38.9531 22.7812 37.5 23.4688V14.0313C38.9531 14.7188 40 16.5703 40 18.75Z" fill="#E84A4A"/>
<path d="M37.5 35C37.5 36.0078 36.8906 36.9219 35.9531 37.3125C35.0234 37.6953 33.9453 37.4844 33.2344 36.7656L29.8203 33.2891C26.0703 29.5391 20.9844 27.5 15.6797 27.5H15V9.99999H15.6797C20.9844 9.99999 26.0703 7.89062 29.8203 4.14218L33.2344 0.732257C33.9453 0.0172957 35.0234 -0.196571 35.9531 0.190382C36.8906 0.577335 37.5 1.48905 37.5 2.49999V35Z" fill="#2D253F"/>
</svg>
