<svg width="40" height="40" viewBox="0 0 40 40" fill="current" xmlns="http://www.w3.org/2000/svg">
<g clip-path="url(#clip0_632_15477)">
<path d="M37.5 2.50435C37.5 1.49654 36.8906 0.582474 35.9531 0.191849C35.0156 -0.198776 33.9453 0.0199742 33.2266 0.730912L29.8203 4.14497C26.0703 7.89497 20.9844 10.0043 15.6797 10.0043H15H12.5H5C2.24219 10.0043 0 12.2465 0 15.0043V22.5043C0 25.2622 2.24219 27.5043 5 27.5043V37.5043C5 38.8872 6.11719 40.0043 7.5 40.0043H12.5C13.8828 40.0043 15 38.8872 15 37.5043V27.5043H15.6797C20.9844 27.5043 26.0703 29.6137 29.8203 33.3637L33.2266 36.77C33.9453 37.4887 35.0156 37.6997 35.9531 37.309C36.8906 36.9184 37.5 36.0122 37.5 34.9965V23.4731C38.9531 22.7856 40 20.934 40 18.7543C40 16.5747 38.9531 14.7231 37.5 14.0356V2.50435ZM32.5 8.49654V18.7543V29.0122C27.9062 24.8325 21.9141 22.5043 15.6797 22.5043H15V15.0043H15.6797C21.9141 15.0043 27.9062 12.6762 32.5 8.49654Z" fill="current"/>
</g>
<defs>
<clipPath id="clip0_632_15477">
<rect width="40" height="40" fill="current"/>
</clipPath>
</defs>
</svg>
