<svg width="40" height="40" viewBox="0 0 40 40" fill="none" xmlns="http://www.w3.org/2000/svg">
<g clip-path="url(#clip0_2897_46215)">
<path d="M33.75 5.64677L32.9141 6.4827C28.4766 10.9202 22.5078 13.4671 16.25 13.6155V13.6233V23.6233V23.6311C22.5078 23.7796 28.4766 26.3265 32.9141 30.764L33.75 31.5999V5.64677ZM12.5 9.87333H15.6797C21.1484 9.87333 26.3984 7.70145 30.2656 3.83427L33.2344 0.865516C34.8047 -0.712609 37.5 0.404578 37.5 2.63114V13.9046C38.9531 14.5921 40 16.4436 40 18.6233C40 20.803 38.9531 22.6546 37.5 23.3421V34.6155C37.5 36.8421 34.8047 37.9593 33.2344 36.3811L30.2656 33.4124C26.5312 29.678 21.5156 27.5218 16.25 27.3811V35.4983C16.25 37.9124 14.2891 39.8733 11.875 39.8733H9.375C6.96094 39.8733 5 37.9124 5 35.4983V27.3733C2.24219 27.3733 0 25.1311 0 22.3733V14.8733C0 12.1155 2.24219 9.87333 5 9.87333H12.5ZM8.75 27.3733V35.4983C8.75 35.8421 9.03125 36.1233 9.375 36.1233H11.875C12.2188 36.1233 12.5 35.8421 12.5 35.4983V27.3733H8.75ZM5 13.6233C4.3125 13.6233 3.75 14.1858 3.75 14.8733V22.3733C3.75 23.0608 4.3125 23.6233 5 23.6233H8.75H12.5V13.6233H5Z" fill="#B3B3C3"/>
</g>
<defs>
<clipPath id="clip0_2897_46215">
<rect width="40" height="40" fill="white"/>
</clipPath>
</defs>
</svg>
