<svg width="40" height="41" viewBox="0 0 40 41" fill="current" xmlns="http://www.w3.org/2000/svg">
<path d="M12.5 0.724243C13.8828 0.724243 15 1.84143 15 3.22424V5.72424H25V3.22424C25 1.84143 26.1172 0.724243 27.5 0.724243C28.8828 0.724243 30 1.84143 30 3.22424V5.72424H33.75C35.8203 5.72424 37.5 7.40393 37.5 9.47424V13.2242H2.5V9.47424C2.5 7.40393 4.17969 5.72424 6.25 5.72424H10V3.22424C10 1.84143 11.1172 0.724243 12.5 0.724243ZM2.5 15.7242H37.5V36.9742C37.5 39.0446 35.8203 40.7242 33.75 40.7242H6.25C4.17969 40.7242 2.5 39.0446 2.5 36.9742V15.7242ZM7.5 21.9742V24.4742C7.5 25.1617 8.0625 25.7242 8.75 25.7242H11.25C11.9375 25.7242 12.5 25.1617 12.5 24.4742V21.9742C12.5 21.2867 11.9375 20.7242 11.25 20.7242H8.75C8.0625 20.7242 7.5 21.2867 7.5 21.9742ZM17.5 21.9742V24.4742C17.5 25.1617 18.0625 25.7242 18.75 25.7242H21.25C21.9375 25.7242 22.5 25.1617 22.5 24.4742V21.9742C22.5 21.2867 21.9375 20.7242 21.25 20.7242H18.75C18.0625 20.7242 17.5 21.2867 17.5 21.9742ZM28.75 20.7242C28.0625 20.7242 27.5 21.2867 27.5 21.9742V24.4742C27.5 25.1617 28.0625 25.7242 28.75 25.7242H31.25C31.9375 25.7242 32.5 25.1617 32.5 24.4742V21.9742C32.5 21.2867 31.9375 20.7242 31.25 20.7242H28.75ZM7.5 31.9742V34.4742C7.5 35.1617 8.0625 35.7242 8.75 35.7242H11.25C11.9375 35.7242 12.5 35.1617 12.5 34.4742V31.9742C12.5 31.2867 11.9375 30.7242 11.25 30.7242H8.75C8.0625 30.7242 7.5 31.2867 7.5 31.9742ZM18.75 30.7242C18.0625 30.7242 17.5 31.2867 17.5 31.9742V34.4742C17.5 35.1617 18.0625 35.7242 18.75 35.7242H21.25C21.9375 35.7242 22.5 35.1617 22.5 34.4742V31.9742C22.5 31.2867 21.9375 30.7242 21.25 30.7242H18.75ZM27.5 31.9742V34.4742C27.5 35.1617 28.0625 35.7242 28.75 35.7242H31.25C31.9375 35.7242 32.5 35.1617 32.5 34.4742V31.9742C32.5 31.2867 31.9375 30.7242 31.25 30.7242H28.75C28.0625 30.7242 27.5 31.2867 27.5 31.9742Z" fill="current"/>
</svg>
