<svg width="36" height="40" viewBox="0 0 36 40" fill="current" xmlns="http://www.w3.org/2000/svg">
<path d="M10.5 0C11.8828 0 13 1.11719 13 2.5V5H23V2.5C23 1.11719 24.1172 0 25.5 0C26.8828 0 28 1.11719 28 2.5V5H31.75C33.8203 5 35.5 6.67969 35.5 8.75V12.5H0.5V8.75C0.5 6.67969 2.17969 5 4.25 5H8V2.5C8 1.11719 9.11719 0 10.5 0ZM0.5 15H35.5V36.25C35.5 38.3203 33.8203 40 31.75 40H4.25C2.17969 40 0.5 38.3203 0.5 36.25V15ZM18.7266 19.6016C18.4297 19 17.5703 19 17.2656 19.6016L15.4219 23.3359L11.3047 23.9375C10.6406 24.0312 10.375 24.8516 10.8516 25.3203L13.8359 28.2266L13.1328 32.3281C13.0156 32.9922 13.7188 33.5 14.3125 33.1875L18 31.25L21.6875 33.1875C22.2812 33.5 22.9766 32.9922 22.8672 32.3281L22.1641 28.2266L25.1484 25.3203C25.6328 24.8516 25.3672 24.0312 24.6953 23.9375L20.5781 23.3359L18.7344 19.6016H18.7266Z" fill="current"/>
</svg>
