<svg width="36" height="40" viewBox="0 0 36 40" fill="none" xmlns="http://www.w3.org/2000/svg">
<path d="M10.5 0C9.11719 0 8 1.11719 8 2.5V5H4.25C2.17969 5 0.5 6.67969 0.5 8.75V15H35.5V8.75C35.5 6.67969 33.8203 5 31.75 5H28V2.5C28 1.11719 26.8828 0 25.5 0C24.1172 0 23 1.11719 23 2.5V5H13V2.5C13 1.11719 11.8828 0 10.5 0ZM18.7266 19.6016C18.4297 19 17.5703 19 17.2656 19.6016L15.4219 23.3359L11.3047 23.9375C10.6406 24.0312 10.375 24.8516 10.8516 25.3203L13.8359 28.2266L13.1328 32.3281C13.0156 32.9922 13.7188 33.5 14.3125 33.1875L18 31.25L21.6875 33.1875C22.2812 33.5 22.9766 32.9922 22.8672 32.3281L22.1641 28.2266L25.1484 25.3203C25.6328 24.8516 25.3672 24.0312 24.6953 23.9375L20.5781 23.3359L18.7344 19.6016H18.7266Z" fill="#E84A4A"/>
<path d="M35.5 15H0.5V36.25C0.5 38.3203 2.17969 40 4.25 40H31.75C33.8203 40 35.5 38.3203 35.5 36.25V15ZM18.7266 19.6016L20.5703 23.3359L24.6875 23.9375C25.3516 24.0312 25.6172 24.8516 25.1406 25.3203L22.1562 28.2266L22.8594 32.3281C22.9766 32.9922 22.2734 33.5 21.6797 33.1875L18 31.25L14.3125 33.1875C13.7188 33.5 13.0234 32.9922 13.1328 32.3281L13.8359 28.2266L10.8516 25.3203C10.3672 24.8516 10.6328 24.0312 11.3047 23.9375L15.4219 23.3359L17.2656 19.6016C17.5625 19 18.4219 19 18.7266 19.6016Z" fill="#2D253F"/>
</svg>
