<svg width="40" height="41" viewBox="0 0 40 41" fill="none" xmlns="http://www.w3.org/2000/svg">
<g clip-path="url(#clip0_2887_46075)">
<path d="M14.375 2.59924C14.375 1.56018 13.5391 0.724243 12.5 0.724243C11.4609 0.724243 10.625 1.56018 10.625 2.59924V5.72424H7.5C4.74219 5.72424 2.5 7.96643 2.5 10.7242V11.9742V15.7242V35.7242C2.5 38.4821 4.74219 40.7242 7.5 40.7242H32.5C35.2578 40.7242 37.5 38.4821 37.5 35.7242V15.7242V11.9742V10.7242C37.5 7.96643 35.2578 5.72424 32.5 5.72424H29.375V2.59924C29.375 1.56018 28.5391 0.724243 27.5 0.724243C26.4609 0.724243 25.625 1.56018 25.625 2.59924V5.72424H14.375V2.59924ZM6.25 15.7242H33.75V35.7242C33.75 36.4117 33.1875 36.9742 32.5 36.9742H7.5C6.8125 36.9742 6.25 36.4117 6.25 35.7242V15.7242Z" fill="#B3B3C3"/>
</g>
<defs>
<clipPath id="clip0_2887_46075">
<rect width="40" height="40" fill="white" transform="translate(0 0.724243)"/>
</clipPath>
</defs>
</svg>
