<svg width="40" height="41" viewBox="0 0 40 41" fill="none" xmlns="http://www.w3.org/2000/svg">
<path d="M15 5.72424H25V3.22424C25 1.84377 26.1172 0.724243 27.5 0.724243C28.8828 0.724243 30 1.84377 30 3.22424V5.72424H33.75C35.8203 5.72424 37.5 7.40315 37.5 9.47424V15.7242H2.5V9.47424C2.5 7.40315 4.17891 5.72424 6.25 5.72424H10V3.22424C10 1.84377 11.1172 0.724243 12.5 0.724243C13.8828 0.724243 15 1.84377 15 3.22424V5.72424Z" fill="#E84A4A"/>
<path d="M2.5 15.7242H37.5V36.9742C37.5 39.0446 35.8203 40.7242 33.75 40.7242H6.25C4.17891 40.7242 2.5 39.0446 2.5 36.9742V15.7242Z" fill="white"/>
</svg>
