<svg width="40" height="40" viewBox="0 0 40 40" fill="none" xmlns="http://www.w3.org/2000/svg">
<path d="M8.88889 2.22217C9.8125 2.22217 10.5556 2.96522 10.5556 3.88883V6.66661H20.5556V3.88883C20.5556 2.96522 21.2986 2.22217 22.2222 2.22217C23.1458 2.22217 23.8889 2.96522 23.8889 3.88883V6.66661H26.6667C29.1181 6.66661 31.1111 8.65967 31.1111 11.1111V12.2222V15.5555H30H27.7778H20H3.33333V33.3333C3.33333 33.9444 3.83333 34.4444 4.44444 34.4444H19.7569C20.6111 35.7499 21.7014 36.8819 22.9722 37.7777H4.44444C1.99306 37.7777 0 35.7847 0 33.3333V15.5555V12.2222V11.1111C0 8.65967 1.99306 6.66661 4.44444 6.66661H7.22222V3.88883C7.22222 2.96522 7.96528 2.22217 8.88889 2.22217ZM20 27.7777C20 25.1256 21.0536 22.582 22.9289 20.7067C24.8043 18.8313 27.3478 17.7777 30 17.7777C32.6522 17.7777 35.1957 18.8313 37.0711 20.7067C38.9464 22.582 40 25.1256 40 27.7777C40 30.4299 38.9464 32.9734 37.0711 34.8488C35.1957 36.7242 32.6522 37.7777 30 37.7777C27.3478 37.7777 24.8043 36.7242 22.9289 34.8488C21.0536 32.9734 20 30.4299 20 27.7777ZM30 22.2222C29.3889 22.2222 28.8889 22.7222 28.8889 23.3333V27.7777C28.8889 28.3888 29.3889 28.8888 30 28.8888H33.3333C33.9444 28.8888 34.4444 28.3888 34.4444 27.7777C34.4444 27.1666 33.9444 26.6666 33.3333 26.6666H31.1111V23.3333C31.1111 22.7222 30.6111 22.2222 30 22.2222Z" fill="#B3B3C3"/>
</svg>
