<svg width="36" height="40" viewBox="0 0 36 40" fill="none" xmlns="http://www.w3.org/2000/svg">
<path d="M10.5 0C11.5391 0 12.375 0.835938 12.375 1.875V5H23.625V1.875C23.625 0.835938 24.4609 0 25.5 0C26.5391 0 27.375 0.835938 27.375 1.875V5H30.5C33.2578 5 35.5 7.24219 35.5 10V11.25V15V35C35.5 37.7578 33.2578 40 30.5 40H5.5C2.74219 40 0.5 37.7578 0.5 35V15V11.25V10C0.5 7.24219 2.74219 5 5.5 5H8.625V1.875C8.625 0.835938 9.46094 0 10.5 0ZM31.75 15H4.25V35C4.25 35.6875 4.8125 36.25 5.5 36.25H30.5C31.1875 36.25 31.75 35.6875 31.75 35V15ZM18.7266 18.9766L20.5703 22.7109L24.6875 23.3125C25.3516 23.4062 25.6172 24.2266 25.1406 24.6953L22.1562 27.6016L22.8594 31.7031C22.9766 32.3672 22.2734 32.875 21.6797 32.5625L18 30.625L14.3125 32.5625C13.7188 32.875 13.0234 32.3672 13.1328 31.7031L13.8359 27.6016L10.8516 24.6953C10.3672 24.2266 10.6328 23.4062 11.3047 23.3125L15.4219 22.7109L17.2656 18.9766C17.5625 18.375 18.4219 18.375 18.7266 18.9766Z" fill="#B3B3C3"/>
</svg>
