<svg width="40" height="40" viewBox="0 0 40 40" fill="none" xmlns="http://www.w3.org/2000/svg">
<path d="M11.1111 4.44439V6.66661H20V4.44439C20 3.21731 20.9931 2.22217 22.2222 2.22217C23.4514 2.22217 24.4444 3.21731 24.4444 4.44439V6.66661H27.7778C29.6181 6.66661 31.1111 8.15897 31.1111 9.99995V15.5555H0V9.99995C0 8.15897 1.49236 6.66661 3.33333 6.66661H6.66667V4.44439C6.66667 3.21731 7.65972 2.22217 8.88889 2.22217C10.1181 2.22217 11.1111 3.21731 11.1111 4.44439ZM40 27.7777C40 33.2986 35.5208 37.7777 30 37.7777C24.4792 37.7777 20 33.2986 20 27.7777C20 22.2569 24.4792 17.7777 30 17.7777C35.5208 17.7777 40 22.2569 40 27.7777ZM28.8264 23.3333V27.7777C28.8264 28.3888 29.3889 28.8888 29.9375 28.8888H33.3333C33.9444 28.8888 34.4444 28.3888 34.4444 27.7777C34.4444 27.1666 33.9444 26.6666 33.3333 26.6666H31.0486V23.3333C31.0486 22.7222 30.6111 22.2222 29.9375 22.2222C29.3889 22.2222 28.8264 22.7222 28.8264 23.3333Z" fill="#2D253F"/>
<path d="M17.7778 27.7778C17.7778 31.9097 19.8333 35.5625 22.9722 37.7778H3.33333C1.49236 37.7778 0 36.2847 0 34.4444V15.5555H30C23.25 15.5555 17.7778 21.0278 17.7778 27.7778ZM31.1111 15.5555V15.6042C30.7431 15.5694 30.375 15.5555 30 15.5555H31.1111Z" fill="#E84A4A"/>
</svg>
