<svg width="40" height="40" viewBox="0 0 40 40" fill="current" xmlns="http://www.w3.org/2000/svg">
<path d="M6.66667 4.44439V6.66661H3.33333C1.49306 6.66661 0 8.15967 0 9.99995V13.3333H31.1111V9.99995C31.1111 8.15967 29.6181 6.66661 27.7778 6.66661H24.4444V4.44439C24.4444 3.21522 23.4514 2.22217 22.2222 2.22217C20.9931 2.22217 20 3.21522 20 4.44439V6.66661H11.1111V4.44439C11.1111 3.21522 10.1181 2.22217 8.88889 2.22217C7.65972 2.22217 6.66667 3.21522 6.66667 4.44439ZM31.1111 15.5555H30H0V34.4444C0 36.2847 1.49306 37.7777 3.33333 37.7777H22.9722C19.8333 35.5624 17.7778 31.9097 17.7778 27.7777C17.7778 21.0277 23.25 15.5555 30 15.5555C30.375 15.5555 30.7431 15.5694 31.1111 15.6041V15.5555ZM40 27.7777C40 22.2569 35.5208 17.7777 30 17.7777C24.4792 17.7777 20 22.2569 20 27.7777C20 33.2986 24.4792 37.7777 30 37.7777C35.5208 37.7777 40 33.2986 40 27.7777ZM30 22.2222C30.6111 22.2222 31.1111 22.7222 31.1111 23.3333V26.6666H33.3333C33.9444 26.6666 34.4444 27.1666 34.4444 27.7777C34.4444 28.3888 33.9444 28.8888 33.3333 28.8888H30C29.3889 28.8888 28.8889 28.3888 28.8889 27.7777V23.3333C28.8889 22.7222 29.3889 22.2222 30 22.2222Z" fill="current"/>
</svg>
