<svg width="40" height="41" viewBox="0 0 40 41" fill="none" xmlns="http://www.w3.org/2000/svg">
<path d="M15.0071 5.72424H24.9925V3.22424C24.9925 1.84377 26.108 0.724243 27.4888 0.724243C28.8696 0.724243 29.9852 1.84377 29.9852 3.22424V5.72424H33.7297C35.797 5.72424 37.4742 7.40315 37.4742 9.47424V15.7242H2.52539V9.47424C2.52539 7.40315 4.20184 5.72424 6.26991 5.72424H10.0144V3.22424C10.0144 1.84377 11.13 0.724243 12.5108 0.724243C13.8916 0.724243 15.0071 1.84377 15.0071 3.22424V5.72424Z" fill="#E84A4A"/>
<path d="M2.52539 15.7242H37.4742V36.9742C37.4742 39.0446 35.797 40.7242 33.7297 40.7242H6.26991C4.20184 40.7242 2.52539 39.0446 2.52539 36.9742V15.7242ZM7.51808 24.4742C7.51808 25.1617 8.07663 25.7242 8.76625 25.7242H11.2626C11.9491 25.7242 12.5108 25.1617 12.5108 24.4742V21.9742C12.5108 21.2867 11.9491 20.7242 11.2626 20.7242H8.76625C8.07663 20.7242 7.51808 21.2867 7.51808 21.9742V24.4742ZM18.7516 20.7242C18.0651 20.7242 17.5035 21.2867 17.5035 21.9742V24.4742C17.5035 25.1617 18.0651 25.7242 18.7516 25.7242H21.248C21.9345 25.7242 22.4961 25.1617 22.4961 24.4742V21.9742C22.4961 21.2867 21.9345 20.7242 21.248 20.7242H18.7516ZM27.4888 24.4742C27.4888 25.1617 28.0505 25.7242 28.737 25.7242H31.2333C31.9198 25.7242 32.4815 25.1617 32.4815 24.4742V21.9742C32.4815 21.2867 31.9198 20.7242 31.2333 20.7242H28.737C28.0505 20.7242 27.4888 21.2867 27.4888 21.9742V24.4742ZM8.76625 30.7242C8.07663 30.7242 7.51808 31.2867 7.51808 31.9742V34.4742C7.51808 35.1617 8.07663 35.7242 8.76625 35.7242H11.2626C11.9491 35.7242 12.5108 35.1617 12.5108 34.4742V31.9742C12.5108 31.2867 11.9491 30.7242 11.2626 30.7242H8.76625ZM17.5035 34.4742C17.5035 35.1617 18.0651 35.7242 18.7516 35.7242H21.248C21.9345 35.7242 22.4961 35.1617 22.4961 34.4742V31.9742C22.4961 31.2867 21.9345 30.7242 21.248 30.7242H18.7516C18.0651 30.7242 17.5035 31.2867 17.5035 31.9742V34.4742ZM28.737 30.7242C28.0505 30.7242 27.4888 31.2867 27.4888 31.9742V34.4742C27.4888 35.1617 28.0505 35.7242 28.737 35.7242H31.2333C31.9198 35.7242 32.4815 35.1617 32.4815 34.4742V31.9742C32.4815 31.2867 31.9198 30.7242 31.2333 30.7242H28.737Z" fill="#2D253F"/>
</svg>
