<svg width="40" height="41" viewBox="0 0 40 41" fill="current" xmlns="http://www.w3.org/2000/svg">
<path d="M10 3.22424V5.72424H6.25C4.17969 5.72424 2.5 7.40393 2.5 9.47424V13.2242H37.5V9.47424C37.5 7.40393 35.8203 5.72424 33.75 5.72424H30V3.22424C30 1.84143 28.8828 0.724243 27.5 0.724243C26.1172 0.724243 25 1.84143 25 3.22424V5.72424H15V3.22424C15 1.84143 13.8828 0.724243 12.5 0.724243C11.1172 0.724243 10 1.84143 10 3.22424ZM37.5 15.7242H2.5V36.9742C2.5 39.0446 4.17969 40.7242 6.25 40.7242H33.75C35.8203 40.7242 37.5 39.0446 37.5 36.9742V15.7242Z" fill="current"/>
</svg>
