<svg width="40" height="40" viewBox="0 0 40 40" fill="none" xmlns="http://www.w3.org/2000/svg">
<path d="M15.5547 2.5C13.6719 2.5 12 3.70313 11.4062 5.49219L10.7344 7.5H5C2.24219 7.5 0 9.74219 0 12.5V32.5C0 35.2578 2.24219 37.5 5 37.5H35C37.7578 37.5 40 35.2578 40 32.5V12.5C40 9.74219 37.7578 7.5 35 7.5H29.2656L28.5938 5.49219C28 3.70313 26.3281 2.5 24.4453 2.5H15.5547ZM14.9609 6.67969C15.0469 6.42188 15.2813 6.25 15.5547 6.25H24.4453C24.7109 6.25 24.9531 6.42188 25.0391 6.67969L26.1328 9.96875C26.3906 10.7344 27.1016 11.25 27.9141 11.25H35C35.6875 11.25 36.25 11.8125 36.25 12.5V32.5C36.25 33.1875 35.6875 33.75 35 33.75H5C4.3125 33.75 3.75 33.1875 3.75 32.5V12.5C3.75 11.8125 4.3125 11.25 5 11.25H12.0859C12.8906 11.25 13.6094 10.7344 13.8672 9.96875L14.9609 6.67969ZM23.3125 18.5625L22.1406 19.7344C21.9766 19.8984 21.8828 20.125 21.8828 20.3594C21.8828 20.8438 22.2812 21.2422 22.7656 21.2422H27.5C28.1875 21.2422 28.75 20.6797 28.75 19.9922V15.2578C28.75 14.7734 28.3516 14.375 27.8672 14.375C27.6328 14.375 27.4063 14.4688 27.2422 14.6328L25.9844 15.8906C24.3047 14.5156 22.1875 13.75 20 13.75C17.5 13.75 15.1094 14.7422 13.3359 16.5078L13.0469 16.7969C12.3125 17.5312 12.3125 18.7187 13.0469 19.4453C13.7812 20.1719 14.9687 20.1797 15.6953 19.4453L15.9844 19.1562C17.0547 18.0937 18.5 17.5 20 17.5C21.1953 17.5 22.3516 17.875 23.3125 18.5625ZM11.25 29.7422C11.25 30.2266 11.6484 30.625 12.1328 30.625C12.3672 30.625 12.5938 30.5313 12.7578 30.3672L14.0156 29.1094C15.6953 30.4844 17.8125 31.25 20 31.25C22.5 31.25 24.8906 30.2578 26.6641 28.4922L26.9531 28.2031C27.6875 27.4688 27.6875 26.2813 26.9531 25.5547C26.2188 24.8281 25.0313 24.8203 24.3047 25.5547L24.0156 25.8437C22.9453 26.9062 21.5 27.5 20 27.5C18.8047 27.5 17.6484 27.125 16.6875 26.4375L17.8594 25.2656C18.0234 25.1016 18.1172 24.875 18.1172 24.6406C18.1172 24.1562 17.7188 23.7578 17.2344 23.7578H12.5C11.8125 23.7578 11.25 24.3203 11.25 25.0078V29.75V29.7422Z" fill="#B3B3C3"/>
</svg>
