<svg width="40" height="40" viewBox="0 0 40 40" fill="none" xmlns="http://www.w3.org/2000/svg">
<path d="M24.9297 26.3438C23.7344 27.875 21.9375 28.75 20 28.75C18.5242 28.75 17.1344 28.2353 16.0258 27.3172L17.5312 25.8109C18.2202 25.1217 17.742 23.9523 16.777 23.9289H10.7656C10.3438 23.9375 10 24.2812 10 24.7109V30.6813C10 31.6648 11.1898 32.1578 11.8852 31.4617L13.3914 29.9547C15.2031 31.5703 17.5156 32.5 20 32.5C23.0992 32.5 25.9719 31.0984 27.8828 28.6547C28.5212 27.8391 28.3759 26.6602 27.5605 26.0227C26.7452 25.3852 25.5703 25.5313 24.9297 26.3438ZM28.1172 13.5391L26.6109 15.0461C24.7969 13.4297 22.4844 12.5 20 12.5C16.8984 12.5 14.0313 13.8984 12.1172 16.3437C11.4766 17.1641 11.625 18.3437 12.4375 18.9766C13.2516 19.615 14.4312 19.4697 15.0695 18.6543C16.2656 17.125 18.0625 16.25 20 16.25C21.4758 16.25 22.8656 16.7647 23.9742 17.6828L22.4688 19.1891C21.7798 19.8783 22.258 21.0477 23.223 21.0711H29.237C29.6563 21.0625 30 20.7188 30 20.2891V14.3203C30 13.3359 28.8125 12.8438 28.1172 13.5391Z" fill="#E84A4A"/>
<path d="M36.25 7.5H29.375L28.4078 4.93125C27.8594 3.46719 26.4687 2.5 24.9062 2.5H15.1016C13.5391 2.5 12.1328 3.46719 11.5859 4.93125L10.625 7.5H3.75C1.67969 7.5 0 9.17969 0 11.25V33.75C0 35.8203 1.67969 37.5 3.75 37.5H36.25C38.3203 37.5 40 35.8203 40 33.75V11.25C40 9.17969 38.3203 7.5 36.25 7.5ZM27.8828 28.6562C25.9687 31.1016 23.1016 32.5 20 32.5C17.5172 32.5 15.2055 31.5672 13.3922 29.9523L11.8859 31.4594C11.1875 32.1562 10 31.6641 10 30.6797V24.7109C10 24.2849 10.3405 23.9423 10.7637 23.9305H16.7777C17.7426 23.9541 18.2207 25.1234 17.532 25.8125L16.0265 27.3187C17.1328 28.2344 18.5234 28.75 20 28.75C21.9375 28.75 23.7328 27.8734 24.9281 26.3453C25.5666 25.5297 26.7445 25.3859 27.5602 26.023C28.3758 26.6602 28.5234 27.8359 27.8828 28.6562ZM30 20.2891C30 20.7151 29.6595 21.0577 29.2363 21.0695H23.2223C22.2574 21.0459 21.7793 19.8766 22.468 19.1875L23.9735 17.6813C22.8672 16.7656 21.4766 16.25 20 16.25C18.0625 16.25 16.2672 17.1266 15.0719 18.6547C14.4375 19.4687 13.2578 19.6172 12.4375 18.9766C11.625 18.3437 11.4766 17.1641 12.1172 16.3437C14.0313 13.8984 16.8984 12.5 20 12.5C22.4828 12.5 24.7945 13.4328 26.6078 15.0477L28.1141 13.5406C28.8125 12.8438 30 13.3359 30 14.3203V20.2891Z" fill="white"/>
</svg>
