<svg width="40" height="40" viewBox="0 0 40 40" fill="current" xmlns="http://www.w3.org/2000/svg">
<path d="M11.6484 5.0625L10.8359 7.5H5C2.24219 7.5 0 9.74219 0 12.5V32.5C0 35.2578 2.24219 37.5 5 37.5H35C37.7578 37.5 40 35.2578 40 32.5V12.5C40 9.74219 37.7578 7.5 35 7.5H29.1641L28.3516 5.0625C27.8437 3.53125 26.4141 2.5 24.7969 2.5H15.2031C13.5859 2.5 12.1563 3.53125 11.6484 5.0625ZM30 20C30 20.6875 29.4375 21.25 28.75 21.25H22.7578C22.2734 21.25 21.875 20.8516 21.875 20.3672C21.875 20.1328 21.9687 19.9062 22.1328 19.7422L23.9844 17.8906C22.9219 16.8438 21.4922 16.25 20 16.25C18.5 16.25 17.0547 16.8438 15.9922 17.9141L14.4531 19.4531C13.7188 20.1875 12.5313 20.1875 11.8047 19.4531C11.0781 18.7188 11.0703 17.5313 11.8047 16.8047L13.3438 15.2656C15.1094 13.4922 17.5 12.5 20 12.5C22.4844 12.5 24.875 13.4844 26.6406 15.2344L28.4922 13.3828C28.6563 13.2188 28.8828 13.125 29.1172 13.125C29.6016 13.125 30 13.5234 30 14.0078V20ZM10 25C10 24.3125 10.5625 23.75 11.25 23.75H17.2422C17.7266 23.75 18.125 24.1484 18.125 24.6328C18.125 24.8672 18.0312 25.0937 17.8672 25.2578L16.0156 27.1094C17.0781 28.1562 18.5078 28.75 20 28.75C21.5 28.75 22.9453 28.1563 24.0078 27.0859L25.5469 25.5469C26.2812 24.8125 27.4687 24.8125 28.1953 25.5469C28.9219 26.2812 28.9297 27.4687 28.1953 28.1953L26.6563 29.7344C24.8906 31.5078 22.5 32.5 20 32.5C17.5156 32.5 15.125 31.5156 13.3594 29.7656L11.5078 31.6172C11.3438 31.7813 11.1172 31.875 10.8828 31.875C10.3984 31.875 10 31.4766 10 30.9922V25Z" fill="current"/>
</svg>
