<svg width="48" height="39" viewBox="0 0 48 39" fill="none" xmlns="http://www.w3.org/2000/svg">
<g clip-path="url(#clip0_26112_25307)">
<path d="M0 14.4V21.6C0 22.4025 0 23.1975 0 24C0 25.3275 1.0725 26.4 2.4 26.4H3.6C4.9275 26.4 6 25.3275 6 24V21.6H16.2375C16.62 21.1725 17.0475 20.7975 17.52 20.4675L19.23 15.345C20.37 11.9175 23.58 9.6 27.2025 9.6H28.335L26.4975 4.1025C25.68 1.65 23.385 0 20.805 0H10.395C7.815 0 5.52 1.65 4.7025 4.1025L2.7075 10.08C1.11 10.8525 0 12.495 0 14.4ZM7.8 15.6C7.8 16.0774 7.61036 16.5352 7.27279 16.8728C6.93523 17.2104 6.47739 17.4 6 17.4C5.52261 17.4 5.06477 17.2104 4.72721 16.8728C4.38964 16.5352 4.2 16.0774 4.2 15.6C4.2 15.1226 4.38964 14.6648 4.72721 14.3272C5.06477 13.9896 5.52261 13.8 6 13.8C6.47739 13.8 6.93523 13.9896 7.27279 14.3272C7.61036 14.6648 7.8 15.1226 7.8 15.6ZM7.9275 9.6L9.255 5.6175C9.42 5.13 9.8775 4.8 10.395 4.8H20.805C21.3225 4.8 21.78 5.13 21.945 5.6175L23.2725 9.6H7.935H7.9275Z" fill="#FF4545"/>
<path d="M26.055 17.6175L24.7276 21.6H40.0651L38.7375 17.6175C38.5725 17.13 38.115 16.8 37.5975 16.8H27.1875C26.67 16.8 26.2125 17.13 26.0475 17.6175H26.055ZM19.5075 22.0725L21.5026 16.095C22.32 13.65 24.615 12 27.195 12H37.605C40.185 12 42.48 13.65 43.2975 16.1025L45.2926 22.08C46.8901 22.8525 48 24.495 48 26.4V33.6V36C48 37.3275 46.9275 38.4 45.6 38.4H44.4C43.0725 38.4 42 37.3275 42 36V33.6H22.8V36C22.8 37.3275 21.7275 38.4 20.4 38.4H19.2C17.8725 38.4 16.8 37.3275 16.8 36V33.6V26.4C16.8 24.495 17.91 22.8525 19.5075 22.08V22.0725ZM24.6 27.6C24.6 27.1226 24.4104 26.6648 24.0728 26.3272C23.7353 25.9896 23.2774 25.8 22.8 25.8C22.3227 25.8 21.8648 25.9896 21.5273 26.3272C21.1897 26.6648 21 27.1226 21 27.6C21 28.0774 21.1897 28.5352 21.5273 28.8728C21.8648 29.2104 22.3227 29.4 22.8 29.4C23.2774 29.4 23.7353 29.2104 24.0728 28.8728C24.4104 28.5352 24.6 28.0774 24.6 27.6ZM42 29.4C42.4774 29.4 42.9353 29.2104 43.2728 28.8728C43.6104 28.5352 43.8001 28.0774 43.8001 27.6C43.8001 27.1226 43.6104 26.6648 43.2728 26.3272C42.9353 25.9896 42.4774 25.8 42 25.8C41.5227 25.8 41.0648 25.9896 40.7273 26.3272C40.3897 26.6648 40.2001 27.1226 40.2001 27.6C40.2001 28.0774 40.3897 28.5352 40.7273 28.8728C41.0648 29.2104 41.5227 29.4 42 29.4Z" fill="#2E2640"/>
</g>
<defs>
<clipPath id="clip0_26112_25307">
<rect width="48" height="38.4" fill="white"/>
</clipPath>
</defs>
</svg>
