<svg width="48" height="39" viewBox="0 0 48 39" fill="none" xmlns="http://www.w3.org/2000/svg">
<g clip-path="url(#clip0_26112_25311)">
<path d="M10.335 3.6H20.8575C21.615 3.6 22.2975 4.08 22.5525 4.7925L23.8425 8.4H7.3575L8.6475 4.7925C8.9025 4.0725 9.585 3.6 10.3425 3.6H10.335ZM3.105 9.5925C3.09 9.63 3.0825 9.66 3.0675 9.6975C1.215 11.0025 0 13.1625 0 15.6V18V19.2V21.6V24.6C0 25.5975 0.8025 26.4 1.8 26.4C2.7975 26.4 3.6 25.5975 3.6 24.6V21.6H16.5075C16.905 21.105 17.355 20.6475 17.8425 20.235L18.6375 18H3.6V15.6C3.6 13.6125 5.2125 12 7.2 12H21.51C22.95 10.5 24.9675 9.6 27.1425 9.6H28.1025C28.1025 9.6 28.1025 9.6 28.1025 9.5925L25.95 3.585C25.1775 1.4325 23.145 0 20.865 0H10.335C8.055 0 6.0225 1.4325 5.25 3.585L3.105 9.5925ZM8.4 16.8C8.63638 16.8 8.87044 16.7534 9.08883 16.663C9.30722 16.5725 9.50565 16.4399 9.67279 16.2728C9.83994 16.1056 9.97253 15.9072 10.063 15.6888C10.1534 15.4704 10.2 15.2364 10.2 15C10.2 14.7636 10.1534 14.5296 10.063 14.3112C9.97253 14.0928 9.83994 13.8944 9.67279 13.7272C9.50565 13.5601 9.30722 13.4275 9.08883 13.337C8.87044 13.2466 8.63638 13.2 8.4 13.2C8.16362 13.2 7.92956 13.2466 7.71117 13.337C7.49278 13.4275 7.29435 13.5601 7.12721 13.7272C6.96006 13.8944 6.82748 14.0928 6.73702 14.3112C6.64656 14.5296 6.6 14.7636 6.6 15C6.6 15.2364 6.64656 15.4704 6.73702 15.6888C6.82748 15.9072 6.96006 16.1056 7.12721 16.2728C7.29435 16.4399 7.49278 16.5725 7.71117 16.663C7.92956 16.7534 8.16362 16.8 8.4 16.8ZM27.135 15.6H37.6575C38.415 15.6 39.0975 16.08 39.3525 16.7925L40.6425 20.4H24.15L25.44 16.7925C25.695 16.0725 26.3775 15.6 27.135 15.6ZM19.905 21.5925C19.89 21.63 19.8825 21.66 19.8675 21.6975C18.015 23.0025 16.8 25.1625 16.8 27.6V30V31.2V33.6V36.6C16.8 37.5975 17.6025 38.4 18.6 38.4C19.5975 38.4 20.4 37.5975 20.4 36.6V33.6H44.4V36.6C44.4 37.5975 45.2025 38.4 46.2 38.4C47.1975 38.4 48 37.5975 48 36.6V33.6V31.2V30V27.6C48 25.1625 46.785 23.0025 44.9325 21.6975C44.925 21.66 44.91 21.63 44.895 21.5925L42.75 15.585C41.985 13.4325 39.945 12 37.665 12H27.1425C24.8625 12 22.8225 13.4325 22.0575 15.585L19.9125 21.5925H19.905ZM40.8 24C42.7875 24 44.4 25.6125 44.4 27.6V30H20.4V27.6C20.4 25.6125 22.0125 24 24 24H40.8ZM25.2 28.8C25.6774 28.8 26.1352 28.6104 26.4728 28.2728C26.8104 27.9352 27 27.4774 27 27C27 26.5226 26.8104 26.0648 26.4728 25.7272C26.1352 25.3896 25.6774 25.2 25.2 25.2C24.7226 25.2 24.2648 25.3896 23.9272 25.7272C23.5896 26.0648 23.4 26.5226 23.4 27C23.4 27.4774 23.5896 27.9352 23.9272 28.2728C24.2648 28.6104 24.7226 28.8 25.2 28.8ZM41.4 27C41.4 26.5226 41.2104 26.0648 40.8728 25.7272C40.5352 25.3896 40.0774 25.2 39.6 25.2C39.1226 25.2 38.6648 25.3896 38.3272 25.7272C37.9896 26.0648 37.8 26.5226 37.8 27C37.8 27.4774 37.9896 27.9352 38.3272 28.2728C38.6648 28.6104 39.1226 28.8 39.6 28.8C40.0774 28.8 40.5352 28.6104 40.8728 28.2728C41.2104 27.9352 41.4 27.4774 41.4 27Z" fill="#B3B3C3"/>
</g>
<defs>
<clipPath id="clip0_26112_25311">
<rect width="48" height="38.4" fill="white"/>
</clipPath>
</defs>
</svg>
