<svg width="48" height="39" viewBox="0 0 48 39" fill="current" xmlns="http://www.w3.org/2000/svg">
<g clip-path="url(#clip0_26112_25322)">
<path d="M9.255 5.6175C9.42 5.13 9.8775 4.8 10.395 4.8H20.805C21.3225 4.8 21.78 5.13 21.945 5.6175L23.2725 9.6H7.935L9.2625 5.6175H9.255ZM2.7075 10.08C1.11 10.8525 0 12.495 0 14.4V21.6V24C0 25.3275 1.0725 26.4 2.4 26.4H3.6C4.9275 26.4 6 25.3275 6 24V21.6H16.2375C16.62 21.1725 17.0475 20.7975 17.52 20.4675L19.23 15.345C20.37 11.9175 23.58 9.6 27.2025 9.6H28.335L26.4975 4.1025C25.68 1.65 23.385 0 20.805 0H10.395C7.815 0 5.52 1.65 4.7025 4.1025L2.7075 10.08ZM4.2 15.6C4.2 15.1226 4.38964 14.6648 4.72721 14.3272C5.06477 13.9896 5.52261 13.8 6 13.8C6.47739 13.8 6.93523 13.9896 7.27279 14.3272C7.61036 14.6648 7.8 15.1226 7.8 15.6C7.8 16.0774 7.61036 16.5352 7.27279 16.8728C6.93523 17.2104 6.47739 17.4 6 17.4C5.52261 17.4 5.06477 17.2104 4.72721 16.8728C4.38964 16.5352 4.2 16.0774 4.2 15.6ZM27.195 16.8H37.605C38.1225 16.8 38.58 17.13 38.745 17.6175L40.0725 21.6H24.735L26.0625 17.6175C26.2275 17.13 26.685 16.8 27.2025 16.8H27.195ZM21.5025 16.1025L19.5075 22.08C17.91 22.8525 16.8 24.495 16.8 26.4V33.6V36C16.8 37.3275 17.8725 38.4 19.2 38.4H20.4C21.7275 38.4 22.8 37.3275 22.8 36V33.6H42V36C42 37.3275 43.0725 38.4 44.4 38.4H45.6C46.9275 38.4 48 37.3275 48 36V33.6V26.4C48 24.495 46.89 22.8525 45.2925 22.08L43.2975 16.1025C42.48 13.65 40.185 12 37.605 12H27.195C24.615 12 22.32 13.65 21.5025 16.1025ZM22.8 25.8C23.2774 25.8 23.7352 25.9896 24.0728 26.3272C24.4104 26.6648 24.6 27.1226 24.6 27.6C24.6 28.0774 24.4104 28.5352 24.0728 28.8728C23.7352 29.2104 23.2774 29.4 22.8 29.4C22.3226 29.4 21.8648 29.2104 21.5272 28.8728C21.1896 28.5352 21 28.0774 21 27.6C21 27.1226 21.1896 26.6648 21.5272 26.3272C21.8648 25.9896 22.3226 25.8 22.8 25.8ZM40.2 27.6C40.2 27.1226 40.3896 26.6648 40.7272 26.3272C41.0648 25.9896 41.5226 25.8 42 25.8C42.4774 25.8 42.9352 25.9896 43.2728 26.3272C43.6104 26.6648 43.8 27.1226 43.8 27.6C43.8 28.0774 43.6104 28.5352 43.2728 28.8728C42.9352 29.2104 42.4774 29.4 42 29.4C41.5226 29.4 41.0648 29.2104 40.7272 28.8728C40.3896 28.5352 40.2 28.0774 40.2 27.6Z" fill="current"/>
</g>
<defs>
<clipPath id="clip0_26112_25322">
<rect width="48" height="38.4" fill="current"/>
</clipPath>
</defs>
</svg>
