<svg width="48" height="43" viewBox="0 0 48 43" fill="current" xmlns="http://www.w3.org/2000/svg">
<path d="M8 2.6875C5.05833 2.6875 2.66667 5.09785 2.66667 8.0625V32.25H8V8.0625H40V32.25H45.3333V8.0625C45.3333 5.09785 42.9417 2.6875 40 2.6875H8ZM18.6667 32.25V34.9375H2.66667C1.19167 34.9375 0 36.1385 0 37.625C0 39.1115 1.19167 40.3125 2.66667 40.3125H45.3333C46.8083 40.3125 48 39.1115 48 37.625C48 36.1385 46.8083 34.9375 45.3333 34.9375H34.6667V32.25C34.6667 30.7635 33.475 29.5625 32 29.5625H21.3333C19.8583 29.5625 18.6667 30.7635 18.6667 32.25Z" fill="current"/>
</svg>
