<svg width="40" height="40" viewBox="0 0 40 40" fill="none" xmlns="http://www.w3.org/2000/svg">
<path d="M10 24C13.3138 24 16 21.3138 16 18C16 14.6862 13.3138 12 10 12C6.63125 12 4 14.6312 4 18C4 21.3125 6.63125 24 10 24ZM12 26H8C3.58187 26 0 29.5819 0 34C0 35.1044 0.895625 36 2 36H18C19.1044 36 20 35.1044 20 34C20 29.5812 16.4188 26 12 26ZM14 8V11.1131C16.3813 12.5 18 15.05 18 18C18 20.6131 16.7412 22.8812 14.7975 24.4C15.9562 24.7375 17.0125 25.2938 17.9562 26H23.9994V23C23.9994 22.4476 24.4471 22 24.9994 22H30.9994C31.5516 22 31.9994 22.4476 31.9994 23V26H35.9994V8H14Z" fill="white"/>
<path d="M37 4H13C11.3438 4 10 5.39063 10 7.10188V10C11.4638 10 12.8188 10.4238 13.9438 11.1131V8H35.9437V26H17.9562C19.3356 27.03 20.4275 28.4062 21.1287 30H36.9975C38.6563 30 40 28.6125 40 26.9V7.10188C40 5.39063 38.6562 4 37 4Z" fill="#E84A4A"/>
</svg>
