<svg width="48" height="43" viewBox="0 0 48 43" fill="none" xmlns="http://www.w3.org/2000/svg">
<path d="M6.66667 7.39062C6.66667 7.02109 6.96667 6.71875 7.33333 6.71875H40.6667C41.0333 6.71875 41.3333 7.02109 41.3333 7.39062V33.5938H45.3333V7.39062C45.3333 4.79551 43.2417 2.6875 40.6667 2.6875H7.33333C4.75833 2.6875 2.66667 4.79551 2.66667 7.39062V33.5938H6.66667V7.39062ZM18.6667 34.2656V36.2812H2C0.891667 36.2812 0 37.1799 0 38.2969C0 39.4139 0.891667 40.3125 2 40.3125H18.6667H20.6667H32.6667H34.6667H46C47.1083 40.3125 48 39.4139 48 38.2969C48 37.1799 47.1083 36.2812 46 36.2812H34.6667V34.2656C34.6667 31.6705 32.575 29.5625 30 29.5625H23.3333C20.7583 29.5625 18.6667 31.6705 18.6667 34.2656ZM30.6667 34.2656V36.2812H22.6667V34.2656C22.6667 33.8961 22.9667 33.5938 23.3333 33.5938H30C30.3667 33.5938 30.6667 33.8961 30.6667 34.2656Z" fill="#B3B3C3"/>
</svg>
