<svg width="40" height="40" viewBox="0 0 40 40" fill="none" xmlns="http://www.w3.org/2000/svg">
<path d="M36 7H14C13.45 7 13 7.45 13 8V10.5813C12.075 10.2063 11.0625 10 10 10V8C10 5.79375 11.7938 4 14 4H36C38.2062 4 40 5.79375 40 8V26C40 28.2062 38.2062 30 36 30H34H32.5H24.5H23H21.05C20.5312 28.875 19.8125 27.8625 18.9438 27H23V24.5C23 22.5688 24.5688 21 26.5 21H30.5C32.4312 21 34 22.5688 34 24.5V27H36C36.55 27 37 26.55 37 26V8C37 7.45 36.55 7 36 7ZM31 27V24.5C31 24.225 30.775 24 30.5 24H26.5C26.225 24 26 24.225 26 24.5V27H31ZM13 18C13 17.2044 12.6839 16.4413 12.1213 15.8787C11.5587 15.3161 10.7956 15 10 15C9.20435 15 8.44129 15.3161 7.87868 15.8787C7.31607 16.4413 7 17.2044 7 18C7 18.7956 7.31607 19.5587 7.87868 20.1213C8.44129 20.6839 9.20435 21 10 21C10.7956 21 11.5587 20.6839 12.1213 20.1213C12.6839 19.5587 13 18.7956 13 18ZM4 18C4 16.4087 4.63214 14.8826 5.75736 13.7574C6.88258 12.6321 8.4087 12 10 12C11.5913 12 13.1174 12.6321 14.2426 13.7574C15.3679 14.8826 16 16.4087 16 18C16 19.5913 15.3679 21.1174 14.2426 22.2426C13.1174 23.3679 11.5913 24 10 24C8.4087 24 6.88258 23.3679 5.75736 22.2426C4.63214 21.1174 4 19.5913 4 18ZM3.16875 33H16.8312C16.2375 30.7 14.15 29 11.6687 29H8.33125C5.84375 29 3.75625 30.7 3.16875 33ZM0 34.3312C0 29.7312 3.73125 26 8.33125 26H11.6625C16.2688 26 20 29.7312 20 34.3312C20 35.25 19.2562 36 18.3312 36H1.66875C0.74375 36 0 35.2562 0 34.3312Z" fill="#B3B3C3"/>
</svg>
