<svg width="24" height="24" viewBox="0 0 24 24" fill="none" xmlns="http://www.w3.org/2000/svg">
<g clip-path="url(#clip0_9476_593)">
<path d="M23.6719 2.06253C24.1875 2.7094 24.0844 3.65159 23.4375 4.1719L15.9375 10.1719C15.4032 10.5985 14.6485 10.6125 14.1 10.2L9.02817 6.39846L2.43754 11.6719C1.79067 12.1875 0.848482 12.0844 0.328169 11.4375C-0.192143 10.7907 -0.0843309 9.84846 0.562544 9.32815L8.06254 3.32815C8.59692 2.90159 9.35161 2.88753 9.90004 3.30003L14.9719 7.10159L21.5625 1.82815C22.2094 1.31253 23.1516 1.41565 23.6719 2.06253Z" fill="#FF4545"/>
<path d="M9 10.5C8.17031 10.5 7.5 11.1703 7.5 12V21C7.5 21.8297 8.17031 22.5 9 22.5C9.82969 22.5 10.5 21.8297 10.5 21V12C10.5 11.1703 9.82969 10.5 9 10.5ZM3 15C2.17031 15 1.5 15.6703 1.5 16.5V21C1.5 21.8297 2.17031 22.5 3 22.5C3.82969 22.5 4.5 21.8297 4.5 21V16.5C4.5 15.6703 3.82969 15 3 15ZM13.5 15V21C13.5 21.8297 14.1703 22.5 15 22.5C15.8297 22.5 16.5 21.8297 16.5 21V15C16.5 14.1703 15.8297 13.5 15 13.5C14.1703 13.5 13.5 14.1703 13.5 15ZM21 10.5C20.1703 10.5 19.5 11.1703 19.5 12V21C19.5 21.8297 20.1703 22.5 21 22.5C21.8297 22.5 22.5 21.8297 22.5 21V12C22.5 11.1703 21.8297 10.5 21 10.5Z" fill="#2E2640"/>
</g>
<defs>
<clipPath id="clip0_9476_593">
<rect width="24" height="24" fill="white"/>
</clipPath>
</defs>
</svg>
