<svg width="24" height="24" viewBox="0 0 24 24" fill="none" xmlns="http://www.w3.org/2000/svg">
<path d="M23.6062 3.47811C24.0797 3.07499 24.1312 2.36249 23.7281 1.89374C23.325 1.42499 22.6125 1.36874 22.1437 1.77186L15.0094 7.88905L9.74061 3.27655C9.35624 2.94374 8.79842 2.90624 8.37655 3.18749L0.501549 8.43749C-0.014076 8.78436 -0.154701 9.4828 0.187487 9.99842C0.529674 10.514 1.2328 10.6547 1.74842 10.3125L8.90624 5.54061L14.2594 10.2234C14.6812 10.5937 15.3094 10.5937 15.7312 10.2328L23.6062 3.4828V3.47811ZM9.37499 20.25C9.37499 20.4562 9.20624 20.625 8.99999 20.625C8.79374 20.625 8.62499 20.4562 8.62499 20.25V12.75C8.62499 12.5437 8.79374 12.375 8.99999 12.375C9.20624 12.375 9.37499 12.5437 9.37499 12.75V20.25ZM8.99999 10.5C7.7578 10.5 6.74999 11.5078 6.74999 12.75V20.25C6.74999 21.4922 7.7578 22.5 8.99999 22.5C10.2422 22.5 11.25 21.4922 11.25 20.25V12.75C11.25 11.5078 10.2422 10.5 8.99999 10.5ZM3.37499 20.25C3.37499 20.4562 3.20624 20.625 2.99999 20.625C2.79374 20.625 2.62499 20.4562 2.62499 20.25V17.25C2.62499 17.0437 2.79374 16.875 2.99999 16.875C3.20624 16.875 3.37499 17.0437 3.37499 17.25V20.25ZM2.99999 15C1.7578 15 0.749987 16.0078 0.749987 17.25V20.25C0.749987 21.4922 1.7578 22.5 2.99999 22.5C4.24217 22.5 5.24999 21.4922 5.24999 20.25V17.25C5.24999 16.0078 4.24217 15 2.99999 15ZM15.375 15.75V20.25C15.375 20.4562 15.2062 20.625 15 20.625C14.7937 20.625 14.625 20.4562 14.625 20.25V15.75C14.625 15.5437 14.7937 15.375 15 15.375C15.2062 15.375 15.375 15.5437 15.375 15.75ZM12.75 15.75V20.25C12.75 21.4922 13.7578 22.5 15 22.5C16.2422 22.5 17.25 21.4922 17.25 20.25V15.75C17.25 14.5078 16.2422 13.5 15 13.5C13.7578 13.5 12.75 14.5078 12.75 15.75ZM21.375 20.25C21.375 20.4562 21.2062 20.625 21 20.625C20.7937 20.625 20.625 20.4562 20.625 20.25V12.75C20.625 12.5437 20.7937 12.375 21 12.375C21.2062 12.375 21.375 12.5437 21.375 12.75V20.25ZM21 10.5C19.7578 10.5 18.75 11.5078 18.75 12.75V20.25C18.75 21.4922 19.7578 22.5 21 22.5C22.2422 22.5 23.25 21.4922 23.25 20.25V12.75C23.25 11.5078 22.2422 10.5 21 10.5Z" fill="#B3B3C3"/>
</svg>
