<svg width="24" height="24" viewBox="0 0 24 24" fill="current" xmlns="http://www.w3.org/2000/svg">
<path d="M23.4375 4.1719C24.0844 3.65628 24.1875 2.7094 23.6719 2.06253C23.1563 1.41565 22.2094 1.31253 21.5625 1.82815L14.9719 7.10159L9.90003 3.30003C9.35159 2.88753 8.5969 2.90159 8.06253 3.32815L0.562527 9.32815C-0.0843484 9.84378 -0.187473 10.7907 0.328152 11.4375C0.843777 12.0844 1.79065 12.1875 2.43753 11.6719L9.02815 6.39846L14.1 10.2C14.6485 10.6125 15.4032 10.5985 15.9375 10.1719L23.4375 4.1719ZM7.50003 12V21C7.50003 21.8297 8.17034 22.5 9.00003 22.5C9.82971 22.5 10.5 21.8297 10.5 21V12C10.5 11.1703 9.82971 10.5 9.00003 10.5C8.17034 10.5 7.50003 11.1703 7.50003 12ZM1.50003 16.5V21C1.50003 21.8297 2.17034 22.5 3.00003 22.5C3.82971 22.5 4.50003 21.8297 4.50003 21V16.5C4.50003 15.6703 3.82971 15 3.00003 15C2.17034 15 1.50003 15.6703 1.50003 16.5ZM15 13.5C14.1703 13.5 13.5 14.1703 13.5 15V21C13.5 21.8297 14.1703 22.5 15 22.5C15.8297 22.5 16.5 21.8297 16.5 21V15C16.5 14.1703 15.8297 13.5 15 13.5ZM19.5 12V21C19.5 21.8297 20.1703 22.5 21 22.5C21.8297 22.5 22.5 21.8297 22.5 21V12C22.5 11.1703 21.8297 10.5 21 10.5C20.1703 10.5 19.5 11.1703 19.5 12Z" fill="current"/>
</svg>
