<svg width="20" height="20" viewBox="0 0 20 20" fill="none" xmlns="http://www.w3.org/2000/svg">
<path fill-rule="evenodd" clip-rule="evenodd" d="M4 0C1.79086 0 0 1.79086 0 4V16C0 18.2091 1.79086 20 4 20H16C18.2091 20 20 18.2091 20 16V4C20 1.79086 18.2091 0 16 0H4ZM17.7071 5.70711C18.0976 5.31658 18.0976 4.68342 17.7071 4.29289C17.3166 3.90237 16.6834 3.90237 16.2929 4.29289L7.5 13.0858L3.70711 9.29289C3.31658 8.90237 2.68342 8.90237 2.29289 9.29289C1.90237 9.68342 1.90237 10.3166 2.29289 10.7071L6.79289 15.2071C7.18342 15.5976 7.81658 15.5976 8.20711 15.2071L17.7071 5.70711Z" fill="#251E33"/>
</svg>
