<svg width="41" height="40" viewBox="0 0 41 40" fill="none" xmlns="http://www.w3.org/2000/svg">
<g clip-path="url(#clip0_1724_35975)">
<path d="M37.1488 22.8543C36.4179 22.8543 35.6866 22.5753 35.1296 22.0174L20.0097 6.90248L4.89079 22.0152C3.77497 23.131 1.96734 23.131 0.851515 22.0152C-0.264307 20.8994 -0.264307 19.0917 0.851515 17.9759L17.9905 0.836867C19.1064 -0.278956 20.914 -0.278956 22.0298 0.836867L39.1689 17.9759C40.2847 19.0917 40.2847 20.8994 39.1689 22.0152C38.6127 22.5775 37.8807 22.8543 37.1488 22.8543Z" fill="white"/>
<path d="M37.1485 39.9933C36.4176 39.9933 35.6863 39.7143 35.1293 39.1564L20.0095 24.0415L4.88786 39.1631C3.77204 40.2789 1.96441 40.2789 0.848585 39.1631C-0.267237 38.0473 -0.267237 36.2397 0.848585 35.1238L17.9876 17.9848C19.1034 16.869 20.9111 16.869 22.0269 17.9848L39.1659 35.1238C40.2817 36.2397 40.2817 38.0473 39.1659 39.1631C38.6125 39.7166 37.8805 39.9933 37.1485 39.9933Z" fill="#E84A4A"/>
</g>
<defs>
<clipPath id="clip0_1724_35975">
<rect width="40" height="40" fill="white" transform="translate(0.00878906)"/>
</clipPath>
</defs>
</svg>
