<svg width="41" height="40" viewBox="0 0 41 40" fill="current" xmlns="http://www.w3.org/2000/svg">
<g clip-path="url(#clip0_1724_35973)">
<path d="M22.0265 0.83696C20.9105 -0.278987 19.0982 -0.278987 17.9823 0.83696L0.841355 17.9779C-0.274592 19.0939 -0.274592 20.9061 0.841355 22.0221C1.9573 23.138 3.7696 23.138 4.88555 22.0221L20.0089 6.89878L35.1322 22.0132C36.2481 23.1291 38.0604 23.1291 39.1764 22.0132C40.2923 20.8972 40.2923 19.0849 39.1764 17.969L22.0354 0.828032L22.0265 0.83696ZM39.1674 35.1188L22.0265 17.9779C20.9105 16.862 19.0982 16.862 17.9823 17.9779L0.841355 35.1188C-0.274592 36.2348 -0.274592 38.0471 0.841355 39.163C1.9573 40.279 3.7696 40.279 4.88555 39.163L20.0089 24.0397L35.1322 39.1541C36.2481 40.2701 38.0604 40.2701 39.1764 39.1541C40.2923 38.0382 40.2923 36.2259 39.1764 35.1099L39.1674 35.1188Z" fill="current"/>
</g>
<defs>
<clipPath id="clip0_1724_35973">
<rect width="40" height="40" fill="current" transform="translate(0.00878906)"/>
</clipPath>
</defs>
</svg>
