<svg width="41" height="40" viewBox="0 0 41 40" fill="none" xmlns="http://www.w3.org/2000/svg">
<g clip-path="url(#clip0_2930_46751)">
<path d="M21.6201 0.652627C20.7499 -0.217542 19.3428 -0.217542 18.4819 0.652627L0.699013 18.4263C-0.171156 19.2965 -0.171156 20.7035 0.699013 21.5645C1.56918 22.4254 2.97626 22.4346 3.83718 21.5645L20.0371 5.3645L36.2463 21.5737C37.1165 22.4439 38.5236 22.4439 39.3845 21.5737C40.2454 20.7035 40.2547 19.2965 39.3845 18.4355L21.6201 0.652627ZM39.3938 36.2L21.6201 18.4263C20.7499 17.5561 19.3428 17.5561 18.4819 18.4263L0.699013 36.2C-0.171156 37.0701 -0.171156 38.4772 0.699013 39.3381C1.56918 40.199 2.97626 40.2083 3.83718 39.3381L20.0371 23.1382L36.2463 39.3474C37.1165 40.2175 38.5236 40.2175 39.3845 39.3474C40.2454 38.4772 40.2547 37.0701 39.3845 36.2092L39.3938 36.2Z" fill="#B3B3C3"/>
</g>
<defs>
<clipPath id="clip0_2930_46751">
<rect width="40" height="40" fill="white" transform="translate(0.0400391)"/>
</clipPath>
</defs>
</svg>
