<svg width="41" height="40" viewBox="0 0 41 40" fill="none" xmlns="http://www.w3.org/2000/svg">
<g clip-path="url(#clip0_1724_35980)">
<path d="M37.1517 22.8543C36.4206 22.8543 35.6893 22.5753 35.1322 22.0174L20.0099 6.90248L4.88863 22.0152C3.77263 23.131 1.96471 23.131 0.848717 22.0152C-0.267281 20.8994 -0.267281 19.0917 0.848717 17.9759L17.9904 0.836867C19.1064 -0.278956 20.9143 -0.278956 22.0303 0.836867L39.1721 17.9759C40.2881 19.0917 40.2881 20.8994 39.1721 22.0152C38.6158 22.5775 37.8838 22.8543 37.1517 22.8543Z" fill="#2D253F"/>
<path d="M37.1514 39.9933C36.4204 39.9933 35.689 39.7143 35.1319 39.1564L20.0097 24.0415L4.8857 39.1631C3.7697 40.2789 1.96178 40.2789 0.845787 39.1631C-0.27021 38.0473 -0.27021 36.2397 0.845787 35.1238L17.9875 17.9848C19.1035 16.869 20.9114 16.869 22.0274 17.9848L39.1691 35.1238C40.2851 36.2397 40.2851 38.0473 39.1691 39.1631C38.6156 39.7166 37.8835 39.9933 37.1514 39.9933Z" fill="#E84A4A"/>
</g>
<defs>
<clipPath id="clip0_1724_35980">
<rect width="40" height="40" fill="white" transform="translate(0.00878906)"/>
</clipPath>
</defs>
</svg>
