<svg width="40" height="40" viewBox="0 0 40 40" fill="none" xmlns="http://www.w3.org/2000/svg">
<g clip-path="url(#clip0_957_14313)">
<path d="M20 26.25C18.5938 26.25 17.5 27.3438 17.5 28.75C17.5 30.1562 18.5234 31.25 20 31.25C21.3359 31.25 22.5 30.2266 22.5 28.75C22.5 27.3438 21.3359 26.25 20 26.25ZM22.5859 10H18.5938C15.4766 10 13.125 12.3516 13.125 15.4688C13.125 16.4141 13.9844 17.3438 15 17.3438C16.0156 17.3438 16.875 16.4844 16.875 15.4688C16.875 14.5312 17.5859 13.75 18.5234 13.75H22.5156C23.5234 13.75 24.375 14.5312 24.375 15.4688C24.375 16.0938 24.0625 16.5703 23.5156 16.8828L19.0625 19.6094C18.4375 20 18.125 20.625 18.125 21.25V22.5C18.125 23.5156 18.9844 24.375 20 24.375C21.0156 24.375 21.875 23.5156 21.875 22.5V22.3438L25.3984 20.1562C27.0391 19.1406 28.0547 17.3438 28.0547 15.4688C28.125 12.3516 25.6328 10 22.5859 10Z" fill="#E84A4A"/>
<path d="M20 0C8.95312 0 0 8.95312 0 20C0 31.0469 8.95312 40 20 40C31.0469 40 40 31.0469 40 20C40 8.95312 31.0469 0 20 0ZM20 31.25C18.5938 31.25 17.5 30.1562 17.5 28.75C17.5 27.3438 18.5234 26.25 20 26.25C21.3359 26.25 22.5 27.3438 22.5 28.75C22.5 30.1562 21.3359 31.25 20 31.25ZM25.3984 20.1562L21.875 22.3438V22.5C21.875 23.5156 21.0156 24.375 20 24.375C18.9844 24.375 18.125 23.5156 18.125 22.5V21.25C18.125 20.625 18.4375 20 19.0625 19.6094L23.5156 16.9531C24.0625 16.6406 24.375 16.0938 24.375 15.4688C24.375 14.5312 23.5234 13.75 22.5859 13.75H18.5938C17.5859 13.75 16.875 14.5312 16.875 15.4688C16.875 16.4844 16.0156 17.3438 15 17.3438C13.9844 17.3438 13.125 16.4844 13.125 15.4688C13.125 12.4219 15.5469 10 18.5234 10H22.5156C25.7031 10 28.125 12.4219 28.125 15.4688C28.125 17.3438 27.1094 19.1406 25.3984 20.1562Z" fill="white"/>
</g>
<defs>
<clipPath id="clip0_957_14313">
<rect width="40" height="40" fill="white"/>
</clipPath>
</defs>
</svg>
