<svg width="81" height="80" viewBox="0 0 81 80" fill="none" xmlns="http://www.w3.org/2000/svg">
<g clip-path="url(#clip0_3650_82966)">
<path d="M80.5 40C80.5 62.0938 62.5938 80 40.5 80C18.4062 80 0.5 62.0938 0.5 40C0.5 17.9062 18.4062 0 40.5 0C62.5938 0 80.5 17.9062 80.5 40ZM40.5 7.5C22.5469 7.5 8 22.0469 8 40C8 57.9531 22.5469 72.5 40.5 72.5C58.4531 72.5 73 57.9531 73 40C73 22.0469 58.4531 7.5 40.5 7.5Z" fill="#2D253F"/>
<path d="M37.9648 53.4648C36.2617 55.168 33.4805 55.168 31.7773 53.4648L21.7773 43.4648C20.0742 41.7617 20.0742 38.9805 21.7773 37.2773C23.4805 35.5742 26.2617 35.5742 27.9648 37.2773L34.8711 44.1836L51.7773 27.2773C53.4805 25.5742 56.2617 25.5742 57.9648 27.2773C59.668 28.9805 59.668 31.7617 57.9648 33.4648L37.9648 53.4648Z" fill="#117F5A"/>
</g>
<defs>
<clipPath id="clip0_3650_82966">
<rect width="80" height="80" fill="white" transform="translate(0.5)"/>
</clipPath>
</defs>
</svg>
