<svg width="40" height="40" viewBox="0 0 40 40" fill="current" xmlns="http://www.w3.org/2000/svg">
<g clip-path="url(#clip0_1141_14849)">
<path d="M40 20C40 31.0469 31.0469 40 20 40C8.95312 40 0 31.0469 0 20C0 8.95312 8.95312 0 20 0C31.0469 0 40 8.95312 40 20ZM20.9375 10.25C20.3594 9.91406 19.6484 9.91406 19.0625 10.2422L14.6875 12.7422C13.7891 13.2578 13.4766 14.3984 13.9922 15.2969C14.5078 16.1953 15.6484 16.5078 16.5469 15.9922L18.125 15.1094V26.25H15C13.9609 26.25 13.125 27.0859 13.125 28.125C13.125 29.1641 13.9609 30 15 30H20H25C26.0391 30 26.875 29.1641 26.875 28.125C26.875 27.0859 26.0391 26.25 25 26.25H21.875V11.875C21.875 11.2031 21.5156 10.5859 20.9375 10.25Z" fill="current"/>
</g>
<defs>
<clipPath id="clip0_1141_14849">
<rect width="40" height="40" fill="current"/>
</clipPath>
</defs>
</svg>
