<svg width="40" height="40" viewBox="0 0 40 40" fill="none" xmlns="http://www.w3.org/2000/svg">
<g clip-path="url(#clip0_957_14180)">
<path d="M40 20C40 31.0469 31.0469 40 20 40C8.95312 40 0 31.0469 0 20C0 8.95312 8.95312 0 20 0C31.0469 0 40 8.95312 40 20ZM20 3.75C11.0234 3.75 3.75 11.0234 3.75 20C3.75 28.9766 11.0234 36.25 20 36.25C28.9766 36.25 36.25 28.9766 36.25 20C36.25 11.0234 28.9766 3.75 20 3.75Z" fill="#2D253F"/>
<path d="M18.7324 26.7324C17.8809 27.584 16.4902 27.584 15.6387 26.7324L10.6387 21.7324C9.78711 20.8809 9.78711 19.4902 10.6387 18.6387C11.4902 17.7871 12.8809 17.7871 13.7324 18.6387L17.1855 22.0918L25.6387 13.6387C26.4902 12.7871 27.8809 12.7871 28.7324 13.6387C29.584 14.4902 29.584 15.8809 28.7324 16.7324L18.7324 26.7324Z" fill="#117F5A"/>
</g>
<defs>
<clipPath id="clip0_957_14180">
<rect width="40" height="40" fill="white"/>
</clipPath>
</defs>
</svg>
