<svg width="48" height="48" viewBox="0 0 48 48" fill="none" xmlns="http://www.w3.org/2000/svg">
<g clip-path="url(#clip0_30995_49518)">
<path d="M48 24C48 30.3652 45.4714 36.4697 40.9706 40.9706C36.4697 45.4714 30.3652 48 24 48C17.6348 48 11.5303 45.4714 7.02944 40.9706C2.52856 36.4697 0 30.3652 0 24C0 17.6348 2.52856 11.5303 7.02944 7.02944C11.5303 2.52856 17.6348 0 24 0C30.3652 0 36.4697 2.52856 40.9706 7.02944C45.4714 11.5303 48 17.6348 48 24ZM10.5 24C10.5 25.2469 11.5031 26.25 12.75 26.25H29.8219L23.1656 32.9062C22.2844 33.7875 22.2844 35.2125 23.1656 36.0844C23.6063 36.525 24.1781 36.7406 24.7594 36.7406C25.3406 36.7406 25.9125 36.525 26.3531 36.0844L36.8438 25.5938C37.2844 25.1531 37.5 24.5812 37.5 24C37.5 23.4188 37.2844 22.8469 36.8438 22.4062L26.3438 11.9062C25.9031 11.4656 25.3312 11.25 24.75 11.25C24.1688 11.25 23.5969 11.4656 23.1562 11.9062C22.275 12.7875 22.275 14.2125 23.1562 15.0844L29.8125 21.7406L12.75 21.75C11.5031 21.75 10.5 22.7531 10.5 24Z" fill="#2E2640"/>
<path d="M36.8438 22.4064C37.725 23.2876 37.725 24.7126 36.8438 25.5845L26.3438 36.0939C25.4625 36.9751 24.0375 36.9751 23.1656 36.0939C22.2938 35.2126 22.2844 33.7876 23.1656 32.9157L29.8219 26.2595L12.75 26.2501C11.5031 26.2501 10.5 25.247 10.5 24.0001C10.5 22.7532 11.5031 21.7501 12.75 21.7501H29.8219L23.1656 15.0939C22.2844 14.2126 22.2844 12.7876 23.1656 11.9157C24.0469 11.0439 25.4719 11.0345 26.3438 11.9157L36.8438 22.4064Z" fill="#FF4545"/>
</g>
<defs>
<clipPath id="clip0_30995_49518">
<rect width="48" height="48" fill="white"/>
</clipPath>
</defs>
</svg>
