<svg width="40" height="40" viewBox="0 0 40 40" fill="none" xmlns="http://www.w3.org/2000/svg">
<g clip-path="url(#clip0_2916_46172)">
<path d="M36.25 20C36.25 15.6902 34.538 11.557 31.4905 8.50951C28.443 5.46205 24.3098 3.75 20 3.75C15.6902 3.75 11.557 5.46205 8.50951 8.50951C5.46205 11.557 3.75 15.6902 3.75 20C3.75 24.3098 5.46205 28.443 8.50951 31.4905C11.557 34.538 15.6902 36.25 20 36.25C24.3098 36.25 28.443 34.538 31.4905 31.4905C34.538 28.443 36.25 24.3098 36.25 20ZM0 20C0 14.6957 2.10714 9.60859 5.85786 5.85786C9.60859 2.10714 14.6957 0 20 0C25.3043 0 30.3914 2.10714 34.1421 5.85786C37.8929 9.60859 40 14.6957 40 20C40 25.3043 37.8929 30.3914 34.1421 34.1421C30.3914 37.8929 25.3043 40 20 40C14.6957 40 9.60859 37.8929 5.85786 34.1421C2.10714 30.3914 0 25.3043 0 20ZM20.9375 10.25C21.5156 10.5859 21.875 11.2031 21.875 11.875V26.25H25C26.0391 26.25 26.875 27.0859 26.875 28.125C26.875 29.1641 26.0391 30 25 30H20H15C13.9609 30 13.125 29.1641 13.125 28.125C13.125 27.0859 13.9609 26.25 15 26.25H18.125V15.1094L16.5547 16.0078C15.6562 16.5234 14.5078 16.2109 14 15.3125C13.4922 14.4141 13.7969 13.2656 14.6953 12.7578L19.0703 10.2578C19.6484 9.92969 20.3672 9.92969 20.9453 10.2656L20.9375 10.25Z" fill="#B3B3C3"/>
</g>
<defs>
<clipPath id="clip0_2916_46172">
<rect width="40" height="40" fill="white"/>
</clipPath>
</defs>
</svg>
