<svg width="40" height="40" viewBox="0 0 40 40" fill="current" xmlns="http://www.w3.org/2000/svg">
<g clip-path="url(#clip0_957_14311)">
<path d="M20 40C31.0469 40 40 31.0469 40 20C40 8.95312 31.0469 0 20 0C8.95312 0 0 8.95312 0 20C0 31.0469 8.95312 40 20 40ZM13.2656 12.9141C13.8828 11.1719 15.5391 10 17.3906 10H21.9453C24.6719 10 26.875 12.2109 26.875 14.9297C26.875 16.6953 25.9297 18.3281 24.3984 19.2109L21.875 20.6562C21.8594 21.6719 21.0234 22.5 20 22.5C18.9609 22.5 18.125 21.6641 18.125 20.625V19.5703C18.125 18.8984 18.4844 18.2812 19.0703 17.9453L22.5312 15.9609C22.8984 15.75 23.125 15.3594 23.125 14.9375C23.125 14.2812 22.5938 13.7578 21.9453 13.7578H17.3906C17.125 13.7578 16.8906 13.9219 16.8047 14.1719L16.7734 14.2656C16.4297 15.2422 15.3516 15.75 14.3828 15.4062C13.4141 15.0625 12.8984 13.9844 13.2422 13.0156L13.2734 12.9219L13.2656 12.9141ZM22.5 27.5C22.5 28.8828 21.3828 30 20 30C18.6172 30 17.5 28.8828 17.5 27.5C17.5 26.1172 18.6172 25 20 25C21.3828 25 22.5 26.1172 22.5 27.5Z" fill="current"/>
</g>
<defs>
<clipPath id="clip0_957_14311">
<rect width="40" height="40" fill="current"/>
</clipPath>
</defs>
</svg>
