<svg width="81" height="80" viewBox="0 0 81 80" fill="none" xmlns="http://www.w3.org/2000/svg">
<g clip-path="url(#clip0_3650_82988)">
<path d="M40.5 0C18.4062 0 0.5 17.9062 0.5 40C0.5 62.0938 18.4062 80 40.5 80C62.5938 80 80.5 62.0938 80.5 40C80.5 17.9062 62.5938 0 40.5 0ZM40.5 72.5C22.5781 72.5 8 57.9203 8 40C8 22.0797 22.5781 7.5 40.5 7.5C58.4219 7.5 73 22.0797 73 40C73 57.9203 58.4219 72.5 40.5 72.5Z" fill="#2D253F"/>
<path d="M56.1713 20.8901C54.5917 19.5498 52.2213 19.7499 50.8854 21.332L39.9995 34.187L29.1088 21.3276C27.7807 19.7495 25.4057 19.5463 23.8276 20.8901C22.2495 22.2182 22.0463 24.5932 23.3901 26.1713L35.0932 39.9995L23.3932 53.8276C22.0554 55.4073 22.2531 57.776 23.8351 59.1135C24.5307 59.7026 25.3901 59.9995 26.1088 59.9995C27.1732 59.9995 28.2323 59.5478 28.9745 58.6713L39.9995 45.812L50.8854 58.6776C51.6245 59.5463 52.687 59.9995 53.7495 59.9995C54.604 59.9995 55.4651 59.709 56.1682 59.1132C57.7495 57.7754 57.9479 55.407 56.6101 53.8273L44.9057 39.9995L56.6057 26.1713C57.9526 24.5932 57.7495 22.2182 56.1713 20.8901Z" fill="#BD493D"/>
</g>
<defs>
<clipPath id="clip0_3650_82988">
<rect width="80" height="80" fill="white" transform="translate(0.5)"/>
</clipPath>
</defs>
</svg>
