<svg width="40" height="40" viewBox="0 0 40 40" fill="none" xmlns="http://www.w3.org/2000/svg">
<g clip-path="url(#clip0_1141_14926)">
<path d="M27.5002 28.125C27.5002 29.1602 26.6604 30 25.6252 30H14.3752C13.6001 30 12.9057 29.524 12.626 28.7985C12.3465 28.0758 12.5418 27.2555 13.1155 26.7352L21.5843 19.0547C22.1348 18.5127 22.4679 17.7266 22.4679 16.8938C22.4679 16.061 22.1346 15.275 21.5304 14.6821C20.2658 13.4375 18.1955 13.4375 16.9221 14.6797L16.0627 15.5235C15.3205 16.2579 14.0705 16.2422 13.4143 15.5C12.6877 14.7579 12.6955 13.5704 13.4377 12.8516L14.2971 12.0094C17.0158 9.33833 21.4416 9.33833 24.1643 12.0094C25.4924 13.3133 26.2252 15.0493 26.2252 16.8969C26.2252 18.7446 25.4928 20.4813 24.1643 21.7844L19.2346 26.25H25.6252C26.6643 26.25 27.5002 27.0938 27.5002 28.125Z" fill="#E84A4A"/>
<path d="M20 0C8.95312 0 0 8.95312 0 20C0 31.0469 8.95312 40 20 40C31.0469 40 40 31.0469 40 20C40 8.95312 31.0469 0 20 0ZM25.625 30H14.375C13.5998 30 12.9055 29.5239 12.6258 28.7984C12.3462 28.0758 12.5416 27.2555 13.1153 26.7352L21.5841 19.0547C22.1346 18.5127 22.4677 17.7266 22.4677 16.8938C22.4677 16.0609 22.1344 15.275 21.5302 14.682C20.2656 13.4375 18.1953 13.4375 16.9219 14.6797L16.0625 15.5234C15.3203 16.2578 14.0703 16.2422 13.4141 15.5C12.6875 14.7578 12.6953 13.5703 13.4375 12.8516L14.2969 12.0094C17.0156 9.33828 21.4414 9.33828 24.1641 12.0094C25.4922 13.3133 26.225 15.0492 26.225 16.8969C26.225 18.7445 25.4926 20.4812 24.1641 21.7844L19.2344 26.25H25.625C26.6602 26.25 27.5 27.0898 27.5 28.125C27.5 29.1602 26.6641 30 25.625 30Z" fill="#2D253F"/>
</g>
<defs>
<clipPath id="clip0_1141_14926">
<rect width="40" height="40" fill="white"/>
</clipPath>
</defs>
</svg>
