<svg width="40" height="40" viewBox="0 0 40 40" fill="none" xmlns="http://www.w3.org/2000/svg">
<g clip-path="url(#clip0_1141_14851)">
<path d="M26.875 28.125C26.875 29.1601 26.0352 30 25 30H15C13.9648 30 13.125 29.1601 13.125 28.125C13.125 27.0898 13.9688 26.25 15 26.25H18.125V15.375L16.9766 16.1406C16.1172 16.7109 14.9531 16.4141 14.375 15.5547C13.8047 14.7578 14.0391 13.5937 14.8984 13.0234L18.9609 10.3156C19.5384 9.92983 20.2781 9.89569 20.8859 10.2228C21.4922 10.5469 21.875 11.1875 21.875 11.875V26.25H25C26.0391 26.25 26.875 27.0937 26.875 28.125Z" fill="#E84A4A"/>
<path d="M20 0C8.95312 0 0 8.95312 0 20C0 31.0469 8.95312 40 20 40C31.0469 40 40 31.0469 40 20C40 8.95312 31.0469 0 20 0ZM25 30H15C13.9648 30 13.125 29.1602 13.125 28.125C13.125 27.0898 13.9688 26.25 15 26.25H18.125V15.375L16.9766 16.1406C16.1172 16.7109 14.9531 16.4141 14.375 15.5547C13.8047 14.7578 14.0391 13.5938 14.8984 13.0234L18.9609 10.3156C19.5384 9.92984 20.2781 9.8957 20.8859 10.2228C21.4922 10.5469 21.875 11.1875 21.875 11.875V26.25H25C26.0352 26.25 26.875 27.0898 26.875 28.125C26.875 29.1602 26.0391 30 25 30Z" fill="white"/>
</g>
<defs>
<clipPath id="clip0_1141_14851">
<rect width="40" height="40" fill="white"/>
</clipPath>
</defs>
</svg>
