<svg width="40" height="40" viewBox="0 0 40 40" fill="current" xmlns="http://www.w3.org/2000/svg">
<g clip-path="url(#clip0_736_14754)">
<path d="M20 40C31.0469 40 40 31.0469 40 20C40 8.95312 31.0469 0 20 0C8.95312 0 0 8.95312 0 20C0 31.0469 8.95312 40 20 40ZM20 10C21.0391 10 21.875 10.8359 21.875 11.875V20.625C21.875 21.6641 21.0391 22.5 20 22.5C18.9609 22.5 18.125 21.6641 18.125 20.625V11.875C18.125 10.8359 18.9609 10 20 10ZM22.5 27.5C22.5 28.8828 21.3828 30 20 30C18.6172 30 17.5 28.8828 17.5 27.5C17.5 26.1172 18.6172 25 20 25C21.3828 25 22.5 26.1172 22.5 27.5Z" fill="current"/>
</g>
<defs>
<clipPath id="clip0_736_14754">
<rect width="40" height="40" fill="current"/>
</clipPath>
</defs>
</svg>
