<svg width="17" height="16" viewBox="0 0 17 16" fill="none" xmlns="http://www.w3.org/2000/svg">
<path d="M8.5 16C12.9187 16 16.5 12.4187 16.5 8C16.5 3.58125 12.9187 0 8.5 0C4.08125 0 0.5 3.58125 0.5 8C0.5 12.4187 4.08125 16 8.5 16ZM6.32188 4.26562L8.5 6.8375L10.6781 4.26562C10.9469 3.95 11.4187 3.90937 11.7344 4.17812C12.05 4.44688 12.0906 4.91875 11.8219 5.23438L9.48125 8L11.8219 10.7656C12.0906 11.0813 12.05 11.5562 11.7344 11.8219C11.4187 12.0875 10.9438 12.05 10.6781 11.7344L8.5 9.1625L6.32188 11.7344C6.05312 12.05 5.58125 12.0906 5.26562 11.8219C4.95 11.5531 4.90937 11.0813 5.17812 10.7656L7.51875 8L5.17812 5.23438C4.90937 4.91875 4.95 4.44375 5.26562 4.17812C5.58125 3.9125 6.05625 3.95 6.32188 4.26562Z" fill="#BD493D"/>
</svg>
