<svg width="40" height="40" viewBox="0 0 40 40" fill="current" xmlns="http://www.w3.org/2000/svg">
<path d="M32.0614 16.645L30.3839 18.3225L29.2002 17.1388C27.6177 15.5563 25.0541 15.5563 23.4716 17.1388C21.8891 18.7213 21.8891 21.2849 23.4716 22.8674L27.5228 26.9186C28.2761 27.6719 29.2572 28.0707 30.2447 28.1023C27.4405 32.9448 22.2056 36.2047 16.2048 36.2047C7.25417 36.2047 0 28.9505 0 19.9999C0 11.0493 7.25417 3.79517 16.2048 3.79517C24.0033 3.79517 30.5169 9.30226 32.0614 16.645ZM17.724 13.4167C17.724 12.5749 17.0467 11.8976 16.2048 11.8976C15.3629 11.8976 14.6856 12.5749 14.6856 13.4167V20.5063C14.6856 21.3482 15.3629 22.0255 16.2048 22.0255C17.0467 22.0255 17.724 21.3482 17.724 20.5063V13.4167ZM16.2048 28.1023C16.742 28.1023 17.2572 27.8889 17.6371 27.509C18.017 27.1292 18.2304 26.614 18.2304 26.0767C18.2304 25.5395 18.017 25.0243 17.6371 24.6444C17.2572 24.2645 16.742 24.0511 16.2048 24.0511C15.6676 24.0511 15.1523 24.2645 14.7725 24.6444C14.3926 25.0243 14.1792 25.5395 14.1792 26.0767C14.1792 26.614 14.3926 27.1292 14.7725 27.509C15.1523 27.8889 15.6676 28.1023 16.2048 28.1023ZM39.5624 17.0248L31.46 25.1272C30.865 25.7222 29.9029 25.7222 29.3142 25.1272L25.263 21.076C24.668 20.481 24.668 19.5189 25.263 18.9302C25.858 18.3415 26.8202 18.3352 27.4089 18.9302L30.3839 21.9053L37.4102 14.8726C38.0053 14.2776 38.9674 14.2776 39.5561 14.8726C40.1448 15.4677 40.1511 16.4298 39.5561 17.0185L39.5624 17.0248Z" fill="current"/>
</svg>
