<svg width="40" height="40" viewBox="0 0 40 40" fill="none" xmlns="http://www.w3.org/2000/svg">
<g clip-path="url(#clip0_736_14761)">
<path d="M20.0002 23.75C21.0354 23.75 21.8752 22.9102 21.8752 21.875V11.875C21.8752 10.8438 21.0393 10 20.0002 10C18.9611 10 18.1252 10.8438 18.1252 11.875V21.875C18.1252 22.9141 18.9689 23.75 20.0002 23.75ZM20.0002 26.3359C18.6439 26.3359 17.5439 27.4359 17.5439 28.7922C17.5471 30.1484 18.6408 31.25 20.0002 31.25C21.3596 31.25 22.4564 30.15 22.4564 28.7938C22.4533 27.4375 21.3596 26.3359 20.0002 26.3359Z" fill="#E84A4A"/>
<path d="M20 0C8.95312 0 0 8.95312 0 20C0 31.0469 8.95312 40 20 40C31.0469 40 40 31.0469 40 20C40 8.95312 31.0469 0 20 0ZM18.125 11.875C18.125 10.8438 18.9688 10 20 10C21.0312 10 21.875 10.8398 21.875 11.875V21.875C21.875 22.9102 21.0352 23.75 20 23.75C18.9648 23.75 18.125 22.9141 18.125 21.875V11.875ZM20 31.25C18.6437 31.25 17.5438 30.15 17.5438 28.7938C17.5438 27.4375 18.643 26.3375 20 26.3375C21.357 26.3375 22.4562 27.4375 22.4562 28.7938C22.4531 30.1484 21.3594 31.25 20 31.25Z" fill="#2D253F"/>
</g>
<defs>
<clipPath id="clip0_736_14761">
<rect width="40" height="40" fill="white"/>
</clipPath>
</defs>
</svg>
