<svg width="40" height="40" viewBox="0 0 40 40" fill="none" xmlns="http://www.w3.org/2000/svg">
<g clip-path="url(#clip0_1585_24505)">
<path d="M28.0176 21.7644L19.2676 30.5144C18.291 31.491 16.709 31.491 15.7324 30.5144C14.7559 29.5378 14.7559 27.9558 15.7324 26.9792L22.7207 19.9988L15.7363 13.0144C14.7598 12.0378 14.7598 10.4558 15.7363 9.47925C16.7129 8.50269 18.2949 8.50269 19.2715 9.47925L28.0215 18.2292C28.5098 18.7175 28.752 19.3582 28.752 19.9988C28.752 20.6394 28.5098 21.28 28.0176 21.7644Z" fill="#E84A4A"/>
<path d="M20 0C8.95312 0 0 8.95312 0 20C0 31.0469 8.95312 40 20 40C31.0469 40 40 31.0469 40 20C40 8.95312 31.0469 0 20 0ZM28.0156 21.7656L19.2656 30.5156C18.2891 31.4922 16.707 31.4922 15.7305 30.5156C14.7539 29.5391 14.7539 27.957 15.7305 26.9805L22.7188 20L15.7344 13.0156C14.7578 12.0391 14.7578 10.457 15.7344 9.48047C16.7109 8.50391 18.293 8.50391 19.2695 9.48047L28.0195 18.2305C28.5078 18.7188 28.75 19.3594 28.75 20C28.75 20.6406 28.5078 21.2812 28.0156 21.7656Z" fill="#2D253F"/>
</g>
<defs>
<clipPath id="clip0_1585_24505">
<rect width="40" height="40" fill="white"/>
</clipPath>
</defs>
</svg>
