<svg width="41" height="40" viewBox="0 0 41 40" fill="none" xmlns="http://www.w3.org/2000/svg">
<path d="M20.9819 0C9.93506 0 0.981934 8.95312 0.981934 20C0.981934 31.0469 9.93506 40 20.9819 40C32.0288 40 40.9819 31.0469 40.9819 20C40.9819 8.95312 32.0288 0 20.9819 0ZM20.9819 36.25C12.021 36.25 4.73193 28.9602 4.73193 20C4.73193 11.0398 12.021 3.75 20.9819 3.75C29.9429 3.75 37.2319 11.0398 37.2319 20C37.2319 28.9602 29.9429 36.25 20.9819 36.25Z" fill="#2E2640"/>
<path d="M28.8176 10.445C28.0278 9.77489 26.8426 9.87497 26.1746 10.666L20.7317 17.0935L15.2864 10.6638C14.6223 9.87473 13.4348 9.77317 12.6457 10.445C11.8567 11.1091 11.7551 12.2966 12.427 13.0857L18.2785 19.9997L12.4285 26.9138C11.7596 27.7036 11.8585 28.888 12.6495 29.5568C12.9973 29.8513 13.427 29.9997 13.7864 29.9997C14.3185 29.9997 14.8481 29.7739 15.2192 29.3357L20.7317 22.906L26.1746 29.3388C26.5442 29.7732 27.0754 29.9997 27.6067 29.9997C28.0339 29.9997 28.4645 29.8545 28.816 29.5566C29.6067 28.8877 29.7059 27.7035 29.037 26.9136L23.1848 19.9997L29.0348 13.0857C29.7082 12.2966 29.6067 11.1091 28.8176 10.445Z" fill="#BD493D"/>
</svg>
