<svg width="24" height="24" viewBox="0 0 24 24" fill="none" xmlns="http://www.w3.org/2000/svg">
<g clip-path="url(#clip0_27151_9651)">
<path d="M21.75 12C21.75 9.41414 20.7228 6.93419 18.8943 5.10571C17.0658 3.27723 14.5859 2.25 12 2.25C9.41414 2.25 6.93419 3.27723 5.10571 5.10571C3.27723 6.93419 2.25 9.41414 2.25 12C2.25 14.5859 3.27723 17.0658 5.10571 18.8943C6.93419 20.7228 9.41414 21.75 12 21.75C14.5859 21.75 17.0658 20.7228 18.8943 18.8943C20.7228 17.0658 21.75 14.5859 21.75 12ZM0 12C0 8.8174 1.26428 5.76516 3.51472 3.51472C5.76516 1.26428 8.8174 0 12 0C15.1826 0 18.2348 1.26428 20.4853 3.51472C22.7357 5.76516 24 8.8174 24 12C24 15.1826 22.7357 18.2348 20.4853 20.4853C18.2348 22.7357 15.1826 24 12 24C8.8174 24 5.76516 22.7357 3.51472 20.4853C1.26428 18.2348 0 15.1826 0 12ZM8.82656 6.89531C9.18281 6.69844 9.61406 6.70313 9.96563 6.91875L16.7156 11.0438C17.0484 11.25 17.2547 11.6109 17.2547 12.0047C17.2547 12.3984 17.0484 12.7594 16.7156 12.9656L9.96563 17.0906C9.61875 17.3016 9.18281 17.3109 8.82656 17.1141C8.47031 16.9172 8.25 16.5422 8.25 16.1344V7.88437C8.25 7.47656 8.47031 7.10156 8.82656 6.90469V6.89531Z" fill="#B3B3C3"/>
</g>
<defs>
<clipPath id="clip0_27151_9651">
<rect width="24" height="24" fill="white"/>
</clipPath>
</defs>
</svg>
