<svg width="81" height="80" viewBox="0 0 81 80" fill="none" xmlns="http://www.w3.org/2000/svg">
<g clip-path="url(#clip0_3650_82922)">
<path d="M40.5 0C18.4062 0 0.5 17.9062 0.5 40C0.5 62.0938 18.4062 80 40.5 80C62.5938 80 80.5 62.0938 80.5 40C80.5 17.9062 62.5938 0 40.5 0ZM40.5 72.5C22.5781 72.5 8 57.9203 8 40C8 22.0797 22.5781 7.5 40.5 7.5C58.4219 7.5 73 22.0797 73 40C73 57.9203 58.4219 72.5 40.5 72.5Z" fill="#2D253F"/>
<path d="M46.75 52.5H44.25V38.75C44.25 36.6875 42.5781 35 40.5 35H35.5C33.4375 35 31.75 36.6875 31.75 38.75C31.75 40.8125 33.4375 42.5 35.5 42.5H36.75V52.5H34.25C32.1875 52.5 30.5 54.1875 30.5 56.25C30.5 58.3125 32.1875 60 34.25 60H46.75C48.8203 60 50.5 58.3203 50.5 56.25C50.5 54.1797 48.8281 52.5 46.75 52.5ZM40.5 30C43.2609 30 45.5 27.7609 45.5 25C45.5 22.2391 43.2609 20 40.5 20C37.7391 20 35.5 22.2344 35.5 25C35.5 27.7656 37.7344 30 40.5 30Z" fill="#029BED"/>
</g>
<defs>
<clipPath id="clip0_3650_82922">
<rect width="80" height="80" fill="white" transform="translate(0.5)"/>
</clipPath>
</defs>
</svg>
