<svg width="40" height="40" viewBox="0 0 40 40" fill="none" xmlns="http://www.w3.org/2000/svg">
<g clip-path="url(#clip0_2916_46184)">
<path d="M20 3.75C24.3098 3.75 28.443 5.46205 31.4905 8.50951C34.538 11.557 36.25 15.6902 36.25 20C36.25 24.3098 34.538 28.443 31.4905 31.4905C28.443 34.538 24.3098 36.25 20 36.25C15.6902 36.25 11.557 34.538 8.50951 31.4905C5.46205 28.443 3.75 24.3098 3.75 20C3.75 15.6902 5.46205 11.557 8.50951 8.50951C11.557 5.46205 15.6902 3.75 20 3.75ZM20 40C25.3043 40 30.3914 37.8929 34.1421 34.1421C37.8929 30.3914 40 25.3043 40 20C40 14.6957 37.8929 9.60859 34.1421 5.85786C30.3914 2.10714 25.3043 0 20 0C14.6957 0 9.60859 2.10714 5.85786 5.85786C2.10714 9.60859 0 14.6957 0 20C0 25.3043 2.10714 30.3914 5.85786 34.1421C9.60859 37.8929 14.6957 40 20 40ZM14.375 10C13.3359 10 12.5 10.8359 12.5 11.875C12.5 12.9141 13.3359 13.75 14.375 13.75H19.5547L15.6094 17.3672C15.0391 17.8906 14.8516 18.7109 15.1328 19.4375C15.4141 20.1641 16.1172 20.6328 16.8906 20.625L20.9141 20.6016C22.4844 20.5938 23.7578 21.8594 23.7578 23.4297C23.7578 24.9922 22.4922 26.2578 20.9297 26.2578H18.75C17.6953 26.2578 16.7188 25.7109 16.1719 24.8203L15.9687 24.4922C15.4219 23.6094 14.2656 23.3359 13.3906 23.8828C12.5156 24.4297 12.2344 25.5859 12.7813 26.4609L12.9844 26.7891C14.2187 28.7812 16.3984 30 18.75 30H20.9219C24.5547 30 27.5 27.0547 27.5 23.4219C27.5 20.0391 24.9531 17.2578 21.6719 16.8906L25.6406 13.2578C26.2109 12.7344 26.3984 11.9141 26.125 11.1953C25.8516 10.4766 25.1484 10 24.375 10H14.375Z" fill="#B3B3C3"/>
</g>
<defs>
<clipPath id="clip0_2916_46184">
<rect width="40" height="40" fill="white"/>
</clipPath>
</defs>
</svg>
