<svg width="40" height="40" viewBox="0 0 40 40" fill="none" xmlns="http://www.w3.org/2000/svg">
<g clip-path="url(#clip0_957_14173)">
<path d="M20 0C8.95312 0 0 8.95312 0 20C0 31.0469 8.95312 40 20 40C31.0469 40 40 31.0469 40 20C40 8.95312 31.0469 0 20 0ZM20 36.25C11.0391 36.25 3.75 28.9602 3.75 20C3.75 11.0398 11.0391 3.75 20 3.75C28.9609 3.75 36.25 11.0398 36.25 20C36.25 28.9602 28.9609 36.25 20 36.25Z" fill="#2D253F"/>
<path d="M20.4562 22.75C21.4914 22.75 22.3312 21.9102 22.3312 20.875V10.875C22.3312 9.84375 21.4953 9 20.4562 9C19.4172 9 18.5812 9.84375 18.5812 10.875V20.875C18.5812 21.9141 19.425 22.75 20.4562 22.75ZM20.4562 25.3359C19.1 25.3359 18 26.4359 18 27.7922C18.0031 29.1484 19.0969 30.25 20.4562 30.25C21.8156 30.25 22.9125 29.15 22.9125 27.7938C22.9094 26.4375 21.8156 25.3359 20.4562 25.3359Z" fill="#C9851E"/>
</g>
<defs>
<clipPath id="clip0_957_14173">
<rect width="40" height="40" fill="white"/>
</clipPath>
</defs>
</svg>
