<svg width="40" height="40" viewBox="0 0 40 40" fill="none" xmlns="http://www.w3.org/2000/svg">
<g clip-path="url(#clip0_2916_46148)">
<path d="M20 3.75C24.3098 3.75 28.443 5.46205 31.4905 8.50951C34.538 11.557 36.25 15.6902 36.25 20C36.25 24.3098 34.538 28.443 31.4905 31.4905C28.443 34.538 24.3098 36.25 20 36.25C15.6902 36.25 11.557 34.538 8.50951 31.4905C5.46205 28.443 3.75 24.3098 3.75 20C3.75 15.6902 5.46205 11.557 8.50951 8.50951C11.557 5.46205 15.6902 3.75 20 3.75ZM20 40C25.3043 40 30.3914 37.8929 34.1421 34.1421C37.8929 30.3914 40 25.3043 40 20C40 14.6957 37.8929 9.60859 34.1421 5.85786C30.3914 2.10714 25.3043 0 20 0C14.6957 0 9.60859 2.10714 5.85786 5.85786C2.10714 9.60859 0 14.6957 0 20C0 25.3043 2.10714 30.3914 5.85786 34.1421C9.60859 37.8929 14.6957 40 20 40ZM14.5547 10.6641C13.8828 9.875 12.7031 9.77344 11.9141 10.4453C11.125 11.1172 11.0234 12.2969 11.6953 13.0859L17.5469 20L11.6953 26.9141C11.0234 27.7031 11.125 28.8906 11.9141 29.5547C12.7031 30.2187 13.8906 30.125 14.5547 29.3359L20 22.9063L25.4453 29.3359C26.1172 30.125 27.2969 30.2266 28.0859 29.5547C28.875 28.8828 28.9766 27.7031 28.3047 26.9141L22.4531 20L28.3047 13.0859C28.9766 12.2969 28.875 11.1094 28.0859 10.4453C27.2969 9.78125 26.1094 9.875 25.4453 10.6641L20 17.0938L14.5547 10.6641Z" fill="#B3B3C3"/>
</g>
<defs>
<clipPath id="clip0_2916_46148">
<rect width="40" height="40" fill="white"/>
</clipPath>
</defs>
</svg>
