<svg width="40" height="40" viewBox="0 0 40 40" fill="none" xmlns="http://www.w3.org/2000/svg">
<g clip-path="url(#clip0_2916_46178)">
<path d="M20 3.75C24.3098 3.75 28.443 5.46205 31.4905 8.50951C34.538 11.557 36.25 15.6902 36.25 20C36.25 24.3098 34.538 28.443 31.4905 31.4905C28.443 34.538 24.3098 36.25 20 36.25C15.6902 36.25 11.557 34.538 8.50951 31.4905C5.46205 28.443 3.75 24.3098 3.75 20C3.75 15.6902 5.46205 11.557 8.50951 8.50951C11.557 5.46205 15.6902 3.75 20 3.75ZM20 40C25.3043 40 30.3914 37.8929 34.1421 34.1421C37.8929 30.3914 40 25.3043 40 20C40 14.6957 37.8929 9.60859 34.1421 5.85786C30.3914 2.10714 25.3043 0 20 0C14.6957 0 9.60859 2.10714 5.85786 5.85786C2.10714 9.60859 0 14.6957 0 20C0 25.3043 2.10714 30.3914 5.85786 34.1421C9.60859 37.8929 14.6957 40 20 40ZM17.3984 13.1797C17.9609 12.75 18.6563 12.5234 19.375 12.5312L19.6406 12.5391C21.2266 12.5625 22.5 13.8516 22.5 15.4375C22.5 16.2422 22.1719 17.0078 21.5859 17.5547L13.0938 25.5078C12.5313 26.0312 12.3516 26.8516 12.6328 27.5625C12.9141 28.2734 13.6094 28.75 14.375 28.75H25.625C26.6641 28.75 27.5 27.9141 27.5 26.875C27.5 25.8359 26.6641 25 25.625 25H19.1172L24.1484 20.2813C25.4922 19.0234 26.25 17.2656 26.25 15.4297C26.25 11.7969 23.3359 8.83594 19.7031 8.78125L19.4375 8.77344C17.8828 8.75 16.3672 9.25 15.1328 10.1875L13.2422 11.625C12.4219 12.25 12.2578 13.4297 12.8906 14.25C13.5234 15.0703 14.6953 15.2344 15.5156 14.6016L17.4063 13.1641L17.3984 13.1797Z" fill="#B3B3C3"/>
</g>
<defs>
<clipPath id="clip0_2916_46178">
<rect width="40" height="40" fill="white"/>
</clipPath>
</defs>
</svg>
