<svg width="40" height="40" viewBox="0 0 40 40" fill="current" xmlns="http://www.w3.org/2000/svg">
<g clip-path="url(#clip0_957_14265)">
<path d="M20 40C31.0469 40 40 31.0469 40 20C40 8.95312 31.0469 0 20 0C8.95312 0 0 8.95312 0 20C0 31.0469 8.95312 40 20 40ZM16.875 26.25H18.75V21.25H16.875C15.8359 21.25 15 20.4141 15 19.375C15 18.3359 15.8359 17.5 16.875 17.5H20.625C21.6641 17.5 22.5 18.3359 22.5 19.375V26.25H23.125C24.1641 26.25 25 27.0859 25 28.125C25 29.1641 24.1641 30 23.125 30H16.875C15.8359 30 15 29.1641 15 28.125C15 27.0859 15.8359 26.25 16.875 26.25ZM20 15C18.6172 15 17.5 13.8828 17.5 12.5C17.5 11.1172 18.6172 10 20 10C21.3828 10 22.5 11.1172 22.5 12.5C22.5 13.8828 21.3828 15 20 15Z" fill="current"/>
</g>
<defs>
<clipPath id="clip0_957_14265">
<rect width="40" height="40" fill="current"/>
</clipPath>
</defs>
</svg>
