<svg width="40" height="40" viewBox="0 0 40 40" fill="none" xmlns="http://www.w3.org/2000/svg">
<g clip-path="url(#clip0_957_14323)">
<path d="M20 0C8.95312 0 0 8.95312 0 20C0 31.0469 8.95312 40 20 40C31.0469 40 40 31.0469 40 20C40 8.95312 31.0469 0 20 0ZM20 36.25C11.0391 36.25 3.75 28.9602 3.75 20C3.75 11.0398 11.0391 3.75 20 3.75C28.9609 3.75 36.25 11.0398 36.25 20C36.25 28.9602 28.9609 36.25 20 36.25Z" fill="#2D253F"/>
<path d="M19.875 25.25C18.4688 25.25 17.375 26.3438 17.375 27.75C17.375 29.1562 18.3984 30.25 19.875 30.25C21.2109 30.25 22.375 29.1562 22.375 27.75C22.375 26.3438 21.2109 25.25 19.875 25.25ZM22.4609 9H18.4688C15.4219 9 13 11.4219 13 14.4688C13 15.4844 13.8594 16.3438 14.875 16.3438C15.8906 16.3438 16.75 15.4844 16.75 14.4688C16.75 13.5312 17.4609 12.75 18.3984 12.75H22.3906C23.3984 12.75 24.25 13.5312 24.25 14.4688C24.25 15.0938 23.9375 15.5703 23.3906 15.8828L18.9375 18.6094C18.3125 19 18 19.625 18 20.25V21.5C18 22.5156 18.8594 23.375 19.875 23.375C20.8906 23.375 21.75 22.5156 21.75 21.5V21.3438L25.2734 19.1562C26.9141 18.1406 27.9297 16.3438 27.9297 14.4688C28 11.4219 25.5781 9 22.4609 9Z" fill="#855EDE"/>
</g>
<defs>
<clipPath id="clip0_957_14323">
<rect width="40" height="40" fill="white"/>
</clipPath>
</defs>
</svg>
