<svg width="24" height="25" viewBox="0 0 24 25" fill="none" xmlns="http://www.w3.org/2000/svg">
<path d="M12 2.75C14.5859 2.75 17.0658 3.77723 18.8943 5.60571C20.7228 7.43419 21.75 9.91414 21.75 12.5C21.75 15.0859 20.7228 17.5658 18.8943 19.3943C17.0658 21.2228 14.5859 22.25 12 22.25C9.41414 22.25 6.93419 21.2228 5.10571 19.3943C3.27723 17.5658 2.25 15.0859 2.25 12.5C2.25 9.91414 3.27723 7.43419 5.10571 5.60571C6.93419 3.77723 9.41414 2.75 12 2.75ZM12 24.5C15.1826 24.5 18.2348 23.2357 20.4853 20.9853C22.7357 18.7348 24 15.6826 24 12.5C24 9.3174 22.7357 6.26516 20.4853 4.01472C18.2348 1.76428 15.1826 0.5 12 0.5C8.8174 0.5 5.76516 1.76428 3.51472 4.01472C1.26428 6.26516 0 9.3174 0 12.5C0 15.6826 1.26428 18.7348 3.51472 20.9853C5.76516 23.2357 8.8174 24.5 12 24.5ZM12 6.5C11.3766 6.5 10.875 7.00156 10.875 7.625V12.875C10.875 13.4984 11.3766 14 12 14C12.6234 14 13.125 13.4984 13.125 12.875V7.625C13.125 7.00156 12.6234 6.5 12 6.5ZM13.5 17C13.5 16.6022 13.342 16.2206 13.0607 15.9393C12.7794 15.658 12.3978 15.5 12 15.5C11.6022 15.5 11.2206 15.658 10.9393 15.9393C10.658 16.2206 10.5 16.6022 10.5 17C10.5 17.3978 10.658 17.7794 10.9393 18.0607C11.2206 18.342 11.6022 18.5 12 18.5C12.3978 18.5 12.7794 18.342 13.0607 18.0607C13.342 17.7794 13.5 17.3978 13.5 17Z" fill="#BD493D"/>
</svg>
