<svg width="40" height="40" viewBox="0 0 40 40" fill="none" xmlns="http://www.w3.org/2000/svg">
<path d="M16.2014 11.8993C15.3597 11.8993 14.6826 12.5765 14.6826 13.4182V20.5062C14.6826 21.3479 15.3597 22.0251 16.2014 22.0251C17.0431 22.0251 17.7203 21.3479 17.7203 20.5062V13.4182C17.7203 12.5765 17.0431 11.8993 16.2014 11.8993ZM18.2266 26.0754C18.2266 25.5383 18.0132 25.0232 17.6334 24.6434C17.2536 24.2636 16.7385 24.0502 16.2014 24.0502C15.6643 24.0502 15.1492 24.2636 14.7694 24.6434C14.3896 25.0232 14.1763 25.5383 14.1763 26.0754C14.1763 26.6125 14.3896 27.1276 14.7694 27.5074C15.1492 27.8872 15.6643 28.1005 16.2014 28.1005C16.7385 28.1005 17.2536 27.8872 17.6334 27.5074C18.0132 27.1276 18.2266 26.6125 18.2266 26.0754ZM39.554 17.0255C40.1489 16.4306 40.1489 15.4686 39.554 14.8801C38.9591 14.2915 37.9972 14.2852 37.4086 14.8801L30.3838 21.9048L27.4094 18.9304C26.8145 18.3355 25.8526 18.3355 25.264 18.9304C24.6754 19.5253 24.6691 20.4872 25.264 21.0758L29.3143 25.1261C29.9092 25.721 30.8712 25.721 31.4597 25.1261L39.554 17.0255Z" fill="#E84A4A"/>
<path d="M30.3773 18.3229L32.0544 16.6458C30.5102 9.3046 23.9981 3.79871 16.2013 3.79871C7.25259 3.79871 0 11.0513 0 20C0 28.9486 7.25259 36.2012 16.2013 36.2012C22.2008 36.2012 27.4345 32.942 30.2381 28.1006C29.2509 28.0689 28.2699 27.6702 27.5168 26.9171L23.4665 22.8668C21.8843 21.2847 21.8843 18.7216 23.4665 17.1394C25.0487 15.5573 27.6117 15.5573 29.1939 17.1394L30.3773 18.3229ZM16.2013 11.8993C17.043 11.8993 17.7201 12.5765 17.7201 13.4182V20.5062C17.7201 21.3479 17.043 22.0251 16.2013 22.0251C15.3595 22.0251 14.6824 21.3479 14.6824 20.5062V13.4182C14.6824 12.5765 15.3595 11.8993 16.2013 11.8993ZM14.1761 26.0754C14.1761 25.5383 14.3895 25.0232 14.7692 24.6434C15.149 24.2636 15.6641 24.0503 16.2013 24.0503C16.7384 24.0503 17.2535 24.2636 17.6333 24.6434C18.013 25.0232 18.2264 25.5383 18.2264 26.0754C18.2264 26.6125 18.013 27.1276 17.6333 27.5074C17.2535 27.8872 16.7384 28.1006 16.2013 28.1006C15.6641 28.1006 15.149 27.8872 14.7692 27.5074C14.3895 27.1276 14.1761 26.6125 14.1761 26.0754Z" fill="white"/>
</svg>
