<svg width="40" height="40" viewBox="0 0 40 40" fill="current" xmlns="http://www.w3.org/2000/svg">
<g clip-path="url(#clip0_736_14835)">
<path d="M20 40C31.0469 40 40 31.0469 40 20C40 8.95312 31.0469 0 20 0C8.95312 0 0 8.95312 0 20C0 31.0469 8.95312 40 20 40ZM28.8281 16.3281L18.8281 26.3281C18.0938 27.0625 16.9062 27.0625 16.1797 26.3281L11.1797 21.3281C10.4453 20.5938 10.4453 19.4062 11.1797 18.6797C11.9141 17.9531 13.1016 17.9453 13.8281 18.6797L17.5 22.3516L26.1719 13.6719C26.9062 12.9375 28.0938 12.9375 28.8203 13.6719C29.5469 14.4062 29.5547 15.5937 28.8203 16.3203L28.8281 16.3281Z" fill="current"/>
</g>
<defs>
<clipPath id="clip0_736_14835">
<rect width="40" height="40" fill="current"/>
</clipPath>
</defs>
</svg>
