<svg width="40" height="40" viewBox="0 0 40 40" fill="current" xmlns="http://www.w3.org/2000/svg">
<g clip-path="url(#clip0_1141_14919)">
<path d="M20 40C31.0469 40 40 31.0469 40 20C40 8.95312 31.0469 0 20 0C8.95312 0 0 8.95312 0 20C0 31.0469 8.95312 40 20 40ZM17.3984 13.1797L15.5078 14.6172C14.6875 15.2422 13.5078 15.0859 12.8828 14.2656C12.2578 13.4453 12.4141 12.2656 13.2344 11.6406L15.125 10.2031C16.3594 9.26562 17.875 8.76562 19.4297 8.78906L19.6953 8.79688C23.3281 8.85156 26.2422 11.8125 26.2422 15.4453C26.2422 17.2812 25.4844 19.0391 24.1406 20.2969L19.1172 25H25.625C26.6641 25 27.5 25.8359 27.5 26.875C27.5 27.9141 26.6641 28.75 25.625 28.75H14.375C13.6094 28.75 12.9141 28.2812 12.6328 27.5625C12.3516 26.8438 12.5313 26.0312 13.0938 25.5078L21.5859 17.5469C22.1719 17 22.5 16.2344 22.5 15.4297C22.5 13.8438 21.2266 12.5547 19.6406 12.5312L19.375 12.5234C18.6641 12.5156 17.9688 12.7422 17.3984 13.1719V13.1797Z" fill="current"/>
</g>
<defs>
<clipPath id="clip0_1141_14919">
<rect width="40" height="40" fill="current"/>
</clipPath>
</defs>
</svg>
