<svg width="40" height="40" viewBox="0 0 40 40" fill="none" xmlns="http://www.w3.org/2000/svg">
<g clip-path="url(#clip0_2916_46142)">
<path d="M19.0469 26.5469C18.1953 27.3984 16.8047 27.3984 15.9531 26.5469L10.9531 21.5469C10.1016 20.6953 10.1016 19.3047 10.9531 18.4531C11.8047 17.6016 13.1953 17.6016 14.0469 18.4531L17.5 21.9062L25.9531 13.4531C26.8047 12.6016 28.1953 12.6016 29.0469 13.4531C29.8984 14.3047 29.8984 15.6953 29.0469 16.5469L19.0469 26.5469ZM40 20C40 31.0469 31.0469 40 20 40C8.95313 40 0 31.0469 0 20C0 8.95313 8.95313 0 20 0C31.0469 0 40 8.95313 40 20ZM20 3.75C11.0234 3.75 3.75 11.0234 3.75 20C3.75 28.9766 11.0234 36.25 20 36.25C28.9766 36.25 36.25 28.9766 36.25 20C36.25 11.0234 28.9766 3.75 20 3.75Z" fill="#B3B3C3"/>
</g>
<defs>
<clipPath id="clip0_2916_46142">
<rect width="40" height="40" fill="white"/>
</clipPath>
</defs>
</svg>
