<svg width="81" height="80" viewBox="0 0 81 80" fill="none" xmlns="http://www.w3.org/2000/svg">
<g clip-path="url(#clip0_3387_64685)">
<path d="M40.5 0C18.4062 0 0.5 17.9062 0.5 40C0.5 62.0938 18.4062 80 40.5 80C62.5938 80 80.5 62.0938 80.5 40C80.5 17.9062 62.5938 0 40.5 0ZM40.5 72.5C22.5781 72.5 8 57.9203 8 40C8 22.0797 22.5781 7.5 40.5 7.5C58.4219 7.5 73 22.0797 73 40C73 57.9203 58.4219 72.5 40.5 72.5Z" fill="#2D253F"/>
<path d="M41.4125 45.5C43.4828 45.5 45.1625 43.8203 45.1625 41.75V21.75C45.1625 19.6875 43.4906 18 41.4125 18C39.3344 18 37.6625 19.6875 37.6625 21.75V41.75C37.6625 43.8281 39.35 45.5 41.4125 45.5ZM41.4125 50.6719C38.7 50.6719 36.5 52.8719 36.5 55.5844C36.5062 58.2969 38.6937 60.5 41.4125 60.5C44.1312 60.5 46.325 58.3 46.325 55.5875C46.3187 52.875 44.1312 50.6719 41.4125 50.6719Z" fill="#C9851E"/>
</g>
<defs>
<clipPath id="clip0_3387_64685">
<rect width="80" height="80" fill="white" transform="translate(0.5)"/>
</clipPath>
</defs>
</svg>
