<svg width="40" height="40" viewBox="0 0 40 40" fill="current" xmlns="http://www.w3.org/2000/svg">
<g clip-path="url(#clip0_1585_24501)">
<path d="M0 20C0 31.0469 8.95312 40 20 40C31.0469 40 40 31.0469 40 20C40 8.95312 31.0469 0 20 0C8.95312 0 0 8.95312 0 20ZM18.8281 29.4531C18.0938 30.1875 16.9062 30.1875 16.1797 29.4531C15.4531 28.7188 15.4453 27.5312 16.1797 26.8047L22.9766 20.0078L16.1797 13.2109C15.4453 12.4766 15.4453 11.2891 16.1797 10.5625C16.9141 9.83594 18.1016 9.82812 18.8281 10.5625L26.9531 18.6719C27.6875 19.4062 27.6875 20.5938 26.9531 21.3203L18.8281 29.4531Z" fill="current"/>
</g>
<defs>
<clipPath id="clip0_1585_24501">
<rect width="40" height="40" fill="current"/>
</clipPath>
</defs>
</svg>
