<svg width="48" height="48" viewBox="0 0 48 48" fill="none" xmlns="http://www.w3.org/2000/svg">
<g clip-path="url(#clip0_30995_49509)">
<path d="M0 24C0 30.3652 2.52856 36.4697 7.02944 40.9706C11.5303 45.4714 17.6348 48 24 48C30.3652 48 36.4697 45.4714 40.9706 40.9706C45.4714 36.4697 48 30.3652 48 24C48 17.6348 45.4714 11.5303 40.9706 7.02944C36.4697 2.52856 30.3652 0 24 0C17.6348 0 11.5303 2.52856 7.02944 7.02944C2.52856 11.5303 0 17.6348 0 24ZM27.8438 36.0938C26.9625 36.975 25.5375 36.975 24.6656 36.0938C23.7938 35.2125 23.7844 33.7875 24.6656 32.9156L31.3219 26.2594L11.25 26.25C10.0031 26.25 9 25.2469 9 24C9 22.7531 10.0031 21.75 11.25 21.75H31.3219L24.6656 15.0938C23.7844 14.2125 23.7844 12.7875 24.6656 11.9156C25.5469 11.0437 26.9719 11.0344 27.8438 11.9156L38.3438 22.4062C39.225 23.2875 39.225 24.7125 38.3438 25.5844L27.8438 36.0938Z" fill="#2E2640"/>
</g>
<defs>
<clipPath id="clip0_30995_49509">
<rect width="48" height="48" fill="white"/>
</clipPath>
</defs>
</svg>
