<svg width="40" height="40" viewBox="0 0 40 40" fill="none" xmlns="http://www.w3.org/2000/svg">
<g clip-path="url(#clip0_957_14277)">
<path d="M20 0C8.95312 0 0 8.95312 0 20C0 31.0469 8.95312 40 20 40C31.0469 40 40 31.0469 40 20C40 8.95312 31.0469 0 20 0ZM20 36.25C11.0391 36.25 3.75 28.9602 3.75 20C3.75 11.0398 11.0391 3.75 20 3.75C28.9609 3.75 36.25 11.0398 36.25 20C36.25 28.9602 28.9609 36.25 20 36.25Z" fill="#2D253F"/>
<path d="M23.125 26.25H21.875V19.375C21.875 18.3438 21.0391 17.5 20 17.5H17.5C16.4688 17.5 15.625 18.3438 15.625 19.375C15.625 20.4062 16.4688 21.25 17.5 21.25H18.125V26.25H16.875C15.8438 26.25 15 27.0938 15 28.125C15 29.1562 15.8438 30 16.875 30H23.125C24.1602 30 25 29.1602 25 28.125C25 27.0898 24.1641 26.25 23.125 26.25ZM20 15C21.3805 15 22.5 13.8805 22.5 12.5C22.5 11.1195 21.3805 10 20 10C18.6195 10 17.5 11.1172 17.5 12.5C17.5 13.8828 18.6172 15 20 15Z" fill="#029BED"/>
</g>
<defs>
<clipPath id="clip0_957_14277">
<rect width="40" height="40" fill="white"/>
</clipPath>
</defs>
</svg>
