<svg width="33" height="32" viewBox="0 0 33 32" fill="none" xmlns="http://www.w3.org/2000/svg">
<g clip-path="url(#clip0_8836_145821)">
<path d="M29.5 16C29.5 19.4478 28.1304 22.7544 25.6924 25.1924C23.2544 27.6304 19.9478 29 16.5 29C13.0522 29 9.74558 27.6304 7.30761 25.1924C4.86964 22.7544 3.5 19.4478 3.5 16C3.5 12.5522 4.86964 9.24558 7.30761 6.80761C9.74558 4.36964 13.0522 3 16.5 3C19.9478 3 23.2544 4.36964 25.6924 6.80761C28.1304 9.24558 29.5 12.5522 29.5 16ZM0.5 16C0.5 20.2435 2.18571 24.3131 5.18629 27.3137C8.18687 30.3143 12.2565 32 16.5 32C20.7435 32 24.8131 30.3143 27.8137 27.3137C30.8143 24.3131 32.5 20.2435 32.5 16C32.5 11.7565 30.8143 7.68687 27.8137 4.68629C24.8131 1.68571 20.7435 0 16.5 0C12.2565 0 8.18687 1.68571 5.18629 4.68629C2.18571 7.68687 0.5 11.7565 0.5 16ZM18.9125 8.44375C18.65 8.1625 18.2812 8 17.8937 8C17.125 8 16.5 8.625 16.5 9.39375V13H10.5C9.39375 13 8.5 13.8938 8.5 15V17C8.5 18.1063 9.39375 19 10.5 19H16.5V22.6063C16.5 23.375 17.125 24 17.8937 24C18.2812 24 18.65 23.8375 18.9125 23.5562L25.1562 16.8625C25.375 16.625 25.5 16.3188 25.5 16C25.5 15.6812 25.375 15.3687 25.1562 15.1375L18.9125 8.44375Z" fill="#2E2640"/>
</g>
<defs>
<clipPath id="clip0_8836_145821">
<rect width="32" height="32" fill="white" transform="translate(0.5)"/>
</clipPath>
</defs>
</svg>
