<svg width="40" height="40" viewBox="0 0 40 40" fill="none" xmlns="http://www.w3.org/2000/svg">
<g clip-path="url(#clip0_2916_46154)">
<path d="M20 3.75C24.3098 3.75 28.443 5.46205 31.4905 8.50951C34.538 11.557 36.25 15.6902 36.25 20C36.25 24.3098 34.538 28.443 31.4905 31.4905C28.443 34.538 24.3098 36.25 20 36.25C15.6902 36.25 11.557 34.538 8.50951 31.4905C5.46205 28.443 3.75 24.3098 3.75 20C3.75 15.6902 5.46205 11.557 8.50951 8.50951C11.557 5.46205 15.6902 3.75 20 3.75ZM20 40C25.3043 40 30.3914 37.8929 34.1421 34.1421C37.8929 30.3914 40 25.3043 40 20C40 14.6957 37.8929 9.60859 34.1421 5.85786C30.3914 2.10714 25.3043 0 20 0C14.6957 0 9.60859 2.10714 5.85786 5.85786C2.10714 9.60859 0 14.6957 0 20C0 25.3043 2.10714 30.3914 5.85786 34.1421C9.60859 37.8929 14.6957 40 20 40ZM16.875 26.25C15.8359 26.25 15 27.0859 15 28.125C15 29.1641 15.8359 30 16.875 30H23.125C24.1641 30 25 29.1641 25 28.125C25 27.0859 24.1641 26.25 23.125 26.25H22.5V19.375C22.5 18.3359 21.6641 17.5 20.625 17.5H16.875C15.8359 17.5 15 18.3359 15 19.375C15 20.4141 15.8359 21.25 16.875 21.25H18.75V26.25H16.875ZM20 15C20.663 15 21.2989 14.7366 21.7678 14.2678C22.2366 13.7989 22.5 13.163 22.5 12.5C22.5 11.837 22.2366 11.2011 21.7678 10.7322C21.2989 10.2634 20.663 10 20 10C19.337 10 18.7011 10.2634 18.2322 10.7322C17.7634 11.2011 17.5 11.837 17.5 12.5C17.5 13.163 17.7634 13.7989 18.2322 14.2678C18.7011 14.7366 19.337 15 20 15Z" fill="#B3B3C3"/>
</g>
<defs>
<clipPath id="clip0_2916_46154">
<rect width="40" height="40" fill="white"/>
</clipPath>
</defs>
</svg>
