<svg width="24" height="24" viewBox="0 0 24 24" fill="none" xmlns="http://www.w3.org/2000/svg">
<g clip-path="url(#clip0_27198_70207)">
<path d="M0 12C0 15.1826 1.26428 18.2348 3.51472 20.4853C5.76516 22.7357 8.8174 24 12 24C15.1826 24 18.2348 22.7357 20.4853 20.4853C22.7357 18.2348 24 15.1826 24 12C24 8.8174 22.7357 5.76516 20.4853 3.51472C18.2348 1.26428 15.1826 0 12 0C8.8174 0 5.76516 1.26428 3.51472 3.51472C1.26428 5.76516 0 8.8174 0 12ZM6.02344 17.0625L6.72656 14.2453C6.79219 13.9828 6.92812 13.7391 7.12031 13.5469L12.0516 8.61563L15.3797 11.9438L10.4484 16.8703C10.2562 17.0625 10.0172 17.1984 9.75 17.2641L6.93281 17.9672C6.675 18.0328 6.40781 17.9578 6.22031 17.7703C6.03281 17.5828 5.95781 17.3156 6.02344 17.0578V17.0625ZM13.1156 7.55156L14.1188 6.54844C14.85 5.81719 16.0359 5.81719 16.7719 6.54844L17.4469 7.22344C17.8125 7.58906 17.9953 8.06719 17.9953 8.55C17.9953 9.03281 17.8125 9.51094 17.4469 9.87656L16.4437 10.8797L13.1156 7.55156Z" fill="white"/>
<path d="M14.1188 6.54844L13.1156 7.55156L16.4438 10.8797L17.4469 9.87656C18.1782 9.14531 18.1782 7.95938 17.4469 7.22344L16.7719 6.54844C16.0406 5.81719 14.8547 5.81719 14.1188 6.54844ZM12.0563 8.61094L7.12034 13.5469C6.92815 13.7391 6.79221 13.9781 6.72659 14.2453L6.02346 17.0625C5.95784 17.3203 6.03284 17.5875 6.22034 17.775C6.40784 17.9625 6.67502 18.0375 6.93284 17.9719L9.75002 17.2687C10.0125 17.2031 10.2563 17.0672 10.4485 16.875L15.3797 11.9391L12.0516 8.61094H12.0563Z" fill="#FF4545"/>
</g>
<defs>
<clipPath id="clip0_27198_70207">
<rect width="24" height="24" fill="white"/>
</clipPath>
</defs>
</svg>
