<svg width="24" height="24" viewBox="0 0 24 24" fill="none" xmlns="http://www.w3.org/2000/svg">
<g clip-path="url(#clip0_27151_9647)">
<path d="M0 12C0 15.1826 1.26428 18.2348 3.51472 20.4853C5.76516 22.7357 8.8174 24 12 24C15.1826 24 18.2348 22.7357 20.4853 20.4853C22.7357 18.2348 24 15.1826 24 12C24 8.8174 22.7357 5.76516 20.4853 3.51472C18.2348 1.26428 15.1826 0 12 0C8.8174 0 5.76516 1.26428 3.51472 3.51472C1.26428 5.76516 0 8.8174 0 12ZM8.25 7.875C8.25 7.46719 8.47031 7.09219 8.82656 6.89531C9 6.80156 9.1875 6.75 9.375 6.75C9.57656 6.75 9.78281 6.80625 9.96094 6.91406L16.7109 11.0391C17.0438 11.2453 17.25 11.6062 17.25 12C17.25 12.3938 17.0438 12.7547 16.7109 12.9609L9.96094 17.0859C9.61406 17.2969 9.17812 17.3062 8.82187 17.1094C8.46562 16.9125 8.24531 16.5375 8.24531 16.1297V7.87969L8.25 7.875Z" fill="white"/>
<path d="M9.96099 6.91404C9.61411 6.7031 9.17817 6.69373 8.82192 6.8906C8.46567 7.08748 8.24536 7.46717 8.24536 7.87029V16.1203C8.24536 16.5281 8.46567 16.9031 8.82192 17.1C9.17817 17.2969 9.60942 17.2922 9.96099 17.0765L16.711 12.9515C17.0438 12.7453 17.25 12.3844 17.25 11.9906C17.25 11.5969 17.0438 11.2359 16.711 11.0297L9.96099 6.90467V6.91404Z" fill="#FF4545"/>
</g>
<defs>
<clipPath id="clip0_27151_9647">
<rect width="24" height="24" fill="white"/>
</clipPath>
</defs>
</svg>
