<svg width="40" height="40" viewBox="0 0 40 40" fill="none" xmlns="http://www.w3.org/2000/svg">
<g clip-path="url(#clip0_1141_14967)">
<path d="M27.5 23.4375C27.5 27.0547 24.5547 30 20.9375 30H17.4531C15.2477 30 13.2969 28.6641 12.5992 26.5016C12.272 25.518 12.803 24.4555 13.7859 24.1281C14.7656 23.8125 15.8281 24.3359 16.1563 25.3125C16.3438 25.875 16.8594 26.25 17.4531 26.25H20.9375C22.4875 26.25 23.75 24.9875 23.75 23.4375C23.75 21.8875 22.4844 20.625 20.9375 20.625H16.875C16.1023 20.625 15.4078 20.1514 15.1266 19.4289C14.8437 18.7109 15.0391 17.8906 15.6094 17.3672L19.5547 13.75H14.375C13.3438 13.75 12.5 12.9141 12.5 11.875C12.5 10.8359 13.3438 10 14.375 10H24.375C25.1477 10 25.8422 10.4736 26.1234 11.1961C26.403 11.9163 26.2126 12.7344 25.6425 13.257L21.6563 16.9141C24.9375 17.2734 27.5 20.0625 27.5 23.4375Z" fill="#E84A4A"/>
<path d="M20 0C8.95312 0 0 8.95312 0 20C0 31.0469 8.95312 40 20 40C31.0469 40 40 31.0469 40 20C40 8.95312 31.0469 0 20 0ZM20.9375 30H17.4531C15.2477 30 13.2969 28.5938 12.5992 26.5016C12.272 25.518 12.803 24.4555 13.7859 24.1281C14.7656 23.8125 15.8281 24.3359 16.1562 25.3125C16.3438 25.875 16.8594 26.25 17.4531 26.25H20.9375C22.4875 26.25 23.75 24.9875 23.75 23.4375C23.75 21.8875 22.4844 20.625 20.9375 20.625H16.875C16.1023 20.625 15.4078 20.1514 15.1266 19.4289C14.8438 18.7109 15.0391 17.8906 15.6094 17.3672L19.5547 13.75H14.375C13.3438 13.75 12.5 12.9141 12.5 11.875C12.5 10.8359 13.3438 10 14.375 10H24.375C25.1477 10 25.8422 10.4736 26.1234 11.1961C26.403 11.9163 26.2126 12.7344 25.6425 13.257L21.6562 16.9141C24.9375 17.2734 27.5 20.0625 27.5 23.4375C27.5 27.0547 24.5547 30 20.9375 30Z" fill="white"/>
</g>
<defs>
<clipPath id="clip0_1141_14967">
<rect width="40" height="40" fill="white"/>
</clipPath>
</defs>
</svg>
