<svg width="48" height="48" viewBox="0 0 48 48" fill="none" xmlns="http://www.w3.org/2000/svg">
<g clip-path="url(#clip0_30995_49514)">
<path d="M43.5 24C43.5 29.1717 41.4455 34.1316 37.7886 37.7886C34.1316 41.4455 29.1717 43.5 24 43.5C18.8283 43.5 13.8684 41.4455 10.2114 37.7886C6.55446 34.1316 4.5 29.1717 4.5 24C4.5 18.8283 6.55446 13.8684 10.2114 10.2114C13.8684 6.55446 18.8283 4.5 24 4.5C29.1717 4.5 34.1316 6.55446 37.7886 10.2114C41.4455 13.8684 43.5 18.8283 43.5 24ZM0 24C0 30.3652 2.52856 36.4697 7.02944 40.9706C11.5303 45.4714 17.6348 48 24 48C30.3652 48 36.4697 45.4714 40.9706 40.9706C45.4714 36.4697 48 30.3652 48 24C48 17.6348 45.4714 11.5303 40.9706 7.02944C36.4697 2.52856 30.3652 0 24 0C17.6348 0 11.5303 2.52856 7.02944 7.02944C2.52856 11.5303 0 17.6348 0 24ZM28.5938 33.8438L36.8438 25.5938C37.725 24.7125 37.725 23.2875 36.8438 22.4156L28.5938 14.1656C27.7125 13.2844 26.2875 13.2844 25.4156 14.1656C24.5438 15.0469 24.5344 16.4719 25.4156 17.3438L29.8219 21.75H12.75C11.5031 21.75 10.5 22.7531 10.5 24C10.5 25.2469 11.5031 26.25 12.75 26.25H29.8219L25.4156 30.6562C24.5344 31.5375 24.5344 32.9625 25.4156 33.8344C26.2969 34.7062 27.7219 34.7156 28.5938 33.8344V33.8438Z" fill="#B3B3C3"/>
</g>
<defs>
<clipPath id="clip0_30995_49514">
<rect width="48" height="48" fill="white"/>
</clipPath>
</defs>
</svg>
