<svg width="24" height="24" viewBox="0 0 24 24" fill="none" xmlns="http://www.w3.org/2000/svg">
<g clip-path="url(#clip0_27198_70194)">
<path d="M21.75 12C21.75 9.41414 20.7228 6.93419 18.8943 5.10571C17.0658 3.27723 14.5859 2.25 12 2.25C9.41414 2.25 6.93419 3.27723 5.10571 5.10571C3.27723 6.93419 2.25 9.41414 2.25 12C2.25 14.5859 3.27723 17.0658 5.10571 18.8943C6.93419 20.7228 9.41414 21.75 12 21.75C14.5859 21.75 17.0658 20.7228 18.8943 18.8943C20.7228 17.0658 21.75 14.5859 21.75 12ZM0 12C0 8.8174 1.26428 5.76516 3.51472 3.51472C5.76516 1.26428 8.8174 0 12 0C15.1826 0 18.2348 1.26428 20.4853 3.51472C22.7357 5.76516 24 8.8174 24 12C24 15.1826 22.7357 18.2348 20.4853 20.4853C18.2348 22.7357 15.1826 24 12 24C8.8174 24 5.76516 22.7357 3.51472 20.4853C1.26428 18.2348 0 15.1826 0 12ZM16.7719 6.54844L17.4469 7.22344C18.1781 7.95469 18.1781 9.14062 17.4469 9.87656L16.4437 10.8797L13.1156 7.55156L14.1188 6.54844C14.85 5.81719 16.0359 5.81719 16.7719 6.54844ZM7.12031 13.5469L12.0516 8.61563L15.3797 11.9438L10.4484 16.8703C10.2562 17.0625 10.0172 17.1984 9.75 17.2641L6.93281 17.9672C6.675 18.0328 6.40781 17.9578 6.22031 17.7703C6.03281 17.5828 5.95781 17.3156 6.02344 17.0578L6.72656 14.2406C6.79219 13.9781 6.92812 13.7344 7.12031 13.5422V13.5469Z" fill="#B3B3C3"/>
</g>
<defs>
<clipPath id="clip0_27198_70194">
<rect width="24" height="24" fill="white"/>
</clipPath>
</defs>
</svg>
