<svg width="40" height="40" viewBox="0 0 40 40" fill="current" xmlns="http://www.w3.org/2000/svg">
<g clip-path="url(#clip0_957_14219)">
<path d="M20 40C31.0469 40 40 31.0469 40 20C40 8.95312 31.0469 0 20 0C8.95312 0 0 8.95312 0 20C0 31.0469 8.95312 40 20 40ZM14.5547 10.6641L20 17.0938L25.4453 10.6641C26.1172 9.875 27.2969 9.77344 28.0859 10.4453C28.875 11.1172 28.9766 12.2969 28.3047 13.0859L22.4531 20L28.3047 26.9141C28.9766 27.7031 28.875 28.8906 28.0859 29.5547C27.2969 30.2188 26.1094 30.125 25.4453 29.3359L20 22.9062L14.5547 29.3359C13.8828 30.125 12.7031 30.2266 11.9141 29.5547C11.125 28.8828 11.0234 27.7031 11.6953 26.9141L17.5469 20L11.6953 13.0859C11.0234 12.2969 11.125 11.1094 11.9141 10.4453C12.7031 9.78125 13.8906 9.875 14.5547 10.6641Z" fill="current"/>
</g>
<defs>
<clipPath id="clip0_957_14219">
<rect width="40" height="40" fill="current"/>
</clipPath>
</defs>
</svg>
