<svg width="40" height="40" viewBox="0 0 40 40" fill="current" xmlns="http://www.w3.org/2000/svg">
<g clip-path="url(#clip0_1141_14984)">
<path d="M20 40C31.0469 40 40 31.0469 40 20C40 8.95312 31.0469 0 20 0C8.95312 0 0 8.95312 0 20C0 31.0469 8.95312 40 20 40ZM14.375 10H24.375C25.1484 10 25.8438 10.4766 26.125 11.1953C26.4062 11.9141 26.2109 12.7344 25.6406 13.2578L21.6719 16.8906C24.9453 17.2656 27.5 20.0469 27.5 23.4219C27.5 27.0547 24.5547 30 20.9219 30H18.75C16.3984 30 14.2109 28.7812 12.9766 26.7812L12.7734 26.4531C12.2266 25.5703 12.5 24.4141 13.3828 23.875C14.2656 23.3359 15.4219 23.6016 15.9609 24.4844L16.1641 24.8125C16.7188 25.7109 17.6953 26.25 18.7422 26.25H20.9141C22.4766 26.25 23.7422 24.9844 23.7422 23.4219C23.7422 21.8516 22.4688 20.5859 20.8984 20.5938L16.875 20.6172C16.1016 20.625 15.3984 20.1484 15.1172 19.4297C14.8359 18.7109 15.0234 17.8828 15.5938 17.3594L19.5547 13.75H14.375C13.3359 13.75 12.5 12.9141 12.5 11.875C12.5 10.8359 13.3359 10 14.375 10Z" fill="current"/>
</g>
<defs>
<clipPath id="clip0_1141_14984">
<rect width="40" height="40" fill="current"/>
</clipPath>
</defs>
</svg>
