<svg width="40" height="40" viewBox="0 0 40 40" fill="none" xmlns="http://www.w3.org/2000/svg">
<g clip-path="url(#clip0_957_14221)">
<path d="M28.0862 10.4453C27.2963 9.77513 26.1112 9.87521 25.4432 10.6662L20.0002 17.0937L14.5549 10.664C13.8908 9.87498 12.7033 9.77342 11.9143 10.4453C11.1252 11.1094 11.0237 12.2969 11.6955 13.0859L17.5471 20L11.6971 26.914C11.0282 27.7039 11.127 28.8883 11.918 29.557C12.2658 29.8515 12.6955 30 13.0549 30C13.5871 30 14.1166 29.7741 14.4877 29.3359L20.0002 22.9062L25.4432 29.339C25.8127 29.7734 26.344 30 26.8752 30C27.3025 30 27.733 29.8547 28.0846 29.5569C28.8752 28.8879 28.9744 27.7037 28.3055 26.9139L22.4533 20L28.3033 13.0859C28.9768 12.2969 28.8752 11.1094 28.0862 10.4453Z" fill="#E84A4A"/>
<path d="M20 0C8.95312 0 0 8.95312 0 20C0 31.0469 8.95312 40 20 40C31.0469 40 40 31.0469 40 20C40 8.95312 31.0469 0 20 0ZM28.3047 26.9141C28.9736 27.7039 28.8748 28.8883 28.0837 29.557C27.7344 29.8516 27.3047 30 26.875 30C26.3428 30 25.8133 29.7741 25.4422 29.3359L20 22.9062L14.5547 29.3359C14.1875 29.7734 13.6562 30 13.0547 30C12.6953 30 12.2656 29.8516 11.9141 29.5547C11.1234 28.8858 11.0242 27.7016 11.6931 26.9117L17.5469 20L11.6953 13.0859C11.0234 12.2969 11.125 11.1094 11.9141 10.4453C12.7031 9.77344 13.8906 9.875 14.5547 10.6641L20 17.0938L25.443 10.6609C26.1107 9.87031 27.2961 9.76953 28.0859 10.44C28.8766 11.1089 28.9758 12.2931 28.3069 13.083L22.4531 20L28.3047 26.9141Z" fill="white"/>
</g>
<defs>
<clipPath id="clip0_957_14221">
<rect width="40" height="40" fill="white"/>
</clipPath>
</defs>
</svg>
