<svg width="40" height="40" viewBox="0 0 40 40" fill="none" xmlns="http://www.w3.org/2000/svg">
<path d="M3.03773 20C3.03773 12.7284 8.92967 6.83644 16.2013 6.83644C21.5236 6.83644 26.1182 10.0007 28.1876 14.551C28.5357 15.3168 29.4344 15.6522 30.2001 15.3041C30.9659 14.9561 31.3013 14.0574 30.9532 13.2916C28.4028 7.69713 22.7577 3.79871 16.2013 3.79871C7.25259 3.79871 0 11.0513 0 20C0 28.9486 7.25259 36.2012 16.2013 36.2012C20.8148 36.2012 24.9854 34.271 27.9345 31.1763C28.5104 30.5687 28.4914 29.6068 27.8839 29.0309C27.2763 28.455 26.3144 28.474 25.7385 29.0815C23.3336 31.594 19.9541 33.1635 16.2013 33.1635C8.92967 33.1635 3.03773 27.2715 3.03773 20ZM17.7201 13.4182C17.7201 12.5765 17.043 11.8993 16.2013 11.8993C15.3595 11.8993 14.6824 12.5765 14.6824 13.4182V20.5062C14.6824 21.3479 15.3595 22.0251 16.2013 22.0251C17.043 22.0251 17.7201 21.3479 17.7201 20.5062V13.4182ZM16.2013 28.1006C16.7384 28.1006 17.2535 27.8872 17.6333 27.5074C18.013 27.1276 18.2264 26.6125 18.2264 26.0754C18.2264 25.5383 18.013 25.0232 17.6333 24.6434C17.2535 24.2636 16.7384 24.0503 16.2013 24.0503C15.6641 24.0503 15.149 24.2636 14.7692 24.6434C14.3895 25.0232 14.1761 25.5383 14.1761 26.0754C14.1761 26.6125 14.3895 27.1276 14.7692 27.5074C15.149 27.8872 15.6641 28.1006 16.2013 28.1006ZM39.5538 14.8738C38.9589 14.2789 37.997 14.2789 37.4084 14.8738L30.3837 21.8985L27.4092 18.9241C26.8143 18.3292 25.8524 18.3292 25.2638 18.9241C24.6753 19.519 24.6689 20.4809 25.2638 21.0695L29.3141 25.1198C29.909 25.7147 30.871 25.7147 31.4595 25.1198L39.5538 17.0255C40.1487 16.4306 40.1487 15.4687 39.5538 14.8801V14.8738Z" fill="#B3B3C3"/>
</svg>
