<svg width="40" height="40" viewBox="0 0 40 40" fill="none" xmlns="http://www.w3.org/2000/svg">
<path d="M13.8437 5.17969C14.3437 2.24219 16.9141 0 20 0C23.0859 0 25.6562 2.24219 26.1562 5.17969C27.6641 5.67188 28.75 7.08594 28.75 8.75V10.625C28.75 11.6641 27.9141 12.5 26.875 12.5H20H13.125C12.0859 12.5 11.25 11.6641 11.25 10.625V8.75C11.25 7.08594 12.3359 5.67188 13.8437 5.17969ZM21.875 6.25C21.875 5.75272 21.6775 5.27581 21.3258 4.92417C20.9742 4.57254 20.4973 4.375 20 4.375C19.5027 4.375 19.0258 4.57254 18.6742 4.92417C18.3225 5.27581 18.125 5.75272 18.125 6.25C18.125 6.74728 18.3225 7.22419 18.6742 7.57583C19.0258 7.92746 19.5027 8.125 20 8.125C20.4973 8.125 20.9742 7.92746 21.3258 7.57583C21.6775 7.22419 21.875 6.74728 21.875 6.25ZM10.625 21.25C10.625 20.7527 10.8225 20.2758 11.1742 19.9242C11.5258 19.5725 12.0027 19.375 12.5 19.375C12.9973 19.375 13.4742 19.5725 13.8258 19.9242C14.1775 20.2758 14.375 20.7527 14.375 21.25C14.375 21.7473 14.1775 22.2242 13.8258 22.5758C13.4742 22.9275 12.9973 23.125 12.5 23.125C12.0027 23.125 11.5258 22.9275 11.1742 22.5758C10.8225 22.2242 10.625 21.7473 10.625 21.25ZM10.625 28.75C10.625 28.2527 10.8225 27.7758 11.1742 27.4242C11.5258 27.0725 12.0027 26.875 12.5 26.875C12.9973 26.875 13.4742 27.0725 13.8258 27.4242C14.1775 27.7758 14.375 28.2527 14.375 28.75C14.375 29.2473 14.1775 29.7242 13.8258 30.0758C13.4742 30.4275 12.9973 30.625 12.5 30.625C12.0027 30.625 11.5258 30.4275 11.1742 30.0758C10.8225 29.7242 10.625 29.2473 10.625 28.75Z" fill="#E84A4A"/>
<path d="M13.8438 5.17969C13.8516 5.11719 13.8672 5.05469 13.875 5H10C7.24219 5 5 7.24219 5 10V35C5 37.7578 7.24219 40 10 40H30C32.7578 40 35 37.7578 35 35V10C35 7.24219 32.7578 5 30 5H26.125C26.1406 5.0625 26.1484 5.125 26.1562 5.17969C27.6641 5.67188 28.75 7.08594 28.75 8.75V10.625C28.75 11.6641 27.9141 12.5 26.875 12.5H20H13.125C12.0859 12.5 11.25 11.6641 11.25 10.625V8.75C11.25 7.08594 12.3359 5.67188 13.8438 5.17969ZM10.625 21.25C10.625 20.7527 10.8225 20.2758 11.1742 19.9242C11.5258 19.5725 12.0027 19.375 12.5 19.375C12.9973 19.375 13.4742 19.5725 13.8258 19.9242C14.1775 20.2758 14.375 20.7527 14.375 21.25C14.375 21.7473 14.1775 22.2242 13.8258 22.5758C13.4742 22.9275 12.9973 23.125 12.5 23.125C12.0027 23.125 11.5258 22.9275 11.1742 22.5758C10.8225 22.2242 10.625 21.7473 10.625 21.25ZM18.75 20H28.75C29.4375 20 30 20.5625 30 21.25C30 21.9375 29.4375 22.5 28.75 22.5H18.75C18.0625 22.5 17.5 21.9375 17.5 21.25C17.5 20.5625 18.0625 20 18.75 20ZM10.625 28.75C10.625 28.2527 10.8225 27.7758 11.1742 27.4242C11.5258 27.0725 12.0027 26.875 12.5 26.875C12.9973 26.875 13.4742 27.0725 13.8258 27.4242C14.1775 27.7758 14.375 28.2527 14.375 28.75C14.375 29.2473 14.1775 29.7242 13.8258 30.0758C13.4742 30.4275 12.9973 30.625 12.5 30.625C12.0027 30.625 11.5258 30.4275 11.1742 30.0758C10.8225 29.7242 10.625 29.2473 10.625 28.75ZM17.5 28.75C17.5 28.0625 18.0625 27.5 18.75 27.5H28.75C29.4375 27.5 30 28.0625 30 28.75C30 29.4375 29.4375 30 28.75 30H18.75C18.0625 30 17.5 29.4375 17.5 28.75Z" fill="white"/>
</svg>
