<svg width="40" height="41" viewBox="0 0 40 41" fill="current" xmlns="http://www.w3.org/2000/svg">
<path d="M20 0.724243C16.7344 0.724243 13.9531 2.81018 12.9297 5.72424H10C7.24219 5.72424 5 7.96643 5 10.7242V35.7242C5 38.4821 7.24219 40.7242 10 40.7242H30C32.7578 40.7242 35 38.4821 35 35.7242V10.7242C35 7.96643 32.7578 5.72424 30 5.72424H27.0703C26.0469 2.81018 23.2656 0.724243 20 0.724243ZM20 10.7242C18.6172 10.7242 17.5 9.60706 17.5 8.22424C17.5 6.84143 18.6172 5.72424 20 5.72424C21.3828 5.72424 22.5 6.84143 22.5 8.22424C22.5 9.60706 21.3828 10.7242 20 10.7242ZM29.0469 22.2711L19.0469 32.2711C18.1953 33.1227 16.8047 33.1227 15.9531 32.2711L10.9531 27.2711C10.1016 26.4196 10.1016 25.0289 10.9531 24.1774C11.8047 23.3258 13.1953 23.3258 14.0469 24.1774L17.5 27.6305L25.9531 19.1774C26.8047 18.3258 28.1953 18.3258 29.0469 19.1774C29.8984 20.0289 29.8984 21.4196 29.0469 22.2711Z" fill="current"/>
</svg>
