<svg width="40" height="41" viewBox="0 0 40 41" fill="none" xmlns="http://www.w3.org/2000/svg">
<path d="M25 5.72424C25 2.96252 22.7617 0.724243 20 0.724243C17.2383 0.724243 15 2.96252 15 5.72424C12.2383 5.72424 10 7.96252 10 10.7242V11.9742C10 12.6617 10.5594 13.2242 11.25 13.2242H28.75C29.4375 13.2242 30 12.6617 30 11.9742V10.7242C30 7.96252 27.7578 5.72424 25 5.72424ZM20 7.59924C18.9609 7.59924 18.125 6.7594 18.125 5.72424C18.125 4.68831 18.9648 3.84924 20 3.84924C21.0352 3.84924 21.875 4.68831 21.875 5.72424C21.875 6.7594 21.0391 7.59924 20 7.59924ZM24.1484 20.193L18.4828 27.4024L15.5937 24.9274C14.8047 24.2555 13.625 24.3414 12.9531 25.1305C12.2793 25.9164 12.3696 27.1008 13.1558 27.7742L17.5308 31.5242C17.8672 31.7477 18.3047 31.9742 18.6797 31.9742C18.7407 31.9742 18.8017 31.9718 18.8628 31.9645C19.3719 31.9156 19.8378 31.6593 20.1542 31.2565L27.0292 22.5065C27.6689 21.6932 27.5273 20.5143 26.713 19.8745C25.9687 19.1696 24.7891 19.3805 24.1484 20.193Z" fill="#E84A4A"/>
<path d="M31.25 5.72424H25C27.7617 5.72424 30 7.96252 30 10.7242V11.9742C30 12.6617 29.4375 13.2242 28.75 13.2242H11.25C10.5594 13.2242 10 12.6617 10 11.9742V10.7242C10 7.96252 12.2383 5.72424 15 5.72424H8.75C6.67891 5.72424 5 7.40315 5 9.47424V36.9742C5 39.0446 6.67891 40.7242 8.75 40.7242H31.25C33.3211 40.7242 35 39.0453 35 36.9742V9.47424C35 7.40315 33.3203 5.72424 31.25 5.72424ZM27.1016 22.5055L20.2266 31.2555C19.9104 31.6583 19.4437 31.9147 18.9352 31.9635C18.875 31.9039 18.8125 31.9742 18.6797 31.9742C18.2341 31.9742 17.8008 31.8156 17.4594 31.5226L13.0844 27.7726C12.2984 27.0988 12.2078 25.9148 12.8817 25.1289C13.5543 24.3429 14.7387 24.2523 15.5255 24.9262L18.4145 27.402L24.0802 20.1926C24.7198 19.377 25.9005 19.2379 26.713 19.8753C27.6016 20.5133 27.7422 21.693 27.1016 22.5055Z" fill="#2D253F"/>
</svg>
