<svg width="40" height="41" viewBox="0 0 40 41" fill="none" xmlns="http://www.w3.org/2000/svg">
<g clip-path="url(#clip0_2872_46251)">
<path d="M30 5.72424H26.875H26.125C25.5469 2.87268 23.0234 0.724243 20 0.724243C16.9766 0.724243 14.4531 2.87268 13.875 5.72424H13.125H10C7.24219 5.72424 5 7.96643 5 10.7242V35.7242C5 38.4821 7.24219 40.7242 10 40.7242H30C32.7578 40.7242 35 38.4821 35 35.7242V10.7242C35 7.96643 32.7578 5.72424 30 5.72424ZM11.25 9.47424V11.3492C11.25 12.3883 12.0859 13.2242 13.125 13.2242H20H26.875C27.9141 13.2242 28.75 12.3883 28.75 11.3492V9.47424H30C30.6875 9.47424 31.25 10.0367 31.25 10.7242V35.7242C31.25 36.4117 30.6875 36.9742 30 36.9742H10C9.3125 36.9742 8.75 36.4117 8.75 35.7242V10.7242C8.75 10.0367 9.3125 9.47424 10 9.47424H11.25ZM18.125 6.97424C18.125 6.47696 18.3225 6.00005 18.6742 5.64842C19.0258 5.29679 19.5027 5.09924 20 5.09924C20.4973 5.09924 20.9742 5.29679 21.3258 5.64842C21.6775 6.00005 21.875 6.47696 21.875 6.97424C21.875 7.47152 21.6775 7.94844 21.3258 8.30007C20.9742 8.6517 20.4973 8.84924 20 8.84924C19.5027 8.84924 19.0258 8.6517 18.6742 8.30007C18.3225 7.94844 18.125 7.47152 18.125 6.97424ZM27.5781 21.6305C28.3125 20.8961 28.3125 19.7086 27.5781 18.9821C26.8438 18.2555 25.6563 18.2477 24.9297 18.9821L17.9219 25.9899L15.0781 23.1461C14.3438 22.4117 13.1562 22.4117 12.4297 23.1461C11.7031 23.8805 11.6953 25.068 12.4297 25.7946L16.5937 29.9586C16.9453 30.3102 17.4219 30.5055 17.9219 30.5055C18.4219 30.5055 18.8984 30.3102 19.25 29.9586L27.5781 21.6305Z" fill="#B3B3C3"/>
</g>
<defs>
<clipPath id="clip0_2872_46251">
<rect width="40" height="40" fill="white" transform="translate(0 0.724243)"/>
</clipPath>
</defs>
</svg>
