<svg width="18" height="24" viewBox="0 0 18 24" fill="none" xmlns="http://www.w3.org/2000/svg">
<g clip-path="url(#clip0_16012_21152)">
<path d="M5.30625 3.10781C5.31094 3.07031 5.32031 3.03281 5.325 3H3C1.34531 3 0 4.34531 0 6V21C0 22.6547 1.34531 24 3 24H15C16.6547 24 18 22.6547 18 21V6C18 4.34531 16.6547 3 15 3H12.675C12.6844 3.0375 12.6891 3.075 12.6937 3.10781C13.5984 3.40313 14.25 4.25156 14.25 5.25V6.375C14.25 6.99844 13.7484 7.5 13.125 7.5H9H4.875C4.25156 7.5 3.75 6.99844 3.75 6.375V5.25C3.75 4.25156 4.40156 3.40313 5.30625 3.10781ZM8.78437 10.7156C9.075 11.0063 9.075 11.4844 8.78437 11.775L5.78438 14.775C5.49375 15.0656 5.01562 15.0656 4.725 14.775L3.225 13.275C2.93438 12.9844 2.93438 12.5063 3.225 12.2156C3.51563 11.925 3.99375 11.925 4.28438 12.2156L5.25 13.1906L7.72031 10.7203C8.01094 10.4297 8.48906 10.4297 8.77969 10.7203L8.78437 10.7156ZM9 14.25C9 13.8375 9.3375 13.5 9.75 13.5H14.25C14.6625 13.5 15 13.8375 15 14.25C15 14.6625 14.6625 15 14.25 15H9.75C9.3375 15 9 14.6625 9 14.25ZM14.25 18C14.6625 18 15 18.3375 15 18.75C15 19.1625 14.6625 19.5 14.25 19.5H8.25C7.8375 19.5 7.5 19.1625 7.5 18.75C7.5 18.3375 7.8375 18 8.25 18H14.25ZM3.375 18.75C3.375 18.4516 3.49353 18.1655 3.7045 17.9545C3.91548 17.7435 4.20163 17.625 4.5 17.625C4.79837 17.625 5.08452 17.7435 5.2955 17.9545C5.50647 18.1655 5.625 18.4516 5.625 18.75C5.625 19.0484 5.50647 19.3345 5.2955 19.5455C5.08452 19.7565 4.79837 19.875 4.5 19.875C4.20163 19.875 3.91548 19.7565 3.7045 19.5455C3.49353 19.3345 3.375 19.0484 3.375 18.75Z" fill="white"/>
<path d="M5.30623 3.10781C5.60623 1.34531 7.14841 0 8.99998 0C10.8515 0 12.3937 1.34531 12.6937 3.10781C13.5984 3.40313 14.25 4.25156 14.25 5.25V6.375C14.25 6.99844 13.7484 7.5 13.125 7.5H8.99998H4.87498C4.25154 7.5 3.74998 6.99844 3.74998 6.375V5.25C3.74998 4.25156 4.40154 3.40313 5.30623 3.10781ZM10.125 3.75C10.125 3.45163 10.0064 3.16548 9.79547 2.9545C9.58449 2.74353 9.29834 2.625 8.99998 2.625C8.70161 2.625 8.41546 2.74353 8.20448 2.9545C7.9935 3.16548 7.87498 3.45163 7.87498 3.75C7.87498 4.04837 7.9935 4.33452 8.20448 4.5455C8.41546 4.75647 8.70161 4.875 8.99998 4.875C9.29834 4.875 9.58449 4.75647 9.79547 4.5455C10.0064 4.33452 10.125 4.04837 10.125 3.75ZM8.77966 10.7203C9.07029 11.0109 9.07029 11.4891 8.77966 11.7797L5.77966 14.7797C5.48904 15.0703 5.01091 15.0703 4.72029 14.7797L3.22029 13.2797C2.92966 12.9891 2.92966 12.5109 3.22029 12.2203C3.51091 11.9297 3.98904 11.9297 4.27966 12.2203L5.24998 13.1906L7.72029 10.7203C8.01091 10.4297 8.48904 10.4297 8.77966 10.7203ZM3.37498 18.75C3.37498 18.4516 3.4935 18.1655 3.70448 17.9545C3.91546 17.7435 4.20161 17.625 4.49998 17.625C4.79834 17.625 5.08449 17.7435 5.29547 17.9545C5.50645 18.1655 5.62498 18.4516 5.62498 18.75C5.62498 19.0484 5.50645 19.3345 5.29547 19.5455C5.08449 19.7565 4.79834 19.875 4.49998 19.875C4.20161 19.875 3.91546 19.7565 3.70448 19.5455C3.4935 19.3345 3.37498 19.0484 3.37498 18.75Z" fill="#FF4545"/>
</g>
<defs>
<clipPath id="clip0_16012_21152">
<rect width="18" height="24" fill="white"/>
</clipPath>
</defs>
</svg>
