<svg width="18" height="24" viewBox="0 0 18 24" fill="none" xmlns="http://www.w3.org/2000/svg">
<g clip-path="url(#clip0_16012_21092)">
<path d="M12.6937 3.10781C13.5984 3.40313 14.25 4.25156 14.25 5.25V6.375C14.25 6.99844 13.7484 7.5 13.125 7.5H9H4.875C4.25156 7.5 3.75 6.99844 3.75 6.375V5.25C3.75 4.25156 4.40156 3.40313 5.30625 3.10781C5.31094 3.07031 5.32031 3.03281 5.325 3H3C1.34531 3 0 4.34531 0 6V21C0 22.6547 1.34531 24 3 24H15C16.6547 24 18 22.6547 18 21V6C18 4.34531 16.6547 3 15 3H12.675C12.6844 3.0375 12.6891 3.075 12.6937 3.10781ZM4.95938 11.4937C5.32969 10.4484 6.32344 9.74531 7.43438 9.74531H10.1672C11.8031 9.74531 13.125 11.0719 13.125 12.7031C13.125 13.7625 12.5578 14.7422 11.6391 15.2719L10.125 16.1437C10.1156 16.7531 9.61406 17.25 9 17.25C8.37656 17.25 7.875 16.7484 7.875 16.125V15.4922C7.875 15.0891 8.09063 14.7188 8.44219 14.5172L10.5187 13.3266C10.7391 13.2 10.875 12.9656 10.875 12.7125C10.875 12.3188 10.5562 12.0047 10.1672 12.0047H7.43438C7.275 12.0047 7.13438 12.1031 7.08281 12.2531L7.06406 12.3094C6.85781 12.8953 6.21094 13.2 5.62969 12.9938C5.04844 12.7875 4.73906 12.1406 4.94531 11.5594L4.96406 11.5031L4.95938 11.4937ZM7.5 20.25C7.5 19.8522 7.65804 19.4706 7.93934 19.1893C8.22064 18.908 8.60218 18.75 9 18.75C9.39782 18.75 9.77936 18.908 10.0607 19.1893C10.342 19.4706 10.5 19.8522 10.5 20.25C10.5 20.6478 10.342 21.0294 10.0607 21.3107C9.77936 21.592 9.39782 21.75 9 21.75C8.60218 21.75 8.22064 21.592 7.93934 21.3107C7.65804 21.0294 7.5 20.6478 7.5 20.25Z" fill="white"/>
<path d="M12.6937 3.10781C13.5984 3.40313 14.25 4.25156 14.25 5.25V6.375C14.25 6.99844 13.7484 7.5 13.125 7.5H9H4.875C4.25156 7.5 3.75 6.99844 3.75 6.375V5.25C3.75 4.25156 4.40156 3.40313 5.30625 3.10781C5.60625 1.34531 7.14844 0 9 0C10.8516 0 12.3937 1.34531 12.6937 3.10781ZM10.125 3.75C10.125 3.45163 10.0065 3.16548 9.7955 2.9545C9.58452 2.74353 9.29837 2.625 9 2.625C8.70163 2.625 8.41548 2.74353 8.2045 2.9545C7.99353 3.16548 7.875 3.45163 7.875 3.75C7.875 4.04837 7.99353 4.33452 8.2045 4.5455C8.41548 4.75647 8.70163 4.875 9 4.875C9.29837 4.875 9.58452 4.75647 9.7955 4.5455C10.0065 4.33452 10.125 4.04837 10.125 3.75ZM4.95938 11.4984C5.32969 10.4531 6.32344 9.75 7.43438 9.75H10.1672C11.8031 9.75 13.125 11.0766 13.125 12.7078C13.125 13.7672 12.5578 14.7469 11.6391 15.2766L10.125 16.1437C10.1156 16.7531 9.61406 17.25 9 17.25C8.37656 17.25 7.875 16.7484 7.875 16.125V15.4922C7.875 15.0891 8.09063 14.7188 8.44219 14.5172L10.5187 13.3266C10.7391 13.2 10.875 12.9656 10.875 12.7125C10.875 12.3188 10.5562 12.0047 10.1672 12.0047H7.43438C7.275 12.0047 7.13438 12.1031 7.08281 12.2531L7.06406 12.3094C6.85781 12.8953 6.21094 13.2 5.62969 12.9938C5.04844 12.7875 4.73906 12.1406 4.94531 11.5594L4.96406 11.5031L4.95938 11.4984ZM7.5 20.25C7.5 19.8522 7.65804 19.4706 7.93934 19.1893C8.22064 18.908 8.60218 18.75 9 18.75C9.39782 18.75 9.77936 18.908 10.0607 19.1893C10.342 19.4706 10.5 19.8522 10.5 20.25C10.5 20.6478 10.342 21.0294 10.0607 21.3107C9.77936 21.592 9.39782 21.75 9 21.75C8.60218 21.75 8.22064 21.592 7.93934 21.3107C7.65804 21.0294 7.5 20.6478 7.5 20.25Z" fill="#FF4545"/>
</g>
<defs>
<clipPath id="clip0_16012_21092">
<rect width="18" height="24" fill="white"/>
</clipPath>
</defs>
</svg>
