<svg width="40" height="40" viewBox="0 0 40 40" fill="none" xmlns="http://www.w3.org/2000/svg">
<path d="M30 5H26.875H26.125C25.5469 2.14844 23.0234 0 20 0C16.9766 0 14.4531 2.14844 13.875 5H13.125H10C7.24219 5 5 7.24219 5 10V35C5 37.7578 7.24219 40 10 40H30C32.7578 40 35 37.7578 35 35V10C35 7.24219 32.7578 5 30 5ZM11.25 8.75V10.625C11.25 11.6641 12.0859 12.5 13.125 12.5H20H26.875C27.9141 12.5 28.75 11.6641 28.75 10.625V8.75H30C30.6875 8.75 31.25 9.3125 31.25 10V35C31.25 35.6875 30.6875 36.25 30 36.25H10C9.3125 36.25 8.75 35.6875 8.75 35V10C8.75 9.3125 9.3125 8.75 10 8.75H11.25ZM18.125 6.25C18.125 5.75272 18.3225 5.27581 18.6742 4.92417C19.0258 4.57254 19.5027 4.375 20 4.375C20.4973 4.375 20.9742 4.57254 21.3258 4.92417C21.6775 5.27581 21.875 5.75272 21.875 6.25C21.875 6.74728 21.6775 7.22419 21.3258 7.57583C20.9742 7.92746 20.4973 8.125 20 8.125C19.5027 8.125 19.0258 7.92746 18.6742 7.57583C18.3225 7.22419 18.125 6.74728 18.125 6.25ZM15.625 21.25C15.625 21.0038 15.5765 20.76 15.4823 20.5325C15.388 20.305 15.2499 20.0983 15.0758 19.9242C14.9017 19.7501 14.695 19.612 14.4675 19.5177C14.24 19.4235 13.9962 19.375 13.75 19.375C13.5038 19.375 13.26 19.4235 13.0325 19.5177C12.805 19.612 12.5983 19.7501 12.4242 19.9242C12.2501 20.0983 12.112 20.305 12.0177 20.5325C11.9235 20.76 11.875 21.0038 11.875 21.25C11.875 21.4962 11.9235 21.74 12.0177 21.9675C12.112 22.195 12.2501 22.4017 12.4242 22.5758C12.5983 22.7499 12.805 22.888 13.0325 22.9823C13.26 23.0765 13.5038 23.125 13.75 23.125C13.9962 23.125 14.24 23.0765 14.4675 22.9823C14.695 22.888 14.9017 22.7499 15.0758 22.5758C15.2499 22.4017 15.388 22.195 15.4823 21.9675C15.5765 21.74 15.625 21.4962 15.625 21.25ZM18.75 20C18.0625 20 17.5 20.5625 17.5 21.25C17.5 21.9375 18.0625 22.5 18.75 22.5H26.25C26.9375 22.5 27.5 21.9375 27.5 21.25C27.5 20.5625 26.9375 20 26.25 20H18.75ZM18.75 27.5C18.0625 27.5 17.5 28.0625 17.5 28.75C17.5 29.4375 18.0625 30 18.75 30H26.25C26.9375 30 27.5 29.4375 27.5 28.75C27.5 28.0625 26.9375 27.5 26.25 27.5H18.75ZM13.75 30.625C14.2473 30.625 14.7242 30.4275 15.0758 30.0758C15.4275 29.7242 15.625 29.2473 15.625 28.75C15.625 28.2527 15.4275 27.7758 15.0758 27.4242C14.7242 27.0725 14.2473 26.875 13.75 26.875C13.2527 26.875 12.7758 27.0725 12.4242 27.4242C12.0725 27.7758 11.875 28.2527 11.875 28.75C11.875 29.2473 12.0725 29.7242 12.4242 30.0758C12.7758 30.4275 13.2527 30.625 13.75 30.625Z" fill="#B3B3C3"/>
</svg>
