<svg width="40" height="40" viewBox="0 0 40 40" fill="current" xmlns="http://www.w3.org/2000/svg">
<path d="M20 0C16.7344 0 13.9531 2.08594 12.9297 5H10C7.24219 5 5 7.24219 5 10V35C5 37.7578 7.24219 40 10 40H30C32.7578 40 35 37.7578 35 35V10C35 7.24219 32.7578 5 30 5H27.0703C26.0469 2.08594 23.2656 0 20 0ZM20 5C20.663 5 21.2989 5.26339 21.7678 5.73223C22.2366 6.20107 22.5 6.83696 22.5 7.5C22.5 8.16304 22.2366 8.79893 21.7678 9.26777C21.2989 9.73661 20.663 10 20 10C19.337 10 18.7011 9.73661 18.2322 9.26777C17.7634 8.79893 17.5 8.16304 17.5 7.5C17.5 6.83696 17.7634 6.20107 18.2322 5.73223C18.7011 5.26339 19.337 5 20 5ZM10.625 21.25C10.625 20.7527 10.8225 20.2758 11.1742 19.9242C11.5258 19.5725 12.0027 19.375 12.5 19.375C12.9973 19.375 13.4742 19.5725 13.8258 19.9242C14.1775 20.2758 14.375 20.7527 14.375 21.25C14.375 21.7473 14.1775 22.2242 13.8258 22.5758C13.4742 22.9275 12.9973 23.125 12.5 23.125C12.0027 23.125 11.5258 22.9275 11.1742 22.5758C10.8225 22.2242 10.625 21.7473 10.625 21.25ZM18.75 20H28.75C29.4375 20 30 20.5625 30 21.25C30 21.9375 29.4375 22.5 28.75 22.5H18.75C18.0625 22.5 17.5 21.9375 17.5 21.25C17.5 20.5625 18.0625 20 18.75 20ZM10.625 28.75C10.625 28.2527 10.8225 27.7758 11.1742 27.4242C11.5258 27.0725 12.0027 26.875 12.5 26.875C12.9973 26.875 13.4742 27.0725 13.8258 27.4242C14.1775 27.7758 14.375 28.2527 14.375 28.75C14.375 29.2473 14.1775 29.7242 13.8258 30.0758C13.4742 30.4275 12.9973 30.625 12.5 30.625C12.0027 30.625 11.5258 30.4275 11.1742 30.0758C10.8225 29.7242 10.625 29.2473 10.625 28.75ZM17.5 28.75C17.5 28.0625 18.0625 27.5 18.75 27.5H28.75C29.4375 27.5 30 28.0625 30 28.75C30 29.4375 29.4375 30 28.75 30H18.75C18.0625 30 17.5 29.4375 17.5 28.75Z" fill="current"/>
</svg>
