<svg width="40" height="40" viewBox="0 0 40 40" fill="none" xmlns="http://www.w3.org/2000/svg">
<g clip-path="url(#clip0_632_15434)">
<path d="M21.875 9.375V19L28.5391 23.4375C29.3984 24.0156 29.6328 25.1797 28.9922 26.0391C28.4844 26.8984 27.3203 27.1328 26.4609 26.4922L18.9609 21.4922C18.4375 21.2109 18.125 20.625 18.125 20V9.375C18.125 8.33594 18.9609 7.5 20 7.5C21.0391 7.5 21.875 8.33594 21.875 9.375Z" fill="#E84A4A"/>
<path d="M20 40C8.95312 40 0 31.0469 0 20C0 8.95312 8.95312 0 20 0C31.0469 0 40 8.95312 40 20C40 31.0469 31.0469 40 20 40ZM18.125 20C18.125 20.625 18.4375 21.2109 18.9609 21.4922L26.4609 26.4922C27.3203 27.1328 28.4844 26.8984 28.9922 26.0391C29.6328 25.1797 29.3984 24.0156 28.5391 23.4375L21.875 19V9.375C21.875 8.33594 21.0391 7.5 19.9297 7.5C18.9609 7.5 18.0547 8.33594 18.0547 9.375L18.125 20Z" fill="white"/>
</g>
<defs>
<clipPath id="clip0_632_15434">
<rect width="40" height="40" fill="white"/>
</clipPath>
</defs>
</svg>
