<svg width="40" height="40" viewBox="0 0 40 40" fill="none" xmlns="http://www.w3.org/2000/svg">
<g clip-path="url(#clip0_2956_46260)">
<path d="M5 36.25H22.5C23.1875 36.25 23.75 35.6875 23.75 35V30H27.5V35C27.5 37.7578 25.2578 40 22.5 40H5C2.24219 40 0 37.7578 0 35V17.5C0 14.7422 2.24219 12.5 5 12.5H10V16.25H5C4.3125 16.25 3.75 16.8125 3.75 17.5V35C3.75 35.6875 4.3125 36.25 5 36.25ZM17.5 23.75H35C35.6875 23.75 36.25 23.1875 36.25 22.5V5C36.25 4.3125 35.6875 3.75 35 3.75H17.5C16.8125 3.75 16.25 4.3125 16.25 5V22.5C16.25 23.1875 16.8125 23.75 17.5 23.75ZM12.5 22.5V5C12.5 2.24219 14.7422 0 17.5 0H35C37.7578 0 40 2.24219 40 5V22.5C40 25.2578 37.7578 27.5 35 27.5H17.5C14.7422 27.5 12.5 25.2578 12.5 22.5Z" fill="#B3B3C3"/>
</g>
<defs>
<clipPath id="clip0_2956_46260">
<rect width="40" height="40" fill="white"/>
</clipPath>
</defs>
</svg>
