<svg width="40" height="40" viewBox="0 0 40 40" fill="current" xmlns="http://www.w3.org/2000/svg">
<path d="M9 34C4.03125 34 0 29.9688 0 25C0 21.075 2.5125 17.7375 6.0125 16.5063C6.00625 16.3375 6 16.1688 6 16C6 10.475 10.475 6 16 6C19.7062 6 22.9375 8.0125 24.6688 11.0125C25.6188 10.375 26.7687 10 28 10C31.3125 10 34 12.6875 34 16C34 16.7625 33.8562 17.4875 33.6 18.1625C37.25 18.9 40 22.1312 40 26C40 30.4187 36.4187 34 32 34H9ZM13.9375 20.4375C13.35 21.025 13.35 21.975 13.9375 22.5562C14.525 23.1375 15.475 23.1437 16.0562 22.5562L18.4937 20.1187V28.5C18.4937 29.3313 19.1625 30 19.9937 30C20.825 30 21.4937 29.3313 21.4937 28.5V20.1187L23.9312 22.5562C24.5187 23.1437 25.4687 23.1437 26.05 22.5562C26.6312 21.9687 26.6375 21.0188 26.05 20.4375L21.05 15.4375C20.4625 14.85 19.5125 14.85 18.9312 15.4375L13.9312 20.4375H13.9375Z" fill="current"/>
</svg>
