<svg width="40" height="40" viewBox="0 0 40 40" fill="none" xmlns="http://www.w3.org/2000/svg">
<path d="M18.9375 14.9375C19.525 14.3562 20.475 14.3562 21.0063 14.9375L26.0063 19.9375C26.6438 20.525 26.6438 21.475 26.0063 22.0063C25.475 22.6438 24.525 22.6438 23.9375 22.0063L21.5 19.6187V28C21.5 28.8313 20.8313 29.5 20 29.5C19.1687 29.5 18.5 28.8313 18.5 28V19.6187L16.0063 22.0063C15.475 22.6438 14.525 22.6438 13.9375 22.0063C13.3562 21.475 13.3562 20.525 13.9375 19.9375L18.9375 14.9375ZM9 34C4.02938 34 0 29.9688 0 25C0 21.0812 2.50437 17.6937 6 16.5125V16.5C6 10.7 10.7 6 16.5 6C19.6813 6 22.525 7.4125 24.4562 9.64437C25.3875 9.23 26.4125 9 27.5 9C31.6438 9 35 12.3562 35 16.5C35 16.9125 34.9688 17.3125 34.9062 17.7063C37.9062 19.0188 40 22.0187 40 25.5C40 30.025 36.4625 33.725 32 33.9875V34H9ZM16.5 9C12.3562 9 9 12.3562 9 16.5V18.6313L6.94375 19.3438C4.665 20.1687 3 22.3937 3 25C3 28.3125 5.68625 31 9 31H31.6625L31.825 30.9875C34.7125 30.825 37 28.425 37 25.5C37 23.25 35.65 21.3062 33.7 20.4562L31.5688 19.525L31.9438 17.2312C31.9813 16.9937 32 16.75 32 16.5C32 14.0125 29.9875 12 27.5 12C26.8438 12 26.225 12.1375 25.675 12.3875L23.6375 13.2937L22.1812 11.6062C20.8 10.005 18.7688 9 16.4438 9H16.5Z" fill="#B3B3C3"/>
</svg>
