<svg width="40" height="40" viewBox="0 0 40 40" fill="none" xmlns="http://www.w3.org/2000/svg">
<path d="M13.9374 22.5066C13.3562 21.9754 13.3562 21.0254 13.9374 20.4379L18.9374 15.4379C19.5249 14.8566 20.4749 14.8566 21.0062 15.4379L26.0062 20.4379C26.6437 21.0254 26.6437 21.9754 26.0062 22.5066C25.4749 23.1441 24.5249 23.1441 23.9374 22.5066L21.4999 20.1191V28.5004C21.4999 29.3316 20.8312 30.0004 19.9999 30.0004C19.1687 30.0004 18.4999 29.3316 18.4999 28.5004V20.1191L16.0062 22.5066C15.4749 23.1441 14.5249 23.1441 13.9374 22.5066Z" fill="#E84A4A"/>
<path d="M9 34C4.02938 34 0 29.9688 0 25C0 21.075 2.51062 17.7375 6.0125 16.5063C6.00437 16.3375 6 16.1688 6 16C6 10.475 10.475 6 16 6C19.7062 6 22.9375 8.01562 24.6688 11.0125C25.6188 10.3187 26.7687 10 28 10C31.3125 10 34 12.6312 34 16C34 16.7625 33.8562 17.4875 33.6 18.1625C37.25 18.9 40 22.1312 40 26C40 30.4187 36.4187 34 32 34H9ZM13.9375 20.4375C13.3562 21.025 13.3562 21.975 13.9375 22.5063C14.525 23.1438 15.475 23.1438 16.0063 22.5063L18.5 20.1187V28.5C18.5 29.3313 19.1687 30 20 30C20.8313 30 21.5 29.3313 21.5 28.5V20.1187L23.9375 22.5063C24.525 23.1438 25.475 23.1438 26.0063 22.5063C26.6438 21.975 26.6438 21.025 26.0063 20.4375L21.0063 15.4375C20.475 14.8562 19.525 14.8562 18.9375 15.4375L13.9375 20.4375Z" fill="white"/>
</svg>
