<svg width="41" height="40" viewBox="0 0 41 40" fill="current" xmlns="http://www.w3.org/2000/svg">
<g clip-path="url(#clip0_1155_20233)">
<path d="M40.0072 18.75C40.0072 27.7266 31.0541 35 20.0072 35C17.1088 35 14.3588 34.5 11.8744 33.6016C10.9447 34.2812 9.42907 35.2109 7.6322 35.9922C5.7572 36.8047 3.49939 37.5 1.2572 37.5C0.749387 37.5 0.296262 37.1953 0.10095 36.7266C-0.0943629 36.2578 0.0150121 35.7266 0.366575 35.3672L0.390012 35.3438C0.41345 35.3203 0.4447 35.2891 0.491575 35.2344C0.577512 35.1406 0.710325 34.9922 0.874387 34.7891C1.1947 34.3984 1.62439 33.8203 2.06189 33.1016C2.84314 31.8047 3.58532 30.1016 3.73376 28.1875C1.39001 25.5312 0.00719962 22.2734 0.00719962 18.75C0.00719962 9.77344 8.96033 2.5 20.0072 2.5C31.0541 2.5 40.0072 9.77344 40.0072 18.75Z" fill="current"/>
</g>
<defs>
<clipPath id="clip0_1155_20233">
<rect width="40.0023" height="40" fill="current" transform="translate(0.00488281)"/>
</clipPath>
</defs>
</svg>
