<svg width="24" height="24" viewBox="0 0 24 24" fill="none" xmlns="http://www.w3.org/2000/svg">
<path d="M0 11.25C0 13.3641 0.829688 15.3187 2.23594 16.9172C2.14688 18.0656 1.70156 19.0875 1.23281 19.8656C0.975 20.2969 0.7125 20.6437 0.520313 20.8781C0.421875 20.9953 0.346875 21.0844 0.290625 21.1453C0.2625 21.1734 0.24375 21.1969 0.229688 21.2109L0.215625 21.225C0.075 21.3656 0 21.5578 0 21.75C0 21.8484 0.01875 21.9422 0.05625 22.0359C0.173438 22.3172 0.445312 22.5 0.75 22.5C2.09531 22.5 3.45 22.0828 4.575 21.5953C5.64844 21.1266 6.5625 20.5688 7.12031 20.1609C8.61094 20.7 10.2609 21 12 21C18.6281 21 24 16.6359 24 11.25C24 5.86406 18.6281 1.5 12 1.5C5.37188 1.5 0 5.86406 0 11.25ZM7.5 14.9953C7.5 14.9344 7.50938 14.8734 7.52344 14.8125L7.95469 13.0922C8.02031 12.8297 8.15625 12.5859 8.34844 12.3937C9.47344 11.2687 10.5938 10.1438 11.7188 9.02344L14.2172 11.5219C13.0922 12.6469 11.9719 13.7719 10.8469 14.8922C10.6547 15.0844 10.4156 15.2203 10.1484 15.2859C9.57656 15.4313 9.00469 15.5719 8.43281 15.7172C8.175 15.7828 7.90781 15.7078 7.72031 15.5203C7.57969 15.3797 7.5 15.1875 7.5 14.9906V14.9953ZM12.7781 7.96875C13.0125 7.73438 13.2422 7.50469 13.4766 7.27031C13.8234 6.92344 14.2734 6.75 14.7281 6.75C15.1828 6.75 15.6328 6.92344 15.9797 7.27031C16.6687 7.95938 16.6687 9.07969 15.9797 9.76875C15.7453 10.0031 15.5156 10.2328 15.2812 10.4672C14.4469 9.63281 13.6125 8.79844 12.7828 7.96875H12.7781Z" fill="white"/>
<path d="M13.4766 7.26565L12.7781 7.96877L15.2766 10.4672L15.975 9.76877C16.6641 9.07971 16.6641 7.9594 15.975 7.27034C15.286 6.58127 14.1656 6.58127 13.4766 7.27034V7.26565ZM11.7188 9.02815L8.34846 12.3985C8.15627 12.5906 8.02034 12.8297 7.95471 13.0969L7.52346 14.8125C7.45784 15.0703 7.53284 15.3375 7.72034 15.525C7.90784 15.7125 8.17502 15.7875 8.43284 15.7219L10.1485 15.2906C10.411 15.225 10.6547 15.0891 10.8469 14.8969L14.2172 11.5266L11.7188 9.02815Z" fill="#FF4545"/>
</svg>
