<svg width="24" height="24" viewBox="0 0 24 24" fill="none" xmlns="http://www.w3.org/2000/svg">
<g clip-path="url(#clip0_27198_70266)">
<path d="M7.88437 18.0422C7.18125 17.7891 6.39844 17.8969 5.79375 18.3422C5.40937 18.6234 4.74844 19.0359 3.94687 19.4062C4.20937 18.7172 4.41094 17.9391 4.47656 17.0906C4.52344 16.4859 4.32187 15.8859 3.92344 15.4266C2.83125 14.1938 2.25 12.75 2.25 11.25C2.25 7.52344 6.15469 3.75 12 3.75C17.8453 3.75 21.75 7.52344 21.75 11.25C21.75 14.9766 17.8453 18.75 12 18.75C10.5188 18.75 9.12656 18.4922 7.88437 18.0422ZM1.23281 19.8656C1.15781 19.9922 1.07812 20.1187 0.99375 20.2453L0.979687 20.2687C0.904687 20.3766 0.829688 20.4844 0.754688 20.5922C0.590625 20.8125 0.4125 21.0281 0.225 21.225C0.00937501 21.4406 -0.0515625 21.7594 0.065625 22.0406C0.182812 22.3219 0.454688 22.5047 0.759375 22.5047C0.998438 22.5047 1.2375 22.4906 1.47656 22.4672L1.50938 22.4625C1.71563 22.4391 1.92188 22.4109 2.12813 22.3734C2.16563 22.3687 2.20312 22.3594 2.24062 22.35C3.075 22.1859 3.87656 21.9047 4.58906 21.5953C5.6625 21.1266 6.57656 20.5688 7.13437 20.1609C8.625 20.7 10.275 21 12.0141 21C18.6422 21 24.0141 16.6359 24.0141 11.25C24.0141 5.86406 18.6281 1.5 12 1.5C5.37188 1.5 0 5.86406 0 11.25C0 13.3641 0.829688 15.3187 2.23594 16.9172C2.14688 18.0656 1.70156 19.0875 1.23281 19.8656ZM15.975 7.26562C15.2859 6.57656 14.1656 6.57656 13.4766 7.26562L12.7781 7.96875L15.2766 10.4672L15.975 9.76875C16.6641 9.07969 16.6641 7.95938 15.975 7.27031V7.26562ZM8.34844 12.3984C8.15625 12.5906 8.02031 12.8297 7.95469 13.0969L7.52344 14.8125C7.45781 15.0703 7.53281 15.3375 7.72031 15.525C7.90781 15.7125 8.175 15.7875 8.43281 15.7219L10.1484 15.2906C10.4109 15.225 10.6547 15.0891 10.8469 14.8969L14.2172 11.5266L11.7188 9.02813L8.34844 12.3984Z" fill="#B3B3C3"/>
</g>
<defs>
<clipPath id="clip0_27198_70266">
<rect width="24" height="24" fill="white"/>
</clipPath>
</defs>
</svg>
