<svg width="24" height="24" viewBox="0 0 24 24" fill="current" xmlns="http://www.w3.org/2000/svg">
<g clip-path="url(#clip0_27198_70262)">
<path d="M12 21C18.6281 21 24 16.6359 24 11.25C24 5.86406 18.6281 1.5 12 1.5C5.37187 1.5 -6.07315e-06 5.86406 -6.07315e-06 11.25C-6.07315e-06 13.3641 0.829681 15.3187 2.23593 16.9172C2.14687 18.0656 1.70156 19.0875 1.23281 19.8656C0.974994 20.2969 0.712494 20.6437 0.520306 20.8781C0.421869 20.9953 0.346869 21.0844 0.290619 21.1453C0.262494 21.1734 0.243744 21.1969 0.229681 21.2109L0.215619 21.225C-6.07222e-06 21.4406 -0.0609436 21.7594 0.0562439 22.0406C0.173431 22.3219 0.445306 22.5047 0.749994 22.5047C2.09531 22.5047 3.44999 22.0875 4.57499 21.6C5.64843 21.1312 6.56249 20.5734 7.12031 20.1656C8.61093 20.7047 10.2609 21.0047 12 21.0047V21ZM15.975 7.26562C16.6641 7.95469 16.6641 9.075 15.975 9.76406L15.2766 10.4625L12.7781 7.96875L13.4766 7.26562C14.1656 6.57656 15.2859 6.57656 15.975 7.26562ZM8.34843 12.3984L11.7187 9.02813L14.2172 11.5266L10.8469 14.8969C10.6547 15.0891 10.4156 15.225 10.1484 15.2906L8.43281 15.7219C8.17499 15.7875 7.90781 15.7125 7.72031 15.525C7.53281 15.3375 7.45781 15.0703 7.52343 14.8125L7.95468 13.0922C8.02031 12.8297 8.15624 12.5859 8.34843 12.3937V12.3984Z" fill="current"/>
</g>
<defs>
<clipPath id="clip0_27198_70262">
<rect width="24" height="24" fill="current"/>
</clipPath>
</defs>
</svg>
