<svg width="41" height="41" viewBox="0 0 41 41" fill="none" xmlns="http://www.w3.org/2000/svg">
<g clip-path="url(#clip0_2916_46197)">
<path d="M20.939 3C9.89216 3 0.941162 10.2734 0.941162 19.25C0.941162 22.9711 2.49663 26.3789 5.07476 29.1094C3.91226 32.1953 1.49116 34.8031 1.4521 34.832C0.934522 35.3789 0.797803 36.1797 1.09077 36.8633C1.39357 37.5469 2.06247 38 2.81404 38C7.61872 38 11.3375 35.9883 13.6812 34.3867C15.8687 35.0938 18.3843 35.5 20.939 35.5C31.9859 35.5 40.8687 28.2242 40.8687 19.25C40.8687 10.2758 31.9859 3 20.939 3ZM20.9468 31.75C18.857 31.75 16.7969 31.4277 14.8234 30.8031L13.0461 30.2465L11.5226 31.3207C10.4094 32.1113 8.87576 32.991 7.03044 33.5863C7.60662 32.6395 8.1531 31.5746 8.58357 30.4418L9.41326 28.2543L7.80232 26.5457C6.39372 25.0391 4.69451 22.5469 4.69451 19.25C4.69451 12.3555 11.9797 6.75 20.9445 6.75C29.9093 6.75 37.1945 12.3555 37.1945 19.25C37.1945 26.1445 29.9078 31.75 20.9468 31.75Z" fill="#B3B3C3"/>
</g>
<defs>
<clipPath id="clip0_2916_46197">
<rect width="39.9298" height="41" fill="white" transform="translate(0.938965)"/>
</clipPath>
</defs>
</svg>
