<svg width="48" height="48" viewBox="0 0 48 48" fill="none" xmlns="http://www.w3.org/2000/svg">
<g clip-path="url(#clip0_27435_20985)">
<path d="M15.7687 36.0844C14.3625 35.5781 12.7969 35.7937 11.5875 36.6844C10.8187 37.2469 9.49687 38.0719 7.89375 38.8125C8.41875 37.4344 8.82187 35.8781 8.95312 34.1813C9.04688 32.9719 8.64375 31.7719 7.84687 30.8531C5.6625 28.3875 4.5 25.5 4.5 22.5C4.5 15.0469 12.3094 7.5 24 7.5C35.6906 7.5 43.5 15.0469 43.5 22.5C43.5 29.9531 35.6906 37.5 24 37.5C21.0375 37.5 18.2531 36.9844 15.7687 36.0844ZM2.46562 39.7312C2.31562 39.9844 2.15625 40.2375 1.9875 40.4906L1.95937 40.5375C1.80937 40.7531 1.65938 40.9688 1.50938 41.1844C1.18125 41.625 0.825 42.0562 0.45 42.45C0.01875 42.8812 -0.103125 43.5188 0.13125 44.0813C0.365625 44.6438 0.909375 45.0094 1.51875 45.0094C1.99688 45.0094 2.475 44.9812 2.95312 44.9344L3.01875 44.925C3.43125 44.8781 3.84375 44.8219 4.25625 44.7469C4.33125 44.7375 4.40625 44.7188 4.48125 44.7C6.15 44.3719 7.75313 43.8094 9.17813 43.1906C11.325 42.2531 13.1531 41.1375 14.2687 40.3219C17.25 41.4 20.55 42 24.0281 42C37.2844 42 48.0281 33.2719 48.0281 22.5C48.0281 11.7281 37.2562 3 24 3C10.7438 3 0 11.7281 0 22.5C0 26.7281 1.65938 30.6375 4.47188 33.8344C4.29375 36.1312 3.40312 38.175 2.46562 39.7312ZM31.95 14.5312C30.5719 13.1531 28.3312 13.1531 26.9531 14.5312L25.5563 15.9375L30.5531 20.9344L31.95 19.5375C33.3281 18.1594 33.3281 15.9188 31.95 14.5406V14.5312ZM16.6969 24.7969C16.3125 25.1812 16.0406 25.6594 15.9094 26.1937L15.0469 29.625C14.9156 30.1406 15.0656 30.675 15.4406 31.05C15.8156 31.425 16.35 31.575 16.8656 31.4437L20.2969 30.5813C20.8219 30.45 21.3094 30.1781 21.6937 29.7937L28.4344 23.0531L23.4375 18.0563L16.6969 24.7969Z" fill="#B3B3C3"/>
</g>
<defs>
<clipPath id="clip0_27435_20985">
<rect width="48" height="48" fill="white"/>
</clipPath>
</defs>
</svg>
