<svg width="40" height="40" viewBox="0 0 40 40" fill="none" xmlns="http://www.w3.org/2000/svg">
<g clip-path="url(#clip0_2930_46730)">
<path d="M17.5 0C14.7422 0 12.5 2.24219 12.5 5V22.5C12.5 25.2578 14.7422 27.5 17.5 27.5H35C37.7578 27.5 40 25.2578 40 22.5V5C40 2.24219 37.7578 0 35 0H17.5ZM5 12.5C2.24219 12.5 0 14.7422 0 17.5V35C0 37.7578 2.24219 40 5 40H22.5C25.2578 40 27.5 37.7578 27.5 35V30H23.75V35C23.75 35.6875 23.1875 36.25 22.5 36.25H5C4.3125 36.25 3.75 35.6875 3.75 35V17.5C3.75 16.8125 4.3125 16.25 5 16.25H10V12.5H5Z" fill="#B3B3C3"/>
</g>
<defs>
<clipPath id="clip0_2930_46730">
<rect width="40" height="40" fill="white"/>
</clipPath>
</defs>
</svg>
