<svg width="40" height="40" viewBox="0 0 40 40" fill="none" xmlns="http://www.w3.org/2000/svg">
<g clip-path="url(#clip0_1290_17955)">
<path d="M15 27.5V10H3.75C1.67891 10 0 11.6789 0 13.75V36.25C0 38.3211 1.67891 40 3.75 40H18.75C20.8211 40 22.5 38.3211 22.5 36.25V32.5H20C17.2422 32.5 15 30.2578 15 27.5ZM32.5 0V7.5H40L32.5 0Z" fill="#E84A4A"/>
<path d="M40 7.5V26.25C40 28.3211 38.3211 30 36.25 30H21.25C19.1789 30 17.5 28.3211 17.5 26.25V3.75C17.5 1.67891 19.1789 0 21.25 0H32.5V7.5H40Z" fill="#2D253F"/>
</g>
<defs>
<clipPath id="clip0_1290_17955">
<rect width="40" height="40" fill="white"/>
</clipPath>
</defs>
</svg>
