<svg width="40" height="40" viewBox="0 0 40 40" fill="current" xmlns="http://www.w3.org/2000/svg">
<path d="M4.44444 4.44434C1.99306 4.44434 0 6.43739 0 8.88878V11.111H40V8.88878C40 6.43739 38.0069 4.44434 35.5556 4.44434H4.44444ZM40 17.7777H0V31.111C0 33.5624 1.99306 35.5554 4.44444 35.5554H35.5556C38.0069 35.5554 40 33.5624 40 31.111V17.7777ZM7.77778 26.6666H12.2222C12.8333 26.6666 13.3333 27.1666 13.3333 27.7777C13.3333 28.3888 12.8333 28.8888 12.2222 28.8888H7.77778C7.16667 28.8888 6.66667 28.3888 6.66667 27.7777C6.66667 27.1666 7.16667 26.6666 7.77778 26.6666ZM15.5556 27.7777C15.5556 27.1666 16.0556 26.6666 16.6667 26.6666H25.5556C26.1667 26.6666 26.6667 27.1666 26.6667 27.7777C26.6667 28.3888 26.1667 28.8888 25.5556 28.8888H16.6667C16.0556 28.8888 15.5556 28.3888 15.5556 27.7777Z" fill="current"/>
</svg>
