<svg width="40" height="42" viewBox="0 0 40 42" fill="none" xmlns="http://www.w3.org/2000/svg">
<path d="M37.4632 17.4375C37.4632 18.9766 36.9242 20.4609 35.8304 21.5469C34.7445 22.6406 33.2601 23.25 31.721 23.25H8.34606C6.96637 23.1797 5.63199 22.7578 4.582 21.8672C3.53121 20.9687 2.83309 19.6641 2.61184 18.3672C2.39067 17.0078 2.6609 15.6094 3.37418 14.4297C4.08746 13.25 5.19762 12.3594 6.50621 11.9219L9.96324 10.75C9.96324 9.42188 10.557 8.15234 11.4945 7.21484C12.432 6.27656 13.7054 5.75 14.9632 5.75H17.9632C18.5414 5.74922 19.1117 5.57734 19.5882 5.25469C20.0726 4.93281 20.4476 4.47578 20.6664 3.94063C20.8851 3.40547 20.9476 2.81719 20.8304 2.24922C20.721 1.68125 20.4398 1.15977 19.9632 0.75C22.682 0.75 25.2289 1.80391 27.1039 3.67891C28.9789 5.55469 29.9632 8.09766 29.9632 10.75L33.557 11.9219C34.6507 12.2422 35.721 13.0547 36.3695 14.0391C37.1507 15.0313 37.4632 16.1484 37.4632 17.4375Z" fill="#E84A4A"/>
<path d="M12.1797 26.25L14.0547 41.25H12.1172C11.5234 41.1797 10.9531 41.0391 10.5 40.6562C10.0508 40.2734 9.74922 39.7422 9.65234 39.1563L7.5 26.25H12.1797ZM14.6953 26.25H25.3047L23.4297 41.25H16.5703L14.6953 26.25ZM32.5 26.25L30.3437 39.1563C30.25 39.7422 29.9531 40.2734 29.5 40.6562C29.0469 41.0391 28.4766 41.1797 27.8828 41.25H25.9453L27.8203 26.25H32.5Z" fill="white"/>
</svg>
