<svg width="40" height="40" viewBox="0 0 40 40" fill="current" xmlns="http://www.w3.org/2000/svg">
<path d="M21.25 0C20.7422 0 20.2891 0.304687 20.0937 0.773437C19.8984 1.24219 20.0078 1.78125 20.3672 2.13281L20.8438 2.60938C21.1094 2.875 21.2578 3.22656 21.2578 3.60156C21.25 4.375 20.625 5 19.8516 5H15C12.2422 5 10 7.24219 10 10V10.0625C9.74219 10.1016 9.48437 10.1719 9.22656 10.25L6.47656 11.1719C4.10156 11.9687 2.5 14.1875 2.5 16.6875C2.5 19.8984 5.10156 22.5 8.3125 22.5H31.6875C34.8984 22.5 37.5 19.8984 37.5 16.6875C37.5 14.1875 35.8984 11.9687 33.5234 11.1719L30.7656 10.25C30.4453 10.1406 30.125 10.0703 29.7891 10.0312C29.9219 9.50781 29.9922 8.95313 29.9922 8.39063C30 3.75781 26.2422 0 21.6094 0H21.25ZM23.4297 40L25.3047 25H14.6953L16.5703 40H23.4297ZM7.5 25L9.47656 36.8672C9.78125 38.6719 11.3437 40 13.1797 40H14.0547L12.1797 25H7.5ZM25.9453 40H26.8203C28.6562 40 30.2188 38.6719 30.5156 36.8672L32.5 25H27.8203L25.9453 40Z" fill="current"/>
</svg>
