<svg width="43" height="49" viewBox="0 0 43 49" fill="none" xmlns="http://www.w3.org/2000/svg">
<path d="M12.2808 30.6211L14.5308 48.6211H12.2058C11.4933 48.5367 10.8089 48.368 10.2652 47.9086C9.7261 47.4492 9.36422 46.8117 9.24797 46.1086L6.66516 30.6211H12.2808ZM15.2995 30.6211H28.0308L25.7808 48.6211H17.5495L15.2995 30.6211ZM36.6652 30.6211L34.0777 46.1086C33.9652 46.8117 33.6089 47.4492 33.0652 47.9086C32.5214 48.368 31.837 48.5367 31.1245 48.6211H28.7995L31.0495 30.6211H36.6652Z" fill="#2D253F"/>
<path d="M42.581 20.6461C42.581 22.493 41.9341 24.2742 40.6216 25.5773C39.3185 26.8898 37.5373 27.6211 35.6904 27.6211H7.64039C5.98477 27.5367 4.38352 27.0305 3.12352 25.9617C1.86258 24.8836 1.02483 23.318 0.75933 21.7617C0.493924 20.1305 0.818205 18.4523 1.67414 17.0367C2.53008 15.6211 3.86227 14.5523 5.43258 14.0273L9.58101 12.6211C9.58101 11.0273 10.2935 9.50391 11.4185 8.37891C12.5435 7.25297 14.0716 6.62109 15.581 6.62109H19.181C19.8748 6.62016 20.5591 6.41391 21.131 6.02672C21.7123 5.64047 22.1623 5.09203 22.4248 4.44984C22.6873 3.80766 22.7623 3.10172 22.6216 2.42016C22.4904 1.73859 22.1529 1.11281 21.581 0.621094C24.8435 0.621094 27.8998 1.88578 30.1498 4.13578C32.3998 6.38672 33.581 9.43828 33.581 12.6211L37.8935 14.0273C39.206 14.4117 40.4904 15.3867 41.2685 16.568C42.206 17.7586 42.581 19.0992 42.581 20.6461Z" fill="#E84A4A"/>
</svg>
