<svg width="40" height="40" viewBox="0 0 40 40" fill="none" xmlns="http://www.w3.org/2000/svg">
<path d="M20 1.875V0C19.3047 0 18.6719 0.382812 18.3438 0.992187C18.0156 1.60156 18.0547 2.34375 18.4375 2.91406L20 1.875ZM28.6875 12.5L27.125 11.4688C26.7422 12.0469 26.7109 12.7812 27.0391 13.3906C27.3672 14 28 14.375 28.6875 14.375V12.5ZM11.125 12.5V14.375C11.7969 14.375 12.4141 14.0156 12.75 13.4375C13.0859 12.8594 13.0859 12.1406 12.75 11.5625L11.125 12.5ZM21.0391 0H20V3.75H21.0391V0ZM31.25 10.2109C31.25 4.57031 26.6797 0 21.0391 0V3.75C24.6094 3.75 27.5 6.64062 27.5 10.2109H31.25ZM30.25 13.5391C30.8828 12.5859 31.25 11.4375 31.25 10.2109H27.5C27.5 10.6797 27.3594 11.1094 27.125 11.4688L30.2578 13.5312L30.25 13.5391ZM28.6875 14.3828H30.3125V10.625H28.6875V14.375V14.3828ZM30.3125 14.3828C32.2109 14.3828 33.75 15.9219 33.75 17.8203H37.5C37.5 13.8516 34.2812 10.6328 30.3125 10.6328V14.3828ZM33.75 17.8203C33.75 19.7188 32.2109 21.2578 30.3125 21.2578V25.0078C34.2812 25.0078 37.5 21.7891 37.5 17.8203H33.75ZM30.3125 21.2578H9.6875V25.0078H30.3125V21.25V21.2578ZM9.6875 21.25C7.78906 21.25 6.25 19.7109 6.25 17.8125H2.5C2.5 21.7812 5.71875 25 9.6875 25V21.25ZM6.25 17.8125C6.25 15.9141 7.78906 14.375 9.6875 14.375V10.625C5.71875 10.625 2.5 13.8438 2.5 17.8125H6.25ZM9.6875 14.375H11.125V10.625H9.6875V14.375ZM8.75 10.625C8.75 11.6484 9.02344 12.6094 9.5 13.4375L12.7422 11.5625C12.5859 11.2891 12.4922 10.9688 12.4922 10.625H8.75ZM14.375 5C11.2656 5 8.75 7.51563 8.75 10.625H12.5C12.5 9.58594 13.3359 8.75 14.375 8.75V5ZM18.8516 5H14.375V8.75H18.8516V5ZM19.375 4.47656C19.375 4.76562 19.1406 5 18.8516 5V8.75C21.2109 8.75 23.125 6.83594 23.125 4.47656H19.375ZM19.2891 4.1875C19.3437 4.27344 19.375 4.375 19.375 4.47656H23.125C23.125 3.63281 22.875 2.80469 22.4063 2.10938L19.2891 4.1875ZM18.4375 2.91406L19.2813 4.1875L22.4063 2.10938L21.5625 0.835937L18.4375 2.91406ZM7.91406 27.5L9.47656 36.8672C9.78125 38.6719 11.3437 40 13.1797 40H14.0547L12.4922 27.5H7.91406ZM15.0078 27.5L16.5703 40H23.4297L24.9922 27.5H15.0078ZM27.5078 27.5L25.9453 40H26.8203C28.6562 40 30.2188 38.6719 30.5156 36.8672L32.0781 27.5H27.5078Z" fill="#B3B3C3"/>
</svg>
