<svg width="40" height="40" viewBox="0 0 40 40" fill="current" xmlns="http://www.w3.org/2000/svg">
<path d="M0 7.77767C0 5.93739 1.49306 4.44434 3.33333 4.44434H10C11.8403 4.44434 13.3333 5.93739 13.3333 7.77767V8.88878H26.6667V7.77767C26.6667 5.93739 28.1597 4.44434 30 4.44434H36.6667C38.5069 4.44434 40 5.93739 40 7.77767V14.4443C40 16.2846 38.5069 17.7777 36.6667 17.7777H30C28.1597 17.7777 26.6667 16.2846 26.6667 14.4443V13.3332H13.3333V14.4443C13.3333 14.5624 13.3264 14.6804 13.3125 14.7916L18.8889 22.2221H25.5556C27.3958 22.2221 28.8889 23.7152 28.8889 25.5554V32.2221C28.8889 34.0624 27.3958 35.5554 25.5556 35.5554H18.8889C17.0486 35.5554 15.5556 34.0624 15.5556 32.2221V25.5554C15.5556 25.4374 15.5625 25.3193 15.5764 25.2082L10 17.7777H3.33333C1.49306 17.7777 0 16.2846 0 14.4443V7.77767Z" fill="current"/>
</svg>
