<svg width="40" height="40" viewBox="0 0 40 40" fill="none" xmlns="http://www.w3.org/2000/svg">
<path d="M9.44444 4.41675C11.5903 4.41675 13.3333 6.16083 13.3333 8.31258V9.42568H26.6667V8.31258C26.6667 6.16083 28.4097 4.41675 30.5556 4.41675H36.1111C38.2569 4.41675 40 6.16083 40 8.31258V13.8781C40 16.0277 38.2569 17.7739 36.1111 17.7739H30.5556C28.4097 17.7739 26.6667 16.0277 26.6667 13.8781V12.765H13.3333V13.8781C13.3333 14.3998 13.2292 14.8938 13.0486 15.3529L18.3194 22.3932C18.6736 22.2819 19.0556 22.2263 19.4444 22.2263H25C27.1458 22.2263 28.8889 23.9724 28.8889 26.1221V31.6876C28.8889 33.8372 27.1458 35.5834 25 35.5834H19.4444C17.2986 35.5834 15.5556 33.8372 15.5556 31.6876V26.1221C15.5556 25.6003 15.6597 25.1064 15.8403 24.6473L10.5694 17.6069C10.2153 17.7182 9.83333 17.7739 9.44444 17.7739H3.88889C1.74097 17.7739 0 16.0277 0 13.8781V8.31258C0 6.16083 1.74097 4.41675 3.88889 4.41675H9.44444ZM9.44444 7.75603H3.88889C3.58194 7.75603 3.33333 8.00509 3.33333 8.31258V13.8781C3.33333 14.1842 3.58194 14.4346 3.88889 14.4346H9.44444C9.75 14.4346 10 14.1842 10 13.8781V8.31258C10 8.00509 9.75 7.75603 9.44444 7.75603ZM25 25.5656H19.4444C19.1389 25.5656 18.8889 25.816 18.8889 26.1221V31.6876C18.8889 31.9937 19.1389 32.2441 19.4444 32.2441H25C25.3056 32.2441 25.5556 31.9937 25.5556 31.6876V26.1221C25.5556 25.816 25.3056 25.5656 25 25.5656ZM30 8.31258V13.8781C30 14.1842 30.25 14.4346 30.5556 14.4346H36.1111C36.4167 14.4346 36.6667 14.1842 36.6667 13.8781V8.31258C36.6667 8.00509 36.4167 7.75603 36.1111 7.75603H30.5556C30.25 7.75603 30 8.00509 30 8.31258Z" fill="#B3B3C3"/>
</svg>
