<svg width="40" height="40" viewBox="0 0 40 40" fill="none" xmlns="http://www.w3.org/2000/svg">
<path d="M8.42847 20C8.42847 19.2044 8.74454 18.4413 9.30715 17.8787C9.86976 17.3161 10.6328 17 11.4285 17C12.2241 17 12.9872 17.3161 13.5498 17.8787C14.1124 18.4413 14.4285 19.2044 14.4285 20C14.4285 20.7956 14.1124 21.5587 13.5498 22.1213C12.9872 22.6839 12.2241 23 11.4285 23C10.6328 23 9.86976 22.6839 9.30715 22.1213C8.74454 21.5587 8.42847 20.7956 8.42847 20ZM16.9999 20C16.9999 19.2044 17.316 18.4413 17.8786 17.8787C18.4412 17.3161 19.2042 17 19.9999 17C20.7955 17 21.5586 17.3161 22.1212 17.8787C22.6838 18.4413 22.9999 19.2044 22.9999 20C22.9999 20.7956 22.6838 21.5587 22.1212 22.1213C21.5586 22.6839 20.7955 23 19.9999 23C19.2042 23 18.4412 22.6839 17.8786 22.1213C17.316 21.5587 16.9999 20.7956 16.9999 20ZM28.5713 17C29.367 17 30.13 17.3161 30.6926 17.8787C31.2553 18.4413 31.5713 19.2044 31.5713 20C31.5713 20.7956 31.2553 21.5587 30.6926 22.1213C30.13 22.6839 29.367 23 28.5713 23C27.7757 23 27.0126 22.6839 26.45 22.1213C25.8874 21.5587 25.5713 20.7956 25.5713 20C25.5713 19.2044 25.8874 18.4413 26.45 17.8787C27.0126 17.3161 27.7757 17 28.5713 17Z" fill="#5E586B"/>
</svg>
