<svg width="40" height="41" viewBox="0 0 40 41" fill="none" xmlns="http://www.w3.org/2000/svg">
<path d="M3.46154 8.37976C1.55048 8.37976 0 9.93438 0 11.8505C0 12.9424 0.512019 13.9691 1.38462 14.6271L17.0769 26.4278C17.899 27.0424 19.024 27.0424 19.8462 26.4278L35.5385 14.6271C36.4111 13.9691 36.9231 12.9424 36.9231 11.8505C36.9231 9.93438 35.3726 8.37976 33.4615 8.37976H3.46154ZM0 16.4782V31.5182C0 34.0707 2.06971 36.1459 4.61538 36.1459H32.3077C34.8534 36.1459 36.9231 34.0707 36.9231 31.5182V16.4782L21.2308 28.2788C19.5865 29.5153 17.3365 29.5153 15.6923 28.2788L0 16.4782Z" fill="white"/>
<circle cx="35.3844" cy="9.91812" r="4.61538" fill="#E84A4A"/>
</svg>
