<svg width="40" height="41" viewBox="0 0 40 41" fill="current" xmlns="http://www.w3.org/2000/svg">
<path fill-rule="evenodd" clip-rule="evenodd" d="M35.3844 14.5335C37.9334 14.5335 39.9998 12.4671 39.9998 9.91812C39.9998 7.36911 37.9334 5.30273 35.3844 5.30273C32.8354 5.30273 30.769 7.36911 30.769 9.91812C30.769 12.4671 32.8354 14.5335 35.3844 14.5335ZM3.46154 8.37976H29.1901C29.0681 8.87246 29.0034 9.38773 29.0034 9.91812C29.0034 12.8364 30.9624 15.2971 33.637 16.057L19.8462 26.4278C19.024 27.0424 17.899 27.0424 17.0769 26.4278L1.38462 14.6271C0.512019 13.9691 0 12.9424 0 11.8505C0 9.93438 1.55048 8.37976 3.46154 8.37976ZM0 16.4782V31.5182C0 34.0707 2.06971 36.1459 4.61538 36.1459H32.3077C34.8534 36.1459 36.9231 34.0707 36.9231 31.5182V16.4782L21.2308 28.2788C19.5865 29.5153 17.3365 29.5153 15.6923 28.2788L0 16.4782Z" fill="current"/>
</svg>
