<svg width="40" height="41" viewBox="0 0 40 41" fill="none" xmlns="http://www.w3.org/2000/svg">
<path d="M34.4444 16.2798C35.9179 16.2798 37.3309 15.6945 38.3728 14.6526C39.4147 13.6108 40 12.1977 40 10.7243C40 9.25083 39.4147 7.83775 38.3728 6.79589C37.3309 5.75402 35.9179 5.1687 34.4444 5.1687C32.971 5.1687 31.5579 5.75402 30.5161 6.79589C29.4742 7.83775 28.8889 9.25083 28.8889 10.7243C28.8889 12.1977 29.4742 13.6108 30.5161 14.6526C31.5579 15.6945 32.971 16.2798 34.4444 16.2798ZM35.5556 31.8354V18.4256C35.1944 18.4743 34.8194 18.502 34.4444 18.502C32.8819 18.502 31.4236 18.0437 30.2083 17.2451L20.2431 25.4256C18.8056 26.6062 16.7431 26.6062 15.3056 25.4256L3.33333 15.5923V14.0576C3.33333 13.4465 3.83333 12.9465 4.44444 12.9465H26.9861C26.7778 12.2451 26.6667 11.4951 26.6667 10.7243C26.6667 10.3493 26.6944 9.97426 26.7431 9.61315H4.44444C1.99306 9.61315 0 11.6062 0 14.0576V31.8354C0 34.2868 1.99306 36.2798 4.44444 36.2798H31.1111C33.5625 36.2798 35.5556 34.2868 35.5556 31.8354ZM3.33333 19.9048L13.1944 28.002C15.8611 30.1895 19.7014 30.1895 22.3611 28.002L32.2222 19.9048V31.8354C32.2222 32.4465 31.7222 32.9465 31.1111 32.9465H4.44444C3.83333 32.9465 3.33333 32.4465 3.33333 31.8354V19.9048Z" fill="#B3B3C3"/>
</svg>
