<svg width="8" height="40" viewBox="0 0 8 40" fill="none" xmlns="http://www.w3.org/2000/svg">
<path d="M7.28575 2.85714C7.28575 1.27679 6.00896 0 4.42861 0C2.84825 0 1.57146 1.27679 1.57146 2.85714V25.7143C1.57146 27.2946 2.84825 28.5714 4.42861 28.5714C6.00896 28.5714 7.28575 27.2946 7.28575 25.7143V2.85714ZM4.42861 40C5.37581 40 6.28421 39.6237 6.95399 38.954C7.62376 38.2842 8.00003 37.3758 8.00004 36.4286C8.00003 35.4814 7.62376 34.573 6.95399 33.9032C6.28421 33.2334 5.37581 32.8571 4.42861 32.8571C3.4814 32.8571 2.573 33.2334 1.90322 33.9032C1.23345 34.573 0.857178 35.4814 0.857178 36.4286C0.857178 37.3758 1.23345 38.2842 1.90322 38.954C2.573 39.6237 3.4814 40 4.42861 40Z" fill="#2E2640"/>
</svg>
