<svg width="6" height="40" viewBox="0 0 6 40" fill="none" xmlns="http://www.w3.org/2000/svg">
<path d="M5.28564 2.14286C5.28564 0.955357 4.33029 0 3.14279 0C1.95529 0 0.99993 0.955357 0.99993 2.14286V27.8571C0.99993 29.0446 1.95529 30 3.14279 30C4.33029 30 5.28564 29.0446 5.28564 27.8571V2.14286ZM3.14279 40C3.90055 40 4.62727 39.699 5.16309 39.1632C5.69891 38.6273 5.99993 37.9006 5.99993 37.1429C5.99993 36.3851 5.69891 35.6584 5.16309 35.1226C4.62727 34.5867 3.90055 34.2857 3.14279 34.2857C2.38503 34.2857 1.6583 34.5867 1.12248 35.1226C0.586664 35.6584 0.285645 36.3851 0.285645 37.1429C0.285645 37.9006 0.586664 38.6273 1.12248 39.1632C1.6583 39.699 2.38503 40 3.14279 40Z" fill="#B3B3C3"/>
</svg>
