<svg width="24" height="22" viewBox="0 0 24 22" fill="current" xmlns="http://www.w3.org/2000/svg">
<g clip-path="url(#clip0_28130_11097)">
<path d="M11.9999 1.33337C15.3666 1.33337 18.0624 2.86671 20.0249 4.69171C21.9749 6.50004 23.2791 8.66671 23.8958 10.1542C24.0333 10.4834 24.0333 10.85 23.8958 11.1792C23.2791 12.6667 21.9749 14.8334 20.0249 16.6417C18.0624 18.4667 15.3666 20 11.9999 20C8.63328 20 5.93744 18.4667 3.97494 16.6417C2.02494 14.8292 0.720778 12.6667 0.0999451 11.1792C-0.0375557 10.85 -0.0375557 10.4834 0.0999451 10.1542C0.720778 8.66671 2.02494 6.50004 3.97494 4.69171C5.93744 2.86671 8.63328 1.33337 11.9999 1.33337ZM17.9999 10.6667C17.9999 9.07541 17.3678 7.54928 16.2426 6.42407C15.1174 5.29885 13.5912 4.66671 11.9999 4.66671C10.4086 4.66671 8.88252 5.29885 7.7573 6.42407C6.63208 7.54928 5.99994 9.07541 5.99994 10.6667C5.99994 12.258 6.63208 13.7841 7.7573 14.9093C8.88252 16.0346 10.4086 16.6667 11.9999 16.6667C13.5912 16.6667 15.1174 16.0346 16.2426 14.9093C17.3678 13.7841 17.9999 12.258 17.9999 10.6667ZM11.9999 8.00004C11.9999 9.47087 13.1958 10.6667 14.6666 10.6667C14.9624 10.6667 15.2458 10.6167 15.5124 10.5292C15.7416 10.4542 16.0083 10.5959 15.9999 10.8375C15.9874 11.125 15.9458 11.4125 15.8666 11.7C15.2958 13.8334 13.0999 15.1 10.9666 14.5292C8.83328 13.9584 7.56661 11.7625 8.13744 9.62921C8.59994 7.90004 10.1291 6.73754 11.8291 6.66671C12.0708 6.65837 12.2124 6.92087 12.1374 7.15421C12.0499 7.42087 11.9999 7.70421 11.9999 8.00004Z" fill="current"/>
</g>
<defs>
<clipPath id="clip0_28130_11097">
<rect width="24" height="21.3333" fill="current" transform="matrix(-1 0 0 1 24 0)"/>
</clipPath>
</defs>
</svg>
