<svg width="24" height="22" viewBox="0 0 24 22" fill="none" xmlns="http://www.w3.org/2000/svg">
<g clip-path="url(#clip0_28130_11102)">
<path d="M11.9999 3.33337C14.7166 3.33337 16.9499 4.56671 18.6624 6.15421C20.2666 7.64587 21.3749 9.41671 21.9416 10.6667C21.3749 11.9167 20.2666 13.6875 18.6666 15.1792C16.9499 16.7667 14.7166 18 11.9999 18C9.28328 18 7.04994 16.7667 5.33744 15.1792C3.73328 13.6875 2.62494 11.9167 2.05828 10.6667C2.62494 9.41671 3.73328 7.64587 5.33327 6.15421C7.04994 4.56671 9.28328 3.33337 11.9999 3.33337ZM20.0249 4.69171C18.0624 2.86671 15.3666 1.33337 11.9999 1.33337C8.63328 1.33337 5.93744 2.86671 3.97494 4.69171C2.02494 6.50421 0.720778 8.66671 0.0999451 10.1542C-0.0375557 10.4834 -0.0375557 10.85 0.0999451 11.1792C0.720778 12.6667 2.02494 14.8334 3.97494 16.6417C5.93744 18.4667 8.63328 20 11.9999 20C15.3666 20 18.0624 18.4667 20.0249 16.6417C21.9749 14.8334 23.2791 12.6667 23.8958 11.1792C24.0333 10.85 24.0333 10.4834 23.8958 10.1542C23.2791 8.66671 21.9749 6.50004 20.0249 4.69171ZM11.9999 14C10.1583 14 8.66661 12.5084 8.66661 10.6667C8.66661 8.82504 10.1583 7.33337 11.9999 7.33337C12.0291 7.33337 12.0541 7.33337 12.0833 7.33337C12.0291 7.54587 11.9999 7.77087 11.9999 8.00004C11.9999 9.47087 13.1958 10.6667 14.6666 10.6667C14.8958 10.6667 15.1208 10.6375 15.3333 10.5834C15.3333 10.6125 15.3333 10.6375 15.3333 10.6667C15.3333 12.5084 13.8416 14 11.9999 14ZM11.9999 5.33337C10.5855 5.33337 9.2289 5.89528 8.22871 6.89547C7.22851 7.89567 6.66661 9.25222 6.66661 10.6667C6.66661 12.0812 7.22851 13.4377 8.22871 14.4379C9.2289 15.4381 10.5855 16 11.9999 16C13.4144 16 14.771 15.4381 15.7712 14.4379C16.7714 13.4377 17.3333 12.0812 17.3333 10.6667C17.3333 9.25222 16.7714 7.89567 15.7712 6.89547C14.771 5.89528 13.4144 5.33337 11.9999 5.33337Z" fill="#B3B3C3"/>
</g>
<defs>
<clipPath id="clip0_28130_11102">
<rect width="24" height="21.3333" fill="white" transform="matrix(-1 0 0 1 24 0)"/>
</clipPath>
</defs>
</svg>
