<svg width="24" height="22" viewBox="0 0 24 22" fill="none" xmlns="http://www.w3.org/2000/svg">
<g clip-path="url(#clip0_28130_11093)">
<path d="M24 10.6667C24 10.8417 23.9667 11.0167 23.8958 11.1792C23.2792 12.6667 21.975 14.8334 20.025 16.6417C18.0625 18.4667 15.3667 20 12 20C8.63333 20 5.9375 18.4667 3.975 16.6417C2.025 14.8292 0.720833 12.6667 0.1 11.1792C0.0333328 11.0167 -0.00416565 10.8417 -0.00416565 10.6667C-0.00416565 10.4917 0.0291672 10.3167 0.1 10.1542C0.720833 8.66671 2.025 6.50004 3.975 4.69171C5.9375 2.86671 8.63333 1.33337 12 1.33337C15.3667 1.33337 18.0625 2.86671 20.025 4.69171C21.975 6.50004 23.2792 8.66671 23.8958 10.1542C23.9667 10.3167 24 10.4917 24 10.6667ZM6 10.6667C6 12.258 6.63214 13.7841 7.75736 14.9093C8.88258 16.0346 10.4087 16.6667 12 16.6667C13.5913 16.6667 15.1174 16.0346 16.2426 14.9093C17.3679 13.7841 18 12.258 18 10.6667C18 9.07541 17.3679 7.54928 16.2426 6.42407C15.1174 5.29885 13.5913 4.66671 12 4.66671C10.4087 4.66671 8.88258 5.29885 7.75736 6.42407C6.63214 7.54928 6 9.07541 6 10.6667Z" fill="#2E2640"/>
<path d="M14.6666 10.6667C13.1958 10.6667 11.9999 9.47086 11.9999 8.00003C11.9999 7.70419 12.0499 7.42086 12.1374 7.15419C12.2124 6.92503 12.0708 6.65836 11.8291 6.66669C10.1291 6.73753 8.59994 7.90003 8.13744 9.62919C7.56661 11.7625 8.83328 13.9584 10.9666 14.5292C13.0999 15.1 15.2958 13.8334 15.8666 11.7C15.9458 11.4125 15.9874 11.1209 15.9999 10.8375C16.0124 10.5959 15.7458 10.4542 15.5124 10.5292C15.2458 10.6167 14.9624 10.6667 14.6666 10.6667Z" fill="#FF4545"/>
</g>
<defs>
<clipPath id="clip0_28130_11093">
<rect width="24" height="21.3333" fill="white" transform="matrix(-1 0 0 1 24 0)"/>
</clipPath>
</defs>
</svg>
