<svg width="40" height="40" viewBox="0 0 40 40" fill="none" xmlns="http://www.w3.org/2000/svg">
<path d="M25 0V10H35L25 0ZM24.2031 20.6562L18.021 27.8703L15.7015 25.5508C14.9691 24.8184 13.7828 24.8184 13.05 25.5508C12.3171 26.2832 12.3175 27.4695 13.05 28.2023L16.8 31.9523C17.1515 32.3039 17.6296 32.5016 18.1257 32.5016C18.1501 32.5016 18.1746 32.5016 18.1965 32.4992C18.719 32.4797 19.2098 32.2429 19.5489 31.8473L27.0489 23.0973C27.7227 22.3114 27.6324 21.127 26.8462 20.4536C26.0625 19.7812 24.875 19.8672 24.2031 20.6562Z" fill="#E84A4A"/>
<path d="M25 10V0H8.75C6.67891 0 5 1.67891 5 3.75V36.25C5 38.3203 6.67891 40 8.75 40H31.25C33.3211 40 35 38.3211 35 36.25V10H25ZM27.0469 23.0938L19.5469 31.8438C19.2075 32.2392 18.7172 32.4761 18.1945 32.4956C18.1719 32.4297 18.1484 32.4297 18.125 32.4297C17.6294 32.4297 17.1508 32.232 16.7992 31.8804L13.0492 28.1304C12.3168 27.398 12.3168 26.2116 13.0492 25.4788C13.7816 24.746 14.968 24.7464 15.7008 25.4788L18.0203 27.7984L24.2023 20.5843C24.8786 19.7984 26.0625 19.7101 26.8461 20.3816C27.6328 21.125 27.7188 22.3047 27.0469 23.0938Z" fill="#2D253F"/>
</svg>
