<svg width="30" height="40" viewBox="0 0 30 40" fill="none" xmlns="http://www.w3.org/2000/svg">
<g clip-path="url(#clip0_2741_42915)">
<path d="M20 0V10H30L20 0ZM19.2031 20.6562L13.021 27.8703L10.7015 25.5508C9.96909 24.8184 8.78276 24.8184 8.04995 25.5508C7.31714 26.2832 7.31753 27.4695 8.04995 28.2023L11.8 31.9523C12.1515 32.3039 12.6296 32.5016 13.1257 32.5016C13.1501 32.5016 13.1746 32.5016 13.1965 32.4992C13.719 32.4797 14.2098 32.2429 14.5489 31.8473L22.0489 23.0973C22.7227 22.3114 22.6324 21.127 21.8462 20.4536C21.0625 19.7812 19.875 19.8672 19.2031 20.6562Z" fill="#E84A4A"/>
<path d="M20 10V0H3.75C1.67891 0 0 1.67891 0 3.75V36.25C0 38.3203 1.67891 40 3.75 40H26.25C28.3211 40 30 38.3211 30 36.25V10H20ZM22.0469 23.0938L14.5469 31.8438C14.2075 32.2392 13.7172 32.4761 13.1945 32.4956C13.1719 32.4297 13.1484 32.4297 13.125 32.4297C12.6294 32.4297 12.1508 32.232 11.7992 31.8804L8.04922 28.1304C7.3168 27.398 7.3168 26.2116 8.04922 25.4788C8.78164 24.746 9.96797 24.7464 10.7008 25.4788L13.0203 27.7984L19.2023 20.5843C19.8786 19.7984 21.0625 19.7101 21.8461 20.3816C22.6328 21.125 22.7188 22.3047 22.0469 23.0938Z" fill="white"/>
</g>
<defs>
<clipPath id="clip0_2741_42915">
<rect width="30" height="40" fill="white"/>
</clipPath>
</defs>
</svg>
