<svg width="40" height="40" viewBox="0 0 40 40" fill="none" xmlns="http://www.w3.org/2000/svg">
<path d="M10 36.25C9.3125 36.25 8.75 35.6875 8.75 35V5C8.75 4.3125 9.3125 3.75 10 3.75H22.5V10C22.5 11.3828 23.6172 12.5 25 12.5H31.25V35C31.25 35.6875 30.6875 36.25 30 36.25H10ZM10 0C7.24219 0 5 2.24219 5 5V35C5 37.7578 7.24219 40 10 40H30C32.7578 40 35 37.7578 35 35V12.0703C35 10.7422 34.4766 9.46875 33.5391 8.53125L26.4609 1.46094C25.5234 0.523438 24.2578 0 22.9297 0H10ZM27.5781 20.9063C28.3125 20.1719 28.3125 18.9844 27.5781 18.2578C26.8438 17.5312 25.6563 17.5234 24.9297 18.2578L17.9219 25.2656L15.0781 22.4219C14.3438 21.6875 13.1562 21.6875 12.4297 22.4219C11.7031 23.1562 11.6953 24.3437 12.4297 25.0703L16.5937 29.2344C16.9453 29.5859 17.4219 29.7813 17.9219 29.7813C18.4219 29.7813 18.8984 29.5859 19.25 29.2344L27.5781 20.9063Z" fill="#B3B3C3"/>
</svg>
