<svg width="13" height="16" viewBox="0 0 13 16" fill="none" xmlns="http://www.w3.org/2000/svg">
<path d="M8.98182 0V4H12.9818L8.98182 0ZM7.48494 7.21875C7.19197 6.92578 6.71744 6.92578 6.42432 7.21875L3.92432 9.71875C3.63135 10.0117 3.63135 10.4862 3.92432 10.7794C4.21729 11.0725 4.69182 11.0723 4.98494 10.7794L6.23182 9.55937V13.25C6.23182 13.6656 6.56932 14 6.98182 14C7.39432 14 7.73182 13.6641 7.73182 13.25V9.55937L8.9515 10.7791C9.09744 10.9281 9.28807 11 9.48182 11C9.67557 11 9.86557 10.9268 10.0121 10.7803C10.3051 10.4873 10.3051 10.0128 10.0121 9.71966L7.48494 7.21875Z" fill="#FF4545"/>
<path d="M8.98193 4V0H2.48193C1.6535 0 0.981934 0.671562 0.981934 1.5V14.5C0.981934 15.3281 1.6535 16 2.48193 16H11.4819C12.3104 16 12.9819 15.3284 12.9819 14.5V4H8.98193ZM9.98506 10.7531C9.86631 10.9281 9.67568 11 9.48193 11C9.28818 11 9.09818 10.9268 8.95162 10.7803L7.73193 9.55937V13.25C7.73193 13.6641 7.396 14 6.98193 14C6.56787 14 6.23193 13.6641 6.23193 13.25V9.55937L5.01225 10.7791C4.71928 11.072 4.24475 11.072 3.95162 10.7791C3.6585 10.4861 3.65865 10.0116 3.95162 9.71844L6.45162 7.21844C6.74459 6.92547 7.21912 6.92547 7.51225 7.21844L10.0122 9.71844C10.3038 10.0125 10.3038 10.4875 9.98506 10.7531Z" fill="white"/>
</svg>
