<svg width="18" height="25" viewBox="0 0 18 25" fill="none" xmlns="http://www.w3.org/2000/svg">
<g clip-path="url(#clip0_11510_3037)">
<path d="M18 8H12C11.1703 8 10.5 7.32969 10.5 6.5V0.5L18 8ZM9 11.75C9.62344 11.75 10.125 12.2516 10.125 12.875V15.125H12.375C12.9984 15.125 13.5 15.6266 13.5 16.25C13.5 16.8734 12.9984 17.375 12.375 17.375H10.125V19.625C10.125 20.2484 9.62344 20.75 9 20.75C8.37656 20.75 7.875 20.2484 7.875 19.625V17.375H5.625C5.00156 17.375 4.5 16.8734 4.5 16.25C4.5 15.6266 5.00156 15.125 5.625 15.125H7.875V12.875C7.875 12.2516 8.37656 11.75 9 11.75Z" fill="#FF4545"/>
<path d="M0 3.5C0 1.84531 1.34531 0.5 3 0.5H10.5V6.5C10.5 7.32969 11.1703 8 12 8H18V21.5C18 23.1547 16.6547 24.5 15 24.5H3C1.34531 24.5 0 23.1547 0 21.5V3.5ZM9 11.75C8.37656 11.75 7.875 12.2516 7.875 12.875V15.125H5.625C5.00156 15.125 4.5 15.6266 4.5 16.25C4.5 16.8734 5.00156 17.375 5.625 17.375H7.875V19.625C7.875 20.2484 8.37656 20.75 9 20.75C9.62344 20.75 10.125 20.2484 10.125 19.625V17.375H12.375C12.9984 17.375 13.5 16.8734 13.5 16.25C13.5 15.6266 12.9984 15.125 12.375 15.125H10.125V12.875C10.125 12.2516 9.62344 11.75 9 11.75Z" fill="white"/>
</g>
<defs>
<clipPath id="clip0_11510_3037">
<rect width="18" height="24" fill="white" transform="translate(0 0.5)"/>
</clipPath>
</defs>
</svg>
