<svg width="40" height="41" viewBox="0 0 40 41" fill="none" xmlns="http://www.w3.org/2000/svg">
<g clip-path="url(#clip0_2887_46087)">
<path d="M35.0019 36.9678H17.5086V39.4669C17.5086 39.8964 17.4305 40.3181 17.2977 40.7164H35.0019C37.7587 40.7164 40 38.4751 40 35.7183V12.7973C40 11.4697 39.4768 10.1968 38.5396 9.25963L31.4642 2.19201C30.527 1.25487 29.2619 0.731628 27.9343 0.731628H15.0095C12.2528 0.731628 10.0114 2.97296 10.0114 5.72972V11.2823L10.0192 11.2745C10.1364 11.2198 10.3316 11.1183 10.5347 11.0402C11.5968 10.6107 12.7448 10.6185 13.76 11.0012V5.72972C13.76 5.04249 14.3223 4.4802 15.0095 4.4802H27.5048V10.7278C27.5048 12.1101 28.6215 13.2269 30.0038 13.2269H36.2514V35.7183C36.2514 36.4055 35.6891 36.9678 35.0019 36.9678ZM8.54323 13.3518C7.76228 13.0316 6.86418 13.2737 6.34875 13.9375L5.52875 14.9918C5.42723 15.1246 5.27885 15.2027 5.12266 15.2261L3.80285 15.4057C2.96723 15.5229 2.31123 16.1789 2.20189 17.0067L2.02228 18.3265C1.99885 18.4905 1.91294 18.6389 1.78799 18.7326L0.725894 19.5604C0.0620841 20.0758 -0.180011 20.9739 0.140179 21.7549L0.639989 22.9888C0.702465 23.1372 0.702465 23.309 0.639989 23.4652L0.140179 24.6913C-0.180011 25.4722 0.0620841 26.3703 0.725894 26.8857L1.78018 27.7057C1.91294 27.8073 1.99104 27.9556 2.01447 28.1118L2.19408 29.4316C2.31123 30.2673 2.96723 30.9233 3.79504 31.0404L5.01332 31.2044V39.4669C5.01332 39.9276 5.26323 40.3494 5.67713 40.568C6.09104 40.7867 6.57523 40.7633 6.9579 40.5055L10.0114 38.4673L13.0649 40.5055C13.4476 40.7633 13.9396 40.7867 14.3457 40.568C14.7518 40.3494 15.0095 39.9276 15.0095 39.4669V31.2044L16.22 31.0404C17.0556 30.9233 17.7116 30.2673 17.8209 29.4316L18.0006 28.1118C18.024 27.9478 18.1099 27.7994 18.2349 27.7057L19.2891 26.8857C19.9529 26.3703 20.195 25.4722 19.8749 24.6913L19.3829 23.4573C19.3204 23.309 19.3204 23.1372 19.3829 22.981L19.8905 21.7471C20.2107 20.9661 19.9686 20.068 19.3048 19.5526L18.2505 18.7326C18.1177 18.6311 18.0396 18.4827 18.0162 18.3265L17.8366 17.0067C17.7194 16.1711 17.0634 15.5151 16.2356 15.4057L14.9158 15.2261C14.7518 15.2027 14.6034 15.1168 14.5097 14.9918L13.6897 13.9375C13.1743 13.2737 12.2762 13.0316 11.4952 13.3518L10.2457 13.8516C10.0973 13.9141 9.92552 13.9141 9.76932 13.8516L8.53542 13.344L8.54323 13.3518ZM5.01332 23.2231C5.01332 21.8975 5.53991 20.6262 6.47723 19.6889C7.41456 18.7515 8.68584 18.225 10.0114 18.225C11.337 18.225 12.6083 18.7515 13.5456 19.6889C14.4829 20.6262 15.0095 21.8975 15.0095 23.2231C15.0095 24.5486 14.4829 25.8199 13.5456 26.7572C12.6083 27.6946 11.337 28.2212 10.0114 28.2212C8.68584 28.2212 7.41456 27.6946 6.47723 26.7572C5.53991 25.8199 5.01332 24.5486 5.01332 23.2231Z" fill="#B3B3C3"/>
</g>
<defs>
<clipPath id="clip0_2887_46087">
<rect width="40" height="40" fill="white" transform="translate(0 0.724243)"/>
</clipPath>
</defs>
</svg>
