<svg width="40" height="40" viewBox="0 0 40 40" fill="current" xmlns="http://www.w3.org/2000/svg">
<path d="M10 0C7.24219 0 5 2.24219 5 5V35C5 37.7578 7.24219 40 10 40H30C32.7578 40 35 37.7578 35 35V12.5H25C23.6172 12.5 22.5 11.3828 22.5 10V0H10ZM25 0V10H35L25 0ZM21.875 19.375V33.125C21.875 34.1641 21.0391 35 20 35C18.9609 35 18.125 34.1641 18.125 33.125V19.375C18.125 18.3359 18.9609 17.5 20 17.5C21.0391 17.5 21.875 18.3359 21.875 19.375ZM28.75 24.375V33.125C28.75 34.1641 27.9141 35 26.875 35C25.8359 35 25 34.1641 25 33.125V24.375C25 23.3359 25.8359 22.5 26.875 22.5C27.9141 22.5 28.75 23.3359 28.75 24.375ZM15 29.375V33.125C15 34.1641 14.1641 35 13.125 35C12.0859 35 11.25 34.1641 11.25 33.125V29.375C11.25 28.3359 12.0859 27.5 13.125 27.5C14.1641 27.5 15 28.3359 15 29.375Z" fill="current"/>
</svg>
