<svg width="18" height="24" viewBox="0 0 18 24" fill="current" xmlns="http://www.w3.org/2000/svg">
<g clip-path="url(#clip0_11479_26827)">
<path d="M2.25 21V3C2.25 2.5875 2.5875 2.25 3 2.25H10.5V6C10.5 6.82969 11.1703 7.5 12 7.5H15.75V21C15.75 21.4125 15.4125 21.75 15 21.75H3C2.5875 21.75 2.25 21.4125 2.25 21ZM3 0C1.34531 0 0 1.34531 0 3V21C0 22.6547 1.34531 24 3 24H15C16.6547 24 18 22.6547 18 21V7.24219C18 6.44531 17.6859 5.68125 17.1234 5.11875L12.8766 0.876563C12.3141 0.314063 11.5547 0 10.7578 0H3ZM9 9.75C8.37656 9.75 7.875 10.2516 7.875 10.875V13.125H5.625C5.00156 13.125 4.5 13.6266 4.5 14.25C4.5 14.8734 5.00156 15.375 5.625 15.375H7.875V17.625C7.875 18.2484 8.37656 18.75 9 18.75C9.62344 18.75 10.125 18.2484 10.125 17.625V15.375H12.375C12.9984 15.375 13.5 14.8734 13.5 14.25C13.5 13.6266 12.9984 13.125 12.375 13.125H10.125V10.875C10.125 10.2516 9.62344 9.75 9 9.75Z" fill="current"/>
</g>
<defs>
<clipPath id="clip0_11479_26827">
<rect width="18" height="24" fill="current"/>
</clipPath>
</defs>
</svg>
