<svg width="40" height="40" viewBox="0 0 40 40" fill="none" xmlns="http://www.w3.org/2000/svg">
<path d="M4.38194 34.4444H19.7569C20.5903 35.7222 21.6597 36.8402 22.8958 37.7291C22.6806 37.7569 22.4514 37.7777 22.2222 37.7777H4.44444C1.98958 37.7777 0 35.7847 0 33.3333V6.66661C0 4.21175 1.98958 2.22217 4.44444 2.22217H15.9375C17.1181 2.22217 18.2431 2.69043 19.0764 3.52425L25.3681 9.81245C26.2014 10.6458 26.6667 11.7708 26.6667 12.9513V16.0138C25.4722 16.3541 24.3472 16.868 23.3333 17.5347V13.3333H17.7778C16.5486 13.3333 15.5556 12.3402 15.5556 11.1111V5.5555H4.44444C3.83056 5.5555 3.33333 6.05272 3.33333 6.66661V33.3333C3.33333 33.9444 3.83056 34.4444 4.44444 34.4444H4.38194ZM19.9375 27.7777C19.9375 22.2569 24.4792 17.7777 30 17.7777C35.5208 17.7777 40 22.2569 40 27.7777C40 33.2986 35.5208 37.7777 30 37.7777C24.4792 37.7777 19.9375 33.2986 19.9375 27.7777ZM30 24.4444C30.9236 24.4444 31.6667 23.7013 31.6667 22.7777C31.6667 21.8541 30.9236 21.1111 30 21.1111C29.0764 21.1111 28.3333 21.8541 28.3333 22.7777C28.3333 23.7013 29.0764 24.4444 30 24.4444ZM28.8889 28.8888V32.2222C28.2778 32.2222 27.7778 32.7222 27.7778 33.3333C27.7778 33.9444 28.2778 34.4444 28.8889 34.4444H31.1111C31.7222 34.4444 32.2222 33.9444 32.2222 33.3333C32.2222 32.7222 31.7222 32.2222 31.1111 32.2222V27.7777C31.1111 27.1666 30.6111 26.6666 30 26.6666H28.8889C28.2778 26.6666 27.7778 27.1666 27.7778 27.7777C27.7778 28.3888 28.2778 28.8888 28.8889 28.8888Z" fill="#B3B3C3"/>
</svg>
