<svg width="36" height="40" viewBox="0 0 36 40" fill="none" xmlns="http://www.w3.org/2000/svg">
<path d="M30.9819 12.5L18.4819 0V10C18.4819 11.3828 19.5991 12.5 20.9819 12.5H30.9819ZM13.4819 27.5C12.7944 27.5 12.2319 28.0625 12.2319 28.75V35V38.75C12.2319 39.4375 12.7944 40 13.4819 40C14.1694 40 14.7319 39.4375 14.7319 38.75V36.25H15.3569C17.771 36.25 19.7319 34.2891 19.7319 31.875C19.7319 29.4609 17.771 27.5 15.3569 27.5H13.4819ZM15.3569 33.75H14.7319V30H15.3569C16.396 30 17.2319 30.8359 17.2319 31.875C17.2319 32.9141 16.396 33.75 15.3569 33.75ZM22.2319 27.5C21.5444 27.5 20.9819 28.0625 20.9819 28.75V38.75C20.9819 39.4375 21.5444 40 22.2319 40H24.1069C26.1772 40 27.8569 38.3203 27.8569 36.25V31.25C27.8569 29.1797 26.1772 27.5 24.1069 27.5H22.2319ZM24.1069 37.5H23.4819V30H24.1069C24.7944 30 25.3569 30.5625 25.3569 31.25V36.25C25.3569 36.9375 24.7944 37.5 24.1069 37.5ZM29.7319 28.75V33.75V38.75C29.7319 39.4375 30.2944 40 30.9819 40C31.6694 40 32.2319 39.4375 32.2319 38.75V35H34.7319C35.4194 35 35.9819 34.4375 35.9819 33.75C35.9819 33.0625 35.4194 32.5 34.7319 32.5H32.2319V30H34.7319C35.4194 30 35.9819 29.4375 35.9819 28.75C35.9819 28.0625 35.4194 27.5 34.7319 27.5H30.9819C30.2944 27.5 29.7319 28.0625 29.7319 28.75Z" fill="#FF4545"/>
<path d="M0.981934 5C0.981934 2.24219 3.22412 0 5.98193 0H18.4819V10C18.4819 11.3828 19.5991 12.5 20.9819 12.5H30.9819V23.75H24.1069H22.2319H15.3569H13.4819C10.7241 23.75 8.48193 25.9922 8.48193 28.75V35V38.75V40H5.98193C3.22412 40 0.981934 37.7578 0.981934 35V5Z" fill="white"/>
</svg>
