<svg width="40" height="40" viewBox="0 0 40 40" fill="current" xmlns="http://www.w3.org/2000/svg">
<path d="M10 0C7.24219 0 5 2.24219 5 5V35C5 37.7578 7.24219 40 10 40H30C32.7578 40 35 37.7578 35 35V12.5H25C23.6172 12.5 22.5 11.3828 22.5 10V0H10ZM25 0V10H35L25 0ZM28.8281 21.9531L18.8281 31.9531C18.0938 32.6875 16.9063 32.6875 16.1797 31.9531L11.1719 26.9531C10.4375 26.2188 10.4375 25.0312 11.1719 24.3047C11.9062 23.5781 13.0938 23.5703 13.8203 24.3047L17.4922 27.9766L26.1719 19.2969C26.9062 18.5625 28.0938 18.5625 28.8203 19.2969C29.5469 20.0312 29.5547 21.2188 28.8203 21.9453L28.8281 21.9531Z" fill="current"/>
</svg>
