<svg width="13" height="16" viewBox="0 0 13 16" fill="current" xmlns="http://www.w3.org/2000/svg">
<path d="M2.98193 0C1.87881 0 0.981934 0.896875 0.981934 2V14C0.981934 15.1031 1.87881 16 2.98193 16H10.9819C12.0851 16 12.9819 15.1031 12.9819 14V5H8.98193C8.42881 5 7.98193 4.55312 7.98193 4V0H2.98193ZM8.98193 0V4H12.9819L8.98193 0ZM7.73193 12.75C7.73193 13.1656 7.39756 13.5 6.98193 13.5C6.56631 13.5 6.23193 13.1656 6.23193 12.75V9.55937L5.26318 10.5281C4.96943 10.8219 4.49443 10.8219 4.20381 10.5281C3.91318 10.2344 3.91006 9.75937 4.20381 9.46875L6.45381 7.21875C6.74756 6.925 7.22256 6.925 7.51318 7.21875L9.76318 9.46875C10.0569 9.7625 10.0569 10.2375 9.76318 10.5281C9.46943 10.8187 8.99443 10.8219 8.70381 10.5281L7.73506 9.55937V12.75H7.73193Z" fill="current"/>
</svg>
