<svg width="40" height="40" viewBox="0 0 40 40" fill="none" xmlns="http://www.w3.org/2000/svg">
<path d="M7.5 36.25H10V40H7.5C4.74219 40 2.5 37.7578 2.5 35V5C2.5 2.24219 4.74219 0 7.5 0H20.4297C21.7578 0 23.0312 0.523438 23.9687 1.46094L31.0391 8.53125C31.9766 9.46875 32.5 10.7422 32.5 12.0703V22.5H28.75V12.5H22.5C21.1172 12.5 20 11.3828 20 10V3.75H7.5C6.8125 3.75 6.25 4.3125 6.25 5V35C6.25 35.6875 6.8125 36.25 7.5 36.25ZM15 27.5H16.875C19.2891 27.5 21.25 29.4609 21.25 31.875C21.25 34.2891 19.2891 36.25 16.875 36.25H16.25V38.75C16.25 39.4375 15.6875 40 15 40C14.3125 40 13.75 39.4375 13.75 38.75V35V28.75C13.75 28.0625 14.3125 27.5 15 27.5ZM16.875 33.75C17.9141 33.75 18.75 32.9141 18.75 31.875C18.75 30.8359 17.9141 30 16.875 30H16.25V33.75H16.875ZM22.5 28.75C22.5 28.0625 23.0625 27.5 23.75 27.5H25.625C27.6953 27.5 29.375 29.1797 29.375 31.25V36.25C29.375 38.3203 27.6953 40 25.625 40H23.75C23.0625 40 22.5 39.4375 22.5 38.75V28.75ZM25 37.5H25.625C26.3125 37.5 26.875 36.9375 26.875 36.25V31.25C26.875 30.5625 26.3125 30 25.625 30H25V37.5ZM32.5 27.5H36.25C36.9375 27.5 37.5 28.0625 37.5 28.75C37.5 29.4375 36.9375 30 36.25 30H33.75V32.5H36.25C36.9375 32.5 37.5 33.0625 37.5 33.75C37.5 34.4375 36.9375 35 36.25 35H33.75V38.75C33.75 39.4375 33.1875 40 32.5 40C31.8125 40 31.25 39.4375 31.25 38.75V33.75V28.75C31.25 28.0625 31.8125 27.5 32.5 27.5Z" fill="#B3B3C3"/>
</svg>
