<svg width="40" height="40" viewBox="0 0 40 40" fill="none" xmlns="http://www.w3.org/2000/svg">
<g clip-path="url(#clip0_2741_43044)">
<path d="M15.5557 13.3333V2.22217L26.6668 13.3333H15.5557ZM40.0001 27.7777C40.0001 33.2986 35.5209 37.7777 30.0001 37.7777C24.4793 37.7777 20.0001 33.2986 20.0001 27.7777C20.0001 22.2569 24.4793 17.7777 30.0001 17.7777C35.5209 17.7777 40.0001 22.2569 40.0001 27.7777ZM33.1043 24.7708L28.889 28.9861L26.8959 26.993C26.4654 26.5555 25.7571 26.5555 25.3265 26.993C24.889 27.4236 24.889 28.1319 25.3265 28.5624L28.1043 31.3402C28.5348 31.7777 29.2432 31.7777 29.6737 31.3402L34.6737 26.3402C35.1112 25.9097 35.1112 25.2013 34.6737 24.7708C34.2432 24.3333 33.5348 24.3333 33.1043 24.7708Z" fill="#E84A4A"/>
<path d="M0 6.66661C0 4.21175 1.98958 2.22217 4.44444 2.22217H15.5556V13.3333H26.6667V16.0138C21.5347 17.4652 17.7778 22.1805 17.7778 27.7777C17.7778 31.8819 19.7986 35.5069 22.8958 37.7291C22.6806 37.7569 22.4514 37.7777 22.2222 37.7777H4.44444C1.98958 37.7777 0 35.7847 0 33.3333V6.66661Z" fill="#2D253F"/>
</g>
<defs>
<clipPath id="clip0_2741_43044">
<rect width="40" height="40" fill="white"/>
</clipPath>
</defs>
</svg>
