<svg width="30" height="40" viewBox="0 0 30 40" fill="none" xmlns="http://www.w3.org/2000/svg">
<g clip-path="url(#clip0_893_14107)">
<path d="M19.9999 0V10H29.9999L19.9999 0ZM15.4296 24.75L14.9296 24.625C13.1484 24.0781 13.1874 23.7578 13.2499 23.4766C13.3574 22.8662 14.546 22.7173 15.6148 22.8809C16.0518 22.9468 16.5312 23.1005 16.989 23.2593C17.8007 23.5401 18.6945 23.1079 18.9773 22.2952C19.2605 21.4796 18.8295 20.589 18.014 20.3054C17.45 20.1113 16.9898 19.9868 16.564 19.8934V19.375C16.564 18.5133 15.8645 17.8125 15.0015 17.8125C14.1384 17.8125 13.439 18.5132 13.439 19.375V19.8431C11.6874 20.2188 10.4531 21.3125 10.1718 22.9453C9.59321 26.2922 12.7648 27.2227 14.1187 27.6203L14.5727 27.7522C16.8602 28.4065 16.8227 28.6264 16.754 29.0241C16.6466 29.6344 15.4579 29.7858 14.386 29.6198C13.844 29.5392 13.1509 29.2902 12.5376 29.0705L12.1884 28.9435C11.3752 28.6627 10.483 29.0851 10.1947 29.8982C9.90782 30.7115 10.3338 31.6045 11.1478 31.8927L11.4811 32.0099C12.0872 32.2278 12.7608 32.4466 13.4389 32.5968V33.125C13.4389 33.9867 14.1384 34.6875 15.0014 34.6875C15.8645 34.6875 16.5639 33.9868 16.5639 33.125V32.6364C18.3108 32.262 19.5491 31.1888 19.8319 29.5559C20.414 26.1719 17.1718 25.2422 15.4296 24.75Z" fill="#E84A4A"/>
<path d="M20 10V0H3.75C1.67891 0 0 1.67891 0 3.75V36.25C0 38.3203 1.67891 40 3.75 40H26.25C28.3211 40 30 38.3211 30 36.25V10H20ZM5 5.625C5 5.28359 5.28359 5 5.625 5H11.875C12.2188 5 12.5 5.28359 12.5 5.625V6.875C12.5 7.21719 12.2188 7.5 11.875 7.5H5.625C5.28359 7.5 5 7.21719 5 6.875V5.625ZM5 11.875V10.625C5 10.2812 5.28359 10 5.625 10H11.875C12.2188 10 12.5 10.2812 12.5 10.625V11.875C12.5 12.2188 12.2188 12.5 11.875 12.5H5.625C5.28359 12.5 5 12.2188 5 11.875ZM19.8281 29.5547C19.5451 31.1883 18.307 32.2609 16.5602 32.6352V33.125C16.5602 33.9867 15.8607 34.6875 14.9977 34.6875C14.1346 34.6875 13.4352 33.9868 13.4352 33.125V32.5961C12.7569 32.4459 12.0836 32.2271 11.4773 32.0092L11.1441 31.892C10.33 31.6039 9.90344 30.7108 10.1909 29.8975C10.4791 29.0842 11.3714 28.6623 12.1847 28.9428L12.5338 29.0698C13.1466 29.2895 13.8401 29.5385 14.3823 29.6191C15.4541 29.7851 16.6432 29.6337 16.7502 29.0234C16.8186 28.6254 16.8564 28.4057 14.569 27.7515L14.1149 27.6196C12.761 27.2216 9.58992 26.2915 10.168 22.9446C10.4531 21.3125 11.6875 20.2188 13.4375 19.7734V19.375C13.4375 18.5133 14.137 17.8125 15 17.8125C15.863 17.8125 16.5625 18.5132 16.5625 19.375V19.8932C16.9885 19.9866 17.4484 20.1111 18.0125 20.3052C18.8281 20.5884 19.2586 21.4794 18.9758 22.295C18.6926 23.1083 17.7992 23.5403 16.9875 23.2591C16.5298 23.1004 16.05 22.9466 15.6133 22.8806C14.5469 22.7188 13.2891 22.8672 13.25 23.4766C13.1875 23.7578 13.1484 24.0781 14.9297 24.625L15.363 24.7495C17.1719 25.2422 20.4141 26.1719 19.8281 29.5547Z" fill="white"/>
</g>
<defs>
<clipPath id="clip0_893_14107">
<rect width="30" height="40" fill="white"/>
</clipPath>
</defs>
</svg>
