<svg width="13" height="16" viewBox="0 0 13 16" fill="none" xmlns="http://www.w3.org/2000/svg">
<path d="M2.48193 14V2C2.48193 1.725 2.70693 1.5 2.98193 1.5H7.98193V4C7.98193 4.55312 8.42881 5 8.98193 5H11.4819V14C11.4819 14.275 11.2569 14.5 10.9819 14.5H2.98193C2.70693 14.5 2.48193 14.275 2.48193 14ZM2.98193 0C1.87881 0 0.981934 0.896875 0.981934 2V14C0.981934 15.1031 1.87881 16 2.98193 16H10.9819C12.0851 16 12.9819 15.1031 12.9819 14V4.82812C12.9819 4.29688 12.7726 3.7875 12.3976 3.4125L9.56631 0.584375C9.19131 0.209375 8.68506 0 8.15381 0H2.98193ZM7.73193 12.75V9.55937L8.70068 10.5281C8.99443 10.8219 9.46943 10.8219 9.76006 10.5281C10.0507 10.2344 10.0538 9.75937 9.76006 9.46875L7.51006 7.21875C7.21631 6.925 6.74131 6.925 6.45068 7.21875L4.20068 9.46875C3.90693 9.7625 3.90693 10.2375 4.20068 10.5281C4.49443 10.8187 4.96943 10.8219 5.26006 10.5281L6.22881 9.55937V12.75C6.22881 13.1656 6.56318 13.5 6.97881 13.5C7.39443 13.5 7.72881 13.1656 7.72881 12.75H7.73193Z" fill="#B3B3C3"/>
</svg>
