<svg width="40" height="40" viewBox="0 0 40 40" fill="none" xmlns="http://www.w3.org/2000/svg">
<path d="M25.0001 0V10H35.0001L25.0001 0ZM24.922 25.5469L21.8751 28.6016V19.375C21.8751 18.3438 21.0392 17.5 20.0001 17.5C18.961 17.5 18.1251 18.3438 18.1251 19.375V28.6016L15.0759 25.5523C14.711 25.1797 14.2345 25 13.7501 25C13.2657 25 12.7907 25.1831 12.4243 25.5493C11.6919 26.2817 11.6919 27.468 12.4243 28.2009L18.6743 34.4509C19.4067 35.1833 20.5931 35.1833 21.3259 34.4509L27.5759 28.2009C28.3083 27.4684 28.3083 26.2821 27.5759 25.5493C26.8435 24.8165 25.6563 24.8203 24.922 25.5469Z" fill="#E84A4A"/>
<path d="M25 10V0H8.75C6.67891 0 5 1.67891 5 3.75V36.25C5 38.3203 6.67891 40 8.75 40H31.25C33.3211 40 35 38.3211 35 36.25V10H25ZM27.5078 28.1328L21.2578 34.3828C20.5254 35.1152 19.3391 35.1152 18.6063 34.3828L12.3563 28.1328C11.6238 27.4004 11.6238 26.2141 12.3563 25.4813C12.7906 25.1797 13.2656 25 13.75 25C14.2344 25 14.7094 25.1831 15.0758 25.5493L18.125 28.6016V19.375C18.125 18.3438 18.9688 17.5 20 17.5C21.0312 17.5 21.875 18.3398 21.875 19.375V28.6016L24.9242 25.5523C25.6566 24.8199 26.843 24.8199 27.5758 25.5523C28.3086 26.2848 28.3047 27.4688 27.5078 28.1328Z" fill="white"/>
</svg>
