<svg width="40" height="40" viewBox="0 0 40 40" fill="none" xmlns="http://www.w3.org/2000/svg">
<path d="M4.44444 34.4444H19.7569C20.5903 35.7222 21.6597 36.8402 22.9028 37.7291C22.6806 37.7638 22.4583 37.7777 22.2292 37.7777H4.44444C1.99306 37.7777 0 35.7847 0 33.3333V6.66661C0 4.21522 1.99306 2.22217 4.44444 2.22217H15.9375C17.1181 2.22217 18.25 2.68745 19.0833 3.52078L25.3681 9.8055C26.2014 10.6388 26.6667 11.7708 26.6667 12.9513V16.0138C25.4722 16.3541 24.3472 16.868 23.3333 17.5277V13.3333H17.7778C16.5486 13.3333 15.5556 12.3402 15.5556 11.1111V5.5555H4.44444C3.83333 5.5555 3.33333 6.0555 3.33333 6.66661V33.3333C3.33333 33.9444 3.83333 34.4444 4.44444 34.4444ZM20 27.7777C20 25.1256 21.0536 22.582 22.9289 20.7067C24.8043 18.8313 27.3478 17.7777 30 17.7777C32.6522 17.7777 35.1957 18.8313 37.0711 20.7067C38.9464 22.582 40 25.1256 40 27.7777C40 30.4299 38.9464 32.9734 37.0711 34.8488C35.1957 36.7242 32.6522 37.7777 30 37.7777C27.3478 37.7777 24.8043 36.7242 22.9289 34.8488C21.0536 32.9734 20 30.4299 20 27.7777ZM34.6736 24.7708C34.2431 24.3402 33.5347 24.3402 33.1042 24.7708L28.8889 28.9861L26.8958 26.993C26.4653 26.5624 25.7569 26.5624 25.3264 26.993C24.8958 27.4236 24.8958 28.1319 25.3264 28.5624L28.1042 31.3402C28.5347 31.7708 29.2431 31.7708 29.6736 31.3402L34.6736 26.3402C35.1042 25.9097 35.1042 25.2013 34.6736 24.7708Z" fill="#B3B3C3"/>
</svg>
