<svg width="48" height="48" viewBox="0 0 48 48" fill="none" xmlns="http://www.w3.org/2000/svg">
<g clip-path="url(#clip0_31100_170908)">
<path d="M6 43.5H13.5V48H6C2.69063 48 0 45.3094 0 42V6C0 2.69063 2.69063 0 6 0H21.5156C23.1094 0 24.6375 0.628125 25.7625 1.75313L34.2469 10.2375C35.3719 11.3625 36 12.8906 36 14.4844V28.5H31.5V15H24C22.3406 15 21 13.6594 21 12V4.5H6C5.175 4.5 4.5 5.175 4.5 6V42C4.5 42.825 5.175 43.5 6 43.5ZM21 34.5C21 35.1844 21.2062 35.85 21.5812 36.4125L22.5 37.7906L23.4188 36.4125C23.7938 35.8406 24 35.175 24 34.5C24 33.675 24.675 33 25.5 33C26.325 33 27 33.675 27 34.5C27 35.775 26.625 37.0219 25.9125 38.0813L24.3 40.5L25.9125 42.9187C26.625 43.9781 27 45.225 27 46.5C27 47.325 26.325 48 25.5 48C24.675 48 24 47.325 24 46.5C24 45.8156 23.7938 45.15 23.4188 44.5875L22.5 43.2L21.5812 44.5781C21.2062 45.15 21 45.8156 21 46.4906C21 47.3156 20.325 47.9906 19.5 47.9906C18.675 47.9906 18 47.3156 18 46.4906C18 45.2156 18.375 43.9688 19.0875 42.9094L20.7 40.5L19.0875 38.0813C18.375 37.0219 18 35.775 18 34.5C18 33.675 18.675 33 19.5 33C20.325 33 21 33.675 21 34.5ZM30 46.5V34.5C30 33.675 30.675 33 31.5 33C32.325 33 33 33.675 33 34.5V45H36C36.825 45 37.5 45.675 37.5 46.5C37.5 47.325 36.825 48 36 48H31.5C30.675 48 30 47.325 30 46.5ZM38.25 37.2844C38.25 34.9219 40.1625 33 42.5344 33H45C45.825 33 46.5 33.675 46.5 34.5C46.5 35.325 45.825 36 45 36H42.5344C41.8313 36 41.25 36.5719 41.25 37.2844C41.25 37.7719 41.5219 38.2125 41.9625 38.4281L44.8875 39.8906C46.3406 40.6125 47.25 42.0938 47.25 43.7156C47.25 46.0781 45.3375 48 42.9656 48H40.5C39.675 48 39 47.325 39 46.5C39 45.675 39.675 45 40.5 45H42.9656C43.6687 45 44.25 44.4281 44.25 43.7156C44.25 43.2281 43.9781 42.7875 43.5375 42.5719L40.6125 41.1094C39.1688 40.3875 38.25 38.9062 38.25 37.2844Z" fill="#B3B3C3"/>
</g>
<defs>
<clipPath id="clip0_31100_170908">
<rect width="48" height="48" fill="white"/>
</clipPath>
</defs>
</svg>
