<svg width="36" height="48" viewBox="0 0 36 48" fill="none" xmlns="http://www.w3.org/2000/svg">
<g clip-path="url(#clip0_9085_150991)">
<path d="M30 43.5C30.825 43.5 31.5 42.825 31.5 42V15H24C22.3406 15 21 13.6594 21 12V4.5H6C5.175 4.5 4.5 5.175 4.5 6V42C4.5 42.825 5.175 43.5 6 43.5H30ZM0 6C0 2.69063 2.69063 0 6 0H21.5156C23.1094 0 24.6375 0.628125 25.7625 1.75313L34.2469 10.2375C35.3719 11.3625 36 12.8906 36 14.4844V42C36 45.3094 33.3094 48 30 48H6C2.69063 48 0 45.3094 0 42V6Z" fill="#B3B3C3"/>
</g>
<defs>
<clipPath id="clip0_9085_150991">
<rect width="36" height="48" fill="white"/>
</clipPath>
</defs>
</svg>
