<svg width="40" height="40" viewBox="0 0 40 40" fill="current" xmlns="http://www.w3.org/2000/svg">
<path d="M10 0C7.24219 0 5 2.24219 5 5V35C5 37.7578 7.24219 40 10 40H30C32.7578 40 35 37.7578 35 35V12.5H25C23.6172 12.5 22.5 11.3828 22.5 10V0H10ZM25 0V10H35L25 0ZM10 17.5H11.875C14.2891 17.5 16.25 19.4609 16.25 21.875C16.25 24.2891 14.2891 26.25 11.875 26.25H11.25V28.75C11.25 29.4375 10.6875 30 10 30C9.3125 30 8.75 29.4375 8.75 28.75V25V18.75C8.75 18.0625 9.3125 17.5 10 17.5ZM11.875 23.75C12.9141 23.75 13.75 22.9141 13.75 21.875C13.75 20.8359 12.9141 20 11.875 20H11.25V23.75H11.875ZM17.5 18.75C17.5 18.0625 18.0625 17.5 18.75 17.5H20.625C22.6953 17.5 24.375 19.1797 24.375 21.25V26.25C24.375 28.3203 22.6953 30 20.625 30H18.75C18.0625 30 17.5 29.4375 17.5 28.75V18.75ZM20 27.5H20.625C21.3125 27.5 21.875 26.9375 21.875 26.25V21.25C21.875 20.5625 21.3125 20 20.625 20H20V27.5ZM27.5 17.5H31.25C31.9375 17.5 32.5 18.0625 32.5 18.75C32.5 19.4375 31.9375 20 31.25 20H28.75V22.5H31.25C31.9375 22.5 32.5 23.0625 32.5 23.75C32.5 24.4375 31.9375 25 31.25 25H28.75V28.75C28.75 29.4375 28.1875 30 27.5 30C26.8125 30 26.25 29.4375 26.25 28.75V23.75V18.75C26.25 18.0625 26.8125 17.5 27.5 17.5Z" fill="current"/>
</svg>
