<svg width="40" height="40" viewBox="0 0 40 40" fill="none" xmlns="http://www.w3.org/2000/svg">
<path d="M15.5557 13.3333V2.22217L26.6668 13.3333H15.5557ZM20.0001 27.7777C20.0001 22.2569 24.4793 17.7777 30.0001 17.7777C35.5209 17.7777 40.0001 22.2569 40.0001 27.7777C40.0001 33.2986 35.5209 37.7777 30.0001 37.7777C24.4793 37.7777 20.0001 33.2986 20.0001 27.7777ZM30.0001 24.4444C30.9237 24.4444 31.6668 23.7013 31.6668 22.7777C31.6668 21.8541 30.9237 21.1111 30.0001 21.1111C29.0765 21.1111 28.3334 21.8541 28.3334 22.7777C28.3334 23.7013 29.0765 24.4444 30.0001 24.4444ZM28.889 28.8888V32.2222C28.2779 32.2222 27.7779 32.7222 27.7779 33.3333C27.7779 33.9444 28.2779 34.4444 28.889 34.4444H31.1112C31.7223 34.4444 32.2223 33.9444 32.2223 33.3333C32.2223 32.7222 31.7223 32.2222 31.1112 32.2222V27.7777C31.1112 27.1666 30.6112 26.6666 30.0001 26.6666H28.889C28.2779 26.6666 27.7779 27.1666 27.7779 27.7777C27.7779 28.3888 28.2779 28.8888 28.889 28.8888Z" fill="#E84A4A"/>
<path d="M0 6.66661C0 4.21175 1.98958 2.22217 4.44444 2.22217H15.5556V13.3333H26.6667V16.0138C21.5347 17.4652 17.7778 22.1805 17.7778 27.7777C17.7778 31.8819 19.7986 35.5069 22.8958 37.7291C22.6806 37.7569 22.4514 37.7777 22.2222 37.7777H4.44444C1.98958 37.7777 0 35.7847 0 33.3333V6.66661Z" fill="#2D253F"/>
</svg>
