<svg width="48" height="39" viewBox="0 0 48 39" fill="current" xmlns="http://www.w3.org/2000/svg">
<path d="M2.91006 0.382433C2.13006 -0.232567 0.997555 -0.0900667 0.382555 0.689933C-0.232445 1.46993 -0.0899446 2.60243 0.690055 3.21743L45.0901 38.0174C45.8701 38.6324 47.0026 38.4899 47.6176 37.7099C48.2326 36.9299 48.0901 35.7974 47.3101 35.1824L38.4001 28.1999V11.9999H28.8001C27.4726 11.9999 26.4001 10.9274 26.4001 9.59993V-6.67077e-05H14.4001C11.7526 -6.67077e-05 9.60006 2.15243 9.60006 4.79993V5.62493L2.91006 0.382433ZM37.3351 36.6149L9.60006 14.7599V33.5999C9.60006 36.2474 11.7526 38.3999 14.4001 38.3999H33.6001C35.1076 38.3999 36.4576 37.7024 37.3351 36.6149ZM38.4001 9.59993L28.8001 -6.67077e-05V9.59993H38.4001Z" fill="current"/>
</svg>
