<svg width="48" height="48" viewBox="0 0 48 48" fill="none" xmlns="http://www.w3.org/2000/svg">
<g clip-path="url(#clip0_31100_170916)">
<path d="M0 6C0 2.69063 2.69063 0 6 0H21V12C21 13.6594 22.3406 15 24 15H36V28.5H19.5C16.1906 28.5 13.5 31.1906 13.5 34.5V48H6C2.69063 48 0 45.3094 0 42V6Z" fill="white"/>
<path d="M36 15L21 0V12C21 13.6594 22.3406 15 24 15H36ZM21 34.5C21 33.675 20.325 33 19.5 33C18.675 33 18 33.675 18 34.5C18 35.775 18.375 37.0219 19.0875 38.0813L20.7 40.5L19.0875 42.9187C18.375 43.9781 18 45.225 18 46.5C18 47.325 18.675 48 19.5 48C20.325 48 21 47.325 21 46.5C21 45.8156 21.2062 45.15 21.5812 44.5875L22.5 43.2094L23.4188 44.5875C23.7938 45.1594 24 45.825 24 46.5C24 47.325 24.675 48 25.5 48C26.325 48 27 47.325 27 46.5C27 45.225 26.625 43.9781 25.9125 42.9187L24.3 40.5L25.9125 38.0813C26.625 37.0219 27 35.775 27 34.5C27 33.675 26.325 33 25.5 33C24.675 33 24 33.675 24 34.5C24 35.1844 23.7938 35.85 23.4188 36.4125L22.5 37.8L21.5812 36.4219C21.2062 35.85 21 35.1844 21 34.5094V34.5ZM30 46.5C30 47.325 30.675 48 31.5 48H36C36.825 48 37.5 47.325 37.5 46.5C37.5 45.675 36.825 45 36 45H33V34.5C33 33.675 32.325 33 31.5 33C30.675 33 30 33.675 30 34.5V46.5ZM38.25 37.2844C38.25 38.9062 39.1688 40.3875 40.6125 41.1094L43.5375 42.5719C43.9688 42.7875 44.25 43.2281 44.25 43.7156C44.25 44.4187 43.6781 45 42.9656 45H40.5C39.675 45 39 45.675 39 46.5C39 47.325 39.675 48 40.5 48H42.9656C45.3281 48 47.25 46.0875 47.25 43.7156C47.25 42.0938 46.3312 40.6125 44.8875 39.8906L41.9625 38.4281C41.5312 38.2125 41.25 37.7719 41.25 37.2844C41.25 36.5813 41.8219 36 42.5344 36H45C45.825 36 46.5 35.325 46.5 34.5C46.5 33.675 45.825 33 45 33H42.5344C40.1719 33 38.25 34.9125 38.25 37.2844Z" fill="#FF4545"/>
</g>
<defs>
<clipPath id="clip0_31100_170916">
<rect width="48" height="48" fill="white"/>
</clipPath>
</defs>
</svg>
