<svg width="48" height="39" viewBox="0 0 48 39" fill="none" xmlns="http://www.w3.org/2000/svg">
<g clip-path="url(#clip0_21276_66564)">
<path d="M0 33.6384V7.20824L28.8 29.9217V33.6384C28.8 36.289 26.6475 38.4439 24 38.4439H4.8C2.1525 38.4439 0 36.289 0 33.6384ZM28.8 20.7012L2.91 0.382938C3.495 0.135154 4.1325 0 4.8 0H16.8V9.61098C16.8 10.94 17.8725 12.0137 19.2 12.0137H28.8V20.7012ZM19.2 0L28.8 9.61098H19.2V0Z" fill="white"/>
<path d="M0.382555 0.690723C0.997555 -0.0901692 2.13006 -0.232832 2.91006 0.382871L47.3101 35.2227C48.0901 35.8384 48.2326 36.9722 47.6176 37.7531C47.0026 38.534 45.8701 38.6766 45.0901 38.0609L0.690055 3.22112C-0.0899446 2.60541 -0.232445 1.47162 0.382555 0.690723Z" fill="#FF4545"/>
</g>
<defs>
<clipPath id="clip0_21276_66564">
<rect width="48" height="38.4439" fill="white"/>
</clipPath>
</defs>
</svg>
