<svg width="46" height="37" viewBox="0 0 46 37" fill="none" xmlns="http://www.w3.org/2000/svg">
<g clip-path="url(#clip0_21276_66574)">
<path d="M2.78879 0.366616C2.04129 -0.222759 0.955975 -0.0861969 0.3666 0.661303C-0.222775 1.4088 -0.0862122 2.49412 0.661288 3.08349L43.2113 36.4335C43.9588 37.0229 45.0441 36.8863 45.6335 36.1388C46.2229 35.3913 46.0863 34.306 45.3388 33.7166L36.8 27.0251V11.1047C36.8 9.88286 36.3185 8.7113 35.456 7.8488L28.9441 1.34412C28.0816 0.481616 26.9172 5.30558e-05 25.6954 5.30558e-05H13.8C11.2629 5.30558e-05 9.20004 2.06287 9.20004 4.60005V5.39068L2.78879 0.366616ZM12.65 8.09318V4.60005C12.65 3.96755 13.1675 3.45005 13.8 3.45005H25.3V9.20005C25.3 10.4722 26.3279 11.5001 27.6 11.5001H33.35V24.3226L12.65 8.09318ZM35.7794 35.0894L33.0697 32.9547C32.8613 33.1991 32.545 33.3501 32.2 33.3501H13.8C13.1675 33.3501 12.65 32.8326 12.65 32.2001V16.8691L9.20004 14.1522V32.2001C9.20004 34.7372 11.2629 36.8001 13.8 36.8001H32.2C33.6447 36.8001 34.9385 36.1316 35.7794 35.0894Z" fill="#B3B3C3"/>
</g>
<defs>
<clipPath id="clip0_21276_66574">
<rect width="46" height="36.8" fill="white"/>
</clipPath>
</defs>
</svg>
