<svg width="40" height="40" viewBox="0 0 40 40" fill="none" xmlns="http://www.w3.org/2000/svg">
<path d="M8.75 35V5C8.75 4.3125 9.3125 3.75 10 3.75H22.5V10C22.5 11.3828 23.6172 12.5 25 12.5H31.25V35C31.25 35.6875 30.6875 36.25 30 36.25H10C9.3125 36.25 8.75 35.6875 8.75 35ZM10 0C7.24219 0 5 2.24219 5 5V35C5 37.7578 7.24219 40 10 40H30C32.7578 40 35 37.7578 35 35V12.0703C35 10.7422 34.4766 9.46875 33.5391 8.53125L26.4609 1.46094C25.5234 0.523438 24.2578 0 22.9297 0H10ZM21.875 18.125C21.875 17.0859 21.0391 16.25 20 16.25C18.9609 16.25 18.125 17.0859 18.125 18.125V26.1016L15.7031 23.6797C14.9688 22.9453 13.7812 22.9453 13.0547 23.6797C12.3281 24.4141 12.3203 25.6016 13.0547 26.3281L18.6797 31.9531C19.4141 32.6875 20.6016 32.6875 21.3281 31.9531L26.9531 26.3281C27.6875 25.5938 27.6875 24.4063 26.9531 23.6797C26.2188 22.9531 25.0313 22.9453 24.3047 23.6797L21.8828 26.1016V18.125H21.875Z" fill="#B3B3C3"/>
</svg>
