<svg width="40" height="40" viewBox="0 0 40 40" fill="current" xmlns="http://www.w3.org/2000/svg">
<path d="M0 6.66661C0 4.21522 1.99306 2.22217 4.44444 2.22217H15.5556V11.1111C15.5556 12.3402 16.5486 13.3333 17.7778 13.3333H26.6667V16.0138C21.5347 17.4652 17.7778 22.1805 17.7778 27.7777C17.7778 31.8819 19.7986 35.5069 22.8958 37.7291C22.6736 37.7638 22.4514 37.7777 22.2222 37.7777H4.44444C1.99306 37.7777 0 35.7847 0 33.3333V6.66661ZM26.6667 11.1111H17.7778V2.22217L26.6667 11.1111ZM30 37.7777C24.4792 37.7777 20 33.2986 20 27.7777C20 22.2569 24.4792 17.7777 30 17.7777C35.5208 17.7777 40 22.2569 40 27.7777C40 33.2986 35.5208 37.7777 30 37.7777ZM30 24.4444C30.9236 24.4444 31.6667 23.7013 31.6667 22.7777C31.6667 21.8541 30.9236 21.1111 30 21.1111C29.0764 21.1111 28.3333 21.8541 28.3333 22.7777C28.3333 23.7013 29.0764 24.4444 30 24.4444ZM27.7778 27.7777C27.7778 28.3888 28.2778 28.8888 28.8889 28.8888V32.2222C28.2778 32.2222 27.7778 32.7222 27.7778 33.3333C27.7778 33.9444 28.2778 34.4444 28.8889 34.4444H30H31.1111C31.7222 34.4444 32.2222 33.9444 32.2222 33.3333C32.2222 32.7222 31.7222 32.2222 31.1111 32.2222V27.7777C31.1111 27.1666 30.6111 26.6666 30 26.6666H28.8889C28.2778 26.6666 27.7778 27.1666 27.7778 27.7777Z" fill="current"/>
</svg>
