<svg width="40" height="40" viewBox="0 0 40 40" fill="none" xmlns="http://www.w3.org/2000/svg">
<path d="M31.25 35V12.5H25C23.6172 12.5 22.5 11.3828 22.5 10V3.75H10C9.3125 3.75 8.75 4.3125 8.75 5V35C8.75 35.6875 9.3125 36.25 10 36.25H30C30.6875 36.25 31.25 35.6875 31.25 35ZM5 5C5 2.24219 7.24219 0 10 0H22.9297C24.2578 0 25.5312 0.523438 26.4687 1.46094L33.5391 8.53125C34.4766 9.46875 35 10.7422 35 12.0703V35C35 37.7578 32.7578 40 30 40H10C7.24219 40 5 37.7578 5 35V5ZM20 16.8438C20.8594 16.8438 21.5625 17.5469 21.5625 18.4063V19.1953C22.125 19.2812 22.6719 19.3906 23.1719 19.5156C24.0078 19.7109 24.5312 20.5547 24.3359 21.3984C24.1406 22.2422 23.2969 22.7578 22.4531 22.5625C21.5937 22.3594 20.75 22.2109 19.9766 22.1953C19.3359 22.1875 18.6719 22.3203 18.2266 22.5547C17.8203 22.7734 17.8125 22.9219 17.8125 23.0156C17.8125 23.0469 17.8125 23.0469 17.8125 23.0469C17.8359 23.0781 17.9219 23.1719 18.1562 23.2969C18.6641 23.5703 19.3906 23.7656 20.3906 24.0391L20.4453 24.0547C21.3203 24.2891 22.4297 24.5859 23.3203 25.0859C24.2891 25.6328 25.2891 26.5859 25.3047 28.1562C25.3281 29.7734 24.3906 30.875 23.2969 31.4766C22.7578 31.7734 22.1562 31.9688 21.5547 32.0859V32.875C21.5547 33.7344 20.8516 34.4375 19.9922 34.4375C19.1328 34.4375 18.4297 33.7344 18.4297 32.875V32.0078C17.6484 31.8594 16.9219 31.6328 16.2812 31.4375C16.1172 31.3828 15.9531 31.3359 15.8047 31.2891C14.9766 31.0469 14.5078 30.1719 14.75 29.3438C14.9922 28.5156 15.8672 28.0469 16.6953 28.2891C16.8906 28.3438 17.0781 28.4062 17.2578 28.4609C18.3203 28.7812 19.1484 29.0312 20.0469 29.0625C20.7422 29.0859 21.3906 28.9453 21.7969 28.7188C22.1406 28.5234 22.1953 28.3672 22.1875 28.1797V28.1719C22.1875 28.1328 22.2031 28.0156 21.7969 27.7969C21.2969 27.5156 20.5703 27.3047 19.5859 27.0391L19.4531 27C18.6016 26.7734 17.5391 26.4844 16.6875 26.0313C15.7344 25.5234 14.7031 24.5938 14.6875 23.0156C14.6797 21.375 15.7187 20.3281 16.7734 19.7734C17.2969 19.5 17.8672 19.3125 18.4375 19.2031V18.4063C18.4375 17.5469 19.1406 16.8438 20 16.8438ZM12.5 7.5H18.75C19.4375 7.5 20 8.0625 20 8.75C20 9.4375 19.4375 10 18.75 10H12.5C11.8125 10 11.25 9.4375 11.25 8.75C11.25 8.0625 11.8125 7.5 12.5 7.5ZM12.5 12.5H18.75C19.4375 12.5 20 13.0625 20 13.75C20 14.4375 19.4375 15 18.75 15H12.5C11.8125 15 11.25 14.4375 11.25 13.75C11.25 13.0625 11.8125 12.5 12.5 12.5Z" fill="#B3B3C3"/>
</svg>
