<svg width="40" height="40" viewBox="0 0 40 40" fill="none" xmlns="http://www.w3.org/2000/svg">
<path d="M8.75 35V5C8.75 4.3125 9.3125 3.75 10 3.75H22.5V10C22.5 11.3828 23.6172 12.5 25 12.5H31.25V35C31.25 35.6875 30.6875 36.25 30 36.25H10C9.3125 36.25 8.75 35.6875 8.75 35ZM10 0C7.24219 0 5 2.24219 5 5V35C5 37.7578 7.24219 40 10 40H30C32.7578 40 35 37.7578 35 35V12.0703C35 10.7422 34.4766 9.46875 33.5391 8.53125L26.4609 1.46094C25.5234 0.523438 24.2578 0 22.9297 0H10ZM21.875 21.875C21.875 20.8359 21.0391 20 20 20C18.9609 20 18.125 20.8359 18.125 21.875V31.875C18.125 32.9141 18.9609 33.75 20 33.75C21.0391 33.75 21.875 32.9141 21.875 31.875V21.875ZM28.75 24.375C28.75 23.3359 27.9141 22.5 26.875 22.5C25.8359 22.5 25 23.3359 25 24.375V31.875C25 32.9141 25.8359 33.75 26.875 33.75C27.9141 33.75 28.75 32.9141 28.75 31.875V24.375ZM15 26.875C15 25.8359 14.1641 25 13.125 25C12.0859 25 11.25 25.8359 11.25 26.875V31.875C11.25 32.9141 12.0859 33.75 13.125 33.75C14.1641 33.75 15 32.9141 15 31.875V26.875Z" fill="#B3B3C3"/>
</svg>
