<svg width="40" height="40" viewBox="0 0 40 40" fill="current" xmlns="http://www.w3.org/2000/svg">
<path d="M10 0C7.24219 0 5 2.24219 5 5V35C5 37.7578 7.24219 40 10 40H30C32.7578 40 35 37.7578 35 35V12.5H25C23.6172 12.5 22.5 11.3828 22.5 10V0H10ZM25 0V10H35L25 0ZM10 6.25C10 5.5625 10.5625 5 11.25 5H16.25C16.9375 5 17.5 5.5625 17.5 6.25C17.5 6.9375 16.9375 7.5 16.25 7.5H11.25C10.5625 7.5 10 6.9375 10 6.25ZM10 11.25C10 10.5625 10.5625 10 11.25 10H16.25C16.9375 10 17.5 10.5625 17.5 11.25C17.5 11.9375 16.9375 12.5 16.25 12.5H11.25C10.5625 12.5 10 11.9375 10 11.25ZM20 16.875C20.6875 16.875 21.25 17.4375 21.25 18.125V19.4766C21.9141 19.5703 22.5547 19.7188 23.1328 19.875C23.7969 20.0547 24.1953 20.7344 24.0156 21.4062C23.8359 22.0781 23.1562 22.4687 22.4844 22.2891C21.6172 22.0547 20.7656 21.8828 19.9766 21.875C19.3203 21.8672 18.6172 22.0156 18.1328 22.3047C17.6875 22.5703 17.5 22.875 17.5 23.3047C17.5 23.5938 17.6016 23.8125 18.0703 24.0938C18.6094 24.4141 19.3672 24.6484 20.3516 24.9453L20.3906 24.9531C21.2734 25.2188 22.3672 25.5469 23.2266 26.0938C24.1719 26.6875 24.9766 27.6328 25 29.0781C25.0234 30.5859 24.25 31.6797 23.2109 32.3281C22.6094 32.7031 21.9297 32.9219 21.25 33.0391V34.375C21.25 35.0625 20.6875 35.625 20 35.625C19.3125 35.625 18.75 35.0625 18.75 34.375V32.9844C17.875 32.8203 17.0547 32.5391 16.3359 32.2891C16.1719 32.2344 16.0078 32.1797 15.8516 32.125C15.1953 31.9063 14.8438 31.1953 15.0625 30.5469C15.2812 29.8984 15.9922 29.5391 16.6406 29.7578C16.8359 29.8203 17.0156 29.8828 17.1953 29.9453C18.2578 30.3047 19.1172 30.6016 20.0312 30.625C20.7422 30.6484 21.4297 30.4922 21.8828 30.2109C22.2812 29.9609 22.5 29.6406 22.4922 29.1172C22.4844 28.7578 22.3516 28.5078 21.8906 28.2109C21.3594 27.875 20.6016 27.6328 19.625 27.3359L19.5 27.2969C18.6406 27.0391 17.6016 26.7266 16.7812 26.2266C15.8438 25.6641 15.0156 24.75 15.0078 23.3125C15 21.7969 15.8516 20.75 16.8672 20.1484C17.4531 19.8047 18.1016 19.5859 18.75 19.4688V18.125C18.75 17.4375 19.3125 16.875 20 16.875Z" fill="current"/>
</svg>
