<svg width="40" height="40" viewBox="0 0 40 40" fill="none" xmlns="http://www.w3.org/2000/svg">
<path d="M29.0078 22.5H26C25.5 22.5 25 23 25 23.5V34.0078C25 34.5 25.5 35 26 35H29.0078C29.5 35 30 34.5 30 34.0078V23.5C30 23 29.5 22.5 29.0078 22.5ZM14.0078 27.5H11C10.4984 27.5 10 28 10 28.5V34.0078C10 34.5 10.4984 35 10.9961 35H14.0039C14.5 35 15 34.5 15 34.0078V28.5C15 28 14.5 27.5 14.0078 27.5ZM21.5078 17.5H18.5C18 17.5 17.5 18 17.5 18.5V34.0078C17.5 34.5 18 35 18.5 35H21.5078C22 35 22.5 34.5 22.5 34.0078V18.5C22.5 18 22 17.5 21.5078 17.5ZM25 0V10H35L25 0Z" fill="#E84A4A"/>
<path d="M25 10V0H8.75C6.67891 0 5 1.67891 5 3.75V36.25C5 38.3203 6.67891 40 8.75 40H31.25C33.3211 40 35 38.3211 35 36.25V10H25ZM15 34.0078C15 34.5 14.5 35 14.0078 35H11C10.4984 35 10 34.5 10 34.0078V28.5C10 28 10.4984 27.5 10.9961 27.5H14.0039C14.5 27.5 15 28 15 28.5V34.0078ZM22.5 34.0078C22.5 34.5 22 35 21.5078 35H18.5C18 35 17.5 34.5 17.5 34.0078V18.5C17.5 18 18 17.5 18.5 17.5H21.5078C22 17.5 22.5 18 22.5 18.5V34.0078ZM30 34.0078C30 34.5 29.5 35 29.0078 35H26C25.5 35 25 34.5 25 34.0078V23.5C25 23 25.5 22.5 26 22.5H29.0078C29.5 22.5 30 23 30 23.5V34.0078Z" fill="#2D253F"/>
</svg>
