<svg width="40" height="41" viewBox="0 0 40 41" fill="none" xmlns="http://www.w3.org/2000/svg">
<path d="M30 0.724243V10.7242H40L30 0.724243ZM19.3281 19.6539C18.4531 18.7633 18.3046 18.6539 18.1015 17.9742C18.0312 17.7477 17.9609 17.4586 17.8515 17.0524C17.7968 16.8492 17.7265 16.6617 17.625 16.4899C17.3281 15.9664 16.8359 15.5758 16.2421 15.4117C15.2421 15.1383 14.9453 15.0836 14.5781 14.7867C14.4375 14.6696 14.2812 14.5133 13.9921 14.2946C13.9531 14.1852 13.7578 14.0524 13.6796 13.9117C13.4843 13.7086 13.2578 13.568 13.0156 13.3883C12.9531 13.4274 12.8984 13.4039 12.8359 13.3805C12.5937 13.2867 12.3281 13.2242 12.0625 13.2242C12.0611 13.2242 12.0638 13.2242 12.0625 13.2242C12.0623 13.2242 12.0626 13.2242 12.0625 13.2242C12.0623 13.2242 12.0626 13.2242 12.0625 13.2242C11.8671 13.2242 11.6718 13.2477 11.4765 13.3024C11.4956 13.2972 11.5141 13.2993 11.5332 13.295C11.5156 13.2321 11.4921 13.2946 11.4765 13.3024C10.6796 13.5211 10.3359 13.6227 9.92964 13.6227C9.58909 13.6227 9.25019 13.5153 8.45933 13.3004C8.33589 13.2477 8.13276 13.2242 7.93745 13.2242C7.93608 13.2242 7.93883 13.2242 7.93745 13.2242C7.67026 13.2242 7.41089 13.2867 7.16245 13.3805C7.10073 13.4039 7.0437 13.4274 6.98433 13.3883C6.74292 13.568 6.51323 13.7086 6.31948 13.9117C5.14761 15.0914 5.34292 14.9742 3.76089 15.4117C2.97026 15.6305 2.35151 16.2555 2.14683 17.0524C1.98589 17.6617 1.90464 18.0133 1.80073 18.2711C1.62808 18.7164 1.39839 18.9117 0.672296 19.6539C0.525812 19.7946 0.405265 19.9586 0.305109 20.1383C0.00483537 20.6617 -0.0811412 21.2946 0.0799525 21.9039C0.50964 23.5149 0.499874 23.2906 0.0799525 24.9024C-0.0811412 25.503 0.00482755 26.1367 0.305109 26.6633C0.405187 26.8388 0.525812 27.0024 0.672296 27.1489C1.53636 28.0348 1.69495 28.1465 1.90042 28.827C1.96878 29.0537 2.03948 29.3436 2.14691 29.7465C2.35198 30.5574 2.97034 31.1824 3.76175 31.3965C4.32331 31.5479 4.54769 31.6065 4.67425 31.6467C4.80081 31.687 4.83073 31.709 5.00144 31.7871V40.7242L10.0007 38.2242L14.9999 40.7242V31.7867C15.3319 31.6305 15.1171 31.6989 16.2397 31.3961C16.8328 31.235 17.3264 30.8432 17.6233 30.3149C17.7222 30.1391 17.7996 29.9481 17.8509 29.7454C17.9583 29.3401 18.0308 29.049 18.0985 28.822C18.3011 28.1402 18.4539 28.0337 19.325 27.1478C19.911 26.5618 20.136 25.7024 19.9207 24.9017C19.5008 23.2907 19.491 23.5149 19.9207 21.9032C20.1328 21.0992 19.914 20.2399 19.3281 19.6539ZM9.99995 28.2242C9.65448 28.2242 9.31706 28.1895 8.99136 28.1229C8.34011 27.9899 7.73511 27.7302 7.20308 27.371C6.67128 27.0114 6.21245 26.553 5.85308 26.021C5.31558 25.2242 5.00151 24.2633 5.00151 23.2242C5.00151 22.1852 5.31566 21.2258 5.85464 20.4274C6.2137 19.8954 6.67261 19.4367 7.20464 19.0774C7.73659 18.7181 8.34136 18.4585 8.99292 18.3254C9.32026 18.2555 9.6562 18.2242 9.99995 18.2242C12.7632 18.2242 14.9992 20.4602 14.9992 23.2242C14.9992 25.9883 12.7656 28.2242 9.99995 28.2242Z" fill="#E84A4A"/>
<path d="M30 10.7242V0.724243H13.75C11.6797 0.724243 10 2.40315 10 4.47424L10.0001 11.1102C10.1354 11.08 10.2972 11.0311 10.5219 10.9701L10.8183 10.8896C11.2235 10.7797 11.6418 10.7239 12.0605 10.7239C13.3285 10.7239 14.5683 11.2454 15.4629 12.1551L15.6771 12.3733C15.8466 12.5467 15.9652 12.6754 16.0698 12.7719C16.2019 12.8152 16.3674 12.8552 16.5935 12.9168L16.8943 12.9992C18.5427 13.4509 19.8279 14.7508 20.2646 16.4031L20.3524 16.7353C20.4142 16.9703 20.4534 17.14 20.4972 17.2752C20.5941 17.3853 20.7254 17.5099 20.9042 17.6911L21.0926 17.8821C22.3083 19.1142 22.7817 20.8884 22.3333 22.5603L22.2667 22.8083C22.197 23.0683 22.142 23.2493 22.1117 23.3989C22.1406 23.5367 22.1875 23.7008 22.25 23.9352L22.3347 24.2574C22.7809 25.9207 22.3048 27.7067 21.1066 28.9043L20.882 29.132C20.7137 29.3023 20.5887 29.4213 20.4953 29.5263C20.4515 29.6627 20.412 29.8342 20.3499 30.0714L20.2732 30.3625C19.9022 31.8289 18.8654 33.0235 17.4982 33.6024L17.4297 40.7242H36.25C38.3211 40.7242 40 39.0453 40 36.9742V10.7242H30Z" fill="white"/>
</svg>
