<svg width="40" height="40" viewBox="0 0 40 40" fill="none" xmlns="http://www.w3.org/2000/svg">
<path d="M22.5 12.5V0L35 12.5H22.5ZM12.5 17.5C14.2266 17.5 15.625 18.8984 15.625 20.625V21.25C15.625 21.9375 15.0625 22.5 14.375 22.5C13.6875 22.5 13.125 21.9375 13.125 21.25V20.625C13.125 20.2812 12.8438 20 12.5 20H11.25C10.9047 20 10.625 20.2812 10.625 20.625V26.875C10.625 27.2188 10.9047 27.5 11.25 27.5H12.5C12.8438 27.5 13.125 27.2188 13.125 26.875V26.25C13.125 25.5625 13.6875 25 14.375 25C15.0625 25 15.625 25.5625 15.625 26.25V26.875C15.625 28.6016 14.2266 30 12.5 30H11.25C9.52422 30 8.125 28.6016 8.125 26.875V20.625C8.125 18.8984 9.52422 17.5 11.25 17.5H12.5ZM16.875 21.125C16.875 19.125 18.5 17.5 20.5 17.5H21.875C22.5625 17.5 23.125 18.0625 23.125 18.75C23.125 19.4375 22.5625 20 21.875 20H20.5C19.875 20 19.375 20.5 19.375 21.125C19.375 21.5234 19.5938 21.8984 19.9375 22.1016L21.9219 23.2344C23.0547 23.875 23.75 25.0078 23.75 26.375C23.75 28.375 22.125 30 20.125 30H18.125C17.4375 30 16.875 29.4375 16.875 28.75C16.875 28.0625 17.4375 27.5 18.125 27.5H20.125C20.75 27.5 21.25 27 21.25 26.375C21.25 25.9766 21.0312 25.6016 20.6875 25.3984L18.7031 24.2656C17.5703 23.625 16.875 22.4219 16.875 21.125ZM26.875 21.2188C26.875 23.0156 27.3047 24.7812 28.125 26.3672C28.9453 24.7812 29.375 23.0156 29.375 21.2188V18.75C29.375 18.0625 29.9375 17.5 30.625 17.5C31.3125 17.5 31.875 18.0625 31.875 18.75V21.2188C31.875 23.9297 31.0703 26.5859 29.5625 28.8438L29.1641 29.4453C28.9297 29.7891 28.5469 30 28.125 30C27.7031 30 27.3203 29.7891 27.0859 29.4453L26.6875 28.8438C25.1797 26.5859 24.375 23.9297 24.375 21.2188V18.75C24.375 18.0625 24.9375 17.5 25.625 17.5C26.3125 17.5 26.875 18.0625 26.875 18.75V21.2188Z" fill="#E84A4A"/>
<path d="M5 5C5 2.23828 7.23828 0 10 0H22.5V12.5H35V35C35 37.7578 32.7578 40 30 40H10C7.23828 40 5 37.7578 5 35V5ZM11.25 17.5C9.52422 17.5 8.125 18.8984 8.125 20.625V26.875C8.125 28.6016 9.52422 30 11.25 30H12.5C14.2266 30 15.625 28.6016 15.625 26.875V26.25C15.625 25.5625 15.0625 25 14.375 25C13.6875 25 13.125 25.5625 13.125 26.25V26.875C13.125 27.2188 12.8438 27.5 12.5 27.5H11.25C10.9047 27.5 10.625 27.2188 10.625 26.875V20.625C10.625 20.2812 10.9047 20 11.25 20H12.5C12.8438 20 13.125 20.2812 13.125 20.625V21.25C13.125 21.9375 13.6875 22.5 14.375 22.5C15.0625 22.5 15.625 21.9375 15.625 21.25V20.625C15.625 18.8984 14.2266 17.5 12.5 17.5H11.25ZM18.7031 24.2656L20.6875 25.3984C21.0312 25.6016 21.25 25.9766 21.25 26.375C21.25 27 20.75 27.5 20.125 27.5H18.125C17.4375 27.5 16.875 28.0625 16.875 28.75C16.875 29.4375 17.4375 30 18.125 30H20.125C22.125 30 23.75 28.375 23.75 26.375C23.75 25.0078 23.0547 23.875 21.9219 23.2344L19.9375 22.1016C19.5938 21.8984 19.375 21.5234 19.375 21.125C19.375 20.5 19.875 20 20.5 20H21.875C22.5625 20 23.125 19.4375 23.125 18.75C23.125 18.0625 22.5625 17.5 21.875 17.5H20.5C18.5 17.5 16.875 19.125 16.875 21.125C16.875 22.4219 17.5703 23.625 18.7031 24.2656ZM26.875 18.75C26.875 18.0625 26.3125 17.5 25.625 17.5C24.9375 17.5 24.375 18.0625 24.375 18.75V21.2188C24.375 23.9297 25.1797 26.5859 26.6875 28.8438L27.0859 29.4453C27.3203 29.7891 27.7031 30 28.125 30C28.5469 30 28.9297 29.7891 29.1641 29.4453L29.5625 28.8438C31.0703 26.5859 31.875 23.9297 31.875 21.2188V18.75C31.875 18.0625 31.3125 17.5 30.625 17.5C29.9375 17.5 29.375 18.0625 29.375 18.75V21.2188C29.375 23.0156 28.9453 24.7812 28.125 26.3672C27.3047 24.7812 26.875 23.0156 26.875 21.2188V18.75Z" fill="white"/>
</svg>
