<svg width="24" height="32" viewBox="0 0 24 32" fill="none" xmlns="http://www.w3.org/2000/svg">
<g clip-path="url(#clip0_11510_2958)">
<path d="M24 10H16C14.8938 10 14 9.10625 14 8V0L24 10ZM12 15C12.8313 15 13.5 15.6687 13.5 16.5V19.5H16.5C17.3313 19.5 18 20.1688 18 21C18 21.8312 17.3313 22.5 16.5 22.5H13.5V25.5C13.5 26.3312 12.8313 27 12 27C11.1687 27 10.5 26.3312 10.5 25.5V22.5H7.5C6.66875 22.5 6 21.8312 6 21C6 20.1688 6.66875 19.5 7.5 19.5H10.5V16.5C10.5 15.6687 11.1687 15 12 15Z" fill="#FF4545"/>
<path d="M0 4C0 1.79375 1.79375 0 4 0H14V8C14 9.10625 14.8938 10 16 10H24V28C24 30.2062 22.2062 32 20 32H4C1.79375 32 0 30.2062 0 28V4ZM12 15C11.1687 15 10.5 15.6687 10.5 16.5V19.5H7.5C6.66875 19.5 6 20.1688 6 21C6 21.8312 6.66875 22.5 7.5 22.5H10.5V25.5C10.5 26.3312 11.1687 27 12 27C12.8313 27 13.5 26.3312 13.5 25.5V22.5H16.5C17.3312 22.5 18 21.8312 18 21C18 20.1688 17.3312 19.5 16.5 19.5H13.5V16.5C13.5 15.6687 12.8313 15 12 15Z" fill="#2E2640"/>
</g>
<defs>
<clipPath id="clip0_11510_2958">
<rect width="24" height="32" fill="white"/>
</clipPath>
</defs>
</svg>
