<svg width="40" height="40" viewBox="0 0 40 40" fill="current" xmlns="http://www.w3.org/2000/svg">
<path d="M10 0C7.24219 0 5 2.24219 5 5V35C5 37.7578 7.24219 40 10 40H30C32.7578 40 35 37.7578 35 35V12.5H25C23.6172 12.5 22.5 11.3828 22.5 10V0H10ZM25 0V10H35L25 0ZM21.875 18.125V26.1016L24.2969 23.6797C25.0312 22.9453 26.2188 22.9453 26.9453 23.6797C27.6719 24.4141 27.6797 25.6016 26.9453 26.3281L21.3203 31.9531C20.5859 32.6875 19.3984 32.6875 18.6719 31.9531L13.0469 26.3281C12.3125 25.5938 12.3125 24.4062 13.0469 23.6797C13.7812 22.9531 14.9687 22.9453 15.6953 23.6797L18.1172 26.1016V18.125C18.1172 17.0859 18.9531 16.25 19.9922 16.25C21.0312 16.25 21.8672 17.0859 21.8672 18.125H21.875Z" fill="current"/>
</svg>
