<svg width="36" height="40" viewBox="0 0 36 40" fill="none" xmlns="http://www.w3.org/2000/svg">
<path d="M5.98193 36.25H8.48193V40H5.98193C3.22412 40 0.981934 37.7578 0.981934 35V5C0.981934 2.24219 3.22412 0 5.98193 0H18.9116C20.2397 0 21.5132 0.523438 22.4507 1.46094L29.521 8.53125C30.4585 9.46875 30.9819 10.7422 30.9819 12.0703V22.5H27.2319V12.5H20.9819C19.5991 12.5 18.4819 11.3828 18.4819 10V3.75H5.98193C5.29443 3.75 4.73193 4.3125 4.73193 5V35C4.73193 35.6875 5.29443 36.25 5.98193 36.25ZM13.4819 27.5H15.3569C17.771 27.5 19.7319 29.4609 19.7319 31.875C19.7319 34.2891 17.771 36.25 15.3569 36.25H14.7319V38.75C14.7319 39.4375 14.1694 40 13.4819 40C12.7944 40 12.2319 39.4375 12.2319 38.75V35V28.75C12.2319 28.0625 12.7944 27.5 13.4819 27.5ZM15.3569 33.75C16.396 33.75 17.2319 32.9141 17.2319 31.875C17.2319 30.8359 16.396 30 15.3569 30H14.7319V33.75H15.3569ZM20.9819 28.75C20.9819 28.0625 21.5444 27.5 22.2319 27.5H24.1069C26.1772 27.5 27.8569 29.1797 27.8569 31.25V36.25C27.8569 38.3203 26.1772 40 24.1069 40H22.2319C21.5444 40 20.9819 39.4375 20.9819 38.75V28.75ZM23.4819 37.5H24.1069C24.7944 37.5 25.3569 36.9375 25.3569 36.25V31.25C25.3569 30.5625 24.7944 30 24.1069 30H23.4819V37.5ZM30.9819 27.5H34.7319C35.4194 27.5 35.9819 28.0625 35.9819 28.75C35.9819 29.4375 35.4194 30 34.7319 30H32.2319V32.5H34.7319C35.4194 32.5 35.9819 33.0625 35.9819 33.75C35.9819 34.4375 35.4194 35 34.7319 35H32.2319V38.75C32.2319 39.4375 31.6694 40 30.9819 40C30.2944 40 29.7319 39.4375 29.7319 38.75V33.75V28.75C29.7319 28.0625 30.2944 27.5 30.9819 27.5Z" fill="#B3B3C3"/>
</svg>
