<svg width="40" height="41" viewBox="0 0 40 41" fill="current" xmlns="http://www.w3.org/2000/svg">
<path d="M10.0173 5.72136C10.0173 2.96514 12.2582 0.724243 15.0144 0.724243H27.5072V10.7185C27.5072 12.1005 28.6237 13.217 30.0058 13.217H40V35.7041C40 38.4603 37.7591 40.7012 35.0029 40.7012H17.3021C17.4427 40.303 17.513 39.8814 17.513 39.4519V33.2055C17.6145 33.1665 17.7082 33.1274 17.8097 33.0884C18.3406 32.8542 18.9262 32.4794 19.4181 31.8782C19.9178 31.2613 20.2067 30.5352 20.3082 29.7622C20.3473 29.4811 20.3707 29.3171 20.3941 29.2078C20.48 29.1376 20.6127 29.0282 20.8314 28.8565C22.3851 27.654 22.9473 25.5615 22.1978 23.7422C22.0884 23.4846 22.0338 23.3206 21.9947 23.2191C22.0338 23.1098 22.0884 22.9536 22.1978 22.696C22.9395 20.8767 22.3851 18.7841 20.8314 17.5817C20.6127 17.4099 20.48 17.3006 20.3941 17.2304C20.3707 17.121 20.3473 16.9493 20.3082 16.676C20.0427 14.7318 18.5124 13.1936 16.5682 12.936C16.2871 12.8969 16.1231 12.8735 16.0138 12.8501C15.9435 12.7642 15.8342 12.6314 15.6625 12.4128C14.46 10.859 12.3675 10.2969 10.5482 11.0464C10.3452 11.1323 10.15 11.226 10.0329 11.2807L10.0251 11.2885V5.72136H10.0173ZM40 10.7185H30.0058V0.724243L40 10.7185ZM8.54937 13.342L9.78303 13.8417C9.93139 13.9041 10.1032 13.9041 10.2593 13.8417L11.493 13.3342C12.2738 13.014 13.1717 13.2561 13.687 13.9198L14.5069 14.9738C14.6084 15.1066 14.7567 15.1847 14.9129 15.2081L16.2324 15.3877C17.0679 15.5048 17.7238 16.1607 17.8331 16.9883L18.0127 18.3079C18.0361 18.4718 18.122 18.6202 18.2469 18.7139L19.301 19.5337C19.9647 20.049 20.2067 20.947 19.8866 21.7278L19.3869 22.977C19.3244 23.1254 19.3244 23.2972 19.3869 23.4533L19.8944 24.687C20.2145 25.4678 19.9725 26.3657 19.3088 26.881L18.2547 27.7009C18.122 27.8024 18.0439 27.9507 18.0205 28.1069L17.8409 29.4265C17.7238 30.2619 17.0679 30.9178 16.2403 31.0349L15.0144 31.1911V39.4519C15.0144 39.9126 14.7645 40.3342 14.3507 40.5529C13.9369 40.7715 13.4528 40.7481 13.0702 40.4904L10.0173 38.4525L6.96434 40.4904C6.58175 40.7481 6.08985 40.7715 5.68383 40.5529C5.27782 40.3342 5.02015 39.9126 5.02015 39.4519V31.1911L3.80991 31.0271C2.97446 30.91 2.31858 30.2541 2.20927 29.4186L2.02969 28.0991C2.00626 27.9351 1.92038 27.7868 1.79545 27.6931L0.73356 26.8732C0.0698799 26.3579 -0.172168 25.46 0.14796 24.6792L0.647672 23.4455C0.710136 23.2972 0.710136 23.1254 0.647672 22.9692L0.140152 21.7356C-0.179976 20.9548 0.062072 20.0569 0.725752 19.5415L1.77983 18.7217C1.91257 18.6202 1.99065 18.4718 2.01407 18.3157L2.19366 16.9961C2.31078 16.1607 2.96665 15.5048 3.7943 15.3955L5.11385 15.2159C5.27782 15.1925 5.42617 15.1066 5.51986 14.9817L6.3397 13.9276C6.85503 13.2639 7.75295 13.0218 8.53375 13.342H8.54937ZM15.0144 23.2113C15.0144 20.4551 12.7735 18.2142 10.0173 18.2142C7.26105 18.2142 5.02015 20.4551 5.02015 23.2113C5.02015 25.9675 7.26105 28.2084 10.0173 28.2084C12.7735 28.2084 15.0144 25.9675 15.0144 23.2113Z" fill="current"/>
</svg>
