<svg width="40" height="40" viewBox="0 0 40 40" fill="none" xmlns="http://www.w3.org/2000/svg">
<path d="M30 36.25H10C9.3125 36.25 8.75 35.6875 8.75 35V32.5H5V35C5 37.7578 7.24219 40 10 40H30C32.7578 40 35 37.7578 35 35V32.5H31.25V35C31.25 35.6875 30.6875 36.25 30 36.25ZM31.25 12.5V15H35V12.0703C35 10.7422 34.4766 9.46875 33.5391 8.53125L26.4609 1.46094C25.5234 0.523438 24.2578 0 22.9297 0H10C7.24219 0 5 2.24219 5 5V15H8.75V5C8.75 4.3125 9.3125 3.75 10 3.75H22.5V10C22.5 11.3828 23.6172 12.5 25 12.5H31.25ZM11.25 17.5C9.52344 17.5 8.125 18.8984 8.125 20.625V26.875C8.125 28.6016 9.52344 30 11.25 30H12.5C14.2266 30 15.625 28.6016 15.625 26.875V26.25C15.625 25.5625 15.0625 25 14.375 25C13.6875 25 13.125 25.5625 13.125 26.25V26.875C13.125 27.2188 12.8438 27.5 12.5 27.5H11.25C10.9062 27.5 10.625 27.2188 10.625 26.875V20.625C10.625 20.2812 10.9062 20 11.25 20H12.5C12.8438 20 13.125 20.2812 13.125 20.625V21.25C13.125 21.9375 13.6875 22.5 14.375 22.5C15.0625 22.5 15.625 21.9375 15.625 21.25V20.625C15.625 18.8984 14.2266 17.5 12.5 17.5H11.25ZM16.875 21.125C16.875 22.4219 17.5703 23.625 18.7031 24.2734L20.6875 25.4062C21.0391 25.6094 21.25 25.9766 21.25 26.3828C21.25 27 20.75 27.5078 20.125 27.5078H18.125C17.4375 27.5078 16.875 28.0703 16.875 28.7578C16.875 29.4453 17.4375 30.0078 18.125 30.0078H20.125C22.125 30.0078 23.75 28.3828 23.75 26.3828C23.75 25.0859 23.0547 23.8828 21.9219 23.2344L19.9375 22.1016C19.5859 21.8984 19.375 21.5312 19.375 21.125C19.375 20.5078 19.875 20 20.5 20H21.875C22.5625 20 23.125 19.4375 23.125 18.75C23.125 18.0625 22.5625 17.5 21.875 17.5H20.5C18.5 17.5 16.875 19.125 16.875 21.125ZM26.875 18.75C26.875 18.0625 26.3125 17.5 25.625 17.5C24.9375 17.5 24.375 18.0625 24.375 18.75V21.2188C24.375 23.9297 25.1797 26.5859 26.6875 28.8438L27.0859 29.4453C27.3203 29.7969 27.7109 30 28.125 30C28.5391 30 28.9297 29.7891 29.1641 29.4453L29.5625 28.8438C31.0703 26.5859 31.875 23.9297 31.875 21.2188V18.75C31.875 18.0625 31.3125 17.5 30.625 17.5C29.9375 17.5 29.375 18.0625 29.375 18.75V21.2188C29.375 23.0156 28.9453 24.7812 28.125 26.375C27.3047 24.7891 26.875 23.0234 26.875 21.2188V18.75Z" fill="#B3B3C3"/>
</svg>
