<svg width="40" height="40" viewBox="0 0 40 40" fill="current" xmlns="http://www.w3.org/2000/svg">
<path d="M10 0C7.24219 0 5 2.24219 5 5V35C5 37.7578 7.24219 40 10 40H30C32.7578 40 35 37.7578 35 35V12.5H25C23.6172 12.5 22.5 11.3828 22.5 10V0H10ZM25 0V10H35L25 0ZM11.25 17.5H12.5C14.2266 17.5 15.625 18.8984 15.625 20.625V21.25C15.625 21.9375 15.0625 22.5 14.375 22.5C13.6875 22.5 13.125 21.9375 13.125 21.25V20.625C13.125 20.2812 12.8438 20 12.5 20H11.25C10.9062 20 10.625 20.2812 10.625 20.625V26.875C10.625 27.2188 10.9062 27.5 11.25 27.5H12.5C12.8438 27.5 13.125 27.2188 13.125 26.875V26.25C13.125 25.5625 13.6875 25 14.375 25C15.0625 25 15.625 25.5625 15.625 26.25V26.875C15.625 28.6016 14.2266 30 12.5 30H11.25C9.52344 30 8.125 28.6016 8.125 26.875V20.625C8.125 18.8984 9.52344 17.5 11.25 17.5ZM16.875 21.125C16.875 19.125 18.5 17.5 20.5 17.5H21.875C22.5625 17.5 23.125 18.0625 23.125 18.75C23.125 19.4375 22.5625 20 21.875 20H20.5C19.8828 20 19.375 20.5 19.375 21.125C19.375 21.5312 19.5938 21.8984 19.9375 22.1016L21.9219 23.2344C23.0469 23.8828 23.75 25.0781 23.75 26.3828C23.75 28.3828 22.125 30.0078 20.125 30.0078H18.125C17.4375 30.0078 16.875 29.4453 16.875 28.7578C16.875 28.0703 17.4375 27.5078 18.125 27.5078H20.125C20.7422 27.5078 21.25 27.0078 21.25 26.3828C21.25 25.9766 21.0312 25.6094 20.6875 25.4062L18.7031 24.2734C17.5703 23.625 16.875 22.4219 16.875 21.125ZM26.875 18.75V21.2188C26.875 23.0156 27.3047 24.7812 28.125 26.375C28.9453 24.7891 29.375 23.0234 29.375 21.2188V18.75C29.375 18.0625 29.9375 17.5 30.625 17.5C31.3125 17.5 31.875 18.0625 31.875 18.75V21.2188C31.875 23.9297 31.0703 26.5859 29.5625 28.8438L29.1641 29.4453C28.9297 29.7969 28.5391 30 28.125 30C27.7109 30 27.3203 29.7891 27.0859 29.4453L26.6875 28.8438C25.1797 26.5859 24.375 23.9297 24.375 21.2188V18.75C24.375 18.0625 24.9375 17.5 25.625 17.5C26.3125 17.5 26.875 18.0625 26.875 18.75Z" fill="current"/>
</svg>
