<svg width="40" height="40" viewBox="0 0 40 40" fill="none" xmlns="http://www.w3.org/2000/svg">
<path d="M19.9999 22.8572C18.4844 22.8572 17.031 23.4592 15.9593 24.5309C14.8877 25.6025 14.2856 27.0559 14.2856 28.5715C14.2856 30.087 14.8877 31.5404 15.9593 32.6121C17.031 33.6837 18.4844 34.2857 19.9999 34.2857C21.5155 34.2857 22.9689 33.6837 24.0405 32.6121C25.1122 31.5404 25.7142 30.087 25.7142 28.5715C25.7142 27.0559 25.1122 25.6025 24.0405 24.5309C22.9689 23.4592 21.5155 22.8572 19.9999 22.8572Z" fill="#FF4545"/>
<path d="M5.71429 0C2.5625 0 0 2.5625 0 5.71429V34.2857C0 37.4375 2.5625 40 5.71429 40H34.2857C37.4375 40 40 37.4375 40 34.2857V12.6161C40 11.0982 39.4018 9.64286 38.3304 8.57143L31.4286 1.66964C30.3571 0.598214 28.9018 0 27.3839 0H5.71429ZM5.71429 8.57143C5.71429 6.99107 6.99107 5.71429 8.57143 5.71429H25.7143C27.2946 5.71429 28.5714 6.99107 28.5714 8.57143V14.2857C28.5714 15.8661 27.2946 17.1429 25.7143 17.1429H8.57143C6.99107 17.1429 5.71429 15.8661 5.71429 14.2857V8.57143ZM20 22.8571C21.5155 22.8571 22.969 23.4592 24.0406 24.5308C25.1122 25.6025 25.7143 27.0559 25.7143 28.5714C25.7143 30.087 25.1122 31.5404 24.0406 32.612C22.969 33.6837 21.5155 34.2857 20 34.2857C18.4845 34.2857 17.031 33.6837 15.9594 32.612C14.8878 31.5404 14.2857 30.087 14.2857 28.5714C14.2857 27.0559 14.8878 25.6025 15.9594 24.5308C17.031 23.4592 18.4845 22.8571 20 22.8571Z" fill="white"/>
</svg>
