<svg width="41" height="40" viewBox="0 0 41 40" fill="none" xmlns="http://www.w3.org/2000/svg">
<path d="M5.2696 5.71429V34.2857C5.2696 35.0714 5.91246 35.7143 6.69817 35.7143H35.2696C36.0553 35.7143 36.6982 35.0714 36.6982 34.2857V12.3661C36.6982 11.9911 36.5464 11.625 36.2785 11.3571L39.3053 8.33036C40.3767 9.40179 40.975 10.8571 40.975 12.375V34.2857C40.975 37.4375 38.4125 40 35.2607 40H6.69817C3.54639 40 0.983887 37.4375 0.983887 34.2857V5.71429C0.983887 2.5625 3.54639 0 6.69817 0H28.6178C30.1357 0 31.591 0.598214 32.6625 1.66964L39.3142 8.32143L36.2875 11.3482L29.6267 4.70536C29.6 4.67857 29.5821 4.66071 29.5553 4.63393V13.5714C29.5553 14.7589 28.6 15.7143 27.4125 15.7143H10.2696C9.0821 15.7143 8.12674 14.7589 8.12674 13.5714V4.28571H6.69817C5.91246 4.28571 5.2696 4.92857 5.2696 5.71429ZM12.4125 4.28571V11.4286H25.2696V4.28571H12.4125ZM15.2696 25.7143C15.2696 24.1988 15.8716 22.7453 16.9433 21.6737C18.0149 20.602 19.4684 20 20.9839 20C22.4994 20 23.9529 20.602 25.0245 21.6737C26.0961 22.7453 26.6982 24.1988 26.6982 25.7143C26.6982 27.2298 26.0961 28.6833 25.0245 29.7549C23.9529 30.8265 22.4994 31.4286 20.9839 31.4286C19.4684 31.4286 18.0149 30.8265 16.9433 29.7549C15.8716 28.6833 15.2696 27.2298 15.2696 25.7143Z" fill="#B3B3C3"/>
</svg>
