<svg width="40" height="40" viewBox="0 0 40 40" fill="none" xmlns="http://www.w3.org/2000/svg">
<path d="M12.4221 21.1718C12.7893 20.8046 13.2658 20.6249 13.7502 20.6249C14.2346 20.6249 14.7096 20.808 15.076 21.1742L18.1252 24.2264V15.6249C18.1252 14.5936 18.9689 13.7499 20.0002 13.7499C21.0314 13.7499 21.8752 14.5897 21.8752 15.6249V24.2264L24.9244 21.1772C25.6568 20.4448 26.8432 20.4448 27.576 21.1772C28.3088 21.9096 28.3084 23.096 27.576 23.8288L21.326 30.0788C20.5936 30.8112 19.4072 30.8112 18.6744 30.0788L12.4244 23.8288C11.6955 23.0936 11.6955 21.9061 12.4221 21.1718Z" fill="#E84A4A"/>
<path d="M36.25 7.5H21.25L16.25 2.5H3.75C1.67969 2.5 0 4.17969 0 6.25V33.75C0 35.8203 1.67969 37.5 3.75 37.5H36.25C38.3203 37.5 40 35.8203 40 33.75V11.25C40 9.17969 38.3203 7.5 36.25 7.5ZM12.4219 21.1719C12.7891 20.8047 13.2656 20.625 13.75 20.625C14.2344 20.625 14.7094 20.8081 15.0758 21.1743L18.125 24.2266V15.625C18.125 14.5938 18.9688 13.75 20 13.75C21.0312 13.75 21.875 14.5898 21.875 15.625V24.2266L24.9242 21.1773C25.6566 20.4449 26.843 20.4449 27.5758 21.1773C28.3086 21.9098 28.3082 23.0961 27.5758 23.8289L21.3258 30.0789C20.5934 30.8113 19.407 30.8113 18.6742 30.0789L12.4242 23.8289C11.6953 23.0938 11.6953 21.9062 12.4219 21.1719Z" fill="white"/>
</svg>
