<svg width="40" height="40" viewBox="0 0 40 40" fill="none" xmlns="http://www.w3.org/2000/svg">
<path d="M5 2.5C2.24219 2.5 0 4.74219 0 7.5V32.5C0 35.2578 2.24219 37.5 5 37.5H35C37.7578 37.5 40 35.2578 40 32.5V12.5C40 9.74219 37.7578 7.5 35 7.5H22.6484L19.2969 4.14844C18.2422 3.09375 16.8125 2.5 15.3203 2.5H5ZM3.75 7.5C3.75 6.8125 4.3125 6.25 5 6.25H15.3203C15.8203 6.25 16.2969 6.44531 16.6484 6.79688L20.1875 10.3359C20.7734 10.9219 21.5703 11.25 22.3984 11.25H35C35.6875 11.25 36.25 11.8125 36.25 12.5V32.5C36.25 33.1875 35.6875 33.75 35 33.75H28.75C28.75 30.2969 25.9531 27.5 22.5 27.5H17.5C14.0469 27.5 11.25 30.2969 11.25 33.75H5C4.3125 33.75 3.75 33.1875 3.75 32.5V7.5ZM25 20C25 18.6739 24.4732 17.4021 23.5355 16.4645C22.5979 15.5268 21.3261 15 20 15C18.6739 15 17.4021 15.5268 16.4645 16.4645C15.5268 17.4021 15 18.6739 15 20C15 21.3261 15.5268 22.5979 16.4645 23.5355C17.4021 24.4732 18.6739 25 20 25C21.3261 25 22.5979 24.4732 23.5355 23.5355C24.4732 22.5979 25 21.3261 25 20Z" fill="#B3B3C3"/>
</svg>
