<svg width="40" height="40" viewBox="0 0 40 40" fill="none" xmlns="http://www.w3.org/2000/svg">
<path d="M5 2.5C2.24219 2.5 0 4.74219 0 7.5V32.5C0 35.2578 2.24219 37.5 5 37.5H35C37.7578 37.5 40 35.2578 40 32.5V12.5C40 9.74219 37.7578 7.5 35 7.5H22.6484L19.2969 4.14844C18.2422 3.09375 16.8125 2.5 15.3203 2.5H5ZM3.75 7.5C3.75 6.8125 4.3125 6.25 5 6.25H15.3203C15.8203 6.25 16.2969 6.44531 16.6484 6.79688L20.1875 10.3359C20.7734 10.9219 21.5703 11.25 22.3984 11.25H35C35.6875 11.25 36.25 11.8125 36.25 12.5V32.5C36.25 33.1875 35.6875 33.75 35 33.75H5C4.3125 33.75 3.75 33.1875 3.75 32.5V7.5ZM21.875 15.625C21.875 14.5859 21.0391 13.75 20 13.75C18.9609 13.75 18.125 14.5859 18.125 15.625V23.6016L15.7031 21.1797C14.9688 20.4453 13.7813 20.4453 13.0547 21.1797C12.3281 21.9141 12.3203 23.1016 13.0547 23.8281L18.6797 29.4531C19.4141 30.1875 20.6016 30.1875 21.3281 29.4531L26.9531 23.8281C27.6875 23.0938 27.6875 21.9063 26.9531 21.1797C26.2188 20.4531 25.0313 20.4453 24.3047 21.1797L21.8828 23.6016V15.625H21.875Z" fill="#B3B3C3"/>
</svg>
