<svg width="40" height="40" viewBox="0 0 40 40" fill="current" xmlns="http://www.w3.org/2000/svg">
<path d="M40 33C40 35.7578 37.7578 38 35 38H5C2.24219 38 0 35.7578 0 33V8C0 5.24219 2.24219 3 5 3H14.1797C15.5078 3 16.7812 3.52344 17.7188 4.46094L19.7891 6.53125C20.7266 7.46875 22 7.99219 23.3281 7.99219H35C37.7578 7.99219 40 10.2344 40 12.9922V33ZM25 20.5C25 17.7422 22.7578 15.5 20 15.5C17.2422 15.5 15 17.7422 15 20.5C15 23.2578 17.2422 25.5 20 25.5C22.7578 25.5 25 23.2578 25 20.5ZM11.25 32.1641C11.25 32.625 11.625 33 12.0859 33H27.9141C28.375 33 28.75 32.625 28.75 32.1641C28.75 29.8594 26.8828 28 24.5859 28H15.4141C13.1094 28 11.25 29.8672 11.25 32.1641Z" fill="current"/>
</svg>
