<svg width="40" height="40" viewBox="0 0 40 40" fill="current" xmlns="http://www.w3.org/2000/svg">
<path d="M35 38H5C2.24219 38 0 35.7578 0 33V8C0 5.24219 2.24219 3 5 3H14.1797C15.5078 3 16.7813 3.52344 17.7188 4.46094L19.7891 6.53125C20.7266 7.46875 22 7.99219 23.3281 7.99219H35C37.7578 7.99219 40 10.2344 40 12.9922V33C40 35.7578 37.7578 38 35 38ZM8.125 19.25C7.08594 19.25 6.25 20.0859 6.25 21.125V24.875C6.25 25.9141 7.08594 26.75 8.125 26.75H11.875C12.9141 26.75 13.75 25.9141 13.75 24.875V21.125C13.75 20.0859 12.9141 19.25 11.875 19.25H8.125ZM18.125 19.25C17.0859 19.25 16.25 20.0859 16.25 21.125V24.875C16.25 25.9141 17.0859 26.75 18.125 26.75H21.875C22.9141 26.75 23.75 25.9141 23.75 24.875V21.125C23.75 20.0859 22.9141 19.25 21.875 19.25H18.125ZM26.25 21.125V24.875C26.25 25.9141 27.0859 26.75 28.125 26.75H31.875C32.9141 26.75 33.75 25.9141 33.75 24.875V21.125C33.75 20.0859 32.9141 19.25 31.875 19.25H28.125C27.0859 19.25 26.25 20.0859 26.25 21.125Z" fill="current"/>
</svg>
