<svg width="40" height="41" viewBox="0 0 40 41" fill="current" xmlns="http://www.w3.org/2000/svg">
<path d="M40 33C40 35.7578 37.7578 38 35 38H5C2.24219 38 0 35.7578 0 33V8C0 5.24219 2.24219 3 5 3H14.1797C15.5078 3 16.7813 3.52344 17.7188 4.46094L19.7891 6.53125C20.7266 7.46875 22 7.99219 23.3281 7.99219H35C37.7578 7.99219 40 10.2344 40 12.9922V33ZM21.875 16.125C21.875 15.0859 21.0391 14.25 20 14.25C18.9609 14.25 18.125 15.0859 18.125 16.125V24.1016L15.7031 21.6797C14.9688 20.9453 13.7813 20.9453 13.0547 21.6797C12.3281 22.4141 12.3203 23.6016 13.0547 24.3281L18.6797 29.9531C19.4141 30.6875 20.6016 30.6875 21.3281 29.9531L26.9531 24.3281C27.6875 23.5938 27.6875 22.4063 26.9531 21.6797C26.2188 20.9531 25.0313 20.9453 24.3047 21.6797L21.8828 24.1016V16.125H21.875Z" fill="current"/>
</svg>
