<svg width="40" height="40" viewBox="0 0 40 40" fill="none" xmlns="http://www.w3.org/2000/svg">
<path d="M20 24.9998C22.7617 24.9998 25 22.7607 25 19.9998C25 17.2388 22.7617 14.9998 20 14.9998C17.2383 14.9998 15 17.2419 15 19.9998C15 22.7576 17.2422 24.9998 20 24.9998ZM25 27.4998H15C12.9289 27.4998 11.25 29.1787 11.25 31.2498C11.25 31.9373 11.8125 32.4998 12.5 32.4998H27.5C28.1903 32.4998 28.75 31.9401 28.75 31.2498C28.75 29.1794 27.0703 27.4998 25 27.4998Z" fill="#E84A4A"/>
<path d="M36.25 7.5H21.25L16.25 2.5H3.75C1.67969 2.5 0 4.17969 0 6.25V33.75C0 35.8203 1.67969 37.5 3.75 37.5H36.25C38.3203 37.5 40 35.8203 40 33.75V11.25C40 9.17969 38.3203 7.5 36.25 7.5ZM20 15C22.7617 15 25 17.2391 25 20C25 22.7609 22.7617 25 20 25C17.2383 25 15 22.7578 15 20C15 17.2422 17.2422 15 20 15ZM27.5 32.5H12.5C11.8097 32.5 11.25 31.9403 11.25 31.25C11.25 29.1797 12.9297 27.5 15 27.5H25C27.0711 27.5 28.75 29.1789 28.75 31.25C28.75 31.9375 28.1875 32.5 27.5 32.5Z" fill="#2D253F"/>
</svg>
