<svg width="40" height="40" viewBox="0 0 40 40" fill="none" xmlns="http://www.w3.org/2000/svg">
<path d="M12.5 18.75H7.5C6.80937 18.75 6.25 19.3125 6.25 20V25C6.25 25.6903 6.80969 26.25 7.5 26.25H12.5C13.1905 26.25 13.75 25.6903 13.75 25V20C13.75 19.3125 13.1875 18.75 12.5 18.75ZM22.5 18.75H17.5C16.8125 18.75 16.25 19.3125 16.25 20V25C16.25 25.6903 16.8097 26.25 17.5 26.25H22.5C23.1905 26.25 23.75 25.6903 23.75 25V20C23.75 19.3125 23.1875 18.75 22.5 18.75ZM32.5 18.75H27.5C26.8097 18.75 26.25 19.3097 26.25 20V25C26.25 25.6903 26.8097 26.25 27.5 26.25H32.5C33.1905 26.25 33.75 25.6903 33.75 25V20C33.75 19.3125 33.1875 18.75 32.5 18.75Z" fill="#E84A4A"/>
<path d="M36.25 7.5H21.25L16.25 2.5H3.75C1.67969 2.5 0 4.17969 0 6.25V33.75C0 35.8203 1.67969 37.5 3.75 37.5H36.25C38.3203 37.5 40 35.8203 40 33.75V11.25C40 9.17969 38.3203 7.5 36.25 7.5ZM13.75 25C13.75 25.6903 13.1905 26.25 12.5 26.25H7.5C6.80969 26.25 6.25 25.6903 6.25 25V20C6.25 19.3097 6.80969 18.75 7.5 18.75H12.5C13.1905 18.75 13.75 19.3097 13.75 20V25ZM23.75 25C23.75 25.6903 23.1905 26.25 22.5 26.25H17.5C16.8097 26.25 16.25 25.6903 16.25 25V20C16.25 19.3097 16.8097 18.75 17.5 18.75H22.5C23.1905 18.75 23.75 19.3097 23.75 20V25ZM33.75 25C33.75 25.6903 33.1905 26.25 32.5 26.25H27.5C26.8097 26.25 26.25 25.6903 26.25 25V20C26.25 19.3097 26.8097 18.75 27.5 18.75H32.5C33.1905 18.75 33.75 19.3097 33.75 20V25Z" fill="#2D253F"/>
</svg>
