<svg width="40" height="40" viewBox="0 0 40 40" fill="none" xmlns="http://www.w3.org/2000/svg">
<path d="M5 2.5C2.24219 2.5 0 4.74219 0 7.5V32.5C0 35.2578 2.24219 37.5 5 37.5H35C37.7578 37.5 40 35.2578 40 32.5V12.5C40 9.74219 37.7578 7.5 35 7.5H22.6484L19.2969 4.14844C18.2422 3.09375 16.8125 2.5 15.3203 2.5H5ZM3.75 7.5C3.75 6.8125 4.3125 6.25 5 6.25H15.3203C15.8203 6.25 16.2969 6.44531 16.6484 6.79688L20.1875 10.3359C20.7734 10.9219 21.5703 11.25 22.3984 11.25H35C35.6875 11.25 36.25 11.8125 36.25 12.5V32.5C36.25 33.1875 35.6875 33.75 35 33.75H5C4.3125 33.75 3.75 33.1875 3.75 32.5V7.5ZM8.125 18.75C7.08594 18.75 6.25 19.5859 6.25 20.625V24.375C6.25 25.4141 7.08594 26.25 8.125 26.25H11.875C12.9141 26.25 13.75 25.4141 13.75 24.375V20.625C13.75 19.5859 12.9141 18.75 11.875 18.75H8.125ZM16.25 20.625V24.375C16.25 25.4141 17.0859 26.25 18.125 26.25H21.875C22.9141 26.25 23.75 25.4141 23.75 24.375V20.625C23.75 19.5859 22.9141 18.75 21.875 18.75H18.125C17.0859 18.75 16.25 19.5859 16.25 20.625ZM28.125 18.75C27.0859 18.75 26.25 19.5859 26.25 20.625V24.375C26.25 25.4141 27.0859 26.25 28.125 26.25H31.875C32.9141 26.25 33.75 25.4141 33.75 24.375V20.625C33.75 19.5859 32.9141 18.75 31.875 18.75H28.125Z" fill="#B3B3C3"/>
</svg>
