<svg width="40" height="40" viewBox="0 0 40 40" fill="none" xmlns="http://www.w3.org/2000/svg">
<path d="M29.1668 2.5C29.1668 1.11458 30.2814 0 31.6668 0C33.0522 0 34.1668 1.11458 34.1668 2.5V16.9479V23.0521V37.5C34.1668 38.8854 33.0522 40 31.6668 40C30.2814 40 29.1668 38.8854 29.1668 37.5V26.5521L10.7606 39.4375C10.2293 39.8021 9.60433 40 8.9585 40C7.23975 40 5.8335 38.5938 5.8335 36.8646V3.13542C5.8335 1.40625 7.23975 0 8.96891 0C9.61475 0 10.2397 0.197917 10.771 0.5625L29.1668 13.4479V2.5ZM29.1668 20.4479V19.5521L10.8335 6.71875V33.2812L29.1668 20.4479Z" fill="#B3B3C3"/>
</svg>
