<svg width="40" height="40" viewBox="0 0 40 40" fill="none" xmlns="http://www.w3.org/2000/svg">
<path d="M5.25274 39.6825C6.4192 40.2345 7.80436 40.0574 8.80418 39.2242L28.8005 22.5606L29.9982 21.5608V18.4364L28.8005 17.4365L8.80418 0.772923C7.81477 -0.0498435 6.42961 -0.237309 5.25274 0.314673C4.07587 0.866656 3.33643 2.04352 3.33643 3.33495V36.6622C3.33643 37.9536 4.08629 39.1305 5.25274 39.6825Z" fill="#2D253F"/>
<path d="M33.3308 39.9927C35.1742 39.9927 36.6635 38.5034 36.6635 36.66V3.33272C36.6635 1.48931 35.1742 0 33.3308 0C31.4874 0 29.998 1.48931 29.998 3.33272V36.66C29.998 38.5034 31.4874 39.9927 33.3308 39.9927Z" fill="#E84A4A"/>
</svg>
