<svg width="40" height="40" viewBox="0 0 40 40" fill="current" xmlns="http://www.w3.org/2000/svg">
<path d="M8.80418 39.2271C7.81477 40.0498 6.42961 40.2373 5.25274 39.6853C4.07587 39.1333 3.33643 37.9565 3.33643 36.665V3.3378C3.33643 2.04637 4.08629 0.869502 5.25274 0.317519C6.4192 -0.234463 7.80436 -0.057412 8.80418 0.775769L28.8005 17.4394L29.9982 18.4392V3.3378C29.9982 1.49439 31.4875 0.0050764 33.3309 0.0050764C35.1744 0.0050764 36.6637 1.49439 36.6637 3.3378V36.665C36.6637 38.5085 35.1744 39.9978 33.3309 39.9978C31.4875 39.9978 29.9982 38.5085 29.9982 36.665V21.5636L28.8005 22.5635L8.80418 39.2271Z" fill="current"/>
</svg>
