<svg width="24" height="24" viewBox="0 0 24 24" fill="none" xmlns="http://www.w3.org/2000/svg">
<g clip-path="url(#clip0_10085_105275)">
<path d="M12 0C12.7969 0 13.575 0.0796875 14.3344 0.225C14.7047 0.295313 15.3563 0.510937 15.7125 1.16719C15.8063 1.34062 15.8813 1.52344 15.9281 1.72031L16.3641 3.525C16.4297 3.79687 16.8891 4.06406 17.1563 3.98438L18.9375 3.45938C19.125 3.40313 19.3172 3.375 19.5094 3.37031C20.2641 3.34688 20.775 3.81094 21.0235 4.09219C22.0594 5.26875 22.8563 6.65156 23.3625 8.1375C23.4844 8.49375 23.625 9.15938 23.236 9.79688C23.1328 9.96562 23.0063 10.125 22.861 10.2656L21.5156 11.5453C21.3188 11.7328 21.3188 12.2719 21.5156 12.4594L22.861 13.7391C23.0063 13.8797 23.1328 14.0391 23.236 14.2078C23.6203 14.8453 23.4797 15.5109 23.3625 15.8672C22.8563 17.3531 22.0594 18.7312 21.0235 19.9125C20.775 20.1937 20.2594 20.6578 19.5094 20.6344C19.3172 20.6297 19.125 20.5969 18.9375 20.5453L17.1563 20.0156C16.8891 19.9359 16.4297 20.2031 16.3641 20.475L15.9281 22.2797C15.8813 22.4766 15.8063 22.6641 15.7125 22.8328C15.3516 23.4891 14.7 23.7 14.3344 23.775C13.575 23.9203 12.7969 24 12 24C11.2031 24 10.425 23.9203 9.66564 23.775C9.29533 23.7047 8.64377 23.4891 8.28752 22.8328C8.19377 22.6594 8.11877 22.4766 8.07189 22.2797L7.63595 20.475C7.57033 20.2031 7.11095 19.9359 6.84377 20.0156L5.06252 20.5406C4.87502 20.5969 4.68283 20.625 4.49064 20.6297C3.73595 20.6531 3.22502 20.1891 2.97658 19.9078C1.94533 18.7313 1.14377 17.3484 0.637516 15.8625C0.515641 15.5062 0.375016 14.8406 0.764078 14.2031C0.867203 14.0344 0.993766 13.875 1.13908 13.7344L2.48439 12.4547C2.68127 12.2672 2.68127 11.7281 2.48439 11.5406L1.13439 10.2609C0.989078 10.1203 0.862516 9.96094 0.759391 9.79219C0.375016 9.15469 0.515641 8.48906 0.637516 8.1375C1.14377 6.65156 1.94064 5.27344 2.97658 4.09219C3.22502 3.81094 3.74064 3.34688 4.49064 3.37031C4.68283 3.375 4.87502 3.40781 5.06252 3.45938L6.84377 3.98438C7.11095 4.06406 7.57033 3.79687 7.63595 3.525L8.07189 1.72031C8.11877 1.52344 8.19377 1.33594 8.28752 1.16719C8.64845 0.510937 9.30002 0.3 9.66564 0.225C10.425 0.0796875 11.2031 0 12 0ZM10.2235 2.40938L9.82502 4.05469C9.45939 5.56875 7.70158 6.58125 6.20627 6.14531L4.58908 5.66719C3.81564 6.57188 3.20627 7.62188 2.80783 8.74688L4.03595 9.91406C5.16095 10.9828 5.16095 13.0172 4.03595 14.0859L2.80783 15.2531C3.20627 16.3781 3.81564 17.4281 4.58908 18.3328L6.21095 17.8547C7.70158 17.4141 9.46408 18.4312 9.8297 19.9453L10.2281 21.5906C11.3813 21.8016 12.6328 21.8016 13.786 21.5906L14.1844 19.9453C14.55 18.4312 16.3078 17.4187 17.8031 17.8547L19.425 18.3328C20.1985 17.4281 20.8078 16.3781 21.2063 15.2531L19.9781 14.0859C18.8531 13.0172 18.8531 10.9828 19.9781 9.91406L21.2063 8.74688C20.8078 7.62188 20.1985 6.57188 19.425 5.66719L17.8031 6.14531C16.3125 6.58594 14.55 5.56875 14.1844 4.05469L13.786 2.40938C12.6328 2.19844 11.3813 2.19844 10.2281 2.40938H10.2235ZM9.75002 12C9.75002 12.5967 9.98707 13.169 10.409 13.591C10.831 14.0129 11.4033 14.25 12 14.25C12.5968 14.25 13.169 14.0129 13.591 13.591C14.013 13.169 14.25 12.5967 14.25 12C14.25 11.4033 14.013 10.831 13.591 10.409C13.169 9.98705 12.5968 9.75 12 9.75C11.4033 9.75 10.831 9.98705 10.409 10.409C9.98707 10.831 9.75002 11.4033 9.75002 12ZM12 16.5C10.8065 16.5 9.66195 16.0259 8.81804 15.182C7.97412 14.3381 7.50002 13.1935 7.50002 12C7.50002 10.8065 7.97412 9.66193 8.81804 8.81802C9.66195 7.97411 10.8065 7.5 12 7.5C13.1935 7.5 14.3381 7.97411 15.182 8.81802C16.0259 9.66193 16.5 10.8065 16.5 12C16.5 13.1935 16.0259 14.3381 15.182 15.182C14.3381 16.0259 13.1935 16.5 12 16.5Z" fill="#B3B3C3"/>
</g>
<defs>
<clipPath id="clip0_10085_105275">
<rect width="24" height="24" fill="white"/>
</clipPath>
</defs>
</svg>
