<svg width="24" height="24" viewBox="0 0 24 24" fill="none" xmlns="http://www.w3.org/2000/svg">
<g clip-path="url(#clip0_10085_105267)">
<path d="M22.95 8.9625C23.2734 8.67188 23.4 8.21719 23.25 7.80938C23.0437 7.25156 22.7953 6.71719 22.5093 6.20156L22.289 5.82187C21.9797 5.30625 21.6328 4.81875 21.2531 4.35938C20.9765 4.02187 20.5172 3.90937 20.1047 4.04062L18.239 4.63125C17.7703 4.78125 17.264 4.68281 16.8468 4.41562C16.6172 4.27031 16.3828 4.12969 16.139 4.00781C15.7031 3.78281 15.3656 3.38906 15.2578 2.91094L14.8406 1.00312C14.7468 0.576562 14.4187 0.239062 13.9875 0.16875C13.3453 0.05625 12.6797 0 12 0C11.3203 0 10.6547 0.05625 10.0078 0.164062C9.57653 0.234375 9.2484 0.571875 9.15465 0.998437L8.73746 2.90625C8.63434 3.38438 8.29215 3.77813 7.85621 4.00313C7.61246 4.12969 7.37809 4.26562 7.1484 4.41094C6.7359 4.67812 6.22496 4.77187 5.75621 4.62656L3.89528 4.03594C3.48278 3.90469 3.0234 4.02187 2.74684 4.35469C2.36715 4.81406 2.02028 5.30156 1.7109 5.81719L1.49059 6.19687C1.20465 6.7125 0.956213 7.24687 0.749963 7.80469C0.599963 8.2125 0.726526 8.66719 1.04996 8.95781L2.4984 10.275C2.85934 10.6078 3.03278 11.0953 3.00934 11.5828C3.00465 11.7188 2.99996 11.8547 2.99996 11.9953C2.99996 12.1359 3.00465 12.2719 3.00934 12.4078C3.03278 12.9 2.86403 13.3875 2.4984 13.7156L1.04996 15.0375C0.726526 15.3281 0.599963 15.7828 0.749963 16.1906C0.956213 16.7484 1.20465 17.2828 1.49059 17.7984L1.7109 18.1781C2.02028 18.6937 2.36715 19.1812 2.74684 19.6406C3.0234 19.9781 3.48278 20.0906 3.89528 19.9594L5.75621 19.3688C6.22496 19.2188 6.73121 19.3172 7.1484 19.5844C7.37809 19.7297 7.61246 19.8703 7.85621 19.9922C8.29215 20.2172 8.62965 20.6109 8.73746 21.0891L9.15465 22.9969C9.2484 23.4234 9.57653 23.7609 10.0078 23.8312C10.6547 23.9391 11.3203 23.9953 12 23.9953C12.6797 23.9953 13.3453 23.9391 13.9922 23.8312C14.4234 23.7609 14.7515 23.4234 14.8453 22.9969L15.2625 21.0891C15.3656 20.6109 15.7031 20.2172 16.1437 19.9922C16.3875 19.8656 16.6218 19.7297 16.8515 19.5844C17.264 19.3172 17.775 19.2234 18.2437 19.3688L20.1047 19.9594C20.5172 20.0906 20.9765 19.9734 21.2531 19.6406C21.6328 19.1812 21.9797 18.6937 22.289 18.1781L22.5093 17.7984C22.7953 17.2828 23.039 16.7484 23.25 16.1906C23.4 15.7828 23.2734 15.3281 22.95 15.0375L21.5015 13.7203C21.1406 13.3875 20.9672 12.9 20.9906 12.4125C20.9953 12.2766 21 12.1406 21 12C21 11.8594 20.9953 11.7234 20.9906 11.5875C20.9672 11.0953 21.1359 10.6078 21.5015 10.2797L22.95 8.9625ZM12 7.5C13.1934 7.5 14.338 7.97411 15.1819 8.81802C16.0259 9.66193 16.5 10.8065 16.5 12C16.5 13.1935 16.0259 14.3381 15.1819 15.182C14.338 16.0259 13.1934 16.5 12 16.5C10.8065 16.5 9.6619 16.0259 8.81798 15.182C7.97407 14.3381 7.49996 13.1935 7.49996 12C7.49996 10.8065 7.97407 9.66193 8.81798 8.81802C9.6619 7.97411 10.8065 7.5 12 7.5Z" fill="#2E2640"/>
<path d="M9 12C9 11.2044 9.31607 10.4413 9.87868 9.87868C10.4413 9.31607 11.2044 9 12 9C12.7956 9 13.5587 9.31607 14.1213 9.87868C14.6839 10.4413 15 11.2044 15 12C15 12.7956 14.6839 13.5587 14.1213 14.1213C13.5587 14.6839 12.7956 15 12 15C11.2044 15 10.4413 14.6839 9.87868 14.1213C9.31607 13.5587 9 12.7956 9 12Z" fill="#FF4545"/>
</g>
<defs>
<clipPath id="clip0_10085_105267">
<rect width="24" height="24" fill="white"/>
</clipPath>
</defs>
</svg>
