<svg width="40" height="40" viewBox="0 0 40 40" fill="none" xmlns="http://www.w3.org/2000/svg">
<g clip-path="url(#clip0_2448_42670)">
<path d="M25.1092 39.3438C23.4842 39.7734 21.7654 40 19.9295 40C18.2342 40 16.5154 39.7734 14.8904 39.3438C12.8982 36.6719 11.3514 32.4922 10.5701 27.5H1.45371C1.12637 26.6953 0.850586 25.7891 0.629883 25H10.2498C10.0857 23.3906 9.92949 21.6484 9.92949 20C9.92949 18.2812 10.0857 16.6094 10.2498 15H0.629883C0.850586 14.1406 1.12637 13.3047 1.45371 12.5H10.5701C11.3514 7.51094 12.8982 3.32969 14.8904 0.659531C16.5154 0.229219 18.2342 0 19.9295 0C19.4295 0 18.7029 0.248281 17.8279 1.07891C16.9451 1.92266 16.0311 3.26094 15.2107 5.10547C14.3123 7.13906 13.5779 9.65625 13.1014 12.5H26.8982C26.4217 9.65625 25.6873 7.13906 24.7889 5.10547C23.9686 3.26094 23.0545 1.92266 22.1717 1.07891C21.2967 0.248281 20.5701 0 19.9295 0C21.7654 0 23.4842 0.229219 25.1092 0.659531C27.1014 3.32969 28.6482 7.51094 29.4295 12.5H38.5467C38.8748 13.3047 39.1482 14.1406 39.367 15H29.7498C29.9139 16.6094 29.9998 18.2812 29.9998 20C29.9998 21.6484 29.9139 23.3906 29.7498 25H39.367C39.1482 25.7891 38.8748 26.6953 38.5467 27.5H29.4295C28.6482 32.4922 27.1014 36.6719 25.1092 39.3438ZM13.1014 27.5C13.5779 30.3438 14.3123 32.8594 15.2107 34.8906C16.0311 36.7422 16.9451 38.0781 17.8279 38.9219C18.7029 39.75 19.4295 40 19.9295 40C20.5701 40 21.2967 39.75 22.1717 38.9219C23.0545 38.0781 23.9686 36.7422 24.7889 34.8906C25.6873 32.8594 26.4217 30.3438 26.8982 27.5H13.1014ZM27.4998 20C27.4998 18.2656 27.4061 16.5938 27.242 15H12.7576C12.5936 16.5938 12.4295 18.2656 12.4295 20C12.4295 21.7344 12.5936 23.4062 12.7576 25H27.242C27.4061 23.4062 27.4998 21.7344 27.4998 20Z" fill="#E84A4A"/>
<path d="M27.5 20C27.5 21.7344 27.4062 23.4062 27.2422 25H12.7578C12.5938 23.4062 12.4297 21.7344 12.4297 20C12.4297 18.2656 12.5938 16.5938 12.7578 15H27.2422C27.4062 16.5938 27.5 18.2656 27.5 20ZM39.3672 15C39.7812 16.6016 40 18.2734 40 20C40 21.7266 39.7812 23.3984 39.3672 25H29.75C29.9141 23.3906 30 21.6484 30 20C30 18.2812 29.9141 16.6094 29.75 15H39.3672ZM38.5469 12.5H29.4297C28.6484 7.51094 27.1016 3.32969 25.1094 0.659531C31.2344 2.27266 36.2031 6.71406 38.5469 12.5ZM26.8984 12.5H13.1016C13.5781 9.65625 14.3125 7.13906 15.2109 5.10547C16.0312 3.26094 16.9453 1.92266 17.8281 1.07891C18.7031 0.248281 19.4297 0 20 0C20.5703 0 21.2969 0.248281 22.1719 1.07891C23.0547 1.92266 23.9688 3.26094 24.7891 5.10547C25.6875 7.13906 26.4219 9.65625 26.8984 12.5ZM1.45391 12.5C3.79609 6.71406 8.76562 2.27266 14.8906 0.659531C12.8984 3.32969 11.3516 7.51094 10.5703 12.5H1.45391ZM10.25 15C10.0859 16.6094 9.92969 18.2812 9.92969 20C9.92969 21.6484 10.0859 23.3906 10.25 25H0.630078C0.21875 23.3984 0 21.7266 0 20C0 18.2734 0.21875 16.6016 0.630078 15H10.25ZM15.2109 34.8906C14.3125 32.8594 13.5781 30.3438 13.1016 27.5H26.8984C26.4219 30.3438 25.6875 32.8594 24.7891 34.8906C23.9688 36.7422 23.0547 38.0781 22.1719 38.9219C21.2969 39.75 20.5703 40 19.9297 40C19.4297 40 18.7031 39.75 17.8281 38.9219C16.9453 38.0781 16.0312 36.7422 15.2109 34.8906ZM14.8906 39.3438C8.76562 37.7266 3.79609 33.2891 1.45391 27.5H10.5703C11.3516 32.4922 12.8984 36.6719 14.8906 39.3438ZM25.1094 39.3438C27.1016 36.6719 28.6484 32.4922 29.4297 27.5H38.5469C36.2031 33.2891 31.2344 37.7266 25.1094 39.3438Z" fill="white"/>
</g>
<defs>
<clipPath id="clip0_2448_42670">
<rect width="40" height="40" fill="white"/>
</clipPath>
</defs>
</svg>
