<svg width="40" height="40" viewBox="0 0 40 40" fill="none" xmlns="http://www.w3.org/2000/svg">
<g clip-path="url(#clip0_2956_46236)">
<path d="M20 36.25C20.5781 36.25 22.1094 35.6875 23.7188 32.4688C24.4063 31.0859 25 29.4062 25.4375 27.5H14.5625C15 29.4062 15.5937 31.0859 16.2812 32.4688C17.8906 35.6875 19.4219 36.25 20 36.25ZM13.9453 23.75H26.0547C26.1797 22.5547 26.25 21.2969 26.25 20C26.25 18.7031 26.1797 17.4453 26.0547 16.25H13.9453C13.8203 17.4453 13.75 18.7031 13.75 20C13.75 21.2969 13.8203 22.5547 13.9453 23.75ZM14.5625 12.5H25.4375C25 10.5938 24.4063 8.91406 23.7188 7.53125C22.1094 4.3125 20.5781 3.75 20 3.75C19.4219 3.75 17.8906 4.3125 16.2812 7.53125C15.5937 8.91406 15 10.5938 14.5625 12.5ZM29.8203 16.25C29.9375 17.4609 29.9922 18.7188 29.9922 20C29.9922 21.2812 29.9297 22.5391 29.8203 23.75H35.8125C36.0937 22.5469 36.25 21.2891 36.25 20C36.25 18.7109 36.1016 17.4531 35.8125 16.25H29.8281H29.8203ZM34.4141 12.5C32.7422 9.28906 30.0313 6.71094 26.7266 5.20312C27.8281 7.20312 28.7031 9.69531 29.2734 12.5H34.4219H34.4141ZM10.7187 12.5C11.2891 9.69531 12.1641 7.21094 13.2656 5.20312C9.96094 6.71094 7.25 9.28906 5.57813 12.5H10.7266H10.7187ZM4.1875 16.25C3.90625 17.4531 3.75 18.7109 3.75 20C3.75 21.2891 3.89844 22.5469 4.1875 23.75H10.1797C10.0625 22.5391 10.0078 21.2812 10.0078 20C10.0078 18.7188 10.0703 17.4609 10.1797 16.25H4.1875ZM26.7266 34.7969C30.0313 33.2891 32.7422 30.7109 34.4141 27.5H29.2734C28.7031 30.3047 27.8281 32.7891 26.7266 34.7969ZM13.2734 34.7969C12.1719 32.7969 11.2969 30.3047 10.7266 27.5H5.57813C7.25 30.7109 9.96094 33.2891 13.2656 34.7969H13.2734ZM20 40C14.6957 40 9.60859 37.8929 5.85786 34.1421C2.10714 30.3914 0 25.3043 0 20C0 14.6957 2.10714 9.60859 5.85786 5.85786C9.60859 2.10714 14.6957 0 20 0C25.3043 0 30.3914 2.10714 34.1421 5.85786C37.8929 9.60859 40 14.6957 40 20C40 25.3043 37.8929 30.3914 34.1421 34.1421C30.3914 37.8929 25.3043 40 20 40Z" fill="#B3B3C3"/>
</g>
<defs>
<clipPath id="clip0_2956_46236">
<rect width="40" height="40" fill="white"/>
</clipPath>
</defs>
</svg>
