<svg width="20" height="21" viewBox="0 0 20 21" fill="current" xmlns="http://www.w3.org/2000/svg">
<path id="Vector" d="M19.456 8.65376C19.579 9.31276 19.646 10.0018 19.646 10.7208C19.646 16.3448 15.882 20.3438 10.197 20.3438C8.90418 20.3442 7.62393 20.0898 6.42943 19.5952C5.23492 19.1007 4.14957 18.3756 3.23539 17.4614C2.32121 16.5472 1.59612 15.4619 1.10155 14.2674C0.606987 13.0729 0.352634 11.7926 0.353028 10.4998C0.352634 9.20692 0.606987 7.92667 1.10155 6.73216C1.59612 5.53765 2.32121 4.4523 3.23539 3.53812C4.14957 2.62395 5.23492 1.89886 6.42943 1.40429C7.62393 0.909722 8.90418 0.655368 10.197 0.655762C12.855 0.655762 15.076 1.63376 16.78 3.22176L14.005 5.99676V5.98976C12.972 5.00576 11.661 4.50076 10.197 4.50076C6.94903 4.50076 4.30903 7.24476 4.30903 10.4938C4.30903 13.7418 6.94903 16.4918 10.197 16.4918C13.144 16.4918 15.15 14.8068 15.562 12.4928H10.197V8.65376H19.457H19.456Z" fill="current"/>
</svg>
