<svg width="40" height="41" viewBox="0 0 40 41" fill="current" xmlns="http://www.w3.org/2000/svg">
<path d="M20.0005 6.72186C19.4942 6.72186 18.9943 6.80936 18.5193 6.97811L0.988438 13.3092C0.394703 13.5279 0.000961994 14.0904 0.000961994 14.7217C0.000961994 15.3529 0.394703 15.9154 0.988438 16.1341L4.6071 17.4404C3.58213 19.0528 3.00089 20.959 3.00089 22.9652V24.7214C3.00089 26.4964 2.32591 28.3276 1.60717 29.7713C1.20093 30.5838 0.738444 31.3838 0.200957 32.1213C0.000961996 32.39 -0.0552867 32.74 0.0572106 33.0587C0.169708 33.3775 0.432202 33.615 0.757194 33.6962L4.7571 34.6962C5.01959 34.7649 5.30083 34.7149 5.53208 34.5712C5.76332 34.4274 5.92582 34.19 5.97582 33.9212C6.51331 31.2463 6.24456 28.8463 5.84457 27.1276C5.64458 26.2401 5.37583 25.3339 5.00084 24.5027V22.9652C5.00084 21.0778 5.63833 19.2966 6.74455 17.8716C7.55078 16.9029 8.59451 16.1216 9.81948 15.6404L19.6317 11.7842C20.1442 11.5842 20.7255 11.8342 20.9255 12.3467C21.1255 12.8592 20.8755 13.4405 20.363 13.6404L10.5507 17.4966C9.77573 17.8028 9.09449 18.2716 8.53826 18.8466L18.513 22.4465C18.988 22.6152 19.488 22.7027 19.9942 22.7027C20.5005 22.7027 21.0005 22.6152 21.4754 22.4465L39.0125 16.1341C39.6063 15.9216 40 15.3529 40 14.7217C40 14.0904 39.6063 13.5279 39.0125 13.3092L21.4817 6.97811C21.0067 6.80936 20.5067 6.72186 20.0005 6.72186ZM8.00077 30.2213C8.00077 32.4275 13.3756 34.7212 20.0005 34.7212C26.6253 34.7212 32.0002 32.4275 32.0002 30.2213L31.044 21.134L22.1567 24.3464C21.4629 24.5964 20.7317 24.7214 20.0005 24.7214C19.2692 24.7214 18.5318 24.5964 17.8443 24.3464L8.957 21.134L8.00077 30.2213Z" fill="current"/>
</svg>
