<svg width="40" height="41" viewBox="0 0 40 41" fill="none" xmlns="http://www.w3.org/2000/svg">
<path d="M40 14.7234C40 15.3721 39.5976 15.9515 38.9969 16.1665L21.3281 22.4915C20.47 22.7984 19.5344 22.7984 18.6763 22.4915L6.7625 18.2296C7.61875 17.2796 8.69375 16.5671 10.0625 16.2359L20.2437 13.6909C20.7809 13.5571 21.105 13.014 20.9725 12.479C20.8397 11.9419 20.2869 11.6109 19.7594 11.7515L9.58125 14.2984C7.5875 14.7984 5.9125 15.9609 4.75437 17.5109L1.00312 16.1671C0.402375 15.9484 0 15.3734 0 14.7234C0 14.0734 0.402375 13.4953 1.00312 13.2803L18.6719 6.95525C19.53 6.64838 20.4656 6.64838 21.3237 6.95525L38.9925 13.2803C39.6 13.4984 40 14.0734 40 14.7234ZM21.9438 24.3734C21.3563 24.6046 20.6812 24.7234 20 24.7234C19.3175 24.7234 18.6444 24.6067 18 24.3762L8.925 21.1296L8 30.0546C8 32.6359 13.3187 34.7234 20 34.7234C26.5687 34.7234 32 32.6359 32 30.0565L31.0763 21.1253L21.9438 24.3734Z" fill="#2D253F"/>
<path d="M20.244 13.6922L10.0627 16.2359C7.60021 16.8547 5.77521 18.7859 5.20521 21.1672C5.67709 21.4797 6.00021 22.0797 6.00021 22.7234C6.00021 23.3455 5.69934 23.879 5.25396 24.2459L6.80584 33.5584C6.90646 34.1672 6.43771 34.7234 5.81959 34.7234H2.18084C1.5629 34.7234 1.09271 34.1685 1.19459 33.559L2.74646 24.2465C2.30084 23.8797 2.00021 23.2922 2.00021 22.7234C2.00021 21.8959 2.50315 21.1853 3.22021 20.8815C3.90896 17.704 6.31896 15.114 9.57646 14.3003L19.7577 11.7553C20.2851 11.6147 20.8377 11.9457 20.9708 12.4828C21.1065 13.0172 20.7815 13.5609 20.244 13.6922Z" fill="#E84A4A"/>
</svg>
