<svg width="40" height="41" viewBox="0 0 40 41" fill="none" xmlns="http://www.w3.org/2000/svg">
<path d="M20.001 9.7215C20.1572 9.7215 20.3135 9.7465 20.4635 9.80275L34.0885 14.7215L20.4635 19.6402C20.3135 19.6965 20.1572 19.7215 20.001 19.7215C19.8447 19.7215 19.6885 19.6965 19.5385 19.6402L11.5572 16.759L20.3572 13.459C20.876 13.2652 21.1385 12.6902 20.9447 12.1715C20.751 11.6527 20.176 11.3902 19.6572 11.584L9.68221 15.3215C9.35721 15.4465 9.03846 15.584 8.72596 15.734L5.91971 14.7215L19.5447 9.80275C19.6947 9.7465 19.851 9.7215 20.0072 9.7215H20.001ZM0.988462 16.134L5.82596 17.8777C4.12596 19.6715 3.09471 22.0465 3.00721 24.609C3.00096 24.6465 3.00096 24.684 3.00096 24.7215C3.00096 26.4965 2.32596 28.334 1.60721 29.7715C1.20096 30.584 0.738462 31.384 0.200962 32.1215C0.000962019 32.3902 -0.055288 32.7402 0.057212 33.059C0.169712 33.3777 0.432212 33.6152 0.757212 33.6965L4.75721 34.6965C5.01971 34.7652 5.30096 34.7152 5.53221 34.5715C5.76346 34.4277 5.92596 34.1902 5.97596 33.9215C6.51346 31.2465 6.24471 28.8465 5.84471 27.1277C5.64471 26.2527 5.37596 25.359 5.00721 24.534C5.12596 22.2215 6.20721 20.1027 7.92596 18.6465L18.5197 22.4715C18.9947 22.6402 19.4947 22.7277 20.001 22.7277C20.5072 22.7277 21.0072 22.6402 21.4822 22.4715L39.0135 16.134C39.6072 15.9215 40.001 15.3527 40.001 14.7215C40.001 14.0902 39.6072 13.5277 39.0135 13.309L21.4822 6.97775C21.0072 6.809 20.5072 6.7215 20.001 6.7215C19.4947 6.7215 18.9947 6.809 18.5197 6.97775L0.988462 13.309C0.394712 13.5277 0.000962017 14.0902 0.000962017 14.7215C0.000962017 15.3527 0.394712 15.9152 0.988462 16.134ZM31.0385 21.134L28.1322 22.184L28.926 29.7152C28.626 29.934 28.126 30.2152 27.3885 30.5027C25.626 31.1965 23.001 31.7215 20.001 31.7215C17.001 31.7215 14.376 31.1965 12.6072 30.509C11.8697 30.2215 11.3697 29.934 11.0697 29.7215L11.8635 22.1902L8.95721 21.1402L8.00096 30.2215C8.00096 32.4277 13.376 34.7215 20.001 34.7215C26.626 34.7215 32.001 32.4277 32.001 30.2215L31.0447 21.134H31.0385ZM29.2135 29.4715C29.2172 29.4666 29.2199 29.4609 29.2213 29.4549C29.2227 29.4488 29.2228 29.4425 29.2216 29.4365C29.2204 29.4304 29.2179 29.4246 29.2143 29.4196C29.2107 29.4145 29.2061 29.4103 29.2007 29.4072C29.1954 29.404 29.1894 29.4021 29.1832 29.4014C29.1771 29.4008 29.1708 29.4015 29.165 29.4034C29.1591 29.4054 29.1537 29.4085 29.1491 29.4127C29.1445 29.4169 29.1409 29.422 29.1385 29.4277C29.1347 29.4327 29.132 29.4384 29.1306 29.4444C29.1292 29.4504 29.1291 29.4567 29.1303 29.4628C29.1315 29.4689 29.134 29.4746 29.1376 29.4797C29.1412 29.4847 29.1458 29.489 29.1512 29.4921C29.1565 29.4952 29.1625 29.4972 29.1687 29.4978C29.1748 29.4985 29.1811 29.4978 29.187 29.4958C29.1929 29.4939 29.1983 29.4907 29.2028 29.4865C29.2074 29.4823 29.211 29.4772 29.2135 29.4715ZM10.7885 29.4715C10.7896 29.4782 10.7924 29.4846 10.7964 29.49C10.8005 29.4955 10.8058 29.4999 10.8119 29.503C10.818 29.5061 10.8247 29.5077 10.8315 29.5077C10.8383 29.5077 10.845 29.5061 10.8511 29.5031C10.8572 29.5 10.8625 29.4956 10.8666 29.4901C10.8707 29.4847 10.8734 29.4783 10.8746 29.4716C10.8758 29.4649 10.8754 29.458 10.8735 29.4515C10.8716 29.445 10.8681 29.439 10.8635 29.434C10.8623 29.4273 10.8596 29.4209 10.8555 29.4155C10.8514 29.41 10.8461 29.4056 10.8401 29.4025C10.834 29.3994 10.8273 29.3978 10.8204 29.3978C10.8136 29.3978 10.8069 29.3994 10.8008 29.4024C10.7947 29.4055 10.7894 29.4099 10.7853 29.4154C10.7813 29.4208 10.7785 29.4272 10.7773 29.4339C10.7761 29.4406 10.7765 29.4475 10.7784 29.454C10.7804 29.4605 10.7838 29.4665 10.7885 29.4715Z" fill="#B3B3C3"/>
</svg>
