<svg width="40" height="41" viewBox="0 0 40 41" fill="none" xmlns="http://www.w3.org/2000/svg">
<path d="M12.4297 15.7242H11.25C8.48906 15.7242 6.25 17.9633 6.25 20.7305V24.4641C6.25 27.2321 8.49219 29.4742 11.25 29.4742H12.5C13.8797 29.4742 15 28.3524 15 26.9696L14.9297 18.2242C14.9297 16.8414 13.875 15.7242 12.4297 15.7242ZM28.75 15.7242H27.5C26.1203 15.7242 25 16.8446 25 18.2274V26.9664C25 28.3571 26.1172 29.4742 27.5 29.4742H28.75C31.5109 29.4742 33.75 27.2321 33.75 24.4641V20.7321C33.75 17.9664 31.5078 15.7242 28.75 15.7242Z" fill="#E84A4A"/>
<path d="M20 0.724243C8.82031 0.724243 0.358047 10.0289 0.001625 20.7242L0 23.8492C0 24.8883 0.839844 25.7242 1.80469 25.7242C2.76953 25.7242 3.75 24.8883 3.75 23.8492V20.7242C3.75 11.7633 11.0422 4.48987 20 4.48987C28.9609 4.48987 36.25 11.7633 36.25 20.7242V31.9742C36.25 33.7 34.8508 35.0992 33.125 35.0992H24.4766C23.8281 33.9821 22.6328 33.2242 21.25 33.2242H18.8906C17.0773 33.2242 15.4141 34.45 15.0727 36.2313C14.6094 38.6305 16.4375 40.7242 18.6797 40.7242H21.25C22.6344 40.7242 23.8305 39.9656 24.4797 38.8492H33.125C36.9219 38.8492 40 35.7711 40 31.9742V20.7242C39.6406 10.0289 31.1797 0.724243 20 0.724243Z" fill="white"/>
</svg>
