<svg width="41" height="41" viewBox="0 0 41 41" fill="none" xmlns="http://www.w3.org/2000/svg">
<g clip-path="url(#clip0_2872_46522)">
<path d="M3.75 20.7242C3.75 11.7477 11.0234 4.47424 20 4.47424C28.9766 4.47424 36.25 11.7477 36.25 20.7242V31.9821C36.25 33.7086 34.8516 35.1071 33.125 35.1071L24.5 35.0992C23.8516 33.9742 22.6406 33.2242 21.25 33.2242H18.75C16.6797 33.2242 15 34.9039 15 36.9742C15 39.0446 16.6797 40.7242 18.75 40.7242H21.25C22.6406 40.7242 23.8516 39.9664 24.5 38.8492L33.125 38.8571C36.9219 38.8571 40.0078 35.7789 40.0078 31.9821V20.7242C40 9.67737 31.0469 0.724243 20 0.724243C8.95313 0.724243 0 9.67737 0 20.7242V23.8492C0 24.8883 0.835937 25.7242 1.875 25.7242C2.91406 25.7242 3.75 24.8883 3.75 23.8492V20.7242ZM12.5 18.2242V26.9742C11.1172 26.9742 10 25.8571 10 24.4742V20.7242C10 19.3414 11.1172 18.2242 12.5 18.2242ZM6.25 20.7242V24.4742C6.25 27.9274 9.04687 30.7242 12.5 30.7242H13.75C15.1328 30.7242 16.25 29.6071 16.25 28.2242V16.9742C16.25 15.5914 15.1328 14.4742 13.75 14.4742H12.5C9.04687 14.4742 6.25 17.2711 6.25 20.7242ZM27.5 18.2242C28.8828 18.2242 30 19.3414 30 20.7242V24.4742C30 25.8571 28.8828 26.9742 27.5 26.9742V18.2242ZM33.75 20.7242C33.75 17.2711 30.9531 14.4742 27.5 14.4742H26.25C24.8672 14.4742 23.75 15.5914 23.75 16.9742V28.2242C23.75 29.6071 24.8672 30.7242 26.25 30.7242H27.5C30.9531 30.7242 33.75 27.9274 33.75 24.4742V20.7242Z" fill="#B3B3C3"/>
</g>
<defs>
<clipPath id="clip0_2872_46522">
<rect width="40.0078" height="40" fill="white" transform="translate(0 0.724243)"/>
</clipPath>
</defs>
</svg>
