<svg width="40" height="41" viewBox="0 0 40 41" fill="current" xmlns="http://www.w3.org/2000/svg">
<path d="M20 4.47424C11.0234 4.47424 3.75 11.7477 3.75 20.7242V23.8492C3.75 24.8883 2.91406 25.7242 1.875 25.7242C0.835938 25.7242 0 24.8883 0 23.8492V20.7242C0 9.67737 8.95312 0.724243 20 0.724243C31.0469 0.724243 40 9.67737 40 20.7242V31.9821C40 35.7789 36.9219 38.8571 33.1172 38.8571L24.5 38.8492C23.8516 39.9664 22.6406 40.7242 21.25 40.7242H18.75C16.6797 40.7242 15 39.0446 15 36.9742C15 34.9039 16.6797 33.2242 18.75 33.2242H21.25C22.6406 33.2242 23.8516 33.9821 24.5 35.0992L33.125 35.1071C34.8516 35.1071 36.25 33.7086 36.25 31.9821V20.7242C36.25 11.7477 28.9766 4.47424 20 4.47424ZM11.25 16.9742H12.5C13.8828 16.9742 15 18.0914 15 19.4742V28.2242C15 29.6071 13.8828 30.7242 12.5 30.7242H11.25C8.49219 30.7242 6.25 28.4821 6.25 25.7242V21.9742C6.25 19.2164 8.49219 16.9742 11.25 16.9742ZM28.75 16.9742C31.5078 16.9742 33.75 19.2164 33.75 21.9742V25.7242C33.75 28.4821 31.5078 30.7242 28.75 30.7242H27.5C26.1172 30.7242 25 29.6071 25 28.2242V19.4742C25 18.0914 26.1172 16.9742 27.5 16.9742H28.75Z" fill="current"/>
</svg>
