<svg width="40" height="40" viewBox="0 0 40 40" fill="current" xmlns="http://www.w3.org/2000/svg">
<path d="M3.71875 23.0722L17.8359 36.2519C18.4219 36.7988 19.1953 37.1034 20 37.1034C20.8047 37.1034 21.5781 36.7988 22.1641 36.2519L36.2812 23.0722C38.6562 20.8613 40 17.7597 40 14.5175V14.0644C40 8.60345 36.0547 3.9472 30.6719 3.04876C27.1094 2.45501 23.4844 3.61907 20.9375 6.16595L20 7.10345L19.0625 6.16595C16.5156 3.61907 12.8906 2.45501 9.32812 3.04876C3.94531 3.9472 0 8.60345 0 14.0644V14.5175C0 17.7597 1.34375 20.8613 3.71875 23.0722Z" fill="current"/>
</svg>
