<svg width="40" height="41" viewBox="0 0 40 41" fill="none" xmlns="http://www.w3.org/2000/svg">
<path d="M19.0625 6.26936L19.9297 7.20686L20.8672 6.27092C23.4844 3.72014 27.1094 2.5592 30.6719 3.15217C36.0547 4.04904 40 8.70686 40 14.1678V14.6209C40 17.8631 38.6562 20.9647 36.2812 23.1756L22.1641 36.3553C21.5781 36.9022 20.8047 37.2069 20 37.2069C19.1953 37.2069 18.4219 36.9022 17.8359 36.3553L3.71797 23.1756C1.34609 20.9647 0 17.8631 0 14.6209V14.1678C0 8.70686 3.94688 4.04904 9.32813 3.15217C12.8203 2.5592 16.5156 3.72014 19.0625 6.26936C19.0625 6.27014 18.9922 6.26936 19.0625 6.26936ZM19.9297 12.5115L16.4141 8.85529C14.7188 7.22873 12.3125 6.45686 9.94531 6.85061C6.37109 7.4467 3.75 10.5428 3.75 14.1678V14.6209C3.75 16.824 4.66484 18.9334 6.27656 20.4334L20 33.2459L33.7266 20.4334C35.3359 18.9334 36.25 16.824 36.25 14.6209V14.1678C36.25 10.5428 33.625 7.4467 30.0547 6.85061C27.6875 6.45686 25.2812 7.22873 23.5859 8.85529L19.9297 12.5115Z" fill="#B3B3C3"/>
</svg>
