<svg width="40" height="40" viewBox="0 0 40 40" fill="current" xmlns="http://www.w3.org/2000/svg">
<path d="M7.49609 0C6.11328 0 4.99609 1.11719 4.99609 2.5C4.99609 3.88281 6.11328 5 7.49609 5V5.85938C7.49609 9.17188 8.81641 12.3516 11.1602 14.6953L16.457 20L11.1602 25.3047C8.81641 27.6484 7.49609 30.8281 7.49609 34.1406V35C6.11328 35 4.99609 36.1172 4.99609 37.5C4.99609 38.8828 6.11328 40 7.49609 40H9.99609H29.9961H32.4961C33.8789 40 34.9961 38.8828 34.9961 37.5C34.9961 36.1172 33.8789 35 32.4961 35V34.1406C32.4961 30.8281 31.1758 27.6484 28.832 25.3047L23.5352 20L28.8398 14.6953C31.1836 12.3516 32.5039 9.17188 32.5039 5.85938V5C33.8867 5 35.0039 3.88281 35.0039 2.5C35.0039 1.11719 33.8867 0 32.5039 0H29.9961H9.99609H7.49609ZM27.4961 34.1406V35H12.4961V34.1406C12.4961 32.1484 13.2852 30.2422 14.6914 28.8359L19.9961 23.5391L25.3008 28.8438C26.707 30.25 27.4961 32.1562 27.4961 34.1484V34.1406Z" fill="current"/>
</svg>
