<svg width="40" height="40" viewBox="0 0 40 40" fill="current" xmlns="http://www.w3.org/2000/svg">
<path d="M7.49609 0C6.11328 0 4.99609 1.11719 4.99609 2.5C4.99609 3.88281 6.11328 5 7.49609 5V5.85938C7.49609 9.17188 8.81641 12.3516 11.1602 14.6953L16.457 20L11.1602 25.3047C8.81641 27.6484 7.49609 30.8281 7.49609 34.1406V35C6.11328 35 4.99609 36.1172 4.99609 37.5C4.99609 38.8828 6.11328 40 7.49609 40H9.99609H29.9961H32.4961C33.8789 40 34.9961 38.8828 34.9961 37.5C34.9961 36.1172 33.8789 35 32.4961 35V34.1406C32.4961 30.8281 31.1758 27.6484 28.832 25.3047L23.5352 20L28.8398 14.6953C31.1836 12.3516 32.5039 9.17188 32.5039 5.85938V5C33.8867 5 35.0039 3.88281 35.0039 2.5C35.0039 1.11719 33.8867 0 32.5039 0H29.9961H9.99609H7.49609ZM12.4961 5.85938V5H27.4961V5.85938C27.4961 7.85156 26.707 9.75781 25.3008 11.1641L19.9961 16.4609L14.6914 11.1562C13.2852 9.75781 12.4961 7.84375 12.4961 5.85938Z" fill="current"/>
</svg>
