<svg width="25" height="32" viewBox="0 0 25 32" fill="none" xmlns="http://www.w3.org/2000/svg">
<path d="M2.49689 0C1.39064 0 0.496887 0.89375 0.496887 2C0.496887 3.10625 1.39064 4 2.49689 4V4.6875C2.49689 7.3375 3.55314 9.88125 5.42814 11.7563L9.66564 16L5.42814 20.2437C3.55314 22.1187 2.49689 24.6625 2.49689 27.3125V28C1.39064 28 0.496887 28.8937 0.496887 30C0.496887 31.1063 1.39064 32 2.49689 32H4.49689H20.4969H22.4969C23.6031 32 24.4969 31.1063 24.4969 30C24.4969 28.8937 23.6031 28 22.4969 28V27.3125C22.4969 24.6625 21.4406 22.1187 19.5656 20.2437L15.3281 16L19.5719 11.7563C21.4469 9.88125 22.5031 7.3375 22.5031 4.6875V4C23.6094 4 24.5031 3.10625 24.5031 2C24.5031 0.89375 23.6094 0 22.5031 0H20.4969H4.49689H2.49689ZM6.49689 4.6875V4H18.4969V4.6875C18.4969 5.875 18.1469 7.025 17.4969 8H7.49689C6.85314 7.025 6.49689 5.875 6.49689 4.6875ZM7.49689 24C7.71564 23.6688 7.97189 23.3563 8.25314 23.0688L12.4969 18.8312L16.7406 23.075C17.0281 23.3625 17.2781 23.675 17.4969 24.0063H7.49689V24Z" fill="white"/>
</svg>
