<svg width="40" height="40" viewBox="0 0 40 40" fill="none" xmlns="http://www.w3.org/2000/svg">
<path d="M5 38.125C5 39.1641 5.83594 40 6.875 40H33.125C34.1641 40 35 39.1641 35 38.125C35 37.0859 34.1641 36.25 33.125 36.25H32.5V34.7656C32.5 31.6172 31.25 28.5938 29.0234 26.3672L22.6484 20L29.0156 13.6328C31.25 11.4062 32.5 8.38281 32.5 5.23438V3.75H33.125C34.1641 3.75 35 2.91406 35 1.875C35 0.835937 34.1641 0 33.125 0H6.875C5.83594 0 5 0.835937 5 1.875C5 2.91406 5.83594 3.75 6.875 3.75H7.5V5.23438C7.5 8.38281 8.75 11.4062 10.9766 13.6328L17.3516 20L10.9766 26.3672C8.75 28.5938 7.5 31.6172 7.5 34.7656V36.25H6.875C5.83594 36.25 5 37.0859 5 38.125ZM26.3672 29.0234C27.8906 30.5469 28.75 32.6094 28.75 34.7656V36.25H11.25V34.7656C11.25 32.6094 12.1094 30.5469 13.6328 29.0234L20 22.6484L26.3672 29.0156V29.0234Z" fill="#B3B3C3"/>
</svg>
