<svg width="40" height="40" viewBox="0 0 40 40" fill="none" xmlns="http://www.w3.org/2000/svg">
<path d="M7.5 35H32.5C33.8828 35 35 36.1172 35 37.5C35 38.8828 33.8828 40 32.5 40H7.5C6.11953 40 5 38.8828 5 37.5C5 36.1172 6.11953 35 7.5 35ZM7.5 0H32.5C33.8828 0 35 1.11953 35 2.5C35 3.88047 33.8828 5 32.5 5H27.5V5.85781C27.5 7.84375 26.7109 9.75781 25.3047 11.1641L20 16.4609L14.6953 11.1641C13.2891 9.75781 12.5 7.84375 12.5 5.85781V5H7.5C6.11953 5 5 3.88047 5 2.5C5 1.11953 6.11953 0 7.5 0Z" fill="#E84A4A"/>
<path d="M11.1609 25.3044L16.4609 19.9998L11.1609 14.6951C8.81719 12.3513 7.5 9.17163 7.5 5.85757V4.99976H12.5V5.85757C12.5 7.84351 13.2891 9.75757 14.6953 11.1638L20 16.4607L25.3047 11.1638C26.7109 9.75757 27.5 7.84351 27.5 5.85757V4.99976H32.5V5.85757C32.5 9.17163 31.1797 12.3513 28.8359 14.6951L23.5391 19.9998L28.8359 25.3044C31.1797 27.6482 32.5 30.8279 32.5 34.1404V34.9998H27.5V34.1404C27.5 32.156 26.7109 30.2419 25.3047 28.8357L20 23.5388L14.6953 28.8357C13.2891 30.2419 12.5 32.156 12.5 34.1404V34.9998H7.5V34.1404C7.5 30.8279 8.81719 27.6482 11.1609 25.3044ZM12.9297 27.0701L11.1609 25.3044L12.9297 27.0701Z" fill="#2D253F"/>
</svg>
