<svg width="40" height="40" viewBox="0 0 40 40" fill="none" xmlns="http://www.w3.org/2000/svg">
<path d="M5 1.875C5 0.835937 5.83594 0 6.875 0H33.125C34.1641 0 35 0.835937 35 1.875C35 2.91406 34.1641 3.75 33.125 3.75H32.5V5.23438C32.5 8.38281 31.25 11.4062 29.0234 13.6328L22.6484 20L29.0156 26.3672C31.25 28.5938 32.5 31.6172 32.5 34.7656V36.25H33.125C34.1641 36.25 35 37.0859 35 38.125C35 39.1641 34.1641 40 33.125 40H6.875C5.83594 40 5 39.1641 5 38.125C5 37.0859 5.83594 36.25 6.875 36.25H7.5V34.7656C7.5 31.6172 8.75 28.5938 10.9766 26.3672L17.3516 20L10.9766 13.6328C8.75 11.4062 7.5 8.38281 7.5 5.23438V3.75H6.875C5.83594 3.75 5 2.91406 5 1.875ZM26.3672 10.9766C27.8906 9.45312 28.75 7.39063 28.75 5.23438V3.75H11.25V5.23438C11.25 7.39063 12.1094 9.45312 13.6328 10.9766L20 17.3516L26.3672 10.9844V10.9766Z" fill="#B3B3C3"/>
</svg>
