<svg width="40" height="40" viewBox="0 0 40 40" fill="none" xmlns="http://www.w3.org/2000/svg">
<path d="M5 2.5C5 1.11953 6.11953 0 7.5 0H32.5C33.8828 0 35 1.11953 35 2.5C35 3.88047 33.8828 5 32.5 5H7.5C6.11953 5 5 3.88047 5 2.5ZM5 37.5C5 36.1172 6.11953 35 7.5 35H12.5V34.1406C12.5 32.1562 13.2891 30.2422 14.6953 28.8359L20 23.5391L25.3047 28.8359C26.7109 30.2422 27.5 32.1562 27.5 34.1406V35H32.5C33.8828 35 35 36.1172 35 37.5C35 38.8828 33.8828 40 32.5 40H7.5C6.11953 40 5 38.8828 5 37.5Z" fill="#E84A4A"/>
<path d="M7.5 5.85781V5H12.5V5.85781C12.5 7.84375 13.2891 9.75781 14.6953 11.1641L20 16.4609L25.3047 11.1641C26.7109 9.75781 27.5 7.84375 27.5 5.85781V5H32.5V5.85781C32.5 9.17188 31.1797 12.3516 28.8359 14.6953L23.5391 20L28.8359 25.3047C31.1797 27.6484 32.5 30.8281 32.5 34.1406V35H27.5V34.1406C27.5 32.1562 26.7109 30.2422 25.3047 28.8359L20 23.5391L14.6953 28.8359C13.2891 30.2422 12.5 32.1562 12.5 34.1406V35H7.5V34.1406C7.5 30.8281 8.81719 27.6484 11.1609 25.3047L16.4609 20L11.1609 14.6953C8.81719 12.3516 7.5 9.17188 7.5 5.85781ZM12.9297 12.9297L11.1609 14.6953L12.9297 12.9297Z" fill="white"/>
</svg>
