<svg width="40" height="40" viewBox="0 0 40 40" fill="none" xmlns="http://www.w3.org/2000/svg">
<g clip-path="url(#clip0_2448_42640)">
<path d="M0.000488281 21.6667C0.000488281 20.7431 0.747016 20 1.66716 20C10.563 20 17.7783 27.2153 17.7783 36.1111C17.7783 37.0347 17.0352 37.7778 16.1116 37.7778C15.188 37.7778 14.4449 37.0347 14.4449 36.1111C14.4449 29.0556 8.72271 23.3333 1.66716 23.3333C0.747016 23.3333 0.000488281 22.5903 0.000488281 21.6667ZM4.44493 35.5556C4.44493 36.7847 3.44979 37.7778 2.22271 37.7778C0.995627 37.7778 0.000488281 36.7847 0.000488281 35.5556C0.000488281 34.3264 0.995627 33.3333 2.22271 33.3333C3.44979 33.3333 4.44493 34.3264 4.44493 35.5556ZM11.1116 36.1111C11.1116 37.0347 10.3685 37.7778 9.44493 37.7778C8.52132 37.7778 7.77827 37.0347 7.77827 36.1111C7.77827 32.7361 5.04216 30 1.66716 30C0.747016 30 0.000488281 29.2569 0.000488281 28.3333C0.000488281 27.4097 0.747016 26.6667 1.66716 26.6667C6.88313 26.6667 11.1116 30.8958 11.1116 36.1111Z" fill="#E84A4A"/>
<path d="M39.2852 16.1459C39.9588 16.7639 40.181 17.7361 39.8477 18.5903C39.5143 19.4375 38.6949 20 37.7782 20H35.556V27.7778C35.556 29.6181 34.0629 31.1111 32.2227 31.1111H20.5838C18.9379 24.2709 13.5699 18.8264 6.74072 17.2084C6.84628 16.8125 7.06295 16.4375 7.38239 16.1459L21.8268 2.81155C22.681 2.02579 23.9866 2.02579 24.8407 2.81155L39.2852 16.1459ZM20.0004 21.1111C20.0004 21.7222 20.5004 22.2222 21.1116 22.2222H25.556C26.1671 22.2222 26.6671 21.7222 26.6671 21.1111V16.6667C26.6671 16.0556 26.1671 15.5556 25.556 15.5556H21.1116C20.5004 15.5556 20.0004 16.0556 20.0004 16.6667V21.1111Z" fill="#2D253F"/>
</g>
<defs>
<clipPath id="clip0_2448_42640">
<rect width="40" height="40" fill="white" transform="translate(0.000488281)"/>
</clipPath>
</defs>
</svg>
