<svg width="24" height="23" viewBox="0 0 24 23" fill="none" xmlns="http://www.w3.org/2000/svg">
<g clip-path="url(#clip0_11510_3029)">
<path d="M11.1209 1.16248C11.625 0.724976 12.375 0.724976 12.8792 1.16248L23.5459 10.4958C24.1 10.9791 24.1542 11.825 23.6709 12.3791C23.1875 12.9333 22.3417 12.9875 21.7875 12.5041L12 3.93748L2.21253 12.5041C1.65836 12.9875 0.816693 12.9333 0.329193 12.3791C-0.158307 11.825 -0.0999741 10.9833 0.454193 10.4958L11.1209 1.16248Z" fill="#FF4545"/>
<path d="M2.66602 12.1042L2.67018 20.5C2.67018 21.4208 3.41602 22.1667 4.33685 22.1667H7.66602C8.58685 22.1667 9.33268 21.4208 9.33268 20.5V16.8208C9.33268 16.0833 9.92852 15.4875 10.666 15.4875H13.3327C14.0702 15.4875 14.666 16.0833 14.666 16.8208V20.5C14.666 21.4208 15.4118 22.1667 16.3327 22.1667H19.6868C20.6077 22.1667 21.3535 21.4167 21.3535 20.4958L21.3368 12.1083L11.9993 3.9375L2.66602 12.1042Z" fill="white"/>
</g>
<defs>
<clipPath id="clip0_11510_3029">
<rect width="24" height="21.3333" fill="white" transform="translate(0 0.833313)"/>
</clipPath>
</defs>
</svg>
