<svg width="40" height="40" viewBox="0 0 40 40" fill="current" xmlns="http://www.w3.org/2000/svg">
<g clip-path="url(#clip0_2448_42649)">
<path d="M24.8408 2.81163C23.9866 2.0269 22.6741 2.0269 21.8269 2.81163L7.38243 16.145C6.72965 16.7422 6.50049 17.6727 6.79215 18.5061C12.8408 20.263 17.5977 25.0477 19.313 31.1172H32.2227C34.063 31.1172 35.556 29.6241 35.556 27.7838V19.9991H37.7783C38.6949 19.9991 39.5144 19.4366 39.8477 18.5894C40.181 17.7422 39.9588 16.77 39.2852 16.145L24.8408 2.81163ZM20.0005 16.6658C20.0005 16.0547 20.5005 15.5547 21.1116 15.5547H25.556C26.1672 15.5547 26.6672 16.0547 26.6672 16.6658V21.1102C26.6672 21.7213 26.1672 22.2213 25.556 22.2213H21.1116C20.5005 22.2213 20.0005 21.7213 20.0005 21.1102V16.6658ZM1.66715 19.9991C0.743544 19.9991 0.000488281 20.7422 0.000488281 21.6658C0.000488281 22.5894 0.743544 23.3325 1.66715 23.3325C8.72271 23.3325 14.4449 29.0547 14.4449 36.1102C14.4449 37.0338 15.188 37.7769 16.1116 37.7769C17.0352 37.7769 17.7783 37.0338 17.7783 36.1102C17.7783 27.2144 10.563 19.9991 1.66715 19.9991ZM2.22271 37.7769C2.81208 37.7769 3.37731 37.5428 3.79406 37.126C4.21081 36.7093 4.44493 36.1441 4.44493 35.5547C4.44493 34.9653 4.21081 34.4001 3.79406 33.9833C3.37731 33.5666 2.81208 33.3325 2.22271 33.3325C1.63334 33.3325 1.06811 33.5666 0.651362 33.9833C0.234615 34.4001 0.000488281 34.9653 0.000488281 35.5547C0.000488281 36.1441 0.234615 36.7093 0.651362 37.126C1.06811 37.5428 1.63334 37.7769 2.22271 37.7769ZM0.000488281 28.3325C0.000488281 29.2561 0.743544 29.9991 1.66715 29.9991C5.04215 29.9991 7.77827 32.7352 7.77827 36.1102C7.77827 37.0338 8.52132 37.7769 9.44493 37.7769C10.3685 37.7769 11.1116 37.0338 11.1116 36.1102C11.1116 30.895 6.88243 26.6658 1.66715 26.6658C0.743544 26.6658 0.000488281 27.4088 0.000488281 28.3325Z" fill="current"/>
</g>
<defs>
<clipPath id="clip0_2448_42649">
<rect width="40.0002" height="40" fill="current" transform="translate(0.000488281)"/>
</clipPath>
</defs>
</svg>
