<svg width="32" height="30" viewBox="0 0 32 30" fill="none" xmlns="http://www.w3.org/2000/svg">
<g clip-path="url(#clip0_11510_2808)">
<path d="M14.8275 1.21667C15.4997 0.633341 16.4997 0.633341 17.1719 1.21667L31.3942 13.6611C32.133 14.3056 32.2053 15.4333 31.5608 16.1722C30.9164 16.9111 29.7886 16.9833 29.0497 16.3389L15.9997 4.91668L2.94971 16.3389C2.21082 16.9833 1.0886 16.9111 0.438598 16.1722C-0.211402 15.4333 -0.133624 14.3111 0.605265 13.6611L14.8275 1.21667Z" fill="#FF4545"/>
<path d="M3.55566 15.8056L3.56122 27.0001C3.56122 28.2279 4.55566 29.2223 5.78344 29.2223H10.2223C11.4501 29.2223 12.4446 28.2279 12.4446 27.0001V22.0945C12.4446 21.1112 13.239 20.3167 14.2223 20.3167H17.7779C18.7612 20.3167 19.5557 21.1112 19.5557 22.0945V27.0001C19.5557 28.2279 20.5501 29.2223 21.7779 29.2223H26.2501C27.4779 29.2223 28.4723 28.2223 28.4723 26.9945L28.4501 15.8112L16.0001 4.91675L3.55566 15.8056Z" fill="#2E2640"/>
</g>
<defs>
<clipPath id="clip0_11510_2808">
<rect width="32" height="28.4444" fill="white" transform="translate(0 0.777832)"/>
</clipPath>
</defs>
</svg>
