<svg width="40" height="40" viewBox="0 0 40 40" fill="none" xmlns="http://www.w3.org/2000/svg">
<g clip-path="url(#clip0_2930_46776)">
<path d="M22.2783 2.59723C22.8894 2.09723 23.7713 2.09723 24.3824 2.59723L39.3824 14.8195C40.0977 15.4028 40.2019 16.4514 39.6185 17.1667C39.0352 17.882 37.9866 17.9861 37.2713 17.4028L35.556 16V27.2222C35.556 29.3681 33.813 31.1111 31.6672 31.1111H19.313C18.9866 29.9514 18.5422 28.8333 18.0074 27.7778H31.6672C31.9727 27.7778 32.2227 27.5278 32.2227 27.2222V13.2847L23.3338 6.04167L14.4449 13.2847V22.9653C13.438 21.9861 12.3199 21.125 11.1116 20.3958V16L9.38938 17.4028C8.6741 17.9861 7.62549 17.875 7.04215 17.1667C6.45882 16.4583 6.56993 15.4028 7.27827 14.8195L22.2783 2.59723ZM21.6672 15.5556H25.0005C25.9241 15.5556 26.6672 16.2986 26.6672 17.2222V20.5556C26.6672 21.4792 25.9241 22.2222 25.0005 22.2222H21.6672C20.7435 22.2222 20.0005 21.4792 20.0005 20.5556V17.2222C20.0005 16.2986 20.7435 15.5556 21.6672 15.5556ZM1.66715 20C10.563 20 17.7783 27.2153 17.7783 36.1111C17.7783 37.0347 17.0352 37.7778 16.1116 37.7778C15.188 37.7778 14.4449 37.0347 14.4449 36.1111C14.4449 29.0556 8.72271 23.3333 1.66715 23.3333C0.743544 23.3333 0.000488281 22.5903 0.000488281 21.6667C0.000488281 20.7431 0.743544 20 1.66715 20ZM2.22271 33.3333C2.81208 33.3333 3.37731 33.5675 3.79406 33.9842C4.21081 34.401 4.44493 34.9662 4.44493 35.5556C4.44493 36.1449 4.21081 36.7102 3.79406 37.1269C3.37731 37.5437 2.81208 37.7778 2.22271 37.7778C1.63334 37.7778 1.06811 37.5437 0.651362 37.1269C0.234615 36.7102 0.000488281 36.1449 0.000488281 35.5556C0.000488281 34.9662 0.234615 34.401 0.651362 33.9842C1.06811 33.5675 1.63334 33.3333 2.22271 33.3333ZM0.000488281 28.3333C0.000488281 27.4097 0.743544 26.6667 1.66715 26.6667C6.88243 26.6667 11.1116 30.8958 11.1116 36.1111C11.1116 37.0347 10.3685 37.7778 9.44493 37.7778C8.52132 37.7778 7.77827 37.0347 7.77827 36.1111C7.77827 32.7361 5.04215 30 1.66715 30C0.743544 30 0.000488281 29.257 0.000488281 28.3333Z" fill="#B3B3C3"/>
</g>
<defs>
<clipPath id="clip0_2930_46776">
<rect width="39.9953" height="40" fill="white" transform="translate(0.000488281)"/>
</clipPath>
</defs>
</svg>
