<svg width="40" height="41" viewBox="0 0 40 41" fill="current" xmlns="http://www.w3.org/2000/svg">
<path d="M9.87494 38.6872C10.8206 38.6872 11.5873 37.7012 11.5873 36.4849C11.5873 35.2686 10.8206 34.2827 9.87494 34.2827C8.92924 34.2827 8.1626 35.2686 8.1626 36.4849C8.1626 37.7012 8.92924 38.6872 9.87494 38.6872Z" fill="current"/>
<path fill-rule="evenodd" clip-rule="evenodd" d="M18.1359 4.327C17.8788 4.42401 16.8601 4.70051 17.2385 4.17177C17.7138 3.59452 18.4754 3.21131 19.1982 2.92996C19.4116 2.85235 20.5128 2.53704 20.1732 3.04153C19.6978 3.64788 18.8732 4.03595 18.1359 4.327ZM4.07334 32.3308C3.11773 32.4763 3.03527 31.1569 3.08378 30.5893C3.18079 29.7695 3.52035 28.615 4.46626 28.2755C5.45097 28.0329 5.55769 29.3863 5.51403 29.9587C5.42187 30.7785 5.08231 32.0591 4.07334 32.3308ZM10.5734 9.86178C10.1126 10.0995 9.71484 10.0122 10.0204 9.51252C10.4522 8.86736 11.1022 8.32407 11.8152 7.936C12.2179 7.72742 12.766 7.69346 12.4459 8.21735C11.9996 8.89161 11.3108 9.45431 10.5686 9.86178M18.0728 30.1673C16.6758 30.2789 15.8414 29.1583 15.8754 27.999C15.9918 26.7523 16.9183 25.5251 18.3299 25.2583C19.7366 25.0885 20.634 26.1799 20.6243 27.3587C20.5273 28.6441 19.5523 29.9442 18.0679 30.1673M22.812 5.10313C22.4094 5.20499 21.1094 5.39903 21.4393 4.68596C21.8613 3.95833 22.8509 3.55087 23.6803 3.31803C24.0539 3.22101 25.3878 2.99302 25.1307 3.68669C24.7475 4.45312 23.6512 4.87029 22.812 5.10798M18.5724 23.022C16.9814 23.2452 15.8851 22.1537 16.0549 20.7567C16.3411 19.2336 17.6508 17.9044 19.3195 17.5018C20.8766 17.2205 22.1087 18.1809 22.002 19.6071C21.7643 21.2175 20.3478 22.6631 18.5773 23.022M27.9006 21.0235C26.5666 21.1351 25.2908 20.3832 25.349 19.0977C25.5091 17.7929 26.78 16.8227 28.1722 16.6044C29.4819 16.4734 30.7868 17.1623 30.7916 18.438C30.6849 19.8011 29.3412 20.8246 27.9006 21.0235ZM21.2986 9.19722C20.474 9.3961 18.9702 9.35729 19.3583 8.24646C19.8627 7.12592 21.2064 6.40315 22.4337 6.05389C23.1904 5.8647 24.8009 5.79194 24.5195 6.88338C24.0781 8.08638 22.5598 8.84796 21.2937 9.19722M19.6833 15.5227C18.2377 15.8089 16.7582 15.1686 17.1123 13.6745C17.612 12.1029 19.2127 10.929 20.9105 10.4584C22.2591 10.148 23.9374 10.5748 23.7046 12.0883C23.2923 13.7909 21.4829 15.0716 19.6833 15.5227ZM37.3354 11.9719C36.2537 12.0398 34.6917 11.6081 34.6723 10.439C34.7742 9.29423 36.2052 8.73639 37.3208 8.64422C38.3444 8.59571 39.9451 8.95953 39.9985 10.0946C40.0567 11.2734 38.422 11.904 37.3354 11.9719ZM29.3412 7.15502C28.6621 7.25204 27.1681 7.22778 27.3476 6.29643C27.6338 5.38447 28.895 4.9382 29.8312 4.77327C30.5006 4.67625 31.9607 4.6714 31.8831 5.57366C31.6745 6.53897 30.2823 6.99495 29.3412 7.15502ZM28.4293 13.6745C27.0662 13.8346 25.2083 13.3495 25.3975 11.8264C25.7322 10.3323 27.4543 9.4155 29.0065 9.14871C30.3211 8.97408 32.1887 9.36214 32.1547 10.8416C31.951 12.4473 30.0349 13.4223 28.4293 13.6794M4.84462 26.3546C3.68528 26.6893 3.67558 25.1758 3.8017 24.5258C4.05879 23.4198 4.67969 22.144 5.84874 21.5911C7.02749 21.1448 7.13421 22.5758 7.00323 23.2791C6.75099 24.4094 6.10583 25.8598 4.84462 26.3497M1.21621 27.2811C0.517694 27.5576 0.677771 26.306 0.740831 26.0004C0.91061 25.268 1.22106 24.3512 1.94383 23.9146C2.66175 23.5653 2.52593 24.8023 2.46287 25.1224C2.29309 25.8549 1.99234 26.8736 1.21621 27.2762M8.51669 13.9316C7.71145 14.3245 7.45921 13.7812 7.76966 13.1361C8.27415 12.1853 9.09879 11.3413 10.0981 10.7931C10.8305 10.4245 11.3205 10.7252 10.9809 11.4528C10.4619 12.4521 9.56932 13.3641 8.51669 13.9365M6.32412 19.869C5.12597 20.3638 5.08716 19.0735 5.33455 18.3459C5.80508 17.104 6.70248 15.8768 7.9734 15.188C9.12789 14.6447 9.41409 15.6439 9.14245 16.4977C8.66221 17.8074 7.70175 19.1899 6.32412 19.8642M0.289705 22.6485C-0.200227 22.9881 0.0665679 21.9452 0.124778 21.7754C0.357617 21.1254 0.677771 20.422 1.24047 19.9418C1.75465 19.5586 1.50726 20.5433 1.43935 20.747C1.19681 21.4116 0.881505 22.1731 0.289705 22.6485ZM4.81067 15.838C4.25767 16.1872 4.34499 15.5712 4.50506 15.2413C4.85432 14.5719 5.35396 13.9268 6.00882 13.4708C6.54726 13.1264 6.56181 13.6018 6.37748 13.9898C6.01367 14.6835 5.49463 15.3675 4.81552 15.838M2.60354 21.6153C1.7401 22.081 2.00204 20.7373 2.12816 20.3541C2.48712 19.3791 3.06437 18.3556 3.99088 17.7201C4.86403 17.1914 4.7185 18.3701 4.55842 18.8358C4.18491 19.8448 3.59311 20.9847 2.59869 21.6202M9.82156 32.161C8.41967 32.3017 7.94914 30.8416 8.00735 29.8374C8.13348 28.6344 8.82714 27.1986 10.2242 26.8299C11.66 26.5728 12.2033 28.0378 12.1597 29.0662C12.0432 30.2983 11.3156 31.8748 9.82156 32.1561M10.4376 25.1564C8.81259 25.4911 8.2887 23.9631 8.49244 22.7941C8.83199 21.2806 9.90887 19.7332 11.5582 19.1511C13.1638 18.7 13.8914 20.0582 13.7168 21.3097C13.4015 22.9008 12.2373 24.6519 10.4376 25.1564ZM13.8817 11.7973C12.9164 12.1417 11.9511 11.8506 12.4216 10.8077C13.0425 9.60953 14.2698 8.65877 15.594 8.11063C16.4284 7.80018 17.6993 7.82443 17.2724 8.91587C16.6661 10.2062 15.2884 11.2346 13.8865 11.7924M11.8832 17.8705C10.4134 18.3119 9.70029 17.2835 10.0738 16.0708C10.6316 14.5477 11.9559 13.204 13.5858 12.5491C14.9392 12.0786 16.0015 12.7626 15.6619 14.082C15.1284 15.7216 13.6537 17.235 11.8832 17.8705ZM16.0015 7.36361C15.5116 7.54794 14.4929 7.68376 14.9246 6.95129C15.4582 6.1509 16.3993 5.57366 17.3306 5.19044C17.7429 5.03522 18.9217 4.78782 18.5288 5.5203C17.9952 6.36919 16.962 6.97069 16.0015 7.36361Z" fill="current"/>
</svg>
