<svg width="40" height="32" viewBox="0 0 40 32" fill="none" xmlns="http://www.w3.org/2000/svg">
<path d="M0 27.2725V6.26554C0 4.61277 1.76389 3.51554 3.36111 3.9461C8.90278 5.43915 14.4514 4.05721 20 2.66832C26.0347 1.16138 32.0694 -0.352513 38.1042 1.84888C39.2917 2.28638 40 3.46693 40 4.73082V25.7378C40 27.3905 38.2361 28.4808 36.6458 28.0503C31.0972 26.5642 25.5486 27.9461 20 29.335C13.9653 30.8419 7.93056 32.3489 1.89583 30.1544C0.708333 29.7169 0 28.5364 0 27.2725ZM31.1181 5.18915C28.3403 5.25165 25.3194 5.91832 21.7986 6.80026C21.4792 6.8836 21.1458 6.95999 20.8125 7.05026C17.2639 7.93915 13.1458 8.98082 8.80556 9.03638C8.4375 11.0989 6.625 12.6683 4.44444 12.6683V22.6683C6.79861 22.6683 8.72222 24.4947 8.88194 26.8142C11.6597 26.7517 14.6806 26.085 18.2014 25.203C18.5278 25.1197 18.8542 25.0433 19.1875 24.953C22.7361 24.0642 26.8542 23.0225 31.1944 22.9669C31.5764 20.8975 33.3889 19.328 35.5694 19.328V9.33499C33.2153 9.33499 31.2917 7.5086 31.1319 5.18915H31.1181ZM18.8889 11.2794H20C20.7639 11.2794 21.3889 11.9044 21.3889 12.6683V17.3905H21.6667C22.4306 17.3905 23.0556 18.0155 23.0556 18.7794C23.0556 19.5433 22.4306 20.1683 21.6667 20.1683H20H18.3333C17.5694 20.1683 16.9444 19.5433 16.9444 18.7794C16.9444 18.0155 17.5694 17.3905 18.3333 17.3905H18.6111V14.0294C17.9792 13.8975 17.5 13.3419 17.5 12.6683C17.5 11.9044 18.125 11.2794 18.8889 11.2794Z" fill="#2D253F"/>
<path d="M35.5554 9.33504C33.2013 9.33504 31.2777 7.50865 31.1179 5.18921C28.3402 5.25171 25.3193 5.91838 21.7985 6.80032C21.4791 6.88365 21.1457 6.96004 20.8124 7.05032C17.2638 7.93921 13.1457 8.98088 8.80545 9.03643C8.43739 11.0989 6.62489 12.6684 4.44434 12.6684V22.6684C6.7985 22.6684 8.72211 24.4948 8.88184 26.8142C11.6596 26.7517 14.6804 26.085 18.2013 25.2031C18.5277 25.1198 18.8541 25.0434 19.1874 24.9531C22.736 24.0642 26.8541 23.0225 31.1943 22.967C31.5763 20.8975 33.3888 19.3281 35.5693 19.3281V9.33504H35.5554ZM19.9999 22.6684C16.9304 22.6684 14.4443 19.6823 14.4443 16.0017C14.4443 12.3212 16.9304 9.33504 19.9999 9.33504C23.0693 9.33504 25.5554 12.3212 25.5554 16.0017C25.5554 19.6823 23.0693 22.6684 19.9999 22.6684Z" fill="#E84A4A"/>
</svg>
