<svg width="40" height="41" viewBox="0 0 40 41" fill="current" xmlns="http://www.w3.org/2000/svg">
<path d="M0 12.7242C0 10.518 1.79375 8.72424 4 8.72424H16H19H20H36C38.2062 8.72424 40 10.518 40 12.7242V28.7242C40 30.9305 38.2062 32.7242 36 32.7242H20H19H16H4C1.79375 32.7242 0 30.9305 0 28.7242V12.7242ZM20 12.7242V28.7242H36V12.7242H20ZM11.1438 15.718C10.9438 15.268 10.4937 14.9742 10 14.9742C9.50625 14.9742 9.05625 15.268 8.85625 15.718L4.85625 24.718C4.575 25.3492 4.8625 26.0867 5.49375 26.368C6.125 26.6492 6.8625 26.3617 7.14375 25.7305L7.7 24.4742H12.3L12.8562 25.7305C13.1375 26.3617 13.875 26.643 14.5063 26.368C15.1375 26.093 15.4187 25.3492 15.1438 24.718L11.1438 15.718ZM10 19.2992L11.1875 21.9742H8.8125L10 19.2992ZM28 14.9742C28.6875 14.9742 29.25 15.5367 29.25 16.2242V16.4742H32H33C33.6875 16.4742 34.25 17.0367 34.25 17.7242C34.25 18.4117 33.6875 18.9742 33 18.9742H32.875L32.775 19.2555C32.2188 20.7805 31.375 22.168 30.3 23.343C30.3562 23.3805 30.4125 23.4117 30.4688 23.443L31.65 24.1492C32.2438 24.5055 32.4312 25.2742 32.0812 25.8617C31.7312 26.4492 30.9562 26.643 30.3687 26.293L29.1875 25.5867C28.9062 25.418 28.6375 25.243 28.3687 25.0555C27.7062 25.5242 27 25.9305 26.2437 26.268L26.0187 26.368C25.3875 26.6492 24.65 26.3617 24.3687 25.7305C24.0875 25.0992 24.375 24.3617 25.0063 24.0805L25.2313 23.9805C25.6313 23.7992 26.0188 23.5992 26.3875 23.368L25.625 22.6055C25.1375 22.118 25.1375 21.3242 25.625 20.8367C26.1125 20.3492 26.9062 20.3492 27.3937 20.8367L28.3062 21.7492L28.3375 21.7805C29.1125 20.9617 29.7438 20.0117 30.2 18.968H28H23.5C22.8125 18.968 22.25 18.4055 22.25 17.718C22.25 17.0305 22.8125 16.468 23.5 16.468H26.75V16.218C26.75 15.5305 27.3125 14.968 28 14.968V14.9742Z" fill="current"/>
</svg>
