<svg width="40" height="41" viewBox="0 0 40 41" fill="none" xmlns="http://www.w3.org/2000/svg">
<path d="M4 8.72424C1.79375 8.72424 0 10.518 0 12.7242V28.7242C0 30.9305 1.79375 32.7242 4 32.7242H17H19H20H36C38.2062 32.7242 40 30.9305 40 28.7242V12.7242C40 10.518 38.2062 8.72424 36 8.72424H20H19H17H4ZM36 11.7242C36.55 11.7242 37 12.1742 37 12.7242V28.7242C37 29.2742 36.55 29.7242 36 29.7242H20V11.7242H36ZM11.1438 15.718L15.1438 24.718C15.425 25.3492 15.1375 26.0867 14.5063 26.368C13.875 26.6492 13.1375 26.3617 12.8562 25.7305L12.3 24.4742H7.7L7.14375 25.7305C6.8625 26.3617 6.125 26.643 5.49375 26.368C4.8625 26.093 4.58125 25.3492 4.85625 24.718L8.85625 15.718C9.05625 15.268 9.50625 14.9742 10 14.9742C10.4938 14.9742 10.9438 15.268 11.1438 15.718ZM11.1875 21.9742L10 19.2992L8.8125 21.9742H11.1875ZM28.5 14.9742C27.8125 14.9742 27.25 15.5367 27.25 16.2242V16.4742H24C23.3125 16.4742 22.75 17.0367 22.75 17.7242C22.75 18.4117 23.3125 18.9742 24 18.9742H28.5H30.6938C30.2375 20.018 29.6062 20.968 28.8312 21.7867L28.8 21.7555L27.8875 20.843C27.4 20.3555 26.6062 20.3555 26.1187 20.843C25.6312 21.3305 25.6312 22.1242 26.1187 22.6117L26.875 23.368C26.5062 23.593 26.1188 23.7992 25.7188 23.9805L25.4937 24.0805C24.8625 24.3617 24.5813 25.0992 24.8563 25.7305C25.1313 26.3617 25.875 26.643 26.5063 26.368L26.7313 26.268C27.4813 25.9367 28.1938 25.5305 28.8563 25.0555C29.125 25.243 29.3937 25.418 29.675 25.5867L30.8563 26.293C31.45 26.6492 32.2187 26.4555 32.5687 25.8617C32.9187 25.268 32.7313 24.4992 32.1375 24.1492L30.9562 23.443C30.9 23.4117 30.8438 23.3742 30.7875 23.343C31.8625 22.168 32.7063 20.7867 33.2625 19.2555L33.375 18.9742H33.5C34.1875 18.9742 34.75 18.4117 34.75 17.7242C34.75 17.0367 34.1875 16.4742 33.5 16.4742H32.5H29.75V16.2242C29.75 15.5367 29.1875 14.9742 28.5 14.9742Z" fill="#B3B3C3"/>
</svg>
