<svg width="40" height="41" viewBox="0 0 40 41" fill="none" xmlns="http://www.w3.org/2000/svg">
<path d="M39.9998 28.7242C39.9998 30.9304 38.2061 32.7242 35.9998 32.7242H19.9998V8.72424H35.9998C38.2061 8.72424 39.9998 10.5149 39.9998 12.7242V28.7242ZM31.2498 16.2242C31.2498 15.4805 30.6873 14.9742 29.9998 14.9742C29.2561 14.9742 28.7498 15.4805 28.7498 16.2242V16.4742H25.4998C24.7561 16.4742 24.2498 16.9805 24.2498 17.7242C24.2498 18.4117 24.7561 18.9742 25.4998 18.9742H32.1936C31.7373 20.018 31.1061 20.968 30.3311 21.7305L30.2936 21.7492L29.3811 20.843C28.8936 20.3492 28.1061 20.3492 27.6186 20.843C27.1248 21.3305 27.1248 22.118 27.6186 22.6055L28.3748 23.368C28.0061 23.543 27.6186 23.7992 27.2186 23.9805L26.9936 24.0805C26.3623 24.3617 26.0748 25.0992 26.3561 25.7304C26.6373 26.3617 27.3748 26.6492 28.0061 26.3679L28.2373 26.2679C28.9873 25.9304 29.6998 25.5242 30.3561 25.0554C30.5686 25.2429 30.8998 25.4179 31.1748 25.5867L32.3561 26.2929C32.9498 26.6492 33.7186 26.4617 34.0748 25.8679C34.4248 25.2742 34.2373 24.5055 33.6436 24.1555L32.4623 23.443C32.4061 23.3555 32.3498 23.3742 32.2936 23.343C33.3686 22.168 34.2186 20.7305 34.7748 19.2555L34.8748 18.9742H34.9998C35.6873 18.9742 36.2498 18.4117 36.2498 17.7242C36.2498 16.9805 35.6873 16.4742 34.9998 16.4742H31.2498V16.2242ZM9.99987 14.9742C10.4936 14.9742 10.9436 15.268 11.1436 15.718L15.1436 24.7179C15.4249 25.2929 15.1374 26.0867 14.5061 26.3679C13.8749 26.6492 13.1374 26.3617 12.8561 25.7304L12.2999 24.418H7.69988L7.14363 25.7304C6.86238 26.3617 6.12301 26.6492 5.49239 26.3679C4.86114 26.0867 4.57739 25.2929 4.85739 24.7179L8.85613 15.718C9.05613 15.268 9.50612 14.9742 9.99987 14.9742ZM8.75613 21.9742H11.1874L9.99987 19.2992L8.75613 21.9742Z" fill="#E84A4A"/>
<path d="M9.99997 19.2992L11.1875 21.9742H8.75623L9.99997 19.2992ZM0 12.7242C0 10.5149 1.79062 8.72424 3.99999 8.72424H19.9999V32.7242H3.99999C1.79062 32.7242 0 30.9304 0 28.7242V12.7242ZM8.85623 15.718L4.85749 24.7179C4.57749 25.2929 4.86124 26.0867 5.49249 26.3679C6.12311 26.6492 6.86248 26.3617 7.14373 25.7304L7.69998 24.418H12.3L12.8562 25.7304C13.1375 26.3617 13.875 26.6492 14.5062 26.3679C15.1375 26.0867 15.425 25.2929 15.1437 24.7179L11.1437 15.718C10.9437 15.268 10.4937 14.9742 9.99997 14.9742C9.50622 14.9742 9.05623 15.268 8.85623 15.718Z" fill="white"/>
</svg>
