<svg width="40" height="40" viewBox="0 0 40 40" fill="none" xmlns="http://www.w3.org/2000/svg">
<path d="M8 9H32C32.55 9 33 9.45 33 10V24H36V10C36 7.79375 34.2062 6 32 6H8C5.79375 6 4 7.79375 4 10V24H7V10C7 9.45 7.45 9 8 9ZM3.16875 29H36.8312C36.4188 30.1625 35.3063 31 34 31H6C4.69375 31 3.58125 30.1625 3.16875 29ZM2 26C0.89375 26 0 26.8937 0 28C0 31.3125 2.6875 34 6 34H34C37.3125 34 40 31.3125 40 28C40 26.8937 39.1063 26 38 26H2ZM17.5625 15.0625C18.15 14.475 18.15 13.525 17.5625 12.9438C16.975 12.3625 16.025 12.3563 15.4438 12.9438L12.4438 15.9438C11.8563 16.5312 11.8563 17.4812 12.4438 18.0625L15.4438 21.0625C16.0312 21.65 16.9813 21.65 17.5625 21.0625C18.1437 20.475 18.15 19.525 17.5625 18.9438L15.625 17.0063L17.5625 15.0688V15.0625ZM24.5625 12.9375C23.975 12.35 23.025 12.35 22.4438 12.9375C21.8625 13.525 21.8563 14.475 22.4438 15.0562L24.3813 16.9937L22.4438 18.9312C21.8563 19.5187 21.8563 20.4687 22.4438 21.05C23.0312 21.6312 23.9813 21.6375 24.5625 21.05L27.5625 18.05C28.15 17.4625 28.15 16.5125 27.5625 15.9312L24.5625 12.9312V12.9375Z" fill="#B3B3C3"/>
</svg>
