<svg width="40" height="40" viewBox="0 0 40 40" fill="current" xmlns="http://www.w3.org/2000/svg">
<path d="M4 10C4 7.79375 5.79375 6 8 6H32C34.2062 6 36 7.79375 36 10V26H32V10H8V26H4V10ZM0 29.2C0 28.5375 0.5375 28 1.2 28H38.8C39.4625 28 40 28.5375 40 29.2C40 31.85 37.85 34 35.2 34H4.8C2.15 34 0 31.85 0 29.2ZM17.5625 17.0625L15.625 19L17.5625 20.9375C18.15 21.525 18.15 22.475 17.5625 23.0562C16.975 23.6375 16.025 23.6437 15.4438 23.0562L12.4438 20.0562C11.8563 19.4688 11.8563 18.5188 12.4438 17.9375L15.4438 14.9375C16.0312 14.35 16.9813 14.35 17.5625 14.9375C18.1437 15.525 18.15 16.475 17.5625 17.0562V17.0625ZM24.5625 14.9375L27.5625 17.9375C28.15 18.525 28.15 19.475 27.5625 20.0562L24.5625 23.0562C23.975 23.6437 23.025 23.6437 22.4438 23.0562C21.8625 22.4688 21.8563 21.5188 22.4438 20.9375L24.3813 19L22.4438 17.0625C21.8563 16.475 21.8563 15.525 22.4438 14.9438C23.0312 14.3625 23.9813 14.3563 24.5625 14.9438V14.9375Z" fill="current"/>
</svg>
