<svg width="40" height="40" viewBox="0 0 40 40" fill="none" xmlns="http://www.w3.org/2000/svg">
<path d="M32 10H8V26H32V10ZM17.5625 16.0625L15.625 18L17.5625 19.9375C18.15 20.525 18.15 21.475 17.5625 22.0562C16.975 22.6375 16.025 22.6437 15.4438 22.0562L12.4438 19.0562C11.8563 18.4688 11.8563 17.5188 12.4438 16.9375L15.4438 13.9375C16.0312 13.35 16.9812 13.35 17.5625 13.9375C18.1438 14.525 18.15 15.475 17.5625 16.0562V16.0625ZM24.5625 13.9375L27.5625 16.9375C28.15 17.525 28.15 18.475 27.5625 19.0562L24.5625 22.0562C23.975 22.6437 23.025 22.6437 22.4438 22.0562C21.8625 21.4688 21.8563 20.5188 22.4438 19.9375L24.3813 18L22.4438 16.0625C21.8563 15.475 21.8563 14.525 22.4438 13.9438C23.0312 13.3625 23.9812 13.3563 24.5625 13.9438V13.9375Z" fill="#E84A4A"/>
<path d="M8 6C5.79375 6 4 7.79375 4 10V26H8V10H32V26H36V10C36 7.79375 34.2062 6 32 6H8ZM1.2 28C0.5375 28 0 28.5375 0 29.2C0 31.85 2.15 34 4.8 34H35.2C37.85 34 40 31.85 40 29.2C40 28.5375 39.4625 28 38.8 28H1.2Z" fill="#2D253F"/>
</svg>
