<svg width="40" height="40" viewBox="0 0 40 40" fill="none" xmlns="http://www.w3.org/2000/svg">
<path d="M1.87631 37.5009C1.71521 37.5009 1.5488 37.4789 1.38287 37.4349C0.386764 37.1639 -0.203865 36.1388 0.0648872 35.1396C0.113325 34.9618 5.05211 17.5007 25.6249 17.5007C26.6601 17.5007 27.4296 18.3406 27.4296 19.3757C27.4296 20.4109 26.5898 21.2508 25.6249 21.2508C7.98416 21.2508 3.85132 35.5087 3.68726 36.118C3.45522 36.8837 2.70131 37.5009 1.87631 37.5009Z" fill="#E84A4A"/>
<path d="M39.9999 12.9225C39.9999 22.9147 34.5265 31.3054 26.3045 34.0242C24.7389 34.6443 23.0365 34.9976 21.2506 34.9976C15.917 34.9976 11.3052 31.957 9.02394 27.5171C12.3544 24.2264 17.5709 21.2483 25.6256 21.2483C26.6608 21.2483 27.4303 20.4084 27.4303 19.3733C27.4303 18.3381 26.5905 17.4983 25.6256 17.4983C17.3599 17.4983 11.649 20.3272 7.73486 23.7124C7.58799 22.9147 7.50049 22.0944 7.50049 21.2506C7.50049 13.6561 13.6576 7.49273 21.2506 7.49273C22.3318 7.49273 23.3826 7.60296 24.3897 7.84281C28.6944 8.88422 33.6241 7.26398 36.0538 3.0584C36.4963 2.29051 37.6179 2.31496 37.9804 3.12311C39.2734 5.99741 39.9999 9.52399 39.9999 12.9225Z" fill="white"/>
</svg>
