<svg width="40" height="40" viewBox="0 0 40 40" fill="current" xmlns="http://www.w3.org/2000/svg">
<path d="M21.25 7.50295C15.1094 7.50295 9.91406 11.5264 8.14844 17.0733C10.7734 15.7451 13.7344 15.003 16.875 15.003H23.75C24.4375 15.003 25 15.5655 25 16.253C25 16.9405 24.4375 17.503 23.75 17.503H22.5H16.875C15.5781 17.503 14.3203 17.6514 13.1016 17.9248C11.0781 18.3858 9.20313 19.2061 7.52344 20.3233C2.99219 23.3467 0 28.5108 0 34.378V35.628C0 36.667 0.835937 37.503 1.875 37.503C2.91406 37.503 3.75 36.667 3.75 35.628V34.378C3.75 30.5733 5.36719 27.1514 7.95313 24.753C9.5 30.6514 14.8672 35.003 21.25 35.003H21.3281C31.6484 34.9483 40 24.7764 40 12.2373C40 8.9092 39.4141 5.74514 38.3516 2.89358C38.1484 2.35451 37.3594 2.37795 37.0859 2.88576C35.6172 5.63576 32.7109 7.50295 29.375 7.50295H21.25Z" fill="current"/>
</svg>
