<svg width="40" height="40" viewBox="0 0 40 40" fill="none" xmlns="http://www.w3.org/2000/svg">
<path d="M11.6875 18.3155C13.3203 17.792 15.0625 17.503 16.875 17.503H23.125C24.1641 17.503 25 18.3389 25 19.378C25 20.417 24.1641 21.253 23.125 21.253H16.875C14.8906 21.253 13.0078 21.6905 11.3281 22.4795C11.9297 27.4248 16.1406 31.253 21.2422 31.253H21.25H21.3125H21.3203C28.9219 31.2139 36.25 23.417 36.25 12.2373C36.25 11.2373 36.1875 10.2608 36.0703 9.30764C34.1406 10.542 31.8438 11.253 29.375 11.253H21.25C16.75 11.253 12.9453 14.2295 11.6875 18.3155ZM7.53125 20.3233C8.00781 13.167 13.9688 7.50295 21.25 7.50295H29.375C31.6172 7.50295 33.6563 6.6592 35.2031 5.27639C35.2578 5.22951 35.3125 5.17483 35.3672 5.12795C35.8828 4.64358 36.3438 4.0967 36.7266 3.49514C36.8516 3.29983 36.9766 3.0967 37.0859 2.88576C37.3594 2.37795 38.1484 2.35451 38.3516 2.89358C38.4531 3.16701 38.5469 3.44045 38.6406 3.7217C38.8672 4.41701 39.0703 5.12014 39.25 5.8467C39.2891 5.99514 39.3203 6.14358 39.3516 6.2842C39.7734 8.18264 40 10.1748 40 12.2373C40 24.7764 31.6484 34.9483 21.3281 35.003H21.25C14.8672 35.003 9.5 30.6514 7.95313 24.753C5.36719 27.1514 3.75 30.5733 3.75 34.378V35.628C3.75 36.667 2.91406 37.503 1.875 37.503C0.835937 37.503 0 36.667 0 35.628V34.378C0 28.5108 2.99219 23.3467 7.53125 20.3233Z" fill="#B3B3C3"/>
</svg>
