<svg width="56" height="49" viewBox="0 0 56 49" fill="none" xmlns="http://www.w3.org/2000/svg">
<path d="M3.02086 48.6209C2.79994 48.6209 2.57173 48.5907 2.34417 48.5305C0.97815 48.1588 0.168181 46.753 0.536738 45.3827C0.603164 45.1389 7.37605 21.1934 35.5889 21.1934C37.0085 21.1934 38.0638 22.3451 38.0638 23.7647C38.0638 25.1843 36.9121 26.336 35.5889 26.336C11.397 26.336 5.72932 45.8888 5.50433 46.7245C5.18613 47.7745 4.15224 48.6209 3.02086 48.6209Z" fill="#E84A4A"/>
<path d="M55.3025 14.9151C55.3025 28.6181 47.7964 40.1248 36.5211 43.8533C34.374 44.7037 32.0395 45.1882 29.5903 45.1882C22.2759 45.1882 15.9515 41.0184 12.8231 34.9297C17.3904 30.417 24.5441 26.3329 35.5901 26.3329C37.0097 26.3329 38.065 25.1811 38.065 23.7615C38.065 22.3419 36.9132 21.1902 35.5901 21.1902C24.2548 21.1902 16.423 25.0697 11.0553 29.712C10.8539 28.6181 10.7339 27.4932 10.7339 26.3361C10.7339 15.9211 19.1775 7.46896 29.5903 7.46896C31.0731 7.46896 32.5141 7.62013 33.8951 7.94905C39.7985 9.37721 46.5589 7.15526 49.8909 1.38787C50.4978 0.334809 52.0359 0.368343 52.533 1.47661C54.3061 5.41832 55.3025 10.2546 55.3025 14.9151Z" fill="#2D253F"/>
</svg>
