<svg width="40" height="41" viewBox="0 0 40 41" fill="none" xmlns="http://www.w3.org/2000/svg">
<path d="M37.2128 21.4647C40.9291 17.7484 40.9291 11.7243 37.2128 8.00796C33.675 4.47019 27.9947 4.27842 24.2255 7.57814L23.8221 7.93522C23.1609 8.51052 23.0947 9.51565 23.67 10.1769C24.2453 10.8382 25.2505 10.9043 25.9117 10.329L26.3151 9.97192C28.8279 7.77652 32.6104 7.90216 34.9711 10.2629C37.4442 12.736 37.4442 16.7499 34.9711 19.2297L27.4789 26.7152C25.0058 29.1883 20.9853 29.1883 18.5122 26.7152C16.1514 24.3545 16.0258 20.572 18.2212 18.0592L18.532 17.7021C19.1073 17.0409 19.0412 16.0423 18.3799 15.4604C17.7186 14.8785 16.7201 14.9513 16.1382 15.6125L15.8274 15.9696C12.5343 19.7388 12.7261 25.4191 16.2638 28.9569C19.9802 32.6732 26.0043 32.6732 29.7206 28.9569L37.2128 21.4647ZM2.78724 19.9835C-0.929079 23.6998 -0.929079 29.7239 2.78724 33.4403C6.33163 36.9847 12.0119 37.1698 15.7811 33.8701L16.1845 33.513C16.8458 32.9377 16.9119 31.9326 16.3366 31.2713C15.7613 30.61 14.7562 30.5439 14.0949 31.1192L13.6915 31.4763C11.1787 33.6717 7.39626 33.5461 5.03554 31.1853C2.56241 28.7122 2.56241 24.6983 5.03554 22.2186L12.5277 14.733C15.0008 12.2599 19.0147 12.2599 21.4945 14.733C23.8552 17.0938 23.9808 20.8762 21.7854 23.389L21.4283 23.7924C20.853 24.4537 20.9192 25.4522 21.5804 26.0341C22.2417 26.616 23.2402 26.5433 23.8221 25.882L24.1792 25.4786C27.4789 21.7094 27.2872 16.0291 23.7494 12.4847C20.0331 8.76842 14.0089 8.76842 10.2926 12.4847L2.78724 19.9835Z" fill="#B3B3C3"/>
</svg>
