<svg width="40" height="41" viewBox="0 0 40 41" fill="current" xmlns="http://www.w3.org/2000/svg">
<path d="M37.1953 21.4997C40.9349 17.7601 40.9349 11.704 37.1953 7.96449C33.886 4.65515 28.6705 4.22493 24.8647 6.94521L24.7588 7.01802C23.8057 7.69974 23.5873 9.02348 24.2691 9.96995C24.9508 10.9164 26.2745 11.1415 27.221 10.4597L27.3269 10.3869C29.4515 8.87125 32.3571 9.10952 34.1971 10.9561C36.282 13.041 36.282 16.4165 34.1971 18.5014L26.7709 25.9408C24.686 28.0257 21.3105 28.0257 19.2256 25.9408C17.379 24.0942 17.1407 21.1886 18.6564 19.0706L18.7292 18.9647C19.4109 18.0116 19.1859 16.6879 18.2394 16.0128C17.293 15.3377 15.9626 15.5561 15.2875 16.5026L15.2147 16.6085C12.4878 20.4076 12.918 25.6231 16.2274 28.9325C19.9669 32.672 26.023 32.672 29.7626 28.9325L37.1953 21.4997ZM2.80467 19.9509C-0.934889 23.6905 -0.934889 29.7466 2.80467 33.4861C6.11401 36.7955 11.3295 37.2257 15.1353 34.5054L15.2412 34.4326C16.1943 33.7509 16.4127 32.4271 15.731 31.4807C15.0492 30.5342 13.7255 30.3092 12.779 30.9909L12.6731 31.0637C10.5485 32.5794 7.64292 32.3411 5.80293 30.4945C3.71804 28.403 3.71804 25.0274 5.80293 22.9426L13.2291 15.5098C15.314 13.4249 18.6895 13.4249 20.7744 15.5098C22.621 17.3564 22.8593 20.262 21.3436 22.3866L21.2708 22.4925C20.5891 23.4456 20.8141 24.7693 21.7606 25.4444C22.707 26.1195 24.0374 25.9011 24.7125 24.9546L24.7853 24.8487C27.5122 21.043 27.082 15.8275 23.7726 12.5181C20.0331 8.77858 13.977 8.77858 10.2374 12.5181L2.80467 19.9509Z" fill="current"/>
</svg>
