<svg width="40" height="41" viewBox="0 0 40 41" fill="none" xmlns="http://www.w3.org/2000/svg">
<path d="M2.80328 33.4867C-0.934427 29.747 -0.934427 23.6839 2.80328 19.9508L10.2358 12.458C13.916 8.77848 20.032 8.77848 23.7122 12.458C27.0217 15.7675 27.5115 21.0429 24.7911 24.8489L24.7183 24.9548C24.0365 25.9013 22.7127 26.1263 21.7662 25.4446C20.813 24.7628 20.588 23.439 21.2698 22.4925L21.3426 22.3866C22.8583 20.2619 22.62 17.3561 20.7733 15.5094C18.6949 13.431 15.3126 13.431 13.2276 15.5094L5.80105 22.9426C3.71539 24.968 3.71539 28.4033 5.80105 30.4883C7.64114 32.335 10.5535 32.5733 12.6716 31.0575L12.7775 30.9251C13.7307 30.303 15.0545 30.5214 15.7296 31.4745C16.4114 32.4277 16.1929 33.7515 15.2398 34.4332L15.1339 34.5061C11.2684 37.2265 6.11214 36.7896 2.80328 33.4867Z" fill="#2D253F"/>
<path d="M37.195 7.96631C40.9348 11.7034 40.9348 17.7665 37.195 21.4996L29.7618 28.9328C26.0221 32.6726 19.9656 32.6726 16.2259 28.9328C12.9163 25.6233 12.4861 20.4075 15.2065 16.6015L15.2793 16.4956C15.9015 15.5491 17.2253 15.324 18.2314 16.0058C19.1846 16.628 19.4096 17.9518 18.7279 18.9579L18.6551 19.0638C17.1393 21.1289 17.3776 24.0943 19.2243 25.941C21.3027 28.0194 24.685 28.0194 26.77 25.941L34.1966 18.5078C36.2816 16.4228 36.2816 12.9875 34.1966 10.9621C32.3565 9.11736 29.4441 8.87643 27.326 10.3929L27.2201 10.4657C26.267 11.1474 24.9432 10.8694 24.268 9.97453C23.5862 9.02271 23.8047 7.69956 24.7578 7.01978L24.8637 6.94565C28.6697 4.22595 33.8855 4.65745 37.195 7.96631Z" fill="#E84A4A"/>
</svg>
