<svg width="40" height="40" viewBox="0 0 40 40" fill="current" xmlns="http://www.w3.org/2000/svg">
<path d="M11.8856 3.61031C12.6589 4.30556 12.7214 5.48513 12.0262 6.25849L6.40172 12.5079C6.058 12.8907 5.57367 13.1172 5.0581 13.125C4.54253 13.1328 4.05039 12.9375 3.68323 12.5782L0.550727 9.45349C-0.183576 8.71919 -0.183576 7.5318 0.550727 6.80531C1.28503 6.07882 2.47241 6.07101 3.19891 6.80531L4.9253 8.53171L9.22957 3.75092C9.92481 2.97756 11.1044 2.91507 11.8777 3.61031H11.8856ZM11.8856 16.1091C12.6589 16.8043 12.7214 17.9839 12.0262 18.7573L6.40172 25.0067C6.058 25.3894 5.57367 25.616 5.0581 25.6238C4.54253 25.6316 4.05039 25.4363 3.68323 25.077L0.550727 21.9523C-0.183576 21.218 -0.183576 20.0306 0.550727 19.3041C1.28503 18.5776 2.47241 18.5698 3.19891 19.3041L4.9253 21.0305L9.22957 16.2497C9.92481 15.4763 11.1044 15.4138 11.8777 16.1091H11.8856ZM17.5022 8.1255C17.5022 6.74282 18.6193 5.62574 20.002 5.62574H37.5002C38.8829 5.62574 40 6.74282 40 8.1255C40 9.50817 38.8829 10.6253 37.5002 10.6253H20.002C18.6193 10.6253 17.5022 9.50817 17.5022 8.1255ZM17.5022 20.6243C17.5022 19.2416 18.6193 18.1245 20.002 18.1245H37.5002C38.8829 18.1245 40 19.2416 40 20.6243C40 22.007 38.8829 23.124 37.5002 23.124H20.002C18.6193 23.124 17.5022 22.007 17.5022 20.6243ZM12.5027 33.1231C12.5027 31.7404 13.6198 30.6233 15.0024 30.6233H37.5002C38.8829 30.6233 40 31.7404 40 33.1231C40 34.5057 38.8829 35.6228 37.5002 35.6228H15.0024C13.6198 35.6228 12.5027 34.5057 12.5027 33.1231ZM3.75354 36.8727C1.68343 36.8727 0.00390585 35.1932 0.00390585 33.1231C0.00390585 31.0529 1.68343 29.3734 3.75354 29.3734C5.82365 29.3734 7.50317 31.0529 7.50317 33.1231C7.50317 35.1932 5.82365 36.8727 3.75354 36.8727Z" fill="current"/>
</svg>
