<svg width="40" height="40" viewBox="0 0 40 40" fill="none" xmlns="http://www.w3.org/2000/svg">
<path d="M6.39375 12.508C6.04922 12.883 5.56328 13.1095 5.04922 13.0548C4.53516 13.1408 4.03828 12.9376 3.67422 12.508L0.549141 9.38295C-0.183047 8.71889 -0.183047 7.53139 0.549141 6.79936C1.28125 6.06732 2.46875 6.06732 3.20078 6.79936L4.92813 8.52357L9.23438 3.74545C9.92188 2.97592 11.1094 2.91342 11.8828 3.60639C12.6484 4.29936 12.7109 5.48451 12.0156 6.25482L6.39375 12.508ZM6.39375 25.0079C6.04922 25.3829 5.56328 25.6095 5.04922 25.5548C4.53516 25.6408 4.03828 25.4376 3.67422 25.0079L0.549141 21.883C-0.183047 21.2189 -0.183047 20.0314 0.549141 19.297C1.28125 18.5705 2.46875 18.5705 3.20078 19.297L4.92813 21.0236L9.23438 16.2423C9.92188 15.4767 11.1094 15.4142 11.8828 16.1095C12.6484 16.797 12.7109 17.9845 12.0156 18.758L6.39375 25.0079ZM0 33.1251C0 31.0548 1.67891 29.3751 3.75 29.3751C5.82109 29.3751 7.5 31.0548 7.5 33.1251C7.5 35.1954 5.82109 36.8751 3.75 36.8751C1.67891 36.8751 0 35.1954 0 33.1251Z" fill="#E84A4A"/>
<path d="M15 30.6251H37.5C38.8828 30.6251 40 31.7423 40 33.1251C40 34.5079 38.8828 35.6251 37.5 35.6251H15C13.6172 35.6251 12.5 34.5079 12.5 33.1251C12.5 31.7423 13.6172 30.6251 15 30.6251ZM20 18.1251H37.5C38.8828 18.1251 40 19.2423 40 20.6251C40 22.0079 38.8828 23.1251 37.5 23.1251H20C18.6172 23.1251 17.5 22.0079 17.5 20.6251C17.5 19.2423 18.6172 18.1251 20 18.1251ZM20 10.6251C18.6172 10.6251 17.5 9.50793 17.5 8.12512C17.5 6.74465 18.6172 5.62512 20 5.62512H37.5C38.8828 5.62512 40 6.74465 40 8.12512C40 9.50793 38.8828 10.6251 37.5 10.6251H20Z" fill="#2D253F"/>
</svg>
