<svg width="41" height="40" viewBox="0 0 41 40" fill="none" xmlns="http://www.w3.org/2000/svg">
<g clip-path="url(#clip0_2930_46698)">
<path d="M12.0195 6.88215C12.7148 6.10871 12.6523 4.92902 11.8789 4.23371C11.1055 3.5384 9.92578 3.6009 9.23047 4.37434L4.93359 9.14777L3.20703 7.42121C2.47266 6.69465 1.28516 6.69465 0.550781 7.42121C-0.183594 8.14777 -0.183594 9.34309 0.550781 10.0696L3.67578 13.1946C4.04297 13.5618 4.53516 13.7571 5.05078 13.7415C5.56641 13.7259 6.05078 13.5071 6.39453 13.1243L12.0195 6.87434V6.88215ZM12.0195 19.3821C12.7148 18.6087 12.6523 17.429 11.8789 16.7337C11.1055 16.0384 9.92578 16.1009 9.23047 16.8743L4.93359 21.6478L3.20703 19.9212C2.47266 19.1868 1.28516 19.1868 0.558594 19.9212C-0.167969 20.6556 -0.175781 21.8431 0.558594 22.5696L3.68359 25.6946C4.05078 26.0618 4.54297 26.2571 5.05859 26.2415C5.57422 26.2259 6.05859 26.0071 6.40234 25.6243L12.0273 19.3743L12.0195 19.3821ZM16.8789 10.6243H38.1289C39.168 10.6243 40.0039 9.7884 40.0039 8.74934C40.0039 7.71027 39.168 6.87434 38.1289 6.87434H16.8789C15.8398 6.87434 15.0039 7.71027 15.0039 8.74934C15.0039 9.7884 15.8398 10.6243 16.8789 10.6243ZM15.0039 21.2493C15.0039 22.2884 15.8398 23.1243 16.8789 23.1243H38.1289C39.168 23.1243 40.0039 22.2884 40.0039 21.2493C40.0039 20.2103 39.168 19.3743 38.1289 19.3743H16.8789C15.8398 19.3743 15.0039 20.2103 15.0039 21.2493ZM12.5039 33.7493C12.5039 34.7884 13.3398 35.6243 14.3789 35.6243H38.1289C39.168 35.6243 40.0039 34.7884 40.0039 33.7493C40.0039 32.7103 39.168 31.8743 38.1289 31.8743H14.3789C13.3398 31.8743 12.5039 32.7103 12.5039 33.7493ZM7.50391 33.7493C7.50391 33.0863 7.24051 32.4504 6.77167 31.9816C6.30283 31.5127 5.66695 31.2493 5.00391 31.2493C4.34087 31.2493 3.70498 31.5127 3.23614 31.9816C2.7673 32.4504 2.50391 33.0863 2.50391 33.7493C2.50391 34.4124 2.7673 35.0483 3.23614 35.5171C3.70498 35.9859 4.34087 36.2493 5.00391 36.2493C5.66695 36.2493 6.30283 35.9859 6.77167 35.5171C7.24051 35.0483 7.50391 34.4124 7.50391 33.7493Z" fill="#B3B3C3"/>
</g>
<defs>
<clipPath id="clip0_2930_46698">
<rect width="40.0039" height="40" fill="white"/>
</clipPath>
</defs>
</svg>
