<svg width="40" height="40" viewBox="0 0 40 40" fill="none" xmlns="http://www.w3.org/2000/svg">
<path d="M31.25 15.0518C31.25 8.84082 26.2109 3.80176 20 3.80176C13.7891 3.80176 8.75 8.84082 8.75 15.0518C8.75 16.0205 9.10156 17.5205 9.94531 19.5205C10.7656 21.458 11.9297 23.5986 13.2656 25.7627C15.4922 29.3721 18.0703 32.8564 20 35.3408C21.9375 32.8564 24.5156 29.3721 26.7344 25.7627C28.0703 23.5986 29.2344 21.458 30.0547 19.5205C30.8984 17.5205 31.25 16.0205 31.25 15.0518ZM35 15.0518C35 21.8799 25.8594 34.0361 21.8516 39.0518C20.8906 40.2471 19.1094 40.2471 18.1484 39.0518C14.1406 34.0361 5 21.8799 5 15.0518C5 6.77051 11.7188 0.0517578 20 0.0517578C28.2812 0.0517578 35 6.77051 35 15.0518ZM28.8281 13.2549L18.8281 23.2549C18.0938 23.9893 16.9063 23.9893 16.1797 23.2549L11.1719 18.2549C10.4375 17.5205 10.4375 16.333 11.1719 15.6064C11.9062 14.8799 13.0938 14.8721 13.8203 15.6064L17.4922 19.2783L26.1719 10.5986C26.9062 9.86426 28.0937 9.86426 28.8203 10.5986C29.5469 11.333 29.5547 12.5205 28.8203 13.2471L28.8281 13.2549Z" fill="#B3B3C3"/>
</svg>
