<svg width="40" height="40" viewBox="0 0 40 40" fill="none" xmlns="http://www.w3.org/2000/svg">
<path d="M27.5076 9.97363C28.3045 10.708 28.3045 11.8955 27.5076 12.5596L18.7576 21.3096C18.0936 22.1064 16.9061 22.1064 16.1717 21.3096L11.799 16.9346C11.067 16.2705 11.067 15.083 11.799 14.3486C12.5311 13.6221 13.7186 13.6221 14.3826 14.3486L17.4998 17.4033L24.9217 9.97363C25.6561 9.24707 26.8436 9.24707 27.5076 9.97363Z" fill="#E84A4A"/>
<path d="M18.1484 39.0518C14.0703 34.0361 5 21.8799 5 15.0518C5 6.76738 11.7156 0.0517578 20 0.0517578C28.2812 0.0517578 35 6.76738 35 15.0518C35 21.8799 25.8594 34.0361 21.8516 39.0518C20.8906 40.2471 19.1094 40.2471 18.1484 39.0518ZM27.5078 12.5596C28.3047 11.8955 28.3047 10.708 27.5078 9.97363C26.8438 9.24707 25.6562 9.24707 24.9219 9.97363L17.5 17.4033L14.3828 14.3486C13.7188 13.6221 12.5312 13.6221 11.7992 14.3486C11.0672 15.083 11.0672 16.2705 11.7992 16.9346L16.1719 21.3096C16.9062 22.1064 18.0938 22.1064 18.7578 21.3096L27.5078 12.5596Z" fill="#2D253F"/>
</svg>
