<svg width="40" height="36" viewBox="0 0 40 36" fill="none" xmlns="http://www.w3.org/2000/svg">
<path d="M21.0276 22.1515C23.2568 19.3668 28.3332 12.6099 28.3332 8.8182C28.3332 4.21403 24.604 0.484863 19.9998 0.484863C15.3957 0.484863 11.6665 4.21403 11.6665 8.8182C11.6665 12.6099 16.7429 19.3668 18.9721 22.1515C19.5068 22.8182 20.4998 22.8182 21.0276 22.1515ZM19.9998 5.48486C20.7365 5.48486 21.4431 5.77752 21.964 6.29846C22.485 6.81939 22.7776 7.52593 22.7776 8.26264C22.7776 8.99935 22.485 9.70589 21.964 10.2268C21.4431 10.7478 20.7365 11.0404 19.9998 11.0404C19.2631 11.0404 18.5566 10.7478 18.0357 10.2268C17.5147 9.70589 17.2221 8.99935 17.2221 8.26264C17.2221 7.52593 17.5147 6.81939 18.0357 6.29846C18.5566 5.77752 19.2631 5.48486 19.9998 5.48486Z" fill="#E84A4A"/>
<path d="M28.8889 35.4154V14.4015C29.1319 13.9224 29.3542 13.4432 29.5556 12.971C29.5903 12.8876 29.625 12.7974 29.6597 12.714L37.7153 9.49181C38.8125 9.05431 40 9.85986 40 11.0404V29.846C40 30.5265 39.5833 31.1376 38.9514 31.3946L28.8889 35.4154ZM1.04861 13.4918L9.5625 10.089C9.72917 11.0682 10.0625 12.0543 10.4514 12.971C10.6528 13.4432 10.875 13.9224 11.1181 14.4015V31.8599L2.28472 35.3946C1.1875 35.8321 0 35.0265 0 33.846V15.0404C0 14.3599 0.416667 13.7488 1.04861 13.4918ZM26.6667 18.1932V35.5057L13.3333 31.6932V18.1932C14.7569 20.3668 16.2708 22.3321 17.2361 23.5404C18.6597 25.3182 21.3403 25.3182 22.7639 23.5404C23.7292 22.3321 25.2431 20.3668 26.6667 18.1932Z" fill="#2D253F"/>
</svg>
