<svg width="40" height="40" viewBox="0 0 40 40" fill="none" xmlns="http://www.w3.org/2000/svg">
<path d="M21.8516 39.0518C25.8594 34.0361 35 21.8799 35 15.0518C35 6.77051 28.2812 0.0517578 20 0.0517578C11.7188 0.0517578 5 6.77051 5 15.0518C5 21.8799 14.1406 34.0361 18.1484 39.0518C19.1094 40.2471 20.8906 40.2471 21.8516 39.0518ZM28.8281 11.3799L18.8281 21.3799C18.0938 22.1143 16.9063 22.1143 16.1797 21.3799L11.1719 16.3799C10.4375 15.6455 10.4375 14.458 11.1719 13.7314C11.9062 13.0049 13.0938 12.9971 13.8203 13.7314L17.4922 17.4033L26.1719 8.72363C26.9062 7.98926 28.0938 7.98926 28.8203 8.72363C29.5469 9.45801 29.5547 10.6455 28.8203 11.3721L28.8281 11.3799Z" fill="#2D253F"/>
</svg>
