<svg width="41" height="40" viewBox="0 0 41 40" fill="none" xmlns="http://www.w3.org/2000/svg">
<g clip-path="url(#clip0_2174_40363)">
<path d="M27.6637 15.5562C30.1151 15.5562 32.1082 17.5492 32.1082 20.0006V33.3339C32.1082 35.7853 30.1151 37.7784 27.6637 37.7784H5.44151C2.98665 37.7784 0.99707 35.7853 0.99707 33.3339V20.0006C0.99707 17.5492 2.98665 15.5562 5.44151 15.5562H27.6637ZM18.7748 28.8895C20.004 28.8895 20.9971 27.8964 20.9971 26.6673C20.9971 25.4381 20.004 24.445 18.7748 24.445H14.3304C13.1012 24.445 12.1082 25.4381 12.1082 26.6673C12.1082 27.8964 13.1012 28.8895 14.3304 28.8895H18.7748Z" fill="#2D253F"/>
<path d="M30.9941 6.66588C27.9247 6.66588 25.4386 9.15338 25.4386 12.2214V15.5548H20.9941V12.2214C20.9941 6.69852 25.4733 2.22144 30.9941 2.22144C36.515 2.22144 40.9941 6.69852 40.9941 12.2214V15.5548C40.9941 16.7839 40.0011 17.777 38.7719 17.777C37.5428 17.777 36.5497 16.7839 36.5497 15.5548V12.2214C36.5497 9.15338 34.0636 6.66588 30.9941 6.66588Z" fill="#E84A4A"/>
</g>
<defs>
<clipPath id="clip0_2174_40363">
<rect width="39.9969" height="40" fill="white" transform="translate(0.99707)"/>
</clipPath>
</defs>
</svg>
