<svg width="35" height="40" viewBox="0 0 35 40" fill="none" xmlns="http://www.w3.org/2000/svg">
<g clip-path="url(#clip0_2930_46755)">
<path d="M17.5 3.75C20.9531 3.75 23.75 6.54687 23.75 10V15H11.25V10C11.25 6.54687 14.0469 3.75 17.5 3.75ZM7.5 10V15H5C2.24219 15 0 17.2422 0 20V35C0 37.7578 2.24219 40 5 40H30C32.7578 40 35 37.7578 35 35V20C35 17.2422 32.7578 15 30 15H27.5V10C27.5 4.47656 23.0234 0 17.5 0C11.9766 0 7.5 4.47656 7.5 10ZM5 18.75H30C30.6875 18.75 31.25 19.3125 31.25 20V35C31.25 35.6875 30.6875 36.25 30 36.25H5C4.3125 36.25 3.75 35.6875 3.75 35V20C3.75 19.3125 4.3125 18.75 5 18.75ZM19.375 25C19.375 23.9609 18.5391 23.125 17.5 23.125C16.4609 23.125 15.625 23.9609 15.625 25V30C15.625 31.0391 16.4609 31.875 17.5 31.875C18.5391 31.875 19.375 31.0391 19.375 30V25Z" fill="#B3B3C3"/>
</g>
<defs>
<clipPath id="clip0_2930_46755">
<rect width="35" height="40" fill="white"/>
</clipPath>
</defs>
</svg>
