<svg width="40" height="40" viewBox="0 0 40 40" fill="none" xmlns="http://www.w3.org/2000/svg">
<g clip-path="url(#clip0_2174_40358)">
<path d="M26.6667 15.5562C29.1181 15.5562 31.1111 17.5492 31.1111 20.0006V33.3339C31.1111 35.7853 29.1181 37.7784 26.6667 37.7784H4.44444C1.98958 37.7784 0 35.7853 0 33.3339V20.0006C0 17.5492 1.98958 15.5562 4.44444 15.5562H26.6667ZM17.7778 28.8895C19.0069 28.8895 20 27.8964 20 26.6673C20 25.4381 19.0069 24.445 17.7778 24.445H13.3333C12.1042 24.445 11.1111 25.4381 11.1111 26.6673C11.1111 27.8964 12.1042 28.8895 13.3333 28.8895H17.7778Z" fill="white"/>
<path d="M29.9971 6.66588C26.9276 6.66588 24.4415 9.15338 24.4415 12.2214V15.5548H19.9971V12.2214C19.9971 6.69852 24.4762 2.22144 29.9971 2.22144C35.5179 2.22144 39.9971 6.69852 39.9971 12.2214V15.5548C39.9971 16.7839 39.004 17.777 37.7748 17.777C36.5457 17.777 35.5526 16.7839 35.5526 15.5548V12.2214C35.5526 9.15338 33.0665 6.66588 29.9971 6.66588Z" fill="#E84A4A"/>
</g>
<defs>
<clipPath id="clip0_2174_40358">
<rect width="39.9969" height="40" fill="white"/>
</clipPath>
</defs>
</svg>
