<svg width="40" height="40" viewBox="0 0 40 40" fill="none" xmlns="http://www.w3.org/2000/svg">
<g clip-path="url(#clip0_2930_46759)">
<path d="M30.9937 5.5555C27.9242 5.5555 25.4381 8.04161 25.4381 11.1111V15.5555H27.6603C30.1117 15.5555 32.1048 17.5486 32.1048 19.9999V33.3333C32.1048 35.7847 30.1117 37.7777 27.6603 37.7777H5.4381C2.98671 37.7777 0.993652 35.7847 0.993652 33.3333V19.9999C0.993652 17.5486 2.98671 15.5555 5.4381 15.5555H22.1048V11.1111C22.1048 6.20134 26.0839 2.22217 30.9937 2.22217C35.9034 2.22217 39.8825 6.20134 39.8825 11.1111V16.1111C39.8825 17.0347 39.1395 17.7777 38.2159 17.7777C37.2923 17.7777 36.5492 17.0347 36.5492 16.1111V11.1111C36.5492 8.04161 34.0631 5.5555 30.9937 5.5555ZM27.6603 18.8888H5.4381C4.82699 18.8888 4.32699 19.3888 4.32699 19.9999V33.3333C4.32699 33.9444 4.82699 34.4444 5.4381 34.4444H27.6603C28.2714 34.4444 28.7714 33.9444 28.7714 33.3333V19.9999C28.7714 19.3888 28.2714 18.8888 27.6603 18.8888ZM18.7714 28.3333H14.327C13.4034 28.3333 12.6603 27.5902 12.6603 26.6666C12.6603 25.743 13.4034 24.9999 14.327 24.9999H18.7714C19.695 24.9999 20.4381 25.743 20.4381 26.6666C20.4381 27.5902 19.695 28.3333 18.7714 28.3333Z" fill="#B3B3C3"/>
</g>
<defs>
<clipPath id="clip0_2930_46759">
<rect width="38.8889" height="40" fill="white" transform="translate(0.993652)"/>
</clipPath>
</defs>
</svg>
