<svg width="40" height="40" viewBox="0 0 40 40" fill="none" xmlns="http://www.w3.org/2000/svg">
<path d="M32.5 15C35.2578 15 37.5 17.2422 37.5 20V35C37.5 37.7578 35.2578 40 32.5 40H7.5C4.73828 40 2.5 37.7578 2.5 35V20C2.5 17.2422 4.73828 15 7.5 15H32.5ZM22.5 25C22.5 23.6172 21.3828 22.5 20 22.5C18.6172 22.5 17.5 23.6172 17.5 25V30C17.5 31.3828 18.6172 32.5 20 32.5C21.3828 32.5 22.5 31.3828 22.5 30V25Z" fill="white"/>
<path d="M20 5C16.5469 5 13.75 7.79844 13.75 11.25V15H8.75V11.25C8.75 5.03672 13.7891 0 20 0C26.2109 0 31.25 5.03672 31.25 11.25V15H26.25V11.25C26.25 7.79844 23.4531 5 20 5Z" fill="#E84A4A"/>
</svg>
