<svg width="40" height="40" viewBox="0 0 40 40" fill="current" xmlns="http://www.w3.org/2000/svg">
<path d="M30 6.66661C26.9306 6.66661 24.4444 9.15272 24.4444 12.2222V15.5555H26.6667C29.1181 15.5555 31.1111 17.5486 31.1111 19.9999V33.3333C31.1111 35.7847 29.1181 37.7777 26.6667 37.7777H4.44444C1.99306 37.7777 0 35.7847 0 33.3333V19.9999C0 17.5486 1.99306 15.5555 4.44444 15.5555H20V12.2222C20 6.70133 24.4792 2.22217 30 2.22217C35.5208 2.22217 40 6.70133 40 12.2222V15.5555C40 16.7847 39.0069 17.7777 37.7778 17.7777C36.5486 17.7777 35.5556 16.7847 35.5556 15.5555V12.2222C35.5556 9.15272 33.0694 6.66661 30 6.66661ZM17.7778 28.8888C19.0069 28.8888 20 27.8958 20 26.6666C20 25.4374 19.0069 24.4444 17.7778 24.4444H13.3333C12.1042 24.4444 11.1111 25.4374 11.1111 26.6666C11.1111 27.8958 12.1042 28.8888 13.3333 28.8888H17.7778Z" fill="current"/>
</svg>
