<svg width="40" height="40" viewBox="0 0 40 40" fill="current" xmlns="http://www.w3.org/2000/svg">
<path d="M20 5C23.4531 5 26.25 7.79688 26.25 11.25V15H13.75V11.25C13.75 7.79688 16.5469 5 20 5ZM8.75 11.25V15H7.5C4.74219 15 2.5 17.2422 2.5 20V35C2.5 37.7578 4.74219 40 7.5 40H32.5C35.2578 40 37.5 37.7578 37.5 35V20C37.5 17.2422 35.2578 15 32.5 15H31.25V11.25C31.25 5.03906 26.2109 0 20 0C13.7891 0 8.75 5.03906 8.75 11.25ZM22.5 25V30C22.5 31.3828 21.3828 32.5 20 32.5C18.6172 32.5 17.5 31.3828 17.5 30V25C17.5 23.6172 18.6172 22.5 20 22.5C21.3828 22.5 22.5 23.6172 22.5 25Z" fill="current"/>
</svg>
