<svg width="40" height="41" viewBox="0 0 40 41" fill="current" xmlns="http://www.w3.org/2000/svg">
<path d="M32.4991 16.9717C32.4991 20.5572 31.3353 23.8692 29.3746 26.5563L39.2638 36.4533C40.2402 37.4297 40.2402 39.0154 39.2638 39.9918C38.2874 40.9682 36.7017 40.9682 35.7252 39.9918L25.8361 30.0948C23.149 32.0633 19.8369 33.2194 16.2515 33.2194C7.27628 33.2194 0.00390625 25.947 0.00390625 16.9717C0.00390625 7.99649 7.27628 0.724121 16.2515 0.724121C25.2268 0.724121 32.4991 7.99649 32.4991 16.9717ZM16.2515 28.2201C22.4616 28.2201 27.4999 23.1818 27.4999 16.9717C27.4999 10.7617 22.4616 5.72339 16.2515 5.72339C10.0415 5.72339 5.00317 10.7617 5.00317 16.9717C5.00317 23.1818 10.0415 28.2201 16.2515 28.2201Z" fill="current"/>
</svg>
