<svg width="40" height="41" viewBox="0 0 40 41" fill="none" xmlns="http://www.w3.org/2000/svg">
<path d="M39.0864 35.3892L29.7346 26.0374C28.5603 27.7796 27.058 29.2828 25.3149 30.457L34.6668 39.8088C35.8871 41.0292 37.8661 41.0292 39.0864 39.8088C40.3052 38.5924 40.3052 36.608 39.0864 35.3892Z" fill="#E84A4A"/>
<path d="M16.1792 0.724121C7.27425 0.724121 -0.000976562 8.00012 -0.000976562 16.9746C-0.000976562 25.9491 7.27425 33.2251 16.1792 33.2251C25.0841 33.2251 32.4297 25.9491 32.4297 16.9746C32.4297 8.00012 25.2263 0.724121 16.1792 0.724121ZM16.1792 26.9749C10.665 26.9749 6.17891 22.4888 6.17891 16.9746C6.17891 11.4604 10.665 6.9743 16.1792 6.9743C21.6934 6.9743 26.1795 11.4604 26.1795 16.9746C26.1795 22.4904 21.7653 26.9749 16.1792 26.9749Z" fill="white"/>
</svg>
