<svg width="41" height="41" viewBox="0 0 41 41" fill="none" xmlns="http://www.w3.org/2000/svg">
<g clip-path="url(#clip0_2887_46069)">
<path d="M28.75 16.9741C28.75 13.6589 27.433 10.4795 25.0888 8.13529C22.7446 5.79108 19.5652 4.47412 16.25 4.47412C12.9348 4.47412 9.75537 5.79108 7.41117 8.13529C5.06696 10.4795 3.75 13.6589 3.75 16.9741C3.75 20.2893 5.06696 23.4688 7.41117 25.813C9.75537 28.1572 12.9348 29.4741 16.25 29.4741C19.5652 29.4741 22.7446 28.1572 25.0888 25.813C27.433 23.4688 28.75 20.2893 28.75 16.9741ZM26.3359 29.7163C23.5703 31.9116 20.0625 33.2241 16.25 33.2241C7.27344 33.2241 0 25.9507 0 16.9741C0 7.99756 7.27344 0.724121 16.25 0.724121C25.2266 0.724121 32.5 7.99756 32.5 16.9741C32.5 20.7866 31.1875 24.2944 28.9922 27.0601L39.4531 37.521C40.1875 38.2554 40.1875 39.4429 39.4531 40.1694C38.7188 40.896 37.5313 40.9038 36.8047 40.1694L26.3359 29.7163Z" fill="#B3B3C3"/>
</g>
<defs>
<clipPath id="clip0_2887_46069">
<rect width="40.0039" height="39.9932" fill="white" transform="translate(0 0.724121)"/>
</clipPath>
</defs>
</svg>
