<svg width="40" height="41" viewBox="0 0 40 41" fill="none" xmlns="http://www.w3.org/2000/svg">
<path d="M39.0859 35.3892L29.7344 26.0374C28.5602 27.7796 27.0579 29.2828 25.3149 30.457L34.6664 39.8088C35.8867 41.0292 37.8656 41.0292 39.0859 39.8088C40.3046 38.5924 40.3046 36.608 39.0859 35.3892Z" fill="#E84A4A"/>
<path d="M16.1795 0.724121C7.27493 0.724121 0 8.00012 0 16.9746C0 25.9491 7.27493 33.2251 16.1795 33.2251C25.0841 33.2251 32.4293 25.9491 32.4293 16.9746C32.4293 8.00012 25.2263 0.724121 16.1795 0.724121ZM16.1795 26.9749C10.6655 26.9749 6.17963 22.4888 6.17963 16.9746C6.17963 11.4604 10.6655 6.9743 16.1795 6.9743C21.6935 6.9743 26.1794 11.4604 26.1794 16.9746C26.1794 22.4904 21.7654 26.9749 16.1795 26.9749Z" fill="#2D253F"/>
</svg>
