<svg width="41" height="40" viewBox="0 0 41 40" fill="current" xmlns="http://www.w3.org/2000/svg">
<g clip-path="url(#clip0_723_15305)">
<path d="M19.0449 1.53041C22.1777 -1.59459 29.0684 0.21791 34.4277 5.5851C39.7871 10.9523 41.6074 17.8351 38.4746 20.9679L35.3105 24.132C31.5684 27.8898 26.4746 29.9992 21.1621 29.9992H16.623C16.0684 29.9992 15.5371 30.2179 15.1465 30.6085C14.3418 31.4132 14.3887 32.7101 14.7559 33.7882C14.9199 34.2648 15.0059 34.7804 15.0059 35.3117C15.0059 37.8976 12.9043 39.9992 10.3184 39.9992C7.73242 39.9992 5.63086 37.8976 5.63086 35.3117C5.63086 34.8195 5.18555 34.3742 4.69336 34.3742C2.10742 34.3742 0.00585938 32.2726 0.00585938 29.6867C0.00585938 27.1007 2.10742 24.9992 4.69336 24.9992C5.22461 24.9992 5.74023 25.0851 6.2168 25.2492C7.29492 25.6163 8.5918 25.6632 9.39648 24.8585C9.78711 24.4679 10.0059 23.9367 10.0059 23.382V18.8507C10.0059 13.546 12.1152 8.4601 15.8652 4.7101L19.0449 1.53041V1.53041ZM24.0449 15.9679C27.9199 19.8429 32.8965 21.1554 35.1543 18.8898C37.4121 16.6242 36.1074 11.6554 32.2324 7.78041C28.3574 3.90541 23.3809 2.59291 21.123 4.85854C18.8652 7.12416 20.1699 12.0929 24.0449 15.9679V15.9679ZM26.8809 13.132C25.6855 11.9367 25.2871 10.4054 25.9824 9.7101C26.6777 9.01479 28.209 9.42104 29.4043 10.6085C30.5996 11.796 30.998 13.3351 30.3027 14.0304C29.6074 14.7257 28.0762 14.3195 26.8809 13.132Z" fill="current"/>
</g>
<defs>
<clipPath id="clip0_723_15305">
<rect width="40.0029" height="39.9992" fill="current" transform="translate(0.00585938)"/>
</clipPath>
</defs>
</svg>
