<svg width="41" height="40" viewBox="0 0 41 40" fill="none" xmlns="http://www.w3.org/2000/svg">
<g clip-path="url(#clip0_2916_46094)">
<path d="M34.6362 10.8314C35.269 11.8783 35.7222 12.933 35.9878 13.9408C36.0269 14.0892 36.0581 14.2377 36.0894 14.3861C36.2769 15.2924 36.3081 16.1439 36.1597 16.8939C36.0112 17.683 35.6753 18.3627 35.144 18.8939L35.1284 18.9096C32.8628 21.1517 27.9019 19.8392 24.0347 15.9721C20.1675 12.0892 18.855 7.11268 21.1206 4.85487C21.2612 4.71425 21.4097 4.58925 21.5737 4.47987C21.6284 4.44081 21.6753 4.40956 21.73 4.37831C21.9644 4.22987 22.2222 4.10487 22.4956 4.01112C22.5425 3.9955 22.5894 3.97987 22.644 3.96425C25.1987 3.17518 29.0815 4.62831 32.2378 7.78456C33.2065 8.75331 34.019 9.79237 34.644 10.8392L34.6362 10.8314ZM30.3862 23.5971C28.3706 25.3002 25.8003 26.2455 23.1362 26.2455H16.2612C14.8784 26.2455 13.7612 25.1283 13.7612 23.7455V16.8705C13.7612 14.2064 14.7065 11.6361 16.4097 9.6205C16.4722 10.0111 16.5581 10.3939 16.6519 10.7611C17.3784 13.5189 19.0659 16.3002 21.3862 18.6205C23.7065 20.9408 26.4878 22.6361 29.2456 23.3549C29.6128 23.4486 29.9956 23.5346 30.3862 23.5971ZM16.6206 29.9955H23.1362C27.1128 29.9955 30.9331 28.4174 33.7456 25.6049L37.7847 21.558C37.7925 21.5502 37.8003 21.5424 37.8081 21.5346C39.6597 19.683 40.144 17.2924 39.98 15.0892C39.9253 14.3549 39.8003 13.6439 39.6206 12.9799C39.1675 11.2611 38.3394 9.53456 37.2222 7.91737C36.5425 6.94081 35.7612 5.9955 34.8784 5.1205C32.5581 2.80018 29.7847 1.11268 27.0269 0.386121C24.3706 -0.309192 20.9331 -0.262317 18.4722 2.19862L14.4097 6.26112C11.5972 9.07362 10.019 12.8861 10.019 16.8705V23.3861C10.019 23.9408 9.80029 24.4721 9.40967 24.8627C8.60498 25.6674 7.30811 25.6205 6.22998 25.2533C5.74561 25.0814 5.22998 24.9955 4.69873 24.9955C2.11279 24.9955 0.0112305 27.0971 0.0112305 29.683C0.0112305 32.2689 2.11279 34.3705 4.69873 34.3705C5.19092 34.3705 5.63623 34.8158 5.63623 35.308C5.63623 37.8939 7.73779 39.9955 10.3237 39.9955C12.9097 39.9955 15.0112 37.8939 15.0112 35.308C15.0112 34.7767 14.9253 34.2611 14.7612 33.7846C14.394 32.7064 14.3472 31.4096 15.1519 30.6049C15.5425 30.2142 16.0737 29.9955 16.6284 29.9955H16.6206ZM30.2925 14.0267C30.9878 13.3314 30.5894 11.8002 29.394 10.6049C28.1987 9.40956 26.6675 9.01112 25.9722 9.70643C25.2769 10.4017 25.6753 11.933 26.8706 13.1283C28.0659 14.3236 29.5972 14.7221 30.2925 14.0267Z" fill="#B3B3C3"/>
</g>
<defs>
<clipPath id="clip0_2916_46094">
<rect width="39.9986" height="39.9955" fill="white" transform="translate(0.0112305)"/>
</clipPath>
</defs>
</svg>
