<svg width="49" height="49" viewBox="0 0 49 49" fill="none" xmlns="http://www.w3.org/2000/svg">
<path d="M41.7501 7.0352C37.5691 2.86725 32.4693 0.621094 28.1663 0.621094C25.9446 0.621094 23.9759 1.25763 22.4103 2.41164C22.1624 2.56726 21.927 2.75447 21.7199 2.961C18.0901 6.58615 12.1297 13.6293 12.1297 20.1728L12.1245 29.7817C12.1245 33.5091 15.1469 36.5296 18.8742 36.5296L28.5113 36.5321C35.0632 36.5321 42.0201 30.5858 45.7325 26.9607C45.9787 26.7094 46.2042 26.4238 46.3721 26.1151C49.8873 21.564 48.003 13.2862 41.7501 7.0352ZM42.5657 23.8514C41.6508 24.7654 40.2924 24.9623 39.309 24.9623C36.0541 24.9623 32.069 23.0048 28.9126 19.855C26.3636 17.3098 24.5693 14.2011 23.9937 11.326C23.5494 9.10417 23.881 7.24144 24.9059 6.21867C25.8133 5.3083 27.1811 5.11715 28.1645 5.11715C31.4193 5.11715 35.4026 7.07551 38.5609 10.2235C43.6157 15.2736 44.8438 21.5827 42.5657 23.8514Z" fill="#2D253F"/>
<path d="M12.1264 29.8598V29.663L11.3243 30.4639C10.414 31.3721 9.07726 31.5017 7.87824 31.0263C4.9768 29.8676 1.68632 31.28 0.527616 34.1799C-0.311504 36.2808 0.182912 38.6835 1.78475 40.2819C3.21907 41.7143 5.20742 42.1202 7.04672 41.6993C6.6258 43.5358 7.031 45.5223 8.46416 46.9538C10.6681 49.169 14.2502 49.1765 16.4654 46.9733C18.0741 45.373 18.5681 42.9675 17.7244 40.861C17.2461 39.6676 17.3757 38.4142 18.2869 37.4168L19.0914 36.6179L18.8748 36.6133C15.1451 36.6095 12.1264 33.5909 12.1264 29.8598ZM35.3942 13.3793C34.0143 12.0012 32.1562 11.6319 31.2328 12.5477C30.3092 13.4636 30.6841 15.3291 32.0651 16.7072C33.4461 18.0852 35.3153 18.4583 36.2349 17.5388C37.1546 16.6192 36.6973 14.7573 35.3942 13.3793Z" fill="#E84A4A"/>
</svg>
