<svg width="41" height="40" viewBox="0 0 41 40" fill="none" xmlns="http://www.w3.org/2000/svg">
<path d="M34.6973 5.34509C31.2131 1.8718 26.9633 0 23.3775 0C21.526 0 19.8854 0.530446 18.5808 1.49212C18.3742 1.62181 18.178 1.77782 18.0054 1.94992C14.9806 4.97088 10.0136 10.8402 10.0136 16.2931L10.0093 24.3005C10.0093 27.4067 12.5279 29.9237 15.634 29.9237L23.6649 29.9259C29.1249 29.9259 34.9223 24.9706 38.0159 21.9496C38.2211 21.7403 38.409 21.5022 38.5489 21.245C41.4783 17.4524 39.908 10.5542 34.6973 5.34509ZM35.377 19.3586C34.6145 20.1202 33.4825 20.2843 32.663 20.2843C29.9506 20.2843 26.6297 18.6531 23.9993 16.0282C21.8752 13.9072 20.3799 11.3167 19.9003 8.92072C19.53 7.06923 19.8064 5.51695 20.6604 4.66465C21.4166 3.90601 22.5564 3.74672 23.3759 3.74672C26.0883 3.74672 29.4077 5.37868 32.0396 8.00201C36.2519 12.2104 37.2753 17.468 35.377 19.3586Z" fill="white"/>
<path d="M10.0106 24.3663V24.2022L9.34219 24.8697C8.58355 25.6265 7.46961 25.7345 6.47044 25.3383C4.05257 24.3727 1.3105 25.5497 0.344913 27.9663C-0.354354 29.7171 0.0576595 31.7193 1.39252 33.0513C2.58779 34.245 4.24475 34.5833 5.7775 34.2325C5.42673 35.7629 5.7644 37.4183 6.9587 38.6112C8.79534 40.4572 11.7804 40.4635 13.6264 38.6274C14.967 37.2939 15.3787 35.2893 14.6756 33.5339C14.277 32.5394 14.3849 31.4949 15.1443 30.6637L15.8147 29.998L15.6343 29.9941C12.5261 29.991 10.0106 27.4755 10.0106 24.3663ZM29.4004 10.6325C28.2505 9.48408 26.7021 9.17628 25.9326 9.93945C25.1629 10.7027 25.4753 12.2573 26.6261 13.4057C27.777 14.5541 29.3346 14.865 30.101 14.0987C30.8674 13.3324 30.4863 11.7809 29.4004 10.6325Z" fill="#E84A4A"/>
</svg>
