<svg width="41" height="40" viewBox="0 0 41 40" fill="none" xmlns="http://www.w3.org/2000/svg">
<path d="M34.6988 5.34509C31.2145 1.8718 26.9647 0 23.3789 0C21.5275 0 19.8869 0.530446 18.5823 1.49212C18.3756 1.62181 18.1795 1.77782 18.0069 1.94992C14.982 4.97088 10.0151 10.8402 10.0151 16.2931L10.0107 24.3005C10.0107 27.4067 12.5294 29.9237 15.6355 29.9237L23.6664 29.9259C29.1263 29.9259 34.9237 24.9706 38.0174 21.9496C38.2226 21.7403 38.4105 21.5022 38.5504 21.245C41.4797 17.4524 39.9095 10.5542 34.6988 5.34509ZM35.3784 19.3586C34.616 20.1202 33.484 20.2843 32.6645 20.2843C29.9521 20.2843 26.6311 18.6531 24.0008 16.0282C21.8767 13.9072 20.3814 11.3167 19.9017 8.92072C19.5314 7.06923 19.8078 5.51695 20.6619 4.66465C21.4181 3.90601 22.5579 3.74672 23.3774 3.74672C26.0898 3.74672 29.4092 5.37868 32.0411 8.00201C36.2534 12.2104 37.2768 17.468 35.3784 19.3586Z" fill="#2D253F"/>
<path d="M10.0121 24.3663V24.2022L9.34365 24.8697C8.58501 25.6265 7.47108 25.7345 6.4719 25.3383C4.05403 24.3727 1.31196 25.5497 0.346378 27.9663C-0.352889 29.7171 0.0591244 31.7193 1.39399 33.0513C2.58925 34.245 4.24621 34.5833 5.77896 34.2325C5.42819 35.7629 5.76587 37.4183 6.96016 38.6112C8.7968 40.4572 11.7818 40.4635 13.6278 38.6274C14.9684 37.2939 15.3801 35.2893 14.677 33.5339C14.2784 32.5394 14.3864 31.4949 15.1458 30.6637L15.8162 29.998L15.6357 29.9941C12.5276 29.991 10.0121 27.4755 10.0121 24.3663ZM29.4019 10.6325C28.2519 9.48408 26.7035 9.17628 25.934 9.93945C25.1644 10.7027 25.4768 12.2573 26.6276 13.4057C27.7784 14.5541 29.3361 14.865 30.1025 14.0987C30.8688 13.3324 30.4878 11.7809 29.4019 10.6325Z" fill="#E84A4A"/>
</svg>
