<svg width="41" height="40" viewBox="0 0 41 40" fill="none" xmlns="http://www.w3.org/2000/svg">
<g clip-path="url(#clip0_3660_84240)">
<path d="M20.9951 12.5C13.3975 12.5 7.24512 18.6523 7.24512 26.25C7.24512 33.8477 13.4014 40 20.9951 40C28.5889 40 34.7451 33.8477 34.7451 26.25C34.7451 18.6523 28.5967 12.5 20.9951 12.5ZM28.2217 24.7891L25.2623 27.6797L25.9557 31.7617C26.0826 32.4844 25.3111 33.0508 24.6564 32.6992L20.9939 30.7758L17.3311 32.6953C16.6768 33.0469 15.9053 32.4805 16.0318 31.7578L16.7252 27.6758L13.7658 24.7852C13.2295 24.2656 13.5342 23.3594 14.2686 23.25L18.3607 22.6543L20.1904 18.9453C20.3467 18.6133 20.6689 18.4473 20.9912 18.4473C21.3135 18.4473 21.6357 18.6172 21.792 18.9453L23.6279 22.6562L27.7201 23.252C28.4639 23.3594 28.7607 24.2656 28.2217 24.7891Z" fill="#2D253F"/>
<path d="M11.6437 0H2.24759C1.23587 0 0.643684 1.13906 1.22415 1.96719L11.4038 16.4047C13.6492 14.218 16.6382 12.8008 19.9585 12.5531L12.6437 0.607031C12.4874 0.230391 12.0812 0 11.6437 0ZM39.6749 0H30.3468C29.9077 0 29.5007 0.230391 29.2749 0.607031L22.0265 12.5547C25.3468 12.8022 28.3359 14.2195 30.5812 16.4062L40.7609 1.96875C41.3468 1.13906 40.7531 0 39.6749 0Z" fill="#E84A4A"/>
</g>
<defs>
<clipPath id="clip0_3660_84240">
<rect width="39.9956" height="40" fill="white" transform="translate(0.995605)"/>
</clipPath>
</defs>
</svg>
