<svg width="41" height="40" viewBox="0 0 41 40" fill="none" xmlns="http://www.w3.org/2000/svg">
<g clip-path="url(#clip0_3660_84228)">
<path d="M1.31152 2.98438L9.30371 14.9609C10.1787 14.0547 11.1553 13.25 12.2178 12.5703L6.33496 3.75H11.374L15.6631 10.8984C16.8975 10.4688 18.1943 10.1875 19.5381 10.0703L19.0615 9.28125L14.2178 1.21094C13.7646 0.460937 12.9521 0 12.0771 0H2.91309C1.85059 0 0.991211 0.859375 0.991211 1.92188C0.991211 2.29688 1.10059 2.67188 1.31152 2.98438ZM22.9209 9.27344L22.4443 10.0625C23.7881 10.1797 25.085 10.4687 26.3193 10.8906L30.6162 3.75H35.6553L29.7725 12.5703C30.835 13.25 31.8115 14.0547 32.6865 14.9609L40.6709 2.98438C40.8818 2.67188 40.9912 2.29688 40.9912 1.92188C40.9912 0.859375 40.1318 0 39.0693 0H29.9053C29.0303 0 28.21 0.460937 27.7646 1.21094L22.9287 9.27344H22.9209ZM20.9912 16.25C23.6434 16.25 26.1869 17.3036 28.0623 19.1789C29.9376 21.0543 30.9912 23.5978 30.9912 26.25C30.9912 28.9022 29.9376 31.4457 28.0623 33.3211C26.1869 35.1964 23.6434 36.25 20.9912 36.25C18.339 36.25 15.7955 35.1964 13.9201 33.3211C12.0448 31.4457 10.9912 28.9022 10.9912 26.25C10.9912 23.5978 12.0448 21.0543 13.9201 19.1789C15.7955 17.3036 18.339 16.25 20.9912 16.25ZM20.9912 40C24.6379 40 28.1353 38.5513 30.7139 35.9727C33.2926 33.3941 34.7412 29.8967 34.7412 26.25C34.7412 22.6033 33.2926 19.1059 30.7139 16.5273C28.1353 13.9487 24.6379 12.5 20.9912 12.5C17.3445 12.5 13.8471 13.9487 11.2685 16.5273C8.68987 19.1059 7.24121 22.6033 7.24121 26.25C7.24121 29.8967 8.68987 33.3941 11.2685 35.9727C13.8471 38.5513 17.3445 40 20.9912 40ZM21.5537 19.8828C21.3271 19.4219 20.6631 19.4219 20.4365 19.8828L18.9365 22.9219C18.8428 23.1094 18.6709 23.2344 18.4678 23.2656L15.1084 23.75C14.5928 23.8281 14.3896 24.4531 14.7646 24.8125L17.1865 27.1719C17.335 27.3125 17.3975 27.5234 17.3662 27.7266L16.7959 31.0625C16.71 31.5703 17.2412 31.9609 17.7021 31.7188L20.7021 30.1562C20.8818 30.0625 21.1006 30.0625 21.2803 30.1562L24.2803 31.7344C24.7412 31.9766 25.2725 31.5859 25.1865 31.0781L24.6162 27.7344C24.585 27.5312 24.6475 27.3281 24.7959 27.1797L27.2178 24.8203C27.585 24.4609 27.3818 23.8281 26.874 23.7578L23.5225 23.2734C23.3193 23.2422 23.1396 23.1172 23.0537 22.9297L21.5537 19.8906V19.8828Z" fill="#B3B3C3"/>
</g>
<defs>
<clipPath id="clip0_3660_84228">
<rect width="40" height="40" fill="white" transform="translate(0.991211)"/>
</clipPath>
</defs>
</svg>
