<svg width="40" height="40" viewBox="0 0 40 40" fill="none" xmlns="http://www.w3.org/2000/svg">
<g clip-path="url(#clip0_3660_84235)">
<path d="M19.9995 12.5C12.4019 12.5 6.24951 18.6523 6.24951 26.25C6.24951 33.8477 12.4058 40 19.9995 40C27.5933 40 33.7495 33.8477 33.7495 26.25C33.7495 18.6523 27.6011 12.5 19.9995 12.5ZM27.2261 24.7891L24.2667 27.6797L24.9601 31.7617C25.087 32.4844 24.3155 33.0508 23.6608 32.6992L19.9983 30.7758L16.3354 32.6953C15.6812 33.0469 14.9097 32.4805 15.0362 31.7578L15.7296 27.6758L12.7702 24.7852C12.2339 24.2656 12.5386 23.3594 13.2729 23.25L17.3651 22.6543L19.1948 18.9453C19.3511 18.6133 19.6733 18.4473 19.9956 18.4473C20.3179 18.4473 20.6401 18.6172 20.7964 18.9453L22.6323 22.6562L26.7245 23.252C27.4683 23.3594 27.7651 24.2656 27.2261 24.7891Z" fill="white"/>
<path d="M10.6481 0H1.25198C0.240266 0 -0.351922 1.13906 0.228547 1.96719L10.4082 16.4047C12.6535 14.218 15.6426 12.8008 18.9629 12.5531L11.6481 0.607031C11.4918 0.230391 11.0856 0 10.6481 0ZM38.6793 0H29.3512C28.9121 0 28.5051 0.230391 28.2793 0.607031L21.0309 12.5547C24.3512 12.8022 27.3403 14.2195 29.5856 16.4062L39.7653 1.96875C40.3512 1.13906 39.7575 0 38.6793 0Z" fill="#E84A4A"/>
</g>
<defs>
<clipPath id="clip0_3660_84235">
<rect width="39.9956" height="40" fill="white"/>
</clipPath>
</defs>
</svg>
