<svg width="40" height="40" viewBox="0 0 40 40" fill="none" xmlns="http://www.w3.org/2000/svg">
<path d="M20 27.7778C20 22.2569 24.4792 17.7778 30 17.7778C35.5208 17.7778 40 22.2569 40 27.7778C40 33.2986 35.5208 37.7778 30 37.7778C24.4792 37.7778 20 33.2986 20 27.7778ZM34.6736 26.3403C35.1111 25.9097 35.1111 25.2014 34.6736 24.7708C34.2431 24.3333 33.5347 24.3333 33.1042 24.7708L28.8889 28.9861L26.8958 26.993C26.4653 26.5555 25.7569 26.5555 25.3264 26.993C24.8889 27.4236 24.8889 28.1319 25.3264 28.5625L28.1042 31.3403C28.5347 31.7778 29.2431 31.7778 29.6736 31.3403L34.6736 26.3403Z" fill="#E84A4A"/>
<path d="M22.2222 2.22223C24.6736 2.22223 26.6667 4.21181 26.6667 6.66667V16.0139C21.5347 17.4653 17.7778 22.1806 17.7778 27.7778C17.7778 31.882 19.7986 35.507 22.8958 37.7292C22.6806 37.757 22.4514 37.7778 22.2222 37.7778H4.44444C1.98958 37.7778 0 35.7847 0 33.3333V6.66667C0 4.21181 1.98958 2.22223 4.44444 2.22223H22.2222ZM5.55556 11.1111C4.94167 11.1111 4.44444 11.6111 4.44444 12.2222C4.44444 12.8333 4.94167 13.3333 5.55556 13.3333H21.1111C21.7222 13.3333 22.2222 12.8333 22.2222 12.2222C22.2222 11.6111 21.7222 11.1111 21.1111 11.1111H5.55556ZM5.55556 20H16.6667C17.2778 20 17.7778 19.5 17.7778 18.8889C17.7778 18.2778 17.2778 17.7778 16.6667 17.7778H5.55556C4.94167 17.7778 4.44444 18.2778 4.44444 18.8889C4.44444 19.5 4.94167 20 5.55556 20ZM5.55556 26.6667H12.2222C12.8333 26.6667 13.3333 26.1667 13.3333 25.5556C13.3333 24.9445 12.8333 24.4445 12.2222 24.4445H5.55556C4.94167 24.4445 4.44444 24.9445 4.44444 25.5556C4.44444 26.1667 4.94167 26.6667 5.55556 26.6667Z" fill="white"/>
</svg>
