<svg width="40" height="40" viewBox="0 0 40 40" fill="none" xmlns="http://www.w3.org/2000/svg">
<path d="M32.5 0H7.5C4.73828 0 2.5 2.23828 2.5 5V10H37.5V5C37.5 2.23828 35.2578 0 32.5 0ZM18.75 31.25H11.25C10.5625 31.25 10 31.8125 10 32.5C10 33.1903 10.5597 33.75 11.25 33.75H18.75C19.4403 33.75 20 33.1903 20 32.5C20 31.8125 19.4375 31.25 18.75 31.25ZM28.75 16.25H11.25C10.5625 16.25 10 16.8125 10 17.5C10 18.1903 10.5597 18.75 11.25 18.75H28.75C29.4375 18.75 30 18.1875 30 17.5C30 16.8125 29.4375 16.25 28.75 16.25ZM28.75 23.75H11.25C10.5625 23.75 10 24.3125 10 25C10 25.6903 10.5597 26.25 11.25 26.25H28.75C29.4403 26.25 30 25.6903 30 25C30 24.3125 29.4375 23.75 28.75 23.75Z" fill="#E84A4A"/>
<path d="M2.5 10V35C2.5 37.7617 4.73828 40 7.5 40H32.5C35.2617 40 37.5 37.7617 37.5 35V10H2.5ZM18.75 33.75H11.25C10.5625 33.75 10 33.1875 10 32.5C10 31.8095 10.5597 31.25 11.25 31.25H18.75C19.4403 31.25 20 31.8095 20 32.5C20 33.1875 19.4375 33.75 18.75 33.75ZM28.75 26.25H11.25C10.5625 26.25 10 25.6875 10 25C10 24.3095 10.5597 23.75 11.25 23.75H28.75C29.4403 23.75 30 24.3095 30 25C30 25.6875 29.4375 26.25 28.75 26.25ZM28.75 18.75H11.25C10.5625 18.75 10 18.1875 10 17.5C10 16.8095 10.5597 16.25 11.25 16.25H28.75C29.4375 16.25 30 16.8125 30 17.5C30 18.1875 29.4375 18.75 28.75 18.75Z" fill="white"/>
</svg>
