<svg width="40" height="40" viewBox="0 0 40 40" fill="current" xmlns="http://www.w3.org/2000/svg">
<path d="M2.5 5V7.5H37.5V5C37.5 2.24219 35.2578 0 32.5 0H7.5C4.74219 0 2.5 2.24219 2.5 5ZM2.5 10V35C2.5 37.7578 4.74219 40 7.5 40H32.5C35.2578 40 37.5 37.7578 37.5 35V10H2.5ZM10 17.5C10 16.8125 10.5625 16.25 11.25 16.25H28.75C29.4375 16.25 30 16.8125 30 17.5C30 18.1875 29.4375 18.75 28.75 18.75H11.25C10.5625 18.75 10 18.1875 10 17.5ZM10 25C10 24.3125 10.5625 23.75 11.25 23.75H28.75C29.4375 23.75 30 24.3125 30 25C30 25.6875 29.4375 26.25 28.75 26.25H11.25C10.5625 26.25 10 25.6875 10 25ZM10 32.5C10 31.8125 10.5625 31.25 11.25 31.25H18.75C19.4375 31.25 20 31.8125 20 32.5C20 33.1875 19.4375 33.75 18.75 33.75H11.25C10.5625 33.75 10 33.1875 10 32.5Z" fill="current"/>
</svg>
