<svg width="40" height="40" viewBox="0 0 40 40" fill="none" xmlns="http://www.w3.org/2000/svg">
<path d="M33.75 10V35C33.75 35.6875 33.1875 36.25 32.5 36.25H7.5C6.8125 36.25 6.25 35.6875 6.25 35V10H33.75ZM7.5 0C4.74219 0 2.5 2.24219 2.5 5V35C2.5 37.7578 4.74219 40 7.5 40H32.5C35.2578 40 37.5 37.7578 37.5 35V5C37.5 2.24219 35.2578 0 32.5 0H7.5ZM10 15.625C10 16.6641 10.8359 17.5 11.875 17.5H28.125C29.1641 17.5 30 16.6641 30 15.625C30 14.5859 29.1641 13.75 28.125 13.75H11.875C10.8359 13.75 10 14.5859 10 15.625ZM10 23.125C10 24.1641 10.8359 25 11.875 25H28.125C29.1641 25 30 24.1641 30 23.125C30 22.0859 29.1641 21.25 28.125 21.25H11.875C10.8359 21.25 10 22.0859 10 23.125ZM10 30.625C10 31.6641 10.8359 32.5 11.875 32.5H20.625C21.6641 32.5 22.5 31.6641 22.5 30.625C22.5 29.5859 21.6641 28.75 20.625 28.75H11.875C10.8359 28.75 10 29.5859 10 30.625Z" fill="#B3B3C3"/>
</svg>
