<svg width="40" height="40" viewBox="0 0 40 40" fill="none" xmlns="http://www.w3.org/2000/svg">
<path d="M4.44444 5.55556H22.2222C22.8333 5.55556 23.3333 6.05556 23.3333 6.66667V17.5347C24.3472 16.875 25.4722 16.3542 26.6667 16.0208V6.66667C26.6667 4.21528 24.6736 2.22223 22.2222 2.22223H4.44444C1.99306 2.22223 0 4.21528 0 6.66667V33.3333C0 35.7847 1.99306 37.7778 4.44444 37.7778H22.2222C22.4514 37.7778 22.6806 37.757 22.8958 37.7292C21.6528 36.8403 20.5833 35.7292 19.75 34.4445H4.44444C3.83333 34.4445 3.33333 33.9445 3.33333 33.3333V6.66667C3.33333 6.05556 3.83333 5.55556 4.44444 5.55556ZM8.33333 11.1111C7.40972 11.1111 6.66667 11.8542 6.66667 12.7778C6.66667 13.7014 7.40972 14.4445 8.33333 14.4445H18.3333C19.2569 14.4445 20 13.7014 20 12.7778C20 11.8542 19.2569 11.1111 18.3333 11.1111H8.33333ZM8.33333 17.7778C7.40972 17.7778 6.66667 18.5208 6.66667 19.4445C6.66667 20.3681 7.40972 21.1111 8.33333 21.1111H18.3333C19.2569 21.1111 20 20.3681 20 19.4445C20 18.5208 19.2569 17.7778 18.3333 17.7778H8.33333ZM8.33333 24.4445C7.40972 24.4445 6.66667 25.1875 6.66667 26.1111C6.66667 27.0347 7.40972 27.7778 8.33333 27.7778H11.6667C12.5903 27.7778 13.3333 27.0347 13.3333 26.1111C13.3333 25.1875 12.5903 24.4445 11.6667 24.4445H8.33333ZM40 27.7778C40 25.1256 38.9464 22.5821 37.0711 20.7067C35.1957 18.8314 32.6522 17.7778 30 17.7778C27.3478 17.7778 24.8043 18.8314 22.9289 20.7067C21.0536 22.5821 20 25.1256 20 27.7778C20 30.43 21.0536 32.9735 22.9289 34.8489C24.8043 36.7242 27.3478 37.7778 30 37.7778C32.6522 37.7778 35.1957 36.7242 37.0711 34.8489C38.9464 32.9735 40 30.43 40 27.7778ZM34.6736 24.7708C35.1042 25.2014 35.1042 25.9097 34.6736 26.3403L29.6736 31.3403C29.2431 31.7708 28.5347 31.7708 28.1042 31.3403L25.3264 28.5625C24.8958 28.132 24.8958 27.4236 25.3264 26.9931C25.7569 26.5625 26.4653 26.5625 26.8958 26.9931L28.8889 28.9861L33.1042 24.7708C33.5347 24.3403 34.2431 24.3403 34.6736 24.7708Z" fill="#B3B3C3"/>
</svg>
