<svg width="48" height="48" viewBox="0 0 48 48" fill="none" xmlns="http://www.w3.org/2000/svg">
<g clip-path="url(#clip0_29639_55326)">
<path d="M19.5 39C19.5 36.5156 17.4844 34.5 15 34.5H6C5.175 34.5 4.5 33.825 4.5 33V6C4.5 5.175 5.175 4.5 6 4.5H42C42.825 4.5 43.5 5.175 43.5 6V33C43.5 33.825 42.825 34.5 42 34.5H28.9969C28.0219 34.5 27.075 34.8188 26.2969 35.4L19.5 40.5V39ZM19.4813 46.1438L19.5 46.125L28.9969 39H42C45.3094 39 48 36.3094 48 33V6C48 2.69063 45.3094 0 42 0H6C2.69063 0 0 2.69063 0 6V33C0 36.3094 2.69063 39 6 39H10.5H15V43.5V43.875V43.9031V44.5031V46.5C15 47.0719 15.3188 47.5875 15.825 47.8406C16.3313 48.0938 16.9406 48.0375 17.4 47.7L19.0031 46.5L19.4813 46.1438ZM13.5 22.5C14.2956 22.5 15.0587 22.1839 15.6213 21.6213C16.1839 21.0587 16.5 20.2956 16.5 19.5C16.5 18.7044 16.1839 17.9413 15.6213 17.3787C15.0587 16.8161 14.2956 16.5 13.5 16.5C12.7044 16.5 11.9413 16.8161 11.3787 17.3787C10.8161 17.9413 10.5 18.7044 10.5 19.5C10.5 20.2956 10.8161 21.0587 11.3787 21.6213C11.9413 22.1839 12.7044 22.5 13.5 22.5ZM27 19.5C27 18.7044 26.6839 17.9413 26.1213 17.3787C25.5587 16.8161 24.7956 16.5 24 16.5C23.2044 16.5 22.4413 16.8161 21.8787 17.3787C21.3161 17.9413 21 18.7044 21 19.5C21 20.2956 21.3161 21.0587 21.8787 21.6213C22.4413 22.1839 23.2044 22.5 24 22.5C24.7956 22.5 25.5587 22.1839 26.1213 21.6213C26.6839 21.0587 27 20.2956 27 19.5ZM34.5 22.5C35.2957 22.5 36.0587 22.1839 36.6213 21.6213C37.1839 21.0587 37.5 20.2956 37.5 19.5C37.5 18.7044 37.1839 17.9413 36.6213 17.3787C36.0587 16.8161 35.2957 16.5 34.5 16.5C33.7043 16.5 32.9413 16.8161 32.3787 17.3787C31.8161 17.9413 31.5 18.7044 31.5 19.5C31.5 20.2956 31.8161 21.0587 32.3787 21.6213C32.9413 22.1839 33.7043 22.5 34.5 22.5Z" fill="#B3B3C3"/>
</g>
<defs>
<clipPath id="clip0_29639_55326">
<rect width="48" height="48" fill="white"/>
</clipPath>
</defs>
</svg>
