<svg width="40" height="40" viewBox="0 0 40 40" fill="none" xmlns="http://www.w3.org/2000/svg">
<g clip-path="url(#clip0_3316_58043)">
<path d="M28.75 10.625C28.75 11.6602 27.9102 12.4297 26.875 12.4297L21.875 12.5V23.125C21.875 24.1641 21.0391 25 20 25C18.9609 25 18.125 24.1641 18.125 23.125V12.5L13.125 12.5C12.0898 12.5 11.25 11.6601 11.25 10.6953C11.25 9.73044 12.0938 8.75 13.125 8.75H26.875C27.9141 8.75 28.75 9.59375 28.75 10.625Z" fill="#E84A4A"/>
<path d="M35 0H5C2.24609 0 0 2.24609 0 4.92969V27.3594C0 30.1133 2.24609 32.2891 5 32.2891H12.5V38.85C12.5 39.6117 13.3789 40.057 13.9937 39.6078L23.75 32.4297H35C37.7539 32.4297 40 30.1836 40 27.5V4.92972C40 2.24613 37.7578 0 35 0ZM26.875 12.4297L21.875 12.5V23.125C21.875 24.1641 21.0391 25 20 25C18.9609 25 18.125 24.1641 18.125 23.125V12.5L13.125 12.5C12.0898 12.5 11.25 11.6602 11.25 10.6953C11.25 9.73047 12.0938 8.75003 13.125 8.75003H26.875C27.9102 8.75003 28.75 9.58987 28.75 10.625C28.75 11.6602 27.9141 12.4297 26.875 12.4297Z" fill="#2D253F"/>
</g>
<defs>
<clipPath id="clip0_3316_58043">
<rect width="40" height="39.7875" fill="white"/>
</clipPath>
</defs>
</svg>
