<svg width="40" height="40" viewBox="0 0 40 40" fill="none" xmlns="http://www.w3.org/2000/svg">
<g clip-path="url(#clip0_3316_58101)">
<path d="M19.4609 20.9375C18.3906 20.9375 17.5 21.8281 17.5 22.9688C17.5 24.1094 18.3906 25 19.4609 25C20.6719 25 21.5625 24.1094 21.5625 22.9688C21.5625 21.8281 20.6719 20.9375 19.4609 20.9375ZM21.6953 7.5H18.3047C15.7656 7.5 13.75 9.5 13.75 12.0156C13.75 12.8547 14.4661 13.5648 15.3125 13.5648C16.1589 13.5648 16.875 12.8594 16.875 12.0156C16.875 11.2411 17.5261 10.5961 18.307 10.5961H21.6922C22.4734 10.5961 23.1242 11.2414 23.1242 12.0156C23.1242 12.5318 22.8638 12.9836 22.4081 13.2422L18.6953 15.4375C18.1744 15.7602 17.9141 16.2766 17.9141 16.793V17.8258C17.9141 18.6648 18.6302 19.375 19.4766 19.375C20.3227 19.375 21.0391 18.665 21.0391 17.8258V17.6953L24.0336 15.8883C25.4063 15.0547 26.25 13.5703 26.25 12.0156C26.25 9.5 24.2344 7.5 21.6953 7.5Z" fill="#E84A4A"/>
<path d="M35 0H5C2.23672 0 0 2.23594 0 4.92969V27.3594C0 30.2656 2.23672 32.4297 5 32.4297H12.5V38.9219C12.5 39.6932 13.3789 40.1344 13.9937 39.6757L23.75 32.4297H35C37.7641 32.4297 40 30.193 40 27.5V4.92969C40 2.23594 37.7656 0 35 0ZM19.4609 25C18.3906 25 17.5 24.1094 17.5 22.9688C17.5 21.8281 18.3906 20.9375 19.4609 20.9375C20.6719 20.9375 21.5625 21.8281 21.5625 22.9688C21.5625 24.1094 20.6719 25 19.4609 25ZM24.0391 15.8906L21.0445 17.6977V17.8267C21.0445 18.6658 20.3283 19.3759 19.482 19.3759C18.6359 19.3759 17.9195 18.6659 17.9195 17.8267V16.7266C17.9195 16.2102 18.1798 15.6938 18.7008 15.3711L22.4117 13.1766C22.8672 12.9844 23.125 12.5313 23.125 12.0156C23.125 11.2411 22.4739 10.5961 21.693 10.5961H18.3047C17.5234 10.5961 16.8727 11.2414 16.8727 12.0156C16.8727 12.8547 16.1566 13.5648 15.3102 13.5648C14.4638 13.5648 13.75 12.8594 13.75 12.0156C13.75 9.5 15.7656 7.5 18.3047 7.5H21.6898C24.2344 7.5 26.25 9.5 26.25 12.0156C26.25 13.5703 25.4063 15.0547 24.0391 15.8906Z" fill="white"/>
</g>
<defs>
<clipPath id="clip0_3316_58101">
<rect width="40" height="39.8619" fill="white"/>
</clipPath>
</defs>
</svg>
