<svg width="41" height="40" viewBox="0 0 41 40" fill="none" xmlns="http://www.w3.org/2000/svg">
<g clip-path="url(#clip0_2930_46062)">
<path d="M2.4273 4.31886C1.7773 3.80636 0.833554 3.92511 0.321054 4.57511C-0.191446 5.22511 -0.0726956 6.16886 0.577304 6.68136L37.5773 35.6814C38.2273 36.1939 39.1711 36.0751 39.6836 35.4251C40.1961 34.7751 40.0773 33.8314 39.4273 33.3189L34.2836 29.2876C35.3211 28.5626 36.0023 27.3626 36.0023 26.0001V8.00011C36.0023 5.79386 34.2086 4.00011 32.0023 4.00011H8.0023C6.5273 4.00011 5.2398 4.79386 4.54605 5.98136L2.4273 4.31886ZM7.00855 7.90636C7.0523 7.40011 7.48355 7.00011 8.0023 7.00011H32.0023C32.5523 7.00011 33.0023 7.45011 33.0023 8.00011V26.0001C33.0023 26.5501 32.5523 27.0001 32.0023 27.0001H31.3648L7.00855 7.90636ZM14.0023 27.0001H8.0023C7.4523 27.0001 7.0023 26.5501 7.0023 26.0001V15.5126L4.0023 13.1501V26.0001C4.0023 28.2064 5.79605 30.0001 8.0023 30.0001H11.0023H14.0023V33.0001V33.2501V33.2689V33.6689V35.0001C14.0023 35.3814 14.2148 35.7251 14.5523 35.8939C14.8898 36.0626 15.2961 36.0251 15.6023 35.8001L16.6711 35.0001L16.9898 34.7626L17.0023 34.7501L23.3336 30.0001H25.3836L21.9836 27.3189C21.8273 27.4001 21.6773 27.4939 21.5336 27.6001L17.0023 31.0001V30.0001C17.0023 28.3439 15.6586 27.0001 14.0023 27.0001Z" fill="#B3B3C3"/>
</g>
<defs>
<clipPath id="clip0_2930_46062">
<rect width="40.0007" height="40" fill="white" transform="translate(0.00195312)"/>
</clipPath>
</defs>
</svg>
