<svg width="40" height="40" viewBox="0 0 40 40" fill="current" xmlns="http://www.w3.org/2000/svg">
<g clip-path="url(#clip0_696_14770)">
<path d="M0 5C0 2.24219 2.24219 0 5 0H35C37.7578 0 40 2.24219 40 5V27.5C40 30.2578 37.7578 32.5 35 32.5H24.1641L14.5 39.75C14.125 40.0312 13.6172 40.0781 13.1875 39.8672C12.7578 39.6562 12.5 39.2266 12.5 38.75V32.5H5C2.24219 32.5 0 30.2578 0 27.5V5ZM16.9531 12.5781C17.6875 11.8438 17.6875 10.6562 16.9531 9.92969C16.2188 9.20312 15.0313 9.19531 14.3047 9.92969L9.30469 14.9297C8.57031 15.6641 8.57031 16.8516 9.30469 17.5781L14.3047 22.5781C15.0391 23.3125 16.2266 23.3125 16.9531 22.5781C17.6797 21.8438 17.6875 20.6562 16.9531 19.9297L13.2812 16.2578L16.9531 12.5859V12.5781ZM25.7031 9.92188C24.9688 9.1875 23.7812 9.1875 23.0547 9.92188C22.3281 10.6562 22.3203 11.8437 23.0547 12.5703L26.7266 16.2422L23.0547 19.9141C22.3203 20.6484 22.3203 21.8359 23.0547 22.5625C23.7891 23.2891 24.9766 23.2969 25.7031 22.5625L30.7031 17.5625C31.4375 16.8281 31.4375 15.6406 30.7031 14.9141L25.7031 9.91406V9.92188Z" fill="current"/>
</g>
<defs>
<clipPath id="clip0_696_14770">
<rect width="40" height="39.9983" fill="current"/>
</clipPath>
</defs>
</svg>
