<svg width="41" height="40" viewBox="0 0 41 40" fill="none" xmlns="http://www.w3.org/2000/svg">
<g clip-path="url(#clip0_1176_20701)">
<path d="M37.605 35.6831L0.604237 6.68309C-0.0471385 6.17309 -0.161013 5.22934 0.349674 4.5769C0.861424 3.92628 1.80155 3.80878 2.45592 4.32234L39.3997 33.2661C40.0509 33.7758 40.1647 34.7198 39.6542 35.3723C39.1987 36.0768 38.255 36.1956 37.605 35.6831Z" fill="#E84A4A"/>
<path d="M3.97363 25.9457C3.97363 28.1488 5.77051 29.8894 7.91738 29.8894H13.8611V35.1388C13.8611 35.7482 14.5643 36.1044 15.0561 35.7451L22.8624 29.8894L25.323 29.8887L3.97363 13.1832V25.9457ZM31.9736 4.0022H7.97363C6.50426 4.0022 5.22738 4.80782 4.53176 5.99345L34.2443 29.2809C35.2855 28.5578 35.9711 27.3572 35.9711 25.9984V7.94569C35.9736 5.79882 34.2299 4.0022 31.9736 4.0022Z" fill="#2D253F"/>
</g>
<defs>
<clipPath id="clip0_1176_20701">
<rect width="40" height="40" fill="white" transform="translate(0.00195312)"/>
</clipPath>
</defs>
</svg>
