<svg width="41" height="40" viewBox="0 0 41 40" fill="none" xmlns="http://www.w3.org/2000/svg">
<g clip-path="url(#clip0_3316_58470)">
<path d="M16.8766 23.8204C16.7239 23.9733 16.5295 24.077 16.3179 24.1195L11.9782 24.9923C11.5957 25.0689 11.2582 24.7313 11.3346 24.349L12.2026 20.0107C12.245 19.7989 12.3491 19.6042 12.5018 19.4517L20.1276 11.8259L24.5034 16.2009L16.8766 23.8204ZM28.1813 12.5157L26.2688 14.4274L21.8931 10.0524L23.8056 8.13994C24.6595 7.28604 26.0446 7.28604 26.8993 8.13994L28.1813 9.42197C29.0329 10.2813 29.0329 11.6642 28.1813 12.5157Z" fill="#E84A4A"/>
<path d="M35.0015 0H5.00146C2.24756 0 0.00146484 2.24609 0.00146484 4.92969V27.3594C0.00146484 30.1133 2.24756 32.2891 5.00146 32.2891H12.5015V38.7813C12.5015 39.5429 13.3804 39.9883 13.9952 39.5391L23.753 32.2188H35.003C37.7569 32.2188 40.003 29.9727 40.003 27.2891V4.92969C40.0015 2.24609 37.8218 0 35.0015 0ZM16.8765 23.8203C16.7237 23.9732 16.5294 24.077 16.3177 24.1194L11.978 24.9922C11.5955 25.0688 11.258 24.7313 11.3344 24.3489L12.2024 20.0106C12.2448 19.7988 12.3489 19.6041 12.5016 19.4516L20.1274 11.8258L24.5032 16.2008L16.8765 23.8203ZM28.1812 12.5156L26.2687 14.4273L21.8929 10.0523L23.8054 8.13984C24.6593 7.28594 26.0444 7.28594 26.8991 8.13984L28.1812 9.42188C29.0327 10.2813 29.0327 11.6641 28.1812 12.5156Z" fill="#2D253F"/>
</g>
<defs>
<clipPath id="clip0_3316_58470">
<rect width="40.0016" height="39.7187" fill="white" transform="translate(0.00146484)"/>
</clipPath>
</defs>
</svg>
