<svg width="40" height="40" viewBox="0 0 40 40" fill="none" xmlns="http://www.w3.org/2000/svg">
<path d="M31.8828 14.8945L25.6328 9.26954C24.8626 8.5786 23.6773 8.63969 22.9836 9.40868C22.2915 10.1802 22.3538 11.3641 23.1227 12.0579L27.8203 16.2852L23.118 20.5164C22.3489 21.2098 22.2867 22.3938 22.9788 23.1656C23.3516 23.5742 23.8594 23.7852 24.375 23.7852C24.823 23.7852 25.2711 23.6265 25.6297 23.3042L31.8797 17.6792C32.2734 17.3242 32.5 16.8164 32.5 16.2852C32.5 15.7539 32.2734 15.2461 31.8828 14.8945ZM17.0156 9.40235C16.2578 8.63672 15.1406 8.57422 14.3672 9.26954L8.11719 14.8945C7.72578 15.2461 7.5 15.7539 7.5 16.2852C7.5 16.8164 7.72586 17.3227 8.12016 17.6789L14.3702 23.3039C14.7266 23.5586 15.1797 23.7852 15.625 23.7852C16.1377 23.7852 16.6477 23.5752 17.0187 23.165C17.7109 22.3935 17.6486 21.2095 16.8796 20.5158L12.1797 16.2852L16.882 12.0539C17.6484 11.293 17.7109 10.1758 17.0156 9.40235Z" fill="#E84A4A"/>
<path d="M35 0.0351562H5C2.24609 0.0351562 0 2.28125 0 4.96484V27.3945C0 30.1484 2.24609 32.3242 5 32.3242H12.5V39.0273C12.5 39.7889 13.3789 40.2344 13.9937 39.7851L23.75 32.4648H35C37.7539 32.4648 40 30.2187 40 27.5352V4.96484C40 2.28125 37.7578 0.0351562 35 0.0351562ZM16.8828 20.5195C17.6519 21.2129 17.7141 22.3969 17.022 23.1687C16.6484 23.5742 16.1406 23.7852 15.625 23.7852C15.177 23.7852 14.7289 23.6265 14.3703 23.3042L8.12031 17.6792C7.72578 17.3242 7.5 16.8164 7.5 16.2852C7.5 15.7539 7.72586 15.2477 8.12016 14.8914L14.3702 9.26641C15.1416 8.57547 16.3256 8.63898 17.0194 9.40555C17.7115 10.177 17.6492 11.361 16.8802 12.0548L12.1797 16.2852L16.8828 20.5195ZM31.8828 17.6758L25.6328 23.3008C25.2734 23.5586 24.8203 23.7852 24.375 23.7852C23.8623 23.7852 23.3523 23.5752 22.9813 23.165C22.2891 22.3935 22.3514 21.2095 23.1204 20.5158L27.8203 16.2852L23.118 12.0539C22.3489 11.3605 22.2867 10.1766 22.9788 9.40469C23.6722 8.63562 24.8577 8.575 25.628 9.26554L31.878 14.8905C32.2734 15.2461 32.5 15.7539 32.5 16.2852C32.5 16.8164 32.2734 17.3242 31.8828 17.6758Z" fill="white"/>
</svg>
