<svg width="40" height="40" viewBox="0 0 40 40" fill="current" xmlns="http://www.w3.org/2000/svg">
<g clip-path="url(#clip0_1176_21373)">
<path d="M0 5.00085C0 2.24304 2.24219 0.000854492 5 0.000854492H35C37.7578 0.000854492 40 2.24304 40 5.00085V27.5009C40 30.2587 37.7578 32.5009 35 32.5009H24.1641L14.5 39.7509C14.125 40.0321 13.6172 40.079 13.1875 39.868C12.7578 39.6571 12.5 39.2274 12.5 38.7509V32.5009H5C2.24219 32.5009 0 30.2587 0 27.5009V5.00085ZM15 13.7509C16.3828 13.7509 17.5 12.6337 17.5 11.2509C17.5 9.86804 16.3828 8.75085 15 8.75085C13.6172 8.75085 12.5 9.86804 12.5 11.2509C12.5 12.6337 13.6172 13.7509 15 13.7509ZM25 13.7509C26.3828 13.7509 27.5 12.6337 27.5 11.2509C27.5 9.86804 26.3828 8.75085 25 8.75085C23.6172 8.75085 22.5 9.86804 22.5 11.2509C22.5 12.6337 23.6172 13.7509 25 13.7509ZM11.7578 18.6024C10.9844 19.2899 10.9219 20.4774 11.6094 21.2509C13.6641 23.5477 16.6641 25.0009 19.9922 25.0009C23.3203 25.0009 26.3203 23.5477 28.375 21.2509C29.0625 20.4774 29 19.2977 28.2266 18.6024C27.4531 17.9071 26.2734 17.9774 25.5781 18.7509C24.2031 20.2899 22.2109 21.2509 19.9844 21.2509C17.7578 21.2509 15.7734 20.2899 14.3906 18.7509C13.7031 17.9774 12.5156 17.9149 11.7422 18.6024H11.7578Z" fill="current"/>
</g>
<defs>
<clipPath id="clip0_1176_21373">
<rect width="40" height="40" fill="current"/>
</clipPath>
</defs>
</svg>
