<svg width="40" height="40" viewBox="0 0 40 40" fill="none" xmlns="http://www.w3.org/2000/svg">
<g clip-path="url(#clip0_1176_20920)">
<path d="M27.2335 13.2343L19.7335 21.9843C19.3976 22.3828 18.9054 22.6171 18.3819 22.5703C18.3585 22.5703 18.3351 22.5703 18.3116 22.5703C17.816 22.5703 17.3374 22.3725 16.9858 22.021L13.2358 18.271C12.5034 17.5385 12.5034 16.3522 13.2358 15.6194C13.9683 14.8866 15.1546 14.887 15.8874 15.6194L18.2069 17.9389L24.389 10.7249C25.0652 9.93892 26.2491 9.85064 27.0327 10.5222C27.8194 11.2656 27.9054 12.4453 27.2335 13.2343Z" fill="#E84A4A"/>
<path d="M34.999 0.140625H4.99902C2.24512 0.140625 -0.000976562 2.38672 -0.000976562 5.07031V27.5C-0.000976562 30.2539 2.24512 32.4297 4.99902 32.4297H12.499V38.9219C12.499 39.6836 13.3779 40.1289 13.9928 39.6797L23.7506 32.3594H35.0006C37.7545 32.3594 40.0006 30.1133 40.0006 27.4297V5.07031C39.999 2.38672 37.8193 0.140625 34.999 0.140625ZM27.2334 13.2344L19.7334 21.9844C19.3975 22.3828 18.9053 22.6172 18.3818 22.5703C18.3584 22.5703 18.335 22.5703 18.3115 22.5703C17.8159 22.5703 17.3373 22.3726 16.9857 22.021L13.2357 18.271C12.5033 17.5386 12.5033 16.3523 13.2357 15.6195C13.9682 14.8866 15.1545 14.887 15.8873 15.6195L18.2068 17.939L24.3889 10.7249C25.0651 9.93898 26.249 9.8507 27.0326 10.5223C27.8193 11.2656 27.9053 12.4453 27.2334 13.2344Z" fill="white"/>
</g>
<defs>
<clipPath id="clip0_1176_20920">
<rect width="40" height="40" fill="white"/>
</clipPath>
</defs>
</svg>
