<svg width="40" height="40" viewBox="0 0 40 40" fill="none" xmlns="http://www.w3.org/2000/svg">
<g clip-path="url(#clip0_2916_46050)">
<path d="M16.25 32.5C16.25 30.4297 14.5703 28.75 12.5 28.75H5C4.3125 28.75 3.75 28.1875 3.75 27.5V5C3.75 4.3125 4.3125 3.75 5 3.75H35C35.6875 3.75 36.25 4.3125 36.25 5V27.5C36.25 28.1875 35.6875 28.75 35 28.75H24.1641C23.3516 28.75 22.5625 29.0156 21.9141 29.5L16.25 33.75V32.5ZM16.2344 38.4531L16.25 38.4375L24.1641 32.5H35C37.7578 32.5 40 30.2578 40 27.5V5C40 2.24219 37.7578 0 35 0H5C2.24219 0 0 2.24219 0 5V27.5C0 30.2578 2.24219 32.5 5 32.5H8.75H12.5V36.25V36.5625V36.5859V37.0859V38.75C12.5 39.2266 12.7656 39.6562 13.1875 39.8672C13.6094 40.0781 14.1172 40.0312 14.5 39.75L15.8359 38.75L16.2344 38.4531ZM16.9531 12.5781C17.6875 11.8438 17.6875 10.6562 16.9531 9.92969C16.2188 9.20312 15.0313 9.19531 14.3047 9.92969L9.30469 14.9297C8.57031 15.6641 8.57031 16.8516 9.30469 17.5781L14.3047 22.5781C15.0391 23.3125 16.2266 23.3125 16.9531 22.5781C17.6797 21.8438 17.6875 20.6562 16.9531 19.9297L13.2812 16.2578L16.9531 12.5859V12.5781ZM25.7031 9.92188C24.9688 9.1875 23.7812 9.1875 23.0547 9.92188C22.3281 10.6562 22.3203 11.8437 23.0547 12.5703L26.7266 16.2422L23.0547 19.9141C22.3203 20.6484 22.3203 21.8359 23.0547 22.5625C23.7891 23.2891 24.9766 23.2969 25.7031 22.5625L30.7031 17.5625C31.4375 16.8281 31.4375 15.6406 30.7031 14.9141L25.7031 9.91406V9.92188Z" fill="#B3B3C3"/>
</g>
<defs>
<clipPath id="clip0_2916_46050">
<rect width="40" height="39.9983" fill="white"/>
</clipPath>
</defs>
</svg>
