<svg width="40" height="40" viewBox="0 0 40 40" fill="current" xmlns="http://www.w3.org/2000/svg">
<g clip-path="url(#clip0_3316_58456)">
<path d="M0 5C0 2.24219 2.24219 0 5 0H35C37.7578 0 40 2.24219 40 5V27.5C40 30.2578 37.7578 32.5 35 32.5H24.1641L14.5 39.75C14.125 40.0312 13.6172 40.0781 13.1875 39.8672C12.7578 39.6562 12.5 39.2266 12.5 38.75V32.5H5C2.24219 32.5 0 30.2578 0 27.5V5ZM26.625 9.60938C25.4766 8.46094 23.6094 8.46094 22.4609 9.60938L21.2969 10.7812L25.4609 14.9453L26.625 13.7812C27.7734 12.6328 27.7734 10.7656 26.625 9.61719V9.60938ZM13.9141 18.1641C13.5938 18.4844 13.3672 18.8828 13.2578 19.3281L12.5391 22.1875C12.4297 22.6172 12.5547 23.0625 12.8672 23.375C13.1797 23.6875 13.625 23.8125 14.0547 23.7031L16.9141 22.9844C17.3516 22.875 17.7578 22.6484 18.0781 22.3281L23.6953 16.7109L19.5312 12.5469L13.9141 18.1641Z" fill="current"/>
</g>
<defs>
<clipPath id="clip0_3316_58456">
<rect width="40" height="39.9983" fill="current"/>
</clipPath>
</defs>
</svg>
