<svg width="41" height="40" viewBox="0 0 41 40" fill="current" xmlns="http://www.w3.org/2000/svg">
<g clip-path="url(#clip0_1176_20694)">
<path d="M2.42682 4.31886C1.77682 3.80636 0.833066 3.92511 0.320566 4.57511C-0.191934 5.22511 -0.0731838 6.16886 0.576816 6.68136L37.5768 35.6814C38.2268 36.1939 39.1706 36.0751 39.6831 35.4251C40.1956 34.7751 40.0768 33.8314 39.4268 33.3189L34.2831 29.2876C35.3206 28.5626 36.0018 27.3626 36.0018 26.0001V8.00011C36.0018 5.79386 34.2081 4.00011 32.0018 4.00011H8.00182C6.52682 4.00011 5.23932 4.79386 4.54557 5.98136L2.42682 4.31886ZM4.00182 26.0001C4.00182 28.2064 5.79557 30.0001 8.00182 30.0001H14.0018V35.0001C14.0018 35.3814 14.2143 35.7251 14.5518 35.8939C14.8893 36.0626 15.2956 36.0251 15.6018 35.8001L23.3331 30.0001H25.3831L4.00182 13.1501V26.0001Z" fill="current"/>
</g>
<defs>
<clipPath id="clip0_1176_20694">
<rect width="40.0007" height="40" fill="current" transform="translate(0.00146484)"/>
</clipPath>
</defs>
</svg>
