<svg width="40" height="40" viewBox="0 0 40 40" fill="none" xmlns="http://www.w3.org/2000/svg">
<g clip-path="url(#clip0_3316_58094)">
<path d="M16.25 32.5C16.25 30.4297 14.5703 28.75 12.5 28.75H5C4.3125 28.75 3.75 28.1875 3.75 27.5V5C3.75 4.3125 4.3125 3.75 5 3.75H35C35.6875 3.75 36.25 4.3125 36.25 5V27.5C36.25 28.1875 35.6875 28.75 35 28.75H24.1641C23.3516 28.75 22.5625 29.0156 21.9141 29.5L16.25 33.75V32.5ZM16.2344 38.4531L16.25 38.4375L24.1641 32.5H35C37.7578 32.5 40 30.2578 40 27.5V5C40 2.24219 37.7578 0 35 0H5C2.24219 0 0 2.24219 0 5V27.5C0 30.2578 2.24219 32.5 5 32.5H8.75H12.5V36.25V36.5625V36.5859V37.0859V38.75C12.5 39.2266 12.7656 39.6562 13.1875 39.8672C13.6094 40.0781 14.1172 40.0312 14.5 39.75L15.8359 38.75L16.2344 38.4531ZM13.2656 9.16406L13.2344 9.25781C12.8906 10.2344 13.3984 11.3047 14.375 11.6484C15.3516 11.9922 16.4219 11.4844 16.7656 10.5078L16.7969 10.4141C16.8828 10.1641 17.125 10 17.3828 10H21.9375C22.5937 10 23.1172 10.5313 23.1172 11.1797C23.1172 11.6016 22.8906 11.9922 22.5234 12.2031L19.0625 14.1875C18.4766 14.5234 18.1172 15.1406 18.1172 15.8125V16.875C18.1172 17.9141 18.9531 18.75 19.9922 18.75C21.0156 18.75 21.8516 17.9297 21.8672 16.9062L24.3906 15.4609C25.9219 14.5781 26.8672 12.9453 26.8672 11.1797C26.8672 8.45313 24.6562 6.25 21.9375 6.25H17.3906C15.5391 6.25 13.8906 7.41406 13.2656 9.16406ZM22.5 23.75C22.5 23.087 22.2366 22.4511 21.7678 21.9822C21.2989 21.5134 20.663 21.25 20 21.25C19.337 21.25 18.7011 21.5134 18.2322 21.9822C17.7634 22.4511 17.5 23.087 17.5 23.75C17.5 24.413 17.7634 25.0489 18.2322 25.5178C18.7011 25.9866 19.337 26.25 20 26.25C20.663 26.25 21.2989 25.9866 21.7678 25.5178C22.2366 25.0489 22.5 24.413 22.5 23.75Z" fill="#B3B3C3"/>
</g>
<defs>
<clipPath id="clip0_3316_58094">
<rect width="40" height="39.9983" fill="white"/>
</clipPath>
</defs>
</svg>
