<svg width="40" height="40" viewBox="0 0 40 40" fill="current" xmlns="http://www.w3.org/2000/svg">
<g clip-path="url(#clip0_3316_58027)">
<path d="M0 5C0 2.24219 2.24219 0 5 0H35C37.7578 0 40 2.24219 40 5V27.5C40 30.2578 37.7578 32.5 35 32.5H24.1641L14.5 39.75C14.125 40.0312 13.6172 40.0781 13.1875 39.8672C12.7578 39.6562 12.5 39.2266 12.5 38.75V32.5H5C2.24219 32.5 0 30.2578 0 27.5V5ZM13.125 8.75C12.0859 8.75 11.25 9.58594 11.25 10.625C11.25 11.6641 12.0859 12.5 13.125 12.5H18.125V23.125C18.125 24.1641 18.9609 25 20 25C21.0391 25 21.875 24.1641 21.875 23.125V12.5H26.875C27.9141 12.5 28.75 11.6641 28.75 10.625C28.75 9.58594 27.9141 8.75 26.875 8.75H20H13.125Z" fill="current"/>
</g>
<defs>
<clipPath id="clip0_3316_58027">
<rect width="40" height="39.9983" fill="current"/>
</clipPath>
</defs>
</svg>
