<svg width="40" height="40" viewBox="0 0 40 40" fill="none" xmlns="http://www.w3.org/2000/svg">
<g clip-path="url(#clip0_2930_46068)">
<path d="M16.25 32.5C16.25 30.4297 14.5703 28.75 12.5 28.75H5C4.3125 28.75 3.75 28.1875 3.75 27.5V5C3.75 4.3125 4.3125 3.75 5 3.75H35C35.6875 3.75 36.25 4.3125 36.25 5V27.5C36.25 28.1875 35.6875 28.75 35 28.75H24.1641C23.3516 28.75 22.5625 29.0156 21.9141 29.5L16.25 33.75V32.5ZM16.2344 38.4531L16.25 38.4375L24.1641 32.5H35C37.7578 32.5 40 30.2578 40 27.5V5C40 2.24219 37.7578 0 35 0H5C2.24219 0 0 2.24219 0 5V27.5C0 30.2578 2.24219 32.5 5 32.5H8.75H12.5V36.25V36.5625V36.5859V37.0859V38.75C12.5 39.2266 12.7656 39.6562 13.1875 39.8672C13.6094 40.0781 14.1172 40.0312 14.5 39.75L15.8359 38.75L16.2344 38.4531ZM28.8281 11.9531C29.5625 11.2188 29.5625 10.0312 28.8281 9.30469C28.0938 8.57812 26.9063 8.57031 26.1797 9.30469L17.5078 17.9766L13.8359 14.3047C13.1016 13.5703 11.9141 13.5703 11.1875 14.3047C10.4609 15.0391 10.4531 16.2266 11.1875 16.9531L16.1875 21.9531C16.9219 22.6875 18.1094 22.6875 18.8359 21.9531L28.8281 11.9531Z" fill="#B3B3C3"/>
</g>
<defs>
<clipPath id="clip0_2930_46068">
<rect width="40" height="39.9983" fill="white"/>
</clipPath>
</defs>
</svg>
