<svg width="40" height="40" viewBox="0 0 40 40" fill="none" xmlns="http://www.w3.org/2000/svg">
<g clip-path="url(#clip0_3316_58031)">
<path d="M16.25 32.5C16.25 30.4297 14.5703 28.75 12.5 28.75H5C4.3125 28.75 3.75 28.1875 3.75 27.5V5C3.75 4.3125 4.3125 3.75 5 3.75H35C35.6875 3.75 36.25 4.3125 36.25 5V27.5C36.25 28.1875 35.6875 28.75 35 28.75H24.1641C23.3516 28.75 22.5625 29.0156 21.9141 29.5L16.25 33.75V32.5ZM16.2344 38.4531L16.25 38.4375L24.1641 32.5H35C37.7578 32.5 40 30.2578 40 27.5V5C40 2.24219 37.7578 0 35 0H5C2.24219 0 0 2.24219 0 5V27.5C0 30.2578 2.24219 32.5 5 32.5H8.75H12.5V36.25V36.5625V36.5859V37.0859V38.75C12.5 39.2266 12.7656 39.6562 13.1875 39.8672C13.6094 40.0781 14.1172 40.0312 14.5 39.75L15.8359 38.75L16.2344 38.4531ZM13.125 8.75C12.0859 8.75 11.25 9.58594 11.25 10.625C11.25 11.6641 12.0859 12.5 13.125 12.5H18.125V23.125C18.125 24.1641 18.9609 25 20 25C21.0391 25 21.875 24.1641 21.875 23.125V12.5H26.875C27.9141 12.5 28.75 11.6641 28.75 10.625C28.75 9.58594 27.9141 8.75 26.875 8.75H20H13.125Z" fill="#B3B3C3"/>
</g>
<defs>
<clipPath id="clip0_3316_58031">
<rect width="40" height="39.9983" fill="white"/>
</clipPath>
</defs>
</svg>
