<svg width="40" height="40" viewBox="0 0 40 40" fill="current" xmlns="http://www.w3.org/2000/svg">
<g clip-path="url(#clip0_1176_20918)">
<path d="M0 5.00098C0 2.24316 2.24219 0.000976562 5 0.000976562H35C37.7578 0.000976562 40 2.24316 40 5.00098V27.501C40 30.2588 37.7578 32.501 35 32.501H24.1641L14.5 39.751C14.125 40.0322 13.6172 40.0791 13.1875 39.8682C12.7578 39.6572 12.5 39.2275 12.5 38.751V32.501H5C2.24219 32.501 0 30.2588 0 27.501V5.00098ZM28.8281 11.9541C29.5625 11.2197 29.5625 10.0322 28.8281 9.30566C28.0938 8.5791 26.9062 8.57129 26.1797 9.30566L17.5078 17.9775L13.8359 14.3057C13.1016 13.5713 11.9141 13.5713 11.1875 14.3057C10.4609 15.04 10.4531 16.2275 11.1875 16.9541L16.1875 21.9541C16.9219 22.6885 18.1094 22.6885 18.8359 21.9541L28.8281 11.9541Z" fill="current"/>
</g>
<defs>
<clipPath id="clip0_1176_20918">
<rect width="40" height="40" fill="current"/>
</clipPath>
</defs>
</svg>
