<svg width="40" height="40" viewBox="0 0 40 40" fill="none" xmlns="http://www.w3.org/2000/svg">
<g clip-path="url(#clip0_2930_46706)">
<path d="M16.25 32.5C16.25 30.4297 14.5703 28.75 12.5 28.75H5C4.3125 28.75 3.75 28.1875 3.75 27.5V5C3.75 4.3125 4.3125 3.75 5 3.75H35C35.6875 3.75 36.25 4.3125 36.25 5V27.5C36.25 28.1875 35.6875 28.75 35 28.75H24.1641C23.3516 28.75 22.5625 29.0156 21.9141 29.5L16.25 33.75V32.5ZM16.2344 38.4531L16.25 38.4375L24.1641 32.5H35C37.7578 32.5 40 30.2578 40 27.5V5C40 2.24219 37.7578 0 35 0H5C2.24219 0 0 2.24219 0 5V27.5C0 30.2578 2.24219 32.5 5 32.5H8.75H12.5V36.25V36.5625V36.5859V37.0859V38.75C12.5 39.2266 12.7656 39.6562 13.1875 39.8672C13.6094 40.0781 14.1172 40.0312 14.5 39.75L15.8359 38.75L16.2344 38.4531ZM15 13.75C15.663 13.75 16.2989 13.4866 16.7678 13.0178C17.2366 12.5489 17.5 11.913 17.5 11.25C17.5 10.587 17.2366 9.95107 16.7678 9.48223C16.2989 9.01339 15.663 8.75 15 8.75C14.337 8.75 13.7011 9.01339 13.2322 9.48223C12.7634 9.95107 12.5 10.587 12.5 11.25C12.5 11.913 12.7634 12.5489 13.2322 13.0178C13.7011 13.4866 14.337 13.75 15 13.75ZM25 13.75C25.663 13.75 26.2989 13.4866 26.7678 13.0178C27.2366 12.5489 27.5 11.913 27.5 11.25C27.5 10.587 27.2366 9.95107 26.7678 9.48223C26.2989 9.01339 25.663 8.75 25 8.75C24.337 8.75 23.7011 9.01339 23.2322 9.48223C22.7634 9.95107 22.5 10.587 22.5 11.25C22.5 11.913 22.7634 12.5489 23.2322 13.0178C23.7011 13.4866 24.337 13.75 25 13.75ZM11.7578 18.6016C10.9844 19.2891 10.9219 20.4766 11.6094 21.25C13.6641 23.5469 16.6641 25 19.9922 25C23.3203 25 26.3203 23.5469 28.375 21.25C29.0625 20.4766 29 19.2969 28.2266 18.6016C27.4531 17.9063 26.2734 17.9766 25.5781 18.75C24.2031 20.2891 22.2109 21.25 19.9844 21.25C17.7578 21.25 15.7734 20.2891 14.3906 18.75C13.7031 17.9766 12.5156 17.9141 11.7422 18.6016H11.7578Z" fill="#B3B3C3"/>
</g>
<defs>
<clipPath id="clip0_2930_46706">
<rect width="40" height="39.9983" fill="white"/>
</clipPath>
</defs>
</svg>
