<svg width="41" height="40" viewBox="0 0 41 40" fill="none" xmlns="http://www.w3.org/2000/svg">
<g clip-path="url(#clip0_3316_58460)">
<path d="M16.2529 32.5C16.2529 30.4297 14.5732 28.75 12.5029 28.75H5.00293C4.31543 28.75 3.75293 28.1875 3.75293 27.5V5C3.75293 4.3125 4.31543 3.75 5.00293 3.75H35.0029C35.6904 3.75 36.2529 4.3125 36.2529 5V27.5C36.2529 28.1875 35.6904 28.75 35.0029 28.75H24.167C23.3545 28.75 22.5654 29.0156 21.917 29.5L16.2529 33.75V32.5ZM16.2373 38.4531L16.2529 38.4375L24.167 32.5H35.0029C37.7607 32.5 40.0029 30.2578 40.0029 27.5V5C40.0029 2.24219 37.7607 0 35.0029 0H5.00293C2.24512 0 0.00292969 2.24219 0.00292969 5V27.5C0.00292969 30.2578 2.24512 32.5 5.00293 32.5H8.75293H12.5029V36.25V36.5625V36.5859V37.0859V38.75C12.5029 39.2266 12.7686 39.6562 13.1904 39.8672C13.6123 40.0781 14.1201 40.0312 14.5029 39.75L15.8389 38.75L16.2373 38.4531ZM26.6279 9.60938C25.4795 8.46094 23.6123 8.46094 22.4639 9.60938L21.2998 10.7812L25.4639 14.9453L26.6279 13.7812C27.7764 12.6328 27.7764 10.7656 26.6279 9.61719V9.60938ZM13.917 18.1641C13.5967 18.4844 13.3701 18.8828 13.2607 19.3281L12.542 22.1875C12.4326 22.6172 12.5576 23.0625 12.8701 23.375C13.1826 23.6875 13.6279 23.8125 14.0576 23.7031L16.917 22.9844C17.3545 22.875 17.7607 22.6484 18.0811 22.3281L23.6982 16.7109L19.5342 12.5469L13.917 18.1641Z" fill="#B3B3C3"/>
</g>
<defs>
<clipPath id="clip0_3316_58460">
<rect width="40" height="39.9983" fill="white" transform="translate(0.00292969)"/>
</clipPath>
</defs>
</svg>
