<svg width="41" height="40" viewBox="0 0 41 40" fill="none" xmlns="http://www.w3.org/2000/svg">
<g clip-path="url(#clip0_3316_58465)">
<path d="M16.8752 23.8204C16.7225 23.9733 16.5281 24.077 16.3164 24.1195L11.9767 24.9923C11.5942 25.0689 11.2567 24.7313 11.3332 24.349L12.2011 20.0107C12.2435 19.7989 12.3476 19.6042 12.5003 19.4517L20.1261 11.8259L24.5019 16.2009L16.8752 23.8204ZM28.1799 12.5157L26.2674 14.4274L21.8916 10.0524L23.8041 8.13994C24.658 7.28604 26.0432 7.28604 26.8978 8.13994L28.1799 9.42197C29.0314 10.2813 29.0314 11.6642 28.1799 12.5157Z" fill="#E84A4A"/>
<path d="M35 0H5C2.24609 0 0 2.24609 0 4.92969V27.3594C0 30.1133 2.24609 32.2891 5 32.2891H12.5V38.7813C12.5 39.5429 13.3789 39.9883 13.9937 39.5391L23.7516 32.2188H35.0016C37.7555 32.2188 40.0016 29.9727 40.0016 27.2891V4.92969C40 2.24609 37.8203 0 35 0ZM16.875 23.8203C16.7223 23.9732 16.5279 24.077 16.3162 24.1194L11.9766 24.9922C11.5941 25.0688 11.2566 24.7313 11.333 24.3489L12.2009 20.0106C12.2434 19.7988 12.3474 19.6041 12.5002 19.4516L20.1259 11.8258L24.5017 16.2008L16.875 23.8203ZM28.1797 12.5156L26.2672 14.4273L21.8914 10.0523L23.8039 8.13984C24.6578 7.28594 26.043 7.28594 26.8977 8.13984L28.1797 9.42188C29.0312 10.2813 29.0312 11.6641 28.1797 12.5156Z" fill="#F9F9F9"/>
</g>
<defs>
<clipPath id="clip0_3316_58465">
<rect width="40.0016" height="39.7187" fill="white"/>
</clipPath>
</defs>
</svg>
