<svg width="48" height="48" viewBox="0 0 48 48" fill="none" xmlns="http://www.w3.org/2000/svg">
<g clip-path="url(#clip0_29639_55334)">
<path d="M0 6C0 2.69063 2.69063 0 6 0H42C45.3094 0 48 2.69063 48 6V33C48 36.3094 45.3094 39 42 39H28.9969L17.4 47.7C16.95 48.0375 16.3406 48.0938 15.825 47.8406C15.3094 47.5875 15 47.0719 15 46.5V39H6C2.69063 39 0 36.3094 0 33L0 6ZM9 19.5C9 20.2956 9.31607 21.0587 9.87868 21.6213C10.4413 22.1839 11.2044 22.5 12 22.5C12.7956 22.5 13.5587 22.1839 14.1213 21.6213C14.6839 21.0587 15 20.2956 15 19.5C15 18.7044 14.6839 17.9413 14.1213 17.3787C13.5587 16.8161 12.7956 16.5 12 16.5C11.2044 16.5 10.4413 16.8161 9.87868 17.3787C9.31607 17.9413 9 18.7044 9 19.5ZM21 19.5C21 20.2956 21.3161 21.0587 21.8787 21.6213C22.4413 22.1839 23.2044 22.5 24 22.5C24.7956 22.5 25.5587 22.1839 26.1213 21.6213C26.6839 21.0587 27 20.2956 27 19.5C27 18.7044 26.6839 17.9413 26.1213 17.3787C25.5587 16.8161 24.7956 16.5 24 16.5C23.2044 16.5 22.4413 16.8161 21.8787 17.3787C21.3161 17.9413 21 18.7044 21 19.5ZM33 19.5C33 20.2956 33.3161 21.0587 33.8787 21.6213C34.4413 22.1839 35.2043 22.5 36 22.5C36.7957 22.5 37.5587 22.1839 38.1213 21.6213C38.6839 21.0587 39 20.2956 39 19.5C39 18.7044 38.6839 17.9413 38.1213 17.3787C37.5587 16.8161 36.7957 16.5 36 16.5C35.2043 16.5 34.4413 16.8161 33.8787 17.3787C33.3161 17.9413 33 18.7044 33 19.5Z" fill="#2E2640"/>
<path d="M9 19.5C9 18.7044 9.31607 17.9413 9.87868 17.3787C10.4413 16.8161 11.2044 16.5 12 16.5C12.7956 16.5 13.5587 16.8161 14.1213 17.3787C14.6839 17.9413 15 18.7044 15 19.5C15 20.2956 14.6839 21.0587 14.1213 21.6213C13.5587 22.1839 12.7956 22.5 12 22.5C11.2044 22.5 10.4413 22.1839 9.87868 21.6213C9.31607 21.0587 9 20.2956 9 19.5ZM21 19.5C21 18.7044 21.3161 17.9413 21.8787 17.3787C22.4413 16.8161 23.2044 16.5 24 16.5C24.7956 16.5 25.5587 16.8161 26.1213 17.3787C26.6839 17.9413 27 18.7044 27 19.5C27 20.2956 26.6839 21.0587 26.1213 21.6213C25.5587 22.1839 24.7956 22.5 24 22.5C23.2044 22.5 22.4413 22.1839 21.8787 21.6213C21.3161 21.0587 21 20.2956 21 19.5ZM36 16.5C36.7956 16.5 37.5587 16.8161 38.1213 17.3787C38.6839 17.9413 39 18.7044 39 19.5C39 20.2956 38.6839 21.0587 38.1213 21.6213C37.5587 22.1839 36.7956 22.5 36 22.5C35.2044 22.5 34.4413 22.1839 33.8787 21.6213C33.3161 21.0587 33 20.2956 33 19.5C33 18.7044 33.3161 17.9413 33.8787 17.3787C34.4413 16.8161 35.2044 16.5 36 16.5Z" fill="#FF4545"/>
</g>
<defs>
<clipPath id="clip0_29639_55334">
<rect width="48" height="48" fill="white"/>
</clipPath>
</defs>
</svg>
