<svg width="40" height="40" viewBox="0 0 40 40" fill="none" xmlns="http://www.w3.org/2000/svg">
<g clip-path="url(#clip0_1176_21382)">
<path d="M25.0002 13.7502C26.3869 13.7502 27.5002 12.637 27.5002 11.3206C27.5002 10.0042 26.3869 8.82056 25.0705 8.82056C23.7541 8.82056 22.6408 9.93384 22.6408 11.3206C22.6408 12.7073 23.6174 13.7502 25.0002 13.7502ZM28.0862 18.6252C27.3051 17.9514 26.1237 18.0491 25.4502 18.8401C24.1018 20.4143 22.1252 21.3206 20.0002 21.3206C17.8815 21.3206 15.8994 20.4127 14.5518 18.8401C13.883 18.0471 12.6877 17.9612 11.9065 18.6252C11.1174 19.2971 11.0393 20.4846 11.7033 21.2659C13.7737 23.6877 16.7885 25.0737 20.0002 25.0737C23.2127 25.0737 26.2315 23.6877 28.3049 21.2659C28.969 20.4846 28.8752 19.2971 28.0862 18.6252ZM15.0002 13.7502C16.3869 13.7502 17.5002 12.637 17.5002 11.3206C17.5002 10.0042 16.3869 8.82056 15.0705 8.82056C13.7541 8.82056 12.6408 9.93384 12.6408 11.3206C12.6408 12.7073 13.6174 13.7502 15.0002 13.7502Z" fill="#E84A4A"/>
<path d="M35 0.0708618H5C2.24609 0.0708618 0 2.31665 0 5.07056V27.5002C0 30.2541 2.24609 32.4299 5 32.4299H12.5V38.9916C12.5 39.7534 13.3789 40.1987 13.9937 39.7494L23.75 32.5002H35C37.7539 32.5002 40 30.2541 40 27.5706V5.07056C40 2.31665 37.7578 0.0708618 35 0.0708618ZM25 8.82056C26.3867 8.82056 27.4297 9.93384 27.4297 11.3206C27.4297 12.7073 26.3164 13.7502 24.9297 13.7502C23.543 13.7502 22.5 12.7112 22.5 11.3206C22.5 9.92993 23.6172 8.82056 25 8.82056ZM15 8.82056C16.3867 8.82056 17.4297 9.93384 17.4297 11.3206C17.4297 12.7073 16.3906 13.7502 15 13.7502C13.6094 13.7502 12.5 12.7112 12.5 11.3206C12.5 9.92993 13.6172 8.82056 15 8.82056ZM28.3047 21.2659C26.2344 23.6877 23.2156 25.0737 20 25.0737C16.7875 25.0737 13.7719 23.6877 11.7031 21.2659C11.0391 20.4846 11.1172 19.3034 11.9082 18.6291C12.6893 17.9651 13.8809 18.053 14.5543 18.844C15.8984 20.4143 17.8828 21.3206 20 21.3206C22.1187 21.3206 24.1008 20.4127 25.4484 18.8401C26.1221 18.0495 27.3039 17.951 28.0844 18.6252C28.875 19.2971 28.9688 20.4846 28.3047 21.2659Z" fill="#2D253F"/>
</g>
<defs>
<clipPath id="clip0_1176_21382">
<rect width="40" height="40" fill="white"/>
</clipPath>
</defs>
</svg>
