<svg width="40" height="40" viewBox="0 0 40 40" fill="current" xmlns="http://www.w3.org/2000/svg">
<g clip-path="url(#clip0_3316_58090)">
<path d="M0 5C0 2.24219 2.24219 0 5 0H35C37.7578 0 40 2.24219 40 5V27.5C40 30.2578 37.7578 32.5 35 32.5H24.1641L14.5 39.75C14.125 40.0312 13.6172 40.0781 13.1875 39.8672C12.7578 39.6562 12.5 39.2266 12.5 38.75V32.5H5C2.24219 32.5 0 30.2578 0 27.5V5ZM13.2656 9.16406L13.2344 9.25781C12.8906 10.2344 13.3984 11.3047 14.375 11.6484C15.3516 11.9922 16.4219 11.4844 16.7656 10.5078L16.7969 10.4141C16.8828 10.1641 17.125 10 17.3828 10H21.9375C22.5937 10 23.1172 10.5313 23.1172 11.1797C23.1172 11.6016 22.8906 11.9922 22.5234 12.2031L19.0625 14.1875C18.4766 14.5234 18.1172 15.1406 18.1172 15.8125V16.875C18.1172 17.9141 18.9531 18.75 19.9922 18.75C21.0156 18.75 21.8516 17.9297 21.8672 16.9062L24.3906 15.4609C25.9219 14.5781 26.8672 12.9453 26.8672 11.1797C26.8672 8.45313 24.6562 6.25 21.9375 6.25H17.3906C15.5391 6.25 13.8906 7.41406 13.2656 9.16406ZM22.5 23.75C22.5 23.087 22.2366 22.4511 21.7678 21.9822C21.2989 21.5134 20.663 21.25 20 21.25C19.337 21.25 18.7011 21.5134 18.2322 21.9822C17.7634 22.4511 17.5 23.087 17.5 23.75C17.5 24.413 17.7634 25.0489 18.2322 25.5178C18.7011 25.9866 19.337 26.25 20 26.25C20.663 26.25 21.2989 25.9866 21.7678 25.5178C22.2366 25.0489 22.5 24.413 22.5 23.75Z" fill="current"/>
</g>
<defs>
<clipPath id="clip0_3316_58090">
<rect width="40" height="39.9983" fill="current"/>
</clipPath>
</defs>
</svg>
