<svg width="40" height="40" viewBox="0 0 40 40" fill="none" xmlns="http://www.w3.org/2000/svg">
<g clip-path="url(#clip0_22098_47904)">
<path d="M14.375 1.875C14.375 0.835938 13.5391 0 12.5 0C11.4609 0 10.625 0.835938 10.625 1.875V5H10C7.24219 5 5 7.24219 5 10V10.625H1.875C0.835938 10.625 0 11.4609 0 12.5C0 13.5391 0.835938 14.375 1.875 14.375H5V18.125H1.875C0.835938 18.125 0 18.9609 0 20C0 21.0391 0.835938 21.875 1.875 21.875H5V25.625H1.875C0.835938 25.625 0 26.4609 0 27.5C0 28.5391 0.835938 29.375 1.875 29.375H5V30C5 32.7578 7.24219 35 10 35H10.625V38.125C10.625 39.1641 11.4609 40 12.5 40C13.5391 40 14.375 39.1641 14.375 38.125V35H18.125V38.125C18.125 39.1641 18.9609 40 20 40C21.0391 40 21.875 39.1641 21.875 38.125V35H25.625V38.125C25.625 39.1641 26.4609 40 27.5 40C28.5391 40 29.375 39.1641 29.375 38.125V35H30C32.7578 35 35 32.7578 35 30V29.375H38.125C39.1641 29.375 40 28.5391 40 27.5C40 26.4609 39.1641 25.625 38.125 25.625H35V21.875H38.125C39.1641 21.875 40 21.0391 40 20C40 18.9609 39.1641 18.125 38.125 18.125H35V14.375H38.125C39.1641 14.375 40 13.5391 40 12.5C40 11.4609 39.1641 10.625 38.125 10.625H35V10C35 7.24219 32.7578 5 30 5H29.375V1.875C29.375 0.835938 28.5391 0 27.5 0C26.4609 0 25.625 0.835938 25.625 1.875V5H21.875V1.875C21.875 0.835938 21.0391 0 20 0C18.9609 0 18.125 0.835938 18.125 1.875V5H14.375V1.875ZM8.75 10C8.75 9.3125 9.3125 8.75 10 8.75H30C30.6875 8.75 31.25 9.3125 31.25 10V30C31.25 30.6875 30.6875 31.25 30 31.25H10C9.3125 31.25 8.75 30.6875 8.75 30V10ZM26.25 13.4375C25.3906 13.4375 24.6875 14.1406 24.6875 15V25C24.6875 25.8594 25.3906 26.5625 26.25 26.5625C27.1094 26.5625 27.8125 25.8594 27.8125 25V15C27.8125 14.1406 27.1094 13.4375 26.25 13.4375ZM18.3047 14.375C18.0547 13.8047 17.4922 13.4375 16.875 13.4375C16.2578 13.4375 15.6953 13.8047 15.4453 14.375L11.0703 24.375C10.7266 25.1641 11.0859 26.0859 11.875 26.4297C12.6641 26.7734 13.5859 26.4141 13.9297 25.625L14.3438 24.6875H19.4062L19.8203 25.625C20.1641 26.4141 21.0859 26.7734 21.875 26.4297C22.6641 26.0859 23.0234 25.1641 22.6797 24.375L18.3047 14.375ZM16.875 18.8984L18.0391 21.5625H15.7109L16.875 18.8984Z" fill="#B3B3C3"/>
</g>
<defs>
<clipPath id="clip0_22098_47904">
<rect width="40" height="40" fill="white"/>
</clipPath>
</defs>
</svg>
