<svg width="48" height="48" viewBox="0 0 48 48" fill="none" xmlns="http://www.w3.org/2000/svg">
<g clip-path="url(#clip0_22098_47889)">
<path d="M16.5 2.25C16.5 1.00312 15.4969 0 14.25 0C13.0031 0 12 1.00312 12 2.25V6H16.5V2.25ZM26.25 6V2.25C26.25 1.00312 25.2469 0 24 0C22.7531 0 21.75 1.00312 21.75 2.25V6H26.25ZM36 6V2.25C36 1.00312 34.9969 0 33.75 0C32.5031 0 31.5 1.00312 31.5 2.25V6H36ZM42 16.5H45.75C46.9969 16.5 48 15.4969 48 14.25C48 13.0031 46.9969 12 45.75 12H42V16.5ZM42 26.25H45.75C46.9969 26.25 48 25.2469 48 24C48 22.7531 46.9969 21.75 45.75 21.75H42V26.25ZM42 36H45.75C46.9969 36 48 34.9969 48 33.75C48 32.5031 46.9969 31.5 45.75 31.5H42V36ZM31.5 42V45.75C31.5 46.9969 32.5031 48 33.75 48C34.9969 48 36 46.9969 36 45.75V42H31.5ZM21.75 42V45.75C21.75 46.9969 22.7531 48 24 48C25.2469 48 26.25 46.9969 26.25 45.75V42H21.75ZM12 42V45.75C12 46.9969 13.0031 48 14.25 48C15.4969 48 16.5 46.9969 16.5 45.75V42H12ZM6 31.5H2.25C1.00312 31.5 0 32.5031 0 33.75C0 34.9969 1.00312 36 2.25 36H6V31.5ZM6 21.75H2.25C1.00312 21.75 0 22.7531 0 24C0 25.2469 1.00312 26.25 2.25 26.25H6V21.75ZM6 12H2.25C1.00312 12 0 13.0031 0 14.25C0 15.4969 1.00312 16.5 2.25 16.5H6V12Z" fill="#FF4545"/>
<path d="M12 6C8.69063 6 6 8.69063 6 12V36C6 39.3094 8.69063 42 12 42H36C39.3094 42 42 39.3094 42 36V12C42 8.69063 39.3094 6 36 6H12ZM20.8781 17.4L24.8156 26.4L26.1281 29.4C26.4563 30.1594 26.1187 31.0406 25.3594 31.3781C24.6 31.7156 23.7188 31.3594 23.3812 30.6094L22.4531 28.5H16.5469L15.6281 30.6C15.3 31.3594 14.4094 31.7063 13.65 31.3688C12.8906 31.0312 12.5437 30.15 12.8812 29.3906L14.1937 26.3906L18.1312 17.3906C18.3656 16.8469 18.9094 16.4906 19.5094 16.4906C20.1094 16.4906 20.6438 16.8469 20.8875 17.3906L20.8781 17.4ZM19.5 21.7406L17.8594 25.5H21.15L19.5 21.7406ZM33 18V30C33 30.825 32.325 31.5 31.5 31.5C30.675 31.5 30 30.825 30 30V18C30 17.175 30.675 16.5 31.5 16.5C32.325 16.5 33 17.175 33 18Z" fill="#2E2640"/>
</g>
<defs>
<clipPath id="clip0_22098_47889">
<rect width="48" height="48" fill="white"/>
</clipPath>
</defs>
</svg>
