<svg width="40" height="40" viewBox="0 0 40 40" fill="current" xmlns="http://www.w3.org/2000/svg">
<g clip-path="url(#clip0_22098_47900)">
<path d="M13.75 1.875C13.75 0.835938 12.9141 0 11.875 0C10.8359 0 10 0.835938 10 1.875V5C7.24219 5 5 7.24219 5 10H1.875C0.835938 10 0 10.8359 0 11.875C0 12.9141 0.835938 13.75 1.875 13.75H5V18.125H1.875C0.835938 18.125 0 18.9609 0 20C0 21.0391 0.835938 21.875 1.875 21.875H5V26.25H1.875C0.835938 26.25 0 27.0859 0 28.125C0 29.1641 0.835938 30 1.875 30H5C5 32.7578 7.24219 35 10 35V38.125C10 39.1641 10.8359 40 11.875 40C12.9141 40 13.75 39.1641 13.75 38.125V35H18.125V38.125C18.125 39.1641 18.9609 40 20 40C21.0391 40 21.875 39.1641 21.875 38.125V35H26.25V38.125C26.25 39.1641 27.0859 40 28.125 40C29.1641 40 30 39.1641 30 38.125V35C32.7578 35 35 32.7578 35 30H38.125C39.1641 30 40 29.1641 40 28.125C40 27.0859 39.1641 26.25 38.125 26.25H35V21.875H38.125C39.1641 21.875 40 21.0391 40 20C40 18.9609 39.1641 18.125 38.125 18.125H35V13.75H38.125C39.1641 13.75 40 12.9141 40 11.875C40 10.8359 39.1641 10 38.125 10H35C35 7.24219 32.7578 5 30 5V1.875C30 0.835938 29.1641 0 28.125 0C27.0859 0 26.25 0.835938 26.25 1.875V5H21.875V1.875C21.875 0.835938 21.0391 0 20 0C18.9609 0 18.125 0.835938 18.125 1.875V5H13.75V1.875ZM16.25 13.75C16.75 13.75 17.1953 14.0469 17.3984 14.5L20.6797 22L21.7734 24.5C22.0469 25.1328 21.7656 25.8672 21.1328 26.1484C20.5 26.4297 19.7656 26.1328 19.4844 25.5078L18.7109 23.75H13.7891L13.0234 25.5C12.75 26.1328 12.0078 26.4219 11.375 26.1406C10.7422 25.8594 10.4531 25.125 10.7344 24.4922L11.8281 21.9922L15.1094 14.4922C15.3047 14.0391 15.7578 13.7422 16.2578 13.7422L16.25 13.75ZM17.6172 21.25L16.25 18.1172L14.8828 21.25H17.625H17.6172ZM26.25 13.75C26.9375 13.75 27.5 14.3125 27.5 15V25C27.5 25.6875 26.9375 26.25 26.25 26.25C25.5625 26.25 25 25.6875 25 25V15C25 14.3125 25.5625 13.75 26.25 13.75Z" fill="current"/>
</g>
<defs>
<clipPath id="clip0_22098_47900">
<rect width="40" height="40" fill="current"/>
</clipPath>
</defs>
</svg>
