<svg width="40" height="40" viewBox="0 0 40 40" fill="none" xmlns="http://www.w3.org/2000/svg">
<path d="M15.7731 5.94015C13.8972 8.98615 12.8164 12.577 12.8164 16.418C12.8164 25.172 18.426 32.6217 26.251 35.3283C25.1433 35.5784 23.991 35.7124 22.803 35.7124C14.1563 35.7124 7.13528 28.6824 7.13528 19.9911C7.13528 13.8365 10.6547 8.52166 15.782 5.94015H15.7731ZM21.3202 0.0446628C10.9852 0.80393 2.84766 9.44172 2.84766 19.9911C2.84766 31.0406 11.7802 40 22.8119 40C27.0817 40 31.0299 38.6601 34.2813 36.3734C34.4511 36.2573 34.6118 36.1322 34.7726 36.0161C35.2014 35.6945 35.6123 35.3551 36.0142 34.9978C36.2554 34.7834 36.4877 34.569 36.7199 34.3457C37.1665 33.908 37.2827 33.2291 36.9968 32.6753C36.711 32.1215 36.0946 31.8088 35.4783 31.916C35.1478 31.9696 34.8173 32.0232 34.4868 32.059C34.0402 32.1036 33.5846 32.1393 33.1201 32.1483C33.0129 32.1483 32.8968 32.1483 32.7896 32.1483C32.7807 32.1483 32.7717 32.1483 32.7628 32.1483C24.1161 32.1304 17.113 25.1005 17.113 16.427C17.113 11.5319 19.3372 7.16391 22.8387 4.2787C22.928 4.1983 23.0263 4.12684 23.1246 4.04645C23.4819 3.76061 23.857 3.49263 24.2411 3.24252C24.518 3.06387 24.8039 2.88522 25.0987 2.72443C25.6435 2.41179 25.9205 1.78651 25.7865 1.1791C25.6525 0.571684 25.1344 0.116123 24.5091 0.062528C24.1875 0.0357303 23.8749 0.017865 23.5533 0.00893242C23.3121 -1.36433e-07 23.062 0 22.8209 0C22.5261 0 22.2402 0.00893263 21.9455 0.0178652C21.74 0.0267977 21.5346 0.0357301 21.3291 0.0535952L21.3202 0.0446628Z" fill="#B3B3C3"/>
</svg>
