<svg width="40" height="40" viewBox="0 0 40 40" fill="current" xmlns="http://www.w3.org/2000/svg">
<path d="M22.8059 0C11.7792 0 2.85059 8.95536 2.85059 20C2.85059 31.0446 11.7792 40 22.8059 40C28.2167 40 33.1184 37.8393 36.7167 34.3393C37.1631 33.9018 37.2792 33.2232 36.9934 32.6696C36.7077 32.1161 36.0917 31.8036 35.4756 31.9107C34.6006 32.0625 33.7077 32.1429 32.7881 32.1429C24.1363 32.1429 17.1184 25.1071 17.1184 16.4286C17.1184 10.5536 20.3327 5.4375 25.0917 2.74107C25.6363 2.42857 25.9131 1.80357 25.7792 1.19643C25.6452 0.589286 25.1274 0.133929 24.5024 0.0803573C23.9399 0.0357144 23.3774 0.00892844 22.8059 0.00892844V0Z" fill="current"/>
</svg>
