<svg width="40" height="41" viewBox="0 0 40 41" fill="none" xmlns="http://www.w3.org/2000/svg">
<path d="M0 10.7242V34.4742C0 36.5446 1.67891 38.2242 3.75 38.2242C5.82109 38.2242 7.5 36.5446 7.5 34.4742V8.22424H2.5C1.11953 8.22424 0 9.34143 0 10.7242ZM21.25 23.2242H13.75C13.0625 23.2242 12.5 23.7867 12.5 24.4742C12.5 25.1617 13.0625 25.7242 13.75 25.7242H21.25C21.9403 25.7242 22.5 25.1646 22.5 24.4742C22.5 23.7867 21.9375 23.2242 21.25 23.2242ZM26.25 25.7242H33.75C34.4403 25.7242 35 25.1646 35 24.4742C35 23.7867 34.4375 23.2242 33.75 23.2242H26.25C25.5625 23.2242 25 23.7867 25 24.4742C25 25.1617 25.5625 25.7242 26.25 25.7242ZM21.25 30.7242H13.75C13.0625 30.7242 12.5 31.2867 12.5 31.9742C12.5 32.6617 13.0625 33.2242 13.75 33.2242H21.25C21.9403 33.2242 22.5 32.6646 22.5 31.9742C22.5 31.2867 21.9375 30.7242 21.25 30.7242ZM33.75 30.7242H26.25C25.5597 30.7242 25 31.2838 25 31.9742C25 32.6646 25.5597 33.2242 26.25 33.2242H33.75C34.4403 33.2242 35 32.6646 35 31.9742C35 31.2867 34.4375 30.7242 33.75 30.7242Z" fill="#E84A4A"/>
<path d="M37.5 3.22424H10C8.61719 3.22424 7.5 4.34377 7.5 5.72424V34.4742C7.5 36.5446 5.82109 38.2242 3.75 38.2242H35C37.7617 38.2242 40 35.986 40 33.2242V5.72424C40 4.34377 38.8828 3.22424 37.5 3.22424ZM21.25 33.2242H13.75C13.0625 33.2242 12.5 32.6617 12.5 31.9742C12.5 31.2867 13.0625 30.7242 13.75 30.7242H21.25C21.9403 30.7242 22.5 31.2838 22.5 31.9742C22.5 32.6617 21.9375 33.2242 21.25 33.2242ZM21.25 25.7242H13.75C13.0625 25.7242 12.5 25.1617 12.5 24.4742C12.5 23.7867 13.0625 23.2242 13.75 23.2242H21.25C21.9375 23.2242 22.5 23.7867 22.5 24.4742C22.5 25.1617 21.9375 25.7242 21.25 25.7242ZM33.75 33.2242H26.25C25.5597 33.2242 25 32.6646 25 31.9742C25 31.2838 25.5597 30.7242 26.25 30.7242H33.75C34.4403 30.7242 35 31.2838 35 31.9742C35 32.6617 34.4375 33.2242 33.75 33.2242ZM33.75 25.7242H26.25C25.5625 25.7242 25 25.1617 25 24.4742C25 23.7867 25.5625 23.2242 26.25 23.2242H33.75C34.4375 23.2242 35 23.7867 35 24.4742C35 25.1617 34.4375 25.7242 33.75 25.7242ZM35 16.9742C35 17.6617 34.4375 18.2242 33.75 18.2242H13.75C13.0625 18.2242 12.5 17.6617 12.5 16.9742V9.47424C12.5 8.78674 13.0625 8.22424 13.75 8.22424H33.75C34.4375 8.22424 35 8.78674 35 9.47424V16.9742Z" fill="#2D253F"/>
</svg>
