<svg width="40" height="41" viewBox="0 0 40 41" fill="none" xmlns="http://www.w3.org/2000/svg">
<path d="M35.625 3.22424H11.875C9.46094 3.22424 7.5 5.18752 7.5 7.59924V32.5992C7.5 33.6321 6.65859 34.4742 5.625 34.4742C4.59141 34.4742 3.75 33.6305 3.75 32.5992V9.47424C3.75 8.43909 2.91016 7.59924 1.875 7.59924C0.839844 7.59924 0 8.43909 0 9.47424V32.5992C0 35.7008 2.52344 38.2242 5.625 38.2242H33.125C36.9164 38.2242 40 35.1406 40 31.3492V7.59924C40 5.18752 38.0391 3.22424 35.625 3.22424ZM36.25 31.3492C36.25 33.0727 34.8484 34.4742 33.125 34.4742H10.9297C11.1328 33.8883 11.25 33.2555 11.25 32.5992V7.59924C11.25 7.25502 11.5308 6.97424 11.875 6.97424H35.625C35.9692 6.97424 36.25 7.25502 36.25 7.59924V31.3492ZM20.625 21.9742H15.625C14.5938 21.9742 13.75 22.818 13.75 23.8492C13.75 24.8805 14.5938 25.7242 15.625 25.7242H20.625C21.6641 25.7242 22.5 24.8883 22.5 23.8492C22.5 22.8102 21.6641 21.9742 20.625 21.9742ZM31.875 21.9742H26.875C25.8438 21.9742 25 22.818 25 23.8492C25 24.8805 25.8438 25.7242 26.875 25.7242H31.875C32.9102 25.7242 33.75 24.8844 33.75 23.8492C33.75 22.8141 32.9141 21.9742 31.875 21.9742ZM20.625 28.2242H15.625C14.5898 28.2242 13.75 29.0641 13.75 30.0992C13.75 31.1344 14.5898 31.9742 15.625 31.9742H20.625C21.6602 31.9742 22.5 31.1344 22.5 30.0992C22.5 29.0641 21.6641 28.2242 20.625 28.2242ZM31.875 28.2242H26.875C25.8438 28.2242 25 29.068 25 30.0992C25 31.1305 25.8398 31.9742 26.875 31.9742H31.875C32.9102 31.9742 33.75 31.1344 33.75 30.0992C33.75 29.0641 32.9141 28.2242 31.875 28.2242ZM31.25 9.47424H16.25C14.8695 9.47424 13.75 10.5938 13.75 11.9742V16.9742C13.75 18.3547 14.8695 19.4742 16.25 19.4742H31.25C32.6305 19.4742 33.75 18.3547 33.75 16.9742V11.9742C33.75 10.5914 32.6328 9.47424 31.25 9.47424Z" fill="#B3B3C3"/>
</svg>
