<svg width="40" height="41" viewBox="0 0 40 41" fill="current" xmlns="http://www.w3.org/2000/svg">
<path d="M7.5 8.22424C7.5 5.46643 9.74219 3.22424 12.5 3.22424H35C37.7578 3.22424 40 5.46643 40 8.22424V33.2242C40 35.9821 37.7578 38.2242 35 38.2242H6.25C2.79688 38.2242 0 35.4274 0 31.9742V10.7242C0 9.34143 1.11719 8.22424 2.5 8.22424C3.88281 8.22424 5 9.34143 5 10.7242V31.9742C5 32.6617 5.5625 33.2242 6.25 33.2242C6.9375 33.2242 7.5 32.6617 7.5 31.9742V8.22424ZM12.5 10.0992V16.3492C12.5 17.3883 13.3359 18.2242 14.375 18.2242H33.125C34.1641 18.2242 35 17.3883 35 16.3492V10.0992C35 9.06018 34.1641 8.22424 33.125 8.22424H14.375C13.3359 8.22424 12.5 9.06018 12.5 10.0992ZM12.5 24.4742C12.5 25.1617 13.0625 25.7242 13.75 25.7242H21.25C21.9375 25.7242 22.5 25.1617 22.5 24.4742C22.5 23.7867 21.9375 23.2242 21.25 23.2242H13.75C13.0625 23.2242 12.5 23.7867 12.5 24.4742ZM25 24.4742C25 25.1617 25.5625 25.7242 26.25 25.7242H33.75C34.4375 25.7242 35 25.1617 35 24.4742C35 23.7867 34.4375 23.2242 33.75 23.2242H26.25C25.5625 23.2242 25 23.7867 25 24.4742ZM12.5 31.9742C12.5 32.6617 13.0625 33.2242 13.75 33.2242H21.25C21.9375 33.2242 22.5 32.6617 22.5 31.9742C22.5 31.2867 21.9375 30.7242 21.25 30.7242H13.75C13.0625 30.7242 12.5 31.2867 12.5 31.9742ZM25 31.9742C25 32.6617 25.5625 33.2242 26.25 33.2242H33.75C34.4375 33.2242 35 32.6617 35 31.9742C35 31.2867 34.4375 30.7242 33.75 30.7242H26.25C25.5625 30.7242 25 31.2867 25 31.9742Z" fill="current"/>
</svg>
