<svg width="40" height="40" viewBox="0 0 40 40" fill="none" xmlns="http://www.w3.org/2000/svg">
<g clip-path="url(#clip0_1176_21331)">
<path d="M25.7144 28.5714V40H26.2054C27.7233 40 29.1786 39.4018 30.2501 38.3304L38.3304 30.25C39.4019 29.1786 40.0001 27.7232 40.0001 26.2054V25.7143H28.5715C26.9911 25.7143 25.7144 26.9911 25.7144 28.5714Z" fill="#E84A4A"/>
<path d="M0 5.71429C0 2.5625 2.5625 0 5.71429 0H34.2857C37.4375 0 40 2.5625 40 5.71429V25.7143H28.5714C26.9911 25.7143 25.7143 26.9911 25.7143 28.5714V40H5.71429C2.5625 40 0 37.4375 0 34.2857V5.71429ZM10 31.4286C10 31.1472 9.94457 30.8685 9.83689 30.6085C9.7292 30.3486 9.57135 30.1123 9.37237 29.9133C9.17339 29.7144 8.93716 29.5565 8.67718 29.4488C8.4172 29.3411 8.13855 29.2857 7.85714 29.2857C7.57574 29.2857 7.29709 29.3411 7.03711 29.4488C6.77712 29.5565 6.5409 29.7144 6.34191 29.9133C6.14293 30.1123 5.98509 30.3486 5.8774 30.6085C5.76971 30.8685 5.71429 31.1472 5.71429 31.4286C5.71429 31.71 5.76971 31.9886 5.8774 32.2486C5.98509 32.5086 6.14293 32.7448 6.34191 32.9438C6.5409 33.1428 6.77712 33.3006 7.03711 33.4083C7.29709 33.516 7.57574 33.5714 7.85714 33.5714C8.13855 33.5714 8.4172 33.516 8.67718 33.4083C8.93716 33.3006 9.17339 33.1428 9.37237 32.9438C9.57135 32.7448 9.7292 32.5086 9.83689 32.2486C9.94457 31.9886 10 31.71 10 31.4286ZM7.85714 6.42857C7.28882 6.42857 6.74378 6.65434 6.34191 7.0562C5.94005 7.45806 5.71429 8.00311 5.71429 8.57143C5.71429 9.13975 5.94005 9.68479 6.34191 10.0867C6.74378 10.4885 7.28882 10.7143 7.85714 10.7143C8.42546 10.7143 8.97051 10.4885 9.37237 10.0867C9.77424 9.68479 10 9.13975 10 8.57143C10 8.00311 9.77424 7.45806 9.37237 7.0562C8.97051 6.65434 8.42546 6.42857 7.85714 6.42857ZM10 20C10 19.7186 9.94457 19.4399 9.83689 19.18C9.7292 18.92 9.57135 18.6838 9.37237 18.4848C9.17339 18.2858 8.93716 18.1279 8.67718 18.0203C8.4172 17.9126 8.13855 17.8571 7.85714 17.8571C7.57574 17.8571 7.29709 17.9126 7.03711 18.0203C6.77712 18.1279 6.5409 18.2858 6.34191 18.4848C6.14293 18.6838 5.98509 18.92 5.8774 19.18C5.76971 19.4399 5.71429 19.7186 5.71429 20C5.71429 20.2814 5.76971 20.5601 5.8774 20.82C5.98509 21.08 6.14293 21.3162 6.34191 21.5152C6.5409 21.7142 6.77712 21.8721 7.03711 21.9797C7.29709 22.0874 7.57574 22.1429 7.85714 22.1429C8.13855 22.1429 8.4172 22.0874 8.67718 21.9797C8.93716 21.8721 9.17339 21.7142 9.37237 21.5152C9.57135 21.3162 9.7292 21.08 9.83689 20.82C9.94457 20.5601 10 20.2814 10 20Z" fill="white"/>
</g>
<defs>
<clipPath id="clip0_1176_21331">
<rect width="40" height="40" fill="white"/>
</clipPath>
</defs>
</svg>
