<svg width="40" height="40" viewBox="0 0 40 40" fill="current" xmlns="http://www.w3.org/2000/svg">
<g clip-path="url(#clip0_1176_21345)">
<path d="M0 5.71429C0 2.5625 2.5625 0 5.71429 0H34.2857C37.4375 0 40 2.5625 40 5.71429V25.7143H30C27.6339 25.7143 25.7143 27.6339 25.7143 30V40H5.71429C2.5625 40 0 37.4375 0 34.2857V5.71429ZM35.9554 28.5714H40L37.1429 31.4286L31.4286 37.1429L28.5714 40V35.9554V30C28.5714 29.2143 29.2143 28.5714 30 28.5714H35.9554ZM10 30.7143C10 30.4329 9.94457 30.1542 9.83689 29.8942C9.7292 29.6343 9.57135 29.398 9.37237 29.1991C9.17339 29.0001 8.93716 28.8422 8.67718 28.7345C8.4172 28.6269 8.13855 28.5714 7.85714 28.5714C7.57574 28.5714 7.29709 28.6269 7.03711 28.7345C6.77712 28.8422 6.5409 29.0001 6.34191 29.1991C6.14293 29.398 5.98509 29.6343 5.8774 29.8942C5.76971 30.1542 5.71429 30.4329 5.71429 30.7143C5.71429 30.9957 5.76971 31.2743 5.8774 31.5343C5.98509 31.7943 6.14293 32.0305 6.34191 32.2295C6.5409 32.4285 6.77712 32.5863 7.03711 32.694C7.29709 32.8017 7.57574 32.8571 7.85714 32.8571C8.13855 32.8571 8.4172 32.8017 8.67718 32.694C8.93716 32.5863 9.17339 32.4285 9.37237 32.2295C9.57135 32.0305 9.7292 31.7943 9.83689 31.5343C9.94457 31.2743 10 30.9957 10 30.7143ZM7.85714 7.14286C7.28882 7.14286 6.74378 7.36862 6.34191 7.77049C5.94005 8.17235 5.71429 8.71739 5.71429 9.28571C5.71429 9.85404 5.94005 10.3991 6.34191 10.8009C6.74378 11.2028 7.28882 11.4286 7.85714 11.4286C8.42546 11.4286 8.97051 11.2028 9.37237 10.8009C9.77424 10.3991 10 9.85404 10 9.28571C10 8.71739 9.77424 8.17235 9.37237 7.77049C8.97051 7.36862 8.42546 7.14286 7.85714 7.14286ZM10 20C10 19.7186 9.94457 19.4399 9.83689 19.18C9.7292 18.92 9.57135 18.6838 9.37237 18.4848C9.17339 18.2858 8.93716 18.1279 8.67718 18.0203C8.4172 17.9126 8.13855 17.8571 7.85714 17.8571C7.57574 17.8571 7.29709 17.9126 7.03711 18.0203C6.77712 18.1279 6.5409 18.2858 6.34191 18.4848C6.14293 18.6838 5.98509 18.92 5.8774 19.18C5.76971 19.4399 5.71429 19.7186 5.71429 20C5.71429 20.2814 5.76971 20.5601 5.8774 20.82C5.98509 21.08 6.14293 21.3162 6.34191 21.5152C6.5409 21.7142 6.77712 21.8721 7.03711 21.9797C7.29709 22.0874 7.57574 22.1429 7.85714 22.1429C8.13855 22.1429 8.4172 22.0874 8.67718 21.9797C8.93716 21.8721 9.17339 21.7142 9.37237 21.5152C9.57135 21.3162 9.7292 21.08 9.83689 20.82C9.94457 20.5601 10 20.2814 10 20Z" fill="current"/>
</g>
<defs>
<clipPath id="clip0_1176_21345">
<rect width="40" height="40" fill="current"/>
</clipPath>
</defs>
</svg>
