<svg width="40" height="40" viewBox="0 0 40 40" fill="none" xmlns="http://www.w3.org/2000/svg">
<g clip-path="url(#clip0_2930_46702)">
<path d="M34.2857 4.28571C35.0714 4.28571 35.7143 4.92857 35.7143 5.71429V25.7143H28.5714C26.9911 25.7143 25.7143 26.9911 25.7143 28.5714V35.7143H5.71429C4.92857 35.7143 4.28571 35.0714 4.28571 34.2857V5.71429C4.28571 4.92857 4.92857 4.28571 5.71429 4.28571H34.2857ZM5.71429 40H25.7143H26.2054C27.7232 40 29.1786 39.4018 30.25 38.3304L38.3304 30.25C39.4018 29.1786 40 27.7232 40 26.2054V25.7143V5.71429C40 2.5625 37.4375 0 34.2857 0H5.71429C2.5625 0 0 2.5625 0 5.71429V34.2857C0 37.4375 2.5625 40 5.71429 40ZM11.4286 29.2857C11.4286 28.7174 11.2028 28.1724 10.8009 27.7705C10.3991 27.3686 9.85404 27.1429 9.28571 27.1429C8.71739 27.1429 8.17235 27.3686 7.77049 27.7705C7.36862 28.1724 7.14286 28.7174 7.14286 29.2857C7.14286 29.854 7.36862 30.3991 7.77049 30.8009C8.17235 31.2028 8.71739 31.4286 9.28571 31.4286C9.85404 31.4286 10.3991 31.2028 10.8009 30.8009C11.2028 30.3991 11.4286 29.854 11.4286 29.2857ZM9.28571 8.57143C8.71739 8.57143 8.17235 8.79719 7.77049 9.19906C7.36862 9.60092 7.14286 10.146 7.14286 10.7143C7.14286 11.2826 7.36862 11.8277 7.77049 12.2295C8.17235 12.6314 8.71739 12.8571 9.28571 12.8571C9.85404 12.8571 10.3991 12.6314 10.8009 12.2295C11.2028 11.8277 11.4286 11.2826 11.4286 10.7143C11.4286 10.146 11.2028 9.60092 10.8009 9.19906C10.3991 8.79719 9.85404 8.57143 9.28571 8.57143ZM11.4286 20C11.4286 19.4317 11.2028 18.8866 10.8009 18.4848C10.3991 18.0829 9.85404 17.8571 9.28571 17.8571C8.71739 17.8571 8.17235 18.0829 7.77049 18.4848C7.36862 18.8866 7.14286 19.4317 7.14286 20C7.14286 20.5683 7.36862 21.1134 7.77049 21.5152C8.17235 21.9171 8.71739 22.1429 9.28571 22.1429C9.85404 22.1429 10.3991 21.9171 10.8009 21.5152C11.2028 21.1134 11.4286 20.5683 11.4286 20Z" fill="#B3B3C3"/>
</g>
<defs>
<clipPath id="clip0_2930_46702">
<rect width="40" height="40" fill="white"/>
</clipPath>
</defs>
</svg>
