<svg width="24" height="24" viewBox="0 0 24 24" fill="none" xmlns="http://www.w3.org/2000/svg">
<g clip-path="url(#clip0_30182_29598)">
<path d="M6.59058 0.993747C7.22339 0.360934 8.0812 0.00468445 8.97651 0.00468445H15.0234C15.9187 0.00468445 16.7765 0.360934 17.4093 0.993747L23.0062 6.59062C23.639 7.22343 23.9953 8.08125 23.9953 8.97656V15.0234C23.9953 15.9187 23.639 16.7766 23.0062 17.4094L17.4093 23.0062C16.7765 23.6391 15.9187 23.9953 15.0234 23.9953H8.97651C8.0812 23.9953 7.22339 23.6391 6.59058 23.0062L0.993701 17.4094C0.360889 16.7766 0.00463867 15.9187 0.00463867 15.0234V8.97656C0.00463867 8.08125 0.360889 7.22343 0.993701 6.59062L6.59058 0.993747ZM10.875 16.125C10.875 16.7484 11.3765 17.25 12 17.25C12.6234 17.25 13.125 16.7484 13.125 16.125V13.125H16.125C16.7484 13.125 17.25 12.6234 17.25 12C17.25 11.3766 16.7484 10.875 16.125 10.875H13.125V7.875C13.125 7.25156 12.6234 6.75 12 6.75C11.3765 6.75 10.875 7.25156 10.875 7.875V10.875H7.87495C7.25151 10.875 6.74995 11.3766 6.74995 12C6.74995 12.6234 7.25151 13.125 7.87495 13.125H10.875V16.125Z" fill="#8C8895"/>
</g>
<defs>
<clipPath id="clip0_30182_29598">
<rect width="24" height="24" fill="white"/>
</clipPath>
</defs>
</svg>
