<svg width="24" height="24" viewBox="0 0 24 24" fill="none" xmlns="http://www.w3.org/2000/svg">
<g clip-path="url(#clip0_30182_29597)">
<path d="M0.00463867 8.97656V15.0234C0.00463867 15.9187 0.360889 16.7766 0.993701 17.4094L6.59058 23.0062C7.22339 23.6391 8.0812 23.9953 8.97651 23.9953H15.0234C15.9187 23.9953 16.7765 23.6391 17.4093 23.0062L23.0062 17.4094C23.639 16.7766 23.9953 15.9187 23.9953 15.0234V8.97656C23.9953 8.08125 23.639 7.22343 23.0062 6.59062L17.4093 0.993747C16.7765 0.360934 15.9187 0.00468445 15.0234 0.00468445H8.97651C8.0812 0.00468445 7.22339 0.360934 6.59058 0.993747L0.993701 6.59062C0.360889 7.22343 0.00463867 8.08125 0.00463867 8.97656ZM6.74995 12C6.74995 11.3766 7.25151 10.875 7.87495 10.875C8.87339 10.875 9.87651 10.875 10.875 10.875C10.875 9.87656 10.875 8.87344 10.875 7.875C10.875 7.25156 11.3765 6.75 12 6.75C12.3093 6.75 12.5906 6.87656 12.7968 7.07812C12.9 7.18125 12.9796 7.30312 13.0359 7.43437C13.064 7.5 13.0875 7.57031 13.1015 7.64531C13.1109 7.70156 13.1203 7.75781 13.1203 7.75781C13.125 7.81406 13.125 7.81406 13.125 7.875C13.125 8.87344 13.125 9.87656 13.125 10.875H16.125C16.7531 10.8797 17.25 11.3812 17.25 12C17.25 12.6234 16.7484 13.125 16.125 13.125C15.1265 13.125 14.1234 13.125 13.125 13.125C13.125 14.1234 13.125 15.1266 13.125 16.1344C13.125 16.1672 13.125 16.2047 13.1203 16.2422C13.1156 16.2797 13.1109 16.3172 13.1015 16.3547C13.0875 16.4297 13.064 16.5 13.0359 16.5656C12.9796 16.7016 12.8953 16.8234 12.7968 16.9219C12.5953 17.1234 12.314 17.25 12 17.25C11.3765 17.25 10.875 16.7484 10.875 16.125C10.875 15.1266 10.875 14.1234 10.875 13.125C9.87651 13.125 8.87339 13.125 7.87495 13.125C7.25151 13.125 6.74995 12.6234 6.74995 12Z" fill="#2E2640"/>
<path d="M10.875 13.125V16.125C10.875 16.7484 11.3766 17.25 12 17.25C12.6234 17.25 13.125 16.7484 13.125 16.125V13.125H16.125C16.7484 13.125 17.25 12.6234 17.25 12C17.25 11.3766 16.7484 10.875 16.125 10.875H13.125V7.875C13.125 7.25156 12.6234 6.75 12 6.75C11.3766 6.75 10.875 7.25156 10.875 7.875V10.875H7.875C7.25156 10.875 6.75 11.3766 6.75 12C6.75 12.6234 7.25156 13.125 7.875 13.125H10.875Z" fill="#FF4545"/>
</g>
<defs>
<clipPath id="clip0_30182_29597">
<rect width="24" height="24" fill="white"/>
</clipPath>
</defs>
</svg>
