<svg width="24" height="19" viewBox="0 0 24 19" fill="current" xmlns="http://www.w3.org/2000/svg">
<g clip-path="url(#clip0_31945_26607)">
<path d="M22.5713 0.593751C21.8663 -0.103905 20.7263 -0.100194 20.025 0.593751L18.54 2.06699L21.8888 5.38086L23.3813 3.93731C24.0975 3.24336 24.1013 2.1041 23.3963 1.40645L22.5713 0.593751ZM12.3188 8.23086C12.0563 8.49063 11.8575 8.80977 11.7413 9.1586L10.8488 11.8045C10.74 12.1236 10.8263 12.4762 11.0663 12.7174C11.3063 12.9586 11.6625 13.0402 11.9888 12.9326L14.67 12.0457C15.015 11.9307 15.33 11.7414 15.5888 11.4891L21.03 6.21582L17.6888 2.90938L12.3188 8.23086ZM3 4.75C1.3425 4.75 0 6.07852 0 7.71875V16.0313C0 17.6715 1.3425 19 3 19H18.6C20.2575 19 21.6 17.6715 21.6 16.0313V11.2813C21.6 10.6244 21.0638 10.0938 20.4 10.0938C19.7362 10.0938 19.2 10.6244 19.2 11.2813V16.0313C19.2 16.3578 18.93 16.625 18.6 16.625H3C2.67 16.625 2.4 16.3578 2.4 16.0313V7.71875C2.4 7.39219 2.67 7.125 3 7.125H10.2C10.8638 7.125 11.4 6.59434 11.4 5.9375C11.4 5.28067 10.8638 4.75 10.2 4.75H3ZM6 11.875C6 11.5601 5.87357 11.258 5.64853 11.0353C5.42348 10.8126 5.11826 10.6875 4.8 10.6875C4.48174 10.6875 4.17652 10.8126 3.95147 11.0353C3.72643 11.258 3.6 11.5601 3.6 11.875C3.6 12.1899 3.72643 12.492 3.95147 12.7147C4.17652 12.9374 4.48174 13.0625 4.8 13.0625C5.11826 13.0625 5.42348 12.9374 5.64853 12.7147C5.87357 12.492 6 12.1899 6 11.875ZM8.4 13.0625C8.71826 13.0625 9.02348 12.9374 9.24853 12.7147C9.47357 12.492 9.6 12.1899 9.6 11.875C9.6 11.5601 9.47357 11.258 9.24853 11.0353C9.02348 10.8126 8.71826 10.6875 8.4 10.6875C8.08174 10.6875 7.77652 10.8126 7.55147 11.0353C7.32643 11.258 7.2 11.5601 7.2 11.875C7.2 12.1899 7.32643 12.492 7.55147 12.7147C7.77652 12.9374 8.08174 13.0625 8.4 13.0625Z" fill="current"/>
</g>
<defs>
<clipPath id="clip0_31945_26607">
<rect width="24" height="19" fill="current"/>
</clipPath>
</defs>
</svg>
