<svg width="24" height="19" viewBox="0 0 24 19" fill="none" xmlns="http://www.w3.org/2000/svg">
<g clip-path="url(#clip0_31945_26618)">
<path d="M21.345 2.19317L21.7912 2.63477C22.1437 2.9836 22.1437 3.54766 21.7912 3.89278L21 4.6795L19.2862 2.9836L20.0662 2.20059C20.4187 1.84805 20.9887 1.84805 21.345 2.19688V2.19317ZM13.4962 8.7875L18.0225 4.24903L19.7287 5.9375L15.1725 10.45C15.0487 10.5725 14.8912 10.6578 14.7225 10.6912L12.8625 11.0772L13.2525 9.23282C13.2862 9.06582 13.3725 8.90996 13.4925 8.79121L13.4962 8.7875ZM18.7875 0.946292L12.2137 7.53692C11.85 7.90059 11.5987 8.36446 11.4937 8.86543L10.8187 12.0457C10.755 12.3389 10.8487 12.6469 11.0625 12.8584C11.2762 13.0699 11.5875 13.1627 11.8837 13.0996L15.09 12.4354C15.6037 12.3277 16.0725 12.0754 16.4437 11.708L23.0662 5.1545C24.12 4.11172 24.12 2.41953 23.0662 1.37676L22.6162 0.935159C21.5587 -0.115036 19.8375 -0.107614 18.7875 0.946292ZM2.7 4.75C1.2075 4.75 0 5.94493 0 7.42188V16.3281C0 17.8051 1.2075 19 2.7 19H18.9C20.3925 19 21.6 17.8051 21.6 16.3281V11.5781C21.6 11.0846 21.1987 10.6875 20.7 10.6875C20.2012 10.6875 19.8 11.0846 19.8 11.5781V16.3281C19.8 16.8217 19.3987 17.2188 18.9 17.2188H2.7C2.20125 17.2188 1.8 16.8217 1.8 16.3281V7.42188C1.8 6.92832 2.20125 6.53125 2.7 6.53125H9.9C10.3987 6.53125 10.8 6.13418 10.8 5.64063C10.8 5.14707 10.3987 4.75 9.9 4.75H2.7ZM4.8 13.0625C5.11826 13.0625 5.42348 12.9374 5.64853 12.7147C5.87357 12.492 6 12.1899 6 11.875C6 11.5601 5.87357 11.258 5.64853 11.0353C5.42348 10.8126 5.11826 10.6875 4.8 10.6875C4.48174 10.6875 4.17652 10.8126 3.95147 11.0353C3.72643 11.258 3.6 11.5601 3.6 11.875C3.6 12.1899 3.72643 12.492 3.95147 12.7147C4.17652 12.9374 4.48174 13.0625 4.8 13.0625ZM9.6 11.875C9.6 11.5601 9.47357 11.258 9.24853 11.0353C9.02348 10.8126 8.71826 10.6875 8.4 10.6875C8.08174 10.6875 7.77652 10.8126 7.55147 11.0353C7.32643 11.258 7.2 11.5601 7.2 11.875C7.2 12.1899 7.32643 12.492 7.55147 12.7147C7.77652 12.9374 8.08174 13.0625 8.4 13.0625C8.71826 13.0625 9.02348 12.9374 9.24853 12.7147C9.47357 12.492 9.6 12.1899 9.6 11.875Z" fill="#B3B3C3"/>
</g>
<defs>
<clipPath id="clip0_31945_26618">
<rect width="24" height="19" fill="white"/>
</clipPath>
</defs>
</svg>
