<svg width="40" height="40" viewBox="0 0 40 40" fill="none" xmlns="http://www.w3.org/2000/svg">
<g clip-path="url(#clip0_18336_59057)">
<path d="M0 12.5C0 8.35938 3.35938 5 7.5 5H15C16.3828 5 17.5 6.11719 17.5 7.5C17.5 8.88281 16.3828 10 15 10H7.5C6.11719 10 5 11.1172 5 12.5V32.5C5 33.8828 6.11719 35 7.5 35H27.5C28.8828 35 30 33.8828 30 32.5V25C30 23.6172 31.1172 22.5 32.5 22.5C33.8828 22.5 35 23.6172 35 25V32.5C35 36.6406 31.6406 40 27.5 40H7.5C3.35938 40 0 36.6406 0 32.5V12.5Z" fill="white"/>
<path d="M30.6563 1.69531L28.3047 4.03906L35.9532 11.6875L38.3047 9.33594C40.0157 7.625 40.0157 4.85938 38.3047 3.14844L36.8438 1.69531C35.1328 -0.015625 32.3672 -0.015625 30.6563 1.69531ZM26.5391 5.80469L13.4688 18.8828C12.9922 19.3594 12.625 19.9453 12.4141 20.5938L10.1016 27.5312C9.87504 28.2031 10.0547 28.9453 10.5547 29.4531C11.0547 29.9609 11.7969 30.1328 12.4766 29.9062L19.4141 27.5938C20.0547 27.3828 20.6407 27.0156 21.125 26.5391L34.1953 13.4609L26.5391 5.80469Z" fill="#FF4545"/>
</g>
<defs>
<clipPath id="clip0_18336_59057">
<rect width="40" height="40" fill="white"/>
</clipPath>
</defs>
</svg>
