<svg width="24" height="19" viewBox="0 0 24 19" fill="none" xmlns="http://www.w3.org/2000/svg">
<g clip-path="url(#clip0_31945_26612)">
<path d="M0 7.71875C0 6.07852 1.3425 4.75 3 4.75H10.2C10.8638 4.75 11.4 5.28066 11.4 5.9375C11.4 6.59434 10.8638 7.125 10.2 7.125H3C2.67 7.125 2.4 7.39219 2.4 7.71875V16.0312C2.4 16.3578 2.67 16.625 3 16.625H18.6C18.93 16.625 19.2 16.3578 19.2 16.0312V11.2812C19.2 10.6244 19.7362 10.0938 20.4 10.0938C21.0638 10.0938 21.6 10.6244 21.6 11.2812V16.0312C21.6 17.6715 20.2575 19 18.6 19H3C1.3425 19 0 17.6715 0 16.0312V7.71875Z" fill="#2E2640"/>
<path d="M20.0287 0.593751L18.54 2.06699L21.8887 5.38086L23.3812 3.93731C24.0975 3.24336 24.1012 2.1041 23.3962 1.40645L22.5712 0.593751C21.8662 -0.103905 20.7262 -0.100194 20.025 0.593751H20.0287ZM17.6887 2.90938L12.3187 8.23086C12.0562 8.49063 11.8575 8.80977 11.7412 9.1586L10.8487 11.8045C10.74 12.1236 10.8262 12.4762 11.0662 12.7174C11.3062 12.9586 11.6625 13.0402 11.9887 12.9326L14.67 12.0457C15.015 11.9307 15.33 11.7414 15.5887 11.4891L21.03 6.21582L17.6887 2.90938ZM5.99998 11.875C5.99998 11.5601 5.87355 11.258 5.6485 11.0353C5.42346 10.8126 5.11824 10.6875 4.79998 10.6875C4.48172 10.6875 4.17649 10.8126 3.95145 11.0353C3.7264 11.258 3.59998 11.5601 3.59998 11.875C3.59998 12.1899 3.7264 12.492 3.95145 12.7147C4.17649 12.9374 4.48172 13.0625 4.79998 13.0625C5.11824 13.0625 5.42346 12.9374 5.6485 12.7147C5.87355 12.492 5.99998 12.1899 5.99998 11.875ZM8.39998 13.0625C8.71824 13.0625 9.02346 12.9374 9.2485 12.7147C9.47355 12.492 9.59998 12.1899 9.59998 11.875C9.59998 11.5601 9.47355 11.258 9.2485 11.0353C9.02346 10.8126 8.71824 10.6875 8.39998 10.6875C8.08172 10.6875 7.77649 10.8126 7.55145 11.0353C7.3264 11.258 7.19998 11.5601 7.19998 11.875C7.19998 12.1899 7.3264 12.492 7.55145 12.7147C7.77649 12.9374 8.08172 13.0625 8.39998 13.0625Z" fill="#FF4545"/>
</g>
<defs>
<clipPath id="clip0_31945_26612">
<rect width="24" height="19" fill="white"/>
</clipPath>
</defs>
</svg>
