<svg width="40" height="40" viewBox="0 0 40 40" fill="none" xmlns="http://www.w3.org/2000/svg">
<g clip-path="url(#clip0_18336_59068)">
<path d="M36.8438 1.69531C35.1328 -0.015625 32.3672 -0.015625 30.6563 1.69531L28.3047 4.03906L35.9531 11.6875L38.3047 9.33594C40.0156 7.625 40.0156 4.85938 38.3047 3.14844L36.8438 1.69531ZM13.4688 18.8828C12.9922 19.3594 12.625 19.9453 12.4141 20.5938L10.1016 27.5312C9.875 28.2031 10.0547 28.9453 10.5547 29.4531C11.0547 29.9609 11.7969 30.1328 12.4766 29.9062L19.4141 27.5938C20.0547 27.3828 20.6406 27.0156 21.125 26.5391L34.1953 13.4609L26.5391 5.80469L13.4688 18.8828ZM7.5 5C3.35938 5 0 8.35938 0 12.5V32.5C0 36.6406 3.35938 40 7.5 40H27.5C31.6406 40 35 36.6406 35 32.5V25C35 23.6172 33.8828 22.5 32.5 22.5C31.1172 22.5 30 23.6172 30 25V32.5C30 33.8828 28.8828 35 27.5 35H7.5C6.11719 35 5 33.8828 5 32.5V12.5C5 11.1172 6.11719 10 7.5 10H15C16.3828 10 17.5 8.88281 17.5 7.5C17.5 6.11719 16.3828 5 15 5H7.5Z" fill="#2E2640"/>
</g>
<defs>
<clipPath id="clip0_18336_59068">
<rect width="40" height="40" fill="white"/>
</clipPath>
</defs>
</svg>
