<svg width="39" height="40" viewBox="0 0 39 40" fill="current" xmlns="http://www.w3.org/2000/svg">
<g clip-path="url(#clip0_3532_70916)">
<path d="M10.0048 10C10.8004 10 11.5635 9.68393 12.1261 9.12132C12.6887 8.55871 13.0048 7.79565 13.0048 7C13.0048 6.20435 12.6887 5.44129 12.1261 4.87868C11.5635 4.31607 10.8004 4 10.0048 4C9.20911 4 8.44605 4.31607 7.88344 4.87868C7.32083 5.44129 7.00476 6.20435 7.00476 7C7.00476 7.79565 7.32083 8.55871 7.88344 9.12132C8.44605 9.68393 9.20911 10 10.0048 10ZM9.50476 34V26H10.5048V34C10.5048 35.1063 11.3985 36 12.5048 36C13.611 36 14.5048 35.1063 14.5048 34V16H18.0048H22.0048H23.0048C24.111 16 25.0048 15.1063 25.0048 14C25.0048 12.8937 24.111 12 23.0048 12H22.0048V8H34.0048V20H22.0048V18H18.0048V21C18.0048 22.6562 19.3485 24 21.0048 24H35.0048C36.661 24 38.0048 22.6562 38.0048 21V7C38.0048 5.34375 36.661 4 35.0048 4H21.0048C19.3485 4 18.0048 5.34375 18.0048 7V12H13.1985H9.07351C6.96726 12 5.01726 13.1063 3.92976 14.9125L0.286011 20.975C-0.282739 21.9188 0.0235111 23.15 0.967261 23.7188C1.91101 24.2875 3.14226 23.9813 3.71101 23.0375L5.50476 20.0562V34C5.50476 35.1063 6.39851 36 7.50476 36C8.61101 36 9.50476 35.1063 9.50476 34Z" fill="current"/>
</g>
<defs>
<clipPath id="clip0_3532_70916">
<rect width="38.0048" height="40" fill="current"/>
</clipPath>
</defs>
</svg>
