<svg width="41" height="40" viewBox="0 0 41 40" fill="none" xmlns="http://www.w3.org/2000/svg">
<g clip-path="url(#clip0_3532_70920)">
<path d="M10.1387 9.33349C10.9874 9.33349 11.8013 8.99635 12.4014 8.39625C13.0015 7.79614 13.3387 6.98222 13.3387 6.13354C13.3387 5.28486 13.0015 4.47094 12.4014 3.87084C11.8013 3.27073 10.9874 2.93359 10.1387 2.93359C9.29003 2.93359 8.47611 3.27073 7.876 3.87084C7.2759 4.47094 6.93876 5.28486 6.93876 6.13354C6.93876 6.98222 7.2759 7.79614 7.876 8.39625C8.47611 8.99635 9.29003 9.33349 10.1387 9.33349ZM9.22539 14.6667H11.2054V23.1999H9.07206V14.6734C9.11873 14.6734 9.17206 14.6667 9.22539 14.6667ZM9.07206 35.4664V26.3999H11.2054V35.4664C11.2054 36.353 11.9187 37.0664 12.8053 37.0664C13.692 37.0664 14.4053 36.353 14.4053 35.4664V14.6667H23.4718C24.3585 14.6667 25.0718 13.9534 25.0718 13.0668C25.0718 12.1801 24.3585 11.4668 23.4718 11.4668H21.8718V6.13354H36.8049V21.0666H21.8718V17.8667H18.6719V21.0666C18.6719 22.8333 20.1052 24.2666 21.8718 24.2666H36.8049C38.5716 24.2666 40.0049 22.8333 40.0049 21.0666V6.13354C40.0049 4.3669 38.5716 2.93359 36.8049 2.93359H21.8718C20.1052 2.93359 18.6719 4.3669 18.6719 6.13354V11.4668H13.5453H9.22539C7.11209 11.4668 5.15879 12.6068 4.11881 14.4467L0.212205 21.3466C-0.221121 22.1133 0.0455417 23.0933 0.818862 23.5266C1.59218 23.9599 2.5655 23.6933 2.99883 22.9199L5.87211 17.84V35.4664C5.87211 36.353 6.58543 37.0664 7.47209 37.0664C8.35874 37.0664 9.07206 36.353 9.07206 35.4664Z" fill="#B3B3C3"/>
</g>
<defs>
<clipPath id="clip0_3532_70920">
<rect width="40" height="40" fill="white" transform="translate(0.00488281)"/>
</clipPath>
</defs>
</svg>
