<svg width="41" height="40" viewBox="0 0 41 40" fill="none" xmlns="http://www.w3.org/2000/svg">
<g clip-path="url(#clip0_3532_70932)">
<path d="M18.9521 12V7C18.9521 5.34312 20.3666 4 22.11 4H36.8469C38.5903 4 40.0048 5.34312 40.0048 7V21C40.0048 22.6562 38.5903 24 36.8469 24H22.11C20.3666 24 18.9521 22.6562 18.9521 21V18H23.1627V20H35.7943V8H23.1627V12H18.9521Z" fill="#E84A4A"/>
<path d="M13.6892 7C13.6892 8.65688 12.2747 10 10.5313 10C8.78787 10 7.37339 8.65688 7.37339 7C7.37339 5.34312 8.78787 4 10.5313 4C12.2747 4 13.6892 5.34312 13.6892 7ZM10.005 26V34C10.005 35.1063 9.06418 36 7.89971 36C6.73523 36 5.79444 35.1063 5.79444 34V20.0562L3.91484 23.0312C3.31615 23.975 2.02273 24.2812 1.02602 23.7125C0.0293126 23.1437 -0.293056 21.9187 0.306286 20.9688L4.13984 14.9125C5.28129 13.1063 7.33392 12 9.55102 12H24.2155C25.38 12 26.3208 12.8937 26.3208 14C26.3208 15.1063 25.38 16 24.2155 16H15.2681V34C15.2681 35.1063 14.3273 36 13.1629 36C11.9984 36 11.0576 35.1063 11.0576 34V26H10.005Z" fill="#2D253F"/>
</g>
<defs>
<clipPath id="clip0_3532_70932">
<rect width="40" height="40" fill="white" transform="translate(0.00488281)"/>
</clipPath>
</defs>
</svg>
