<svg width="40" height="41" viewBox="0 0 40 41" fill="none" xmlns="http://www.w3.org/2000/svg">
<g clip-path="url(#clip0_2887_46098)">
<path d="M16.2491 4.47424C16.2491 3.98179 16.3461 3.49415 16.5346 3.03918C16.723 2.58421 16.9992 2.17081 17.3475 1.82259C17.6957 1.47437 18.1091 1.19815 18.5641 1.00969C19.019 0.82124 19.5067 0.724243 19.9991 0.724243C20.4916 0.724243 20.9792 0.82124 21.4342 1.00969C21.8892 1.19815 22.3025 1.47437 22.6508 1.82259C22.999 2.17081 23.2752 2.58421 23.4637 3.03918C23.6521 3.49415 23.7491 3.98179 23.7491 4.47424C23.7491 4.9667 23.6521 5.45434 23.4637 5.90931C23.2752 6.36428 22.999 6.77767 22.6508 7.12589C22.3025 7.47411 21.8892 7.75034 21.4342 7.93879C20.9792 8.12725 20.4916 8.22424 19.9991 8.22424C19.5067 8.22424 19.019 8.12725 18.5641 7.93879C18.1091 7.75034 17.6957 7.47411 17.3475 7.12589C16.9992 6.77767 16.723 6.36428 16.5346 5.90931C16.3461 5.45434 16.2491 4.9667 16.2491 4.47424ZM18.7491 14.4821V24.4742H21.2491V14.4821C21.1944 14.4821 21.1319 14.4742 21.0694 14.4742H18.9288C18.8663 14.4742 18.8116 14.4742 18.7491 14.4821ZM18.7491 28.2242V38.8492C18.7491 39.8883 17.9132 40.7242 16.8741 40.7242C15.8351 40.7242 14.9991 39.8883 14.9991 38.8492V18.193L11.6319 24.1461C11.1241 25.0446 9.97568 25.3649 9.07724 24.8571C8.1788 24.3492 7.85849 23.2008 8.3663 22.3024L12.9444 14.2164C14.1632 12.0602 16.4522 10.7242 18.9288 10.7242H21.0772C23.5538 10.7242 25.8429 12.0602 27.0616 14.2164L31.6319 22.3024C32.1397 23.2008 31.8272 24.3492 30.921 24.8571C30.0147 25.3649 28.8741 25.0524 28.3663 24.1461L24.9991 18.193V38.8492C24.9991 39.8883 24.1632 40.7242 23.1241 40.7242C22.0851 40.7242 21.2491 39.8883 21.2491 38.8492V28.2242H18.7491Z" fill="#B3B3C3"/>
</g>
<defs>
<clipPath id="clip0_2887_46098">
<rect width="40" height="40" fill="white" transform="translate(0 0.724243)"/>
</clipPath>
</defs>
</svg>
