<svg width="40" height="41" viewBox="0 0 40 41" fill="current" xmlns="http://www.w3.org/2000/svg">
<path d="M23.7332 4.47424C23.7332 6.54456 22.0593 8.22424 19.9961 8.22424C17.933 8.22424 16.259 6.54456 16.259 4.47424C16.259 2.40393 17.933 0.724243 19.9961 0.724243C22.0593 0.724243 23.7332 2.40393 23.7332 4.47424ZM19.3733 28.2242V38.2242C19.3733 39.6071 18.2599 40.7242 16.8819 40.7242C15.5038 40.7242 14.3905 39.6071 14.3905 38.2242V20.7946L12.1638 24.5133C11.4553 25.693 9.92156 26.0758 8.74593 25.3649C7.5703 24.6539 7.18881 23.1149 7.8973 21.9352L12.4363 14.3571C13.791 12.0992 16.2201 10.7164 18.8439 10.7164H21.1562C23.7799 10.7164 26.2091 12.0992 27.5638 14.3571L32.1028 21.9352C32.8113 23.1149 32.4298 24.6539 31.2541 25.3649C30.0785 26.0758 28.5447 25.693 27.8363 24.5133L25.6018 20.7946V38.2242C25.6018 39.6071 24.4884 40.7242 23.1104 40.7242C21.7323 40.7242 20.619 39.6071 20.619 38.2242V28.2242H19.3733Z" fill="current"/>
</svg>
