<svg width="40" height="41" viewBox="0 0 40 41" fill="none" xmlns="http://www.w3.org/2000/svg">
<path d="M14.3763 20.7946L12.1442 24.5133C11.4333 25.693 9.89737 26.0758 8.71378 25.3649C7.53015 24.6539 7.1473 23.1227 7.85855 21.9352L12.4114 14.3649C13.7669 12.1071 16.2044 10.7242 18.8372 10.7242H21.1653C23.7982 10.7242 26.2357 12.1071 27.595 14.3649L32.1419 21.9352C32.8528 23.1227 32.47 24.6539 31.2903 25.3649C30.1028 26.0758 28.5716 25.693 27.8607 24.5133L25.6263 20.7946V38.2242C25.6263 39.6071 24.5091 40.7242 23.1263 40.7242C21.7435 40.7242 20.6263 39.6071 20.6263 38.2242V28.2242H19.3763V38.2242C19.3763 39.6071 18.2591 40.7242 16.8763 40.7242C15.4935 40.7242 14.3763 39.6071 14.3763 38.2242V20.7946Z" fill="white"/>
<path d="M23.7515 4.47424C23.7515 6.54534 22.0718 8.22424 20.0015 8.22424C17.9312 8.22424 16.2515 6.54534 16.2515 4.47424C16.2515 2.40315 17.9312 0.724243 20.0015 0.724243C22.0718 0.724243 23.7515 2.40315 23.7515 4.47424Z" fill="#E84A4A"/>
</svg>
