<svg width="32" height="30" viewBox="0 0 32 30" fill="none" xmlns="http://www.w3.org/2000/svg">
<path d="M1.77778 15H0V16.7778V21.2222C0 24.6611 2.78333 27.4444 6.22222 27.4444C9.66111 27.4444 12.4444 24.6611 12.4444 21.2222V16.7778V15H10.6667H1.77778Z" fill="#FF4545"/>
<path d="M12.4444 15.0001V13.2223V8.77789C12.4444 5.339 9.66111 2.55566 6.22222 2.55566C2.78333 2.55566 0 5.339 0 8.77789V13.2223V15.0001H1.77778H10.6667H12.4444ZM30.8278 22.9668C31.5722 21.6668 32 20.1612 32 18.5557C32 13.6446 28.0222 9.66678 23.1111 9.66678C21.5056 9.66678 20 10.0946 18.7 10.839C18.0167 11.2334 17.9722 12.1557 18.5278 12.7168L28.95 23.139C29.5056 23.6946 30.4333 23.6557 30.8278 22.9668ZM27.5222 26.2723C28.2056 25.8779 28.25 24.9557 27.6944 24.3946L17.2722 13.9723C16.7167 13.4168 15.7889 13.4557 15.3944 14.1446C14.65 15.4446 14.2222 16.9501 14.2222 18.5557C14.2222 23.4668 18.2 27.4446 23.1111 27.4446C24.7167 27.4446 26.2222 27.0168 27.5222 26.2723Z" fill="#2E2640"/>
</svg>
