<svg width="24" height="23" viewBox="0 0 24 23" fill="none" xmlns="http://www.w3.org/2000/svg">
<path d="M1.33333 11.5H0V12.8333V16.1667C0 18.7458 2.0875 20.8333 4.66667 20.8333C7.24583 20.8333 9.33333 18.7458 9.33333 16.1667V12.8333V11.5H8H1.33333Z" fill="#FF4545"/>
<path d="M9.33333 11.5V10.1666V6.83329C9.33333 4.25413 7.24583 2.16663 4.66667 2.16663C2.0875 2.16663 0 4.25413 0 6.83329V10.1666V11.5H1.33333H8H9.33333ZM23.1208 17.475C23.6792 16.5 24 15.3708 24 14.1666C24 10.4833 21.0167 7.49996 17.3333 7.49996C16.1292 7.49996 15 7.82079 14.025 8.37913C13.5125 8.67496 13.4792 9.36663 13.8958 9.78746L21.7125 17.6041C22.1292 18.0208 22.825 17.9916 23.1208 17.475ZM20.6417 19.9541C21.1542 19.6583 21.1875 18.9666 20.7708 18.5458L12.9542 10.7291C12.5375 10.3125 11.8417 10.3416 11.5458 10.8583C10.9875 11.8333 10.6667 12.9625 10.6667 14.1666C10.6667 17.85 13.65 20.8333 17.3333 20.8333C18.5375 20.8333 19.6667 20.5125 20.6417 19.9541Z" fill="white"/>
</svg>
