<svg width="40" height="40" viewBox="0 0 40 40" fill="current" xmlns="http://www.w3.org/2000/svg">
<path d="M31.1458 30.5919C29.5757 30.5919 28.1023 29.988 26.9912 28.8769L21.0008 22.8866C20.5902 22.476 19.8414 22.476 19.4308 22.8866L13.4163 28.9011C12.3052 30.0122 10.8317 30.6161 9.2617 30.6161H8.07812L15.6868 38.2247C18.054 40.5919 21.9187 40.5919 24.2859 38.2247L31.9187 30.5919H31.1458Z" fill="current"/>
<path d="M9.23898 9.38406C10.809 9.38406 12.2825 9.98792 13.3936 11.099L19.4081 17.1135C19.8428 17.5483 20.5433 17.5483 20.9781 17.1135L26.9926 11.1232C28.1037 10.0121 29.5771 9.40821 31.1472 9.40821H31.8718L24.239 1.77536C21.8718 -0.591787 18.0071 -0.591787 15.6399 1.77536L8.03125 9.38406H9.23898Z" fill="current"/>
<path d="M38.2246 15.7126L33.6111 11.0991C33.5145 11.1474 33.3937 11.1716 33.2729 11.1716H31.1715C30.0845 11.1716 29.0217 11.6064 28.2729 12.3793L22.2826 18.3696C21.7271 18.9252 20.9783 19.215 20.2536 19.215C19.529 19.215 18.7802 18.9252 18.2246 18.3696L12.2101 12.3551C11.4372 11.5822 10.3744 11.1474 9.31159 11.1474H6.72705C6.60628 11.1474 6.50966 11.1233 6.41304 11.075L1.77536 15.7126C-0.591787 18.0798 -0.591787 21.9445 1.77536 24.3117L6.38889 28.9252C6.48551 28.8769 6.58213 28.8527 6.7029 28.8527H9.28744C10.3744 28.8527 11.4372 28.4179 12.186 27.645L18.2005 21.6305C19.2874 20.5436 21.1957 20.5436 22.2826 21.6305L28.2729 27.6208C29.0459 28.3938 30.1087 28.8286 31.1715 28.8286H33.2729C33.3937 28.8286 33.4903 28.8527 33.6111 28.901L38.2246 24.2875C40.5918 21.9204 40.5918 18.0798 38.2246 15.7126Z" fill="current"/>
</svg>
