<svg width="40" height="41" viewBox="0 0 40 41" fill="none" xmlns="http://www.w3.org/2000/svg">
<g clip-path="url(#clip0_2887_46032)">
<path d="M1.49707 5.72424C2.32832 5.72424 2.99707 6.39299 2.99707 7.22424V15.2242C2.99707 15.4992 3.22207 15.7242 3.49707 15.7242H3.99707V7.22424C3.99707 6.39299 4.66582 5.72424 5.49707 5.72424C6.32832 5.72424 6.99707 6.39299 6.99707 7.22424V15.7242H7.49707C7.77207 15.7242 7.99707 15.4992 7.99707 15.2242V7.22424C7.99707 6.39299 8.66582 5.72424 9.49707 5.72424C10.3283 5.72424 10.9971 6.39299 10.9971 7.22424V15.2242C10.9971 17.1555 9.42832 18.7242 7.49707 18.7242H6.99707V34.2242C6.99707 35.0555 6.32832 35.7242 5.49707 35.7242C4.66582 35.7242 3.99707 35.0555 3.99707 34.2242V18.7242H3.49707C1.56582 18.7242 -0.00292969 17.1555 -0.00292969 15.2242V7.22424C-0.00292969 6.39299 0.66582 5.72424 1.49707 5.72424ZM34.9971 14.7242V21.7242H36.9971V18.2242V10.0492C35.9596 11.0055 34.9971 12.493 34.9971 14.7242ZM36.9971 24.7242H33.9971C32.8908 24.7242 31.9971 23.8305 31.9971 22.7242V14.7242C31.9971 8.42424 37.2596 6.17424 38.3158 5.78674C38.4408 5.74299 38.5658 5.72424 38.6971 5.72424C39.4158 5.72424 40.0033 6.30549 40.0033 7.03049V18.2242V21.7242V24.7242V34.2242C40.0033 35.0555 39.3346 35.7242 38.5033 35.7242C37.6721 35.7242 37.0033 35.0555 37.0033 34.2242V24.7242H36.9971ZM20.9971 34.7242C15.9033 34.7242 11.4471 32.0055 8.99707 27.9367V20.518C9.35332 20.418 9.69082 20.2805 10.0158 20.118C10.0033 20.318 9.99707 20.5242 9.99707 20.7242C9.99707 26.7992 14.9221 31.7242 20.9971 31.7242C25.4221 31.7242 29.2346 29.1117 30.9783 25.3492C31.6408 26.1117 32.5908 26.618 33.6533 26.7117C31.4096 31.4492 26.5846 34.7242 20.9971 34.7242ZM12.9971 9.23674C15.2658 7.64924 18.0221 6.72424 20.9971 6.72424C24.7658 6.72424 28.1846 8.21174 30.7033 10.6305C30.2971 11.7242 30.0408 12.9742 30.0033 14.3992C28.0096 11.5742 24.7221 9.72424 20.9971 9.72424C17.8471 9.72424 15.0033 11.0492 12.9971 13.1742V9.23674ZM25.9971 20.7242C25.9971 19.3982 25.4703 18.1264 24.5326 17.1887C23.5949 16.251 22.3232 15.7242 20.9971 15.7242C19.671 15.7242 18.3992 16.251 17.4615 17.1887C16.5239 18.1264 15.9971 19.3982 15.9971 20.7242C15.9971 22.0503 16.5239 23.3221 17.4615 24.2598C18.3992 25.1975 19.671 25.7242 20.9971 25.7242C22.3232 25.7242 23.5949 25.1975 24.5326 24.2598C25.4703 23.3221 25.9971 22.0503 25.9971 20.7242ZM12.9971 20.7242C12.9971 18.6025 13.8399 16.5677 15.3402 15.0674C16.8405 13.5671 18.8753 12.7242 20.9971 12.7242C23.1188 12.7242 25.1536 13.5671 26.6539 15.0674C28.1542 16.5677 28.9971 18.6025 28.9971 20.7242C28.9971 22.846 28.1542 24.8808 26.6539 26.3811C25.1536 27.8814 23.1188 28.7242 20.9971 28.7242C18.8753 28.7242 16.8405 27.8814 15.3402 26.3811C13.8399 24.8808 12.9971 22.846 12.9971 20.7242Z" fill="#B3B3C3"/>
</g>
<defs>
<clipPath id="clip0_2887_46032">
<rect width="40" height="40" fill="white" transform="translate(0 0.724243)"/>
</clipPath>
</defs>
</svg>
