<svg width="40" height="41" viewBox="0 0 40 41" fill="current" xmlns="http://www.w3.org/2000/svg">
<path d="M2.54335 5.7273C2.79331 5.74605 2.98703 5.94602 2.99953 6.19598L3.46821 14.226H4.55554L5.50539 6.17098C5.53663 5.92102 5.7491 5.7273 5.99906 5.7273C6.24902 5.7273 6.46774 5.91477 6.49274 6.17098L7.44259 14.226H8.52367L8.99859 6.19598C9.01109 5.94602 9.20481 5.74605 9.45477 5.7273C9.70473 5.70855 9.9297 5.87103 9.98594 6.10849L11.8794 14.151C11.9606 14.4884 11.9981 14.8384 11.9981 15.1883C11.9981 17.6817 9.98594 19.7001 7.49883 19.7189V34.2228C7.49883 35.054 6.83018 35.7226 5.99906 35.7226C5.16794 35.7226 4.4993 35.054 4.4993 34.2228V19.7251C2.01219 19.7064 0 17.6879 0 15.1946C0 14.8446 0.0374941 14.4947 0.118731 14.1572L2.01219 6.11474C2.06843 5.87103 2.29339 5.70855 2.54335 5.73355V5.7273ZM38.3128 5.78979C38.4377 5.74605 38.5627 5.7273 38.694 5.7273C39.4126 5.7273 40 6.30846 40 7.03335V18.2253V24.7243V34.2228C40 35.054 39.3314 35.7226 38.5002 35.7226C37.6691 35.7226 37.0005 35.054 37.0005 34.2228V24.7243H33.9947C32.8886 24.7243 31.995 23.8307 31.995 22.7246V14.7259C31.995 8.42688 37.2567 6.17723 38.3128 5.78979ZM13.8228 13.7011L12.8042 9.37048C15.1101 7.70824 17.9409 6.72714 20.9967 6.72714C24.7649 6.72714 28.1831 8.21441 30.7015 10.6328C30.264 11.8076 29.9953 13.1636 29.9953 14.7259V16.3631C28.3768 13.0262 24.9524 10.7265 20.9967 10.7265C18.1909 10.7265 15.6538 11.8826 13.8353 13.7448L13.8228 13.6948V13.7011ZM20.9967 34.7228C16.235 34.7228 12.0294 32.3419 9.49852 28.7112V21.3998C10.0297 21.2249 10.5359 20.9812 10.9983 20.6875V20.725C10.9983 26.2491 15.4726 30.7234 20.9967 30.7234C25.2523 30.7234 28.883 28.0676 30.3265 24.3244C30.9014 25.6367 32.1575 26.5865 33.651 26.7115C31.4076 31.4483 26.5833 34.7228 20.9967 34.7228ZM28.9955 20.725C28.9955 25.143 25.4148 28.7237 20.9967 28.7237C16.5787 28.7237 12.998 25.143 12.998 20.725C12.998 16.3069 16.5787 12.7262 20.9967 12.7262C25.4148 12.7262 28.9955 16.3069 28.9955 20.725Z" fill="current"/>
</svg>
