<svg width="40" height="41" viewBox="0 0 40 41" fill="none" xmlns="http://www.w3.org/2000/svg">
<path d="M8.14724 19.4378H7.50357V33.325C7.50357 33.6982 7.34733 34.0538 7.00987 34.2637C6.78489 34.5785 6.40369 34.7242 6.00373 34.7242C5.60565 34.7242 5.22444 34.5785 4.94322 34.2637C4.662 34.0538 4.50389 33.6982 4.50389 33.325V19.4378H3.87021C2.74534 19.2338 1.7317 18.6741 0.948035 17.852C0.567264 17.339 0.261048 16.7443 0.109252 16.1089C-0.0426127 15.4734 -0.0360759 14.8146 0.128375 14.1791L1.74607 7.36669C1.79357 7.17604 1.91418 7.00755 2.08541 6.89387C2.25664 6.78076 2.46662 6.73004 2.67597 6.75103C2.8847 6.7726 3.0778 6.86472 3.21841 7.01047C3.35965 7.15564 3.43839 7.34453 3.44026 7.54042V14.7388H4.37203L5.28756 7.3352C5.30881 7.17138 5.39317 7.02038 5.52503 6.91077C5.65752 6.80117 5.82812 6.74054 6.00498 6.74054C6.18121 6.74054 6.35369 6.80117 6.48493 6.91077C6.61616 7.02038 6.70365 7.17138 6.7224 7.3352L7.6348 14.7388H8.56595V7.54042C8.5722 7.34453 8.64719 7.15564 8.79092 7.01047C8.92841 6.86472 9.12214 6.7726 9.33461 6.75103C9.54084 6.73004 9.69707 6.78076 9.92205 6.89387C10.0908 7.00755 10.2158 7.17604 10.2595 7.36669L11.8781 14.1791C12.0468 14.8088 12.0531 15.4676 11.9031 16.103C11.7531 16.7385 11.4469 17.3332 11.0157 17.8462C10.2845 18.6683 9.27212 19.2338 8.14724 19.4378ZM39.0189 6.86122C39.2126 6.93876 39.3938 7.05186 39.5376 7.19412C39.6875 7.33579 39.8063 7.50369 39.8875 7.68792C39.9625 7.87273 40 8.06921 40 8.26801V33.325C40 33.6982 39.8438 34.0538 39.5063 34.2637C39.2813 34.5785 38.9001 34.7242 38.5002 34.7242C38.1002 34.7242 37.719 34.5785 37.4378 34.2637C37.1566 34.0538 37.0003 33.6982 37.0003 33.325V24.4633H34.0007C33.4695 24.4633 32.9633 24.2651 32.5883 23.9153C32.2134 23.5655 32.0009 23.0933 32.0009 22.5977L32.0259 15.0303C32.0134 13.2871 32.5508 11.5789 33.582 10.1226C34.6068 8.66679 36.0754 7.5276 37.8002 6.85014C37.9877 6.77727 38.194 6.68748 38.4002 6.73995C38.6127 6.7417 38.8251 6.7831 39.0189 6.86064V6.86122Z" fill="#E84A4A"/>
<path d="M13.815 13.7657L12.9338 10.0554C15.596 8.29941 18.8332 7.46863 22.089 7.70708C25.3387 7.94553 28.3946 9.23863 30.7318 11.3614C30.2756 12.5355 30.0382 13.7773 30.0319 15.025V16.7856C29.3507 15.4214 28.3321 14.2321 27.051 13.3168C25.7699 12.4073 24.2701 11.7951 22.6827 11.5392C21.0954 11.2838 19.4643 11.3923 17.9333 11.8534C16.4022 12.314 15.0086 13.1185 13.8837 14.1913C13.8587 14.0513 13.865 13.9114 13.815 13.7657ZM26.6573 15.4564C28.1571 16.8556 29.0008 18.7562 29.0008 20.6801C29.0008 22.2076 28.5321 23.6535 27.6509 24.8778C26.776 26.1079 25.5262 27.064 24.0076 27.6296C22.6015 28.1892 20.9954 28.3408 19.4393 28.0493C17.8895 27.7636 16.4647 27.0524 15.346 26.0088C14.2274 24.9652 13.465 23.636 13.1588 22.1376C12.8463 20.7384 13.0088 19.2401 13.6087 17.8759C14.2149 16.5116 15.2398 15.3456 16.5584 14.5294C17.8708 13.7074 19.4206 13.2176 21.0017 13.2176C23.1202 13.2176 25.1575 14.0572 26.6573 15.4564ZM33.6503 26.3061C32.6066 28.3816 30.9943 30.1598 28.9758 31.4657C26.9573 32.7717 24.6013 33.5646 22.1578 33.7511C19.7081 33.9377 17.2458 33.5238 15.0273 32.5443C12.8088 31.5648 10.9028 30.0549 9.50293 28.1718V21.0183C10.0466 20.8375 10.5653 20.5927 11.0528 20.2895C11.0403 20.3886 11.0028 20.581 11.0028 20.6801C10.9465 22.913 11.8152 25.0235 13.3088 26.7026C14.8086 28.3758 16.8834 29.5068 19.1831 29.9033C21.4829 30.2997 23.8514 29.9266 25.8886 28.8539C27.9259 27.7345 29.4945 26.0846 30.3194 24.0441C30.5194 24.4872 30.7568 24.8894 31.1755 25.2334C31.838 25.8514 32.7191 26.2303 33.6503 26.3061Z" fill="#2D253F"/>
</svg>
