<svg width="40" height="40" viewBox="0 0 40 40" fill="current" xmlns="http://www.w3.org/2000/svg">
<g clip-path="url(#clip0_1290_17733)">
<path d="M10 0C7.24219 0 5 2.24219 5 5V12.5H10V5H27.7109L30 7.28906V12.5H35V7.28906C35 5.96094 34.4766 4.6875 33.5391 3.75L31.25 1.46094C30.3125 0.523438 29.0391 0 27.7109 0H10ZM30 27.5V30V35H10V30V28.75V27.5H30ZM35 30H37.5C38.8828 30 40 28.8828 40 27.5V20C40 17.2422 37.7578 15 35 15H5C2.24219 15 0 17.2422 0 20V27.5C0 28.8828 1.11719 30 2.5 30H5V35C5 37.7578 7.24219 40 10 40H30C32.7578 40 35 37.7578 35 35V30ZM33.75 23.125C32.7109 23.125 31.875 22.2891 31.875 21.25C31.875 20.2109 32.7109 19.375 33.75 19.375C34.7891 19.375 35.625 20.2109 35.625 21.25C35.625 22.2891 34.7891 23.125 33.75 23.125Z" fill="current"/>
</g>
<defs>
<clipPath id="clip0_1290_17733">
<rect width="40" height="40" fill="current"/>
</clipPath>
</defs>
</svg>
