<svg width="40" height="40" viewBox="0 0 40 40" fill="none" xmlns="http://www.w3.org/2000/svg">
<g clip-path="url(#clip0_2930_46722)">
<path d="M8.75 12.5V5C8.75 4.3125 9.3125 3.75 10 3.75H27.9297C28.2578 3.75 28.5781 3.88281 28.8125 4.11719L30.8828 6.1875C31.1172 6.42187 31.25 6.74219 31.25 7.07031V12.5H35V7.07031C35 5.74219 34.4766 4.46875 33.5391 3.53125L31.4609 1.46094C30.5234 0.523438 29.2578 0 27.9297 0H10C7.24219 0 5 2.24219 5 5V12.5H8.75ZM10 28.75H30V36.25H10V28.75ZM8.75 25C7.36719 25 6.25 26.1172 6.25 27.5H3.75V20C3.75 19.3125 4.3125 18.75 5 18.75H35C35.6875 18.75 36.25 19.3125 36.25 20V27.5H33.75C33.75 26.1172 32.6328 25 31.25 25H8.75ZM33.75 31.25H37.5C38.8828 31.25 40 30.1328 40 28.75V20C40 17.2422 37.7578 15 35 15H5C2.24219 15 0 17.2422 0 20V28.75C0 30.1328 1.11719 31.25 2.5 31.25H6.25V37.5C6.25 38.8828 7.36719 40 8.75 40H31.25C32.6328 40 33.75 38.8828 33.75 37.5V31.25Z" fill="#B3B3C3"/>
</g>
<defs>
<clipPath id="clip0_2930_46722">
<rect width="40" height="40" fill="white"/>
</clipPath>
</defs>
</svg>
