<svg width="40" height="40" viewBox="0 0 40 40" fill="none" xmlns="http://www.w3.org/2000/svg">
<g clip-path="url(#clip0_1290_17707)">
<path d="M35 15H5C2.23828 15 0 17.2422 0 20V27.5C0 28.8805 1.11953 30 2.5 30H10V27.5H30V30H37.5C38.8805 30 40 28.8805 40 27.5V20C40 17.2422 37.7578 15 35 15ZM33.75 23.125C32.7148 23.125 31.875 22.2852 31.875 21.25C31.875 20.2133 32.7148 19.375 33.75 19.375C34.7852 19.375 35.625 20.2133 35.625 21.25C35.625 22.2891 34.7891 23.125 33.75 23.125Z" fill="#E84A4A"/>
<path d="M30 35H10V30H5V37.5C5 38.8805 6.11953 40 7.5 40H32.5C33.8805 40 35 38.8805 35 37.5V30H30V35ZM34.2656 4.26797L30.7305 0.732813C30.2656 0.263672 29.625 0 28.9688 0H7.5C6.12031 0 5 1.11953 5 2.5V15H10V5H27.9297L30 7.07109V15H35V6.03516C35 5.37266 34.7344 4.73672 34.2656 4.26797Z" fill="white"/>
</g>
<defs>
<clipPath id="clip0_1290_17707">
<rect width="40" height="40" fill="white"/>
</clipPath>
</defs>
</svg>
