<svg width="17" height="16" viewBox="0 0 17 16" fill="none" xmlns="http://www.w3.org/2000/svg">
<path d="M9.78723 9.09473H13.2158V10.19H15.5015V9.09473H16.6444V13.4757H13.2158V12.3804H12.0729V15.6662H9.78723V9.09473ZM14.3587 15.6662H13.2158V14.5709H14.3587V15.6662ZM16.6444 15.6662H15.5015V14.5709H16.6444V15.6662Z" fill="#E84A4A"/>
<path d="M5.78727 0.333008C6.7337 0.333008 7.50155 1.06853 7.50155 1.97586V5.26158C7.50155 6.16857 6.7337 6.90444 5.78727 6.90444H2.3587C1.41191 6.90444 0.644409 6.16857 0.644409 5.26158V1.97586C0.644409 1.06853 1.41191 0.333008 2.3587 0.333008H5.78727ZM5.21584 2.52348H2.93012V4.71396H5.21584V2.52348ZM5.78727 9.09491C6.7337 9.09491 7.50155 9.83078 7.50155 10.7378V14.0235C7.50155 14.9305 6.7337 15.6663 5.78727 15.6663H2.3587C1.41191 15.6663 0.644409 14.9305 0.644409 14.0235V10.7378C0.644409 9.83078 1.41191 9.09491 2.3587 9.09491H5.78727ZM5.21584 11.2854H2.93012V13.4759H5.21584V11.2854ZM9.78727 1.97586C9.78727 1.06853 10.5551 0.333008 11.5016 0.333008H14.9301C15.8766 0.333008 16.6444 1.06853 16.6444 1.97586V5.26158C16.6444 6.16857 15.8766 6.90444 14.9301 6.90444H11.5016C10.5551 6.90444 9.78727 6.16857 9.78727 5.26158V1.97586ZM12.073 4.71396H14.3587V2.52348H12.073V4.71396Z" fill="#2D253F"/>
</svg>
