<svg width="40" height="41" viewBox="0 0 40 41" fill="current" xmlns="http://www.w3.org/2000/svg">
<path d="M14.2858 6.43853C12.7054 6.43853 11.4286 7.71531 11.4286 9.29567C11.4286 10.876 10.1519 12.1528 8.5715 12.1528C6.99114 12.1528 5.71436 10.876 5.71436 9.29567C5.71436 4.56353 9.55364 0.724243 14.2858 0.724243H22.9465C29.2054 0.724243 34.2858 5.8046 34.2858 12.0635C34.2858 16.7421 31.4108 20.9385 27.0536 22.635L21.4286 24.8225V26.4385C21.4286 28.0189 20.1519 29.2957 18.5715 29.2957C16.9911 29.2957 15.7144 28.0189 15.7144 26.4385V24.8225C15.7144 22.4653 17.1608 20.3492 19.3572 19.501L24.9822 17.3135C27.1429 16.4653 28.5715 14.385 28.5715 12.0635C28.5715 8.95639 26.0536 6.43853 22.9465 6.43853H14.2858ZM18.5715 40.7242C16.5983 40.7242 15.0001 39.126 15.0001 37.1528C15.0001 35.1796 16.5983 33.5814 18.5715 33.5814C20.5447 33.5814 22.1429 35.1796 22.1429 37.1528C22.1429 39.126 20.5447 40.7242 18.5715 40.7242Z" fill="current"/>
</svg>
