<svg width="40" height="41" viewBox="0 0 40 41" fill="none" xmlns="http://www.w3.org/2000/svg">
<path d="M23.1758 0.724243H15.4114C11.6159 0.724243 8.52881 3.94 8.52881 7.89361C8.52881 9.21322 9.55474 10.2162 10.823 10.2162C12.0913 10.2162 13.1172 9.14675 13.1172 7.89361C13.1172 6.57624 14.1453 5.50382 15.4114 5.50382H23.1758C25.2191 5.50382 26.8824 7.23567 26.8824 9.37154C26.8824 10.8442 26.0959 12.1698 24.6957 12.9062L17.6913 17.1832C16.9241 17.6163 16.5585 18.4005 16.5585 19.2443V22.2316C16.5585 23.5512 17.5844 24.6206 18.8527 24.6206C20.121 24.6206 21.1469 23.5512 21.1469 22.2316V20.611L26.8824 17.101C29.7121 15.6261 31.4708 12.6635 31.4708 9.37154C31.4708 4.60317 27.7499 0.724243 23.1758 0.724243Z" fill="#2D253F"/>
<path d="M19.9996 34.817C18.4159 34.817 17.1318 36.1546 17.1318 37.8043C17.1318 39.454 18.4159 40.7243 19.9996 40.7243C21.5833 40.7243 22.8673 39.3875 22.8673 37.8043C22.8673 36.221 21.584 34.817 19.9996 34.817Z" fill="#E84A4A"/>
</svg>
