<svg width="40" height="41" viewBox="0 0 40 41" fill="none" xmlns="http://www.w3.org/2000/svg">
<path d="M12.5039 13.2242C12.5039 9.77112 15.3008 6.97424 18.7539 6.97424H21.2539C24.707 6.97424 27.5039 9.77112 27.5039 13.2242V13.5836C27.5039 15.4664 26.5664 17.2242 24.9961 18.2633L20.9102 20.9899C19.1758 22.1461 18.1289 24.0992 18.1289 26.193V26.3492C18.1289 27.3883 18.9648 28.2242 20.0039 28.2242C21.043 28.2242 21.8789 27.3883 21.8789 26.3492V26.193C21.8789 25.3571 22.293 24.5758 22.9883 24.1149L27.0742 21.3883C29.6836 19.6461 31.2461 16.7242 31.2461 13.5914V13.2242C31.2461 7.70081 26.7695 3.22424 21.2461 3.22424H18.7539C13.2305 3.22424 8.75391 7.70081 8.75391 13.2242C8.75391 14.2633 9.58984 15.0992 10.6289 15.0992C11.668 15.0992 12.5039 14.2633 12.5039 13.2242ZM20.0039 38.2242C20.6669 38.2242 21.3028 37.9609 21.7717 37.492C22.2405 37.0232 22.5039 36.3873 22.5039 35.7242C22.5039 35.0612 22.2405 34.4253 21.7717 33.9565C21.3028 33.4876 20.6669 33.2242 20.0039 33.2242C19.3409 33.2242 18.705 33.4876 18.2361 33.9565C17.7673 34.4253 17.5039 35.0612 17.5039 35.7242C17.5039 36.3873 17.7673 37.0232 18.2361 37.492C18.705 37.9609 19.3409 38.2242 20.0039 38.2242Z" fill="#B3B3C3"/>
</svg>
