<svg width="40" height="41" viewBox="0 0 40 41" fill="current" xmlns="http://www.w3.org/2000/svg">
<path d="M12.5 8.22412C13.8828 8.22412 15 7.10693 15 5.72412C15 4.34131 13.8828 3.22412 12.5 3.22412H7.5C3.35938 3.22412 0 6.5835 0 10.7241V30.7241C0 34.8647 3.35938 38.2241 7.5 38.2241H12.5C13.8828 38.2241 15 37.1069 15 35.7241C15 34.3413 13.8828 33.2241 12.5 33.2241H7.5C6.11719 33.2241 5 32.1069 5 30.7241V10.7241C5 9.34131 6.11719 8.22412 7.5 8.22412H12.5ZM39.4141 22.0835C39.7891 21.7319 40 21.2397 40 20.7241C40 20.2085 39.7891 19.7163 39.4141 19.3647L28.1641 8.73975C27.6172 8.22412 26.8203 8.0835 26.1328 8.38037C25.4453 8.67725 25 9.35693 25 10.0991V15.7241H15C13.6172 15.7241 12.5 16.8413 12.5 18.2241V23.2241C12.5 24.6069 13.6172 25.7241 15 25.7241H25V31.3491C25 32.0991 25.4453 32.771 26.1328 33.0679C26.8203 33.3647 27.6172 33.2241 28.1641 32.7085L39.4141 22.0835Z" fill="current"/>
</svg>
