<svg width="40" height="41" viewBox="0 0 40 41" fill="none" xmlns="http://www.w3.org/2000/svg">
<path d="M39.4377 22.0911L28.1799 32.7161C27.635 33.2301 26.8362 33.3704 26.1487 33.0751C25.4609 32.7784 25.0151 32.1008 25.0151 31.3524L25.0079 25.7977L15.0079 25.7976C13.6259 25.7976 12.5063 24.6781 12.5063 23.2976V18.2976C12.5063 16.9172 13.6267 15.7976 15.0079 15.7976L25.0079 15.7977L25.0151 10.1727C25.0151 9.42443 25.4609 8.74693 26.1487 8.45005C26.8364 8.15466 27.6354 8.29505 28.1799 8.80896L39.4377 19.434C40.1877 20.0677 40.1877 21.3802 39.4377 22.0911Z" fill="#E84A4A"/>
<path d="M7.5 38.2241H12.5C13.8828 38.2241 15 37.1069 15 35.7241C15 34.3413 13.8828 33.2241 12.5 33.2241H7.5C6.11953 33.2241 5 32.1046 5 30.7241V10.7241C5 9.34365 6.11953 8.22412 7.5 8.22412H12.5C13.8828 8.22412 15 7.10459 15 5.72412C15 4.34365 13.8828 3.22412 12.5 3.22412H7.5C3.35781 3.22412 0 6.58193 0 10.7241V30.7241C0 34.8647 3.35781 38.2241 7.5 38.2241Z" fill="#2D253F"/>
</svg>
