<svg width="40" height="41" viewBox="0 0 40 41" fill="none" xmlns="http://www.w3.org/2000/svg">
<path d="M27.5 12.646L36.0938 21.2241L27.5 29.8022V25.5991C27.5 24.5601 26.6641 23.7241 25.625 23.7241H16.25V18.7241H25.625C26.6641 18.7241 27.5 17.8882 27.5 16.8491V12.646ZM40 21.2241C40 20.3257 39.6406 19.4663 39.0078 18.8335L29.9375 9.78662C29.2578 9.10693 28.3359 8.72412 27.375 8.72412C25.375 8.72412 23.75 10.3491 23.75 12.3491V14.9741H16.25C14.1797 14.9741 12.5 16.6538 12.5 18.7241V23.7241C12.5 25.7944 14.1797 27.4741 16.25 27.4741H23.75V30.0991C23.75 32.0991 25.375 33.7241 27.375 33.7241C28.3359 33.7241 29.2578 33.3413 29.9375 32.6616L39.0078 23.6147C39.6406 22.9819 40 22.1226 40 21.2241ZM13.125 7.47412C14.1641 7.47412 15 6.63818 15 5.59912C15 4.56006 14.1641 3.72412 13.125 3.72412H6.875C3.07812 3.72412 0 6.80225 0 10.5991V31.8491C0 35.646 3.07812 38.7241 6.875 38.7241H13.125C14.1641 38.7241 15 37.8882 15 36.8491C15 35.8101 14.1641 34.9741 13.125 34.9741H6.875C5.14844 34.9741 3.75 33.5757 3.75 31.8491V10.5991C3.75 8.87256 5.14844 7.47412 6.875 7.47412H13.125Z" fill="#B3B3C3"/>
</svg>
