<svg width="40" height="32" viewBox="0 0 40 32" fill="none" xmlns="http://www.w3.org/2000/svg">
<path d="M2 17V23C2 24.6562 3.34375 26 5 26H6V14H5C3.34375 14 2 15.3438 2 17ZM12 25C12 25.55 12.45 26 13 26H15C15.55 26 16 25.55 16 25C16 24.45 15.55 24 15 24H13C12.45 24 12 24.45 12 25ZM18 2V6H22V2C22 0.89375 21.1063 0 20 0C18.8937 0 18 0.89375 18 2ZM18 25C18 25.55 18.45 26 19 26H21C21.55 26 22 25.55 22 25C22 24.45 21.55 24 21 24H19C18.45 24 18 24.45 18 25ZM24 25C24 25.55 24.45 26 25 26H27C27.55 26 28 25.55 28 25C28 24.45 27.55 24 27 24H25C24.45 24 24 24.45 24 25ZM34 14V26H35C36.6562 26 38 24.6562 38 23V17C38 15.3438 36.6562 14 35 14H34Z" fill="#FF4545"/>
<path d="M10.5 6C8.0125 6 6 8.0125 6 10.5V27.5C6 29.9875 8.0125 32 10.5 32H29.5C31.9875 32 34 29.9875 34 27.5V10.5C34 8.0125 31.9875 6 29.5 6H10.5ZM13 24H15C15.55 24 16 24.45 16 25C16 25.55 15.55 26 15 26H13C12.45 26 12 25.55 12 25C12 24.45 12.45 24 13 24ZM19 24H21C21.55 24 22 24.45 22 25C22 25.55 21.55 26 21 26H19C18.45 26 18 25.55 18 25C18 24.45 18.45 24 19 24ZM25 24H27C27.55 24 28 24.45 28 25C28 25.55 27.55 26 27 26H25C24.45 26 24 25.55 24 25C24 24.45 24.45 24 25 24ZM11.5 16C11.5 15.337 11.7634 14.7011 12.2322 14.2322C12.7011 13.7634 13.337 13.5 14 13.5C14.663 13.5 15.2989 13.7634 15.7678 14.2322C16.2366 14.7011 16.5 15.337 16.5 16C16.5 16.663 16.2366 17.2989 15.7678 17.7678C15.2989 18.2366 14.663 18.5 14 18.5C13.337 18.5 12.7011 18.2366 12.2322 17.7678C11.7634 17.2989 11.5 16.663 11.5 16ZM26 13.5C26.663 13.5 27.2989 13.7634 27.7678 14.2322C28.2366 14.7011 28.5 15.337 28.5 16C28.5 16.663 28.2366 17.2989 27.7678 17.7678C27.2989 18.2366 26.663 18.5 26 18.5C25.337 18.5 24.7011 18.2366 24.2322 17.7678C23.7634 17.2989 23.5 16.663 23.5 16C23.5 15.337 23.7634 14.7011 24.2322 14.2322C24.7011 13.7634 25.337 13.5 26 13.5Z" fill="#2E2640"/>
</svg>
