<svg width="40" height="40" viewBox="0 0 40 40" fill="current" xmlns="http://www.w3.org/2000/svg">
<path d="M36.2109 17.4999H36.875C37.9141 17.4999 38.75 16.664 38.75 15.6249V5.62495C38.75 4.86714 38.2969 4.17964 37.5938 3.89057C36.8906 3.60151 36.0859 3.75776 35.5469 4.29682L32.2969 7.54682C25.4531 0.789012 14.4297 0.812449 7.625 7.62495C0.789062 14.4609 0.789062 25.539 7.625 32.375C14.4609 39.2109 25.5391 39.2109 32.375 32.375C33.3516 31.3984 33.3516 29.8125 32.375 28.8359C31.3984 27.8593 29.8125 27.8593 28.8359 28.8359C23.9531 33.7187 16.0391 33.7187 11.1562 28.8359C6.27344 23.9531 6.27344 16.039 11.1562 11.1562C16.0156 6.29682 23.8672 6.27339 28.7578 11.0781L25.5469 14.2968C25.0078 14.8359 24.8516 15.6406 25.1406 16.3437C25.4297 17.0468 26.1172 17.4999 26.875 17.4999H36.2109Z" fill="current"/>
</svg>
