<svg width="40" height="40" viewBox="0 0 40 40" fill="none" xmlns="http://www.w3.org/2000/svg">
<path d="M29 9.60156C26.5859 7.51562 23.4375 6.25 20 6.25C12.4062 6.25 6.25 12.4062 6.25 20C6.25 27.5938 12.4062 33.75 20 33.75C23.1016 33.75 25.9531 32.7266 28.25 31C29.0781 30.375 30.25 30.5469 30.875 31.375C31.5 32.2031 31.3281 33.375 30.5 34C27.5781 36.1953 23.9375 37.5 20 37.5C10.3359 37.5 2.5 29.6641 2.5 20C2.5 10.3359 10.3359 2.5 20 2.5C24.4766 2.5 28.5625 4.17969 31.6562 6.94531L34.0391 4.5625C34.5547 4.04688 35.2578 3.75781 35.9922 3.75781C37.5156 3.75 38.75 4.98438 38.75 6.50781V15.625C38.75 16.6641 37.9141 17.5 36.875 17.5H27.7578C26.2344 17.5 25 16.2656 25 14.7422C25 14.0078 25.2891 13.3125 25.8047 12.7891L28.9922 9.60156H29ZM35 8.89844L30.1484 13.75H35V8.89844Z" fill="#B3B3C3"/>
</svg>
