<svg width="40" height="40" viewBox="0 0 40 40" fill="none" xmlns="http://www.w3.org/2000/svg">
<g id="Tipo=Outline, Tamanho=40">
<path id="Vector" d="M11 9.60156C13.4141 7.51562 16.5625 6.25 20 6.25C27.5938 6.25 33.75 12.4062 33.75 20C33.75 27.5938 27.5938 33.75 20 33.75C16.8984 33.75 14.0469 32.7266 11.75 31C10.9219 30.375 9.75 30.5469 9.125 31.375C8.5 32.2031 8.67188 33.375 9.5 34C12.4219 36.1953 16.0625 37.5 20 37.5C29.6641 37.5 37.5 29.6641 37.5 20C37.5 10.3359 29.6641 2.5 20 2.5C15.5234 2.5 11.4375 4.17969 8.34375 6.94531L5.96094 4.55469C5.44531 4.03906 4.74219 3.75 4.00781 3.75C2.48438 3.75 1.25 4.98438 1.25 6.50781V15.625C1.25 16.6641 2.08594 17.5 3.125 17.5H12.2422C13.7656 17.5 15 16.2656 15 14.7422C15 14.0078 14.7109 13.3125 14.1953 12.7891L11.0078 9.60156H11ZM5 8.89844L9.85156 13.75H5V8.89844Z" fill="#B3B3C3"/>
</g>
</svg>
