<svg width="40" height="40" viewBox="0 0 40 40" fill="none" xmlns="http://www.w3.org/2000/svg">
<path d="M26.875 17.5001H36.875C37.9141 17.5001 38.75 16.6642 38.75 15.6251V5.62512C38.75 4.86731 38.2969 4.17981 37.5937 3.89074C36.8906 3.60168 36.0859 3.75793 35.5469 4.29699L25.5469 14.297C25.0078 14.8361 24.8516 15.6407 25.1406 16.3439C25.4297 17.047 26.1172 17.5001 26.875 17.5001Z" fill="#FF4545"/>
<path d="M32.2969 7.54695L28.7578 11.086C23.8672 6.28132 16.0156 6.30476 11.1562 11.1641C6.27344 16.0469 6.27344 23.961 11.1562 28.8438C16.0391 33.7266 23.9531 33.7266 28.8359 28.8438C29.8125 27.8673 31.3984 27.8673 32.375 28.8438C33.3516 29.8204 33.3516 31.4063 32.375 32.3829C25.5391 39.2188 14.4609 39.2188 7.625 32.3829C0.789062 25.5469 0.789062 14.4688 7.625 7.63288C14.4375 0.820384 25.4609 0.796946 32.2969 7.55476V7.54695Z" fill="white"/>
</svg>
