<svg width="40" height="40" viewBox="0 0 40 40" fill="none" xmlns="http://www.w3.org/2000/svg">
<g id="Tipo=Duotone2, Tamanho=40">
<path id="Vector" d="M13.125 17.5H3.125C2.08594 17.5 1.25 16.6641 1.25 15.625V5.625C1.25 4.86718 1.70312 4.17968 2.40625 3.89062C3.10938 3.60156 3.91406 3.75781 4.45312 4.29687L14.4531 14.2969C14.9922 14.8359 15.1484 15.6406 14.8594 16.3437C14.5703 17.0469 13.8828 17.5 13.125 17.5Z" fill="#FF4545"/>
<path id="Vector_2" d="M7.70312 7.54689L11.2422 11.0859C16.1328 6.28126 23.9844 6.3047 28.8438 11.1641C33.7266 16.0469 33.7266 23.9609 28.8438 28.8438C23.9609 33.7266 16.0469 33.7266 11.1641 28.8438C10.1875 27.8672 8.60156 27.8672 7.625 28.8438C6.64844 29.8203 6.64844 31.4063 7.625 32.3828C14.4609 39.2188 25.5391 39.2188 32.375 32.3828C39.2109 25.5469 39.2109 14.4688 32.375 7.63282C25.5625 0.820323 14.5391 0.796885 7.70312 7.5547V7.54689Z" fill="#2E2640"/>
</g>
</svg>
