<svg width="40" height="40" viewBox="0 0 40 40" fill="current" xmlns="http://www.w3.org/2000/svg">
<g id="Tipo=S&#195;&#179;lido, Tamanho=40">
<path id="Vector" d="M3.78906 17.5H3.125C2.08594 17.5 1.25 16.6641 1.25 15.625V5.625C1.25 4.86719 1.70312 4.17969 2.40625 3.89063C3.10938 3.60157 3.91406 3.75782 4.45312 4.29688L7.70312 7.54688C14.5469 0.789065 25.5703 0.812503 32.375 7.625C39.2109 14.4609 39.2109 25.5391 32.375 32.375C25.5391 39.2109 14.4609 39.2109 7.625 32.375C6.64844 31.3984 6.64844 29.8125 7.625 28.8359C8.60156 27.8594 10.1875 27.8594 11.1641 28.8359C16.0469 33.7188 23.9609 33.7188 28.8438 28.8359C33.7266 23.9531 33.7266 16.0391 28.8438 11.1563C23.9844 6.29688 16.1328 6.27344 11.2422 11.0781L14.4531 14.2969C14.9922 14.8359 15.1484 15.6406 14.8594 16.3438C14.5703 17.0469 13.8828 17.5 13.125 17.5H3.78906Z" fill="current"/>
</g>
</svg>
