<svg width="40" height="40" viewBox="0 0 40 40" fill="current" xmlns="http://www.w3.org/2000/svg">
<g clip-path="url(#clip0_727_15475)">
<path d="M32.5 7.50391C32.7031 7.50391 32.9062 7.51172 33.1094 7.51953C31.7344 5.98047 29.7266 5.00391 27.5 5.00391C26.8203 5.00391 26.1563 5.09766 25.5234 5.26953C24.1797 2.16797 21.0938 0.00390625 17.5 0.00390625C13.9062 0.00390625 10.8203 2.16797 9.47656 5.26953C8.85156 5.09766 8.1875 5.00391 7.5 5.00391C3.35938 5.00391 0 8.36328 0 12.5039C0 16.6445 3.35938 20.0039 7.5 20.0039H13.2344L6.61719 13.3867C6.13281 12.9023 6.13281 12.1055 6.61719 11.6211C7.10156 11.1367 7.89844 11.1367 8.38281 11.6211L16.25 19.4883V8.75391C16.25 8.06641 16.8125 7.50391 17.5 7.50391C18.1875 7.50391 18.75 8.06641 18.75 8.75391V20.0039H22.8125C22.6094 19.207 22.5 18.3633 22.5 17.5039C22.5 11.9805 26.9766 7.50391 32.5 7.50391ZM2.14062 22.5039C0.960937 22.5039 0 23.4648 0 24.6445C0 30.1523 3.46875 34.8555 8.33594 36.6836L8.47656 37.8086C8.63281 39.0586 9.69531 39.9961 10.9609 39.9961H29.0469C30.3047 39.9961 31.375 39.0586 31.5313 37.8086L31.6719 36.6836C36.5312 34.8555 40 30.1523 40 24.6445C40 23.4648 39.0391 22.5039 37.8594 22.5039H2.14062ZM40 17.5039C40 13.3633 36.6406 10.0039 32.5 10.0039C28.3594 10.0039 25 13.3633 25 17.5039C25 18.3789 25.1484 19.2227 25.4297 20.0039H39.5703C39.8438 19.2227 40 18.3789 40 17.5039Z" fill="current"/>
</g>
<defs>
<clipPath id="clip0_727_15475">
<rect width="40" height="40" fill="current"/>
</clipPath>
</defs>
</svg>
