<svg width="40" height="40" viewBox="0 0 40 40" fill="none" xmlns="http://www.w3.org/2000/svg">
<path d="M38.7341 22.4999H1.26479C0.551124 22.4999 -0.0546687 23.1093 0.00392468 23.8202C0.53189 29.7874 4.55702 34.7108 10.0117 36.6248V37.4998C10.0117 38.8764 11.1406 39.9998 12.5187 39.9998H27.5342C28.9131 39.9998 30.0373 38.8764 30.0373 37.4998V36.6014C35.4639 34.6779 39.4748 29.7655 39.9904 23.8202C40.0544 23.1093 39.4607 22.4999 38.7341 22.4999ZM13.2342 19.9999H18.7498V8.74999C18.7498 8.0625 18.1873 7.5 17.4998 7.5C16.8124 7.5 16.2499 8.0625 16.2499 8.74999V19.4843L8.38272 11.6172C7.89444 11.1289 7.10304 11.1289 6.61554 11.6172C6.12804 12.1054 6.12726 12.8968 6.61554 13.3843L13.2342 19.9999Z" fill="#2D253F"/>
<path d="M32.5154 7.49995C32.7204 7.49995 32.9159 7.54878 33.121 7.55854C31.7419 6.00621 29.7576 4.99997 27.5154 4.99997C26.851 5.00973 26.1795 5.1102 25.5443 5.29575C24.1638 2.0828 21.0076 0 17.5076 0C14.0155 0 10.8514 2.07967 9.46863 5.29293C8.83582 5.10778 8.17176 5.01012 7.50692 4.99997C3.36476 4.99997 0.00390625 8.35932 0.00390625 12.4999C0.00390625 16.6405 3.36482 19.9999 7.50698 19.9999H13.2327L6.6163 13.3827C6.12802 12.8944 6.12802 12.103 6.6163 11.6155C7.10458 11.1281 7.89598 11.1273 8.38348 11.6155L16.2498 19.4842V8.74994C16.2498 8.06245 16.8123 7.49995 17.4998 7.49995C18.1873 7.49995 18.7498 8.05901 18.7498 8.74994V19.9999H22.8639C22.6392 19.1889 22.5221 18.3499 22.5123 17.4999C22.5232 11.9843 26.9998 7.51011 32.5154 7.49995ZM32.4997 9.99993C28.3576 9.99993 24.9998 13.3577 24.9998 17.4999C24.9998 18.3811 25.1799 19.2147 25.4591 19.9999H39.5371C39.82 19.2108 39.9997 18.3827 39.9997 17.4999C39.9997 13.289 36.6403 9.99993 32.4997 9.99993Z" fill="#E84A4A"/>
</svg>
