<svg width="40" height="40" viewBox="0 0 40 40" fill="none" xmlns="http://www.w3.org/2000/svg">
<g clip-path="url(#clip0_2916_46124)">
<path d="M32.5 7.5C26.9766 7.5 22.5 11.9766 22.5 17.5C22.5 18.3594 22.6094 19.2031 22.8125 20H18.75V8.75C18.75 8.0625 18.1875 7.5 17.5 7.5C16.8125 7.5 16.25 8.0625 16.25 8.75V19.4844L8.38281 11.6172C7.89844 11.1328 7.10156 11.1328 6.61719 11.6172C6.13281 12.1016 6.13281 12.8984 6.61719 13.3828L13.2344 20H7.5C3.35938 20 0 16.6406 0 12.5C0 8.35938 3.35938 5 7.5 5C8.17969 5 8.84375 5.09375 9.47656 5.26563C10.8203 2.16406 13.9062 0 17.5 0C21.0938 0 24.1797 2.16406 25.5234 5.26563C26.1484 5.09375 26.8125 5 27.5 5C29.7266 5 31.7344 5.97656 33.1094 7.51562C32.9062 7.5 32.7031 7.5 32.5 7.5ZM9.21094 32.9922C10.2188 33.4375 10.9844 34.2969 11.3047 35.3594C11.4609 35.875 11.9453 36.25 12.5 36.25H27.5C28.0625 36.25 28.5469 35.875 28.6953 35.3594C29.0078 34.3047 29.7734 33.4375 30.7891 32.9922C33.5391 31.7891 35.5703 29.2734 36.1094 26.25H3.89062C4.42969 29.2734 6.46094 31.7891 9.21094 32.9922ZM0 24.6406C0 23.4609 0.960937 22.5 2.14062 22.5H37.8594C39.0391 22.5 40 23.4609 40 24.6406C40 29.9062 36.8281 34.4375 32.2969 36.4219C31.6797 38.4922 29.7656 40 27.5 40H12.5C10.2344 40 8.32031 38.4922 7.70312 36.4297C3.17187 34.4375 0 29.9141 0 24.6406ZM36.25 17.5C36.25 15.4297 34.5703 13.75 32.5 13.75C30.4297 13.75 28.75 15.4297 28.75 17.5C28.75 18.4609 29.1094 19.3359 29.7031 20H25.4297C25.1562 19.2188 25 18.375 25 17.5C25 13.3594 28.3594 10 32.5 10C36.6406 10 40 13.3594 40 17.5C40 18.375 39.8516 19.2188 39.5703 20H35.2969C35.8906 19.3359 36.25 18.4609 36.25 17.5Z" fill="#B3B3C3"/>
</g>
<defs>
<clipPath id="clip0_2916_46124">
<rect width="40" height="40" fill="white"/>
</clipPath>
</defs>
</svg>
