<svg width="49" height="49" viewBox="0 0 49 49" fill="none" xmlns="http://www.w3.org/2000/svg">
<path d="M47.356 27.6211H2.39252C1.53611 27.6211 0.809153 28.3523 0.879466 29.2055C1.51303 36.3661 6.34322 42.2742 12.8888 44.5711V45.6211C12.8888 47.273 14.2435 48.6211 15.8973 48.6211H33.916C35.5707 48.6211 36.9198 47.273 36.9198 45.6211V44.543C43.4317 42.2348 48.2448 36.3398 48.8636 29.2055C48.9404 28.3523 48.2279 27.6211 47.356 27.6211ZM16.756 24.6211H23.3747V11.1211C23.3747 10.2961 22.6997 9.62109 21.8747 9.62109C21.0497 9.62109 20.3747 10.2961 20.3747 11.1211V24.0023L10.9341 14.5617C10.3481 13.9758 9.39846 13.9758 8.81346 14.5617C8.22846 15.1477 8.22752 16.0973 8.81346 16.6823L16.756 24.6211Z" fill="#2D253F"/>
<path d="M39.8939 9.62109C40.14 9.62109 40.3745 9.67969 40.6206 9.69141C38.9657 7.82859 36.5845 6.62109 33.8939 6.62109C33.0966 6.63281 32.2907 6.75338 31.5286 6.97603C29.872 3.12047 26.0845 0.621094 21.8845 0.621094C17.6939 0.621094 13.897 3.11672 12.2376 6.97266C11.4782 6.75047 10.6814 6.63328 9.88356 6.62109C4.91293 6.62109 0.879883 10.6523 0.879883 15.6211C0.879883 20.5898 4.91301 24.6211 9.88363 24.6211H16.7546L8.81481 16.6805C8.22887 16.0945 8.22887 15.1448 8.81481 14.5598C9.40075 13.9748 10.3504 13.9739 10.9354 14.5598L20.3751 24.0023V11.1211C20.3751 10.2961 21.0501 9.62109 21.8751 9.62109C22.7001 9.62109 23.3751 10.292 23.3751 11.1211V24.6211H28.312C28.0425 23.648 27.9018 22.6411 27.8901 21.6211C27.9032 15.0023 33.2751 9.63328 39.8939 9.62109ZM39.8751 12.6211C34.9045 12.6211 30.8751 16.6505 30.8751 21.6211C30.8751 22.6786 31.0912 23.6789 31.4263 24.6211H48.32C48.6595 23.6742 48.8751 22.6805 48.8751 21.6211C48.8751 16.568 44.8439 12.6211 39.8751 12.6211Z" fill="#E84A4A"/>
</svg>
