<svg width="40" height="41" viewBox="0 0 40 41" fill="current" xmlns="http://www.w3.org/2000/svg">
<path d="M7.24107 35.01H32.7589C32.0625 30.1617 27.9018 26.4385 22.8571 26.4385H17.1429C12.1071 26.4385 7.9375 30.1617 7.24107 35.01ZM0 6.43853C0 3.28674 2.5625 0.724243 5.71429 0.724243H34.2857C37.4375 0.724243 40 3.28674 40 6.43853V35.01C40 38.1617 37.4375 40.7242 34.2857 40.7242H5.71429C2.5625 40.7242 0 38.1617 0 35.01V6.43853ZM20 22.1528C23.5536 22.1528 26.4286 19.2778 26.4286 15.7242C26.4286 12.1707 23.5536 9.29567 20 9.29567C16.4464 9.29567 13.5714 12.1707 13.5714 15.7242C13.5714 19.2778 16.4464 22.1528 20 22.1528Z" fill="current"/>
</svg>
