<svg width="40" height="40" viewBox="0 0 40 40" fill="current" xmlns="http://www.w3.org/2000/svg">
<path d="M20 2.22223H27.7778C28.3889 2.22223 28.8889 2.72223 28.8889 3.33334V6.66667C28.8889 7.27778 28.3889 7.77778 27.7778 7.77778H22.2222V8.85417L28.4931 13.3333H35.5556C38.0069 13.3333 40 15.3264 40 17.7778V33.3333C40 35.7847 38.0069 37.7778 35.5556 37.7778H23.3333V30C23.3333 28.1597 21.8403 26.6667 20 26.6667C18.1597 26.6667 16.6667 28.1597 16.6667 30V37.7778H4.44444C1.99306 37.7778 0 35.7847 0 33.3333V17.7778C0 15.3264 1.99306 13.3333 4.44444 13.3333H11.5069L17.7778 8.85417V4.44445C17.7778 3.21528 18.7708 2.22223 20 2.22223ZM23.3333 18.8889C23.3333 17.0486 21.8403 15.5556 20 15.5556C18.1597 15.5556 16.6667 17.0486 16.6667 18.8889C16.6667 20.7292 18.1597 22.2222 20 22.2222C21.8403 22.2222 23.3333 20.7292 23.3333 18.8889ZM5.55556 17.7778C4.94444 17.7778 4.44444 18.2778 4.44444 18.8889V23.3333C4.44444 23.9445 4.94444 24.4445 5.55556 24.4445H7.77778C8.38889 24.4445 8.88889 23.9445 8.88889 23.3333V18.8889C8.88889 18.2778 8.38889 17.7778 7.77778 17.7778H5.55556ZM31.1111 18.8889V23.3333C31.1111 23.9445 31.6111 24.4445 32.2222 24.4445H34.4444C35.0556 24.4445 35.5556 23.9445 35.5556 23.3333V18.8889C35.5556 18.2778 35.0556 17.7778 34.4444 17.7778H32.2222C31.6111 17.7778 31.1111 18.2778 31.1111 18.8889ZM5.55556 26.6667C4.94444 26.6667 4.44444 27.1667 4.44444 27.7778V32.2222C4.44444 32.8333 4.94444 33.3333 5.55556 33.3333H7.77778C8.38889 33.3333 8.88889 32.8333 8.88889 32.2222V27.7778C8.88889 27.1667 8.38889 26.6667 7.77778 26.6667H5.55556ZM32.2222 26.6667C31.6111 26.6667 31.1111 27.1667 31.1111 27.7778V32.2222C31.1111 32.8333 31.6111 33.3333 32.2222 33.3333H34.4444C35.0556 33.3333 35.5556 32.8333 35.5556 32.2222V27.7778C35.5556 27.1667 35.0556 26.6667 34.4444 26.6667H32.2222Z" fill="current"/>
</svg>
