<svg width="40" height="40" viewBox="0 0 40 40" fill="none" xmlns="http://www.w3.org/2000/svg">
<path d="M20 2.22223H27.7778C28.3889 2.22223 28.8889 2.72223 28.8889 3.33334V7.77778C28.8889 8.3889 28.3889 8.8889 27.7778 8.8889H22.0903L28.3125 13.3333H35C37.7639 13.3333 40 15.5695 40 18.3333V32.7778C40 35.5417 37.7639 37.7778 35 37.7778H23.3333H16.6667H5C2.23611 37.7778 0 35.5417 0 32.7778V18.3333C0 15.5695 2.23611 13.3333 5 13.3333H11.6875L18.3333 8.58334V3.8889C18.3333 2.96528 19.0764 2.22223 20 2.22223ZM35 34.4445C35.9236 34.4445 36.6667 33.7014 36.6667 32.7778V18.3333C36.6667 17.4097 35.9236 16.6667 35 16.6667H27.7778C27.4306 16.6667 27.0903 16.5556 26.8125 16.3542L20 11.4931L13.1875 16.3542C12.9028 16.5556 12.5694 16.6667 12.2222 16.6667H5C4.07639 16.6667 3.33333 17.4097 3.33333 18.3333V32.7778C3.33333 33.7014 4.07639 34.4445 5 34.4445H16.6667V30C16.6667 28.1597 18.1597 26.6667 20 26.6667C21.8403 26.6667 23.3333 28.1597 23.3333 30V34.4445H35ZM16.6667 18.8889C16.6667 18.0048 17.0179 17.157 17.643 16.5319C18.2681 15.9068 19.1159 15.5556 20 15.5556C20.8841 15.5556 21.7319 15.9068 22.357 16.5319C22.9821 17.157 23.3333 18.0048 23.3333 18.8889C23.3333 19.773 22.9821 20.6208 22.357 21.2459C21.7319 21.871 20.8841 22.2222 20 22.2222C19.1159 22.2222 18.2681 21.871 17.643 21.2459C17.0179 20.6208 16.6667 19.773 16.6667 18.8889ZM7.77778 20H10C10.6111 20 11.1111 20.5 11.1111 21.1111V23.3333C11.1111 23.9445 10.6111 24.4445 10 24.4445H7.77778C7.16667 24.4445 6.66667 23.9445 6.66667 23.3333V21.1111C6.66667 20.5 7.16667 20 7.77778 20ZM28.8889 21.1111C28.8889 20.5 29.3889 20 30 20H32.2222C32.8333 20 33.3333 20.5 33.3333 21.1111V23.3333C33.3333 23.9445 32.8333 24.4445 32.2222 24.4445H30C29.3889 24.4445 28.8889 23.9445 28.8889 23.3333V21.1111ZM7.77778 26.6667H10C10.6111 26.6667 11.1111 27.1667 11.1111 27.7778V30C11.1111 30.6111 10.6111 31.1111 10 31.1111H7.77778C7.16667 31.1111 6.66667 30.6111 6.66667 30V27.7778C6.66667 27.1667 7.16667 26.6667 7.77778 26.6667ZM30 26.6667H32.2222C32.8333 26.6667 33.3333 27.1667 33.3333 27.7778V30C33.3333 30.6111 32.8333 31.1111 32.2222 31.1111H30C29.3889 31.1111 28.8889 30.6111 28.8889 30V27.7778C28.8889 27.1667 29.3889 26.6667 30 26.6667Z" fill="#B3B3C3"/>
</svg>
