<svg width="40" height="40" viewBox="0 0 40 40" fill="none" xmlns="http://www.w3.org/2000/svg">
<path d="M19.9999 0H27.7777C28.3888 0 28.8888 0.4975 28.8888 1.11111V4.44444C28.8888 5.05833 28.3888 5.55556 27.7777 5.55556H22.2221V6.63403L21.2916 5.96944C20.5207 5.41736 19.4791 5.41736 18.7082 5.96944L17.7777 6.63403V2.22222C17.7777 0.995139 18.7707 0 19.9999 0ZM4.44434 16.6667C4.44434 16.0556 4.94156 15.5556 5.55545 15.5556H7.77767C8.38878 15.5556 8.88878 16.0556 8.88878 16.6667V21.1111C8.88878 21.7222 8.38878 22.2222 7.77767 22.2222H5.55545C4.94156 22.2222 4.44434 21.7222 4.44434 21.1111V16.6667ZM31.111 16.6667C31.111 16.0556 31.611 15.5556 32.2221 15.5556H34.4443C35.0554 15.5556 35.5554 16.0556 35.5554 16.6667V21.1111C35.5554 21.7222 35.0554 22.2222 34.4443 22.2222H32.2221C31.611 22.2222 31.111 21.7222 31.111 21.1111V16.6667ZM7.77767 24.4444C8.38878 24.4444 8.88878 24.9444 8.88878 25.5556V30C8.88878 30.6111 8.38878 31.1111 7.77767 31.1111H5.55545C4.94156 31.1111 4.44434 30.6111 4.44434 30V25.5556C4.44434 24.9444 4.94156 24.4444 5.55545 24.4444H7.77767ZM31.111 25.5556C31.111 24.9444 31.611 24.4444 32.2221 24.4444H34.4443C35.0554 24.4444 35.5554 24.9444 35.5554 25.5556V30C35.5554 30.6111 35.0554 31.1111 34.4443 31.1111H32.2221C31.611 31.1111 31.111 30.6111 31.111 30V25.5556Z" fill="#E84A4A"/>
<path d="M28.4931 11.1111H35.5556C38.0069 11.1111 40 13.1042 40 15.5556V31.1111C40 33.5625 38.0069 35.5556 35.5556 35.5556H23.3333V27.7778C23.3333 25.9375 21.8403 24.4445 20 24.4445C18.1597 24.4445 16.6667 25.9375 16.6667 27.7778V35.5556H4.44444C1.98958 35.5556 0 33.5625 0 31.1111V15.5556C0 13.1042 1.98958 11.1111 4.44444 11.1111H11.5069L18.7083 5.96948C19.4792 5.4174 20.5208 5.4174 21.2917 5.96948L28.4931 11.1111ZM20 13.3334C18.1597 13.3334 16.6667 14.8264 16.6667 16.6667C16.6667 18.507 18.1597 20 20 20C21.8403 20 23.3333 18.507 23.3333 16.6667C23.3333 14.8264 21.8403 13.3334 20 13.3334ZM5.55556 15.5556C4.94167 15.5556 4.44444 16.0556 4.44444 16.6667V21.1111C4.44444 21.7223 4.94167 22.2223 5.55556 22.2223H7.77778C8.38889 22.2223 8.88889 21.7223 8.88889 21.1111V16.6667C8.88889 16.0556 8.38889 15.5556 7.77778 15.5556H5.55556ZM31.1111 21.1111C31.1111 21.7223 31.6111 22.2223 32.2222 22.2223H34.4444C35.0556 22.2223 35.5556 21.7223 35.5556 21.1111V16.6667C35.5556 16.0556 35.0556 15.5556 34.4444 15.5556H32.2222C31.6111 15.5556 31.1111 16.0556 31.1111 16.6667V21.1111ZM5.55556 24.4445C4.94167 24.4445 4.44444 24.9445 4.44444 25.5556V30C4.44444 30.6111 4.94167 31.1111 5.55556 31.1111H7.77778C8.38889 31.1111 8.88889 30.6111 8.88889 30V25.5556C8.88889 24.9445 8.38889 24.4445 7.77778 24.4445H5.55556ZM32.2222 24.4445C31.6111 24.4445 31.1111 24.9445 31.1111 25.5556V30C31.1111 30.6111 31.6111 31.1111 32.2222 31.1111H34.4444C35.0556 31.1111 35.5556 30.6111 35.5556 30V25.5556C35.5556 24.9445 35.0556 24.4445 34.4444 24.4445H32.2222Z" fill="#2D253F"/>
</svg>
