<svg width="40" height="40" viewBox="0 0 40 40" fill="none" xmlns="http://www.w3.org/2000/svg">
<path d="M19.1688 4.25154C19.675 3.91404 20.3312 3.91404 20.8312 4.25154L29.4562 10.0015H35.5C37.9875 10.0015 40 12.014 40 14.5015V31.5015C40 33.989 37.9875 36.0015 35.5 36.0015H24H16H4.5C2.0125 36.0015 0 33.989 0 31.5015V14.5015C0 12.014 2.0125 10.0015 4.5 10.0015H10.5437L19.1688 4.25154ZM35.5 33.0015C36.3313 33.0015 37 32.3328 37 31.5015V14.5015C37 13.6703 36.3313 13.0015 35.5 13.0015H29C28.7063 13.0015 28.4125 12.914 28.1688 12.7515L20 7.30154L11.8313 12.7515C11.5875 12.914 11.2937 13.0015 11 13.0015H4.5C3.66875 13.0015 3 13.6703 3 14.5015V31.5015C3 32.3328 3.66875 33.0015 4.5 33.0015H16V28.0015C16 25.7953 17.7938 24.0015 20 24.0015C22.2062 24.0015 24 25.7953 24 28.0015V33.0015H35.5ZM7 16.0015H9C9.55 16.0015 10 16.4515 10 17.0015V21.0015C10 21.5515 9.55 22.0015 9 22.0015H7C6.45 22.0015 6 21.5515 6 21.0015V17.0015C6 16.4515 6.45 16.0015 7 16.0015ZM30 17.0015C30 16.4515 30.45 16.0015 31 16.0015H33C33.55 16.0015 34 16.4515 34 17.0015V21.0015C34 21.5515 33.55 22.0015 33 22.0015H31C30.45 22.0015 30 21.5515 30 21.0015V17.0015ZM7 24.0015H9C9.55 24.0015 10 24.4515 10 25.0015V29.0015C10 29.5515 9.55 30.0015 9 30.0015H7C6.45 30.0015 6 29.5515 6 29.0015V25.0015C6 24.4515 6.45 24.0015 7 24.0015ZM30 25.0015C30 24.4515 30.45 24.0015 31 24.0015H33C33.55 24.0015 34 24.4515 34 25.0015V29.0015C34 29.5515 33.55 30.0015 33 30.0015H31C30.45 30.0015 30 29.5515 30 29.0015V25.0015ZM15 16.0015C15 14.6755 15.5268 13.4037 16.4645 12.466C17.4021 11.5283 18.6739 11.0015 20 11.0015C21.3261 11.0015 22.5979 11.5283 23.5355 12.466C24.4732 13.4037 25 14.6755 25 16.0015C25 17.3276 24.4732 18.5994 23.5355 19.5371C22.5979 20.4748 21.3261 21.0015 20 21.0015C18.6739 21.0015 17.4021 20.4748 16.4645 19.5371C15.5268 18.5994 15 17.3276 15 16.0015ZM20 13.0015C19.45 13.0015 19 13.4515 19 14.0015V16.0015C19 16.5515 19.45 17.0015 20 17.0015H21.5C22.05 17.0015 22.5 16.5515 22.5 16.0015C22.5 15.4515 22.05 15.0015 21.5 15.0015H21V14.0015C21 13.4515 20.55 13.0015 20 13.0015Z" fill="#B3B3C3"/>
</svg>
