<svg width="40" height="40" viewBox="0 0 40 40" fill="current" xmlns="http://www.w3.org/2000/svg">
<path d="M21.1125 4.3375C20.4375 3.8875 19.5625 3.8875 18.8875 4.3375L10.3938 10H3C1.34375 10 0 11.3438 0 13V33C0 34.6562 1.34375 36 3 36H37C38.6562 36 40 34.6562 40 33V13C40 11.3438 38.6562 10 37 10H29.6063L21.1125 4.3375ZM16 30C16 27.7938 17.7938 26 20 26C22.2062 26 24 27.7938 24 30V36H16V30ZM6 16H8C8.55 16 9 16.45 9 17V21C9 21.55 8.55 22 8 22H6C5.45 22 5 21.55 5 21V17C5 16.45 5.45 16 6 16ZM31 17C31 16.45 31.45 16 32 16H34C34.55 16 35 16.45 35 17V21C35 21.55 34.55 22 34 22H32C31.45 22 31 21.55 31 21V17ZM6 24H8C8.55 24 9 24.45 9 25V29C9 29.55 8.55 30 8 30H6C5.45 30 5 29.55 5 29V25C5 24.45 5.45 24 6 24ZM31 25C31 24.45 31.45 24 32 24H34C34.55 24 35 24.45 35 25V29C35 29.55 34.55 30 34 30H32C31.45 30 31 29.55 31 29V25ZM14.5 15C14.5 13.5413 15.0795 12.1424 16.1109 11.1109C17.1424 10.0795 18.5413 9.5 20 9.5C21.4587 9.5 22.8576 10.0795 23.8891 11.1109C24.9205 12.1424 25.5 13.5413 25.5 15C25.5 16.4587 24.9205 17.8576 23.8891 18.8891C22.8576 19.9205 21.4587 20.5 20 20.5C18.5413 20.5 17.1424 19.9205 16.1109 18.8891C15.0795 17.8576 14.5 16.4587 14.5 15ZM20 12C19.45 12 19 12.45 19 13V15C19 15.55 19.45 16 20 16H22C22.55 16 23 15.55 23 15C23 14.45 22.55 14 22 14H21V13C21 12.45 20.55 12 20 12Z" fill="current"/>
</svg>
