<svg width="40" height="41" viewBox="0 0 40 41" fill="none" xmlns="http://www.w3.org/2000/svg">
<path d="M30.0009 22.4899C28.1915 20.6805 25.5031 20.3359 23.3296 21.4039L14.9301 13.0677V8.22307L5.00015 0.723633L0 5.65347L7.50022 15.5834L12.3472 15.5841L20.6834 23.9124C19.6154 26.0859 19.9607 28.7743 21.7702 30.5837L30.9111 39.7324C32.0533 40.8653 33.8963 40.8653 35.0292 39.7323L39.1504 35.6111C40.2832 34.4782 40.2832 32.636 39.1503 31.493L30.0009 22.4899Z" fill="white"/>
<path d="M17.8054 24.7086L13.1803 20.0913L1.54712 31.7245C-0.513101 33.7847 -0.513101 37.1215 1.54712 39.1817C2.57527 40.2091 3.92297 40.7247 5.27379 40.7247C6.62461 40.7247 7.97231 40.2097 9.00202 39.1794L18.307 29.8744C17.6179 28.2478 17.3913 26.4587 17.8054 24.7086ZM5.00034 37.5997C3.96516 37.5997 3.12529 36.7598 3.12529 35.7246C3.12529 34.6886 3.96516 33.8495 5.00034 33.8495C6.03553 33.8495 6.8754 34.6855 6.8754 35.7246C6.8754 36.7637 6.03553 37.5997 5.00034 37.5997ZM39.6654 9.26288C39.5372 8.76052 39.026 8.45738 38.524 8.58551C38.3604 8.62733 38.211 8.71231 38.0917 8.83177L32.2751 14.6523L26.9656 13.7679L26.0812 8.45441L31.8978 2.63783C32.2647 2.27157 32.2655 1.67765 31.8993 1.31045C31.7771 1.18795 31.6234 1.10154 31.4551 1.06099C27.6198 0.106275 23.6345 1.23217 20.7751 4.02827C17.6726 7.12531 16.8132 11.6223 18.1101 15.5365L17.7898 15.8568L23.3329 21.4015C25.5595 20.2968 28.2424 20.7335 30.0042 22.4875L30.5914 23.0714C32.9071 22.7027 35.047 21.6128 36.7025 19.9518C39.5014 17.1537 40.5561 13.0989 39.6654 9.26288Z" fill="#E84A4A"/>
</svg>
