<svg width="40" height="41" viewBox="0 0 40 41" fill="current" xmlns="http://www.w3.org/2000/svg">
<path d="M6.14221 1.1158C5.40004 0.537687 4.34537 0.607998 3.67351 1.27204L0.548588 4.39697C-0.115459 5.06102 -0.18577 6.11568 0.384529 6.86566L6.63438 14.9905C6.98594 15.4514 7.54061 15.7248 8.11872 15.7248H12.3452L20.8606 24.2403C19.7122 26.5058 20.0794 29.3495 21.9778 31.2401L30.7276 39.9899C31.7041 40.9664 33.29 40.9664 34.2665 39.9899L39.2664 34.99C40.243 34.0135 40.243 32.4276 39.2664 31.451L30.5166 22.7012C28.6261 20.8106 25.7824 20.4357 23.5168 21.5841L15.0014 13.0686V8.84999C15.0014 8.26407 14.7279 7.71721 14.267 7.36565L6.14221 1.1158ZM1.55638 31.6698C0.564212 32.6619 0.00172557 34.0135 0.00172557 35.4197C0.00172557 38.3493 2.37667 40.7242 5.30629 40.7242C6.71251 40.7242 8.06404 40.1618 9.0562 39.1696L18.2591 29.9667C17.6497 28.3339 17.556 26.5605 17.9779 24.8809L13.1577 20.0607L1.55638 31.6698ZM40.0008 11.9749C40.0008 11.1546 39.9149 10.3578 39.7508 9.59216C39.5633 8.71718 38.493 8.49063 37.8602 9.12342L32.8681 14.1155C32.6338 14.3499 32.3135 14.4827 31.9854 14.4827H27.5011C26.8136 14.4827 26.2511 13.9202 26.2511 13.2327V8.74062C26.2511 8.4125 26.3839 8.0922 26.6183 7.85783L31.6104 2.86576C32.2432 2.23296 32.0166 1.16267 31.1416 0.975176C30.3682 0.811118 29.5713 0.725182 28.7511 0.725182C22.5403 0.725182 17.5013 5.76413 17.5013 11.9749V12.0374L24.1652 18.7013C26.9777 17.9904 30.087 18.7404 32.29 20.9435L33.5166 22.17C37.3446 20.3732 40.0008 16.4826 40.0008 11.9749ZM8.12653 34.4744C8.12653 35.5134 7.29062 36.3493 6.25158 36.3493C5.21254 36.3493 4.37662 35.5134 4.37662 34.4744C4.37662 33.4354 5.21254 32.5994 6.25158 32.5994C7.29062 32.5994 8.12653 33.4354 8.12653 34.4744Z" fill="current"/>
</svg>
