<svg width="41" height="41" viewBox="0 0 41 41" fill="none" xmlns="http://www.w3.org/2000/svg">
<g clip-path="url(#clip0_2887_46026)">
<path d="M6.14284 1.11581C5.40065 0.537682 4.34596 0.607995 3.67409 1.27206L0.549089 4.39706C-0.114974 5.06112 -0.185286 6.11581 0.385026 6.86581L6.63503 14.9908C6.98659 15.4517 7.54128 15.7252 8.1194 15.7252H12.346L20.8616 24.2408C19.7132 26.5064 20.0803 29.3502 21.9788 31.2408L30.7288 39.9908C31.7053 40.9674 33.2913 40.9674 34.2678 39.9908L39.2678 34.9908C40.2444 34.0142 40.2444 32.4283 39.2678 31.4517L30.5178 22.7017C28.6272 20.8111 25.7835 20.4361 23.5178 21.5846L15.0022 13.0689V8.85018C15.0022 8.26425 14.7288 7.71737 14.2678 7.36581L6.14284 1.11581ZM1.81471 30.1627C0.650651 31.3267 0.0022139 32.8971 0.0022139 34.5377C0.0022139 37.9517 2.77565 40.7252 6.18971 40.7252C7.83034 40.7252 9.40065 40.0767 10.5647 38.9127L18.635 30.8424C17.9397 29.4674 17.635 27.9439 17.7288 26.4439L7.91628 36.2642C7.45534 36.7174 6.83815 36.9752 6.18971 36.9752C4.84596 36.9752 3.75221 35.8814 3.75221 34.5377C3.75221 33.8892 4.01003 33.2721 4.46315 32.8111L15.1819 22.0924L12.5335 19.4439L1.81471 30.1627ZM36.2444 13.5377C36.135 16.5767 34.4788 19.2252 32.0413 20.7096C32.1272 20.7877 32.2053 20.8658 32.2835 20.9439L34.7522 23.4127C37.9319 21.1471 40.0022 17.4283 40.0022 13.233C40.0022 11.2955 39.5569 9.45956 38.7757 7.81893C38.4319 7.10018 37.4866 6.99862 36.9241 7.56112L31.6194 12.8658C31.385 13.1002 31.0647 13.233 30.7366 13.233H28.7522C28.0647 13.233 27.5022 12.6705 27.5022 11.983V9.99081C27.5022 9.66268 27.635 9.34237 27.8694 9.108L33.1741 3.80331C33.7366 3.24081 33.635 2.29549 32.9163 1.95174C31.2757 1.17049 29.4397 0.725182 27.5022 0.725182C23.0257 0.725182 19.096 3.07675 16.8928 6.61581C17.2835 7.28768 17.5022 8.05331 17.5022 8.85018V12.0377L18.7522 13.2877V13.2252C18.7522 8.49862 22.5022 4.63924 27.1897 4.48299L25.2132 6.45956C24.2757 7.39706 23.7522 8.6705 23.7522 9.99862V11.9752C23.7522 14.733 25.9944 16.9752 28.7522 16.9752H30.7366C32.0647 16.9752 33.3382 16.4517 34.2757 15.5142L36.2444 13.5377Z" fill="#B3B3C3"/>
</g>
<defs>
<clipPath id="clip0_2887_46026">
<rect width="40.0022" height="40.0009" fill="white" transform="translate(0 0.724243)"/>
</clipPath>
</defs>
</svg>
