<svg width="48" height="48" viewBox="0 0 48 48" fill="current" xmlns="http://www.w3.org/2000/svg">
<g clip-path="url(#clip0_29654_2332)">
<path d="M5.39994 3.35623C2.16557 1.93123 -1.05943 5.38123 0.571816 8.52185L6.47807 19.8844C6.89057 20.6719 7.65932 21.2062 8.54057 21.3187L24.9374 23.3719C25.2562 23.4094 25.4999 23.6812 25.4999 24C25.4999 24.3187 25.2562 24.5906 24.9374 24.6281L8.54057 26.6812C7.65932 26.7937 6.89057 27.3281 6.47807 28.1156L0.571816 39.4781C-1.05943 42.6187 2.16557 46.0594 5.40932 44.6437L46.2093 26.7468C48.5999 25.6968 48.5999 22.3031 46.2093 21.2531L5.39994 3.35623Z" fill="current"/>
</g>
<defs>
<clipPath id="clip0_29654_2332">
<rect width="48" height="48" fill="current"/>
</clipPath>
</defs>
</svg>
