<svg width="40" height="40" viewBox="0 0 40 40" fill="current" xmlns="http://www.w3.org/2000/svg">
<g clip-path="url(#clip0_1778_31358)">
<path d="M24.6406 1.21094C24.1953 0.460937 23.375 0 22.5 0C21.625 0 20.8047 0.460937 20.3594 1.21094L12.8594 13.7109C12.3984 14.4844 12.3828 15.4453 12.8281 16.2266C13.2734 17.0078 14.1016 17.4922 15 17.4922H30C30.8984 17.4922 31.7344 17.0078 32.1719 16.2266C32.6094 15.4453 32.6016 14.4844 32.1406 13.7109L24.6406 1.21094ZM22.5 24.375V35.625C22.5 37.3516 23.8984 38.75 25.625 38.75H36.875C38.6016 38.75 40 37.3516 40 35.625V24.375C40 22.6484 38.6016 21.25 36.875 21.25H25.625C23.8984 21.25 22.5 22.6484 22.5 24.375ZM10 40C15.5234 40 20 35.5234 20 30C20 24.4766 15.5234 20 10 20C4.47656 20 0 24.4766 0 30C0 35.5234 4.47656 40 10 40Z" fill="current"/>
</g>
<defs>
<clipPath id="clip0_1778_31358">
<rect width="40" height="40" fill="current"/>
</clipPath>
</defs>
</svg>
