<svg width="40" height="40" viewBox="0 0 40 40" fill="none" xmlns="http://www.w3.org/2000/svg">
<g clip-path="url(#clip0_1778_31349)">
<path d="M22.5 24.375C22.5 22.6484 23.8984 21.25 25.625 21.25H36.875C38.6016 21.25 40 22.6484 40 24.375V35.625C40 37.3516 38.6016 38.75 36.875 38.75H25.625C23.8984 38.75 22.5 37.3516 22.5 35.625V24.375Z" fill="white"/>
<path d="M22.5 0C23.375 0 24.1953 0.460781 24.6406 1.21406L32.1406 13.7109C32.6094 14.4844 32.6172 15.4453 32.1719 16.2344C31.7344 17.0156 30.8984 17.4297 30 17.4297H15C14.1016 17.4297 13.2656 17.0156 12.8281 16.2344C12.3828 15.4453 12.3906 14.4844 12.8594 13.7109L20.3594 1.21406C20.8047 0.460703 21.625 0 22.5 0ZM0 30C0 24.4766 4.47734 20 10 20C15.5234 20 20 24.4766 20 30C20 35.5234 15.5234 40 10 40C4.47734 40 0 35.5234 0 30Z" fill="#E84A4A"/>
</g>
<defs>
<clipPath id="clip0_1778_31349">
<rect width="40" height="40" fill="white"/>
</clipPath>
</defs>
</svg>
