<svg width="40" height="40" viewBox="0 0 40 40" fill="none" xmlns="http://www.w3.org/2000/svg">
<g clip-path="url(#clip0_1877_40138)">
<path d="M32.1719 16.2344C31.7344 17.0156 30.8984 17.4297 30 17.4297H15C14.1016 17.4297 13.2656 17.0156 12.8281 16.2344C12.3828 15.4453 12.3906 14.4844 12.8594 13.7109L20.3594 1.21406C20.8047 0.460703 21.625 0 22.5 0C23.375 0 24.1953 0.460781 24.6406 1.21406L32.1406 13.7109C32.6094 14.4844 32.6172 15.4453 32.1719 16.2344ZM22.5 4.92969L17.2109 13.6797H27.7891L22.5 4.92969ZM36.875 21.1797C38.6016 21.1797 40 22.6484 40 24.3047V35.625C40 37.3516 38.6016 38.75 36.875 38.75H25.625C23.8984 38.75 22.5 37.3516 22.5 35.625V24.3047C22.5 22.6484 23.8984 21.1797 25.625 21.1797H36.875ZM36.25 24.9297H26.25V35H36.25V24.9297ZM20 30C20 35.5234 15.5234 40 10 40C4.47734 40 0 35.5234 0 30C0 24.4766 4.47734 19.9297 10 19.9297C15.5234 19.9297 20 24.4766 20 30ZM10 23.6797C6.54844 23.6797 3.75 26.5469 3.75 30C3.75 33.4531 6.54844 36.25 10 36.25C13.4531 36.25 16.25 33.4531 16.25 30C16.25 26.5469 13.4531 23.6797 10 23.6797Z" fill="#B3B3C3"/>
</g>
<defs>
<clipPath id="clip0_1877_40138">
<rect width="40" height="40" fill="white"/>
</clipPath>
</defs>
</svg>
