<svg width="40" height="40" viewBox="0 0 40 40" fill="none" xmlns="http://www.w3.org/2000/svg">
<path d="M5.62462 9.97643L20.0001 3.8806L34.3756 9.97643C34.8391 10.1728 35.0905 10.5892 35.0826 10.9819C35.0512 18.1618 32.0661 30.5656 20.4479 36.1273C20.1651 36.2608 19.8351 36.2608 19.5602 36.1273C7.93413 30.5577 4.95691 18.1618 4.91763 10.9741C4.91763 10.5813 5.16115 10.1728 5.62462 9.96858V9.97643ZM35.8446 6.50432L21.0527 0.227808C20.7228 0.0785546 20.3693 0 20.0001 0C19.6309 0 19.2774 0.0785546 18.9475 0.227808L4.15565 6.50432C2.42745 7.23488 1.13915 8.93951 1.14701 10.9976C1.18629 18.7903 4.39131 33.0479 17.9263 39.5287C19.2381 40.1571 20.7621 40.1571 22.074 39.5287C35.6168 33.0479 38.8139 18.7903 38.8532 10.9976C38.8611 8.93951 37.5728 7.23488 35.8446 6.50432ZM28.8768 16.4179C29.6152 15.6795 29.6152 14.4855 28.8768 13.7549C28.1384 13.0244 26.9443 13.0165 26.2138 13.7549L17.4942 22.4745L13.8022 18.7824C13.0637 18.044 11.8697 18.044 11.1392 18.7824C10.4086 19.5208 10.4007 20.7148 11.1392 21.4454L16.1666 26.4729C16.9051 27.2113 18.0991 27.2113 18.8296 26.4729L28.8768 16.4179Z" fill="#B3B3C3"/>
</svg>
