<svg width="40" height="40" viewBox="0 0 40 40" fill="current" xmlns="http://www.w3.org/2000/svg">
<path d="M21.0469 0.335938C20.7188 0.1875 20.3672 0.109375 20 0.109375C19.6328 0.109375 19.2813 0.1875 18.9532 0.335938L4.24222 6.57812C2.52347 7.30469 1.24222 9 1.25004 11.0469C1.2891 18.7969 4.4766 32.9766 17.9375 39.4219C19.2422 40.0469 20.7578 40.0469 22.0625 39.4219C35.5235 32.9766 38.711 18.7969 38.75 11.0469C38.7578 9 37.4766 7.30469 35.7579 6.57812L21.0469 0.335938ZM20 10.1094C21.0391 10.1094 21.875 10.9453 21.875 11.9844V20.7344C21.875 21.7734 21.0391 22.6094 20 22.6094C18.961 22.6094 18.125 21.7734 18.125 20.7344V11.9844C18.125 10.9453 18.961 10.1094 20 10.1094ZM22.5 27.6094C22.5 28.9922 21.3828 30.1094 20 30.1094C18.6172 30.1094 17.5 28.9922 17.5 27.6094C17.5 26.2266 18.6172 25.1094 20 25.1094C21.3828 25.1094 22.5 26.2266 22.5 27.6094Z" fill="current"/>
</svg>
