<svg width="40" height="40" viewBox="0 0 40 40" fill="none" xmlns="http://www.w3.org/2000/svg">
<path d="M26.2578 23.6719C26.6953 24.0391 26.875 24.5234 26.875 25C26.875 26.0703 26 26.875 25.0703 26.875C24.5905 26.875 24.1109 26.6918 23.7445 26.3257L20 22.6484L16.3258 26.3227C15.9609 26.6953 15.4766 26.875 15 26.875C13.9297 26.875 13.125 26 13.125 25C13.125 24.5202 13.3081 24.0406 13.6743 23.6742L17.3516 20L13.6719 16.2578C13.3047 15.9609 13.125 15.4766 13.125 15C13.125 14.0008 13.9297 13.125 15 13.125C15.4798 13.125 15.9594 13.3081 16.3258 13.6743L20 17.3516L23.6742 13.6773C24.0391 13.3047 24.5234 13.125 25 13.125C26.0711 13.125 26.875 14.0008 26.875 15C26.875 15.4798 26.6919 15.9594 26.3257 16.3258L22.6484 20L26.2578 23.6719Z" fill="#E84A4A"/>
<path d="M36.4453 6.53828L21.4453 0.2875C21.0625 0.129375 20.4141 0 20.0078 0C19.5938 0 18.9453 0.129375 18.5625 0.288125L3.5625 6.53891C2.16328 7.11562 1.25 8.48438 1.25 9.92969C1.25 30.0938 16.0312 40 19.9297 40C23.9922 40 38.75 29.9844 38.75 9.92969C38.75 8.48438 37.8359 7.11563 36.4453 6.53828ZM26.2578 23.6719C26.6953 24.0391 26.875 24.5234 26.875 25C26.875 26.0703 26 26.875 25.0703 26.875C24.5905 26.875 24.1109 26.6918 23.7445 26.3257L20 22.6484L16.3258 26.3227C15.9609 26.6953 15.4766 26.875 15 26.875C13.9297 26.875 13.125 26 13.125 25C13.125 24.5202 13.3081 24.0406 13.6743 23.6742L17.3516 20L13.6719 16.2578C13.3047 15.9609 13.125 15.4766 13.125 15C13.125 14.0008 13.9297 13.125 15 13.125C15.4798 13.125 15.9594 13.3081 16.3258 13.6743L20 17.3516L23.6742 13.6773C24.0391 13.3047 24.5234 13.125 25 13.125C26.0711 13.125 26.875 14.0008 26.875 15C26.875 15.4798 26.6919 15.9594 26.3257 16.3258L22.6484 20L26.2578 23.6719Z" fill="#2D253F"/>
</svg>
