<svg width="40" height="40" viewBox="0 0 40 40" fill="none" xmlns="http://www.w3.org/2000/svg">
<path d="M5.70316 10.0312L20 3.96875L34.2969 10.0312C34.7578 10.2266 35.0078 10.6406 35 11.0313C34.9688 18.1719 32 30.5078 20.4453 36.0391C20.1641 36.1719 19.836 36.1719 19.5625 36.0391C8.00004 30.5 5.0391 18.1719 5.00004 11.0234C5.00004 10.6328 5.24222 10.2266 5.70316 10.0234V10.0312ZM35.7578 6.57813L21.0469 0.335938C20.7188 0.1875 20.3672 0.109375 20 0.109375C19.6328 0.109375 19.2813 0.1875 18.9532 0.335938L4.24222 6.57813C2.52347 7.30469 1.24222 9 1.25004 11.0469C1.2891 18.7969 4.4766 32.9766 17.9375 39.4219C19.2422 40.0469 20.7578 40.0469 22.0625 39.4219C35.5313 32.9766 38.711 18.7969 38.75 11.0469C38.7578 9 37.4766 7.30469 35.7578 6.57813ZM20 10.1094C18.961 10.1094 18.125 10.9453 18.125 11.9844V20.7344C18.125 21.7734 18.961 22.6094 20 22.6094C21.0391 22.6094 21.875 21.7734 21.875 20.7344V11.9844C21.875 10.9453 21.0391 10.1094 20 10.1094ZM22.5 27.6094C22.5 26.9463 22.2366 26.3104 21.7678 25.8416C21.299 25.3728 20.6631 25.1094 20 25.1094C19.337 25.1094 18.7011 25.3728 18.2323 25.8416C17.7634 26.3104 17.5 26.9463 17.5 27.6094C17.5 28.2724 17.7634 28.9083 18.2323 29.3771C18.7011 29.846 19.337 30.1094 20 30.1094C20.6631 30.1094 21.299 29.846 21.7678 29.3771C22.2366 28.9083 22.5 28.2724 22.5 27.6094Z" fill="#B3B3C3"/>
</svg>
