<svg width="40" height="40" viewBox="0 0 40 40" fill="current" xmlns="http://www.w3.org/2000/svg">
<path d="M21.0469 0.335938C20.7188 0.1875 20.3672 0.109375 20 0.109375C19.6328 0.109375 19.2813 0.1875 18.9532 0.335938L4.24222 6.57812C2.52347 7.30469 1.24222 9 1.25004 11.0469C1.2891 18.7969 4.4766 32.9766 17.9375 39.4219C19.2422 40.0469 20.7578 40.0469 22.0625 39.4219C35.5235 32.9766 38.711 18.7969 38.75 11.0469C38.7578 9 37.4766 7.30469 35.7579 6.57812L21.0469 0.335938ZM13.6719 13.7812C14.4063 13.0469 15.5938 13.0469 16.3203 13.7812L19.9922 17.4531L23.6641 13.7812C24.3985 13.0469 25.586 13.0469 26.3125 13.7812C27.0391 14.5156 27.0469 15.7031 26.3125 16.4297L22.6407 20.1016L26.3125 23.7734C27.0469 24.5078 27.0469 25.6953 26.3125 26.4219C25.5782 27.1484 24.3907 27.1562 23.6641 26.4219L19.9922 22.75L16.3203 26.4219C15.586 27.1562 14.3985 27.1562 13.6719 26.4219C12.9453 25.6875 12.9375 24.5 13.6719 23.7734L17.3438 20.1016L13.6719 16.4297C12.9375 15.6953 12.9375 14.5078 13.6719 13.7812Z" fill="current"/>
</svg>
