<svg width="40" height="40" viewBox="0 0 40 40" fill="none" xmlns="http://www.w3.org/2000/svg">
<path d="M5.70316 9.92188L20 3.85938L34.2969 9.92188C34.7578 10.1172 35.0078 10.5312 35 10.9219C34.9688 18.0625 32 30.3984 20.4453 35.9297C20.1641 36.0625 19.836 36.0625 19.5625 35.9297C8.00004 30.3906 5.0391 18.0625 5.00004 10.9141C5.00004 10.5234 5.24222 10.1172 5.70316 9.91406V9.92188ZM35.7579 6.46875L21.0469 0.226562C20.7188 0.078125 20.3672 0 20 0C19.6328 0 19.2813 0.078125 18.9532 0.226562L4.24222 6.46875C2.52347 7.19531 1.24222 8.89062 1.25004 10.9375C1.2891 18.6875 4.4766 32.8672 17.9375 39.3125C19.2422 39.9375 20.7578 39.9375 22.0625 39.3125C35.5313 32.8672 38.711 18.6875 38.75 10.9375C38.7578 8.89062 37.4766 7.19531 35.7579 6.46875ZM24.375 16.25C24.375 13.8359 22.4141 11.875 20 11.875C17.586 11.875 15.625 13.8359 15.625 16.25C15.625 17.9922 16.6485 19.5 18.125 20.2031V25.625C18.125 26.6641 18.961 27.5 20 27.5C21.0391 27.5 21.875 26.6641 21.875 25.625V20.2031C23.3516 19.5 24.375 17.9922 24.375 16.25Z" fill="#B3B3C3"/>
</svg>
