<svg width="40" height="40" viewBox="0 0 40 40" fill="none" xmlns="http://www.w3.org/2000/svg">
<path d="M19.75 22.5C20.7852 22.5 21.625 21.6602 21.625 20.625V11.875C21.625 10.8438 20.7891 10 19.75 10C18.7109 10 17.875 10.8438 17.875 11.875V20.625C17.875 21.6641 18.7188 22.5 19.75 22.5ZM19.75 25C18.3695 25 17.25 26.1195 17.25 27.5C17.25 28.8805 18.3695 30 19.75 30C21.1305 30 22.25 28.8805 22.25 27.5C22.25 26.1195 21.1328 25 19.75 25Z" fill="#E84A4A"/>
<path d="M36.1953 6.53828L21.1953 0.2875C20.8125 0.129375 20.1641 0 19.7578 0C19.3438 0 18.6953 0.129375 18.3125 0.288125L3.3125 6.53891C1.91328 7.11562 1 8.48438 1 9.92969C1 30.0938 15.7812 40 19.6797 40C23.7422 40 38.5 29.9844 38.5 9.92969C38.5 8.48438 37.5859 7.11563 36.1953 6.53828ZM17.875 11.875C17.875 10.8438 18.7188 10 19.75 10C20.7812 10 21.625 10.8398 21.625 11.875V20.625C21.625 21.6641 20.7891 22.5 19.75 22.5C18.7109 22.5 17.875 21.6641 17.875 20.625V11.875ZM19.75 30C18.3695 30 17.25 28.8805 17.25 27.5C17.25 26.1195 18.3695 25 19.75 25C21.1305 25 22.25 26.1195 22.25 27.5C22.25 28.8805 21.1328 30 19.75 30Z" fill="white"/>
</svg>
