<svg width="40" height="40" viewBox="0 0 40 40" fill="none" xmlns="http://www.w3.org/2000/svg">
<g clip-path="url(#clip0_1155_20456)">
<path d="M29.5625 15.0074C29.5625 15.3273 29.4405 15.6471 29.1963 15.8909L18.3906 26.7652C18.1465 27.0092 17.8266 27.1313 17.507 27.1313C17.1875 27.1313 16.8672 27.0074 16.625 26.7652L10.8125 20.9605C10.5703 20.7183 10.4453 20.398 10.4453 20.0074C10.4453 19.6874 10.5673 19.3676 10.8116 19.1238L11.6952 18.2402C11.9453 18.062 12.1953 17.9449 12.5781 17.9449C12.9609 17.9449 13.2187 18.062 13.4687 18.3042L17.5094 22.3449L26.5484 13.3058C26.7926 13.0617 27.1125 12.9397 27.432 12.9397C27.7516 12.9397 28.0718 13.0617 28.3156 13.3058L29.1992 14.1894C29.4453 14.437 29.5625 14.7574 29.5625 15.0074Z" fill="#E84A4A"/>
<path d="M36.4453 6.5393L21.4453 0.289297C21.0645 0.130625 20.4172 0 20.0047 0C19.5897 0 18.9461 0.130625 18.5625 0.289297L3.56328 6.5393C2.16406 7.11664 1.25 8.48383 1.25 9.92914C1.25 30.0932 16.0312 39.9995 19.9922 39.9995C23.9922 39.9995 38.75 29.9838 38.75 9.92914C38.75 8.48383 37.8359 7.11664 36.4453 6.5393ZM29.5625 15.0073C29.5625 15.3272 29.4405 15.647 29.1963 15.8909L18.3906 26.7651C18.1465 27.0091 17.8266 27.1312 17.507 27.1312C17.1875 27.1312 16.8672 27.0073 16.625 26.7651L10.8125 20.9604C10.5703 20.7182 10.4453 20.3979 10.4453 20.0073C10.4453 19.6873 10.5673 19.3675 10.8116 19.1237L11.6952 18.2401C11.9453 18.062 12.1953 17.9448 12.5781 17.9448C12.9609 17.9448 13.2187 18.062 13.4688 18.3041L17.5094 22.3448L26.5484 13.3057C26.7926 13.0616 27.1125 12.9396 27.432 12.9396C27.7516 12.9396 28.0718 13.0616 28.3156 13.3057L29.1992 14.1893C29.4453 14.437 29.5625 14.7573 29.5625 15.0073Z" fill="white"/>
</g>
<defs>
<clipPath id="clip0_1155_20456">
<rect width="40" height="39.9995" fill="white"/>
</clipPath>
</defs>
</svg>
