<svg width="40" height="40" viewBox="0 0 40 40" fill="none" xmlns="http://www.w3.org/2000/svg">
<path d="M20.25 22.5C21.2852 22.5 22.125 21.6602 22.125 20.625V11.875C22.125 10.8438 21.2891 10 20.25 10C19.2109 10 18.375 10.8438 18.375 11.875V20.625C18.375 21.6641 19.2188 22.5 20.25 22.5ZM20.25 25C18.8695 25 17.75 26.1195 17.75 27.5C17.75 28.8805 18.8695 30 20.25 30C21.6305 30 22.75 28.8805 22.75 27.5C22.75 26.1195 21.6328 25 20.25 25Z" fill="#E84A4A"/>
<path d="M36.6953 6.53828L21.6953 0.2875C21.3125 0.129375 20.6641 0 20.2578 0C19.8438 0 19.1953 0.129375 18.8125 0.288125L3.8125 6.53891C2.41328 7.11562 1.5 8.48438 1.5 9.92969C1.5 30.0938 16.2812 40 20.1797 40C24.2422 40 39 29.9844 39 9.92969C39 8.48438 38.0859 7.11563 36.6953 6.53828ZM18.375 11.875C18.375 10.8438 19.2188 10 20.25 10C21.2812 10 22.125 10.8398 22.125 11.875V20.625C22.125 21.6641 21.2891 22.5 20.25 22.5C19.2109 22.5 18.375 21.6641 18.375 20.625V11.875ZM20.25 30C18.8695 30 17.75 28.8805 17.75 27.5C17.75 26.1195 18.8695 25 20.25 25C21.6305 25 22.75 26.1195 22.75 27.5C22.75 28.8805 21.6328 30 20.25 30Z" fill="#2D253F"/>
</svg>
