<svg width="40" height="40" viewBox="0 0 40 40" fill="current" xmlns="http://www.w3.org/2000/svg">
<path d="M21.0469 0.335938C20.7188 0.1875 20.3672 0.109375 20 0.109375C19.6328 0.109375 19.2813 0.1875 18.9532 0.335938L4.24222 6.57812C2.52347 7.30469 1.24222 9 1.25004 11.0469C1.2891 18.7969 4.4766 32.9766 17.9375 39.4219C19.2422 40.0469 20.7578 40.0469 22.0625 39.4219C35.5235 32.9766 38.711 18.7969 38.75 11.0469C38.7578 9 37.4766 7.30469 35.7579 6.57812L21.0469 0.335938ZM28.8282 16.4375L18.8282 26.4375C18.0938 27.1719 16.9063 27.1719 16.1797 26.4375L11.1797 21.4375C10.4453 20.7031 10.4453 19.5156 11.1797 18.7891C11.9141 18.0625 13.1016 18.0547 13.8282 18.7891L17.5 22.4609L26.1719 13.7812C26.9063 13.0469 28.0938 13.0469 28.8203 13.7812C29.5469 14.5156 29.5547 15.7031 28.8203 16.4297L28.8282 16.4375Z" fill="current"/>
</svg>
