<svg width="40" height="40" viewBox="0 0 40 40" fill="none" xmlns="http://www.w3.org/2000/svg">
<path d="M5.70316 10.0312L20 3.96875L34.2969 10.0312C34.7578 10.2266 35.0078 10.6406 35 11.0313C34.9688 18.1719 32 30.5078 20.4453 36.0391C20.1641 36.1719 19.836 36.1719 19.5625 36.0391C8.00004 30.5 5.0391 18.1719 5.00004 11.0234C5.00004 10.6328 5.24222 10.2266 5.70316 10.0234V10.0312ZM35.7578 6.57813L21.0469 0.335938C20.7188 0.1875 20.3672 0.109375 20 0.109375C19.6328 0.109375 19.2813 0.1875 18.9532 0.335938L4.24222 6.57813C2.52347 7.30469 1.24222 9 1.25004 11.0469C1.2891 18.7969 4.4766 32.9766 17.9375 39.4219C19.2422 40.0469 20.7578 40.0469 22.0625 39.4219C35.5313 32.9766 38.711 18.7969 38.75 11.0469C38.7578 9 37.4766 7.30469 35.7578 6.57813ZM13.6719 13.7812C12.9375 14.5156 12.9375 15.7031 13.6719 16.4297L17.3438 20.1016L13.6719 23.7734C12.9375 24.5078 12.9375 25.6953 13.6719 26.4219C14.4063 27.1484 15.5938 27.1562 16.3203 26.4219L19.9922 22.75L23.6641 26.4219C24.3985 27.1562 25.586 27.1562 26.3125 26.4219C27.0391 25.6875 27.0469 24.5 26.3125 23.7734L22.6407 20.1016L26.3125 16.4297C27.0469 15.6953 27.0469 14.5078 26.3125 13.7812C25.5782 13.0547 24.3907 13.0469 23.6641 13.7812L19.9922 17.4531L16.3203 13.7812C15.586 13.0469 14.3985 13.0469 13.6719 13.7812Z" fill="#B3B3C3"/>
</svg>
