<svg width="24" height="24" viewBox="0 0 24 24" fill="none" xmlns="http://www.w3.org/2000/svg">
<path d="M10.5 3.75V20.25H21C21.4125 20.25 21.75 19.9125 21.75 19.5V4.5C21.75 4.0875 21.4125 3.75 21 3.75H10.5ZM0 4.5C0 2.84531 1.34531 1.5 3 1.5H21C22.6547 1.5 24 2.84531 24 4.5V19.5C24 21.1547 22.6547 22.5 21 22.5H3C1.34531 22.5 0 21.1547 0 19.5V4.5ZM3 5.625C3 6.24844 3.50156 6.75 4.125 6.75H6.375C6.99844 6.75 7.5 6.24844 7.5 5.625C7.5 5.00156 6.99844 4.5 6.375 4.5H4.125C3.50156 4.5 3 5.00156 3 5.625ZM4.125 9C3.50156 9 3 9.50156 3 10.125C3 10.7484 3.50156 11.25 4.125 11.25H6.375C6.99844 11.25 7.5 10.7484 7.5 10.125C7.5 9.50156 6.99844 9 6.375 9H4.125ZM3 14.625C3 15.2484 3.50156 15.75 4.125 15.75H6.375C6.99844 15.75 7.5 15.2484 7.5 14.625C7.5 14.0016 6.99844 13.5 6.375 13.5H4.125C3.50156 13.5 3 14.0016 3 14.625Z" fill="#8C8895"/>
</svg>
