<svg width="24" height="24" viewBox="0 0 24 24" fill="none" xmlns="http://www.w3.org/2000/svg">
<path d="M10.5 1.5V22.5H21C22.6547 22.5 24 21.1547 24 19.5V4.5C24 2.84531 22.6547 1.5 21 1.5H10.5Z" fill="#2E2640"/>
<path d="M3 1.5C1.34531 1.5 0 2.84531 0 4.5V19.5C0 21.1547 1.34531 22.5 3 22.5H10.5V1.5H3ZM4.125 4.5H6.375C6.99844 4.5 7.5 5.00156 7.5 5.625C7.5 6.24844 6.99844 6.75 6.375 6.75H4.125C3.50156 6.75 3 6.24844 3 5.625C3 5.00156 3.50156 4.5 4.125 4.5ZM3 10.125C3 9.50156 3.50156 9 4.125 9H6.375C6.99844 9 7.5 9.50156 7.5 10.125C7.5 10.7484 6.99844 11.25 6.375 11.25H4.125C3.50156 11.25 3 10.7484 3 10.125ZM4.125 13.5H6.375C6.99844 13.5 7.5 14.0016 7.5 14.625C7.5 15.2484 6.99844 15.75 6.375 15.75H4.125C3.50156 15.75 3 15.2484 3 14.625C3 14.0016 3.50156 13.5 4.125 13.5Z" fill="#FF4545"/>
</svg>
