<svg width="29" height="32" viewBox="0 0 29 32" fill="none" xmlns="http://www.w3.org/2000/svg">
<path d="M12.5007 0C11.3944 0 10.5007 0.89375 10.5007 2C10.5007 3.10625 11.3944 4 12.5007 4H14.5007L10.9007 8.8C10.4444 9.40625 10.3757 10.2188 10.7132 10.8938C11.0507 11.5688 11.7444 12 12.5007 12H18.5007C19.6069 12 20.5007 11.1062 20.5007 10C20.5007 8.89375 19.6069 8 18.5007 8H16.5007L20.1007 3.2C20.5569 2.59375 20.6257 1.78125 20.2882 1.10625C19.9507 0.43125 19.2569 0 18.5007 0H12.5007ZM20.5007 14C19.3944 14 18.5007 14.8938 18.5007 16C18.5007 17.1063 19.3944 18 20.5007 18H22.5007L18.9007 22.8C18.4444 23.4062 18.3757 24.2188 18.7132 24.8937C19.0507 25.5687 19.7444 26 20.5007 26H26.5007C27.6069 26 28.5007 25.1063 28.5007 24C28.5007 22.8937 27.6069 22 26.5007 22H24.5007L28.1007 17.2C28.5569 16.5938 28.6257 15.7812 28.2882 15.1062C27.9507 14.4312 27.2569 14 26.5007 14H20.5007ZM2.50067 16C1.39442 16 0.500667 16.8937 0.500667 18C0.500667 19.1063 1.39442 20 2.50067 20H8.23192L0.963167 28.7188C0.469417 29.3125 0.356917 30.1438 0.688167 30.85C1.01942 31.5562 1.72567 32 2.50067 32H12.5007C13.6069 32 14.5007 31.1063 14.5007 30C14.5007 28.8937 13.6069 28 12.5007 28H6.76942L14.0382 19.2812C14.5319 18.6875 14.6444 17.8562 14.3132 17.15C13.9819 16.4438 13.2757 16 12.5007 16H2.50067Z" fill="#8C8895"/>
</svg>
