<svg width="40" height="40" viewBox="0 0 40 40" fill="none" xmlns="http://www.w3.org/2000/svg">
<path d="M19.9286 7.14282C20.9911 7.14282 21.8572 8.00889 21.8572 9.07139V10.3393C22.8929 10.4643 23.8483 10.7857 24.9375 10.991C25.9643 11.3571 26.5715 12.4196 26.2858 13.4464C26 14.4732 24.9375 15.0714 23.9108 14.7857C23.1518 14.5803 22.384 14.3482 21.6161 14.1964C20.4375 13.9732 19.0715 14.0803 17.9643 14.5535C16.9822 14.9821 16.1697 16.0178 17.2858 16.7321C18.3483 17.3303 19.6786 17.6875 20.875 18.0268C22.2679 18.4285 24.0447 18.9285 25.375 19.8393C27.1072 21.0268 27.9197 22.9643 27.5447 25.0357C27.1697 27.0357 25.7858 28.3482 24.1072 29.0178C23.4108 29.3035 22.6518 29.4821 21.8572 29.5714V30.9285C21.8572 31.991 20.9911 32.8571 19.9286 32.8571C18.8661 32.8571 18 31.991 18 30.9285V29.375C16.7054 29.0893 15.4375 28.6696 14.1786 28.2589C13.1697 27.9285 12.6161 26.8303 12.9554 25.8214C13.2858 24.8125 14.384 24.2589 15.3929 24.5982C16.6161 25 17.875 25.4821 19.1429 25.6785C20.6608 25.9018 21.7947 25.7678 22.6697 25.366C23.7411 25.0089 24.2411 23.741 23.1965 23.0268C22.125 22.2857 20.7411 22 19.509 21.6518C18.1608 21.2678 16.4822 20.7946 15.2143 19.9821C13.4733 18.866 12.5804 17.0089 12.9554 14.9464C13.3125 13 14.8304 11.7053 16.4375 11.0178C16.9286 10.7232 17.4465 10.6339 18 10.5089V9.07139C18 8.00889 18.8661 7.14282 19.9286 7.14282Z" fill="#E84A4A"/>
<path d="M34.2857 0C37.4375 0 40 2.55804 40 5.71429V34.2857C40 37.4375 37.4375 40 34.2857 40H5.71429C2.55804 40 0 37.4375 0 34.2857V5.71429C0 2.55804 2.55804 0 5.71429 0H34.2857ZM21.8571 9.07143C21.8571 8.00893 20.9911 7.14286 19.9286 7.14286C18.8661 7.14286 18 8.00893 18 9.07143V10.5089C17.4554 10.6339 16.9286 10.7232 16.4375 11.0179C14.8304 11.7054 13.3125 13 12.9554 14.9464C12.5804 17.0089 13.4732 18.8661 15.2143 19.9821C16.4821 20.7946 18.1607 21.2679 19.5089 21.6518C19.7054 21.7054 19.8304 21.7589 20.1161 21.8214C21.1786 22.1071 22.2946 22.3304 23.1964 23.0268C24.2411 23.7411 23.7411 25.0089 22.6696 25.3661C21.7946 25.7679 20.6607 25.9018 19.1429 25.6786C18.1071 25.5179 17.0714 25.1607 16.0625 24.8214C15.8393 24.75 15.6161 24.6696 15.3929 24.5982C14.3839 24.2589 13.2857 24.8125 12.9554 25.8214C12.6161 26.8304 13.1696 27.9286 14.1786 28.2589C15.4375 28.6696 16.7054 29.0893 18 29.375V30.9286C18 31.9911 18.8661 32.8571 19.9286 32.8571C20.9911 32.8571 21.8571 31.9911 21.8571 30.9286V29.5714C22.6518 29.4821 23.4107 29.3036 24.1071 29.0179C25.7857 28.3482 27.1696 27.0357 27.5446 25.0357C27.9196 22.9643 27.1071 21.0268 25.375 19.8393C24.0446 18.9286 22.2679 18.4286 20.875 18.0268C20.6696 17.9732 20.4554 17.9107 20.25 17.7768C19.2321 17.5804 18.1696 17.2946 17.2857 16.7321C16.1696 16.0179 16.9821 14.9821 17.9643 14.5536C19.0714 14.0804 20.4375 13.9732 21.6161 14.1964C22.25 14.3214 22.875 14.5 23.5 14.6696C23.6339 14.7143 23.7768 14.75 23.9107 14.7857C24.9375 15.0714 26 14.4732 26.2857 13.4464C26.5714 12.4196 25.9643 11.3571 24.9375 10.9911C24.7768 11.0268 24.6071 10.9732 24.4464 10.9286C23.5893 10.6875 22.7232 10.4464 21.8571 10.3393V9.07143Z" fill="white"/>
</svg>
