<svg width="21" height="24" viewBox="0 0 21 24" fill="none" xmlns="http://www.w3.org/2000/svg">
<path d="M3 3.75C2.5875 3.75 2.25 4.0875 2.25 4.5V19.5C2.25 19.9125 2.5875 20.25 3 20.25H18C18.4125 20.25 18.75 19.9125 18.75 19.5V4.5C18.75 4.0875 18.4125 3.75 18 3.75H3ZM0 4.5C0 2.84531 1.34531 1.5 3 1.5H18C19.6547 1.5 21 2.84531 21 4.5V19.5C21 21.1547 19.6547 22.5 18 22.5H3C1.34531 22.5 0 21.1547 0 19.5V4.5ZM7.125 6H13.125C13.5891 6 14.0062 6.28594 14.175 6.71719C14.3438 7.14844 14.2266 7.64062 13.8844 7.95469L11.5031 10.1344C13.4672 10.3594 15 12.0281 15 14.0531C15 16.2328 13.2328 18 11.0531 18H9.75C8.33906 18 7.02656 17.2687 6.28594 16.0687L6.16406 15.8719C5.83594 15.3422 6 14.6484 6.52969 14.325C7.05938 14.0016 7.75313 14.1609 8.07656 14.6906L8.19844 14.8875C8.53125 15.4266 9.11719 15.75 9.74531 15.75H11.0484C11.9859 15.75 12.7453 14.9906 12.7453 14.0531C12.7453 13.1109 11.9812 12.3516 11.0391 12.3563L8.625 12.3703C8.16094 12.375 7.73906 12.0891 7.57031 11.6578C7.40156 11.2266 7.51406 10.7297 7.85625 10.4156L10.2328 8.25H7.125C6.50156 8.25 6 7.74844 6 7.125C6 6.50156 6.50156 6 7.125 6Z" fill="#B3B3C3"/>
</svg>
