<svg width="21" height="24" viewBox="0 0 21 24" fill="none" xmlns="http://www.w3.org/2000/svg">
<path d="M0 4.5C0 2.84531 1.34531 1.5 3 1.5H18C19.6547 1.5 21 2.84531 21 4.5V19.5C21 21.1547 19.6547 22.5 18 22.5H3C1.34531 22.5 0 21.1547 0 19.5V4.5ZM5.26406 13.6969C5.25938 13.725 5.25469 13.7578 5.25469 13.7859C5.25469 13.8141 5.25 13.8469 5.25 13.875C5.25 13.9172 5.25 13.9172 5.25469 13.9641C5.25469 13.9641 5.25938 14.0063 5.26406 14.0484C5.27344 14.1047 5.2875 14.1609 5.30625 14.2172C5.34375 14.3297 5.39531 14.4328 5.46562 14.5312C5.67656 14.8266 6.01875 15 6.37969 15C8.00625 15 9.62813 15 11.2547 15C11.2547 15.6234 11.2547 16.2516 11.2547 16.875C11.2547 16.9312 11.2547 16.9312 11.2594 16.9922C11.2594 16.9922 11.2641 17.0484 11.2781 17.1047C11.2922 17.1797 11.3156 17.25 11.3438 17.3156C11.4 17.4516 11.4844 17.5734 11.5828 17.6719C11.7844 17.8734 12.0656 18 12.3797 18C13.0031 18 13.5047 17.4984 13.5047 16.875V15C13.6313 15 13.7531 15 13.8797 15C14.5031 15 15.0047 14.4984 15.0047 13.875C15.0047 13.2516 14.5031 12.75 13.8797 12.75C13.7531 12.75 13.6313 12.75 13.5047 12.75C13.5047 11.8734 13.5047 11.0016 13.5047 10.125C13.5047 9.50156 13.0031 9 12.3797 9C12.0703 9 11.7891 9.12656 11.5828 9.32812C11.4797 9.43125 11.4 9.55313 11.3438 9.68438C11.3156 9.75 11.2922 9.82031 11.2781 9.89531C11.2688 9.93281 11.2641 9.97031 11.2594 10.0078C11.2547 10.0453 11.2547 10.0828 11.2547 10.125V12.75C10.1484 12.75 9.04688 12.75 7.94062 12.75C8.52656 10.9922 9.1125 9.23906 9.69844 7.48125C9.89531 6.89063 9.57656 6.25312 8.98594 6.05625C8.39531 5.85938 7.75781 6.17812 7.56094 6.76875C6.81094 9.01875 6.06094 11.2687 5.31094 13.5187C5.29219 13.575 5.27813 13.6359 5.26875 13.6969H5.26406Z" fill="#2E2640"/>
<path d="M9.69379 7.48125C9.89067 6.89062 9.57192 6.25312 8.98129 6.05625C8.39067 5.85937 7.75317 6.17812 7.55629 6.76875L5.30629 13.5187C5.19379 13.8609 5.25004 14.2406 5.46098 14.5312C5.67192 14.8219 6.01411 15 6.37504 15H11.25V16.875C11.25 17.4984 11.7516 18 12.375 18C12.9985 18 13.5 17.4984 13.5 16.875V15H13.875C14.4985 15 15 14.4984 15 13.875C15 13.2516 14.4985 12.75 13.875 12.75H13.5V10.125C13.5 9.50156 12.9985 9 12.375 9C11.7516 9 11.25 9.50156 11.25 10.125V12.75H7.93598L9.69379 7.48125Z" fill="#FF4545"/>
</svg>
