<svg width="21" height="24" viewBox="0 0 21 24" fill="none" xmlns="http://www.w3.org/2000/svg">
<path d="M18 3.75C18.4125 3.75 18.75 4.0875 18.75 4.5V19.5C18.75 19.9125 18.4125 20.25 18 20.25H3C2.5875 20.25 2.25 19.9125 2.25 19.5V4.5C2.25 4.0875 2.5875 3.75 3 3.75H18ZM3 1.5C1.34531 1.5 0 2.84531 0 4.5V19.5C0 21.1547 1.34531 22.5 3 22.5H18C19.6547 22.5 21 21.1547 21 19.5V4.5C21 2.84531 19.6547 1.5 18 1.5H3ZM8.98125 6.05625C8.39062 5.85938 7.75312 6.17812 7.55625 6.76875L5.30625 13.5187C5.19375 13.8609 5.25 14.2406 5.46094 14.5312C5.67188 14.8219 6.01406 15 6.375 15H11.25V16.875C11.25 17.4984 11.7516 18 12.375 18C12.9984 18 13.5 17.4984 13.5 16.875V15H13.875C14.4984 15 15 14.4984 15 13.875C15 13.2516 14.4984 12.75 13.875 12.75H13.5V10.125C13.5 9.50156 12.9984 9 12.375 9C11.7516 9 11.25 9.50156 11.25 10.125V12.75H7.93594L9.69375 7.48125C9.89062 6.89063 9.57188 6.25312 8.98125 6.05625Z" fill="#B3B3C3"/>
</svg>
