<svg width="40" height="40" viewBox="0 0 40 40" fill="none" xmlns="http://www.w3.org/2000/svg">
<g clip-path="url(#clip0_3132_56695)">
<path d="M12.1429 22.1429C10.9554 22.1429 10 21.1875 10 20C10 18.8125 10.9554 17.8571 12.1429 17.8571H17.8571V12.1429C17.8571 10.9554 18.8125 10 20 10C21.1875 10 22.1429 10.9554 22.1429 12.1429V17.8571H27.8571C29.0446 17.8571 30 18.8125 30 20C30 21.1875 29.0446 22.1429 27.8571 22.1429H22.1429V27.8571C22.1429 29.0446 21.1875 30 20 30C18.8125 30 17.8571 29.0446 17.8571 27.8571V22.1429H12.1429Z" fill="#E84A4A"/>
<path d="M34.2857 0C37.4375 0 40 2.55804 40 5.71429V34.2857C40 37.4375 37.4375 40 34.2857 40H5.71429C2.55804 40 0 37.4375 0 34.2857V5.71429C0 2.55804 2.55804 0 5.71429 0H34.2857ZM20 30C21.1875 30 22.1429 29.0446 22.1429 27.8571V22.1429H27.8571C29.0446 22.1429 30 21.1875 30 20C30 18.8125 29.0446 17.8571 27.8571 17.8571H22.1429V12.1429C22.1429 10.9554 21.1875 10 20 10C18.8125 10 17.8571 10.9554 17.8571 12.1429V17.8571H12.1429C10.9554 17.8571 10 18.8125 10 20C10 21.1875 10.9554 22.1429 12.1429 22.1429H17.8571V27.8571C17.8571 29.0446 18.8125 30 20 30Z" fill="#2D253F"/>
</g>
<defs>
<clipPath id="clip0_3132_56695">
<rect width="40" height="40" fill="white"/>
</clipPath>
</defs>
</svg>
