<svg width="40" height="41" viewBox="0 0 40 41" fill="none" xmlns="http://www.w3.org/2000/svg">
<path d="M19.9999 22.1528C23.5508 22.1528 26.4285 19.2743 26.4285 15.7243C26.4285 12.1707 23.5535 9.29568 19.9999 9.29568C16.4464 9.29568 13.5714 12.1707 13.5714 15.7243C13.5714 19.2778 16.4464 22.1528 19.9999 22.1528ZM22.8571 26.4385H17.1428C12.1089 26.4385 7.98207 30.1698 7.28564 35.01H32.7142C32.0178 30.1707 27.8928 26.4385 22.8571 26.4385Z" fill="#E84A4A"/>
<path d="M34.2857 0.724243H5.71429C2.55804 0.724243 0 3.28228 0 6.43853V35.01C0 38.1662 2.55804 40.7242 5.71429 40.7242H34.2857C37.442 40.7242 40 38.1662 40 35.01V6.43853C40 3.28228 37.4375 0.724243 34.2857 0.724243ZM20 9.29567C23.5509 9.29567 26.4286 12.1734 26.4286 15.7242C26.4286 19.2742 23.5509 22.1528 20 22.1528C16.45 22.1528 13.5714 19.2742 13.5714 15.7242C13.5714 12.1707 16.4464 9.29567 20 9.29567ZM7.28661 35.01C7.98571 30.1707 12.1071 26.4385 17.1429 26.4385H22.8571C27.8911 26.4385 32.0179 30.1698 32.7143 35.01H7.28661Z" fill="#2D253F"/>
</svg>
