<svg width="21" height="24" viewBox="0 0 21 24" fill="none" xmlns="http://www.w3.org/2000/svg">
<path d="M0 4.5V19.5C0 21.1547 1.34531 22.5 3 22.5H18C19.6547 22.5 21 21.1547 21 19.5V4.5C21 2.84531 19.6547 1.5 18 1.5H3C1.34531 1.5 0 2.84531 0 4.5ZM6 7.125C6 6.50156 6.50156 6 7.125 6H13.125C13.5891 6 14.0062 6.28594 14.175 6.71719C14.3438 7.14844 14.2266 7.64062 13.8844 7.95469C13.0922 8.68125 12.3 9.40781 11.5031 10.1344C12.4875 10.2469 13.3594 10.7203 13.9875 11.4188C14.3016 11.7703 14.5547 12.1734 14.7281 12.6188C14.8172 12.8391 14.8828 13.0734 14.9297 13.3125C14.9531 13.4344 14.9719 13.5562 14.9813 13.6781C14.9859 13.7391 14.9906 13.8 14.9953 13.8656C15 13.9312 15 13.9922 15 14.0578C15 14.1281 15 14.1937 14.9953 14.2641C14.9906 14.3297 14.9859 14.3953 14.9813 14.4656C14.9672 14.5969 14.9484 14.7281 14.9203 14.8547C14.8687 15.1125 14.7891 15.3609 14.6906 15.5953C14.4891 16.0688 14.2031 16.4906 13.8469 16.8469C13.1344 17.5594 12.1453 18 11.0578 18H9.75C8.33906 18 7.02656 17.2687 6.28594 16.0687C6.24375 16.0031 6.20625 15.9375 6.16406 15.8719C6.05156 15.6891 5.99531 15.4828 5.99531 15.2812C5.99531 14.9062 6.18281 14.5359 6.52969 14.325C7.05938 13.9969 7.75313 14.1609 8.07656 14.6906L8.19844 14.8875C8.53125 15.4266 9.11719 15.75 9.74531 15.75H11.0484C11.5172 15.75 11.9391 15.5625 12.2484 15.2531C12.4031 15.0984 12.525 14.9156 12.6094 14.7141C12.6516 14.6109 12.6844 14.5078 12.7078 14.3953C12.7172 14.3391 12.7266 14.2828 12.7313 14.2266C12.7359 14.1984 12.7359 14.1703 12.7359 14.1422C12.7359 14.1141 12.7359 14.0859 12.7359 14.0484C12.7359 14.0156 12.7359 13.9922 12.7359 13.9641C12.7359 13.9359 12.7313 13.9078 12.7313 13.8797C12.7266 13.8234 12.7172 13.7672 12.7031 13.7109C12.6797 13.5984 12.6469 13.4953 12.6047 13.3922C12.5203 13.1906 12.3938 13.0078 12.2391 12.8531C11.9297 12.5484 11.5031 12.3563 11.0344 12.3609L8.62031 12.375C8.15625 12.3797 7.73437 12.0938 7.56562 11.6625C7.39687 11.2312 7.50938 10.7344 7.85156 10.4203C8.63906 9.69844 9.43125 8.97188 10.2188 8.25H7.125C6.50156 8.25 6 7.74844 6 7.125Z" fill="white"/>
<path d="M6.00001 7.125C6.00001 6.50156 6.50158 6 7.12501 6H13.125C13.5891 6 14.0063 6.28594 14.175 6.71719C14.3438 7.14844 14.2266 7.64062 13.8891 7.95469L11.5078 10.1344C13.4719 10.3594 15.0047 12.0281 15.0047 14.0531C15.0047 16.2328 13.2375 18 11.0578 18H9.75001C8.33908 18 7.02658 17.2687 6.28595 16.0687L6.16408 15.8719C5.83595 15.3422 6.00001 14.6484 6.5297 14.325C7.05939 14.0016 7.75314 14.1609 8.07658 14.6906L8.19845 14.8875C8.53126 15.4266 9.1172 15.75 9.74532 15.75H11.0484C11.9859 15.75 12.7453 14.9906 12.7453 14.0531C12.7453 13.1109 11.9813 12.3516 11.0391 12.3563L8.62501 12.3703C8.16095 12.375 7.73908 12.0891 7.57033 11.6578C7.40158 11.2266 7.51408 10.7297 7.85626 10.4156L10.2328 8.25H7.12501C6.50158 8.25 6.00001 7.74844 6.00001 7.125Z" fill="#FF4545"/>
</svg>
