<svg width="40" height="41" viewBox="0 0 40 41" fill="none" xmlns="http://www.w3.org/2000/svg">
<g clip-path="url(#clip0_2887_46081)">
<path d="M34.2857 5.00996C35.0714 5.00996 35.7143 5.65281 35.7143 6.43853V35.01C35.7143 35.7957 35.0714 36.4385 34.2857 36.4385H34.1964C33.4911 30.8046 28.6875 26.4385 22.8571 26.4385H17.1429C11.3125 26.4385 6.50893 30.8046 5.80357 36.4385H5.71429C4.92857 36.4385 4.28571 35.7957 4.28571 35.01V6.43853C4.28571 5.65281 4.92857 5.00996 5.71429 5.00996H34.2857ZM29.8571 36.4385H10.1429C10.8036 33.1796 13.6875 30.7242 17.1429 30.7242H22.8571C26.3125 30.7242 29.1964 33.1796 29.8571 36.4385ZM5.71429 0.724243C2.5625 0.724243 0 3.28674 0 6.43853V35.01C0 38.1617 2.5625 40.7242 5.71429 40.7242H34.2857C37.4375 40.7242 40 38.1617 40 35.01V6.43853C40 3.28674 37.4375 0.724243 34.2857 0.724243H5.71429ZM20 19.2957C19.0528 19.2957 18.1444 18.9194 17.4746 18.2496C16.8048 17.5799 16.4286 16.6714 16.4286 15.7242C16.4286 14.777 16.8048 13.8686 17.4746 13.1989C18.1444 12.5291 19.0528 12.1528 20 12.1528C20.9472 12.1528 21.8556 12.5291 22.5254 13.1989C23.1952 13.8686 23.5714 14.777 23.5714 15.7242C23.5714 16.6714 23.1952 17.5799 22.5254 18.2496C21.8556 18.9194 20.9472 19.2957 20 19.2957ZM12.1429 15.7242C12.1429 17.8081 12.9707 19.8066 14.4442 21.2801C15.9177 22.7536 17.9162 23.5814 20 23.5814C22.0838 23.5814 24.0823 22.7536 25.5558 21.2801C27.0293 19.8066 27.8571 17.8081 27.8571 15.7242C27.8571 13.6404 27.0293 11.6419 25.5558 10.1684C24.0823 8.6949 22.0838 7.8671 20 7.8671C17.9162 7.8671 15.9177 8.6949 14.4442 10.1684C12.9707 11.6419 12.1429 13.6404 12.1429 15.7242Z" fill="#B3B3C3"/>
</g>
<defs>
<clipPath id="clip0_2887_46081">
<rect width="40" height="40" fill="white" transform="translate(0 0.724243)"/>
</clipPath>
</defs>
</svg>
