<svg width="21" height="24" viewBox="0 0 21 24" fill="current" xmlns="http://www.w3.org/2000/svg">
<path d="M3 1.5C1.34531 1.5 0 2.84531 0 4.5V19.5C0 21.1547 1.34531 22.5 3 22.5H18C19.6547 22.5 21 21.1547 21 19.5V4.5C21 2.84531 19.6547 1.5 18 1.5H3ZM8.25 6H13.125C13.7484 6 14.25 6.50156 14.25 7.125C14.25 7.74844 13.7484 8.25 13.125 8.25H9.1875L8.82187 10.2656L11.7 10.5891C13.5797 10.8 15 12.3891 15 14.2828C15 16.3359 13.3359 18 11.2828 18H9.59531C8.30625 18 7.09688 17.3578 6.37969 16.2844L6.1875 15.9984C5.84062 15.4828 5.97656 14.7844 6.49219 14.4375C7.00781 14.0906 7.70625 14.2266 8.05313 14.7422L8.24531 15.0281C8.54531 15.4781 9.05156 15.7453 9.59531 15.7453H11.2828C12.0938 15.7453 12.75 15.0891 12.75 14.2781C12.75 13.5328 12.1875 12.9047 11.4469 12.8203L7.37344 12.3609C7.06406 12.3281 6.78281 12.1641 6.59531 11.9156C6.40781 11.6672 6.3375 11.3484 6.38906 11.0438L7.13906 6.91875C7.2375 6.38438 7.70156 5.99531 8.24531 5.99531L8.25 6Z" fill="current"/>
</svg>
