<svg width="21" height="24" viewBox="0 0 21 24" fill="none" xmlns="http://www.w3.org/2000/svg">
<path d="M0 4.5V19.5C0 21.1547 1.34531 22.5 3 22.5H18C19.6547 22.5 21 21.1547 21 19.5V4.5C21 2.84531 19.6547 1.5 18 1.5H3C1.34531 1.5 0 2.84531 0 4.5ZM6.19219 16.0031C5.84531 15.4875 5.98125 14.7891 6.49688 14.4422C7.0125 14.0953 7.71094 14.2313 8.05781 14.7469L8.25 15.0328C8.55 15.4828 9.05625 15.75 9.6 15.75H11.2875C11.6906 15.75 12.0609 15.5859 12.3234 15.3187C12.4547 15.1875 12.5625 15.0281 12.6375 14.8547C12.675 14.7656 12.7031 14.6766 12.7219 14.5781C12.7312 14.5312 12.7406 14.4797 12.7453 14.4328C12.75 14.4094 12.75 14.3812 12.75 14.3578C12.75 14.3344 12.75 14.3109 12.75 14.2734C12.75 14.2453 12.75 14.2266 12.75 14.2078C12.75 14.1844 12.7453 14.1609 12.7453 14.1375C12.7406 14.0906 12.7359 14.0484 12.7266 14.0016C12.7078 13.9125 12.6844 13.8281 12.6516 13.7438C12.5859 13.5797 12.4922 13.4297 12.3797 13.2984C12.1453 13.0359 11.8219 12.8625 11.4516 12.8203C10.0922 12.6656 8.7375 12.5156 7.37812 12.3609C7.06875 12.3281 6.7875 12.1641 6.6 11.9156C6.4125 11.6672 6.34219 11.3484 6.39375 11.0438C6.64219 9.67031 6.89531 8.29219 7.14375 6.91875C7.24219 6.38438 7.70625 5.99531 8.25 5.99531H13.125C13.4344 5.99531 13.7156 6.12187 13.9219 6.32344C14.025 6.42656 14.1047 6.54844 14.1609 6.67969C14.1891 6.74531 14.2125 6.81563 14.2266 6.89062C14.2359 6.92812 14.2406 6.96562 14.2453 7.00312C14.25 7.04062 14.25 7.07812 14.25 7.125C14.25 7.15781 14.25 7.19531 14.2453 7.23281C14.2406 7.27031 14.2359 7.30781 14.2266 7.34531C14.2125 7.42031 14.1891 7.49062 14.1609 7.55625C14.1047 7.69219 14.0203 7.81406 13.9219 7.9125C13.7203 8.11406 13.4391 8.24063 13.125 8.24063H9.1875C9.06563 8.91094 8.94375 9.58594 8.82187 10.2563C9.78281 10.3641 10.7391 10.4719 11.7 10.5797C12.6375 10.6875 13.4625 11.1375 14.0531 11.7984C14.3484 12.1266 14.5828 12.5109 14.7469 12.9281C14.8266 13.1391 14.8922 13.3547 14.9344 13.5797C14.9578 13.6922 14.9719 13.8047 14.9813 13.9219C14.9859 13.9781 14.9906 14.0391 14.9953 14.0953C15 14.1516 15 14.2078 15 14.2734C15 14.3391 15 14.4047 14.9953 14.4656C14.9906 14.5266 14.9859 14.5922 14.9813 14.6531C14.9672 14.7797 14.9484 14.9016 14.925 15.0234C14.8734 15.2672 14.8031 15.4969 14.7094 15.7219C14.5219 16.1672 14.25 16.5656 13.9125 16.9031C13.2422 17.5734 12.3094 17.9906 11.2828 17.9906H9.59531C8.30625 17.9906 7.09688 17.3484 6.37969 16.275C6.31406 16.1813 6.25313 16.0875 6.1875 15.9891L6.19219 16.0031Z" fill="#2E2640"/>
<path d="M7.14372 6.92344C7.24216 6.38906 7.70622 6 8.24997 6H13.125C13.7484 6 14.25 6.50156 14.25 7.125C14.25 7.74844 13.7484 8.25 13.125 8.25H9.18747L8.82185 10.2656L11.7 10.5891C13.5797 10.8 15 12.3891 15 14.2828C15 16.3359 13.3359 18 11.2828 18H9.59528C8.30622 18 7.09685 17.3578 6.37966 16.2844L6.18747 15.9984C5.8406 15.4828 5.97653 14.7844 6.49216 14.4375C7.00778 14.0906 7.70622 14.2266 8.0531 14.7422L8.24528 15.0281C8.54528 15.4781 9.05153 15.7453 9.59528 15.7453H11.2828C12.0937 15.7453 12.75 15.0891 12.75 14.2781C12.75 13.5328 12.1875 12.9047 11.4468 12.8203L7.37341 12.3609C7.06403 12.3281 6.78278 12.1641 6.59528 11.9156C6.40778 11.6672 6.33747 11.3484 6.38903 11.0438L7.13903 6.91875L7.14372 6.92344Z" fill="#FF4545"/>
</svg>
