<svg width="21" height="24" viewBox="0 0 21 24" fill="current" xmlns="http://www.w3.org/2000/svg">
<path d="M0 4.5C0 2.84531 1.34531 1.5 3 1.5H18C19.6547 1.5 21 2.84531 21 4.5V19.5C21 21.1547 19.6547 22.5 18 22.5H3C1.34531 22.5 0 21.1547 0 19.5V4.5ZM11.0625 6.15C10.7156 5.94844 10.2891 5.94844 9.9375 6.14531L7.3125 7.64531C6.77344 7.95469 6.58594 8.63906 6.89531 9.17813C7.20469 9.71719 7.88906 9.90469 8.42813 9.59531L9.375 9.06562V15.75H7.5C6.87656 15.75 6.375 16.2516 6.375 16.875C6.375 17.4984 6.87656 18 7.5 18H10.5H13.5C14.1234 18 14.625 17.4984 14.625 16.875C14.625 16.2516 14.1234 15.75 13.5 15.75H11.625V7.125C11.625 6.72188 11.4094 6.35156 11.0625 6.15Z" fill="current"/>
</svg>
