<svg width="21" height="24" viewBox="0 0 21 24" fill="none" xmlns="http://www.w3.org/2000/svg">
<path d="M0 4.5V19.5C0 21.1547 1.34531 22.5 3 22.5H18C19.6547 22.5 21 21.1547 21 19.5V4.5C21 2.84531 19.6547 1.5 18 1.5H3C1.34531 1.5 0 2.84531 0 4.5ZM6.00937 8.49844C6.01406 8.45625 6.02344 8.41406 6.03281 8.37188C6.05156 8.2875 6.07969 8.20781 6.11719 8.13281C6.19219 7.97813 6.30469 7.8375 6.45 7.72969C6.82969 7.44375 7.20469 7.15312 7.58438 6.86719C8.325 6.30469 9.23438 6.00469 10.1672 6.01875C10.2188 6.01875 10.275 6.01875 10.3266 6.02344C12.5063 6.05625 14.2547 7.83281 14.2547 10.0125C14.2547 11.1141 13.8 12.1688 12.9938 12.9234C11.9859 13.8656 10.9828 14.8125 9.975 15.7547C11.2781 15.7547 12.5766 15.7547 13.8797 15.7547C14.5031 15.7547 15.0047 16.2563 15.0047 16.8797C15.0047 17.5031 14.5031 18.0047 13.8797 18.0047C11.6297 18.0047 9.37969 18.0047 7.12969 18.0047C6.67031 18.0047 6.25313 17.7234 6.08438 17.2922C5.91563 16.8609 6.02344 16.3734 6.36094 16.0594C8.05781 14.4656 9.75937 12.8766 11.4562 11.2828C11.8078 10.9547 12.0047 10.4953 12.0047 10.0125C12.0047 9.06094 11.2406 8.2875 10.2891 8.27344L10.1297 8.26875C9.70312 8.26406 9.28594 8.4 8.94375 8.65781C8.56406 8.94375 8.18906 9.23438 7.80938 9.52031C7.31719 9.89531 6.60938 9.80156 6.23438 9.30469C6.15469 9.20156 6.09844 9.09375 6.06094 8.97656C6.04219 8.92031 6.02812 8.85938 6.01875 8.80313C6.01406 8.76094 6.00937 8.71406 6.00937 8.71875C6.00469 8.67188 6.00469 8.67188 6.00469 8.625C6.00469 8.58281 6.00469 8.57344 6.00469 8.55938C6.00469 8.54063 6.00937 8.51719 6.00937 8.49844Z" fill="#2E2640"/>
<path d="M10.125 8.26407C9.69847 8.25938 9.28128 8.39532 8.93909 8.65313L7.80472 9.51563C7.31253 9.89063 6.60472 9.79688 6.22972 9.30469C5.85472 8.8125 5.94847 8.10469 6.44065 7.72969L7.57503 6.86719C8.31565 6.30469 9.22503 6.00469 10.1578 6.01875L10.3172 6.02344C12.4969 6.05625 14.2453 7.83282 14.2453 10.0125C14.2453 11.1141 13.7907 12.1688 12.9844 12.9234L9.97034 15.75H13.875C14.4985 15.75 15 16.2516 15 16.875C15 17.4984 14.4985 18 13.875 18H7.12503C6.66565 18 6.24847 17.7188 6.07972 17.2875C5.91097 16.8563 6.01878 16.3688 6.35628 16.0547L11.4516 11.2781C11.8032 10.95 12 10.4906 12 10.0078C12 9.05625 11.236 8.28282 10.2844 8.26875L10.125 8.26407Z" fill="#FF4545"/>
</svg>
