<svg width="40" height="40" viewBox="0 0 40 40" fill="none" xmlns="http://www.w3.org/2000/svg">
<g clip-path="url(#clip0_2896_46146)">
<path d="M25.7232 12.7679L31.4375 18.4821C32.3482 19.3214 32.3482 20.6786 31.4375 21.4375L25.7232 27.1518C24.9643 28.0625 23.6071 28.0625 22.7679 27.1518C21.9375 26.3929 21.9375 25.0357 22.7679 24.1964L26.9732 20L22.7679 15.7232C21.9375 14.9643 21.9375 13.6071 22.7679 12.7679C23.6071 11.9375 24.9643 11.9375 25.7232 12.7679ZM13.0268 20L17.1518 24.1964C18.0625 25.0357 18.0625 26.3929 17.1518 27.1518C16.3929 28.0625 15.0357 28.0625 14.1964 27.1518L8.48482 21.4375C7.64821 20.6786 7.64821 19.3214 8.48482 18.4821L14.1964 12.7679C15.0357 11.9375 16.3929 11.9375 17.1518 12.7679C18.0625 13.6071 18.0625 14.9643 17.1518 15.7232L13.0268 20ZM34.2857 0C37.4375 0 40 2.55804 40 5.71429V34.2857C40 37.4375 37.4375 40 34.2857 40H5.71429C2.55804 40 0 37.4375 0 34.2857V5.71429C0 2.55804 2.55804 0 5.71429 0H34.2857ZM34.2857 4.28571H5.71429C4.925 4.28571 4.28571 4.925 4.28571 5.71429V34.2857C4.28571 35.0714 4.925 35.7143 5.71429 35.7143H34.2857C35.0714 35.7143 35.7143 35.0714 35.7143 34.2857V5.71429C35.7143 4.925 35.0714 4.28571 34.2857 4.28571Z" fill="#B3B3C3"/>
</g>
<defs>
<clipPath id="clip0_2896_46146">
<rect width="40" height="40" fill="white"/>
</clipPath>
</defs>
</svg>
