<svg width="21" height="24" viewBox="0 0 21 24" fill="none" xmlns="http://www.w3.org/2000/svg">
<path d="M3 3.75C2.5875 3.75 2.25 4.0875 2.25 4.5V19.5C2.25 19.9125 2.5875 20.25 3 20.25H18C18.4125 20.25 18.75 19.9125 18.75 19.5V4.5C18.75 4.0875 18.4125 3.75 18 3.75H3ZM0 4.5C0 2.84531 1.34531 1.5 3 1.5H18C19.6547 1.5 21 2.84531 21 4.5V19.5C21 21.1547 19.6547 22.5 18 22.5H3C1.34531 22.5 0 21.1547 0 19.5V4.5ZM8.93906 8.65781L7.80469 9.52031C7.3125 9.89531 6.60469 9.80156 6.22969 9.30938C5.85469 8.81719 5.94844 8.10938 6.44062 7.73438L7.575 6.87188C8.31563 6.30938 9.225 6.00938 10.1578 6.02344L10.3172 6.02813C12.4969 6.06094 14.2453 7.8375 14.2453 10.0172C14.2453 11.1187 13.7906 12.1734 12.9844 12.9281L9.97031 15.75H13.875C14.4984 15.75 15 16.2516 15 16.875C15 17.4984 14.4984 18 13.875 18H7.125C6.66563 18 6.24844 17.7188 6.07969 17.2875C5.91094 16.8562 6.01875 16.3687 6.35625 16.0547L11.4516 11.2781C11.8031 10.95 12 10.4906 12 10.0078C12 9.05625 11.2359 8.28281 10.2844 8.26875L10.125 8.26406C9.69844 8.25938 9.28125 8.39531 8.93906 8.65313V8.65781Z" fill="#B3B3C3"/>
</svg>
