<svg width="40" height="40" viewBox="0 0 40 40" fill="none" xmlns="http://www.w3.org/2000/svg">
<g clip-path="url(#clip0_2896_46164)">
<path d="M5.71429 4.28571C4.92857 4.28571 4.28571 4.92857 4.28571 5.71429V34.2857C4.28571 35.0714 4.92857 35.7143 5.71429 35.7143H34.2857C35.0714 35.7143 35.7143 35.0714 35.7143 34.2857V5.71429C35.7143 4.92857 35.0714 4.28571 34.2857 4.28571H5.71429ZM0 5.71429C0 2.5625 2.5625 0 5.71429 0H34.2857C37.4375 0 40 2.5625 40 5.71429V34.2857C40 37.4375 37.4375 40 34.2857 40H5.71429C2.5625 40 0 37.4375 0 34.2857V5.71429ZM21.8571 9.07143V10.3393C22.7232 10.4464 23.5893 10.6875 24.4464 10.9286C24.6161 10.9732 24.7768 11.0179 24.9464 11.0714C25.9732 11.3571 26.5804 12.4196 26.2946 13.4464C26.0089 14.4732 24.9464 15.0714 23.9196 14.7946C23.7857 14.7589 23.6429 14.7143 23.5 14.6786C22.875 14.5 22.25 14.3304 21.6161 14.2054C20.4375 13.9821 19.0714 14.0893 17.9732 14.5625C16.9911 14.9911 16.1786 16.0268 17.2946 16.7411C18.1696 17.3036 19.2411 17.5893 20.2589 17.8661C20.4732 17.9196 20.6786 17.9821 20.8839 18.0357C22.2768 18.4286 24.0536 18.9375 25.3839 19.8482C27.1161 21.0357 27.9286 22.9643 27.5446 25.0357C27.1786 27.0357 25.7857 28.3482 24.1161 29.0268C23.4196 29.3125 22.6607 29.4911 21.8661 29.5804V30.9375C21.8661 32 21 32.8661 19.9375 32.8661C18.875 32.8661 18.0089 32 18.0089 30.9375V29.3839C16.7143 29.0893 15.4464 28.6786 14.1875 28.2679C13.1786 27.9375 12.625 26.8393 12.9643 25.8304C13.3036 24.8214 14.3929 24.2679 15.4018 24.6071C15.625 24.6786 15.8482 24.7589 16.0714 24.8304C17.0804 25.1696 18.1161 25.5179 19.1518 25.6875C20.6696 25.9107 21.8839 25.7768 22.6786 25.4554C23.75 25.0268 24.2589 23.75 23.2054 23.0357C22.3036 22.4196 21.1875 22.1161 20.125 21.8304C19.9196 21.7768 19.7232 21.7232 19.5179 21.6607C18.1696 21.2768 16.4821 20.8036 15.2143 19.9911C13.4732 18.875 12.5893 17.0179 12.9643 14.9554C13.3214 13.0089 14.8393 11.7143 16.4464 11.0179C16.9375 10.8036 17.4643 10.6339 18.0089 10.5089V9.07143C18.0089 8.00893 18.875 7.14286 19.9375 7.14286C21 7.14286 21.8661 8.00893 21.8661 9.07143H21.8571Z" fill="#B3B3C3"/>
</g>
<defs>
<clipPath id="clip0_2896_46164">
<rect width="40" height="40" fill="white"/>
</clipPath>
</defs>
</svg>
