<svg width="21" height="24" viewBox="0 0 21 24" fill="none" xmlns="http://www.w3.org/2000/svg">
<path d="M18 3.75C18.4125 3.75 18.75 4.0875 18.75 4.5V19.5C18.75 19.9125 18.4125 20.25 18 20.25H3C2.5875 20.25 2.25 19.9125 2.25 19.5V4.5C2.25 4.0875 2.5875 3.75 3 3.75H18ZM3 1.5C1.34531 1.5 0 2.84531 0 4.5V19.5C0 21.1547 1.34531 22.5 3 22.5H18C19.6547 22.5 21 21.1547 21 19.5V4.5C21 2.84531 19.6547 1.5 18 1.5H3ZM11.0625 6.15C10.7156 5.94844 10.2891 5.94844 9.9375 6.14531L7.3125 7.64531C6.77344 7.95469 6.58594 8.63906 6.89531 9.17813C7.20469 9.71719 7.88906 9.90469 8.42813 9.59531L9.375 9.06562V15.75H7.5C6.87656 15.75 6.375 16.2516 6.375 16.875C6.375 17.4984 6.87656 18 7.5 18H10.5H13.5C14.1234 18 14.625 17.4984 14.625 16.875C14.625 16.2516 14.1234 15.75 13.5 15.75H11.625V7.125C11.625 6.72188 11.4094 6.35156 11.0625 6.15Z" fill="#B3B3C3"/>
</svg>
