<svg width="40" height="40" viewBox="0 0 40 40" fill="none" xmlns="http://www.w3.org/2000/svg">
<path d="M11.0626 20L16.4376 24.8392C17.3126 25.625 17.384 26.9821 16.5894 27.866C15.7233 28.741 14.4465 28.8125 13.5626 28.0178L6.42328 21.5892C5.97239 21.1875 5.71436 20.6071 5.71436 20C5.71436 19.3928 5.97239 18.8125 6.42328 18.4107L13.5626 11.9821C14.4465 11.1875 15.7233 11.2589 16.5894 12.1339C17.384 13.0178 17.3126 14.2946 16.4376 15.1607L11.0626 20ZM23.5626 15.1607C22.6876 14.2946 22.6161 13.0178 23.4108 12.1339C24.1965 11.2589 25.5536 11.1875 26.4376 11.9821L33.5804 18.4107C34.0269 18.8125 34.2858 19.3928 34.2858 20C34.2858 20.6071 34.0269 21.1875 33.5804 21.5892L26.4376 28.0178C25.5536 28.8125 24.1965 28.741 23.4108 27.866C22.6161 26.9821 22.6876 25.625 23.5626 24.8392L28.9376 20L23.5626 15.1607Z" fill="#E84A4A"/>
<path d="M0 5.71429C0 2.55804 2.55804 0 5.71429 0H34.2857C37.4375 0 40 2.55804 40 5.71429V34.2857C40 37.4375 37.4375 40 34.2857 40H5.71429C2.55804 40 0 37.4375 0 34.2857V5.71429ZM23.4107 12.1339C22.6161 13.0179 22.6875 14.2946 23.5625 15.1607L28.9375 20L23.5625 24.8393C22.6875 25.625 22.6161 26.9821 23.4107 27.8661C24.1964 28.7411 25.5536 28.8125 26.4375 28.0179L33.5804 21.5893C34.0268 21.1875 34.2857 20.6071 34.2857 20C34.2857 19.3929 34.0268 18.8125 33.5804 18.4107L26.4375 11.9821C25.5536 11.1875 24.1964 11.2589 23.4107 12.1339ZM16.4375 15.1607C17.3125 14.2946 17.3839 13.0179 16.5893 12.1339C15.7232 11.2589 14.4464 11.1875 13.5625 11.9821L6.42321 18.4107C5.97232 18.8125 5.71429 19.3929 5.71429 20C5.71429 20.6071 5.97232 21.1875 6.42321 21.5893L13.5625 28.0179C14.4464 28.8125 15.7232 28.7411 16.5893 27.8661C17.3839 26.9821 17.3125 25.625 16.4375 24.8393L11.0625 20L16.4375 15.1607Z" fill="#2D253F"/>
</svg>
