<svg width="40" height="40" viewBox="0 0 40 40" fill="none" xmlns="http://www.w3.org/2000/svg">
<path d="M32.4237 10.4772C30.2279 7.98555 27.8766 6.66614 25.6197 6.66614C22.7114 6.66614 20.1684 8.94039 19.1351 12.4563C17.5421 17.9006 13.2714 20.6783 8.36175 22.8449C1.59107 25.7879 5.5514 29.9003 5.725 30.0739C8.47633 32.8607 14.9956 33.4072 17.6206 33.312C21.8219 33.1471 27.9398 31.6885 33.2244 25.6664C36.618 21.7963 36.1875 14.8451 32.4237 10.4772ZM26.6669 19.9908C25.4433 19.9908 24.4447 19.0013 24.4447 17.7687C24.4447 16.5444 25.4433 15.5465 26.6669 15.5465C27.8905 15.5465 28.8891 16.5444 28.8891 17.7687C28.8891 18.9978 27.8891 19.9908 26.6669 19.9908Z" fill="white"/>
<path d="M35.7567 7.54296C32.4929 3.82708 28.9096 2.22156 25.618 2.22156C20.7133 2.22156 16.4585 5.77147 14.8683 11.2075C11.4566 20.9225 0.0908506 16.9087 0.000574884 26.6446C-0.0862287 35.0889 9.67396 38.0749 17.7779 37.7555C23.8716 37.5211 30.7915 35.1812 36.5622 28.6029C41.4441 23.0405 41.083 13.6102 35.7567 7.54296ZM33.222 25.6655C27.9354 31.6903 21.8195 33.1514 17.6182 33.3111C14.9968 33.4066 8.47955 32.8597 5.72267 30.073C5.54906 29.8994 1.58873 25.7842 8.35941 22.844C13.3336 20.6739 17.5467 17.8962 19.1369 12.4553C20.1703 8.93946 22.7132 6.6652 25.6215 6.6652C27.8784 6.6652 30.229 7.92212 32.4255 10.4762C36.1872 14.8463 36.6178 21.7975 33.222 25.6655Z" fill="#E84A4A"/>
</svg>
