<svg width="40" height="40" viewBox="0 0 40 40" fill="none" xmlns="http://www.w3.org/2000/svg">
<path d="M20.9375 7.26383C19.8333 8.29161 19.1667 9.63189 18.6597 10.7777C18.3681 11.4444 18.125 12.0277 17.9028 12.5624L17.8125 12.7847C17.1667 14.3472 16.5347 15.8819 15.0972 17.3194C13.25 19.1666 11.1528 20.2847 9.43056 21.1597C9.23611 21.2569 9.04861 21.3541 8.86806 21.4444C7.3125 22.2361 6.11806 22.8402 5.04167 23.7013C4.00694 24.5277 3.33333 25.6805 3.33333 27.2222C3.33333 30.6944 6.30556 32.4513 8.72222 33.2847C11.2639 34.1527 14.3125 34.4444 16.6667 34.4444C21.5417 34.4444 26.4375 32.5902 30.1389 29.8402C33.7847 27.1249 36.6667 23.2152 36.6667 18.8888C36.6667 15.5486 35.3472 12.2916 33.4028 9.86106C31.4861 7.46522 28.6875 5.5555 25.5556 5.5555C23.6528 5.5555 22.125 6.15272 20.9375 7.26383ZM18.6667 4.81939C20.5347 3.08328 22.8958 2.22217 25.5556 2.22217C30.0694 2.22217 33.7292 4.9305 36.0069 7.77772C38.3611 10.7222 40 14.6944 40 18.8888C40 24.7152 36.1736 29.4999 32.125 32.5138C27.9236 35.6388 22.3403 37.7777 16.6667 37.7777C14.1111 37.7777 10.6597 37.4722 7.63889 36.4374C5.09722 35.5624 0 33.0763 0 27.2222C0 24.5416 1.23611 22.4791 2.95139 21.1041C4.3125 20.0069 5.82639 19.243 7.34722 18.4791C9.24306 17.5208 11.1389 16.5624 12.7431 14.9583C13.7014 13.9999 14.1111 13.0208 14.8264 11.2847C15.0486 10.7499 15.2986 10.1388 15.6042 9.43745C16.1389 8.21522 17.0347 6.33328 18.6667 4.81939ZM21.2222 13.2916C21.3958 12.8749 21.5556 12.4722 21.7153 12.1111C22.1944 11.0208 22.6389 10.2291 23.2083 9.70133C23.7292 9.21522 24.4236 8.88883 25.5625 8.88883C27.3264 8.88883 29.2639 10.0138 30.8056 11.9444C32.3333 13.8541 33.3403 16.3958 33.3403 18.8888C33.3403 21.7222 31.375 24.7638 28.1528 27.1666C24.9583 29.5416 20.7361 31.1111 16.6667 31.1111C14.5139 31.1111 11.8681 30.8402 9.80556 30.1319C7.64583 29.3888 6.66667 28.3819 6.66667 27.2222C6.66667 26.5972 6.84722 26.3055 7.14583 26.0486C7.54861 25.7013 8.1875 25.4166 9.24306 24.9722L9.32639 24.9374C11.3611 24.0763 14.2708 22.8541 17.4514 19.6736C19.4375 17.6874 20.4306 15.2499 21.2222 13.2916ZM28.8889 17.7777C28.8889 17.1884 28.6548 16.6231 28.238 16.2064C27.8213 15.7896 27.256 15.5555 26.6667 15.5555C26.0773 15.5555 25.5121 15.7896 25.0953 16.2064C24.6786 16.6231 24.4444 17.1884 24.4444 17.7777C24.4444 18.3671 24.6786 18.9323 25.0953 19.3491C25.5121 19.7658 26.0773 19.9999 26.6667 19.9999C27.256 19.9999 27.8213 19.7658 28.238 19.3491C28.6548 18.9323 28.8889 18.3671 28.8889 17.7777Z" fill="#B3B3C3"/>
</svg>
