<svg width="40" height="40" viewBox="0 0 40 40" fill="current" xmlns="http://www.w3.org/2000/svg">
<path d="M18.6667 4.81939C20.5347 3.08328 22.8958 2.22217 25.5556 2.22217C30.0694 2.22217 33.7292 4.9305 36.0069 7.77772C38.3611 10.7222 40 14.6944 40 18.8888C40 24.7152 36.1736 29.4999 32.125 32.5138C27.9236 35.6388 22.3403 37.7777 16.6667 37.7777C14.1111 37.7777 10.6597 37.4722 7.63889 36.4374C5.09722 35.5624 0 33.0763 0 27.2222C0 24.5416 1.23611 22.4791 2.95139 21.1041C4.3125 20.0069 5.82639 19.243 7.34722 18.4791C9.24306 17.5208 11.1389 16.5624 12.7431 14.9583C13.7014 13.9999 14.1111 13.0208 14.8264 11.2847C15.0486 10.7499 15.2986 10.1388 15.6042 9.43745C16.1389 8.21522 17.0347 6.33328 18.6667 4.81939V4.81939ZM21.2222 13.2916C21.3958 12.8749 21.5556 12.4722 21.7153 12.1111C22.1944 11.0208 22.6389 10.2291 23.2083 9.70133C23.7292 9.21522 24.4236 8.88883 25.5625 8.88883C27.3264 8.88883 29.2639 10.0138 30.8056 11.9444C32.3333 13.8541 33.3403 16.3958 33.3403 18.8888C33.3403 21.7222 31.375 24.7638 28.1528 27.1666C24.9583 29.5416 20.7361 31.1111 16.6667 31.1111C14.5139 31.1111 11.8681 30.8402 9.80556 30.1319C7.64583 29.3888 6.66667 28.3819 6.66667 27.2222C6.66667 26.5972 6.84722 26.3055 7.14583 26.0486C7.54861 25.7013 8.1875 25.4166 9.24306 24.9722L9.32639 24.9374C11.3611 24.0763 14.2708 22.8541 17.4514 19.6736C19.4375 17.6874 20.4306 15.2499 21.2222 13.2916V13.2916ZM21.6944 8.06939C20.7708 8.9305 20.1736 10.0833 19.6806 11.2152C19.4792 11.6736 19.2917 12.1319 19.1042 12.5902C18.3125 14.5208 17.5208 16.4583 15.8819 18.0972C13.0069 20.9722 10.4236 22.0624 8.45139 22.8888L8.375 22.9236L8.32639 22.9444C7.38889 23.3402 6.41667 23.7499 5.70833 24.3541C4.88889 25.0555 4.44444 25.9791 4.44444 27.2222C4.44444 29.9513 6.79861 31.4444 9.08333 32.2291C11.4653 33.0486 14.375 33.3333 16.6667 33.3333C21.2708 33.3333 25.9444 31.5694 29.4722 28.9444C32.9722 26.3472 35.5556 22.7222 35.5556 18.8888C35.5556 15.8263 34.3403 12.8124 32.5347 10.5555C30.7431 8.31939 28.2361 6.66661 25.5556 6.66661C23.9097 6.66661 22.6597 7.17356 21.6944 8.07634V8.06939ZM26.6667 19.9999C27.8958 19.9999 28.8889 19.0069 28.8889 17.7777C28.8889 16.5486 27.8958 15.5555 26.6667 15.5555C25.4375 15.5555 24.4444 16.5486 24.4444 17.7777C24.4444 19.0069 25.4375 19.9999 26.6667 19.9999Z" fill="current"/>
</svg>
