<svg width="55" height="49" viewBox="0 0 55 49" fill="none" xmlns="http://www.w3.org/2000/svg">
<path d="M44.1466 11.7658C41.1824 8.40224 38.0082 6.62109 34.9615 6.62109C31.0355 6.62109 27.6025 9.69123 26.2076 14.4375C24.0571 21.7871 18.2918 25.5369 11.6641 28.4617C2.52401 32.4346 7.87026 37.9861 8.10462 38.2205C11.8188 41.9824 20.6195 42.7202 24.1631 42.5918C29.8346 42.3691 38.0935 40.4 45.2275 32.2705C49.8088 27.0461 49.2275 17.6623 44.1466 11.7658ZM36.3752 24.6088C34.7234 24.6088 33.3753 23.2729 33.3753 21.609C33.3753 19.9562 34.7234 18.6091 36.3752 18.6091C38.0269 18.6091 39.375 19.9562 39.375 21.609C39.375 23.2682 38.0251 24.6088 36.3752 24.6088Z" fill="#2D253F"/>
<path d="M48.6458 7.80474C44.2398 2.78847 39.4026 0.621094 34.9591 0.621094C28.3379 0.621094 22.5942 5.41331 20.4475 12.7516C15.8418 25.8665 0.498621 20.4481 0.376753 33.591C0.259572 44.9904 13.4354 49.0214 24.3754 48.5902C32.6014 48.2738 41.9431 45.1151 49.7333 36.2346C56.3235 28.7257 55.836 15.9952 48.6458 7.80474ZM45.2241 32.2692C38.0874 40.4025 29.8313 42.3749 24.1597 42.5905C20.6209 42.7194 11.823 41.9812 8.1013 38.2192C7.86694 37.9848 2.52069 32.4295 11.6608 28.4604C18.3757 25.5309 24.0632 21.7811 26.2099 14.4362C27.6049 9.68994 31.0378 6.61981 34.9638 6.61981C38.0105 6.61981 41.1838 8.31658 44.1489 11.7645C49.227 17.6638 49.8083 27.0477 45.2241 32.2692Z" fill="#E84A4A"/>
</svg>
