<svg width="40" height="40" viewBox="0 0 40 40" fill="none" xmlns="http://www.w3.org/2000/svg">
<g clip-path="url(#clip0_1377_16934)">
<path d="M20 11.25C15.1641 11.25 11.25 15.1641 11.25 20C11.25 24.8328 15.1672 28.75 20 28.75C24.8328 28.75 28.75 24.8328 28.75 20C28.75 15.1641 24.8359 11.25 20 11.25Z" fill="white"/>
<path d="M8.50781 5.85703C7.77781 5.12461 6.58906 5.12461 5.85625 5.85703C5.12344 6.58945 5.12383 7.77578 5.85625 8.50859L9.39141 12.0461C9.75641 12.4123 10.2375 12.5954 10.7172 12.5954C11.1969 12.5954 11.6797 12.4141 12.0469 12.0469C12.7793 11.3145 12.7793 10.1281 12.0469 9.39609L8.50781 5.85703ZM20 0C18.9688 0 18.125 0.839844 18.125 1.875V6.875C18.125 7.91406 18.9688 8.75 20 8.75C21.0312 8.75 21.875 7.91016 21.875 6.875V1.875C21.875 0.839844 21.0391 0 20 0ZM8.75 20C8.75 18.9648 7.91016 18.125 6.875 18.125H1.875C0.839844 18.125 0 18.9688 0 20C0 21.0312 0.839844 21.875 1.875 21.875H6.875C7.91406 21.875 8.75 21.0391 8.75 20ZM29.2812 12.5937C29.761 12.5937 30.2422 12.4106 30.607 12.0445L34.1422 8.50695C34.8746 7.77453 34.8746 6.5882 34.1422 5.85539C33.4098 5.12258 32.2211 5.12297 31.4906 5.85539L27.9555 9.39289C27.223 10.1253 27.223 11.3116 27.9555 12.0437C28.3203 12.4141 28.8047 12.5937 29.2812 12.5937ZM20 31.25C18.9648 31.25 18.125 32.0898 18.125 33.125V38.125C18.125 39.1641 18.9688 40 20 40C21.0312 40 21.875 39.1602 21.875 38.125V33.125C21.875 32.0938 21.0391 31.25 20 31.25ZM9.39062 27.9531L5.85547 31.4906C5.12305 32.223 5.12305 33.4094 5.85547 34.1422C6.22172 34.5084 6.70156 34.6915 7.18125 34.6915C7.66094 34.6915 8.14219 34.5084 8.50703 34.1422L12.0422 30.6047C12.7746 29.8723 12.7746 28.6859 12.0422 27.9539C11.3098 27.2219 10.125 27.2187 9.39062 27.9531ZM38.125 18.125H33.125C32.0898 18.125 31.25 18.9648 31.25 20C31.25 21.0352 32.0898 21.875 33.125 21.875H38.125C39.1641 21.875 40 21.0391 40 20C40 18.9609 39.1641 18.125 38.125 18.125ZM30.6094 27.9531C29.8794 27.2207 28.6906 27.2209 27.9578 27.9534C27.225 28.6858 27.2254 29.8721 27.9578 30.6041L31.493 34.1416C31.858 34.5079 32.3391 34.6909 32.8187 34.6909C33.2984 34.6909 33.7781 34.5078 34.1445 34.1416C34.877 33.4092 34.877 32.2229 34.1445 31.4901L30.6094 27.9531Z" fill="#E84A4A"/>
</g>
<defs>
<clipPath id="clip0_1377_16934">
<rect width="40" height="40" fill="white"/>
</clipPath>
</defs>
</svg>
