<svg width="40" height="40" viewBox="0 0 40 40" fill="current" xmlns="http://www.w3.org/2000/svg">
<g clip-path="url(#clip0_1377_16923)">
<path d="M20 0C18.9609 0 18.125 0.835937 18.125 1.875V6.875C18.125 7.91406 18.9609 8.75 20 8.75C21.0391 8.75 21.875 7.91406 21.875 6.875V1.875C21.875 0.835937 21.0391 0 20 0ZM20 31.25C18.9609 31.25 18.125 32.0859 18.125 33.125V38.125C18.125 39.1641 18.9609 40 20 40C21.0391 40 21.875 39.1641 21.875 38.125V33.125C21.875 32.0859 21.0391 31.25 20 31.25ZM38.125 21.875C39.1641 21.875 40 21.0391 40 20C40 18.9609 39.1641 18.125 38.125 18.125H33.125C32.0859 18.125 31.25 18.9609 31.25 20C31.25 21.0391 32.0859 21.875 33.125 21.875H38.125ZM8.75 20C8.75 18.9609 7.91406 18.125 6.875 18.125H1.875C0.835937 18.125 0 18.9609 0 20C0 21.0391 0.835937 21.875 1.875 21.875H6.875C7.91406 21.875 8.75 21.0391 8.75 20ZM34.1406 8.50781C34.875 7.77344 34.875 6.58594 34.1406 5.85938C33.4063 5.13281 32.2188 5.125 31.4922 5.85938L27.9531 9.39844C27.2187 10.1328 27.2187 11.3203 27.9531 12.0469C28.6875 12.7734 29.875 12.7812 30.6016 12.0469L34.1406 8.50781ZM12.0469 27.9531C11.3125 27.2187 10.125 27.2187 9.39844 27.9531L5.85938 31.4922C5.125 32.2266 5.125 33.4141 5.85938 34.1406C6.59375 34.8672 7.78125 34.875 8.50781 34.1406L12.0469 30.6016C12.7812 29.8672 12.7812 28.6797 12.0469 27.9531ZM31.4922 34.1406C32.2266 34.875 33.4141 34.875 34.1406 34.1406C34.8672 33.4063 34.875 32.2188 34.1406 31.4922L30.6016 27.9531C29.8672 27.2187 28.6797 27.2187 27.9531 27.9531C27.2266 28.6875 27.2187 29.875 27.9531 30.6016L31.4922 34.1406ZM12.0469 12.0469C12.7812 11.3125 12.7812 10.125 12.0469 9.39844L8.50781 5.85938C7.77344 5.125 6.58594 5.125 5.85938 5.85938C5.13281 6.59375 5.125 7.78125 5.85938 8.50781L9.39844 12.0469C10.1328 12.7812 11.3203 12.7812 12.0469 12.0469ZM20 28.75C24.8359 28.75 28.75 24.8359 28.75 20C28.75 15.1641 24.8359 11.25 20 11.25C15.1641 11.25 11.25 15.1641 11.25 20C11.25 24.8359 15.1641 28.75 20 28.75Z" fill="current"/>
</g>
<defs>
<clipPath id="clip0_1377_16923">
<rect width="40" height="40" fill="current"/>
</clipPath>
</defs>
</svg>
