<svg width="40" height="40" viewBox="0 0 40 40" fill="none" xmlns="http://www.w3.org/2000/svg">
<g clip-path="url(#clip0_2930_46738)">
<path d="M21.875 1.875V6.875C21.875 7.91406 21.0391 8.75 20 8.75C18.9609 8.75 18.125 7.91406 18.125 6.875V1.875C18.125 0.835937 18.9609 0 20 0C21.0391 0 21.875 0.835937 21.875 1.875ZM34.1406 8.50781L30.6016 12.0469C29.8672 12.7812 28.6797 12.7812 27.9531 12.0469C27.2266 11.3125 27.2187 10.125 27.9531 9.39844L31.4922 5.85938C32.2266 5.125 33.4141 5.125 34.1406 5.85938C34.8672 6.59375 34.875 7.78125 34.1406 8.50781ZM8.50781 5.85938L12.0469 9.39844C12.7812 10.1328 12.7812 11.3203 12.0469 12.0469C11.3125 12.7734 10.125 12.7812 9.39844 12.0469L5.85938 8.50781C5.125 7.77344 5.125 6.58594 5.85938 5.85938C6.59375 5.13281 7.78125 5.125 8.50781 5.85938ZM1.875 18.125H6.875C7.91406 18.125 8.75 18.9609 8.75 20C8.75 21.0391 7.91406 21.875 6.875 21.875H1.875C0.835937 21.875 0 21.0391 0 20C0 18.9609 0.835937 18.125 1.875 18.125ZM33.125 18.125H38.125C39.1641 18.125 40 18.9609 40 20C40 21.0391 39.1641 21.875 38.125 21.875H33.125C32.0859 21.875 31.25 21.0391 31.25 20C31.25 18.9609 32.0859 18.125 33.125 18.125ZM12.0469 30.6094L8.50781 34.1406C7.77344 34.875 6.58594 34.875 5.85938 34.1406C5.13281 33.4063 5.125 32.2188 5.85938 31.4922L9.39844 27.9531C10.1328 27.2187 11.3203 27.2187 12.0469 27.9531C12.7734 28.6875 12.7812 29.875 12.0469 30.6016V30.6094ZM30.6094 27.9609L34.1406 31.4922C34.875 32.2266 34.875 33.4141 34.1406 34.1406C33.4063 34.8672 32.2188 34.875 31.4922 34.1406L27.9531 30.6016C27.2187 29.8672 27.2187 28.6797 27.9531 27.9531C28.6875 27.2266 29.875 27.2187 30.6016 27.9531L30.6094 27.9609ZM21.875 33.125V38.125C21.875 39.1641 21.0391 40 20 40C18.9609 40 18.125 39.1641 18.125 38.125V33.125C18.125 32.0859 18.9609 31.25 20 31.25C21.0391 31.25 21.875 32.0859 21.875 33.125ZM25 20C25 18.6739 24.4732 17.4021 23.5355 16.4645C22.5979 15.5268 21.3261 15 20 15C18.6739 15 17.4021 15.5268 16.4645 16.4645C15.5268 17.4021 15 18.6739 15 20C15 21.3261 15.5268 22.5979 16.4645 23.5355C17.4021 24.4732 18.6739 25 20 25C21.3261 25 22.5979 24.4732 23.5355 23.5355C24.4732 22.5979 25 21.3261 25 20ZM11.25 20C11.25 17.6794 12.1719 15.4538 13.8128 13.8128C15.4538 12.1719 17.6794 11.25 20 11.25C22.3206 11.25 24.5462 12.1719 26.1872 13.8128C27.8281 15.4538 28.75 17.6794 28.75 20C28.75 22.3206 27.8281 24.5462 26.1872 26.1872C24.5462 27.8281 22.3206 28.75 20 28.75C17.6794 28.75 15.4538 27.8281 13.8128 26.1872C12.1719 24.5462 11.25 22.3206 11.25 20Z" fill="#B3B3C3"/>
</g>
<defs>
<clipPath id="clip0_2930_46738">
<rect width="40" height="40" fill="white"/>
</clipPath>
</defs>
</svg>
