<svg width="41" height="40" viewBox="0 0 41 40" fill="none" xmlns="http://www.w3.org/2000/svg">
<g clip-path="url(#clip0_1176_21257)">
<path d="M3.77344 2.00012H15.4531C16.7812 2.00012 18.0469 2.52668 18.9844 3.46497L32.1094 16.5861C34.0625 18.5392 34.0625 21.7111 32.1094 23.6642L21.6875 34.0861C19.7344 36.0392 16.5625 36.0392 14.6094 34.0861L1.48828 20.9611C0.550234 20.0236 0.0234375 18.7579 0.0234375 17.4298V5.75012C0.0234375 3.67903 1.70234 2.00012 3.77344 2.00012ZM8.77344 13.2501C10.1562 13.2501 11.2734 12.1329 11.2734 10.7501C11.2734 9.36731 10.1562 8.25012 8.77344 8.25012C7.39297 8.25012 6.27344 9.36731 6.27344 10.7501C6.27344 12.1329 7.39297 13.2501 8.77344 13.2501Z" fill="white"/>
<path d="M24.3282 2.54154C25.0625 1.81341 26.25 1.82044 26.9063 2.55716L36.961 12.6564C41.0469 16.797 41.0469 23.4533 36.961 27.5939L28.211 36.4454C27.4844 37.1798 26.2969 37.1876 25.5625 36.4611C24.8203 35.7345 24.8203 34.547 25.5469 33.8048L34.2891 24.9611C36.9375 22.2814 36.9375 17.9689 34.2891 15.2892L24.3125 5.1931C23.5782 4.45638 23.586 3.26966 24.3282 2.54154Z" fill="#E84A4A"/>
</g>
<defs>
<clipPath id="clip0_1176_21257">
<rect width="40.002" height="39.0011" fill="white" transform="translate(0.0234375)"/>
</clipPath>
</defs>
</svg>
