<svg width="41" height="40" viewBox="0 0 41 40" fill="none" xmlns="http://www.w3.org/2000/svg">
<g clip-path="url(#clip0_2930_46694)">
<path d="M26.9766 3.0586C26.25 2.32422 25.0625 2.31641 24.3281 3.04297C23.5938 3.76954 23.5859 4.95704 24.3125 5.69141L34.2891 15.793C36.9375 18.4727 36.9375 22.7773 34.2891 25.457L25.5469 34.3086C24.8203 35.043 24.8281 36.2305 25.5625 36.957C26.2969 37.6836 27.4844 37.6758 28.2109 36.9414L36.9609 28.0977C41.0547 23.957 41.0547 17.3008 36.9609 13.1602L26.9766 3.0586ZM18.9844 3.96485C18.0469 3.02735 16.7734 2.50391 15.4453 2.50391H3.77344C1.70312 2.50391 0.0234375 4.1836 0.0234375 6.25391V17.9336C0.0234375 19.2617 0.546875 20.5352 1.48438 21.4727L14.6094 34.5977C16.5625 36.5508 19.7266 36.5508 21.6797 34.5977L32.1094 24.168C34.0625 22.2148 34.0625 19.0508 32.1094 17.0977L18.9844 3.97266V3.96485ZM3.77344 6.25391H15.4531C15.7812 6.25391 16.1016 6.38672 16.3359 6.6211L29.4609 19.7461C29.9453 20.2305 29.9453 21.0273 29.4609 21.5117L19.0312 31.9414C18.5469 32.4258 17.75 32.4258 17.2656 31.9414L4.14062 18.8164C3.90625 18.582 3.77344 18.2617 3.77344 17.9336V6.25391ZM11.2734 11.2539C11.2734 10.5909 11.01 9.95498 10.5412 9.48614C10.0724 9.0173 9.43648 8.75391 8.77344 8.75391C8.1104 8.75391 7.47451 9.0173 7.00567 9.48614C6.53683 9.95498 6.27344 10.5909 6.27344 11.2539C6.27344 11.917 6.53683 12.5528 7.00567 13.0217C7.47451 13.4905 8.1104 13.7539 8.77344 13.7539C9.43648 13.7539 10.0724 13.4905 10.5412 13.0217C11.01 12.5528 11.2734 11.917 11.2734 11.2539Z" fill="#B3B3C3"/>
</g>
<defs>
<clipPath id="clip0_2930_46694">
<rect width="40" height="40" fill="white" transform="translate(0.0273438)"/>
</clipPath>
</defs>
</svg>
