<svg width="41" height="39" viewBox="0 0 41 39" fill="current" xmlns="http://www.w3.org/2000/svg">
<g clip-path="url(#clip0_1176_21255)">
<path d="M26.9688 2.55469L36.9531 12.6562C41.0469 16.7969 41.0469 23.4531 36.9531 27.5938L28.2031 36.4453C27.4766 37.1797 26.2891 37.1875 25.5547 36.4609C24.8203 35.7344 24.8125 34.5469 25.5391 33.8125L34.2812 24.9609C36.9297 22.2812 36.9297 17.9766 34.2812 15.2969L24.3047 5.19531C23.5781 4.46094 23.5859 3.27344 24.3203 2.54688C25.0547 1.82031 26.2422 1.82813 26.9688 2.5625V2.55469ZM0.015625 17.4297V5.75C0.015625 3.67969 1.69531 2 3.76562 2H15.4453C16.7734 2 18.0469 2.52344 18.9844 3.46094L32.1094 16.5859C34.0625 18.5391 34.0625 21.7031 32.1094 23.6562L21.6797 34.0859C19.7266 36.0391 16.5625 36.0391 14.6094 34.0859L1.48438 20.9609C0.539062 20.0234 0.015625 18.7578 0.015625 17.4297ZM11.2656 10.75C11.2656 9.36719 10.1484 8.25 8.76562 8.25C7.38281 8.25 6.26562 9.36719 6.26562 10.75C6.26562 12.1328 7.38281 13.25 8.76562 13.25C10.1484 13.25 11.2656 12.1328 11.2656 10.75Z" fill="current"/>
</g>
<defs>
<clipPath id="clip0_1176_21255">
<rect width="40.0078" height="39.001" fill="current" transform="translate(0.015625)"/>
</clipPath>
</defs>
</svg>
