<svg width="41" height="40" viewBox="0 0 41 40" fill="none" xmlns="http://www.w3.org/2000/svg">
<g clip-path="url(#clip0_1176_21262)">
<path d="M3.77539 2.00012H15.4551C16.7832 2.00012 18.0488 2.52668 18.9863 3.46497L32.1113 16.5861C34.0645 18.5392 34.0645 21.7111 32.1113 23.6642L21.6895 34.0861C19.7363 36.0392 16.5645 36.0392 14.6113 34.0861L1.49023 20.9611C0.552188 20.0236 0.0253906 18.7579 0.0253906 17.4298V5.75012C0.0253906 3.67903 1.7043 2.00012 3.77539 2.00012ZM8.77539 13.2501C10.1582 13.2501 11.2754 12.1329 11.2754 10.7501C11.2754 9.36731 10.1582 8.25012 8.77539 8.25012C7.39492 8.25012 6.27539 9.36731 6.27539 10.7501C6.27539 12.1329 7.39492 13.2501 8.77539 13.2501Z" fill="#2D253F"/>
<path d="M24.3301 2.54154C25.0645 1.81341 26.252 1.82044 26.9082 2.55716L36.9629 12.6564C41.0489 16.797 41.0489 23.4533 36.9629 27.5939L28.2129 36.4454C27.4864 37.1798 26.2989 37.1876 25.5645 36.4611C24.8223 35.7345 24.8223 34.547 25.5489 33.8048L34.2911 24.9611C36.9395 22.2814 36.9395 17.9689 34.2911 15.2892L24.3145 5.1931C23.5801 4.45638 23.5879 3.26966 24.3301 2.54154Z" fill="#E84A4A"/>
</g>
<defs>
<clipPath id="clip0_1176_21262">
<rect width="40.002" height="39.0011" fill="white" transform="translate(0.0253906)"/>
</clipPath>
</defs>
</svg>
