<svg width="48" height="48" viewBox="0 0 48 48" fill="none" xmlns="http://www.w3.org/2000/svg">
<path d="M30.3562 44.7375C26.775 45.7593 23.0344 43.6875 22.0125 40.1062L21.4781 38.2312C21.1313 37.0125 20.5031 35.8875 19.65 34.95L14.8406 29.6625C14.0063 28.7437 14.0719 27.3187 14.9906 26.4843C15.9094 25.65 17.3344 25.7156 18.1688 26.6343L22.9781 31.9218C24.3 33.375 25.2656 35.1093 25.8 36.9937L26.3344 38.8687C26.6719 40.0593 27.9188 40.7531 29.1188 40.4156C30.3188 40.0781 31.0031 38.8312 30.6656 37.6312L30.1312 35.7562C29.5969 33.8906 28.7531 32.1281 27.6375 30.5531C27.15 29.8687 27.0938 28.9687 27.4781 28.2187C27.8625 27.4687 28.6312 27 29.475 27H42C42.825 27 43.5 26.325 43.5 25.5C43.5 24.8625 43.0969 24.3093 42.525 24.0937C41.8312 23.8312 41.3063 23.25 41.1281 22.5281C40.95 21.8062 41.1375 21.0468 41.625 20.4937C41.8594 20.2312 42 19.8843 42 19.5C42 18.7687 41.475 18.1593 40.7812 18.0281C40.0125 17.8781 39.3656 17.3437 39.0938 16.6031C38.8219 15.8625 38.9438 15.0375 39.4313 14.4187C39.6281 14.1656 39.75 13.8468 39.75 13.4906C39.75 12.8625 39.3562 12.3093 38.7937 12.0937C37.7156 11.6718 37.1344 10.5093 37.4437 9.3937C37.4813 9.27183 37.5 9.1312 37.5 8.99058C37.5 8.16558 36.825 7.49058 36 7.49058H26.8594C25.6781 7.49058 24.5156 7.83745 23.5312 8.4937L17.7469 12.3468C16.7156 13.0406 15.3188 12.7593 14.625 11.7187C13.9312 10.6781 14.2125 9.29058 15.2531 8.59683L21.0375 4.7437C22.7625 3.59058 24.7875 2.9812 26.8594 2.9812L36 2.99995C39.2531 2.99995 41.8969 5.58745 42 8.81245C43.3688 9.90933 44.25 11.5968 44.25 13.5C44.25 13.9218 44.2031 14.325 44.1281 14.7187C45.5719 15.8156 46.5 17.55 46.5 19.5C46.5 20.1093 46.4062 20.7 46.2375 21.2531C47.325 22.3406 48 23.8406 48 25.5C48 28.8093 45.3187 31.5 42 31.5H33.3469C33.7875 32.475 34.1625 33.4875 34.4531 34.5187L34.9875 36.3937C36.0094 39.975 33.9375 43.7156 30.3562 44.7375ZM3 36C1.34062 36 0 34.6593 0 33V12C0 10.3406 1.34062 8.99995 3 8.99995H9C10.6594 8.99995 12 10.3406 12 12V33C12 34.6593 10.6594 36 9 36H3Z" fill="#B3B3C3"/>
</svg>
