<svg width="48" height="48" viewBox="0 0 48 48" fill="current" xmlns="http://www.w3.org/2000/svg">
<path d="M29.3812 44.9156C31.8187 44.4281 33.4031 42.0563 32.9156 39.6188L32.7 38.55C32.2031 36.0469 31.2844 33.6656 30 31.5H43.5C45.9844 31.5 48 29.4844 48 27C48 25.2656 47.0156 23.7562 45.5719 23.0062C46.5938 22.1812 47.25 20.9156 47.25 19.5C47.25 17.3062 45.675 15.4781 43.6031 15.0844C44.0156 14.4 44.25 13.6031 44.25 12.75C44.25 10.7531 42.9469 9.05625 41.1469 8.475C41.2125 8.16563 41.25 7.8375 41.25 7.5C41.25 5.01562 39.2344 3 36.75 3H27.6094C25.8281 3 24.0938 3.525 22.6125 4.50937L19.0031 6.91875C16.5 8.5875 15 11.4 15 14.4094V18V22.5V24.8344C15 27.5719 16.2469 30.15 18.375 31.8656L19.0687 32.4187C21.5531 34.4062 23.25 37.2 23.8688 40.3125L24.0844 41.3812C24.5719 43.8187 26.9437 45.4031 29.3812 44.9156ZM3 36H9C10.6594 36 12 34.6594 12 33V12C12 10.3406 10.6594 9 9 9H3C1.34062 9 0 10.3406 0 12V33C0 34.6594 1.34062 36 3 36Z" fill="current"/>
</svg>
