<svg width="48" height="43" viewBox="0 0 48 43" fill="none" xmlns="http://www.w3.org/2000/svg">
<path d="M30.3562 0.262487C26.775 -0.759388 23.0344 1.31249 22.0125 4.89374L21.4781 6.76874C21.1313 7.98749 20.5031 9.11249 19.65 10.05L14.8406 15.3375C14.0063 16.2562 14.0719 17.6812 14.9906 18.5156C15.9094 19.35 17.3344 19.2844 18.1688 18.3656L22.9781 13.0781C24.3 11.625 25.2656 9.89061 25.8 8.00624L26.3344 6.13124C26.6719 4.94061 27.9188 4.24686 29.1188 4.58436C30.3188 4.92186 31.0031 6.16874 30.6656 7.36874L30.1312 9.24374C29.5969 11.1094 28.7531 12.8719 27.6375 14.4469C27.15 15.1312 27.0938 16.0312 27.4781 16.7812C27.8625 17.5312 28.6312 18 29.475 18H42C42.825 18 43.5 18.675 43.5 19.5C43.5 20.1375 43.0969 20.6906 42.525 20.9062C41.8312 21.1687 41.3063 21.75 41.1281 22.4719C40.95 23.1937 41.1375 23.9531 41.625 24.5062C41.8594 24.7687 42 25.1156 42 25.5C42 26.2312 41.475 26.8406 40.7812 26.9719C40.0125 27.1219 39.3656 27.6562 39.0938 28.3969C38.8219 29.1375 38.9438 29.9625 39.4313 30.5812C39.6281 30.8344 39.75 31.1531 39.75 31.5094C39.75 32.1375 39.3562 32.6906 38.7937 32.9062C37.7156 33.3281 37.1344 34.4906 37.4437 35.6062C37.4813 35.7281 37.5 35.8687 37.5 36.0094C37.5 36.8344 36.825 37.5094 36 37.5094H26.8594C25.6781 37.5094 24.5156 37.1625 23.5312 36.5062L17.7469 32.6531C16.7156 31.9594 15.3188 32.2406 14.625 33.2812C13.9312 34.3219 14.2125 35.7094 15.2531 36.4031L21.0375 40.2562C22.7625 41.4094 24.7875 42.0187 26.8594 42.0187H36C39.2531 42.0187 41.8969 39.4312 42 36.2062C43.3688 35.1094 44.25 33.4219 44.25 31.5187C44.25 31.0969 44.2031 30.6937 44.1281 30.3C45.5719 29.2031 46.5 27.4687 46.5 25.5187C46.5 24.9094 46.4062 24.3187 46.2375 23.7656C47.325 22.6594 48 21.1594 48 19.5C48 16.1906 45.3187 13.5 42 13.5H33.3469C33.7875 12.525 34.1625 11.5125 34.4531 10.4812L34.9875 8.60624C36.0094 5.02499 33.9375 1.28436 30.3562 0.262487ZM3 15C1.34062 15 0 16.3406 0 18V39C0 40.6594 1.34062 42 3 42H9C10.6594 42 12 40.6594 12 39V18C12 16.3406 10.6594 15 9 15H3Z" fill="#B3B3C3"/>
</svg>
