<svg width="48" height="48" viewBox="0 0 48 48" fill="none" xmlns="http://www.w3.org/2000/svg">
<path d="M15 23.1656V25.5V30V33.5906C15 36.6 16.5 39.4125 19.0031 41.0813L22.6125 43.4906C24.0938 44.475 25.8281 45 27.6094 45H36.75C39.2344 45 41.25 42.9844 41.25 40.5C41.25 40.1625 41.2125 39.8438 41.1469 39.525C42.9469 38.9344 44.25 37.2469 44.25 35.25C44.25 34.3969 44.0156 33.6 43.6031 32.9156C45.6844 32.5219 47.25 30.6938 47.25 28.5C47.25 27.0844 46.5938 25.8188 45.5719 24.9938C47.0156 24.2438 48 22.7344 48 21C48 18.5156 45.9844 16.5 43.5 16.5H30C31.2844 14.3344 32.2031 11.9531 32.7 9.45L32.9156 8.38125C33.4031 5.94375 31.8187 3.57188 29.3812 3.08438C29.0812 3.02813 28.7906 3 28.4906 3C26.3906 3 24.5062 4.48125 24.0844 6.61875L23.8688 7.6875C23.25 10.8 21.5437 13.5938 19.0687 15.5812L18.375 16.1344C16.2375 17.8406 15 20.4281 15 23.1656Z" fill="white"/>
<path d="M0 21C0 19.3406 1.34062 18 3 18H9C10.6594 18 12 19.3406 12 21V42C12 43.6594 10.6594 45 9 45H3C1.34062 45 0 43.6594 0 42V21Z" fill="#FF4545"/>
</svg>
