<svg width="48" height="48" viewBox="0 0 48 48" fill="current" xmlns="http://www.w3.org/2000/svg">
<path d="M29.3812 3.08446C31.8187 3.57196 33.4031 5.94384 32.9156 8.38134L32.7 9.45009C32.2031 11.9532 31.2844 14.3345 30 16.5001H43.5C45.9844 16.5001 48 18.5157 48 21.0001C48 22.7345 47.0156 24.2438 45.5719 24.9938C46.5938 25.8188 47.25 27.0845 47.25 28.5001C47.25 30.6938 45.675 32.522 43.6031 32.9157C44.0156 33.6001 44.25 34.397 44.25 35.2501C44.25 37.247 42.9469 38.9438 41.1469 39.5251C41.2125 39.8345 41.25 40.1626 41.25 40.5001C41.25 42.9845 39.2344 45.0001 36.75 45.0001H27.6094C25.8281 45.0001 24.0938 44.4751 22.6125 43.4907L19.0031 41.0813C16.5 39.4126 15 36.6001 15 33.5907V30.0001V25.5001V23.1657C15 20.4282 16.2469 17.8501 18.375 16.1345L19.0687 15.5813C21.5531 13.5938 23.25 10.8001 23.8688 7.68759L24.0844 6.61884C24.5719 4.18134 26.9437 2.59696 29.3812 3.08446ZM3 18.0001H9C10.6594 18.0001 12 19.3407 12 21.0001V42.0001C12 43.6595 10.6594 45.0001 9 45.0001H3C1.34062 45.0001 0 43.6595 0 42.0001V21.0001C0 19.3407 1.34062 18.0001 3 18.0001Z" fill="current"/>
</svg>
