<svg width="40" height="36" viewBox="0 0 40 36" fill="none" xmlns="http://www.w3.org/2000/svg">
<path d="M11.1111 2.44439V4.66661H20V2.44439C20 1.21731 20.9931 0.222168 22.2222 0.222168C23.4514 0.222168 24.4444 1.21731 24.4444 2.44439V4.66661H27.7778C29.6181 4.66661 31.1111 6.15897 31.1111 7.99995V13.5555H0V7.99995C0 6.15897 1.49236 4.66661 3.33333 4.66661H6.66667V2.44439C6.66667 1.21731 7.65972 0.222168 8.88889 0.222168C10.1181 0.222168 11.1111 1.21731 11.1111 2.44439ZM40 25.7777C40 31.2986 35.5208 35.7777 30 35.7777C24.4792 35.7777 20 31.2986 20 25.7777C20 20.2569 24.4792 15.7777 30 15.7777C35.5208 15.7777 40 20.2569 40 25.7777ZM28.8264 21.3333V25.7777C28.8264 26.3888 29.3889 26.8888 29.9375 26.8888H33.3333C33.9444 26.8888 34.4444 26.3888 34.4444 25.7777C34.4444 25.1666 33.9444 24.6666 33.3333 24.6666H31.0486V21.3333C31.0486 20.7222 30.6111 20.2222 29.9375 20.2222C29.3889 20.2222 28.8264 20.7222 28.8264 21.3333Z" fill="#2D253F"/>
<path d="M17.7778 25.7778C17.7778 29.9097 19.8333 33.5625 22.9722 35.7778H3.33333C1.49236 35.7778 0 34.2847 0 32.4444V13.5555H30C23.25 13.5555 17.7778 19.0278 17.7778 25.7778ZM31.1111 13.5555V13.6042C30.7431 13.5694 30.375 13.5555 30 13.5555H31.1111Z" fill="#E84A4A"/>
</svg>
