<svg width="40" height="40" viewBox="0 0 40 40" fill="none" xmlns="http://www.w3.org/2000/svg">
<path d="M16.3359 3.75H23.6562C23.8672 3.75 24.0625 3.85156 24.1797 4.03125L25.6641 6.25H14.3359L15.8203 4.03125C15.9375 3.85937 16.1328 3.75 16.3437 3.75H16.3359ZM30.1719 6.25L27.3047 1.94531C26.4922 0.734375 25.125 0 23.6641 0H16.3359C14.875 0 13.5078 0.734375 12.6953 1.94531L9.82813 6.25H8.75781H5H4.375C3.33594 6.25 2.5 7.08594 2.5 8.125C2.5 9.16406 3.33594 10 4.375 10H5.28125L7.15625 35.3672C7.35156 37.9766 9.52344 40 12.1406 40H27.8594C30.4766 40 32.6484 37.9766 32.8437 35.3672L34.7187 10H35.625C36.6641 10 37.5 9.16406 37.5 8.125C37.5 7.08594 36.6641 6.25 35.625 6.25H35H31.2422H30.1719ZM30.9609 10L29.1016 35.0938C29.0547 35.75 28.5078 36.25 27.8516 36.25H12.1406C11.4844 36.25 10.9453 35.7422 10.8906 35.0938L9.03906 10H30.9609Z" fill="#B3B3C3"/>
</svg>
