<svg width="40" height="40" viewBox="0 0 40 40" fill="current" xmlns="http://www.w3.org/2000/svg">
<path d="M13.0625 1.38281L12.5 2.5H5C3.61719 2.5 2.5 3.61719 2.5 5C2.5 6.38281 3.61719 7.5 5 7.5H35C36.3828 7.5 37.5 6.38281 37.5 5C37.5 3.61719 36.3828 2.5 35 2.5H27.5L26.9375 1.38281C26.5156 0.53125 25.6484 0 24.7031 0H15.2969C14.3516 0 13.4844 0.53125 13.0625 1.38281ZM35 10H5L6.65625 36.4844C6.78125 38.4609 8.42188 40 10.3984 40H29.6016C31.5781 40 33.2187 38.4609 33.3438 36.4844L35 10Z" fill="current"/>
</svg>
