<svg width="40" height="40" viewBox="0 0 40 40" fill="none" xmlns="http://www.w3.org/2000/svg">
<path d="M24.7031 0C25.6484 0 26.5156 0.535 26.9375 1.38203L27.5 2.5H35C36.3828 2.5 37.5 3.61953 37.5 5C37.5 6.38047 36.3828 7.5 35 7.5H5C3.61953 7.5 2.5 6.38047 2.5 5C2.5 3.61953 3.61953 2.5 5 2.5H12.5L13.0625 1.38203C13.4844 0.535 14.3516 0 15.2969 0H24.7031Z" fill="#E84A4A"/>
<path d="M5 7.5H35L33.3281 36.4688C33.2109 38.4531 31.5703 40 29.5859 40H10.4141C8.42734 40 6.78594 38.4531 6.67109 36.4688L5 7.5Z" fill="#2D253F"/>
</svg>
