<svg width="32" height="33" viewBox="0 0 32 33" fill="none" xmlns="http://www.w3.org/2000/svg">
<path d="M15.9988 3.5C16.8864 3.5 17.7052 3.96878 18.1552 4.73759L31.6562 27.7392C32.1125 28.5143 32.1125 29.4706 31.6687 30.2457C31.2249 31.0207 30.3936 31.502 29.4998 31.502H2.49787C1.60406 31.502 0.772748 31.0207 0.328967 30.2457C-0.114815 29.4706 -0.108565 28.508 0.341468 27.7392L13.8424 4.73759C14.2925 3.96878 15.1113 3.5 15.9988 3.5ZM15.9988 11.5006C15.1675 11.5006 14.4987 12.1694 14.4987 13.0007V20.0012C14.4987 20.8325 15.1675 21.5013 15.9988 21.5013C16.8301 21.5013 17.4989 20.8325 17.4989 20.0012V13.0007C17.4989 12.1694 16.8301 11.5006 15.9988 11.5006ZM17.999 25.5016C17.999 24.9711 17.7883 24.4624 17.4132 24.0873C17.0381 23.7122 16.5293 23.5014 15.9988 23.5014C15.4684 23.5014 14.9596 23.7122 14.5845 24.0873C14.2094 24.4624 13.9987 24.9711 13.9987 25.5016C13.9987 26.032 14.2094 26.5408 14.5845 26.9159C14.9596 27.291 15.4684 27.5017 15.9988 27.5017C16.5293 27.5017 17.0381 27.291 17.4132 26.9159C17.7883 26.5408 17.999 26.032 17.999 25.5016Z" fill="#C9851E"/>
</svg>
