<svg width="48" height="48" viewBox="0 0 48 48" fill="none" xmlns="http://www.w3.org/2000/svg">
<path d="M14.2031 41.3813C14.8594 42 15.8156 42.1688 16.6406 41.8125C17.4656 41.4563 18 40.6406 18 39.75V14.25C18 13.35 17.4656 12.5438 16.6406 12.1875C15.8156 11.8313 14.8594 12 14.2031 12.6188L0.703125 25.3688C0.253125 25.7906 0 26.3813 0 27C0 27.6188 0.253125 28.2094 0.703125 28.6313L14.2031 41.3813Z" fill="#FF4545"/>
<path d="M18 22.5V31.5H37.5C43.3031 31.5 48 26.8031 48 21V6C48 4.34062 46.6594 3 45 3H42C40.3406 3 39 4.34062 39 6V21C39 21.825 38.325 22.5 37.5 22.5H18Z" fill="white"/>
</svg>
