<svg width="48" height="48" viewBox="0 0 48 48" fill="none" xmlns="http://www.w3.org/2000/svg">
<g clip-path="url(#clip0_10885_3886)">
<path d="M0.609399 25.4625C-0.206226 26.325 -0.206226 27.6844 0.609399 28.5469L11.9907 40.6406C12.8157 41.5125 13.9594 42.0094 15.15 42.0094C17.55 42.0094 19.4907 40.0687 19.4907 37.6687V33.7594H32.9907C41.2782 33.7594 47.9907 27.0469 47.9907 18.7594V8.25937C47.9907 5.36249 45.6375 3.00937 42.7407 3.00937H39.7407C36.8438 3.00937 34.4907 5.36249 34.4907 8.25937V19.5094C34.4907 19.9219 34.1532 20.2594 33.7407 20.2594H19.4907V16.35C19.4907 13.95 17.55 12.0094 15.15 12.0094C13.95 12.0094 12.8063 12.5062 11.9907 13.3781L0.609399 25.4625ZM15 16.7437V22.5094C15 23.7562 16.0032 24.7594 17.25 24.7594H33.75C36.6469 24.7594 39 22.4062 39 19.5094V8.25937C39 7.84687 39.3375 7.50937 39.75 7.50937H42.75C43.1625 7.50937 43.5 7.84687 43.5 8.25937V18.7594C43.5 24.5625 38.8032 29.2594 33 29.2594H17.25C16.0032 29.2594 15 30.2625 15 31.5094V37.275L5.34377 27L15 16.7344V16.7437Z" fill="#B3B3C3"/>
</g>
<defs>
<clipPath id="clip0_10885_3886">
<rect width="48" height="48" fill="white"/>
</clipPath>
</defs>
</svg>
