<svg width="48" height="39" viewBox="0 0 48 39" fill="current" xmlns="http://www.w3.org/2000/svg">
<path d="M16.6406 38.8125C15.8156 39.1687 14.8594 39 14.2031 38.3812L0.703125 25.6312C0.253125 25.2094 0 24.6187 0 24C0 23.3812 0.253125 22.7906 0.703125 22.3687L14.2031 9.61875C14.8594 9 15.8156 8.83125 16.6406 9.1875C17.4656 9.54375 18 10.3594 18 11.25V19.5H36C37.6594 19.5 39 18.1594 39 16.5V3C39 1.34062 40.3406 0 42 0H45C46.6594 0 48 1.34062 48 3V16.5C48 23.1281 42.6281 28.5 36 28.5H18V36.75C18 37.65 17.4656 38.4562 16.6406 38.8125Z" fill="current"/>
</svg>
