<svg width="40" height="40" viewBox="0 0 40 40" fill="none" xmlns="http://www.w3.org/2000/svg">
<path d="M23.2124 30.2875C23.0553 30.4445 22.9483 30.6447 22.9047 30.8627L22.0122 35.3258C21.9336 35.7189 22.2805 36.0658 22.6741 35.9877L27.1378 35.0946C27.3554 35.0509 27.5554 34.9442 27.7125 34.7869L35.5438 26.9557L31.0431 22.4551L23.2124 30.2875ZM39.3437 19.9812L38.0249 18.6619C37.1462 17.7831 35.7218 17.7831 34.8431 18.6619L32.4599 21.0456L36.9606 25.5462L39.3437 23.1631C40.2187 22.2812 40.2187 20.8562 39.3437 19.9812Z" fill="#E84A4A"/>
<path d="M13.9438 20C18.3625 20 21.9438 16.4181 21.9438 12C21.9438 7.58187 18.3625 4 13.9438 4C9.58125 4 6 7.58187 6 12C6 16.4181 9.58125 20 13.9438 20ZM17.1688 23H10.8313C4.85063 23 0 27.8563 0 33.8375C0 35.0312 0.97 36 2.16625 36H20.0662C19.9884 35.6543 19.9769 35.2931 20.0485 34.935L20.941 30.4719C21.0625 29.8642 21.3583 29.3119 21.796 28.8744L24.6535 26.0169C22.7062 24.15 20.075 23 17.1688 23Z" fill="white"/>
</svg>
