<svg width="24" height="21" viewBox="0 0 24 21" fill="none" xmlns="http://www.w3.org/2000/svg">
<path d="M8.61616 8.38121C9.43228 8.38121 10.215 8.05701 10.7921 7.47992C11.3692 6.90283 11.6934 6.12014 11.6934 5.30401C11.6934 4.48789 11.3692 3.70519 10.7921 3.1281C10.215 2.55102 9.43228 2.22681 8.61616 2.22681C7.80003 2.22681 7.01734 2.55102 6.44025 3.1281C5.86316 3.70519 5.53896 4.48789 5.53896 5.30401C5.53896 6.12014 5.86316 6.90283 6.44025 7.47992C7.01734 8.05701 7.80003 8.38121 8.61616 8.38121ZM8.61616 0.380493C9.92196 0.380493 11.1743 0.89922 12.0976 1.82256C13.0209 2.7459 13.5397 3.99821 13.5397 5.30401C13.5397 6.60981 13.0209 7.86213 12.0976 8.78546C11.1743 9.7088 9.92196 10.2275 8.61616 10.2275C7.31036 10.2275 6.05804 9.7088 5.1347 8.78546C4.21136 7.86213 3.69264 6.60981 3.69264 5.30401C3.69264 3.99821 4.21136 2.7459 5.1347 1.82256C6.05804 0.89922 7.31036 0.380493 8.61616 0.380493ZM1.89632 18.2282H12.9473C13.0742 18.3898 13.205 18.5437 13.3435 18.6898C13.9474 19.3399 14.8667 19.3976 15.5437 19.0245V19.0591C15.5437 19.413 15.6476 19.7707 15.8476 20.0707H1.14241C0.511584 20.0746 0 19.563 0 18.9322C0 15.1434 3.06951 12.0738 6.85831 12.0738H8.61616H10.374C10.8279 12.0738 11.2741 12.12 11.701 12.2008C11.6203 12.9124 11.9857 13.5701 12.5396 13.924C12.4011 14.0125 12.2703 14.1202 12.1588 14.2471C11.6049 14.0356 11.001 13.9202 10.3702 13.9202H6.85831C4.33116 13.9202 2.23866 15.7934 1.89632 18.2282ZM16.7707 8.77355C16.7707 8.5043 16.9438 8.26197 17.2054 8.20427C17.6093 8.11196 18.0324 8.06195 18.4632 8.06195C18.894 8.06195 19.3171 8.11196 19.721 8.20427C19.9826 8.26197 20.1557 8.5043 20.1557 8.77355V9.95058C20.4595 10.0814 20.748 10.2468 21.0134 10.4429L21.9712 9.89288C22.2058 9.75826 22.4982 9.78903 22.6828 9.9852C22.9751 10.2968 23.2329 10.6468 23.4559 11.0314C23.679 11.4161 23.8521 11.8161 23.9752 12.2239C24.056 12.4816 23.9329 12.7508 23.6983 12.8855L22.7367 13.4394C22.752 13.5932 22.7636 13.7509 22.7636 13.9125C22.7636 14.074 22.7559 14.2279 22.7367 14.3856L23.6983 14.9395C23.9329 15.0741 24.0522 15.3434 23.9752 15.6011C23.8483 16.0088 23.6752 16.4089 23.4559 16.7935C23.2367 17.1782 22.9751 17.5282 22.6828 17.8398C22.4982 18.0359 22.202 18.0667 21.9712 17.9321L21.0134 17.382C20.748 17.5782 20.4634 17.7436 20.1557 17.8744V19.0514C20.1557 19.3207 19.9826 19.563 19.721 19.6207C19.3171 19.713 18.894 19.763 18.4632 19.763C18.0324 19.763 17.6093 19.713 17.2054 19.6207C16.9438 19.563 16.7707 19.3207 16.7707 19.0514V17.8744C16.463 17.7436 16.1707 17.5782 15.9053 17.3782L14.9552 17.9282C14.7205 18.0628 14.4282 18.0321 14.2436 17.8359C13.9513 17.5243 13.6935 17.1743 13.4704 16.7897C13.2473 16.405 13.0742 16.005 12.9512 15.5972C12.8704 15.3395 12.9935 15.0703 13.2281 14.9356L14.182 14.3856C14.1667 14.2279 14.1551 14.0702 14.1551 13.9086C14.1551 13.7471 14.1628 13.5894 14.182 13.4317L13.2243 12.8816C12.9896 12.747 12.8704 12.4777 12.9473 12.22C13.0742 11.8123 13.2435 11.4123 13.4666 11.0276C13.6897 10.643 13.9474 10.2929 14.2397 9.98135C14.4244 9.78518 14.7167 9.75441 14.9513 9.88904L15.9053 10.4391C16.1707 10.2429 16.463 10.0775 16.7707 9.94289V8.77355ZM20.3134 13.9086C20.3248 13.6588 20.2854 13.4093 20.1977 13.1751C20.1099 12.941 19.9756 12.727 19.8029 12.5462C19.6301 12.3654 19.4225 12.2215 19.1926 12.1231C18.9627 12.0248 18.7152 11.9741 18.4651 11.9741C18.215 11.9741 17.9676 12.0248 17.7376 12.1231C17.5077 12.2215 17.3001 12.3654 17.1274 12.5462C16.9546 12.727 16.8203 12.941 16.7326 13.1751C16.6448 13.4093 16.6055 13.6588 16.6169 13.9086C16.6055 14.1584 16.6448 14.408 16.7326 14.6421C16.8203 14.8763 16.9546 15.0903 17.1274 15.2711C17.3001 15.4519 17.5077 15.5958 17.7376 15.6941C17.9676 15.7924 18.215 15.8431 18.4651 15.8431C18.7152 15.8431 18.9627 15.7924 19.1926 15.6941C19.4225 15.5958 19.6301 15.4519 19.8029 15.2711C19.9756 15.0903 20.1099 14.8763 20.1977 14.6421C20.2854 14.408 20.3248 14.1584 20.3134 13.9086Z" fill="#B3B3C3"/>
</svg>
