<svg width="40" height="40" viewBox="0 0 40 40" fill="none" xmlns="http://www.w3.org/2000/svg">
<path d="M14.0029 17C15.329 17 16.6008 16.4732 17.5385 15.5355C18.4761 14.5979 19.0029 13.3261 19.0029 12C19.0029 10.6739 18.4761 9.40215 17.5385 8.46447C16.6008 7.52678 15.329 7 14.0029 7C12.6768 7 11.4051 7.52678 10.4674 8.46447C9.52971 9.40215 9.00293 10.6739 9.00293 12C9.00293 13.3261 9.52971 14.5979 10.4674 15.5355C11.4051 16.4732 12.6768 17 14.0029 17ZM14.0029 4C16.1247 4 18.1595 4.84285 19.6598 6.34315C21.1601 7.84344 22.0029 9.87827 22.0029 12C22.0029 14.1217 21.1601 16.1566 19.6598 17.6569C18.1595 19.1571 16.1247 20 14.0029 20C11.8812 20 9.84637 19.1571 8.34608 17.6569C6.84578 16.1566 6.00293 14.1217 6.00293 12C6.00293 9.87827 6.84578 7.84344 8.34608 6.34315C9.84637 4.84285 11.8812 4 14.0029 4ZM3.08418 33H20.4092L20.0904 34.2625C19.9467 34.85 19.9779 35.45 20.1779 36H1.85918C0.83418 36 0.00292969 35.1687 0.00292969 34.1437C0.00292969 27.9875 4.99043 23 11.1467 23H14.0029H16.8592C19.8654 23 22.5967 24.1938 24.6029 26.1313L22.4779 28.25C21.0154 26.8563 19.0342 26 16.8592 26H11.1467C7.04043 26 3.64043 29.0438 3.08418 33ZM38.3654 18.7312L39.2654 19.6313C40.2404 20.6063 40.2404 22.1875 39.2654 23.1688L37.4279 25.0063L32.9904 20.5688L34.8279 18.7312C35.8029 17.7562 37.3842 17.7562 38.3654 18.7312ZM23.4967 30.0625L31.5717 21.9875L36.0092 26.425L27.9342 34.4937C27.6779 34.75 27.3592 34.9312 27.0029 35.0187L23.2467 35.9562C22.9029 36.0437 22.5467 35.9438 22.2967 35.6938C22.0467 35.4438 21.9467 35.0875 22.0342 34.7437L22.9717 30.9875C23.0592 30.6375 23.2404 30.3125 23.4967 30.0562V30.0625Z" fill="#B3B3C3"/>
</svg>
