<svg width="40" height="33" viewBox="0 0 40 33" fill="none" xmlns="http://www.w3.org/2000/svg">
<path d="M19.9937 20.1997C23.5819 20.1997 26.4375 17.2897 26.4375 13.6997C26.4375 10.1097 23.5287 7.19971 19.9937 7.19971C16.4056 7.19971 13.55 10.1097 13.55 13.6997C13.4938 17.2872 16.4062 20.1997 19.9937 20.1997ZM23.1187 22.1997H16.8813C11.975 22.1997 8 25.931 8 30.531C8 31.456 8.79375 32.1997 9.775 32.1997H30.225C31.2063 32.1997 32 31.456 32 30.531C32 25.931 28.025 22.1997 23.1187 22.1997Z" fill="#2E2640"/>
<path d="M8 10.1997C10.7612 10.1997 13 7.96096 13 5.19971C13 2.43846 10.7625 0.199707 8 0.199707C5.23875 0.199707 3 2.43846 3 5.19971C3 7.96096 5.23875 10.1997 8 10.1997ZM32 10.1997C34.7612 10.1997 37 7.96096 37 5.19971C37 2.43846 34.7625 0.199707 32 0.199707C29.2388 0.199707 27 2.43846 27 5.19971C27 7.96096 29.2375 10.1997 32 10.1997ZM34.4938 12.1997H30.6287C29.8288 12.1997 29.0738 12.3895 28.3875 12.7147C28.425 13.0435 28.4875 13.3622 28.4875 13.6997C28.4875 15.8066 27.6888 17.7128 26.415 19.1997H38.8963C39.5063 19.1997 40 18.6747 40 18.031C40 14.8122 37.5375 12.1997 34.4938 12.1997ZM11.5938 12.706C10.9125 12.331 10.1625 12.1997 9.36875 12.1997H5.505C2.465 12.1997 0 14.8122 0 18.031C0 18.6747 0.492938 19.1997 1.10125 19.1997H13.57C12.2962 17.7128 11.4975 15.8066 11.4975 13.6997C11.4938 13.3622 11.5562 13.0372 11.5938 12.706Z" fill="#FF4545"/>
</svg>
