<svg width="32" height="23" viewBox="0 0 32 23" fill="none" xmlns="http://www.w3.org/2000/svg">
<path d="M5.2 5.8001C5.2 5.4324 5.27242 5.0683 5.41314 4.72858C5.55385 4.38887 5.7601 4.0802 6.0201 3.8202C6.28011 3.56019 6.58878 3.35395 6.92849 3.21324C7.2682 3.07252 7.6323 3.0001 8 3.0001C8.3677 3.0001 8.7318 3.07252 9.07151 3.21324C9.41123 3.35395 9.7199 3.56019 9.9799 3.8202C10.2399 4.0802 10.4461 4.38887 10.5869 4.72858C10.7276 5.0683 10.8 5.4324 10.8 5.8001C10.8 6.1678 10.7276 6.5319 10.5869 6.87161C10.4461 7.21132 10.2399 7.51999 9.9799 7.78C9.7199 8.04 9.41123 8.24625 9.07151 8.38696C8.7318 8.52767 8.3677 8.6001 8 8.6001C7.6323 8.6001 7.2682 8.52767 6.92849 8.38696C6.58878 8.24625 6.28011 8.04 6.0201 7.78C5.7601 7.51999 5.55385 7.21132 5.41314 6.87161C5.27242 6.5319 5.2 6.1678 5.2 5.8001ZM13.2 5.8001C13.2 4.42097 12.6521 3.09833 11.677 2.12314C10.7018 1.14795 9.37913 0.600098 8 0.600098C6.62087 0.600098 5.29823 1.14795 4.32304 2.12314C3.34786 3.09833 2.8 4.42097 2.8 5.8001C2.8 7.17922 3.34786 8.50186 4.32304 9.47705C5.29823 10.4522 6.62087 11.0001 8 11.0001C9.37913 11.0001 10.7018 10.4522 11.677 9.47705C12.6521 8.50186 13.2 7.17922 13.2 5.8001ZM24 10.2001C24.6303 10.2001 25.2545 10.0759 25.8369 9.83472C26.4192 9.5935 26.9484 9.23993 27.3941 8.79421C27.8398 8.34849 28.1934 7.81934 28.4346 7.23698C28.6758 6.65462 28.8 6.03044 28.8 5.4001C28.8 4.76975 28.6758 4.14558 28.4346 3.56322C28.1934 2.98085 27.8398 2.45171 27.3941 2.00599C26.9484 1.56026 26.4192 1.2067 25.8369 0.965476C25.2545 0.724253 24.6303 0.600098 24 0.600098C23.3697 0.600098 22.7455 0.724253 22.1631 0.965476C21.5808 1.2067 21.0516 1.56026 20.6059 2.00599C20.1602 2.45171 19.8066 2.98085 19.5654 3.56322C19.3242 4.14558 19.2 4.76975 19.2 5.4001C19.2 6.03044 19.3242 6.65462 19.5654 7.23698C19.8066 7.81934 20.1602 8.34849 20.6059 8.79421C21.0516 9.23993 21.5808 9.5935 22.1631 9.83472C22.7455 10.0759 23.3697 10.2001 24 10.2001ZM6.4 15.8001H9.6C11.81 15.8001 13.6 17.5901 13.6 19.8001V20.6001H2.4V19.8001C2.4 17.5901 4.19 15.8001 6.4 15.8001ZM6.4 13.4001C2.865 13.4001 0 16.2651 0 19.8001V20.6001C0 21.9251 1.075 23.0001 2.4 23.0001H13.6C14.925 23.0001 16 21.9251 16 20.6001V19.8001C16 16.2651 13.135 13.4001 9.6 13.4001H6.4ZM22.4 23.0001H25.6C29.135 23.0001 32 20.1351 32 16.6001V15.8001C32 14.4751 30.925 13.4001 29.6 13.4001H18.4C17.31 13.4001 16.385 14.1301 16.095 15.1301C17.04 16.4451 17.6 18.0551 17.6 19.8001V20.6001C17.6 20.6751 17.6 20.7501 17.595 20.8251C18.765 22.1601 20.485 23.0001 22.4 23.0001Z" fill="#B3B3C3"/>
</svg>
