<svg width="40" height="32" viewBox="0 0 40 32" fill="current" xmlns="http://www.w3.org/2000/svg">
<path d="M9 10C6.2375 10 4 7.7625 4 5C4 2.2375 6.2375 0 9 0C11.7625 0 14 2.2375 14 5C14 7.7625 11.7625 10 9 10ZM32 10C29.2375 10 27 7.7625 27 5C27 2.2375 29.2375 0 32 0C34.7625 0 37 2.2375 37 5C37 7.7625 34.7625 10 32 10ZM0 18.6688C0 14.9875 2.9875 12 6.66875 12H9.3375C10.3312 12 11.275 12.2188 12.125 12.6062C12.0437 13.0562 12.0063 13.525 12.0063 14C12.0063 16.3875 13.0562 18.5312 14.7125 20C14.7 20 14.6875 20 14.6687 20H1.33125C0.6 20 0 19.4 0 18.6688ZM25.3312 20C25.3187 20 25.3062 20 25.2875 20C26.95 18.5312 27.9937 16.3875 27.9937 14C27.9937 13.525 27.95 13.0625 27.875 12.6062C28.725 12.2125 29.6688 12 30.6625 12H33.3312C37.0125 12 40 14.9875 40 18.6688C40 19.4062 39.4 20 38.6688 20H25.3312ZM26 14C26 17.3125 23.3125 20 20 20C16.6875 20 14 17.3125 14 14C14 10.6875 16.6875 8 20 8C23.3125 8 26 10.6875 26 14ZM8 30.3312C8 25.7312 11.7312 22 16.3312 22H23.6688C28.2688 22 32 25.7312 32 30.3312C32 31.25 31.2562 32 30.3312 32H9.66875C8.75 32 8 31.2562 8 30.3312Z" fill="current"/>
</svg>
