<svg width="55" height="54" viewBox="0 0 55 54" fill="none" xmlns="http://www.w3.org/2000/svg">
<g clip-path="url(#clip0_4727_79670)">
<path d="M13.625 25.6516C15.9523 25.6516 18.1842 24.7271 19.8299 23.0814C21.4755 21.4358 22.4 19.2038 22.4 16.8766C22.4 14.5493 21.4755 12.3173 19.8299 10.6717C18.1842 9.02607 15.9523 8.10156 13.625 8.10156C11.2977 8.10156 9.06577 9.02607 7.42014 10.6717C5.77451 12.3173 4.85 14.5493 4.85 16.8766C4.85 19.2038 5.77451 21.4358 7.42014 23.0814C9.06577 24.7271 11.2977 25.6516 13.625 25.6516ZM10.925 29.7016C4.95969 29.7016 0.125 34.5363 0.125 40.5016V41.8516C0.125 44.0875 1.93906 45.9016 4.175 45.9016H23.075C25.3109 45.9016 27.125 44.0875 27.125 41.8516V40.5016C27.125 34.5363 22.2903 29.7016 16.325 29.7016H10.925Z" fill="#2D253F"/>
<path d="M40.6251 8.10156C42.9524 8.10156 45.1843 9.02607 46.83 10.6717C48.4756 12.3173 49.4001 14.5493 49.4001 16.8766C49.4001 19.2038 48.4756 21.4358 46.83 23.0814C45.1843 24.7271 42.9524 25.6516 40.6251 25.6516C38.2978 25.6516 36.0659 24.7271 34.4202 23.0814C32.7746 21.4358 31.8501 19.2038 31.8501 16.8766C31.8501 14.5493 32.7746 12.3173 34.4202 10.6717C36.0659 9.02607 38.2978 8.10156 40.6251 8.10156ZM37.9251 45.9016C34.6935 45.9016 31.791 44.4841 29.8167 42.2313C29.8251 42.1047 29.8251 41.9781 29.8251 41.8516V40.5016C29.8251 37.5569 28.8801 34.84 27.2854 32.6209C27.7748 30.9334 29.3273 29.7016 31.1751 29.7016H50.0751C52.311 29.7016 54.1251 31.5156 54.1251 33.7516V35.1016C54.1251 41.0669 49.2904 45.9016 43.3251 45.9016H37.9251Z" fill="#E84A4A"/>
</g>
<defs>
<clipPath id="clip0_4727_79670">
<rect width="54.0001" height="54" fill="white" transform="translate(0.125)"/>
</clipPath>
</defs>
</svg>
