<svg width="40" height="41" viewBox="0 0 40 41" fill="none" xmlns="http://www.w3.org/2000/svg">
<path d="M14 20.7253C18.4187 20.7253 21.9999 17.1574 21.9999 12.7566C21.9999 8.35571 18.4187 4.78784 14 4.78784C9.58122 4.78784 5.99998 8.35571 5.99998 12.7566C5.99998 17.1574 9.58122 20.7253 14 20.7253ZM17.1687 23.7136H10.8312C4.84811 23.7136 0 28.5446 0 34.5025C0 35.6978 0.969997 36.6627 2.16624 36.6627H25.8312C27.0312 36.6627 27.9999 35.6978 27.9999 34.5025C27.9999 28.5446 23.1499 23.7136 17.1687 23.7136Z" fill="white"/>
<path d="M29.944 24.7097H25.3284C28.2002 27.0567 30.0002 30.5679 30.0002 34.5025C30.0002 35.2993 29.7627 36.034 29.3752 36.6627H38.0002C39.1064 36.6627 40.0002 35.7663 40.0002 34.6145C40.0002 29.1672 35.5252 24.7097 29.944 24.7097ZM27.0002 20.7253C30.869 20.7253 34.0002 17.6063 34.0002 13.7527C34.0002 9.89904 30.869 6.78003 27.0002 6.78003C25.4309 6.78003 23.9977 7.31263 22.8303 8.1814C23.5502 9.5585 24.0002 11.1006 24.0002 12.7566C24.0002 14.9679 23.2546 16.9987 22.0259 18.6528C23.294 19.9284 25.0502 20.7253 27.0002 20.7253Z" fill="#E84A4A"/>
</svg>
