<svg width="24" height="21" viewBox="0 0 24 21" fill="none" xmlns="http://www.w3.org/2000/svg">
<path d="M17.2081 8.58608C16.9465 8.64379 16.7734 8.88616 16.7734 9.15546V9.82486C16.7734 10.1288 16.5849 10.4019 16.3233 10.552C16.0617 10.702 15.7385 10.7251 15.4769 10.5751L14.9537 10.275C14.719 10.1403 14.4266 10.1711 14.242 10.3673C13.9534 10.6789 13.6918 11.029 13.4687 11.4137C13.2456 11.7984 13.0724 12.1985 12.9493 12.6063C12.8686 12.8641 12.9917 13.1334 13.2263 13.268L13.7649 13.5797C14.015 13.7259 14.1535 14.0028 14.1535 14.2952C14.1535 14.5876 14.0188 14.8646 13.7649 15.0108L13.2263 15.3224C12.9917 15.4571 12.8724 15.7264 12.9493 15.9841C13.0763 16.3919 13.2494 16.792 13.4687 17.1767C13.688 17.5614 13.9496 17.9115 14.242 18.2232C14.4266 18.4194 14.7229 18.4501 14.9537 18.3155L15.4731 18.0154C15.7347 17.8654 16.0578 17.8885 16.3194 18.0385C16.5849 18.1885 16.7695 18.4617 16.7695 18.7656V19.435C16.7695 19.7043 16.9427 19.9467 17.2043 20.0044C17.6082 20.0967 18.0314 20.1467 18.4623 20.1467C18.8932 20.1467 19.3163 20.0967 19.7203 20.0044C19.9819 19.9467 20.155 19.7043 20.155 19.435V18.7541C20.155 18.454 20.3397 18.1847 20.6013 18.0346C20.859 17.8846 21.1822 17.8615 21.44 18.0116L21.9709 18.3155C22.2055 18.4501 22.4979 18.4194 22.6826 18.2232C22.975 17.9115 23.2327 17.5614 23.4559 17.1767C23.679 16.792 23.8521 16.3919 23.9752 15.9841C24.056 15.7264 23.9329 15.4571 23.6982 15.3224L23.1442 15.0031C22.8942 14.8608 22.7595 14.5838 22.7595 14.2952C22.7595 14.0067 22.8942 13.7297 23.1442 13.5874L23.6982 13.268C23.9329 13.1334 24.0522 12.8641 23.9752 12.6063C23.8483 12.1985 23.6751 11.7984 23.4559 11.4137C23.2366 11.029 22.975 10.6789 22.6826 10.3673C22.4979 10.1711 22.2017 10.1403 21.9709 10.275L21.44 10.5789C21.1822 10.7289 20.859 10.7059 20.6013 10.5558C20.3397 10.4058 20.155 10.1365 20.155 9.8364V9.15546C20.155 8.88616 19.9819 8.64379 19.7203 8.58608C19.3163 8.49375 18.8932 8.44374 18.4623 8.44374C18.0314 8.44374 17.6082 8.49375 17.2043 8.58608H17.2081ZM18.4661 12.4448C18.9559 12.4448 19.4256 12.6393 19.7719 12.9856C20.1182 13.3319 20.3128 13.8016 20.3128 14.2914C20.3128 14.7811 20.1182 15.2508 19.7719 15.5971C19.4256 15.9435 18.9559 16.138 18.4661 16.138C17.9764 16.138 17.5067 15.9435 17.1604 15.5971C16.8141 15.2508 16.6195 14.7811 16.6195 14.2914C16.6195 13.8016 16.8141 13.3319 17.1604 12.9856C17.5067 12.6393 17.9764 12.4448 18.4661 12.4448Z" fill="#FF4545"/>
<path d="M3.69325 5.68532C3.69325 4.3793 4.21206 3.12678 5.13555 2.20329C6.05904 1.2798 7.31156 0.760986 8.61758 0.760986C9.92359 0.760986 11.1761 1.2798 12.0996 2.20329C13.0231 3.12678 13.5419 4.3793 13.5419 5.68532C13.5419 6.99133 13.0231 8.24385 12.0996 9.16734C11.1761 10.0908 9.92359 10.6096 8.61758 10.6096C7.31156 10.6096 6.05904 10.0908 5.13555 9.16734C4.21206 8.24385 3.69325 6.99133 3.69325 5.68532ZM0 19.3157C0 15.5263 3.07001 12.4563 6.85944 12.4563H10.3757C10.8297 12.4563 11.2759 12.5024 11.703 12.5832C11.6222 13.2949 11.9877 13.9528 12.5417 14.3067C11.903 14.7145 11.5145 15.5224 11.7722 16.3573C11.9261 16.8535 12.1339 17.3383 12.4032 17.8038C12.6725 18.2693 12.9879 18.6925 13.3419 19.0733C13.9459 19.7235 14.8653 19.7812 15.5424 19.408V19.4427C15.5424 19.7966 15.6463 20.1544 15.8463 20.4545H1.1426C0.511669 20.4583 0 19.9466 0 19.3157Z" fill="white"/>
</svg>
