<svg width="32" height="23" viewBox="0 0 32 23" fill="current" xmlns="http://www.w3.org/2000/svg">
<path d="M8 0C9.37913 0 10.7018 0.547856 11.677 1.52304C12.6521 2.49823 13.2 3.82087 13.2 5.2C13.2 6.57913 12.6521 7.90177 11.677 8.87696C10.7018 9.85215 9.37913 10.4 8 10.4C6.62087 10.4 5.29823 9.85215 4.32304 8.87696C3.34786 7.90177 2.8 6.57913 2.8 5.2C2.8 3.82087 3.34786 2.49823 4.32304 1.52304C5.29823 0.547856 6.62087 0 8 0ZM24 0C25.3791 0 26.7018 0.547856 27.677 1.52304C28.6521 2.49823 29.2 3.82087 29.2 5.2C29.2 6.57913 28.6521 7.90177 27.677 8.87696C26.7018 9.85215 25.3791 10.4 24 10.4C22.6209 10.4 21.2982 9.85215 20.323 8.87696C19.3479 7.90177 18.8 6.57913 18.8 5.2C18.8 3.82087 19.3479 2.49823 20.323 1.52304C21.2982 0.547856 22.6209 0 24 0ZM0 19.2C0 15.665 2.865 12.8 6.4 12.8H9.6C13.135 12.8 16 15.665 16 19.2V20C16 21.325 14.925 22.4 13.6 22.4H2.4C1.075 22.4 0 21.325 0 20V19.2ZM22.4 22.4C20.485 22.4 18.765 21.56 17.595 20.225C17.6 20.15 17.6 20.075 17.6 20V19.2C17.6 17.455 17.04 15.845 16.095 14.53C16.385 13.53 17.305 12.8 18.4 12.8H29.6C30.925 12.8 32 13.875 32 15.2V16C32 19.535 29.135 22.4 25.6 22.4H22.4Z" fill="current"/>
</svg>
