<svg width="24" height="25" viewBox="0 0 24 25" fill="none" xmlns="http://www.w3.org/2000/svg">
<path d="M5.4 8C3.7425 8 2.4 6.32188 2.4 4.25C2.4 2.17812 3.7425 0.5 5.4 0.5C7.0575 0.5 8.4 2.17812 8.4 4.25C8.4 6.32188 7.0575 8 5.4 8ZM19.2 8C17.5425 8 16.2 6.32188 16.2 4.25C16.2 2.17812 17.5425 0.5 19.2 0.5C20.8575 0.5 22.2 2.17812 22.2 4.25C22.2 6.32188 20.8575 8 19.2 8ZM0 14.5016C0 11.7406 1.7925 9.5 4.00125 9.5H5.6025C6.19875 9.5 6.765 9.66406 7.275 9.95469C7.22625 10.2922 7.20375 10.6438 7.20375 11C7.20375 12.7906 7.83375 14.3984 8.8275 15.5C8.82 15.5 8.8125 15.5 8.80125 15.5H0.79875C0.36 15.5 0 15.05 0 14.5016ZM15.1988 15.5C15.1912 15.5 15.1838 15.5 15.1725 15.5C16.17 14.3984 16.7963 12.7906 16.7963 11C16.7963 10.6438 16.77 10.2969 16.725 9.95469C17.235 9.65938 17.8013 9.5 18.3975 9.5H19.9988C22.2075 9.5 24 11.7406 24 14.5016C24 15.0547 23.64 15.5 23.2013 15.5H15.1988ZM15.6 11C15.6 13.4844 13.9875 15.5 12 15.5C10.0125 15.5 8.4 13.4844 8.4 11C8.4 8.51562 10.0125 6.5 12 6.5C13.9875 6.5 15.6 8.51562 15.6 11ZM4.8 23.2484C4.8 19.7984 7.03875 17 9.79875 17H14.2013C16.9613 17 19.2 19.7984 19.2 23.2484C19.2 23.9375 18.7537 24.5 18.1987 24.5H5.80125C5.25 24.5 4.8 23.9422 4.8 23.2484Z" fill="white"/>
</svg>
