<svg width="40" height="41" viewBox="0 0 40 41" fill="none" xmlns="http://www.w3.org/2000/svg">
<path d="M36.5757 18.6419L39.5523 15.6654C40.1457 15.072 40.1457 14.1109 39.5523 13.5173C38.9589 12.9236 37.9979 12.9239 37.4042 13.5173L34.4302 16.5533L31.4536 13.5768C30.8602 12.9834 29.8992 12.9834 29.3055 13.5768C28.7118 14.1701 28.7121 15.1312 29.3055 15.7249L32.2821 18.7014L29.3055 21.678C28.7121 22.2714 28.7121 23.2324 29.3055 23.8261C29.8987 24.4193 30.8599 24.4198 31.4536 23.8261L34.4302 20.8445L37.4067 23.8211C38 24.4143 38.9612 24.4148 39.5548 23.8211C40.1482 23.2277 40.1482 22.2666 39.5548 21.673L36.5757 18.6419Z" fill="#E84A4A"/>
<path d="M14.1772 20.7242C18.6519 20.7242 22.2784 17.097 22.2784 12.623C22.2784 8.14894 18.6519 4.52173 14.1772 4.52173C9.70251 4.52173 6.07594 8.14894 6.07594 12.623C6.07594 17.097 9.70251 20.7242 14.1772 20.7242ZM17.386 23.7622H10.9683C4.91201 23.7622 0 28.6736 0 34.7305C0 35.9457 0.982276 36.9267 2.19367 36.9267H26.162C27.3734 36.9267 28.3544 35.9457 28.3544 34.7305C28.3544 28.6736 23.443 23.7622 17.386 23.7622Z" fill="#2D253F"/>
</svg>
