<svg width="40" height="40" viewBox="0 0 40 40" fill="current" xmlns="http://www.w3.org/2000/svg">
<path d="M14.0029 20C16.1247 20 18.1595 19.1571 19.6598 17.6569C21.1601 16.1566 22.0029 14.1217 22.0029 12C22.0029 9.87827 21.1601 7.84344 19.6598 6.34315C18.1595 4.84285 16.1247 4 14.0029 4C11.8812 4 9.84637 4.84285 8.34608 6.34315C6.84578 7.84344 6.00293 9.87827 6.00293 12C6.00293 14.1217 6.84578 16.1566 8.34608 17.6569C9.84637 19.1571 11.8812 20 14.0029 20ZM11.1467 23C4.99043 23 0.00292969 27.9875 0.00292969 34.1437C0.00292969 35.1687 0.83418 36 1.85918 36H20.1779C19.9842 35.45 19.9467 34.85 20.0904 34.2625L21.0279 30.5063C21.2029 29.8 21.5654 29.1625 22.0779 28.65L24.5967 26.1313C22.5904 24.1938 19.8654 23 16.8529 23H11.1467ZM38.3654 18.7312C37.3904 17.7562 35.8092 17.7562 34.8279 18.7312L32.9904 20.5688L37.4279 25.0063L39.2654 23.1688C40.2404 22.1938 40.2404 20.6125 39.2654 19.6313L38.3654 18.7312ZM23.4967 30.0625C23.2404 30.3188 23.0592 30.6375 22.9717 30.9937L22.0342 34.75C21.9467 35.0938 22.0467 35.45 22.2967 35.7C22.5467 35.95 22.9029 36.05 23.2467 35.9625L27.0029 35.025C27.3529 34.9375 27.6779 34.7563 27.9342 34.5L36.0092 26.4188L31.5717 21.9813L23.4967 30.0625Z" fill="current"/>
</svg>
