<svg width="40" height="41" viewBox="0 0 40 41" fill="none" xmlns="http://www.w3.org/2000/svg">
<path d="M9.23299 12.5172C9.23299 11.1567 9.77341 9.85206 10.7354 8.8901C11.6973 7.92814 13.002 7.38772 14.3624 7.38772C15.7228 7.38772 17.0275 7.92814 17.9895 8.8901C18.9514 9.85206 19.4919 11.1567 19.4919 12.5172C19.4919 13.8776 18.9514 15.1823 17.9895 16.1442C17.0275 17.1062 15.7228 17.6466 14.3624 17.6466C13.002 17.6466 11.6973 17.1062 10.7354 16.1442C9.77341 15.1823 9.23299 13.8776 9.23299 12.5172ZM22.5695 12.5172C22.5695 10.3405 21.7049 8.25299 20.1657 6.71386C18.6266 5.17473 16.5391 4.31006 14.3624 4.31006C12.1858 4.31006 10.0983 5.17473 8.55913 6.71386C7.02 8.25299 6.15533 10.3405 6.15533 12.5172C6.15533 14.6938 7.02 16.7813 8.55913 18.3205C10.0983 19.8596 12.1858 20.7243 14.3624 20.7243C16.5391 20.7243 18.6266 19.8596 20.1657 18.3205C21.7049 16.7813 22.5695 14.6938 22.5695 12.5172ZM17.2926 26.8796C21.5052 26.8796 24.9932 30.0021 25.5638 34.0608H3.16102C3.73167 30.0021 7.21969 26.8796 11.4322 26.8796H17.2926ZM11.4322 23.8019C5.11662 23.8019 0 28.9185 0 35.2342C0 36.2857 0.852769 37.1385 1.9043 37.1385H26.8206C27.8721 37.1385 28.7249 36.2857 28.7249 35.2342C28.7249 28.9185 23.6082 23.8019 17.2926 23.8019H14.3624H11.4322ZM29.1737 13.4789C28.571 14.0816 28.571 15.0562 29.1737 15.6525L32.1872 18.6661L29.1737 21.6796C28.571 22.2823 28.571 23.2569 29.1737 23.8532C29.7764 24.4495 30.751 24.4559 31.3473 23.8532L34.3608 20.8397L37.3744 23.8532C37.9771 24.4559 38.9517 24.4559 39.548 23.8532C40.1443 23.2505 40.1507 22.2759 39.548 21.6796L36.5344 18.6661L39.548 15.6525C40.1507 15.0498 40.1507 14.0752 39.548 13.4789C38.9453 12.8826 37.9707 12.8762 37.3744 13.4789L34.3608 16.4925L31.3473 13.4789C30.7446 12.8762 29.77 12.8762 29.1737 13.4789Z" fill="#B3B3C3"/>
</svg>
