<svg width="24" height="20" viewBox="0 0 24 20" fill="none" xmlns="http://www.w3.org/2000/svg">
<path d="M17.2081 7.97306C16.9465 8.03077 16.7734 8.27314 16.7734 8.54244V9.21184C16.7734 9.51576 16.5849 9.78891 16.3233 9.93895C16.0617 10.089 15.7385 10.1121 15.4769 9.96203L14.9537 9.66195C14.719 9.5273 14.4266 9.55808 14.242 9.75429C13.9534 10.0659 13.6918 10.416 13.4687 10.8007C13.2456 11.1854 13.0724 11.5855 12.9493 11.9933C12.8686 12.2511 12.9917 12.5204 13.2263 12.655L13.7649 12.9666C14.015 13.1128 14.1535 13.3898 14.1535 13.6822C14.1535 13.9746 14.0188 14.2516 13.7649 14.3978L13.2263 14.7094C12.9917 14.844 12.8724 15.1133 12.9493 15.3711C13.0763 15.7789 13.2494 16.179 13.4687 16.5637C13.688 16.9484 13.9496 17.2985 14.242 17.6101C14.4266 17.8063 14.7229 17.8371 14.9537 17.7025L15.4731 17.4024C15.7347 17.2523 16.0578 17.2754 16.3194 17.4255C16.5849 17.5755 16.7695 17.8487 16.7695 18.1526V18.822C16.7695 19.0913 16.9427 19.3336 17.2043 19.3914C17.6082 19.4837 18.0314 19.5337 18.4623 19.5337C18.8932 19.5337 19.3163 19.4837 19.7203 19.3914C19.9819 19.3336 20.155 19.0913 20.155 18.822V18.141C20.155 17.841 20.3397 17.5717 20.6013 17.4216C20.859 17.2716 21.1822 17.2485 21.44 17.3985L21.9709 17.7025C22.2055 17.8371 22.4979 17.8063 22.6826 17.6101C22.975 17.2985 23.2327 16.9484 23.4559 16.5637C23.679 16.179 23.8521 15.7789 23.9752 15.3711C24.056 15.1133 23.9329 14.844 23.6982 14.7094L23.1442 14.3901C22.8942 14.2477 22.7595 13.9707 22.7595 13.6822C22.7595 13.3937 22.8942 13.1167 23.1442 12.9743L23.6982 12.655C23.9329 12.5204 24.0522 12.2511 23.9752 11.9933C23.8483 11.5855 23.6751 11.1854 23.4559 10.8007C23.2366 10.416 22.975 10.0659 22.6826 9.75429C22.4979 9.55808 22.2017 9.5273 21.9709 9.66195L21.44 9.96588C21.1822 10.1159 20.859 10.0928 20.6013 9.9428C20.3397 9.79276 20.155 9.52346 20.155 9.22338V8.54244C20.155 8.27314 19.9819 8.03077 19.7203 7.97306C19.3163 7.88073 18.8932 7.83072 18.4623 7.83072C18.0314 7.83072 17.6082 7.88073 17.2043 7.97306H17.2081ZM18.4661 11.8317C18.9559 11.8317 19.4256 12.0263 19.7719 12.3726C20.1182 12.7189 20.3128 13.1886 20.3128 13.6784C20.3128 14.1681 20.1182 14.6378 19.7719 14.9841C19.4256 15.3304 18.9559 15.525 18.4661 15.525C17.9764 15.525 17.5067 15.3304 17.1604 14.9841C16.8141 14.6378 16.6195 14.1681 16.6195 13.6784C16.6195 13.1886 16.8141 12.7189 17.1604 12.3726C17.5067 12.0263 17.9764 11.8317 18.4661 11.8317Z" fill="#FF4545"/>
<path d="M3.69325 5.07228C3.69325 3.76627 4.21206 2.51374 5.13555 1.59025C6.05904 0.666761 7.31156 0.147949 8.61758 0.147949C9.92359 0.147949 11.1761 0.666761 12.0996 1.59025C13.0231 2.51374 13.5419 3.76627 13.5419 5.07228C13.5419 6.37829 13.0231 7.63082 12.0996 8.55431C11.1761 9.4778 9.92359 9.99661 8.61758 9.99661C7.31156 9.99661 6.05904 9.4778 5.13555 8.55431C4.21206 7.63082 3.69325 6.37829 3.69325 5.07228ZM0 18.7027C0 14.9132 3.07001 11.8432 6.85944 11.8432H10.3757C10.8297 11.8432 11.2759 11.8894 11.703 11.9702C11.6222 12.6819 11.9877 13.3398 12.5417 13.6937C11.903 14.1015 11.5145 14.9094 11.7722 15.7442C11.9261 16.2405 12.1339 16.7252 12.4032 17.1907C12.6725 17.6562 12.9879 18.0794 13.3419 18.4603C13.9459 19.1105 14.8653 19.1682 15.5424 18.795V18.8296C15.5424 19.1836 15.6463 19.5413 15.8463 19.8414H1.1426C0.511669 19.8453 0 19.3336 0 18.7027Z" fill="#2E2640"/>
</svg>
