<svg width="24" height="20" viewBox="0 0 24 20" fill="current" xmlns="http://www.w3.org/2000/svg">
<path d="M8.61616 0C9.92196 0 11.1743 0.518726 12.0976 1.44207C13.0209 2.3654 13.5397 3.61772 13.5397 4.92352C13.5397 6.22932 13.0209 7.48163 12.0976 8.40497C11.1743 9.32831 9.92196 9.84704 8.61616 9.84704C7.31036 9.84704 6.05804 9.32831 5.1347 8.40497C4.21136 7.48163 3.69264 6.22932 3.69264 4.92352C3.69264 3.61772 4.21136 2.3654 5.1347 1.44207C6.05804 0.518726 7.31036 0 8.61616 0ZM6.85831 11.6934H10.374C10.8279 11.6934 11.2741 11.7395 11.701 11.8203C11.6203 12.5319 11.9857 13.1896 12.5396 13.5435C11.9011 13.9513 11.5126 14.759 11.7703 15.5937C11.9241 16.0899 12.1319 16.5746 12.4011 17.04C12.6704 17.5054 12.9858 17.9285 13.3397 18.3093C13.9436 18.9594 14.8629 19.0171 15.5399 18.644V18.6786C15.5399 19.0325 15.6437 19.3902 15.8437 19.6902H1.14241C0.511584 19.6941 0 19.1825 0 18.5517C0 14.7629 3.06951 11.6934 6.85831 11.6934ZM16.7707 8.39306C16.7707 8.12381 16.9438 7.88148 17.2054 7.82378C17.6093 7.73146 18.0324 7.68146 18.4632 7.68146C18.894 7.68146 19.3171 7.73146 19.721 7.82378C19.9826 7.88148 20.1557 8.12381 20.1557 8.39306V9.57009C20.4595 9.70087 20.748 9.86627 21.0134 10.0624L21.9712 9.51239C22.2058 9.37776 22.4982 9.40854 22.6828 9.60471C22.9751 9.91627 23.2329 10.2663 23.4559 10.651C23.679 11.0356 23.8521 11.4356 23.9752 11.8434C24.056 12.1011 23.9329 12.3703 23.6983 12.505L22.7367 13.0589C22.752 13.2127 22.7636 13.3704 22.7636 13.532C22.7636 13.6935 22.7559 13.8474 22.7367 14.0051L23.6983 14.559C23.9329 14.6936 24.0522 14.9629 23.9752 15.2206C23.8483 15.6283 23.6752 16.0284 23.4559 16.413C23.2367 16.7977 22.9751 17.1477 22.6828 17.4593C22.4982 17.6554 22.202 17.6862 21.9712 17.5516L21.0134 17.0015C20.748 17.1977 20.4634 17.3631 20.1557 17.4939V18.6709C20.1557 18.9402 19.9826 19.1825 19.721 19.2402C19.3171 19.3325 18.894 19.3825 18.4632 19.3825C18.0324 19.3825 17.6093 19.3325 17.2054 19.2402C16.9438 19.1825 16.7707 18.9402 16.7707 18.6709V17.4939C16.463 17.3631 16.1707 17.1977 15.9053 16.9977L14.9552 17.5477C14.7205 17.6824 14.4282 17.6516 14.2436 17.4554C13.9513 17.1438 13.6935 16.7938 13.4704 16.4092C13.2473 16.0245 13.0742 15.6245 12.9512 15.2167C12.8704 14.959 12.9935 14.6898 13.2281 14.5552L14.182 14.0051C14.1667 13.8474 14.1551 13.6897 14.1551 13.5281C14.1551 13.3666 14.1628 13.2089 14.182 13.0512L13.2243 12.5011C12.9896 12.3665 12.8704 12.0972 12.9473 11.8395C13.0742 11.4318 13.2435 11.0318 13.4666 10.6471C13.6897 10.2625 13.9474 9.91243 14.2397 9.60086C14.4244 9.40469 14.7167 9.37392 14.9513 9.50854L15.9053 10.0586C16.1707 9.86242 16.463 9.69702 16.7707 9.5624V8.39306ZM20.3134 13.5281C20.3248 13.2783 20.2854 13.0288 20.1977 12.7946C20.1099 12.5605 19.9756 12.3465 19.8029 12.1657C19.6301 11.9849 19.4225 11.841 19.1926 11.7426C18.9627 11.6443 18.7152 11.5936 18.4651 11.5936C18.215 11.5936 17.9676 11.6443 17.7376 11.7426C17.5077 11.841 17.3001 11.9849 17.1274 12.1657C16.9546 12.3465 16.8203 12.5605 16.7326 12.7946C16.6448 13.0288 16.6055 13.2783 16.6169 13.5281C16.6055 13.7779 16.6448 14.0275 16.7326 14.2616C16.8203 14.4958 16.9546 14.7098 17.1274 14.8906C17.3001 15.0714 17.5077 15.2153 17.7376 15.3136C17.9676 15.4119 18.215 15.4626 18.4651 15.4626C18.7152 15.4626 18.9627 15.4119 19.1926 15.3136C19.4225 15.2153 19.6301 15.0714 19.8029 14.8906C19.9756 14.7098 20.1099 14.4958 20.1977 14.2616C20.2854 14.0275 20.3248 13.7779 20.3134 13.5281Z" fill="current"/>
</svg>
