<svg width="32" height="23" viewBox="0 0 32 23" fill="none" xmlns="http://www.w3.org/2000/svg">
<path d="M8.00002 10.6002C9.37915 10.6002 10.7018 10.0524 11.677 9.07717C12.6522 8.10198 13.2 6.77934 13.2 5.40021C13.2 4.02108 12.6522 2.69844 11.677 1.72324C10.7018 0.748052 9.37915 0.200195 8.00002 0.200195C6.62089 0.200195 5.29825 0.748052 4.32306 1.72324C3.34786 2.69844 2.80001 4.02108 2.80001 5.40021C2.80001 6.77934 3.34786 8.10198 4.32306 9.07717C5.29825 10.0524 6.62089 10.6002 8.00002 10.6002ZM6.40002 13.0002C2.86501 13.0002 0 15.8652 0 19.4002V20.2002C0 21.5252 1.075 22.6003 2.40001 22.6003H13.6C14.925 22.6003 16 21.5252 16 20.2002V19.4002C16 15.8652 13.135 13.0002 9.60002 13.0002H6.40002Z" fill="white"/>
<path d="M24 0.200195C25.3791 0.200195 26.7018 0.748052 27.677 1.72324C28.6521 2.69844 29.2 4.02108 29.2 5.40021C29.2 6.77934 28.6521 8.10198 27.677 9.07717C26.7018 10.0524 25.3791 10.6002 24 10.6002C22.6209 10.6002 21.2982 10.0524 20.323 9.07717C19.3478 8.10198 18.8 6.77934 18.8 5.40021C18.8 4.02108 19.3478 2.69844 20.323 1.72324C21.2982 0.748052 22.6209 0.200195 24 0.200195ZM22.4 22.6003C20.485 22.6003 18.765 21.7602 17.595 20.4252C17.6 20.3502 17.6 20.2752 17.6 20.2002V19.4002C17.6 17.6552 17.04 16.0452 16.095 14.7302C16.385 13.7302 17.305 13.0002 18.4 13.0002H29.6C30.925 13.0002 32 14.0752 32 15.4002V16.2002C32 19.7352 29.135 22.6003 25.6 22.6003H22.4Z" fill="#FF4545"/>
</svg>
