<svg width="40" height="33" viewBox="0 0 40 33" fill="none" xmlns="http://www.w3.org/2000/svg">
<path d="M19.9937 20.7998C23.5819 20.7998 26.4375 17.8898 26.4375 14.2998C26.4375 10.7098 23.5287 7.7998 19.9937 7.7998C16.4056 7.7998 13.55 10.7098 13.55 14.2998C13.4938 17.8873 16.4062 20.7998 19.9937 20.7998ZM23.1187 22.7998H16.8813C11.975 22.7998 8 26.5311 8 31.1311C8 32.0561 8.79375 32.7998 9.775 32.7998H30.225C31.2063 32.7998 32 32.0561 32 31.1311C32 26.5311 28.025 22.7998 23.1187 22.7998Z" fill="white"/>
<path d="M8 10.7998C10.7612 10.7998 13 8.56105 13 5.7998C13 3.03855 10.7625 0.799805 8 0.799805C5.23875 0.799805 3 3.03855 3 5.7998C3 8.56105 5.23875 10.7998 8 10.7998ZM32 10.7998C34.7612 10.7998 37 8.56105 37 5.7998C37 3.03855 34.7625 0.799805 32 0.799805C29.2388 0.799805 27 3.03855 27 5.7998C27 8.56105 29.2375 10.7998 32 10.7998ZM34.4938 12.7998H30.6287C29.8288 12.7998 29.0738 12.9896 28.3875 13.3148C28.425 13.6436 28.4875 13.9623 28.4875 14.2998C28.4875 16.4067 27.6888 18.3129 26.415 19.7998H38.8963C39.5063 19.7998 40 19.2748 40 18.6311C40 15.4123 37.5375 12.7998 34.4938 12.7998ZM11.5938 13.3061C10.9125 12.9311 10.1625 12.7998 9.36875 12.7998H5.505C2.465 12.7998 0 15.4123 0 18.6311C0 19.2748 0.492938 19.7998 1.10125 19.7998H13.57C12.2962 18.3129 11.4975 16.4067 11.4975 14.2998C11.4938 13.9623 11.5562 13.6373 11.5938 13.3061Z" fill="#FF4545"/>
</svg>
