<svg width="40" height="41" viewBox="0 0 40 41" fill="none" xmlns="http://www.w3.org/2000/svg">
<g clip-path="url(#clip0_1426_30031)">
<path d="M23.75 24.4742H16.25C8.65625 24.4742 2.5 30.6305 2.5 38.2242C2.5 39.6047 3.61953 40.7242 5 40.7242H35C36.3805 40.7242 37.5 39.6047 37.5 38.2242C37.5 30.6305 31.3438 24.4742 23.75 24.4742ZM6.32734 36.9742C6.94453 32.0446 11.1562 28.2242 16.25 28.2242H23.75C28.8406 28.2242 33.0547 32.0485 33.6719 36.9742H6.32734ZM20 20.7242C25.5227 20.7242 30 16.2469 30 10.7242C30 5.20159 25.5227 0.724243 20 0.724243C14.4773 0.724243 10 5.20159 10 10.7242C10 16.2477 14.4766 20.7242 20 20.7242ZM20 4.47424C23.4461 4.47424 26.25 7.27815 26.25 10.7242C26.25 14.1703 23.4461 16.9742 20 16.9742C16.5539 16.9742 13.75 14.1696 13.75 10.7242C13.75 7.27815 16.5547 4.47424 20 4.47424Z" fill="#B3B3C3"/>
</g>
<defs>
<clipPath id="clip0_1426_30031">
<rect width="40" height="40" fill="white" transform="translate(0 0.724243)"/>
</clipPath>
</defs>
</svg>
