<svg width="40" height="41" viewBox="0 0 40 41" fill="none" xmlns="http://www.w3.org/2000/svg">
<path d="M0.09375 33.3941C0.46875 30.5503 1.91875 28.0441 4.01875 26.2941C5.95625 24.6878 8.4375 23.7253 11.1438 23.7253H14H16.8563C19.5625 23.7253 22.0438 24.6878 23.975 26.2941C26.075 28.0441 27.525 30.5503 27.9 33.3941C27.9625 33.8753 27.9937 34.3691 27.9937 34.8691C27.9937 35.8941 27.1625 36.7253 26.1375 36.7253H24.9188H3.08125H1.85625C0.83125 36.7253 0 35.8941 0 34.8691C0 34.3691 0.03125 33.8753 0.09375 33.3941ZM6 12.7253C6 10.6036 6.84285 8.56878 8.34315 7.06849C9.84344 5.5682 11.8783 4.72534 14 4.72534C16.1217 4.72534 18.1566 5.5682 19.6569 7.06849C21.1571 8.56878 22 10.6036 22 12.7253C22 14.8471 21.1571 16.8819 19.6569 18.3822C18.1566 19.8825 16.1217 20.7253 14 20.7253C11.8783 20.7253 9.84344 19.8825 8.34315 18.3822C6.84285 16.8819 6 14.8471 6 12.7253ZM19 12.7253C19 11.3993 18.4732 10.1275 17.5355 9.18981C16.5979 8.25213 15.3261 7.72534 14 7.72534C12.6739 7.72534 11.4021 8.25213 10.4645 9.18981C9.52678 10.1275 9 11.3993 9 12.7253C9 14.0514 9.52678 15.3232 10.4645 16.2609C11.4021 17.1986 12.6739 17.7253 14 17.7253C15.3261 17.7253 16.5979 17.1986 17.5355 16.2609C18.4732 15.3232 19 14.0514 19 12.7253ZM11.1438 26.7253C8.15625 26.7253 5.55 28.3316 4.13125 30.7253C3.59375 31.6253 3.23125 32.6441 3.08125 33.7253H6.125H21.875H24.925C24.9 33.5566 24.875 33.3941 24.8375 33.2253C24.6562 32.3316 24.325 31.4878 23.8687 30.7253C22.45 28.3316 19.8438 26.7253 16.8563 26.7253H11.1438ZM38.0812 36.7253H29.525C29.8312 36.1753 30 35.5441 30 34.8691C30 30.8066 28.1563 27.1691 25.2563 24.7566C25.525 24.7316 25.8 24.7253 26.0812 24.7253H29.9188C35.4875 24.7253 40 29.2378 40 34.8066C40 35.8691 39.1375 36.7253 38.0812 36.7253ZM27 20.7253C25.0625 20.7253 23.3125 19.9378 22.0438 18.6691C23.275 17.0066 24 14.9503 24 12.7253C24 11.0503 23.5875 9.46909 22.8563 8.08159C24.0188 7.23159 25.45 6.72534 27 6.72534C30.8688 6.72534 34 9.85659 34 13.7253C34 17.5941 30.8688 20.7253 27 20.7253Z" fill="#B3B3C3"/>
</svg>
