<svg width="40" height="33" viewBox="0 0 40 33" fill="none" xmlns="http://www.w3.org/2000/svg">
<path d="M19.9937 20.3999C23.5819 20.3999 26.4375 17.4899 26.4375 13.8999C26.4375 10.3099 23.5287 7.3999 19.9937 7.3999C16.4056 7.3999 13.55 10.3099 13.55 13.8999C13.4938 17.4874 16.4062 20.3999 19.9937 20.3999ZM19.9937 10.3999C21.9219 10.3999 23.4912 11.9699 23.4912 13.8999C23.4912 15.8299 21.9187 17.3999 19.9937 17.3999C18.0688 17.3999 16.4937 15.8312 16.4937 13.8999C16.4937 11.9687 18.0625 10.3999 19.9937 10.3999ZM32 10.3999C34.7612 10.3999 37 8.16115 37 5.3999C37 2.63865 34.7625 0.399902 32 0.399902C29.2388 0.399902 27 2.63865 27 5.3999C27 8.16115 29.2375 10.3999 32 10.3999ZM23.1187 22.3999H16.8813C11.975 22.3999 8 26.1312 8 30.7312C8 31.6562 8.79375 32.3999 9.775 32.3999H30.225C31.2063 32.3999 32 31.6562 32 30.7312C32 26.1312 28.025 22.3999 23.1187 22.3999ZM11.1313 29.3999C11.7856 27.1024 14.0912 25.3999 16.8275 25.3999H23.1187C25.8544 25.3999 28.16 27.1024 28.815 29.3999H11.1313ZM34.4938 12.3999H30.6287C29.8288 12.3999 29.0738 12.5897 28.3875 12.9149C28.425 13.2437 28.4875 13.5624 28.4875 13.8999C28.4875 16.0068 27.6888 17.913 26.415 19.3999H38.8963C39.5063 19.3999 40 18.8749 40 18.2312C40 15.0124 37.5375 12.3999 34.4938 12.3999ZM11.4937 13.8999C11.4937 13.5593 11.5552 13.2355 11.5943 12.9055C10.9125 12.5312 10.1625 12.3999 9.36875 12.3999H5.505C2.465 12.3999 0 15.0124 0 18.2312C0 18.8749 0.492938 19.3999 1.10125 19.3999H13.57C12.2937 17.9124 11.4937 16.0062 11.4937 13.8999ZM8 10.3999C10.7612 10.3999 13 8.16115 13 5.3999C13 2.63865 10.7625 0.399902 8 0.399902C5.23875 0.399902 3 2.63865 3 5.3999C3 8.16115 5.23875 10.3999 8 10.3999Z" fill="#B3B3C3"/>
</svg>
