<svg width="40" height="41" viewBox="0 0 40 41" fill="current" xmlns="http://www.w3.org/2000/svg">
<path d="M22.0052 12.7224C22.0052 17.1422 18.4231 20.7243 14.0033 20.7243C9.5835 20.7243 6.00141 17.1422 6.00141 12.7224C6.00141 8.30261 9.5835 4.72052 14.0033 4.72052C18.4231 4.72052 22.0052 8.30261 22.0052 12.7224ZM0 34.8713C0 28.7136 4.98867 23.725 11.1464 23.725H16.8602C23.0179 23.725 28.0066 28.7136 28.0066 34.8713C28.0066 35.8966 27.1751 36.728 26.1499 36.728H1.85669C0.831445 36.728 0 35.8966 0 34.8713ZM29.4444 13.6601C30.032 13.0725 30.9823 13.0725 31.5636 13.6601L34.5018 16.5983L37.44 13.6601C38.0277 13.0725 38.9779 13.0725 39.5593 13.6601C40.1407 14.2478 40.1469 15.198 39.5593 15.7794L36.6211 18.7176L39.5593 21.6557C40.1469 22.2434 40.1469 23.1936 39.5593 23.775C38.9716 24.3564 38.0214 24.3626 37.44 23.775L34.5018 20.8368L31.5636 23.775C30.976 24.3626 30.0258 24.3626 29.4444 23.775C28.863 23.1873 28.8568 22.2371 29.4444 21.6557L32.3826 18.7176L29.4444 15.7794C28.8568 15.1917 28.8568 14.2415 29.4444 13.6601Z" fill="current"/>
</svg>
