<svg width="40" height="40" viewBox="0 0 40 40" fill="current" xmlns="http://www.w3.org/2000/svg">
<path d="M19.9438 3.99977C20.8688 3.97477 21.6875 4.58102 21.9312 5.47477L26.5562 22.4248L27.6625 20.2123C28.3375 18.856 29.725 17.9998 31.2375 17.9998H38C39.1063 17.9998 40 18.8935 40 19.9998C40 21.106 39.1063 21.9998 38 21.9998H31.2375L27.7875 28.8935C27.4188 29.6373 26.625 30.0685 25.8 29.9873C24.975 29.906 24.2875 29.3248 24.0688 28.5248L20.2313 14.456L15.9563 34.4185C15.7625 35.3185 14.9875 35.9685 14.0688 35.9998C13.15 36.031 12.3313 35.431 12.0813 34.5498L8.49375 21.9998H2C0.89375 21.9998 0 21.106 0 19.9998C0 18.8935 0.89375 17.9998 2 17.9998H8.49375C10.2812 17.9998 11.85 19.181 12.3375 20.8998L13.725 25.7498L18.0438 5.58102C18.2375 4.68102 19.025 4.02477 19.9438 3.99977Z" fill="current"/>
</svg>
