<svg width="40" height="40" viewBox="0 0 40 40" fill="none" xmlns="http://www.w3.org/2000/svg">
<path d="M19.9625 4.00006C20.6562 3.98131 21.275 4.44381 21.45 5.11881L26.4062 24.1126L28.1 20.5063C28.675 19.2813 29.9125 18.4938 31.2687 18.4938H38.5C39.3313 18.4938 40 19.1626 40 19.9938C40 20.8251 39.3313 21.4938 38.5 21.4938H31.2687C31.075 21.4938 30.9 21.6063 30.8188 21.7813L27.3563 29.1376C27.0875 29.7063 26.4875 30.0501 25.8625 29.9938C25.2375 29.9376 24.7062 29.4876 24.55 28.8813L20.1688 12.0876L15.4688 34.8063C15.3312 35.4876 14.7438 35.9813 14.05 36.0001C13.3563 36.0188 12.7375 35.5688 12.5562 34.9001L8.95625 21.8688C8.89375 21.6501 8.7 21.5001 8.475 21.5001H1.5C0.66875 21.5001 0 20.8313 0 20.0001C0 19.1688 0.66875 18.5001 1.5 18.5001H8.475C10.05 18.5001 11.4313 19.5501 11.85 21.0688L13.7875 28.1063L18.5312 5.19381C18.675 4.51256 19.2625 4.01881 19.9625 4.00006Z" fill="#B3B3C3"/>
</svg>
