<svg width="40" height="40" viewBox="0 0 40 40" fill="none" xmlns="http://www.w3.org/2000/svg">
<path d="M19.9379 4.00441C20.8626 3.97941 21.6811 4.58549 21.9248 5.47897L26.5485 22.424L27.6544 20.2122C28.3292 18.8563 29.7163 18.0003 31.2283 18.0003H37.9889C39.0948 18.0003 39.9883 18.8938 39.9883 19.9997C39.9883 21.1056 39.0948 21.9991 37.9889 21.9991H31.2283L27.7793 28.8909C27.4107 29.6344 26.6172 30.0655 25.7924 29.9843C24.9677 29.9031 24.2804 29.322 24.0617 28.5222L20.2253 14.4576L15.9516 34.4142C15.7579 35.314 14.9831 35.9638 14.0646 35.995C13.1461 36.0263 12.3276 35.4264 12.0777 34.5454L8.49126 21.9991H1.99941C0.893488 21.9991 0 21.1056 0 19.9997C0 18.8938 0.893488 18.0003 1.99941 18.0003H8.49126C10.2782 18.0003 11.8465 19.1812 12.3339 20.8994L13.721 25.748L18.0385 5.58519C18.2322 4.68546 19.0194 4.0294 19.9379 4.00441Z" fill="#2D253F"/>
<path d="M40 20.0014C40 21.1049 39.1054 21.9995 38.0019 21.9995L31.2329 21.9995L31.2329 18.0027L38.0012 18.0027C39.1051 18.0027 40 18.8976 40 20.0014V20.0014Z" fill="#E84A4A"/>
<path d="M0 19.9995C0 18.896 0.894566 18.0015 1.99807 18.0015H8.47221V21.9983H1.99877C0.894878 21.9983 0 21.1034 0 19.9995V19.9995Z" fill="#E84A4A"/>
</svg>
