<svg width="31" height="31" viewBox="0 0 31 31" fill="none" xmlns="http://www.w3.org/2000/svg">
<path d="M25.9318 4.43203C23.0792 1.57266 19.2804 0 15.2432 0C6.91016 0 0.129353 6.7808 0.129353 15.1138C0.129353 17.7758 0.823772 20.3765 2.14453 22.6708L0 30.5L8.01306 28.3963C10.2189 29.6013 12.7038 30.2345 15.2364 30.2345H15.2432C23.5694 30.2345 30.5 23.4537 30.5 15.1206C30.5 11.0835 28.7844 7.29141 25.9318 4.43203ZM15.2432 27.6883C12.9829 27.6883 10.7703 27.0824 8.84364 25.9386L8.3875 25.6663L3.63549 26.9122L4.90179 22.2759L4.60223 21.7993C3.34275 19.7978 2.68237 17.4898 2.68237 15.1138C2.68237 8.19007 8.31942 2.55301 15.25 2.55301C18.6064 2.55301 21.7585 3.86016 24.1277 6.23616C26.4969 8.61217 27.9538 11.7643 27.947 15.1206C27.947 22.0512 22.167 27.6883 15.2432 27.6883ZM22.1329 18.2796C21.7585 18.089 19.8999 17.1767 19.5527 17.0541C19.2055 16.9248 18.9536 16.8635 18.7017 17.2448C18.4498 17.626 17.7281 18.4702 17.5035 18.7289C17.2856 18.9808 17.0609 19.0148 16.6865 18.8242C14.4671 17.7145 13.0102 16.8431 11.5464 14.3309C11.1584 13.6637 11.9345 13.7114 12.6561 12.2681C12.7787 12.0162 12.7174 11.7983 12.6221 11.6077C12.5268 11.4171 11.7711 9.55848 11.4579 8.80279C11.1516 8.06752 10.8384 8.16964 10.6069 8.15603C10.3891 8.14241 10.1372 8.14241 9.88527 8.14241C9.63337 8.14241 9.22489 8.23772 8.87768 8.61217C8.53047 8.99341 7.55692 9.90569 7.55692 11.7643C7.55692 13.6229 8.91172 15.4202 9.09554 15.6721C9.28616 15.924 11.7575 19.7365 15.5496 21.3772C17.946 22.4121 18.8855 22.5006 20.0837 22.3235C20.8122 22.2146 22.3167 21.4113 22.6299 20.5262C22.9431 19.6412 22.9431 18.8855 22.8478 18.7289C22.7593 18.5587 22.5074 18.4634 22.1329 18.2796Z" fill="white"/>
</svg>
