<svg width="40" height="40" viewBox="0 0 40 40" fill="current" xmlns="http://www.w3.org/2000/svg">
<path d="M40 7.5C40 4.74219 37.7578 2.5 35 2.5H5C2.24219 2.5 0 4.74219 0 7.5V32.5C0 35.2578 2.24219 37.5 5 37.5H35C37.7578 37.5 40 35.2578 40 32.5V7.5ZM7.5 7.5C8.16304 7.5 8.79893 7.76339 9.26777 8.23223C9.73661 8.70107 10 9.33696 10 10C10 10.663 9.73661 11.2989 9.26777 11.7678C8.79893 12.2366 8.16304 12.5 7.5 12.5C6.83696 12.5 6.20107 12.2366 5.73223 11.7678C5.26339 11.2989 5 10.663 5 10C5 9.33696 5.26339 8.70107 5.73223 8.23223C6.20107 7.76339 6.83696 7.5 7.5 7.5ZM12.5 10C12.5 9.33696 12.7634 8.70107 13.2322 8.23223C13.7011 7.76339 14.337 7.5 15 7.5C15.663 7.5 16.2989 7.76339 16.7678 8.23223C17.2366 8.70107 17.5 9.33696 17.5 10C17.5 10.663 17.2366 11.2989 16.7678 11.7678C16.2989 12.2366 15.663 12.5 15 12.5C14.337 12.5 13.7011 12.2366 13.2322 11.7678C12.7634 11.2989 12.5 10.663 12.5 10ZM22.5 7.5C23.163 7.5 23.7989 7.76339 24.2678 8.23223C24.7366 8.70107 25 9.33696 25 10C25 10.663 24.7366 11.2989 24.2678 11.7678C23.7989 12.2366 23.163 12.5 22.5 12.5C21.837 12.5 21.2011 12.2366 20.7322 11.7678C20.2634 11.2989 20 10.663 20 10C20 9.33696 20.2634 8.70107 20.7322 8.23223C21.2011 7.76339 21.837 7.5 22.5 7.5Z" fill="current"/>
</svg>
