<svg width="40" height="40" viewBox="0 0 40 40" fill="none" xmlns="http://www.w3.org/2000/svg">
<path d="M35 2.5C37.7578 2.5 40 4.73828 40 7.5V17.5H0V7.5C0 4.73828 2.23828 2.5 5 2.5H35ZM7.5 12.5C8.88281 12.5 10 11.3828 10 10C10 8.61719 8.88281 7.5 7.5 7.5C6.11953 7.5 5 8.61719 5 10C5 11.3828 6.11953 12.5 7.5 12.5ZM15 7.5C13.6172 7.5 12.5 8.61719 12.5 10C12.5 11.3828 13.6172 12.5 15 12.5C16.3828 12.5 17.5 11.3828 17.5 10C17.5 8.61719 16.3828 7.5 15 7.5ZM22.5 12.5C23.8828 12.5 25 11.3828 25 10C25 8.61719 23.8828 7.5 22.5 7.5C21.1172 7.5 20 8.61719 20 10C20 11.3828 21.1172 12.5 22.5 12.5Z" fill="#E84A4A"/>
<path d="M17.5 10C17.5 11.3828 16.3828 12.5 15 12.5C13.6172 12.5 12.5 11.3828 12.5 10C12.5 8.61719 13.6172 7.5 15 7.5C16.3828 7.5 17.5 8.61719 17.5 10ZM40 32.5C40 35.2578 37.7578 37.5 35 37.5H5C2.23828 37.5 0 35.2578 0 32.5V17.5H40V32.5ZM20 10C20 8.61719 21.1172 7.5 22.5 7.5C23.8828 7.5 25 8.61719 25 10C25 11.3828 23.8828 12.5 22.5 12.5C21.1172 12.5 20 11.3828 20 10Z" fill="white"/>
</svg>
