<svg width="40" height="40" viewBox="0 0 40 40" fill="none" xmlns="http://www.w3.org/2000/svg">
<path d="M0 7.5C0 4.74219 2.24219 2.5 5 2.5H35C37.7578 2.5 40 4.74219 40 7.5V12.5V16.25V17.5V32.5C40 35.2578 37.7578 37.5 35 37.5H5C2.24219 37.5 0 35.2578 0 32.5V17.5V16.25V12.5V7.5ZM36.25 17.5H3.75V32.5C3.75 33.1875 4.3125 33.75 5 33.75H35C35.6875 33.75 36.25 33.1875 36.25 32.5V17.5ZM7.5 12.5C8.16304 12.5 8.79893 12.2366 9.26777 11.7678C9.73661 11.2989 10 10.663 10 10C10 9.33696 9.73661 8.70107 9.26777 8.23223C8.79893 7.76339 8.16304 7.5 7.5 7.5C6.83696 7.5 6.20107 7.76339 5.73223 8.23223C5.26339 8.70107 5 9.33696 5 10C5 10.663 5.26339 11.2989 5.73223 11.7678C6.20107 12.2366 6.83696 12.5 7.5 12.5ZM17.5 10C17.5 9.33696 17.2366 8.70107 16.7678 8.23223C16.2989 7.76339 15.663 7.5 15 7.5C14.337 7.5 13.7011 7.76339 13.2322 8.23223C12.7634 8.70107 12.5 9.33696 12.5 10C12.5 10.663 12.7634 11.2989 13.2322 11.7678C13.7011 12.2366 14.337 12.5 15 12.5C15.663 12.5 16.2989 12.2366 16.7678 11.7678C17.2366 11.2989 17.5 10.663 17.5 10ZM22.5 12.5C23.163 12.5 23.7989 12.2366 24.2678 11.7678C24.7366 11.2989 25 10.663 25 10C25 9.33696 24.7366 8.70107 24.2678 8.23223C23.7989 7.76339 23.163 7.5 22.5 7.5C21.837 7.5 21.2011 7.76339 20.7322 8.23223C20.2634 8.70107 20 9.33696 20 10C20 10.663 20.2634 11.2989 20.7322 11.7678C21.2011 12.2366 21.837 12.5 22.5 12.5Z" fill="#B3B3C3"/>
</svg>
