<svg width="40" height="40" viewBox="0 0 40 40" fill="none" xmlns="http://www.w3.org/2000/svg">
<path d="M36.6418 3.51887C37.4007 2.61714 37.2846 1.26008 36.3829 0.501195C35.4812 -0.257687 34.1241 -0.141622 33.3652 0.760108L20 16.6698L6.64364 0.769036C5.88476 -0.141622 4.5277 -0.257687 3.62597 0.501195C2.72424 1.26008 2.59925 2.61714 3.35813 3.51887L17.2055 20L3.35813 36.4811C2.59925 37.3918 2.71531 38.7399 3.61704 39.4988C4.51877 40.2577 5.87583 40.1416 6.63471 39.2399L20 23.3302L33.3563 39.231C34.1152 40.1327 35.4722 40.2577 36.374 39.4899C37.2757 38.7221 37.4007 37.3739 36.6329 36.4722L22.7944 20L36.6329 3.51887H36.6418Z" fill="#B3B3C3"/>
</svg>
