<svg width="40" height="40" viewBox="0 0 40 40" fill="current" xmlns="http://www.w3.org/2000/svg">
<path d="M36.4808 4.68875C37.4897 3.47456 37.329 1.67114 36.1148 0.662294C34.9006 -0.346553 33.0972 -0.185852 32.0883 1.02833L20 15.5361L7.91173 1.02833C6.90288 -0.185852 5.09946 -0.346553 3.88527 0.662294C2.67108 1.67114 2.51038 3.47456 3.51923 4.68875L16.2771 20L3.51923 35.3112C2.51038 36.5254 2.67108 38.3289 3.88527 39.3377C5.09946 40.3466 6.90288 40.1858 7.91173 38.9717L20 24.4639L32.0883 38.9717C33.0972 40.1858 34.9006 40.3466 36.1148 39.3377C37.329 38.3289 37.4897 36.5254 36.4808 35.3112L23.7229 20L36.4808 4.68875Z" fill="current"/>
</svg>
