<svg width="46" height="32" viewBox="0 0 46 32" fill="none" xmlns="http://www.w3.org/2000/svg">
<path d="M44.8939 4.99592C44.6337 4.02945 44.1243 3.14827 43.4166 2.44055C42.7089 1.73283 41.8277 1.22341 40.8612 0.963266C37.302 2.91941e-07 23 0 23 0C23 0 8.69793 2.91941e-07 5.13875 0.963266C4.17228 1.22341 3.2911 1.73283 2.58338 2.44055C1.87566 3.14827 1.36624 4.02945 1.1061 4.99592C0.441517 8.62574 0.119015 12.3099 0.14283 16C0.119015 19.6901 0.441517 23.3743 1.1061 27.0041C1.36624 27.9706 1.87566 28.8517 2.58338 29.5595C3.2911 30.2672 4.17228 30.7766 5.13875 31.0367C8.69793 32 23 32 23 32C23 32 37.302 32 40.8612 31.0367C41.8277 30.7766 42.7089 30.2672 43.4166 29.5595C44.1243 28.8517 44.6337 27.9706 44.8939 27.0041C45.5584 23.3743 45.8809 19.6901 45.8571 16C45.8809 12.3099 45.5584 8.62574 44.8939 4.99592ZM18.4285 22.8571V9.14286L30.2979 16L18.4285 22.8571Z" fill="#E84A4A"/>
</svg>
